<?xml version="1.0" encoding="utf-8"?><svg xmlns="http://www.w3.org/2000/svg" viewBox="0 0 48 48"><path d="M4.3 19.2C4.3 8.3 13.1 0 24 0c11 0 19.7 8.2 19.7 19.2V36c0 1.7-1.2 2.9-3 2.9-1.9 0-3-1.2-3-2.9v-4.9h-.3c-2.3 4-6.9 7.4-13.8 7.4-10.6 0-19.3-8.2-19.3-19.3m33.6 0c0-7.9-6-13.9-13.9-13.9s-13.9 6-13.9 13.9 6 13.9 13.9 13.9 13.9-6 13.9-13.9" fill-rule="evenodd" clip-rule="evenodd" fill="#5a5b5b"/><path d="M15.7 42.1c-1.6 0-3 1.3-3 3 0 1.6 1.3 3 3 3s3-1.3 3-3c-.1-1.7-1.4-3-3-3" fill-rule="evenodd" clip-rule="evenodd" fill="#fcb716"/><path d="M7.3 42.1c-1.6 0-3 1.3-3 3 0 1.6 1.3 3 3 3 1.6 0 3-1.3 3-3s-1.3-3-3-3" fill-rule="evenodd" clip-rule="evenodd" fill="#ee363f"/><path d="M24 42.1c-1.6 0-3 1.3-3 3 0 1.6 1.3 3 3 3 1.6 0 3-1.3 3-3s-1.4-3-3-3" fill-rule="evenodd" clip-rule="evenodd" fill="#07af56"/><path d="M40.7 42.1c-1.6 0-3 1.3-3 3 0 1.6 1.3 3 3 3s3-1.3 3-3-1.4-3-3-3" fill-rule="evenodd" clip-rule="evenodd" fill="#04a9df"/><path d="M32.3 42.1c-1.6 0-3 1.3-3 3 0 1.6 1.3 3 3 3s3-1.3 3-3-1.3-3-3-3" fill-rule="evenodd" clip-rule="evenodd" fill="#a1479a"/></svg>