<?xml version="1.0" encoding="UTF-8" standalone="no"?><svg version="1.1" id="Layer_1" xmlns="http://www.w3.org/2000/svg" x="0px" y="0px" viewBox="0 0 92.8 99.9" style="enable-background:new 0 0 92.8 99.9;" xml:space="preserve"><style type="text/css">.st0{fill:#FF385C;}</style><path class="st0" d="M91.5,71c-0.5-1.2-1-2.5-1.5-3.6c-0.8-1.8-1.6-3.5-2.3-5.1l-0.1-0.1C80.7,47.2,73.3,32,65.5,17l-0.3-0.6 c-0.8-1.5-1.6-3.1-2.4-4.7c-1-2-2.2-3.8-3.6-5.5C56.2,2.3,51.5,0,46.5,0c-4.9,0-9.6,2.2-12.8,6c-1.4,1.7-2.6,3.6-3.6,5.5 c-0.8,1.6-1.6,3.2-2.4,4.7l-0.3,0.6C19.7,31.8,12.2,47,5.3,62l-0.1,0.2c-0.7,1.6-1.5,3.3-2.3,5.1c-0.5,1.1-1,2.3-1.5,3.6 c-1.3,3.4-1.7,7.2-1.2,10.8c1.1,7.4,6,13.8,13,16.6c2.6,1.1,5.3,1.6,8.1,1.6c0.9,0,1.7-0.1,2.6-0.2c3.5-0.4,6.9-1.6,10-3.4 c4.1-2.3,8-5.6,12.4-10.4c3.6,4.1,7.8,7.6,12.4,10.4c3.1,1.8,6.5,3,10,3.4c0.9,0.1,1.7,0.2,2.6,0.2c2.8,0,5.5-0.5,8.1-1.6 c7-2.8,11.9-9.2,13-16.6C93.2,78.1,92.8,74.4,91.5,71z M46.4,76.2C41,69.4,37.5,63,36.3,57.6c-0.5-2-0.6-4.1-0.3-6.1 c0.2-1.5,0.7-2.9,1.6-4.2c2-2.8,5.3-4.5,8.8-4.4c3.5-0.1,6.8,1.5,8.8,4.4c0.9,1.3,1.4,2.7,1.6,4.2c0.3,2,0.2,4.1-0.3,6.1 C55.3,62.9,51.8,69.3,46.4,76.2z M86.3,80.9c-0.7,5.2-4.2,9.7-9.1,11.7c-2.4,1-5,1.3-7.6,1c-2.7-0.3-5.3-1.2-7.6-2.6 c-3.6-2-7.2-5.1-11.4-9.7c6.6-8.1,10.6-15.5,12.1-22.1c0.7-2.8,0.8-5.7,0.5-8.5c-0.4-2.4-1.3-4.8-2.7-6.8c-3.2-4.6-8.5-7.2-14.1-7.1 c-5.6-0.1-10.8,2.6-14.1,7.1c-1.4,2-2.3,4.4-2.7,6.8c-0.4,2.8-0.3,5.7,0.5,8.5c1.5,6.6,5.6,14.1,12.1,22.2 c-3.2,3.8-7.1,7.1-11.4,9.7c-2.3,1.4-4.9,2.3-7.6,2.6c-2.6,0.3-5.2-0.1-7.6-1c-4.9-2-8.4-6.5-9.1-11.7c-0.3-2.6,0-5.3,0.9-7.8 c0.3-1,0.8-2,1.3-3.2c0.7-1.6,1.5-3.3,2.3-5l0.1-0.2c6.9-14.9,14.3-30.1,22-44.9l0.3-0.6c0.8-1.5,1.6-3.1,2.4-4.6 c0.8-1.6,1.7-3,2.8-4.4c3.8-4.4,10.4-5,14.8-1.2c0.4,0.4,0.8,0.8,1.2,1.2c1.1,1.4,2,2.8,2.8,4.4c0.8,1.5,1.6,3.1,2.4,4.6l0.3,0.6 c7.6,14.9,15,30.1,21.9,45V65c0.8,1.6,1.5,3.4,2.3,5c0.5,1.2,1,2.2,1.3,3.2C86.4,75.7,86.7,78.3,86.3,80.9z"/></svg>