<?xml version="1.0" encoding="UTF-8" standalone="no"?><svg xmlns="http://www.w3.org/2000/svg" viewBox="0 0 30 30" version="1.1" id="svg10"><g id="g22" transform="scale(0.46875)"><path id="path2" d="M 5,0 A 5,5 0 0 0 0,5 v 54 a 5,5 0 0 0 5,5 h 54 a 5,5 0 0 0 5,-5 V 5 A 5,5 0 0 0 59,0 Z" style="fill:#e62e04" /><path id="path4" d="m 17.6,21.452 c 0.245,1 0.107,2.08 0.348,3.097 0.84,-0.615 1.4,-1.63 1.285,-2.687 -0.017,-1.892 -2.145,-3.375 -3.926,-2.738 -1.12,0.32 -1.948,1.325 -2.136,2.46 -0.224,1.3 0.557,2.63 1.718,3.224 -0.115,-1.12 -0.384,-2.3 -0.083,-3.396 0.46,-1.194 2.37,-1.17 2.795,0.04 z m 33.138,1.356 c 0.408,-1.468 -0.48,-3.17 -1.936,-3.64 -1.4,-0.55 -3.133,0.15 -3.75,1.514 -0.688,1.263 -0.272,3.06 0.986,3.8 0.248,-1.014 0.065,-2.1 0.36,-3.085 0.47,-1.177 2.355,-1.143 2.784,0.05 0.273,1.066 0.026,2.186 -0.077,3.262 0.854,-0.264 1.387,-1.08 1.632,-1.898 z" style="fill:#b32100" /><path id="path6" d="m 46.4,21.396 c -0.296,0.995 -0.113,2.072 -0.36,3.085 -0.732,4.4 -3.678,8.332 -7.667,10.303 A 14.2,14.2 0 0 1 25.575,34.768 C 21.623,32.802 18.7,28.903 17.949,24.55 c -0.24,-1.018 -0.104,-2.087 -0.348,-3.097 -0.424,-1.2 -2.334,-1.235 -2.794,-0.04 -0.3,1.106 -0.03,2.277 0.083,3.396 0.84,5.44 4.48,10.325 9.412,12.75 a 17.34,17.34 0 0 0 14.635,0.346 c 5.333,-2.303 9.32,-7.446 10.173,-13.2 0.103,-1.076 0.35,-2.197 0.076,-3.262 -0.43,-1.193 -2.314,-1.226 -2.785,-0.05 z" style="fill:#ffffff" /><path id="path8" d="M 5,0 A 5,5 0 0 0 0,5 v 9.5 a 5,5 0 0 1 5,-5 h 54 a 5,5 0 0 1 5,5 V 5 A 5,5 0 0 0 59,0 Z" style="fill:#ff9900" /></g></svg>