<?xml version="1.0" encoding="UTF-8" standalone="no"?><svg version="1.1" id="Réteg_1" xmlns="http://www.w3.org/2000/svg" x="0px" y="0px" viewBox="0 0 2500 2500" style="enable-background:new 0 0 2500 2500;" xml:space="preserve"><style type="text/css">.st0{fill:#231F20;}.st1{fill:#FFFFFF;}.st2{fill:#F8981D;}.st3{fill:#D98924;}</style><g id="Group_79" transform="translate(2558 1165)"><circle id="Ellipse_61" class="st0" cx="-1299" cy="85" r="1228.8"/><g id="Group_78" transform="translate(-101.356 -113.223)"><path id="Path_172" class="st1" d="M-1418.5-264.6c31.7-18,18.5-144,171.6-177.4s200.6,95.1,200.6,95.1V-185 c0,0-365.6,8.4-543.7,128.5s-168.9,352.2-168.9,352.2s-47.5,280.2,261.3,357.3s512.1-156.8,512.1-156.8 c27.4,43.5,59.2,84,95,120.8c44.9,41.1,55.4,46.3,84.5,43.7c29.1-2.6,232.3-172.2,229.7-200.5C-578.9,432-687,270-687,270v-665.8 c0,0-39.6-161.3-161.1-239.1s-324.7-72-324.7-72c-147.9-11.7-294.6,34.3-409.2,128.5c-182.1,156.8-137.3,290.5-126.7,295.6 C-1698.2-277.5-1450.2-246.6-1418.5-264.6z"/><path id="Path_173" class="st0" d="M-1041,15.6c0,0-188.1-3.2-277.2,64.3c-89.1,67.5-79.2,197.9-79.2,197.9 s31.7,159.4,179.5,133.7C-1070,385.7-1041,180.1-1041,180.1V15.6z"/><path id="Path_174" class="st2" d="M-2020.4,676.1c0,0,324.7,244.2,744.4,277.6c419.7,33.5,770.8-167.1,770.8-167.1 s23.8,0,31.7,12.9c4.2,12.5,4.2,26.1,0,38.6c0,0-271.9,295.6-778.7,272.5c-506.9-23.2-789.3-395.9-789.3-395.9s-19.1-27-13.2-38.6 C-2048.8,664.5-2020.4,676.1-2020.4,676.1z"/><path id="Path_175" class="st3" d="M-650.3,737.9c0,0,75.2-7.7,132-7.7c31.8-0.3,63.6,2.3,95,7.7c0,0,19.1,7.7,10.6,66.8 s-61.4,158.1-44.9,169.7c16.5,11.6,77.9-48.2,110.8-123.3s31.7-164.5,21.1-177.4s-97.7-28.3-182.1-18S-671.4,727.6-650.3,737.9z" /></g></g></svg>