<svg id="logosandtypes_com" data-name="logosandtypes com" xmlns="http://www.w3.org/2000/svg" viewBox="0 0 150 150"><defs><style>.cls-1{fill:none;}.cls-2{fill:#a03027;}.cls-3{fill:#ff6153;}</style></defs><path class="cls-1" d="M0,0H150V150H0Z" transform="translate(0 0)"/><path class="cls-2" d="M74.61,118.28c1-4.31,3.34-20.84,3.76-25.7-1.84-5.8-12-7.54-18.89-.22C65.56,102.9,68.92,110.45,74.61,118.28Z" transform="translate(0 0)"/><path class="cls-3" d="M101.45,10.63H72.6L62.74,72.17a4.78,4.78,0,0,0-.65.07C40.3,75.12,23.39,93.48,23.55,114a29.23,29.23,0,0,0,8.28,20.79,24.51,24.51,0,0,0,17.72,7.66,23.33,23.33,0,0,0,7.56-1.26c11.77-4,15.69-13.9,17.5-22.93.52-10.08-4.85-20-15.14-25.9l-3.23,20.5c-1,5.82-2.39,9.32-5.3,10.32a5.3,5.3,0,0,1-5.34-1.55,10.39,10.39,0,0,1-3-7.8c-.1-10.25,7.95-18.3,16.84-21.47a26.29,26.29,0,0,1,9-1.49,31.65,31.65,0,0,1,9.93,1.72c12,2.84,19.34,15.59,21.12,29.39l1.06,7.76h20ZM80.91,73.47l5.76-44h.71l6.4,49.13A57.57,57.57,0,0,0,80.91,73.47Z" transform="translate(0 0)"/></svg>