<?xml version="1.0" encoding="utf-8"?><svg xmlns="http://www.w3.org/2000/svg" viewBox="0 0 48 48"><path d="M5.1 38L0 22.1c-.1-.3 0-.7.3-.9L8.1 15c.3-.2.6-.2.8.1l5.8 8.1c.2.3.2.7 0 1L5.6 38.1c-.1.2-.4.2-.5-.1m25.8 9.5l-10.3-13c-.2-.3-.6-.4-.9-.3l-9.4 3.1c-.3.1-.5.5-.4.8l3.4 9.4c.1.3.5.6.8.6h16.5c.4-.1.5-.3.3-.6m16.7-21.3l-15.5 5.9c-.3.1-.6.5-.6.8v10c0 .3.3.6.6.6l9.9-.4c.3 0 .7-.3.8-.6L48 26.6c.1-.4-.1-.6-.4-.4M32.7 3.4l.7 16.7c0 .3.3.7.6.8l9.4 3.1c.3.1.6-.1.7-.4l2.7-9.7c.1-.3-.1-.7-.3-.9L33.1 3.1c-.2-.1-.4 0-.4.3m-26 7.4l15.9 4.4c.3.1.7-.1.9-.3l5.8-8c.2-.3.1-.6-.2-.8L21 .4c-.3-.2-.7-.2-.9 0L6.7 10.3c-.3.2-.3.4 0 .5" fill="#74b71b"/></svg>