<?xml version="1.0" encoding="utf-8"?><svg version="1.1" id="prefix__Layer_1" xmlns="http://www.w3.org/2000/svg" x="0" y="0" viewBox="0 0 48 48" xml:space="preserve"><style>.prefix__st1{fill:#64c04f}</style><path d="M2.3 33.3c-.5-1.7-1.2-3.3-1.6-5-.9-4.1-.5-8.1.9-12 0-.1.1-.2.1-.3v-.1c.1-.2.2-.4.2-.6v-.1c0-.1.1-.2.1-.3.3-.6.6-1.2 1-1.8l.1-.1.1-.1c.8-1.1 1.6-2.1 2.3-3.2C7 8.4 8.5 7.1 10 5.9c.5-.3.9-.5 1.4-.8.4-.2.7-.4 1.1-.6.2-.1.5-.2.7-.3.5-.2.9-.4 1.4-.5.2 0 .3-.1.5-.1 2.2-.7 4.4-1.1 6.6-1 1.3 0 2.6.2 3.9.3h.3c.2.1.5.1.7.2 2 .4 3.9 1.2 5.7 2.1 1 .6 1.9 1.3 2.9 1.9.1 0 .1.1.2.1 1.2 1.2 2.4 2.5 3.7 3.7.1.1.1.2.2.3 0 .1.1.1.1.2.4.6.7 1.1 1.1 1.7.4.7.7 1.4 1.1 2.1.1.2.1.4.2.6 1.2 2.7 1.8 5.6 1.7 8.5-.1 1.9-.5 3.8-.7 5.7v.1c-.3.9-.6 1.8-1 2.6 0 .1-.1.2-.1.3 0 .1-.1.2-.1.3-.1.3-.2.6-.1.8.4.8 1 1.6 1.5 2.3.1.1.2.3.3.4.1.1.1.2.2.3.2.4.5.7.7 1.1 1.2 1.9 2.3 3.8 3.5 5.6.2.4.5.8.2 1.3s-.7.4-1.2.4H21.8c-.6 0-1.2 0-1.8-.1-2.1-.2-4.1-.7-6-1.4-1.4-.7-2.7-1.5-4.1-2.2-.2-.2-.5-.3-.7-.5l-1.8-1.5-.1-.1c-1.1-1.3-2.2-2.7-3.3-4-.1-.2-.3-.5-.4-.7-.2-.3-.4-.6-.5-1 0-.1-.1-.2-.1-.3-.6-.2-.6-.3-.7-.4zm25.3-22.5h9c-.1-.1-.2-.3-.3-.4l-.3-.3c-4.6-4.4-10.1-6.4-16.4-5.6-5.8.5-10.4 3.2-13.8 7.8-3.5 4.8-4.6 10.1-3.4 15.9.5 2.2 1.3 4.3 2.5 6.2l.3.3c0-.1.1-.3.1-.4V34 23.1c0-.6.1-.8.8-.8h11.8c.6 0 .7-.2.7-.7v-9.9c0-1-.1-.9.9-.9h8.1zm-4.5 12.4h1.6c.4 0 .5-.1.5-.5v-3.3c0-.3-.1-.4-.4-.4h-3.4c-.3 0-.4.1-.4.5v3.3c0 .3.1.4.4.4h1.7zM21 15.3v1.6c0 .4.2.5.6.5h3.2c.4 0 .5-.1.5-.5v-3.2c0-.3-.1-.5-.4-.4h-3.4c-.3 0-.4.1-.4.4-.1.5-.1 1.1-.1 1.6zm-9.1 17.4v-1.6c0-.3-.1-.5-.4-.5H8.2c-.4 0-.5.1-.5.5v3.2c0 .3.1.5.5.5h3.3c.4 0 .5-.1.5-.5-.1-.6-.1-1.1-.1-1.6zM23 40.5h1.7c.3 0 .5-.1.5-.4v-3.3c0-.3-.1-.4-.4-.4h-3.4c-.1 0-.4.2-.4.4v3.4c0 .1.2.4.4.4.5-.1 1.1-.1 1.6-.1zm.1-5.8h1.7c.3 0 .4-.1.4-.4V31c0-.3-.1-.5-.4-.5h-3.4c-.3 0-.4.1-.4.4v3.3c0 .4.2.5.5.4.5.1 1 .1 1.6.1zm0-5.8h1.7c.3 0 .4-.1.4-.4v-3.1c0-.4-.1-.6-.5-.5h-3.2c-.3 0-.5.1-.5.5v3.2c0 .4.2.5.5.5.5-.2 1-.2 1.6-.2zm-13.2 0h1.6c.4 0 .5-.1.5-.5v-3.2c0-.4-.1-.5-.5-.5H8.3c-.4 0-.6.1-.5.5v3.1c0 .4.2.6.6.5.4.1.9.1 1.5.1zm19 5.8h1.7c.1 0 .4-.2.4-.4V31c0-.3-.1-.4-.4-.4h-3.3c-.1 0-.4.2-.4.4v3.3c0 .3.1.4.4.4h1.6zm7.9-7.8v-1.7c0-.3-.1-.4-.4-.4h-3.3c-.4 0-.5.1-.5.5v3.2c0 .4.1.5.5.5h3.2c.4 0 .5-.1.5-.5v-1.6zm-2-7.9h-1.6c-.4 0-.5.1-.5.5v3.2c0 .4.1.5.5.5h3.2c.4 0 .5-.1.5-.5v-3.2c0-.5-.2-.6-.6-.5h-1.5zm-5.9 4.2h1.6c.3 0 .5-.1.5-.5v-3.2c0-.3-.1-.5-.5-.5h-3.2c-.3 0-.5.1-.5.4v3.2c0 .4.2.5.5.5.6.1 1.1.1 1.6.1zM31 38.4v-1.6c0-.3-.1-.5-.5-.5h-3.3c-.4 0-.4.2-.4.5V40c0 .3.1.5.5.5h3.2c.4 0 .5-.1.5-.5v-1.6zm0-11.5v-1.6c0-.3-.1-.5-.5-.5h-3.3c-.3 0-.4.1-.4.4v3.4c0 .3.1.4.4.4h3.3c.4 0 .5-.2.5-.5v-1.6zm-2-13.6h-1.7c-.3 0-.4.1-.4.4V17c0 .4.1.5.5.5h3.2c.4 0 .5-.2.5-.5v-3.1c0-.4-.2-.5-.6-.5-.5-.1-1-.1-1.5-.1zM13.6 26.9v1.6c0 .4.1.5.5.5h3.2c.4 0 .5-.2.5-.5v-3.2c0-.4-.1-.5-.5-.5h-3.2c-.3 0-.5.1-.5.5v1.6zm21.1-9.5h1.6c.4 0 .5-.1.5-.5v-3.1c0-.3-.1-.5-.5-.5h-3.2c-.4 0-.5.2-.5.5v3.1c0 .4.2.5.5.5h1.6zm-19 19h-1.6c-.4 0-.5.1-.5.5v3.2c0 .3.1.4.4.4h3.4c.1 0 .4-.2.4-.4v-3.3c0-.3-.1-.5-.4-.4h-1.7zm2-3.7v-1.6c0-.3-.1-.5-.5-.5H14c-.3 0-.4.1-.4.4v3.3c0 .1.2.4.4.4h3.3c.4 0 .5-.2.5-.5-.1-.5-.1-1-.1-1.5z" fill="#045897"/><path class="prefix__st1" d="M23.1 28.9h-1.6c-.3 0-.5-.1-.5-.5v-3.2c0-.4.2-.5.5-.5h3.2c.4 0 .5.2.5.5v3.1c0 .3-.1.5-.4.4-.6.2-1.2.2-1.7.2zM9.9 28.9H8.3c-.4 0-.6-.1-.6-.5v-3.1c0-.4.2-.5.5-.5h3.2c.4 0 .5.1.5.5v3.2c0 .4-.1.5-.5.5-.5-.1-1-.1-1.5-.1zM28.9 23.2h-1.6c-.3 0-.5-.1-.5-.5v-3.2c0-.3.1-.4.5-.4h3.2c.4 0 .5.2.5.5v3.2c0 .4-.1.5-.5.5-.5-.1-1-.1-1.6-.1zM34.7 17.4h-1.5c-.4 0-.5-.1-.5-.5v-3.1c0-.3.1-.5.5-.5h3.2c.4 0 .5.2.5.5v3.1c0 .4-.1.5-.5.5h-1.7zM17.7 32.7v1.5c0 .3-.1.5-.5.5h-3.3c-.1 0-.4-.3-.4-.4V31c0-.3.1-.4.4-.4h3.2c.4 0 .5.1.5.5.1.5.1 1.1.1 1.6z"/></svg>