<?xml version="1.0" encoding="utf-8"?><svg version="1.1" id="prefix__Layer_1" xmlns="http://www.w3.org/2000/svg" x="0" y="0" viewBox="0 0 48 48" xml:space="preserve"><style>.prefix__st0{fill:#015975}</style><path class="prefix__st0" d="M32 28.6H16.6l-.5 1.8h4.1L21 33h6.7l.8-2.6h4.1zM19.1 18.2c-1.2 1.6-.8 3.9.8 5.1l3.7 2.7c.4.3.5.9.2 1.3l.6.4 1.9-2.7c.5-.6.7-1.4.7-2.1v-.6c-.1-1-.7-1.8-1.5-2.4l-3.7-2.7c-.2-.1-.3-.4-.4-.6v-.1c0-.2.1-.4.2-.5l-.6-.4-1.9 2.6zm2.3-10.8c-.7.9-1 2-1 3.1 0 .3 0 .6.1.8.2 1.4 1 2.6 2.1 3.5l4.6 3.4c.6.4 1 1.1 1.1 1.9v.5c0 .6-.2 1.2-.5 1.7l.4.3 3.6-5.1c1.7-2.4 1.2-5.7-1.2-7.4L25 6c-.7-.5-.9-1.6-.4-2.3l-.4-.3-2.8 4zm-9.5 27.1h4.2c1 0 1.9.3 2.4.8.4.4.6 1 .6 1.6 0 1-.5 1.6-1.2 2 1 .4 1.7 1 1.7 2.2 0 1.7-1.4 2.5-3.4 2.5h-4.3v-9.1zm3.8 3.7c.9 0 1.4-.3 1.4-1 0-.6-.5-.9-1.3-.9h-2v1.9h1.9zm.5 3.7c.9 0 1.4-.3 1.4-1 0-.6-.5-1-1.5-1h-2.3v2h2.4zm4.3-7.4h4.2c1 0 1.9.3 2.4.8.4.4.6 1 .6 1.6 0 1-.5 1.6-1.2 2 1 .4 1.7 1 1.7 2.2 0 1.7-1.4 2.5-3.4 2.5h-4.3v-9.1zm3.8 3.7c.9 0 1.4-.3 1.4-1 0-.6-.5-.9-1.3-.9h-2v1.9h1.9zm.5 3.7c.9 0 1.4-.3 1.4-1 0-.6-.5-1-1.5-1h-2.3v2h2.4zm4.3-7.4h4.2c1 0 1.9.3 2.4.8.4.4.6 1 .6 1.6 0 1-.5 1.6-1.2 2 1 .4 1.7 1 1.7 2.2 0 1.7-1.4 2.5-3.4 2.5h-4.3v-9.1zm3.8 3.7c.9 0 1.4-.3 1.4-1 0-.6-.5-.9-1.3-.9h-2v1.9h1.9zm.5 3.7c.9 0 1.4-.3 1.4-1 0-.6-.5-1-1.5-1H31v2h2.4z"/></svg>