<?xml version="1.0" encoding="utf-8"?><svg xmlns="http://www.w3.org/2000/svg" viewBox="0 0 48 48"><linearGradient id="prefix__a" gradientUnits="userSpaceOnUse" x1="0" y1="24" x2="48" y2="24"><stop offset="0" stop-color="#00d6af"/><stop offset="1" stop-color="#00addb"/></linearGradient><path d="M38.7 48H9.3C4.2 48 0 43.8 0 38.7V9.3C0 4.2 4.2 0 9.3 0h29.4C43.8 0 48 4.2 48 9.3v29.4c0 5.1-4.2 9.3-9.3 9.3z" fill="url(#prefix__a)"/><path d="M19.8 39.6c.9.1 2 .1 3.2.1 1.4 0 2.7-.2 4-.5l.4-.1c5-1.7 8.1-6 8.1-11.4 0-7.1-5.1-12.1-12.5-12.1-1.6 0-4.6 0-4.6 3.2v10.4c0 2.6 2.1 4.8 4.7 4.8h.1c2.2 0 4.2-1.5 4.7-3.7.4-.1.8-.3 1.2-.5.5-.4.7-1.1.3-1.7-.2-.3-.5-.4-.8-.5-.3-.1-.7 0-.9.2-.2.1-.4.2-.6.2-.2 0-.4-.2-.6-.4-.2-.3-.5-.4-.8-.5-.3-.1-.7 0-.9.2-.3.2-.4.5-.5.8-.1.3 0 .7.2.9.3.4.6.7 1 .9-.3 1-1.2 1.6-2.3 1.6-1.3 0-2.4-1-2.4-2.3V18.7c0-.4.1-.4.1-.4.3-.2.9-.2 2-.2 5.9 0 10 4 10 9.6 0 4.3-2.4 7.7-6.3 9h-.4c-1.1.3-2.3.5-3.4.5-1.2 0-2.2 0-3.1-.1h-.3c-3.4-.3-4.7-1-4.7-2.6v-22c0-1 .8-1.8 1.8-1.8s1.8.8 1.8 1.8v1.1c0 .7.5 1.2 1.2 1.2s1.2-.5 1.2-1.2v-1.1c0-2.3-1.9-4.2-4.2-4.2s-4.2 1.9-4.2 4.2v21.9c0 3.9 3.7 4.8 7 5.1.1 0 .4.1.5.1z" fill="#fff"/></svg>