<svg width="312px" height="300px" viewBox="0 0 312 300" version="1.1" xmlns="http://www.w3.org/2000/svg" xmlns:xlink="http://www.w3.org/1999/xlink">
 <title>
  Birdeye_icon_Color
 </title>
 <g id="Birdeye_icon_Color" stroke="none" stroke-width="1" fill="none" fill-rule="evenodd">
  <path d="M214.489196,178.721494 L214.489981,178.719157 L214.436639,178.697342 C213.70397,178.381802 212.961888,178.087297 212.206471,177.816946 L135.844204,147.674678 L135.837928,147.685585 C133.747391,146.762338 131.438779,146.239554 129.003872,146.239554 C119.692548,146.239554 112.143865,153.736945 112.143865,162.984999 C112.143865,166.808099 113.448392,170.320334 115.619727,173.13916 L115.609529,173.150068 L115.741315,173.300436 C116.127261,173.789718 116.534386,174.26186 116.972104,174.705174 L171.720647,237.179014 L171.722216,237.177455 C178.548428,244.825214 188.508485,249.651811 199.607552,249.651811 C220.184243,249.651811 236.864613,233.084003 236.864613,212.647128 C236.864613,197.466139 227.656835,184.427707 214.489196,178.721494 M189.336682,52.7639327 C206.652,47.3522004 225.308304,56.2899708 231.007492,72.7245639 C236.70903,89.1583781 227.293934,106.866457 209.977832,112.278969 C192.665647,117.688364 174.00856,108.750594 168.307022,92.3175587 C162.608617,75.8821867 172.023714,58.1733284 189.336682,52.7639327 M309.18195,72.8283535 C306.66372,69.2875426 303.003548,67.0197097 299.029087,66.0209595 L299.025952,65.9625303 L284.097624,62.057121 C283.881305,61.3590866 283.740228,60.6524825 283.505883,59.9552271 C268.004623,14.2113779 217.271661,-10.6631109 170.185547,4.39682655 C145.793283,12.1967383 127.24397,29.2183396 117.109134,50.1406757 L90.135156,92.924111 L26.1119292,67.7083955 L26.069606,67.7551389 C22.0371467,66.1206787 17.4372432,65.7615338 12.9627418,67.1918811 C3.07400729,70.3564079 -2.30495639,80.707729 0.950010267,90.3173886 C1.42732178,91.721248 2.10370902,93.0004585 2.86944521,94.2033214 L2.75815091,94.3310867 L69.5551141,182.593492 C69.6154638,182.672177 69.6452468,182.76021 69.7055965,182.838116 C69.7651625,182.920696 69.8435387,182.984578 69.9070235,183.066379 L117.696173,249.929666 C138.577963,287.155313 183.755615,309.558636 227.367309,295.610411 C274.449504,280.552811 300.0566,231.262698 284.554557,185.518848 C279.72893,171.281594 271.486881,159.070666 261.005622,149.451658 C274.218294,136.855096 283.18454,120.601644 286.535126,102.96381 L300.973603,98.8005327 L300.964198,98.6431633 C302.244082,98.1609275 303.496535,97.5774143 304.67453,96.7866721 C312.727693,91.3800214 314.747449,80.6547532 309.18195,72.8283535" id="Fill-1" fill="#1976D2">
  </path>
 </g>
</svg>