<svg version="1.1" id="Layer_1" xmlns="http://www.w3.org/2000/svg" xmlns:xlink="http://www.w3.org/1999/xlink" x="0px" y="0px"
	 width="100%" viewBox="0 0 2560 1400" enable-background="new 0 0 2560 1400" xml:space="preserve">
<path fill="#FFFFFF" opacity="1.000000" stroke="none" 
	d="
M1444.000000,1401.000000 
	C962.666687,1401.000000 481.833344,1401.000000 1.000000,1401.000000 
	C1.000000,934.333313 1.000000,467.666656 1.000000,1.000000 
	C854.333313,1.000000 1707.666626,1.000000 2561.000000,1.000000 
	C2561.000000,467.666656 2561.000000,934.333313 2561.000000,1401.000000 
	C2188.833252,1401.000000 1816.666626,1401.000000 1444.000000,1401.000000 
M337.861053,1066.272827 
	C452.432709,1066.280029 567.004456,1066.335693 681.575989,1066.225098 
	C694.039185,1066.213013 706.501465,1065.240112 719.651550,1064.860352 
	C720.102356,1064.761475 720.553223,1064.662476 721.806519,1064.660034 
	C726.197021,1064.046997 730.587463,1063.434082 735.663635,1062.938965 
	C736.106262,1062.823853 736.548828,1062.708862 737.779541,1062.688599 
	C742.181824,1061.821655 746.584045,1060.954590 751.829407,1060.172241 
	C753.955444,1059.783447 756.096497,1059.462524 758.205383,1058.996094 
	C840.438965,1040.810181 902.506287,995.451355 941.551941,920.538269 
	C977.703186,851.178406 984.428894,777.728760 964.539368,702.666260 
	C937.921021,602.209656 874.793457,534.355286 775.332764,502.876007 
	C703.096436,480.013245 630.734924,485.136200 559.272522,508.513824 
	C555.900024,509.617004 552.555786,510.806580 548.718140,512.120300 
	C548.718140,509.586761 548.718201,507.769104 548.718140,505.951416 
	C548.717285,450.786713 548.719421,395.622009 548.702698,340.457306 
	C548.702148,338.637878 548.510742,336.818481 548.650513,334.189331 
	C547.085754,333.729797 545.521362,332.869812 543.956177,332.868286 
	C475.132141,332.802063 406.308044,332.811646 337.483948,332.812103 
	C335.726349,332.812103 333.968750,332.812103 332.219727,332.812103 
	C332.219727,577.653320 332.219727,821.868713 332.219727,1066.385864 
	C333.990356,1066.253052 335.463623,1066.142578 337.861053,1066.272827 
M1639.759399,917.224670 
	C1669.414917,856.730103 1677.565308,793.175598 1665.810181,727.118774 
	C1656.321655,673.798828 1633.992188,626.422241 1597.160767,586.352905 
	C1555.167358,540.667847 1502.463257,513.878906 1442.684937,500.005737 
	C1394.394897,488.798676 1345.477539,486.690735 1296.188599,490.787567 
	C1253.746582,494.315308 1212.686890,503.480347 1173.717651,520.978210 
	C1122.538696,543.958496 1080.812622,578.231567 1051.535034,626.380859 
	C1010.251282,694.275024 998.874146,767.919739 1015.183167,845.061707 
	C1036.509766,945.937317 1097.117310,1014.452026 1193.041626,1051.511353 
	C1240.049561,1069.672363 1289.274536,1075.998169 1339.454956,1076.203857 
	C1388.807739,1076.406128 1437.116333,1070.150635 1483.607056,1052.976074 
	C1552.462524,1027.539429 1605.417603,983.616882 1639.759399,917.224670 
M1931.454956,613.500183 
	C1931.454956,520.081238 1931.454956,426.662262 1931.454956,333.071747 
	C1859.055054,333.071747 1787.170288,333.071747 1715.113770,333.071747 
	C1715.113770,577.527771 1715.113770,821.717957 1715.113770,1066.043579 
	C1787.227295,1066.043579 1859.109497,1066.043579 1931.455566,1066.043579 
	C1931.455566,915.332947 1931.455566,764.916565 1931.454956,613.500183 
M2030.450439,829.922913 
	C1983.021851,860.018127 1960.634644,903.026001 1965.991577,959.054260 
	C1973.053589,1032.916626 2043.485107,1086.385132 2117.143066,1074.840088 
	C2189.386719,1063.516602 2238.699951,996.313354 2227.852539,923.967346 
	C2214.139648,832.510132 2111.391602,783.214172 2030.450439,829.922913 
z"/>
<path fill="#0100A4" opacity="1.000000" stroke="none" 
	d="
M721.004089,1064.563477 
	C720.553223,1064.662476 720.102356,1064.761475 718.971558,1064.552002 
	C706.843689,1064.494019 695.395935,1064.956543 683.947937,1064.962280 
	C568.295837,1065.020874 452.643707,1065.004883 336.585693,1064.995605 
	C331.941803,1064.619507 333.032471,1061.346558 333.032196,1058.905273 
	C333.005371,819.835571 333.016022,580.765869 333.026489,341.696136 
	C333.026794,334.493164 333.522095,333.992523 340.646729,333.992218 
	C406.453400,333.989410 472.260040,333.975372 538.066650,334.033478 
	C541.514160,334.036530 544.961121,334.662903 548.408325,334.999084 
	C548.510742,336.818481 548.702148,338.637878 548.702698,340.457306 
	C548.719421,395.622009 548.717285,450.786713 548.718140,505.951416 
	C548.718201,507.769104 548.718140,509.586761 548.718140,512.120300 
	C552.555786,510.806580 555.900024,509.617004 559.272522,508.513824 
	C630.734924,485.136200 703.096436,480.013245 775.332764,502.876007 
	C874.793457,534.355286 937.921021,602.209656 964.539368,702.666260 
	C984.428894,777.728760 977.703186,851.178406 941.551941,920.538269 
	C902.506287,995.451355 840.438965,1040.810181 758.205383,1058.996094 
	C756.096497,1059.462524 753.955444,1059.783447 750.965698,1060.103638 
	C745.731812,1060.887939 741.361633,1061.740845 736.991455,1062.593872 
	C736.548828,1062.708862 736.106262,1062.823853 735.014160,1062.623535 
	C729.911133,1063.059937 725.457642,1063.811768 721.004089,1064.563477 
M725.935120,862.458557 
	C766.680908,829.028137 770.452332,771.041748 750.505371,732.773315 
	C731.445740,696.207153 698.981995,679.052246 659.549561,674.209351 
	C623.894531,669.830505 588.844788,674.818909 554.341125,684.300781 
	C549.859192,685.532410 548.582275,687.543518 548.595459,692.174255 
	C548.772339,754.306824 548.713562,816.440186 548.713318,878.573303 
	C548.713318,880.375427 548.713318,882.177490 548.713318,883.958496 
	C549.730957,884.333984 550.324036,884.663452 550.954651,884.769653 
	C581.067017,889.838928 611.372009,893.130859 641.921326,891.770142 
	C672.458496,890.409851 701.006470,882.473511 725.935120,862.458557 
z"/>
<path fill="#0100A4" opacity="1.000000" stroke="none" 
	d="
M1639.562256,917.543213 
	C1605.417603,983.616882 1552.462524,1027.539429 1483.607056,1052.976074 
	C1437.116333,1070.150635 1388.807739,1076.406128 1339.454956,1076.203857 
	C1289.274536,1075.998169 1240.049561,1069.672363 1193.041626,1051.511353 
	C1097.117310,1014.452026 1036.509766,945.937317 1015.183167,845.061707 
	C998.874146,767.919739 1010.251282,694.275024 1051.535034,626.380859 
	C1080.812622,578.231567 1122.538696,543.958496 1173.717651,520.978210 
	C1212.686890,503.480347 1253.746582,494.315308 1296.188599,490.787567 
	C1345.477539,486.690735 1394.394897,488.798676 1442.684937,500.005737 
	C1502.463257,513.878906 1555.167358,540.667847 1597.160767,586.352905 
	C1633.992188,626.422241 1656.321655,673.798828 1665.810181,727.118774 
	C1677.565308,793.175598 1669.414917,856.730103 1639.562256,917.543213 
M1432.429199,715.070740 
	C1423.005005,702.639771 1411.407104,692.669495 1397.327148,686.037354 
	C1359.368286,668.157227 1320.964478,667.905884 1283.009766,685.567688 
	C1258.535400,696.956543 1241.805908,716.257019 1232.388428,741.583618 
	C1225.772583,759.375671 1223.854004,777.872131 1226.115723,796.678528 
	C1230.192017,830.574158 1245.804810,857.518127 1275.330566,875.464905 
	C1299.773804,890.322388 1326.681641,894.215210 1354.697632,891.442261 
	C1379.351440,889.002014 1401.663208,880.483948 1420.088867,863.473755 
	C1460.055054,826.577820 1465.643433,760.978943 1432.429199,715.070740 
z"/>
<path fill="#0100A4" opacity="1.000000" stroke="none" 
	d="
M1931.455322,614.000244 
	C1931.455566,764.916565 1931.455566,915.332947 1931.455566,1066.043579 
	C1859.109497,1066.043579 1787.227295,1066.043579 1715.113770,1066.043579 
	C1715.113770,821.717957 1715.113770,577.527771 1715.113770,333.071747 
	C1787.170288,333.071747 1859.055054,333.071747 1931.454956,333.071747 
	C1931.454956,426.662262 1931.454956,520.081238 1931.455322,614.000244 
z"/>
<path fill="#0201A3" opacity="1.000000" stroke="none" 
	d="
M2030.772705,829.745422 
	C2111.391602,783.214172 2214.139648,832.510132 2227.852539,923.967346 
	C2238.699951,996.313354 2189.386719,1063.516602 2117.143066,1074.840088 
	C2043.485107,1086.385132 1973.053589,1032.916626 1965.991577,959.054260 
	C1960.634644,903.026001 1983.021851,860.018127 2030.772705,829.745422 
z"/>
<path fill="#0D0B77" opacity="1.000000" stroke="none" 
	d="
M548.529419,334.594208 
	C544.961121,334.662903 541.514160,334.036530 538.066650,334.033478 
	C472.260040,333.975372 406.453400,333.989410 340.646729,333.992218 
	C333.522095,333.992523 333.026794,334.493164 333.026489,341.696136 
	C333.016022,580.765869 333.005371,819.835571 333.032196,1058.905273 
	C333.032471,1061.346558 331.941803,1064.619507 336.579163,1065.251465 
	C336.964691,1065.691650 336.950775,1065.861816 336.936890,1066.032104 
	C335.463623,1066.142578 333.990356,1066.253052 332.219727,1066.385864 
	C332.219727,821.868713 332.219727,577.653320 332.219727,332.812103 
	C333.968750,332.812103 335.726349,332.812103 337.483948,332.812103 
	C406.308044,332.811646 475.132141,332.802063 543.956177,332.868286 
	C545.521362,332.869812 547.085754,333.729797 548.529419,334.594208 
z"/>
<path fill="#0B0489" opacity="1.000000" stroke="none" 
	d="
M337.398987,1066.152466 
	C336.950775,1065.861816 336.964691,1065.691650 336.985107,1065.265625 
	C452.643707,1065.004883 568.295837,1065.020874 683.947937,1064.962280 
	C695.395935,1064.956543 706.843689,1064.494019 718.627869,1064.478271 
	C706.501465,1065.240112 694.039185,1066.213013 681.575989,1066.225098 
	C567.004456,1066.335693 452.432709,1066.280029 337.398987,1066.152466 
z"/>
<path fill="#0B0489" opacity="1.000000" stroke="none" 
	d="
M721.405273,1064.611816 
	C725.457642,1063.811768 729.911133,1063.059937 734.671326,1062.564697 
	C730.587463,1063.434082 726.197021,1064.046997 721.405273,1064.611816 
z"/>
<path fill="#0B0489" opacity="1.000000" stroke="none" 
	d="
M737.385498,1062.641235 
	C741.361633,1061.740845 745.731812,1060.887939 750.544189,1060.061279 
	C746.584045,1060.954590 742.181824,1061.821655 737.385498,1062.641235 
z"/>
<path fill="#FEFEFF" opacity="1.000000" stroke="none" 
	d="
M725.664185,862.688721 
	C701.006470,882.473511 672.458496,890.409851 641.921326,891.770142 
	C611.372009,893.130859 581.067017,889.838928 550.954651,884.769653 
	C550.324036,884.663452 549.730957,884.333984 548.713318,883.958496 
	C548.713318,882.177490 548.713318,880.375427 548.713318,878.573303 
	C548.713562,816.440186 548.772339,754.306824 548.595459,692.174255 
	C548.582275,687.543518 549.859192,685.532410 554.341125,684.300781 
	C588.844788,674.818909 623.894531,669.830505 659.549561,674.209351 
	C698.981995,679.052246 731.445740,696.207153 750.505371,732.773315 
	C770.452332,771.041748 766.680908,829.028137 725.664185,862.688721 
z"/>
<path fill="#FEFEFF" opacity="1.000000" stroke="none" 
	d="
M1432.654663,715.350342 
	C1465.643433,760.978943 1460.055054,826.577820 1420.088867,863.473755 
	C1401.663208,880.483948 1379.351440,889.002014 1354.697632,891.442261 
	C1326.681641,894.215210 1299.773804,890.322388 1275.330566,875.464905 
	C1245.804810,857.518127 1230.192017,830.574158 1226.115723,796.678528 
	C1223.854004,777.872131 1225.772583,759.375671 1232.388428,741.583618 
	C1241.805908,716.257019 1258.535400,696.956543 1283.009766,685.567688 
	C1320.964478,667.905884 1359.368286,668.157227 1397.327148,686.037354 
	C1411.407104,692.669495 1423.005005,702.639771 1432.654663,715.350342 
z"/>
</svg>