<?xml version="1.0" encoding="utf-8" standalone="no"?><svg id="Réteg_1" data-name="Réteg 1" xmlns="http://www.w3.org/2000/svg" viewBox="0 0 2500 2444.98"><defs><style>.cls-1{fill:#0c3b7c;}.cls-2{fill:#fff;}.cls-3{fill:#00bafc;}</style></defs><title>Booking</title><path class="cls-1" d="M2499.91,469.45C2499.91,210.37,2289.47,0,2030.38,0h-1561C210.35,0-.09,210.37-0.09,469.45V1975.58c0,2.85,0,5.69.09,8.53V2445H2030.39c259.08,0,469.52-210.41,469.52-469.43V469.45Z" transform="translate(0.09 -0.03)"/><path class="cls-2" d="M1136.1,1618.38l-201.36-.2V1377.42c0-51.44,20-78.22,64-84.33h137.38c98,0,161.35,61.77,161.35,161.75,0,102.68-61.77,163.45-161.35,163.55h0ZM934.75,969V905.61c0-55.45,23.46-81.83,74.91-85.24h103.09c88.34,0,141.29,52.85,141.29,141.39,0,67.39-36.3,146.1-138.08,146.1H934.75V969Zm458.47,240.27-36.4-20.46,31.79-27.18c37-31.79,99-103.29,99-226.63,0-188.92-146.51-310.76-373.23-310.76H855.63v-0.1H826.15c-67.19,2.51-121,57.16-121.74,124.75v1072h415c252,0,414.65-137.18,414.65-349.67,0-114.42-52.55-212.19-140.89-261.92" transform="translate(0.09 -0.03)"/><path class="cls-3" d="M1642.2,1672.76c0-81.89,66-148.14,147.42-148.14,81.58,0,147.93,66.25,147.93,148.14s-66.35,148.14-147.93,148.14c-81.37,0-147.42-66.35-147.42-148.14" transform="translate(0.09 -0.03)"/></svg>