<?xml version="1.0" encoding="utf-8" standalone="no"?><svg width="210" height="210" xmlns="http://www.w3.org/2000/svg"><g><title>background</title><rect x="-1" y="-1" width="212" height="212" id="canvas_background" fill="none"/></g><g><title>Layer 1</title><g id="Layer_1"><path fill="#CF2029" d="m97.047413,68.399962c0,0 -26.64,-60.58 -42.97,-54.57c-71.75,27.5 40.82,183.46 40.82,183.46s120.73,-98.39 88.08,-151.67c-8.59,-14.18 -47.26,-18.9 -47.26,-18.9l-38.67,41.68z" id="svg_11"/><path fill="#06060A" d="m102.627413,83.009962c-3.44,3.44 -9.02,0.86 -9.02,0.86c-5.16,-1.72 -6.02,-5.16 -8.59,-13.75c-3.44,-11.6 -12.46,-42.97 -24.92,-46.83c-1.72,-0.43 -4.3,-0.86 -9.02,1.72c-6.87,4.3 -10.74,11.17 -11.6,21.05c-3.87,41.68 41.68,116.87 57.57,138.35c0.86,-0.43 1.29,-1.29 2.15,-2.15c23.63,-21.05 94.95,-84.64 73.47,-133.19c-3.44,-7.3 -9.02,-10.74 -13.32,-12.03c-15.47,-4.73 -42.54,4.3 -55.43,40.82l-1.29,3.44l0,1.71l0,0l0,0zm-7.73,122.45c-12.03,-3.87 -65.74,-90.23 -71.75,-144.36c-3.44,-31.36 9.02,-45.54 20.19,-52.42c7.73,-4.73 15.47,-5.59 22.77,-3.44c16.76,5.59 26.64,27.5 32.22,45.97c17.62,-27.93 45.54,-38.24 67.03,-31.79c10.74,3.44 19.33,11.17 24.06,21.48c27.07,61.01 -48.98,128.9 -77.77,154.25c-3.01,2.58 -5.16,4.73 -6.44,6.02c0,0.43 -6.44,7.3 -10.31,4.29l0,0l0,0z" id="svg_12"/></g></g></svg>