<svg version="1.2" xmlns="http://www.w3.org/2000/svg" viewBox="0 0 1548 1547" width="1548" height="1547">
	<title>carvana logo-svg</title>
	<style>
		.s0 { fill: #00acd8 } 
		.s1 { fill: #fbb649 } 
		.s2 { fill: #ffffff } 
	</style>
	<g id="Layer">
		<path id="Layer" class="s0" d="m1547.8 773.1c0 312.6-188.4 594.5-477.4 714.2-289 119.6-621.7 53.5-842.9-167.6-221.2-221.1-287.4-553.6-167.7-842.5 119.7-288.8 401.8-477.2 714.6-477.2 101.6-0.1 202.2 19.9 296 58.7 93.9 38.9 179.2 95.8 251 167.6 71.9 71.8 128.8 157 167.7 250.9 38.8 93.8 58.8 194.3 58.7 295.9z"/>
		<path id="Layer" fill-rule="evenodd" class="s1" d="m778.4 473.6q-16.8 0.1-33.6-0.4-16.8-0.5-33.6-1.7-16.7-1.2-33.4-3-16.7-1.8-33.4-4.3-10.4-0.7-20.7-2.8-10.2-2-20.2-5.3-9.9-3.2-19.4-7.7-9.4-4.5-18.3-10.1-1.9-1.8-3.4-4-1.6-2.2-2.7-4.6-1.1-2.4-1.8-4.9-0.7-2.6-1-5.2 0.2-2.7 0.9-5.3 0.7-2.5 1.8-5 1.2-2.4 2.7-4.5 1.6-2.2 3.5-4 1.8-1.6 3.7-3.1 1.9-1.5 4-2.9 2-1.3 4.1-2.5 2.1-1.2 4.3-2.2 5.7-2.3 11.6-4.3 5.8-2 11.7-3.7 6-1.7 12-3 6-1.4 12.1-2.4 18.3-3.1 36.7-5.4 18.4-2.3 36.9-3.8 18.5-1.5 37.1-2.1 18.5-0.6 37.1-0.3 16.8-0.2 33.6 0.3 16.8 0.5 33.5 1.6 16.8 1.1 33.5 2.9 16.7 1.7 33.3 4.1 10.4 0.9 20.7 3.1 10.2 2.2 20 5.7 9.8 3.5 19.1 8.2 9.3 4.8 17.9 10.7 2.1 1.7 3.8 3.8 1.7 2.1 2.9 4.6 1.3 2.4 1.9 5 0.7 2.6 0.8 5.4-0.1 2.7-0.8 5.3-0.7 2.6-1.9 5-1.2 2.4-2.9 4.5-1.7 2.2-3.8 3.9-1.7 1.5-3.6 2.9-1.8 1.4-3.8 2.6-2 1.2-4 2.3-2.1 1.1-4.2 2-5.7 2.4-11.5 4.5-5.8 2.1-11.8 3.8-5.9 1.7-11.9 3.1-6 1.4-12.1 2.5-18.3 3-36.6 5.3-18.4 2.2-36.9 3.7-18.4 1.5-36.9 2.1-18.5 0.6-37 0.5m0-79.9q-16.1-0.1-32.2 0.4-16.2 0.5-32.3 1.6-16.1 1.2-32.1 2.9-16 1.7-32 4-7.4 0.9-14.8 2.3-7.4 1.4-14.6 3.4-7.2 1.9-14.3 4.4-7 2.5-13.9 5.5h3.6q4.9 2 9.9 3.7 5 1.8 10.1 3.2 5.1 1.5 10.2 2.7 5.2 1.1 10.4 2 17.6 3 35.3 5.1 17.7 2.2 35.5 3.6 17.7 1.4 35.6 2 17.8 0.6 35.6 0.5 16.1 0.1 32.2-0.3 16-0.5 32.1-1.6 16-1.1 32-2.9 16-1.8 31.9-4.1 7.4-0.9 14.7-2.3 7.4-1.4 14.6-3.3 7.2-1.9 14.3-4.3 7.1-2.4 14-5.3h-3.6q-4.8-2-9.8-3.7-4.9-1.7-10-3.2-5-1.5-10.1-2.6-5.1-1.2-10.3-2.1-17.6-3-35.3-5.1-17.7-2.2-35.4-3.6-17.8-1.4-35.6-2c-11.9-0.4-23.8-0.6-35.7-0.9z"/>
		<path id="Layer" fill-rule="evenodd" class="s2" d="m1120.8 796.3q3.2 4.1 6.1 8.4 2.9 4.3 5.5 8.8 2.7 4.5 5 9.1 1.9 4.7 3.3 9.5 1.3 4.8 2.2 9.8 0.8 4.9 1.1 10 0.4 5 0.1 10c-0.9 21.9-3.1 117.4-3.1 117.4v120c0.2 1.5 0.1 3.1-0.3 4.5-0.5 1.5-1.2 2.8-2.1 4-1 1.2-2.2 2.1-3.5 2.8-1.4 0.7-2.8 1.1-4.4 1.2h-94.6c-1.5-0.1-3-0.5-4.4-1.2-1.3-0.7-2.5-1.6-3.4-2.8-1-1.2-1.7-2.5-2.1-4-0.5-1.4-0.6-3-0.4-4.5v-14.7h-503.7v14.7c0.2 1.5 0 3.1-0.4 4.5-0.4 1.5-1.1 2.8-2.1 4-0.9 1.2-2.1 2.1-3.5 2.8-1.3 0.7-2.8 1.1-4.3 1.2h-95.1c-1.5-0.1-2.9-0.6-4.2-1.3-1.3-0.7-2.4-1.7-3.3-2.9-0.9-1.1-1.6-2.4-2-3.9-0.4-1.4-0.5-2.9-0.3-4.4v-120c0 0-3.2-95.5-3.2-117.4q-0.1-5 0.2-10 0.4-5 1.1-9.9 0.8-5 2.1-9.8 1.2-4.9 2.9-9.6 2.5-4.6 5.2-9.1 2.7-4.4 5.7-8.7 2.9-4.3 6.1-8.5 3.2-4.1 6.7-8.1 6.2-7.8 12-16 5.9-8.1 11.5-16.4 5.6-8.3 10.9-16.8 5.3-8.6 10.2-17.3h-3.6c0 0-82.6-4.4-67.8-33 0 0 16-34.4 76.8-34.4h8c3.1 0 8.5 1.4 8.5 22.4 4.6-11 10-21.7 15.9-32 6-10.3 12.6-20.3 19.7-29.8 7.2-9.5 15-18.6 23.3-27.1 8.3-8.6 17.1-16.6 26.4-24.1q3.3-1.8 6.8-3.4 3.4-1.6 7-2.8 3.6-1.2 7.3-2.1 3.7-0.9 7.5-1.5c17.4-4.5 149.1-4.5 159.8-4.5 10.8 0 142.5 1.4 159.9 4.5q3.8 0.6 7.5 1.5 3.6 0.9 7.2 2.2 3.6 1.2 7.1 2.7 3.5 1.6 6.8 3.4c9.3 7.5 18.1 15.5 26.4 24.1 8.3 8.5 16.1 17.6 23.3 27.1 7.1 9.5 13.7 19.5 19.7 29.8 5.9 10.3 11.2 21 15.9 32 1.3-22.4 5.3-22.4 8-22.4h8.5c60.7 0 76.8 34.4 76.8 34.4 14.7 28.6-67.9 33-67.9 33h-3.5q4.9 8.7 10.2 17.3 5.3 8.5 10.9 16.8 5.6 8.3 11.4 16.4 5.9 8.2 12.1 16 3.4 4 6.6 8.1zm-579.5-87.1h468.9c0 0 11.1 0 6.2-13.4q-6.7-15.2-14.2-30-7.5-14.9-15.7-29.4-8.2-14.5-17.2-28.5-8.9-14.1-18.5-27.7c0 0-53.6-3.1-125.5-3.1l2.2 5.4v12.5c0 1.1-0.2 2.3-0.7 3.3-0.4 1.1-1.1 2-1.9 2.8-0.8 0.8-1.8 1.4-2.9 1.8-1.1 0.4-2.3 0.6-3.4 0.6h-83.5c-1.1 0-2.2-0.3-3.3-0.7-1-0.4-1.9-1-2.7-1.8-0.8-0.8-1.4-1.8-1.8-2.8-0.5-1-0.7-2.1-0.7-3.2v-17.9c-71.9 0.5-119.7-6-125.9 3.1q-9.4 13.7-18 27.8-8.7 14.1-16.7 28.7-7.9 14.5-15.1 29.4-7.2 14.9-13.6 30.2c-7.2 13.4 4 12.9 4 12.9zm-66.5 188.7q13.4 2.4 27 4.4 13.5 2 27 3.6 13.6 1.6 27.2 2.9c0 0-4-54.9-35.3-71q-6.2-4.2-12.7-7.9-6.6-3.7-13.3-7-6.8-3.2-13.8-6-7-2.8-14.2-5c-3.3-0.6-6.7-0.7-10-0.2-3.4 0.5-6.6 1.5-9.6 3.1-2.9 1.6-5.6 3.6-7.9 6.1-2.3 2.5-4.2 5.3-5.5 8.4q-2.1 5.7-3.6 11.6-1.4 5.9-2.1 11.9-0.8 6.1-0.8 12.2 0 6 0.7 12.1c0 0 1.7 11.1 20.1 15.6q13.3 2.8 26.8 5.2zm484.9 15.8c0 0 15.6-34-5.8-36.6-3.1 0-72.8-2.7-176.4-2.7-103.6 0-175.5 2.7-178.6 2.7-24.1 0.9-8.5 34.8-8.5 34.8 55.8 4.9 136.2 4.9 184.9 4.9 48.7 0 129-0.5 184.9-4.9zm162.9-36.3q0.1-0.3 0.1-0.3zm-0.4 0.9q0.7-6 0.8-11.9 0-6.3-0.7-12.6-0.7-6.2-2-12.4-1.4-6.1-3.5-12.1c-1.4-3-3.3-5.9-5.7-8.3-2.3-2.5-5-4.5-8.1-6.1-3-1.6-6.2-2.6-9.6-3.1-3.3-0.5-6.7-0.5-10.1 0.1q-7.1 2.3-14.1 5.1-7 2.8-13.8 6-6.8 3.3-13.3 7-6.5 3.7-12.8 7.8c-30.8 16.1-44.4 71.8-35.3 71q13.7-1.2 27.3-2.8 13.6-1.6 27.2-3.7 13.6-2 27.1-4.4 13.5-2.4 26.9-5.2c14.3-3.5 18.6-11.4 19.7-14.4zm0 0.6l0.4-1.5q-0.1 0.3-0.4 0.9 0 0.3 0 0.6z"/>
	</g>
</svg>