<?xml version="1.0" encoding="UTF-8" standalone="no"?>
<!-- Generator: Adobe Illustrator 19.2.1, SVG Export Plug-In . SVG Version: 6.00 Build 0)  -->

<svg
   version="1.1"
   id="layer"
   x="0px"
   y="0px"
   viewBox="0 0 79.400002 89.400002"
   xml:space="preserve"
   sodipodi:docname="consumeraffairs_small_icon.svg"
   width="79.400002"
   height="89.400002"
   inkscape:version="1.3 (0e150ed6c4, 2023-07-21)"
   xmlns:inkscape="http://www.inkscape.org/namespaces/inkscape"
   xmlns:sodipodi="http://sodipodi.sourceforge.net/DTD/sodipodi-0.dtd"
   xmlns="http://www.w3.org/2000/svg"
   xmlns:svg="http://www.w3.org/2000/svg"><defs
   id="defs3" /><sodipodi:namedview
   id="namedview3"
   pagecolor="#ffffff"
   bordercolor="#000000"
   borderopacity="0.25"
   inkscape:showpageshadow="2"
   inkscape:pageopacity="0.0"
   inkscape:pagecheckerboard="0"
   inkscape:deskcolor="#d1d1d1"
   inkscape:zoom="1.7990798"
   inkscape:cx="304.87809"
   inkscape:cy="49.747656"
   inkscape:window-width="2560"
   inkscape:window-height="1369"
   inkscape:window-x="-8"
   inkscape:window-y="-8"
   inkscape:window-maximized="1"
   inkscape:current-layer="layer" />&#10;<style
   type="text/css"
   id="style1">&#10;	.st0{fill-rule:evenodd;clip-rule:evenodd;}&#10;	.st1{fill:#2976D1;}&#10;	.st2{fill:#FFFFFF;}&#10;</style>&#10;&#10;<path
   class="st1"
   d="m 35.8,1.05 c 2.3,-1.4 5.4,-1.4 7.8,0 l 31.9,18.5 c 2.3,1.4 3.9,3.9 3.9,6.7 v 36.9 c 0,2.8 -1.6,5.3 -3.9,6.7 l -31.9,18.5 c -2.3,1.4 -5.4,1.4 -7.8,0 L 3.9,69.85 C 1.6,68.45 0,65.95 0,63.15 v -36.9 c 0,-2.8 1.6,-5.3 3.9,-6.7 z"
   id="path2" />&#10;<path
   class="st2"
   d="m 39.7,24.85 5.1,12 12.9,1.2 -9.6,8.6 2.8,12.8 -11.2,-6.6 -11.2,6.7 2.8,-12.8 -9.8,-8.7 12.9,-1.2 c 0,0 5.3,-12 5.3,-12 z"
   id="path3" />&#10;</svg>
