<?xml version="1.0" encoding="UTF-8" standalone="no"?>
<svg
   width="106.8"
   height="106.8"
   viewBox="0 0 106.8 106.8"
   fill="none"
   version="1.1"
   id="svg13"
   sodipodi:docname="creditkarma_small_icon.svg"
   inkscape:version="1.3 (0e150ed6c4, 2023-07-21)"
   xmlns:inkscape="http://www.inkscape.org/namespaces/inkscape"
   xmlns:sodipodi="http://sodipodi.sourceforge.net/DTD/sodipodi-0.dtd"
   xmlns="http://www.w3.org/2000/svg"
   xmlns:svg="http://www.w3.org/2000/svg">
  <defs
     id="defs13" />
  <sodipodi:namedview
     id="namedview13"
     pagecolor="#ffffff"
     bordercolor="#000000"
     borderopacity="0.25"
     inkscape:showpageshadow="2"
     inkscape:pageopacity="0.0"
     inkscape:pagecheckerboard="0"
     inkscape:deskcolor="#d1d1d1"
     showgrid="false"
     inkscape:zoom="5.072643"
     inkscape:cx="70.673218"
     inkscape:cy="54.902346"
     inkscape:window-width="2560"
     inkscape:window-height="1369"
     inkscape:window-x="-8"
     inkscape:window-y="-8"
     inkscape:window-maximized="1"
     inkscape:current-layer="svg13" />
  <path
     d="m 53.4,106.8 c 29.492,0 53.4,-23.908 53.4,-53.4 C 106.8,23.908 82.892,0 53.4,0 23.908,0 0,23.908 0,53.4 c 0,29.492 23.908,53.4 53.4,53.4 z"
     fill="#008600"
     id="path12" />
  <path
     d="m 26.4685,58.753 c 0,-9.188 4.4254,-13.908 11.5482,-13.908 5.3105,0 8.5979,2.065 9.778,2.655 0.8851,-0.885 1.4752,-2.36 1.4752,-3.835 0,-2.655 -2.9503,-5.311 -11.5482,-5.311 -10.0731,0 -18.6289,7.081 -18.6289,20.399 0,13.319 7.7129,20.399 17.7438,20.399 6.1956,0 10.9582,-2.065 12.4333,-2.655 v -7.375 c -1.4751,1.18 -6.4906,3.54 -11.2532,3.54 -6.4906,0 -11.5482,-4.721 -11.5482,-13.909 z m 49.101,-0.295 c 4.4254,-5.31 8.5979,-11.548 11.5482,-19.514 l -6.4906,-2.36 C 76.4968,47.837 70.259,55.508 62.8833,61.746 V 22.971 h -7.0806 v 55.338 h 7.0806 v -8.302 c 2.6553,-2.066 5.0155,-4.131 7.7129,-6.491 l 6.4906,11.253 c 1.4751,2.655 3.8354,4.131 7.0807,4.131 1.7701,0 2.9503,-0.59 3.2453,-0.886 L 75.5695,58.5 Z"
     fill="#ffffff"
     id="path13" />
</svg>
