<?xml version="1.0" encoding="UTF-8" standalone="no"?>
<svg
   id="Layer_1"
   x="0px"
   y="0px"
   viewBox="0 0 61.999999 32.000001"
   xml:space="preserve"
   version="1.1"
   sodipodi:docname="customerlobby_small_icon.svg"
   width="62"
   height="32"
   inkscape:version="1.3 (0e150ed6c4, 2023-07-21)"
   xmlns:inkscape="http://www.inkscape.org/namespaces/inkscape"
   xmlns:sodipodi="http://sodipodi.sourceforge.net/DTD/sodipodi-0.dtd"
   xmlns="http://www.w3.org/2000/svg"
   xmlns:svg="http://www.w3.org/2000/svg"><defs
   id="defs6"><clipPath
     clipPathUnits="userSpaceOnUse"
     id="clipPath6"><rect
       style="fill:#ffffff"
       id="rect7"
       width="75.026199"
       height="42.18306"
       x="63.773796"
       y="-3.3696527" /></clipPath><clipPath
     clipPathUnits="userSpaceOnUse"
     id="clipPath7"><rect
       style="fill:#ffffff"
       id="rect8"
       width="75.026199"
       height="42.18306"
       x="63.773796"
       y="-3.3696527" /></clipPath></defs><sodipodi:namedview
   id="namedview6"
   pagecolor="#ffffff"
   bordercolor="#000000"
   borderopacity="0.25"
   inkscape:showpageshadow="2"
   inkscape:pageopacity="0.0"
   inkscape:pagecheckerboard="0"
   inkscape:deskcolor="#d1d1d1"
   inkscape:zoom="11.331662"
   inkscape:cx="35.519943"
   inkscape:cy="18.223275"
   inkscape:window-width="2560"
   inkscape:window-height="1369"
   inkscape:window-x="-8"
   inkscape:window-y="-8"
   inkscape:window-maximized="1"
   inkscape:current-layer="Layer_1" /> <style
   type="text/css"
   id="style1"> .st0{fill:none;} .st1{fill:#35455B;} .st2{fill:#F47821;} .st3{fill-rule:evenodd;clip-rule:evenodd;fill:#35455B;} </style> <rect
   y="0"
   class="st0"
   width="204.8"
   height="64.099998"
   id="rect1"
   clip-path="url(#clipPath7)"
   x="0"
   transform="translate(-1.5606965,-25.539843)" /> <g
   id="Group_1"
   clip-path="url(#clipPath6)"
   transform="matrix(0.82437133,0,0,0.82437133,-53.173737,1.00334)"> <path
   id="Path_4"
   class="st1"
   d="m 0,50.1 v 0 c 0,-5.5 3.8,-10 9.3,-10 2.7,-0.1 5.3,1 7,3 l -2,2.5 c -1.3,-1.5 -3.1,-2.3 -5,-2.4 -3.4,0 -5.9,3 -5.9,6.8 v 0 c 0,3.8 2.5,6.8 5.9,6.8 2.2,0 3.6,-0.9 5.2,-2.5 l 2,2.2 C 14.7,58.7 12,60 9.2,59.9 3.9,59.9 0,55.6 0,50.1" /> <path
   id="Path_5"
   class="st1"
   d="m 19.3,54.3 v -9.2 h 3.1 v 8.2 c 0,2.2 1.1,3.5 2.9,3.5 1.8,0 3.1,-1.3 3.1,-3.6 V 45 h 3.1 v 14.5 h -3.1 v -2.2 c -0.8,1.6 -2.5,2.5 -4.2,2.5 -3.2,0.1 -4.9,-2.1 -4.9,-5.5" /> <path
   id="Path_6"
   class="st1"
   d="m 34.3,57.7 1.4,-2.2 c 1.2,1.1 2.8,1.7 4.4,1.8 1.3,0 2.1,-0.6 2.1,-1.6 v -0.1 c 0,-1.1 -1.4,-1.5 -3,-2 C 37.2,53 35,52.1 35,49.4 v -0.1 c 0,-2.7 2.1,-4.4 4.8,-4.4 1.8,0 3.5,0.6 5,1.6 l -1.2,2.4 c -1.1,-0.8 -2.5,-1.3 -3.8,-1.4 -1.2,0 -1.9,0.6 -1.9,1.4 V 49 c 0,1.1 1.5,1.5 3.1,2.1 2,0.7 4.2,1.6 4.2,4.2 v 0.1 c 0,3 -2.2,4.5 -5,4.5 -2.3,-0.1 -4.3,-0.8 -5.9,-2.2" /> <path
   id="Path_7"
   class="st1"
   d="M 48.6,55.6 V 48 h -1.7 v -2.9 h 1.7 v -4 h 3.1 v 4 h 3.7 V 48 h -3.7 v 7.1 c 0,1.3 0.6,1.8 1.7,1.8 0.7,0 1.3,-0.2 1.9,-0.5 v 2.7 c -0.8,0.5 -1.8,0.8 -2.8,0.7 -2.2,0.1 -3.8,-1 -3.9,-4.2" /> <path
   class="st1"
   d="m 71.9,51.8 c -0.2,-4 -3.6,-7.1 -7.6,-6.9 -4,0.2 -7.1,3.6 -6.9,7.6 v 0.1 0 c 0,0.1 0,0.1 0,0.2 0,4 3.2,7.3 7.2,7.3 0.1,0 0.1,0 0.2,0 4,-0.1 7.2,-3.5 7.1,-7.5 v -0.1 c 0,-0.3 0,-0.5 0,-0.7 z M 64.7,57 c 0,0 -0.1,0 0,0 -2.5,-0.2 -4.3,-2.2 -4.1,-4.6 v -0.1 c 0,-2.5 1.6,-4.6 4.1,-4.6 2.4,0 4.2,2.1 4.2,4.7 v 0.1 0 C 68.8,54.9 67.2,57 64.7,57 Z"
   id="path1" /> <path
   id="Path_9"
   class="st1"
   d="m 75.1,45.1 h 3.1 v 2.2 c 0.8,-1.5 2.4,-2.5 4.1,-2.5 1.7,-0.1 3.4,0.9 4.1,2.5 1,-1.6 2.7,-2.6 4.6,-2.5 3,0 4.8,2 4.8,5.5 v 9.2 h -3.1 v -8.2 c 0,-2.3 -1,-3.5 -2.8,-3.5 -1.7,0 -2.9,1.3 -2.9,3.6 v 8.2 h -3.1 v -8.2 c 0,-2.2 -1,-3.5 -2.8,-3.5 -1.8,0 -2.9,1.4 -2.9,3.6 v 8.2 h -3.1 z" /> <path
   class="st1"
   d="m 111.9,52.6 c 0,-4.2 -2.2,-7.8 -6.5,-7.8 -3.9,0 -6.6,3.4 -6.6,7.5 v 0.1 0 c 0,4.5 3,7.5 7,7.5 2.2,0.1 4.3,-1 5.6,-2.7 l -1.8,-1.7 c -0.9,1.1 -2.3,1.7 -3.7,1.7 -2.1,0 -3.8,-1.6 -3.9,-3.7 h 10 c -0.1,-0.3 -0.1,-0.6 -0.1,-0.9 z m -10,-1.2 c 0.3,-2.2 1.6,-3.8 3.5,-3.8 2.1,0 3.2,1.7 3.4,3.8 z"
   id="path2" /> <path
   id="Path_11"
   class="st1"
   d="m 115.1,45.1 h 3.1 v 3.3 c 0.8,-2.2 2.4,-3.6 4.8,-3.5 v 3.5 h -0.2 c -2.7,0 -4.6,1.9 -4.6,5.7 v 5.5 h -3.1 z" /> <path
   id="Path_12"
   class="st2"
   d="m 126.1,40.4 h 3.2 v 16.1 h 9.5 v 3.1 H 126.2 V 40.4 Z" /> <path
   class="st2"
   d="m 155.1,51.7 c -0.2,-4 -3.6,-7.1 -7.6,-6.9 -4,0.2 -7.1,3.6 -6.9,7.6 v 0.1 0 c 0,0.1 0,0.1 0,0.2 0,4 3.2,7.3 7.2,7.3 0.1,0 0.1,0 0.2,0 4,-0.1 7.2,-3.5 7.1,-7.5 v -0.1 c 0,-0.3 0,-0.5 0,-0.7 z m -3.1,0.8 c 0,2.5 -1.6,4.6 -4.1,4.6 0,0 -0.1,0 -0.1,0 -2.4,-0.2 -4.2,-2.2 -4,-4.6 v -0.1 c 0,-2.5 1.6,-4.6 4.1,-4.6 2.4,-0.1 4.1,2.1 4.1,4.7 z"
   id="path3" /> <path
   class="st2"
   d="m 166,44.8 c -1.9,0 -3.7,1 -4.6,2.7 v -7.9 h -3.1 v 20 h 3.1 v -2.2 c 1,1.6 2.8,2.6 4.6,2.5 3.2,0 6.3,-2.7 6.3,-7.5 v -0.1 c 0,-4.8 -3.1,-7.5 -6.3,-7.5 z m 3.1,7.6 c 0,2.8 -1.7,4.6 -3.9,4.6 -2.1,0 -4,-1.9 -4,-4.6 v -0.1 c 0,-2.8 1.9,-4.6 4,-4.6 2.1,0 3.9,1.8 3.9,4.7 z"
   id="path4" /> <path
   class="st2"
   d="m 183.3,44.8 c -1.9,0 -3.7,1 -4.6,2.7 v -7.9 h -3.1 v 20 h 3.1 v -2.2 c 1,1.6 2.8,2.6 4.6,2.5 3.2,0 6.3,-2.7 6.3,-7.5 v -0.1 c 0,-4.8 -3.1,-7.5 -6.3,-7.5 z m 3.1,7.6 c 0,2.8 -1.7,4.6 -3.9,4.6 -2.1,0 -4,-1.9 -4,-4.6 v -0.1 c 0,-2.8 1.9,-4.6 4,-4.6 2.1,0 3.9,1.8 3.9,4.7 z"
   id="path5" /> <path
   id="Path_16"
   class="st2"
   d="m 201.6,45.1 h 3.2 L 199.4,60 c -1.1,3 -2.3,4.1 -4.5,4.1 -1.1,0 -2.2,-0.3 -3.2,-0.9 l 1.1,-2.5 c 0.5,0.3 1.2,0.5 1.8,0.5 0.9,0 1.4,-0.4 1.9,-1.6 l -5.7,-14.5 h 3.3 l 3.8,10.7 z" /> <path
   class="st3"
   d="m 118.7,0 c -0.1,0 -0.1,0 -0.2,0 V 0 L 78.3,10.4 70.4,7.7 C 70,7.6 69.7,7.8 69.5,8.1 c 0,0.1 0,0.1 0,0.2 l -0.1,16 c 0,0.2 0.1,0.4 0.3,0.5 0.2,0.1 0.4,0.2 0.6,0.1 l 7.9,-2.5 4.7,1.3 -0.1,8.8 c 0,0.3 0.2,0.6 0.5,0.7 L 96.7,36 c 0,0 0.1,0 0.1,0 0.4,0 0.7,-0.3 0.7,-0.7 0,0 0,0 0,0 l 0.1,-7.5 20.6,5.6 c 0.1,0 0.1,0 0.2,0 0.1,0 0.3,0 0.4,-0.1 0.2,-0.1 0.3,-0.3 0.3,-0.5 L 119.4,0.7 C 119.4,0.3 119.1,0 118.7,0 Z M 96.2,34.4 84.1,31.9 84.2,24.1 96.3,27.4 Z M 117.8,31.9 78.3,21.1 c -0.1,0 -0.1,0 -0.2,0 -0.1,0 -0.1,0 -0.2,0 l -7.2,2.3 0.1,-14.2 7.2,2.4 c 0.1,0 0.3,0 0.4,0 L 118,1.6 Z"
   id="path6" /> <path
   id="Path_18"
   class="st2"
   d="m 134.7,17.5 h -8.1 c -0.4,0 -0.7,-0.3 -0.7,-0.7 0,-0.4 0.3,-0.7 0.7,-0.7 h 8.1 c 0.4,0 0.7,0.3 0.7,0.7 0,0.4 -0.3,0.7 -0.7,0.7" /> <path
   id="Path_19"
   class="st2"
   d="M 135.3,1.3 127,6.7 c -0.3,0.2 -0.8,0.1 -1,-0.2 v 0 c -0.2,-0.3 -0.1,-0.8 0.2,-1 l 8.3,-5.4 c 0.3,-0.2 0.8,-0.1 1,0.2 v 0 c 0.2,0.4 0.1,0.8 -0.2,1" /> <path
   id="Path_20"
   class="st2"
   d="M 134.3,33.5 126.1,28 c -0.3,-0.2 -0.4,-0.6 -0.2,-1 0,0 0,0 0,0 v 0 c 0.2,-0.3 0.6,-0.4 1,-0.2 0,0 0,0 0,0 l 8.2,5.5 c 0.3,0.2 0.4,0.6 0.2,1 0,0 0,0 0,0 v 0 c -0.2,0.3 -0.7,0.4 -1,0.2 0,0 0,0 0,0" /> </g> </svg>
