<?xml version="1.0" encoding="UTF-8" standalone="no"?>
<svg
   xmlns:dc="http://purl.org/dc/elements/1.1/"
   xmlns:cc="http://creativecommons.org/ns#"
   xmlns:rdf="http://www.w3.org/1999/02/22-rdf-syntax-ns#"
   xmlns:svg="http://www.w3.org/2000/svg"
   xmlns="http://www.w3.org/2000/svg"
   xmlns:sodipodi="http://sodipodi.sourceforge.net/DTD/sodipodi-0.dtd"
   xmlns:inkscape="http://www.inkscape.org/namespaces/inkscape"
   width="1000"
   height="875.2569"
   viewBox="0 0 999.99998 875.25691"
   version="1.1"
   id="svg17"
   sodipodi:docname="635692294a52ff6c1633391b_EMM dark.svg"
   style="fill:none"
   inkscape:version="0.92.4 (5da689c313, 2019-01-14)">
  <metadata
     id="metadata21">
    <rdf:RDF>
      <cc:Work
         rdf:about="">
        <dc:format>image/svg+xml</dc:format>
        <dc:type
           rdf:resource="http://purl.org/dc/dcmitype/StillImage" />
        <dc:title></dc:title>
      </cc:Work>
    </rdf:RDF>
  </metadata>
  <sodipodi:namedview
     pagecolor="#ffffff"
     bordercolor="#111111"
     borderopacity="1"
     objecttolerance="10"
     gridtolerance="10"
     guidetolerance="10"
     inkscape:pageopacity="0"
     inkscape:pageshadow="2"
     inkscape:window-width="1920"
     inkscape:window-height="1017"
     id="namedview19"
     showgrid="false"
     fit-margin-top="0"
     fit-margin-left="0"
     fit-margin-right="0"
     fit-margin-bottom="0"
     inkscape:zoom="0.86197917"
     inkscape:cx="647.6569"
     inkscape:cy="345.18071"
     inkscape:window-x="1912"
     inkscape:window-y="-8"
     inkscape:window-maximized="1"
     inkscape:current-layer="svg17" />
  <defs
     id="defs15">
    <clipPath
       id="clip0_395_23486">
      <rect
         width="96"
         height="24"
         id="rect12"
         x="0"
         y="0"
         style="fill:#ffffff" />
    </clipPath>
  </defs>
  <style
     id="style52"
     type="text/css">.st0{fill:#E12C2C;}.st1{fill:#FFFFFF;}</style>
  <g
     id="g72"
     transform="matrix(1.3197353,0,0,1.3197353,-159.84971,-222.24816)">
    <path
       id="path54"
       d="m 184.31,525.64 c 25.48,-5.66 31.8,-37.94 31.8,-58.08 0,-0.39 -0.03,-0.8 -0.06,-1.18 0.03,-0.4 0.03,-0.82 0.03,-1.21 0,-20.14 -6.32,-49.51 -31.8,-43.4 l -0.94,0.22 c -0.03,0.01 -0.03,0.01 -0.03,0.01 v 103.88 l 0.03,-0.01 z"
       class="st0"
       inkscape:connector-curvature="0"
       style="fill:#e12c2c" />
    <path
       id="path56"
       d="m 305.2,391.62 -5.83,1.35 v 42.78 c 1.65,-0.15 3.53,-0.59 5.15,-0.96 13.31,-3.07 19.85,-13.71 19.85,-26.31 0,-12.64 -5.6,-19.99 -19.17,-16.86 z"
       class="st0"
       inkscape:connector-curvature="0"
       style="fill:#e12c2c" />
    <path
       id="path58"
       d="m 862.86,254.92 c -13.17,-1.3 -49.6,0.59 -58.74,-3.2 -9.02,-3.8 -21,-12.58 -25.39,-18.87 -4.39,-6.29 -22.67,-26.46 -36.43,-31.44 -13.76,-5.1 -33.23,-5.69 -40.82,-5.69 -7.47,0 -27.05,0 -34.53,-3.09 -7.48,-3.09 -18.15,-27.53 -28.24,-23.85 0,0 -17.68,1.19 -28.95,25.75 -11.27,24.56 -8.19,28.24 -53.4,38.33 -45.33,10.09 -92.43,6.29 -111.9,16.97 -19.46,10.68 -40.23,47.11 -92.32,49.01 -52.21,1.9 -69.77,-3.09 -127.56,33.34 -39.04,24.68 -54.58,46.04 -62.65,61.11 l -2.78,5.41 23.44,-5.41 c 49.03,-11.32 65.54,21.59 65.54,65.69 0,44.07 -16.51,84.64 -65.54,95.96 l -31.31,7.23 V 481.6 481.11 414 l -2.16,4.2 c -9.14,16.85 -24.92,49.48 -27.53,79.86 -3.09,36.43 10.08,94.93 11.98,114.39 1.9,19.46 8.78,43.43 8.19,57.2 -0.59,13.88 -6.88,49.6 0,57.19 6.88,7.6 48.41,28.95 76.65,13.88 28.24,-15.19 14.36,-24.56 9.37,-28.95 -4.98,-4.39 -13.76,-16.38 -17.56,-21.36 -3.8,-5.1 -2.49,-10.68 -0.59,-14.48 1.9,-3.8 8.78,-29.55 10.68,-33.94 1.9,-4.39 30.85,-47.11 33.34,-55.3 2.49,-8.19 25.16,-5.69 30.14,-1.3 5.1,4.39 13.88,32.63 14.48,45.21 0.71,12.58 1.31,47.11 11.99,57.79 10.68,10.68 53.4,12.46 60.99,12.58 12.82,0.24 25.75,-8.78 17.56,-16.97 -8.19,-8.19 -27.65,-27.65 -30.73,-32.04 -3.2,-4.39 3.08,-23.85 8.78,-31.44 5.69,-7.59 9.61,-9.49 13.29,-1.31 3.68,8.19 21.24,58.5 25.04,88.64 3.68,30.14 4.39,72.14 6.88,79.74 2.49,7.59 38.92,44.02 58.38,44.02 19.46,0 81.04,-11.87 51.5,-47.7 -29.55,-35.84 -32.75,-23.85 -33.94,-55.3 -1.3,-31.45 4.39,-93.03 6.29,-110 1.9,-16.97 2.49,-19.46 6.29,-10.68 3.8,8.78 11.27,77.25 16.97,98.61 5.7,21.36 8.66,47.58 31.44,56.48 22.55,8.78 84.37,19.7 99.32,8.19 9.14,-7 -5.7,-18.15 -20.77,-30.14 -15.07,-11.98 -39.63,-25.75 -40.23,-42.72 -0.59,-16.97 11.87,-81.76 19.46,-99.91 7.48,-18.27 11.87,-39.04 13.76,-67.28 1.9,-28.24 4.98,-74.16 9.37,-76.65 1.16,-0.65 5.4,-2.78 11.68,-5.97 v -68.75 l -38.83,-83.78 35.2,-8.13 11.88,32.46 c 2.2,6.03 5.34,15.51 7.29,22.35 2.91,-13.08 4.6,-17.84 7.03,-25.91 l 11.17,-37.52 35.94,-8.3 -37.66,101.44 v 59.38 c 7.82,-4.23 16.09,-8.82 24.29,-13.58 l 24.44,-15.07 c 35.95,-23.49 47.82,-27.88 55.3,-33.46 7.59,-5.69 32.04,-3.8 52.8,-16.38 20.76,-12.58 20.05,-23.26 20.05,-23.26 0,0 12.1,-9.37 15.19,-21.95 3.09,-12.58 13.17,-18.87 13.17,-33.94 0.03,-15.07 -2.47,-18.27 -15.99,-19.22 z m -535.09,266.49 -28.4,-67.95 v 74.51 l -32.06,7.4 V 373.46 l 34.75,-8.02 c 11.88,-2.74 25,-4.8 35.2,-0.36 12.86,5.52 19.17,19.83 19.17,34.89 0,18.46 -7.29,33.25 -23.09,46.62 l 28.17,67.04 z m 85.66,-19.78 -32.06,7.4 V 347.12 l 32.06,-7.4 z m 113.42,-56.78 v 30.6 l -95.14,21.96 55.34,-144.34 -50.74,11.71 v -30.34 l 97.34,-22.47 -53.88,143.75 z m 88.58,-20.19 V 455 l -65.54,15.13 V 308.22 l 32.06,-7.4 v 131.57 z"
       class="st0"
       inkscape:connector-curvature="0"
       style="fill:#e12c2c" />
    <polygon
       id="polygon60"
       points="413.43,339.72 381.38,347.12 381.38,509.03 413.43,501.63 "
       class="st1"
       style="fill:#ffffff" />
    <polygon
       id="polygon62"
       points="581.94,300.82 549.89,308.22 549.89,470.13 615.43,455 615.43,424.66 581.94,432.39 "
       class="st1"
       style="fill:#ffffff" />
    <path
       id="path64"
       d="m 711.29,270.96 -35.94,8.3 -11.17,37.52 c -2.43,8.07 -4.11,12.83 -7.03,25.91 -1.94,-6.84 -5.08,-16.31 -7.29,-22.35 l -11.88,-32.46 -35.2,8.13 38.83,83.78 v 68.75 c 8.05,-4.09 19.45,-9.95 32.03,-16.76 V 372.4 Z"
       class="st1"
       inkscape:connector-curvature="0"
       style="fill:#ffffff" />
    <polygon
       id="polygon66"
       points="479.77,455.72 533.65,311.97 436.31,334.44 436.31,364.78 487.05,353.07 431.71,497.41 526.85,475.45 526.85,444.85 "
       class="st1"
       style="fill:#ffffff" />
    <path
       id="path68"
       d="m 151.28,481.59 v 80.57 l 31.31,-7.23 c 49.03,-11.32 65.54,-51.89 65.54,-95.96 0,-44.1 -16.51,-77.01 -65.54,-65.69 l -23.44,5.41 -7.87,15.31 v 67.11 z m 32.03,-59.6 c 0,0 0,0 0.03,-0.01 l 0.94,-0.22 c 25.48,-6.11 31.8,23.26 31.8,43.4 0,0.39 0,0.81 -0.03,1.21 0.03,0.38 0.06,0.79 0.06,1.18 0,20.14 -6.32,52.43 -31.8,58.08 l -0.97,0.22 -0.03,0.01 z"
       class="st1"
       inkscape:connector-curvature="0"
       style="fill:#ffffff" />
    <path
       id="path70"
       d="m 356.43,399.96 c 0,-15.06 -6.31,-29.37 -19.17,-34.89 -10.2,-4.45 -23.32,-2.39 -35.2,0.36 l -34.75,8.02 v 161.91 l 32.06,-7.4 v -74.51 l 28.4,67.95 33.74,-7.79 -28.17,-67.04 c 15.81,-13.35 23.09,-28.15 23.09,-46.61 z m -51.91,34.82 c -1.62,0.37 -3.5,0.81 -5.15,0.96 v -42.78 l 5.83,-1.35 c 13.57,-3.13 19.17,4.22 19.17,16.85 0,12.6 -6.54,23.25 -19.85,26.32 z"
       class="st1"
       inkscape:connector-curvature="0"
       style="fill:#ffffff" />
  </g>
</svg>
