<svg version="1.1" id="Layer_1" xmlns:x="ns_extend;" xmlns:i="ns_ai;" xmlns:graph="ns_graphs;" xmlns="http://www.w3.org/2000/svg" xmlns:xlink="http://www.w3.org/1999/xlink" x="0px" y="0px" viewBox="0 0 235.9 70" style="enable-background:new 0 0 235.9 70;" xml:space="preserve">
 <style type="text/css">
  .st0{fill:#060911;}
 </style>
 <metadata>
  <sfw xmlns="ns_sfw;">
   <slices>
   </slices>
   <sliceSourceBounds bottomLeftOrigin="true" height="70" width="235.9" x="165.8" y="-206.3">
   </sliceSourceBounds>
  </sfw>
 </metadata>
 <g>
  <path class="st0" d="M148.4,6.4h11.4v23.5c3.7-5.4,11.7-7,18.1-4.4s8.4,7,8.7,7.7c0.7,1.3,1,3,1.3,4.4c1.7,10.4-1.7,20.8,1.3,30.8
		h-11.1c-3-7-1.3-15.1-1.3-22.8c0-2,0-4.4-1-6.4c-1.3-2.7-4.4-4.7-7.4-4.7c-3,0-6,1.7-7.4,4.4c-1.3,2.3-1.3,5-1.3,7.7v21.8h-11.4
		V6.4z M103.9,45.6c0.3-12.4-7.7-21.8-19.4-21.4c-8,0-15.1,4-18.8,11.1c-4,7.7-3.7,18.1,1.3,25.1c7.4,10.1,22.1,12.1,36.2,5.4
		l-3.7-9c-11.7,5-24.5,3.7-25.5-6.7h29.8C103.9,49.9,103.9,45.6,103.9,45.6z M74.4,41.2c0.7-2.3,2-4,3.7-5.4c3.4-2.7,9.4-3,12.7-0.3
		c1.7,1.3,2.7,3,3.4,5.7C94.2,41.2,74.4,41.2,74.4,41.2z M37.9,40.2c0,0,0-6.7-5.4-6.7H20.1v34.8H8.7V33.5H0v-9.4h8.7v-7.7
		c0-6.4,6-16.4,19.4-16.4s18.4,11.4,18.4,11.4l-8.7,6c0,0-2.3-7-9.7-7c-3.4,0-8,2.3-8,7.7v5.7h17.4c7.7,0,9.7,6,9.7,6
		c3-6.7,13.1-6,15.4-5.7v9c-7-0.3-13.7,3.7-13.7,11.7V68H37.5C37.5,68,37.9,40.2,37.9,40.2z M141.1,46.9c-3.7-3.7-12.4-4.7-18.1-5.7
		c-2.7-0.7-5-1.3-5-4c0-3.4,3.4-4.4,6.7-4.4c3.4,0,7,1.3,8.7,4.4l8.7-4.7c-4.7-8.4-18.1-10.4-26.5-6.7c-2.7,1-4.7,2.7-6,4.7
		c-3.4,4.4-3,11.7,1,15.4c2,2,5.4,3.4,9.7,4.4l8,1.7c3,0.7,5.4,1.3,5.4,4.4c0,3.7-4,4.7-7.7,4.7c-9,0-11.1-8.7-11.1-8.7l-10.4,3.4
		c0.7,2.7,4.4,14.4,21.1,14.4c9.7,0,18.1-3.7,18.1-13.7C144.1,51.6,143.1,48.9,141.1,46.9z M233.9,60.3c-2,0-3.7-1.3-3.7-4
		c0-1.3-0.3-6.4-0.3-7.7c0-7.4,0.3-14.7-5-19.8c-5.7-5.7-18.8-6.4-26.1-1.7c-2.7,1.7-5,3.7-6.7,6l6.7,6.7c2.7-4.4,6.4-6.4,10.7-6.4
		c4-0.3,7.7,1.7,8.7,5.7c-9,2.3-20.4,3.4-25.5,12.4c-2.3,4.4-1.7,10.1,1.7,13.7c2.7,3,7,4,11.1,4c6.4,0,12.4-1.3,16.4-7
		c2,4.7,6.4,7,11.7,7c0.7,0,1.7-0.3,2.3-0.3v-8.7H233.9z M218.5,51.3c0.3,6.4-5,10.1-10.7,10.1c-3,0-5.4-1.3-5.4-4.7
		c0-3.4,2.7-4.7,6-5.4l9.7-2.7C218.1,48.6,218.5,51.3,218.5,51.3z">
  </path>
 </g>
</svg>