<?xml version="1.0" encoding="utf-8"?>
<!-- Generator: Adobe Illustrator 23.0.1, SVG Export Plug-In . SVG Version: 6.00 Build 0)  -->
<svg version="1.1" id="layer" xmlns="http://www.w3.org/2000/svg" xmlns:xlink="http://www.w3.org/1999/xlink" x="0px" y="0px"
	 viewBox="0 0 175 133" style="enable-background:new 0 0 175 133;" xml:space="preserve">
<style type="text/css">
	.st0{fill:#005EAF;}
	.st1{fill:#005EAF;stroke:#FFFFFF;stroke-width:2;stroke-miterlimit:10;}
	.st2{fill:#FDC600;}
	.st3{fill:#FFFFFF;}
	.st4{font-family:'Futura-Medium';}
	.st5{font-size:23.7291px;}
	.st6{font-family:'Futura-Book';}
	.st7{font-size:12.6555px;}
</style>
<path class="st0" d="M163,118.7H12c-6.6,0-12-5.4-12-12V26.2c0-6.6,5.4-12,12-12h151c6.6,0,12,5.4,12,12v80.4
	C175,113.3,169.6,118.7,163,118.7z"/>
<path class="st1" d="M161.2,115.7H13.8c-6.6,0-12-5.4-12-12V28.4c0-6.6,5.4-12,12-12h147.4c6.6,0,12,5.4,12,12v75.2
	C173.2,110.3,167.8,115.7,161.2,115.7z"/>
<circle class="st2" cx="106.5" cy="73" r="3.2"/>
<circle class="st2" cx="117" cy="73" r="3.2"/>
<circle class="st2" cx="127.5" cy="73" r="3.2"/>
<circle class="st2" cx="138" cy="73" r="3.2"/>
<circle class="st2" cx="148.9" cy="73" r="3.2"/>
<circle class="st2" cx="159.4" cy="73" r="3.2"/>
<g>
	<path class="st3" d="M108.7,98.5h7.8v3h-14.1l7.3-8.8c0.7-0.9,1.3-1.6,1.8-2.3c0.5-0.6,0.9-1.2,1.1-1.6c0.5-0.9,0.8-1.6,0.8-2.3
		c0-1-0.3-1.8-1-2.5s-1.5-1-2.6-1c-2.1,0-3.3,1.3-3.7,3.8H103c0.5-4.4,2.7-6.7,6.7-6.7c1.9,0,3.5,0.6,4.8,1.8c1.3,1.2,2,2.7,2,4.5
		c0,1.1-0.3,2.3-0.9,3.4c-0.3,0.6-0.8,1.3-1.4,2c-0.6,0.8-1.3,1.7-2.3,2.8L108.7,98.5z"/>
	<path class="st3" d="M120.1,90.8c0-3.4,0.8-6,2.3-8c1.4-1.8,3.1-2.7,5.1-2.7c2,0,3.7,0.9,5.1,2.7c1.6,2,2.3,4.7,2.3,8.2
		c0,3.4-0.8,6.2-2.3,8.2c-1.4,1.8-3.1,2.7-5.1,2.7c-2,0-3.7-0.9-5.1-2.7C120.9,97.1,120.1,94.3,120.1,90.8z M123.2,90.8
		c0,2.3,0.4,4.3,1.2,5.8c0.8,1.5,1.8,2.3,3.1,2.3c1.2,0,2.3-0.8,3.1-2.3c0.8-1.5,1.2-3.4,1.2-5.7c0-2.3-0.4-4.2-1.2-5.7
		c-0.8-1.5-1.8-2.3-3.1-2.3c-1.2,0-2.3,0.8-3.1,2.3C123.6,86.7,123.2,88.6,123.2,90.8z"/>
	<path class="st3" d="M141.5,83.4h-3.6l1.7-3h5.1v21h-3.2V83.4z"/>
	<path class="st3" d="M155.2,102.2l-2.3-1.7l5-6.9c-0.3,0-0.5,0.1-0.7,0.1c-0.2,0-0.3,0-0.5,0c-1.7,0-3.2-0.6-4.4-1.9
		c-1.2-1.3-1.9-2.8-1.9-4.7c0-1.9,0.7-3.6,2.1-5c1.4-1.4,3-2.1,5-2.1c1.9,0,3.6,0.7,5,2c1.4,1.4,2.1,3,2.1,4.8
		c0,1.6-0.7,3.4-2.1,5.3L155.2,102.2z M153.6,86.9c0,1.1,0.4,2.1,1.2,2.9c0.8,0.8,1.7,1.2,2.8,1.2s2-0.4,2.8-1.2
		c0.8-0.8,1.2-1.7,1.2-2.8c0-1.1-0.4-2-1.2-2.8c-0.8-0.8-1.7-1.2-2.8-1.2c-1.1,0-2,0.4-2.8,1.2C154,84.9,153.6,85.8,153.6,86.9z"/>
</g>
<text transform="matrix(1 0 0 1 11.1543 63.5162)" class="st3 st4 st5">HolidayCheck</text>
<text transform="matrix(1 0 0 1 12.7358 39.5265)" class="st3 st6 st7">Recommended on</text>
</svg>
