<?xml version="1.0" encoding="UTF-8" standalone="no"?>
<!-- Created with Inkscape (http://www.inkscape.org/) -->

<svg
   version="1.1"
   id="svg1"
   width="356.8822"
   height="358.08038"
   viewBox="0 0 356.8822 358.08038"
   sodipodi:docname="Qunar_logo.png"
   inkscape:version="1.3 (0e150ed6c4, 2023-07-21)"
   xmlns:inkscape="http://www.inkscape.org/namespaces/inkscape"
   xmlns:sodipodi="http://sodipodi.sourceforge.net/DTD/sodipodi-0.dtd"
   xmlns="http://www.w3.org/2000/svg"
   xmlns:svg="http://www.w3.org/2000/svg">
  <defs
     id="defs1" />
  <sodipodi:namedview
     id="namedview1"
     pagecolor="#ffffff"
     bordercolor="#000000"
     borderopacity="0.25"
     inkscape:showpageshadow="2"
     inkscape:pageopacity="0.0"
     inkscape:pagecheckerboard="0"
     inkscape:deskcolor="#d1d1d1"
     inkscape:zoom="1.9685987"
     inkscape:cx="186.42703"
     inkscape:cy="196.84053"
     inkscape:window-width="1970"
     inkscape:window-height="1249"
     inkscape:window-x="186"
     inkscape:window-y="89"
     inkscape:window-maximized="0"
     inkscape:current-layer="g1" />
  <g
     inkscape:groupmode="layer"
     inkscape:label="Image"
     id="g1"
     transform="translate(-31.558899,-31.626486)">
    <path
       style="fill:#0cafc5;stroke:none"
       d="m 95.344544,33.121983 c -26.39371,3.592733 -49.73335,17.081544 -59.0679,43.433103 -7.0889,20.012087 -3.59877,44.397174 -3.59877,65.333334 v 126.66667 c 0,29.48445 -6.473,66.59973 11.71811,92 19.35862,27.03048 47.49946,28 77.615236,28 h 137.33333 c 22.88298,0 48.05575,2.94613 70.66667,-0.58541 24.94368,-3.89583 46.18558,-20.45854 54.18827,-44.74793 7.09554,-21.53605 3.14506,-48.22745 3.14506,-70.66666 V 135.22175 c 0,-26.44826 3.41829,-53.439874 -13.2325,-75.999994 C 355.27497,33.699457 325.55262,32.555089 296.67788,32.555089 H 163.34455 c -22.19729,0 -46.00315,-2.427328 -68.000006,0.566894 M 295.34455,120.55508 c -10.99587,28.32605 26.22776,38.42812 35.69649,61.33334 7.70457,18.63765 -4.29978,37.95744 18.97018,48 v 2.66667 l -5.33334,1.33333 1.33334,4 -5.33334,-1.33333 c 0.0754,9.17686 8.0848,14.86631 11.78085,22.66666 5.99336,12.64881 1.10962,34.46287 0.34362,48 -0.25122,4.43999 1.98308,10.40418 -0.21398,14.46914 -2.74854,5.08531 -8.65341,3.94088 -13.24382,2.8642 22.26534,-33.13483 -7.37229,-76.19192 -33.33333,-97.33334 -5.38886,13.96938 -3.21932,30.51738 -8.98456,43.77366 -4.14846,9.53876 -14.83242,19.28429 -20.79321,28.22634 -7.29153,10.93832 -10.8981,24.00916 -26.22223,21.33334 v -1.33334 c 21.48901,-16.71063 35.11521,-46.02044 35.94238,-73.33333 0.4445,-14.67698 -5.24443,-25.99339 -1.27572,-41.33334 -22.39125,-5.33339 -34.54465,2.54399 -54.66666,10.6461 -5.73167,2.30784 -15.94973,1.08743 -19.23664,6.88477 -7.24463,12.77783 0.52611,27.81264 0.56895,41.1358 0.0422,13.1108 2.44082,34.50234 -2.65433,44.38066 -4.5927,8.90418 0.19964,15.42127 -13.34465,12.95268 2.10227,-4.65458 5.17468,-9.37578 5.06378,-14.66667 -0.4484,-21.39286 -31.18767,-29.31417 -35.286,-48 -3.51721,-16.03634 25.76726,-27.73828 22.04731,-45.33333 -4.85774,-22.97669 -31.34042,-13.41661 -46.49176,-20.43209 -14.99475,-6.94298 -31.01489,-22.03935 -40.16152,-35.7994 -3.216696,-4.83915 -2.198146,-11.09184 -6.809676,-15.19033 -6.20514,-5.51481 -22.19358,-6.68844 -30.36214,-8.57819 0.44015,-18.20721 36.61703,-24.07558 51.802476,-19.57613 6.32064,1.8728 6.90523,15.46391 8.40844,20.90947 4.12861,14.9565 14.1871,27.60176 30.45576,27.98045 19.74804,0.45967 23.39915,-14.6977 38.66768,-22.9609 8.62553,-4.66807 18.1332,-1.05487 26.52574,-4.49074 5.16829,-2.11589 5.35054,-8.45716 9.83949,-11.13992 3.56234,-2.12899 7.88786,-0.37614 11.26235,-3.26544 3.00804,-2.57554 3.42754,-9.25842 7.36935,-10.45471 5.82684,-1.76837 6.19108,9.02506 11.80863,9.10286 6.73824,0.0933 11.50745,-7.93357 18.50206,-8.01336 5.44098,-0.0621 12.16593,7.54097 17.35803,9.90842 M 192.67788,233.88842 c -14.35095,18.67287 -14.69942,40.28294 9.33334,52 -1.79415,-14.19635 -0.1262,-40.75195 -9.33334,-52 z"
       id="path99816" />
  </g>
</svg>
