<?xml version="1.0" encoding="UTF-8" standalone="no"?>
<!-- Created with Inkscape (http://www.inkscape.org/) -->

<svg
   version="1.1"
   id="svg1"
   width="379.19852"
   height="380.46371"
   viewBox="0 0 379.19852 380.46371"
   sodipodi:docname="ida-6FyPOR.jpeg"
   inkscape:version="1.3 (0e150ed6c4, 2023-07-21)"
   xmlns:inkscape="http://www.inkscape.org/namespaces/inkscape"
   xmlns:sodipodi="http://sodipodi.sourceforge.net/DTD/sodipodi-0.dtd"
   xmlns="http://www.w3.org/2000/svg"
   xmlns:svg="http://www.w3.org/2000/svg">
  <defs
     id="defs1" />
  <sodipodi:namedview
     id="namedview1"
     pagecolor="#ffffff"
     bordercolor="#000000"
     borderopacity="0.25"
     inkscape:showpageshadow="2"
     inkscape:pageopacity="0.0"
     inkscape:pagecheckerboard="0"
     inkscape:deskcolor="#d1d1d1"
     inkscape:zoom="1"
     inkscape:cx="184.5"
     inkscape:cy="153.5"
     inkscape:window-width="2560"
     inkscape:window-height="1369"
     inkscape:window-x="-8"
     inkscape:window-y="-8"
     inkscape:window-maximized="1"
     inkscape:current-layer="g1" />
  <g
     inkscape:groupmode="layer"
     id="layer1"
     inkscape:label="Image 1"
     transform="translate(-10.400739,-9.7681444)">
    <rect
       style="fill:#ffffff"
       id="rect167004"
       width="247.88197"
       height="234"
       x="80.115601"
       y="79.988487"
       rx="15"
       ry="15" />
    <g
       inkscape:groupmode="layer"
       inkscape:label="Image"
       id="g1">
      <g
         id="g166992"
         transform="translate(4.615598,4.9884891)">
        <path
           style="fill:#f7ed93"
           d="M 192.5,383.52142 C 141.69757,376.37343 103.53396,349.93271 46.182289,282.1488 -47.701039,171.18814 35.420589,-0.11236362 180.5,5.3412888 235.88878,7.423398 279.30835,32.218521 327.87085,89.498696 c 4.19603,4.949282 10.67182,12.294084 14.39064,16.321784 104.20853,112.86401 3.67119,299.2892 -149.76149,277.70094 z m -59.39804,-84.57599 c 1.08377,-0.58001 14.11783,-10.46218 28.96458,-21.96037 36.50865,-28.27444 30.46662,-28.40606 69.43346,1.5126 28.14381,21.60876 30.31244,22.88704 33.67126,19.84735 2.55886,-2.31573 2.47888,-2.79696 -3.67126,-22.09077 -3.025,-9.48983 -8.02602,-25.17765 -11.11338,-34.86182 C 242.03072,215.18238 240.26921,218.54733 276.76655,191 308.10689,167.34505 306.25,168.95717 306.25,165.40299 306.25,160.10164 305.53534,160 268.25921,160 222.14226,160 227.46519,163.93139 212.45835,118.78679 200.6943,83.39733 199.9254,81.475259 197.25275,80.776347 192.1423,79.439934 191.76043,80.218277 179.54074,116.87778 163.66187,164.51494 169.62832,160 122.55517,160 c -34.509064,0 -34.509064,0 -36.11491,2.45083 -2.811505,4.2909 -1.460255,5.65721 26.25643,26.54917 31.6507,23.85729 32.00118,24.16425 33.36258,29.2201 1.21762,4.52192 1.31791,4.13618 -11.95523,45.98175 -9.85571,31.07159 -9.89781,31.26357 -7.44905,33.96941 1.88436,2.0822 3.61466,2.28998 6.44697,0.77417 z"
           id="path167004" />
        <path
           style="fill:#faeb7a"
           d="m 196.5,381.05544 c -1.1,-0.47598 -2.99086,-0.63983 -4.20191,-0.36409 -1.21105,0.27573 -4.36105,-0.19562 -7,-1.04744 -2.63895,-0.85182 -7.50745,-2.02128 -10.81889,-2.59878 -3.31143,-0.57751 -8.48643,-1.98002 -11.5,-3.11669 -3.01356,-1.13667 -7.0542,-2.65649 -8.9792,-3.37737 -6.78207,-2.53977 -19.52864,-8.8525 -22.59066,-11.18802 C 129.70537,358.06337 127.98617,357 127.58889,357 c -1.17234,0 -7.73422,-5.08418 -12.75032,-9.87902 -2.56379,-2.45069 -5.51103,-4.94297 -6.54942,-5.5384 C 82.496556,326.79295 37.144412,276.51973 23.415988,247.5 -50.819001,90.578887 127.50303,-61.93868 271.5,35.315508 283.37836,43.338037 326.16756,85.923299 333.4799,97 c 2.72314,4.125 7.63746,11.1 10.9207,15.5 3.98724,5.34345 5.91136,8.83017 5.79435,10.5 -0.11182,1.59572 0.11627,2.04399 0.63057,1.2393 2.28856,-3.58078 19.97155,28.14472 22.18112,39.79569 0.52349,2.76036 1.39615,5.84911 1.93925,6.8639 8.1998,15.32147 8.54838,71.14288 0.57392,91.90858 -0.77991,2.03089 -1.93461,5.70291 -2.56602,8.16003 -1.16516,4.53423 -11.15297,25.58615 -15.22559,32.09191 -12.63807,20.18852 -31.23013,39.62709 -48.80871,51.03099 -3.53072,2.29051 -7.54449,4.92101 -8.91949,5.84556 -2.35423,1.58297 -8.19422,4.46172 -21.04103,10.37189 -3.04756,1.40203 -6.87256,2.86837 -8.5,3.25854 -1.62743,0.39016 -3.42108,1.06912 -3.98588,1.50879 -1.35266,1.053 -22.63726,5.57201 -27.97309,5.93908 -10.02948,0.68995 -40.4318,0.71976 -42,0.0412 z M 129.5,353 c -0.33992,-0.55 -1.15398,-0.99311 -1.80902,-0.98469 -0.71561,0.009 -0.59227,0.40223 0.30902,0.98469 1.92112,1.24153 2.2673,1.24153 1.5,0 z m 179,-29 c 0.33992,-0.55 0.39303,-1 0.11803,-1 -0.275,0 -0.77811,0.45 -1.11803,1 -0.33992,0.55 -0.39303,1 -0.11803,1 0.275,0 0.77811,-0.45 1.11803,-1 z m 16,-16 c 0.33992,-0.55 0.39303,-1 0.11803,-1 -0.275,0 -0.77811,0.45 -1.11803,1 -0.33992,0.55 -0.39303,1 -0.11803,1 0.275,0 0.77811,-0.45 1.11803,-1 z m -191.39804,-9.05457 c 1.08377,-0.58001 14.11783,-10.46218 28.96458,-21.96037 36.50865,-28.27444 30.46662,-28.40606 69.43346,1.5126 28.14381,21.60876 30.31244,22.88704 33.67126,19.84735 2.55886,-2.31573 2.47888,-2.79696 -3.67126,-22.09077 -3.025,-9.48983 -8.02602,-25.17765 -11.11338,-34.86182 C 242.03072,215.18238 240.26921,218.54733 276.76655,191 308.10689,167.34505 306.25,168.95717 306.25,165.40299 306.25,160.10164 305.53534,160 268.25921,160 222.14226,160 227.46519,163.93139 212.45835,118.78679 200.6943,83.39733 199.9254,81.475259 197.25275,80.776347 192.1423,79.439934 191.76043,80.218277 179.54074,116.87778 163.66187,164.51494 169.62832,160 122.55517,160 c -34.509064,0 -34.509064,0 -36.11491,2.45083 -2.811505,4.2909 -1.460255,5.65721 26.25643,26.54917 31.6507,23.85729 32.00118,24.16425 33.36258,29.2201 1.21762,4.52192 1.31791,4.13618 -11.95523,45.98175 -9.85571,31.07159 -9.89781,31.26357 -7.44905,33.96941 1.88436,2.0822 3.61466,2.28998 6.44697,0.77417 z"
           id="path167003" />
        <path
           style="fill:#9ee0da"
           d="M 174.5,363.85983 C 125.90477,356.58118 96.207732,339.01647 56.251348,293.92009 8.8955375,240.47243 -5.5506028,180.3762 14.68421,121 63.037261,-20.885202 247.08372,-34.135153 334.16227,98 415.82291,221.91389 317.6965,385.30797 174.5,363.85983 Z m -41.39804,-64.9144 c 1.08377,-0.58001 14.11783,-10.46218 28.96458,-21.96037 36.50865,-28.27444 30.46662,-28.40606 69.43346,1.5126 28.14381,21.60876 30.31244,22.88704 33.67126,19.84735 2.55886,-2.31573 2.47888,-2.79696 -3.67126,-22.09077 -3.025,-9.48983 -8.02602,-25.17765 -11.11338,-34.86182 C 242.03072,215.18238 240.26921,218.54733 276.76655,191 308.10689,167.34505 306.25,168.95717 306.25,165.40299 306.25,160.10164 305.53534,160 268.25921,160 222.14226,160 227.46519,163.93139 212.45835,118.78679 200.6943,83.39733 199.9254,81.475259 197.25275,80.776347 192.1423,79.439934 191.76043,80.218277 179.54074,116.87778 163.66187,164.51494 169.62832,160 122.55517,160 c -34.509064,0 -34.509064,0 -36.11491,2.45083 -2.811505,4.2909 -1.460255,5.65721 26.25643,26.54917 31.6507,23.85729 32.00118,24.16425 33.36258,29.2201 1.21762,4.52192 1.31791,4.13618 -11.95523,45.98175 -9.85571,31.07159 -9.89781,31.26357 -7.44905,33.96941 1.88436,2.0822 3.61466,2.28998 6.44697,0.77417 z"
           id="path167002" />
        <path
           style="fill:#68d0c8"
           d="M 174.5,363.85983 C 132.80331,357.61445 96.714356,338.61517 70.294284,309 15.506175,247.58611 -0.73849167,199.74868 12.114559,137.67187 37.261622,16.218248 191.38421,-35.166471 283.60724,47.155774 308.4621,69.342295 315.4075,75.934309 322.97689,84.522262 424.70057,199.93421 325.54372,386.48334 174.5,363.85983 Z m -19.3111,-81.0698 c 38.04004,-29.34269 34.21803,-26.79053 40.11406,-26.78629 6.48876,0.005 5.37048,-0.71264 37.19704,23.8596 20.56198,15.87524 26.63792,20.08033 29.05,20.10521 5.55727,0.0573 6.76483,-3.56827 4.01027,-12.04041 -25.51443,-78.47408 -26.848,-68.02255 12.43973,-97.49281 28.94603,-21.71281 28.96053,-21.72533 28.98469,-25.03034 0.0377,-5.15564 -0.84101,-5.28355 -38.50906,-5.60579 -38.15556,-0.3264 -39.2607,-0.48916 -43.09916,-6.34739 C 224.20801,151.66852 201.01303,84.93367 201.0013,83.321429 200.99341,82.236285 197.3457,80 195.58356,80 c -3.96713,0 -5.20343,2.782854 -16.59575,37.35645 -15.34745,46.57672 -9.86425,42.58456 -58.53781,42.61969 -35.913035,0.0259 -35.45,-0.0483 -35.45,5.68218 0,3.10522 1.357519,4.27105 28.89196,24.81243 38.35904,28.6168 36.20073,21.83339 21.60804,67.91246 -16.0539,50.69313 -15.41522,51.48486 19.6889,24.40682 z"
           id="path167001" />
        <path
           style="fill:#5bd1c9"
           d="M 174.5,363.85983 C 118.58452,355.48475 68.632794,320.62378 44.604831,273.20687 43.153643,270.34309 41.288978,268 40.46113,268 37.328089,268 21.673694,238.08583 17.958783,225 12.754297,206.66712 11.952558,203.06676 11.500956,196 11.237348,191.875 10.624265,186.025 10.13855,183 8.6955866,174.01332 11.30313,142.03915 13.870132,137.24266 14.491559,136.08151 15,134.06532 15,132.76223 c 0,-3.02462 5.986026,-20.8513 9.173692,-27.31972 C 27.357934,98.981044 33.867058,87.166445 35.987209,84 c 0.920657,-1.375 2.87196,-4.290147 4.33623,-6.478105 C 47.903132,66.196083 76.601597,38 80.549513,38 c 0.418938,0 2.236656,-1.125 4.039374,-2.5 1.802718,-1.375 3.645194,-2.501927 4.094391,-2.504281 C 89.132475,32.993364 91.525,31.645291 94,30 c 2.475,-1.645291 5.080722,-2.993364 5.790493,-2.995719 0.709767,-0.0024 2.557707,-0.941173 4.106527,-2.086263 C 110.63676,19.935111 143.32012,10 152.97256,10 c 2.82935,0 9.33286,-0.5147452 14.45222,-1.1438783 9.07851,-1.1156822 19.58363,-0.5444294 37.57522,2.0432833 6.79515,0.97734 27.74902,7.388411 34.5,10.55566 2.75,1.290174 6.125,2.864116 7.5,3.497648 8.42556,3.882085 19.407,10.684983 26,16.106747 2.5,2.05588 2.5,2.05588 -1,1.493058 -2.93231,-0.471533 -2.34764,0.04626 3.60465,3.19233 20.77656,10.981412 46.26615,34.158821 59.99247,54.550512 C 416.52193,220.5165 315.95661,385.04737 174.5,363.85983 Z m -19.3111,-81.0698 c 38.04004,-29.34269 34.21803,-26.79053 40.11406,-26.78629 6.48876,0.005 5.37048,-0.71264 37.19704,23.8596 20.56198,15.87524 26.63792,20.08033 29.05,20.10521 5.55727,0.0573 6.76483,-3.56827 4.01027,-12.04041 -25.51443,-78.47408 -26.848,-68.02255 12.43973,-97.49281 28.94603,-21.71281 28.96053,-21.72533 28.98469,-25.03034 0.0377,-5.15564 -0.84101,-5.28355 -38.50906,-5.60579 -38.15556,-0.3264 -39.2607,-0.48916 -43.09916,-6.34739 C 224.20801,151.66852 201.01303,84.93367 201.0013,83.321429 200.99341,82.236285 197.3457,80 195.58356,80 c -3.96713,0 -5.20343,2.782854 -16.59575,37.35645 -15.34745,46.57672 -9.86425,42.58456 -58.53781,42.61969 -35.913035,0.0259 -35.45,-0.0483 -35.45,5.68218 0,3.10522 1.357519,4.27105 28.89196,24.81243 38.35904,28.6168 36.20073,21.83339 21.60804,67.91246 -16.0539,50.69313 -15.41522,51.48486 19.6889,24.40682 z M 38.816121,260.49577 C 38.18857,259.11845 37.482129,258.18454 37.246253,258.42041 36.539967,259.1267 38.062105,263 39.045949,263 c 0.501145,0 0.397723,-1.1269 -0.229828,-2.50423 z m -2.209132,-5.07756 C 36.273145,254.54823 36,253.42323 36,252.91821 36,252.4132 35.55,252 35,252 c -1.117168,0 -1.370703,3.29596 -0.333333,4.33333 1.265627,1.26563 2.545515,0.66199 1.940322,-0.91512 z M 32.683114,244.8125 c -0.319226,-0.79773 -0.556183,-0.56078 -0.604167,0.60417 -0.04342,1.05416 0.192928,1.64479 0.52522,1.3125 0.332291,-0.3323 0.367818,-1.1948 0.07895,-1.91667 z m -2.804611,-11.91657 c -1.049206,-4.86807 -1.263369,-5.17239 -2.189215,-3.11083 -0.77737,1.73095 -0.61123,3.15538 0.685097,5.8738 2.314826,4.85424 2.910149,3.76067 1.504118,-2.76297 z M 26.929715,218.25 C 26.876831,214.67604 26.646646,213.99517 26,215.5 c -1.201226,2.7954 -1.201226,7.5 0,7.5 0.55,0 0.968372,-2.1375 0.929715,-4.75 z m 0.85229,-49.75 C 27.796607,166.9328 27.62738,167.04101 27,169 c -0.440352,1.375 -0.792254,3.625 -0.782005,5 0.01674,2.2456 0.09632,2.19472 0.782005,-0.5 0.419854,-1.65 0.771756,-3.9 0.782005,-5 z M 31,153.5 c 0,-0.275 -0.225,-0.5 -0.5,-0.5 -0.275,0 -0.5,0.225 -0.5,0.5 0,0.275 0.225,0.5 0.5,0.5 0.275,0 0.5,-0.225 0.5,-0.5 z m 6,-25.05902 C 37,127.64844 36.55,127 36,127 c -0.55,0 -1,0.92656 -1,2.05902 0,1.13246 0.45,1.7809 1,1.44098 0.55,-0.33992 1,-1.26648 1,-2.05902 z m 4.666667,-5.10765 C 41.3,122.96667 41,123.26667 41,124 c 0,0.73333 0.3,1.03333 0.666667,0.66667 0.366666,-0.36667 0.366666,-0.96667 0,-1.33334 z M 47.028265,114 c 1.18838,-2.2868 1.157291,-2.38296 -0.364545,-1.12756 C 45.748674,113.62729 45,114.93979 45,115.78911 c 0,1.8157 0.2861,1.56334 2.028265,-1.78911 z M 25,111.5 c 0,-0.275 -0.225,-0.5 -0.5,-0.5 -0.275,0 -0.5,0.225 -0.5,0.5 0,0.275 0.225,0.5 0.5,0.5 0.275,0 0.5,-0.225 0.5,-0.5 z m 25,-3.61803 c 0,-0.55 -0.45,-0.72189 -1,-0.38197 -0.55,0.33992 -1,1.06803 -1,1.61803 0,0.55 0.45,0.72189 1,0.38197 0.55,-0.33992 1,-1.06803 1,-1.61803 z M 63.158981,89.5 c 1.131691,-1.999389 1.13135,-1.999389 -1.115851,-0.0024 -1.236339,1.098702 -2.913536,3.348702 -3.727105,5 -1.714678,3.480276 2.51462,-0.884106 4.842956,-4.997639 z M 76,75.5 C 76,75.225 75.775,75 75.5,75 75.225,75 75,75.225 75,75.5 75,75.775 75.225,76 75.5,76 75.775,76 76,75.775 76,75.5 Z M 96.75,57.783433 c 2.8875,-2.115587 5.25,-4.03619 5.25,-4.268007 0,-0.714577 -11.822085,7.387685 -12.588235,8.627341 -0.921867,1.491613 0.528133,0.630229 7.338235,-4.359334 z M 60.5,60 C 60.839919,59.45 60.641476,59 60.059017,59 59.476558,59 59,59.45 59,60 c 0,0.55 0.198442,1 0.440983,1 0.242541,0 0.719098,-0.45 1.059017,-1 z m 48.16667,-10.666667 c -0.36667,-0.366666 -0.96667,-0.366666 -1.33334,0 C 106.96667,49.7 107.26667,50 108,50 c 0.73333,0 1.03333,-0.3 0.66667,-0.666667 z M 117.5,45 c 0.33992,-0.55 -0.057,-1 -0.88197,-1 -0.825,0 -1.77811,0.45 -2.11803,1 -0.33992,0.55 0.057,1 0.88197,1 0.825,0 1.77811,-0.45 2.11803,-1 z m 8,-4 c 0.33992,-0.55 0.16803,-1 -0.38197,-1 -0.55,0 -1.27811,0.45 -1.61803,1 -0.33992,0.55 -0.16803,1 0.38197,1 0.55,0 1.27811,-0.45 1.61803,-1 z m 130,-5 c -0.33992,-0.55 -1.15398,-0.993109 -1.80902,-0.984687 C 252.97537,35.024514 253.09871,35.41754 254,36 c 1.92112,1.241525 2.2673,1.241525 1.5,0 z M 130.72917,35.395833 c -0.3323,-0.332291 -1.1948,-0.367818 -1.91667,-0.07895 -0.79773,0.319226 -0.56078,0.556183 0.60417,0.604167 1.05416,0.04342 1.64479,-0.192928 1.3125,-0.52522 z M 249,33.106989 C 249,32.109795 246.58668,31 244.41821,31 c -2.0147,0 -1.76146,1.763652 0.33179,2.310674 2.99645,0.783056 4.25,0.722978 4.25,-0.203685 z m -98.33333,-1.773656 c -0.36667,-0.366666 -0.96667,-0.366666 -1.33334,0 C 148.96667,31.7 149.26667,32 150,32 c 0.73333,0 1.03333,-0.3 0.66667,-0.666667 z m 4.0625,-0.9375 c -0.3323,-0.332291 -1.1948,-0.367818 -1.91667,-0.07895 -0.79773,0.319226 -0.56078,0.556183 0.60417,0.604167 1.05416,0.04342 1.64479,-0.192928 1.3125,-0.52522 z m 83.9375,-0.0625 c -0.36667,-0.366666 -0.96667,-0.366666 -1.33334,0 C 236.96667,30.7 237.26667,31 238,31 c 0.73333,0 1.03333,-0.3 0.66667,-0.666667 z m -9.50973,-2.398921 c -1.28869,-0.516349 -4.88869,-1.147242 -8,-1.401985 -5.65694,-0.463169 -5.65694,-0.463169 -0.80919,0.433287 2.66626,0.49305 5.10376,1.152467 5.41667,1.465371 0.3129,0.312903 1.73141,0.540391 3.15225,0.505529 2.58333,-0.06339 2.58333,-0.06339 0.24027,-1.002202 z M 173.5,27 c 3,-0.76337 3,-0.76337 0,-0.8114 -1.65,-0.02642 -3.9,0.338714 -5,0.8114 -2.69547,1.158284 0.44801,1.158284 5,0 z M 195,25.5 c 0,-0.275 -0.225,-0.5 -0.5,-0.5 -0.275,0 -0.5,0.225 -0.5,0.5 0,0.275 0.225,0.5 0.5,0.5 0.275,0 0.5,-0.225 0.5,-0.5 z"
           id="path167000" />
        <path
           style="fill:#a4a4a4"
           d="M 174.5,363.85983 C 26.807634,341.7383 -26.336678,160.55655 87,65.551274 189.01037,-19.959649 343.55042,40.177921 363.52364,173.15743 379.6484,280.51425 281.19613,379.8409 174.5,363.85983 Z m -19.3111,-81.0698 c 38.04004,-29.34269 34.21803,-26.79053 40.11406,-26.78629 6.48876,0.005 5.37048,-0.71264 37.19704,23.8596 20.56198,15.87524 26.63792,20.08033 29.05,20.10521 5.55727,0.0573 6.76483,-3.56827 4.01027,-12.04041 -25.51443,-78.47408 -26.848,-68.02255 12.43973,-97.49281 28.94603,-21.71281 28.96053,-21.72533 28.98469,-25.03034 0.0377,-5.15564 -0.84101,-5.28355 -38.50906,-5.60579 -38.15556,-0.3264 -39.2607,-0.48916 -43.09916,-6.34739 C 224.20801,151.66852 201.01303,84.93367 201.0013,83.321429 200.99341,82.236285 197.3457,80 195.58356,80 c -3.96713,0 -5.20343,2.782854 -16.59575,37.35645 -15.34745,46.57672 -9.86425,42.58456 -58.53781,42.61969 -35.913035,0.0259 -35.45,-0.0483 -35.45,5.68218 0,3.10522 1.357519,4.27105 28.89196,24.81243 38.35904,28.6168 36.20073,21.83339 21.60804,67.91246 -16.0539,50.69313 -15.41522,51.48486 19.6889,24.40682 z"
           id="path166999" />
        <path
           style="fill:#a49c5c"
           d="M 174.5,363.85983 C 128.0643,356.90464 95.221082,337.73036 62.546518,298.5 -10.827035,210.40484 30.877827,71.898024 141.89488,34.974631 276.35435,-9.7455257 403.80582,122.28263 354.29318,255 327.2115,327.59175 248.90485,375.00428 174.5,363.85983 Z m -37.90004,-65.68697 c 2.9585,-2.14462 43.76368,-33.59872 51.12169,-39.40644 6.97052,-5.50187 11.48265,-3.31814 42.77835,20.70331 29.33508,22.51655 31.45036,23.69514 35.67126,19.87528 2.91367,-2.63684 2.40127,-4.99826 -8.67126,-39.9618 -14.74319,-46.55433 -16.85594,-39.64158 20.75521,-67.90934 C 306.7001,170.09527 308,168.95533 308,165.38922 308,159.09229 307.44846,159 269.81572,159 c -47.28358,0 -41.00198,4.69888 -56.79564,-42.48532 -11.5558,-34.523427 -12.12163,-35.955935 -14.57409,-36.897031 -6.57603,-2.52346 -7.83601,-0.1985 -20.41428,37.669151 -15.2388,45.87732 -9.51676,41.69972 -57.12672,41.70762 -37.739051,0.006 -37.416918,-0.0565 -36.725325,7.16204 0.297492,3.10511 2.245704,4.78416 27.320335,23.54581 39.96246,29.9012 37.54386,22.6642 23,68.82118 -5.775,18.32777 -10.5,34.55978 -10.5,36.07114 0,6.51044 6.1469,8.2561 12.59996,3.57827 z"
           id="path166998" />
        <path
           style="fill:#52a59e"
           d="M 169,362.01273 C 126.25463,354.86265 92.796464,334.90376 62.530188,298.5 -10.802303,210.29693 30.878732,71.897723 141.89488,34.974631 283.85322,-12.239588 412.54972,135.96313 346.42076,270.5 314.09496,336.2656 240.8702,374.03456 169,362.01273 Z m -32.40004,-63.83987 c 2.9585,-2.14462 43.76368,-33.59872 51.12169,-39.40644 6.97052,-5.50187 11.48265,-3.31814 42.77835,20.70331 29.33508,22.51655 31.45036,23.69514 35.67126,19.87528 2.91367,-2.63684 2.40127,-4.99826 -8.67126,-39.9618 -14.74319,-46.55433 -16.85594,-39.64158 20.75521,-67.90934 C 306.7001,170.09527 308,168.95533 308,165.38922 308,159.09229 307.44846,159 269.81572,159 c -47.28358,0 -41.00198,4.69888 -56.79564,-42.48532 -11.5558,-34.523427 -12.12163,-35.955935 -14.57409,-36.897031 -6.57603,-2.52346 -7.83601,-0.1985 -20.41428,37.669151 -15.2388,45.87732 -9.51676,41.69972 -57.12672,41.70762 -37.739051,0.006 -37.416918,-0.0565 -36.725325,7.16204 0.297492,3.10511 2.245704,4.78416 27.320335,23.54581 39.96246,29.9012 37.54386,22.6642 23,68.82118 -5.775,18.32777 -10.5,34.55978 -10.5,36.07114 0,6.51044 6.1469,8.2561 12.59996,3.57827 z"
           id="path166997" />
        <path
           style="fill:#847b49"
           d="M 169,362.01273 C 34.364972,339.49214 -19.684655,175.64487 75.359933,78.150087 171.85589,-20.833476 340.6655,33.254322 362.02622,170 379.58016,282.37567 280.73418,380.70266 169,362.01273 Z m -32.40004,-63.83987 c 2.9585,-2.14462 43.76368,-33.59872 51.12169,-39.40644 6.97052,-5.50187 11.48265,-3.31814 42.77835,20.70331 29.33508,22.51655 31.45036,23.69514 35.67126,19.87528 2.91367,-2.63684 2.40127,-4.99826 -8.67126,-39.9618 -14.74319,-46.55433 -16.85594,-39.64158 20.75521,-67.90934 C 306.7001,170.09527 308,168.95533 308,165.38922 308,159.09229 307.44846,159 269.81572,159 c -47.28358,0 -41.00198,4.69888 -56.79564,-42.48532 -11.5558,-34.523427 -12.12163,-35.955935 -14.57409,-36.897031 -6.57603,-2.52346 -7.83601,-0.1985 -20.41428,37.669151 -15.2388,45.87732 -9.51676,41.69972 -57.12672,41.70762 -37.739051,0.006 -37.416918,-0.0565 -36.725325,7.16204 0.297492,3.10511 2.245704,4.78416 27.320335,23.54581 39.96246,29.9012 37.54386,22.6642 23,68.82118 -5.775,18.32777 -10.5,34.55978 -10.5,36.07114 0,6.51044 6.1469,8.2561 12.59996,3.57827 z"
           id="path166996" />
        <path
           style="fill:#636460"
           d="M 179,362.9663 C 37.46516,345.65161 -23.116566,179.16525 75.359933,78.150087 170.80852,-19.759109 336.13806,31.355223 361.12812,166.5 381.04037,274.18427 286.5417,376.12243 179,362.9663 Z m -42.40004,-64.79344 c 2.9585,-2.14462 43.76368,-33.59872 51.12169,-39.40644 6.97052,-5.50187 11.48265,-3.31814 42.77835,20.70331 29.33508,22.51655 31.45036,23.69514 35.67126,19.87528 2.91367,-2.63684 2.40127,-4.99826 -8.67126,-39.9618 -14.74319,-46.55433 -16.85594,-39.64158 20.75521,-67.90934 C 306.7001,170.09527 308,168.95533 308,165.38922 308,159.09229 307.44846,159 269.81572,159 c -47.28358,0 -41.00198,4.69888 -56.79564,-42.48532 -11.5558,-34.523427 -12.12163,-35.955935 -14.57409,-36.897031 -6.57603,-2.52346 -7.83601,-0.1985 -20.41428,37.669151 -15.2388,45.87732 -9.51676,41.69972 -57.12672,41.70762 -37.739051,0.006 -37.416918,-0.0565 -36.725325,7.16204 0.297492,3.10511 2.245704,4.78416 27.320335,23.54581 39.96246,29.9012 37.54386,22.6642 23,68.82118 -5.775,18.32777 -10.5,34.55978 -10.5,36.07114 0,6.51044 6.1469,8.2561 12.59996,3.57827 z"
           id="path166995" />
        <path
           style="fill:#2e5f5c"
           d="M 179,362.9663 C 37.812107,345.69405 -22.875168,178.91763 75.359933,78.150087 170.69217,-19.639754 336.07144,31.573504 361.14729,166.6503 381.09649,274.11127 286.45736,376.11211 179,362.9663 Z m -25.81975,-76.64 c 47.73624,-36.82151 38.33202,-35.98949 76.34864,-6.7548 29.18748,22.4451 31.19643,23.65434 35.38861,21.30133 5.78707,-3.2482 6.60368,0.48256 -14.49119,-66.20438 -5.65726,-17.88421 -6.77925,-16.21205 28.995,-43.21283 C 308.38639,169.59409 310.041,167.9274 307.90306,162.76597 305.9781,158.11871 305.0083,158 268.96687,158 222.90696,158 229.48534,162.91081 214.0444,117 201.12814,78.595875 201.99098,80.65312 198.12894,79.053411 191.18777,76.178281 190.47651,77.492118 177.10144,117.89571 162.36662,162.40687 168.36605,158 122.50421,158 84.782581,158 83,158.31013 83,164.87276 c 0,4.06047 1.954679,5.81641 29.39293,26.40446 39.44488,29.59711 37.2035,17.42296 15.69036,85.22278 -5.81572,18.32855 -5.97237,19.70183 -2.62874,23.04545 4.32745,4.32746 6.03059,3.51544 27.7257,-13.21915 z"
           id="path166994" />
        <path
           style="fill:#5c5632"
           d="M 179,362.9663 C 39.650004,345.91889 -20.824983,180.68435 75.5,80.175407 169.58828,-17.999678 336.23407,32.449522 361.14729,166.6503 381.09649,274.11127 286.45736,376.11211 179,362.9663 Z m -25.81975,-76.64 c 47.73624,-36.82151 38.33202,-35.98949 76.34864,-6.7548 29.18748,22.4451 31.19643,23.65434 35.38861,21.30133 5.78707,-3.2482 6.60368,0.48256 -14.49119,-66.20438 -5.65726,-17.88421 -6.77925,-16.21205 28.995,-43.21283 C 308.38639,169.59409 310.041,167.9274 307.90306,162.76597 305.9781,158.11871 305.0083,158 268.96687,158 222.90696,158 229.48534,162.91081 214.0444,117 201.12814,78.595875 201.99098,80.65312 198.12894,79.053411 191.18777,76.178281 190.47651,77.492118 177.10144,117.89571 162.36662,162.40687 168.36605,158 122.50421,158 84.782581,158 83,158.31013 83,164.87276 c 0,4.06047 1.954679,5.81641 29.39293,26.40446 39.44488,29.59711 37.2035,17.42296 15.69036,85.22278 -5.81572,18.32855 -5.97237,19.70183 -2.62874,23.04545 4.32745,4.32746 6.03059,3.51544 27.7257,-13.21915 z"
           id="path166993" />
        <path
           style="fill:#010101"
           d="M 179,361.96331 C 39.515053,344.82213 -20.78693,180.64464 75.5,80.175407 170.50799,-18.959338 338.19552,33.575054 360.62026,169.5 378.18147,275.9452 284.74649,374.95841 179,361.96331 Z M 133.02069,302 c 0.47142,0 10.89711,-7.74449 23.16821,-17.20997 C 193.28749,256.17353 190.63337,258 195.1187,258 c 5.40887,0 4.7556,-0.42487 34.32461,22.32358 32.27735,24.83207 33.0384,25.22157 38.17997,19.5402 2.83525,-3.13292 2.09376,-6.56546 -8.71933,-40.36378 -14.82753,-46.34621 -17.03622,-39.10722 20.53994,-67.31982 C 307.9139,170.80458 309,169.82417 309,165.5 c 0,-8.25726 -1.17084,-8.5 -41,-8.5 -37.23757,0 -38.51602,-0.17828 -41.35406,-5.76693 -0.76336,-1.50319 -6.16822,-17.03759 -12.01081,-34.52088 C 201.3814,77.051825 201.85662,78 195.23266,78 c -5.34529,0 -6.62398,2.679064 -18.30246,38.34682 -14.86902,45.41214 -8.71116,40.64936 -52.5802,40.66792 -37.612398,0.0159 -38.705377,0.15661 -41.171533,5.29993 -2.649746,5.5262 -1.324178,6.87868 28.872383,29.45856 37.98594,28.4045 35.61113,20.80962 20.94915,66.99743 -6.05,19.05857 -11,35.35673 -11,36.21814 0,3.74841 5.63315,8.49937 8.83179,7.44867 0.73248,-0.24061 1.71749,-0.43747 2.1889,-0.43747 z"
           id="path166992" />
      </g>
    </g>
  </g>
</svg>
