<?xml version="1.0" encoding="UTF-8" standalone="no"?>
<!-- Generator: Adobe Illustrator 25.0.1, SVG Export Plug-In . SVG Version: 6.00 Build 0)  -->

<svg
   version="1.0"
   id="Layer_1"
   x="0px"
   y="0px"
   viewBox="0 0 725.138 243.14382"
   xml:space="preserve"
   sodipodi:docname="smythstoys_small_icon.svg"
   width="725.138"
   height="243.14381"
   inkscape:version="1.3 (0e150ed6c4, 2023-07-21)"
   xmlns:inkscape="http://www.inkscape.org/namespaces/inkscape"
   xmlns:sodipodi="http://sodipodi.sourceforge.net/DTD/sodipodi-0.dtd"
   xmlns="http://www.w3.org/2000/svg"
   xmlns:svg="http://www.w3.org/2000/svg"><defs
   id="defs38" /><sodipodi:namedview
   id="namedview38"
   pagecolor="#ffffff"
   bordercolor="#000000"
   borderopacity="0.25"
   inkscape:showpageshadow="2"
   inkscape:pageopacity="0.0"
   inkscape:pagecheckerboard="0"
   inkscape:deskcolor="#d1d1d1"
   showgrid="false"
   inkscape:zoom="1.9589179"
   inkscape:cx="362.44501"
   inkscape:cy="121.75089"
   inkscape:window-width="2560"
   inkscape:window-height="1369"
   inkscape:window-x="-8"
   inkscape:window-y="-8"
   inkscape:window-maximized="1"
   inkscape:current-layer="Layer_1" />&#10;<style
   type="text/css"
   id="style1">&#10;	.st0{fill:#ED1C24;}&#10;	.st1{fill:#E91D26;}&#10;	.st2{fill:#F5EC3E;}&#10;	.st3{fill:#FFD42B;}&#10;	.st4{fill:#DF9D2D;}&#10;	.st5{fill:#131718;}&#10;</style>&#10;<path
   class="st0"
   d="m 362.26114,20.2 v 0 l -107.7,-8.6 c 0,0 -14.6,7.2 -14.1,24.3 l 3.1,78.4 1.4,38 c 0,0 1.3,19.2 21.4,23.9 l 9,1.9 79.9,17.2 c 2.3,0.5 4.5,0.7 6.8,0.6 z"
   id="path1" />&#10;<path
   class="st0"
   d="m 469.86114,11.6 -55.3,4.4 -52.2,4.1 v 0 175.6 c 2.3,0 4.7,-0.2 7,-0.6 l 79.8,-17 9.2,-1.9 c 20,-4.6 21.4,-23.9 21.4,-23.9 l 1.4,-38 3.1,-78.4 c 0,-10.1 -5.5,-19.4 -14.4,-24.3"
   id="path2" />&#10;<path
   class="st1"
   d="M 362.26114,18.3"
   id="path3" />&#10;<path
   class="st0"
   d="m 362.26114,18.3 52.2,-4.1 55.4,-4.4 v 0 c -5.5,-3.1 -14.9,-3.5 -14.9,-3.5 0,0 -90,-6.2 -93.1,-6.3 h -1.2 c -56.4,3.5 -87.9,5.6 -87.9,5.6 0,0 -11,0.5 -18.2,4.1 z"
   id="path4" />&#10;<path
   class="st2"
   d="m 362.26114,18.3 v 0 l -107.7,-8.6 c 0,0 -14.6,7.2 -14.1,24.3 l 3.1,78.4 1.4,38 c 0,0 1.3,19.2 21.4,23.9 l 9,1.9 79.9,17.2 c 2.3,0.4 4.5,0.7 6.8,0.6 z"
   id="path5" />&#10;<path
   class="st3"
   d="m 469.86114,9.6 -55.3,4.4 -52.2,4.1 v 0 175.6 c 2.3,0 4.7,-0.2 7,-0.6 l 79.8,-17 9.2,-1.9 c 20,-4.6 21.4,-23.9 21.4,-23.9 l 1.4,-38 3.1,-78.4 c 0,-10 -5.5,-19.3 -14.4,-24.3"
   id="path6" />&#10;<path
   class="st4"
   d="m 272.66114,131.2 21.9,48.8 c 0,0 -22.1,-4.6 -28.3,-5.9 -10.3,-2.2 -18.3,-10.2 -20.7,-20.5 z"
   id="path7" />&#10;<path
   class="st0"
   d="M 87.56114,74.2 3.5611398,102.6 c 0,0 -5.7,8.4 1,24 l 57.4000002,102 c 5.1,9.5 15.2,15.1 25.9,14.5 l 77.5,-9.5 c 5.2,-0.6 6.7,-1.5 6.7,-1.5 z"
   id="path8" />&#10;<path
   class="st0"
   d="m 271.06114,127.8 -48.1,-107.8 c -4.4,-7.5 -12,-12.5 -20.7,-13.5 l -2.1,1.2 -112.7,66.5 84.7,157.9 c 1.9,-0.6 6.8,-4 6.8,-4 22.6,-16.1 88.6,-69.2 88.6,-69.2 15.3,-12 3.6,-31.1 3.5,-31.1"
   id="path9" />&#10;<path
   class="st4"
   d="m 453.86114,127.8 -23,52 c 0,0 21.4,-4.5 26.7,-5.7 9.8,-1.9 14.8,-7.5 17.3,-11.2 1.8,-2.8 3.1,-5.8 4,-9 z"
   id="path10" />&#10;<path
   class="st5"
   d="m 352.96114,47.5 -4,-0.4 c 2.8,0.9 1.3,4.5 1.3,4.5 l -33.2,60 -1.5,45 4.4,0.9 1.5,-44.8 33.2,-60 c 0,0.1 1.9,-4.7 -1.7,-5.2"
   id="path11" />&#10;<path
   class="st5"
   d="m 291.76114,45.4 7.4,21 c 1.7,4.9 3.5,11.1 5.2,16.6 h 0.1 c 0.8,-1.7 1.5,-3.6 2.2,-5.4 -1.2,-3.6 -2.2,-7.2 -3.2,-10.3 l -7.4,-21 c 0,0 -1,-5.4 -5.8,-5.8 l -3.4,-0.4 c 3.7,1 4.9,5.3 4.9,5.3"
   id="path12" />&#10;<path
   class="st0"
   d="m 350.26114,51.6 c 0,0 1.7,-3.7 -1.3,-4.5 -0.1,0 -0.4,-0.1 -0.5,-0.1 l -23.4,-2.4 c -4,-0.5 -5.5,3.7 -5.5,3.7 l -8.5,19.6 c -1.3,3 -2.7,6.5 -4.3,9.9 -0.8,1.8 -1.5,3.6 -2.2,5.4 h -0.1 c -1.8,-5.5 -3.6,-11.8 -5.2,-16.6 l -7.4,-21.1 c 0,0 -1.2,-4.3 -4.8,-5.2 -0.1,0 -0.4,-0.1 -0.5,-0.1 l -23.5,-2.8 c -4.1,-0.5 -2.1,4.1 -2.1,4.1 l 28.7,66.5 -1.3,34.9 c 0,0 0.5,8 8.4,9.9 l 18.6,3.7 1.6,-45 z"
   id="path13" />&#10;<path
   class="st5"
   d="m 409.96114,148.4 2.3,-78.1 -4.6,0.5 -2.5,78.4 c 0,0 0.6,8.4 9.9,7.4 l 4.3,-0.8 c -8.9,0.5 -9.4,-7.4 -9.4,-7.4"
   id="path14" />&#10;<path
   class="st5"
   d="m 383.96114,68.6 1.3,-18.5 c 0.3,-3.1 2.2,-4 3.5,-4.3 l -3.8,0.4 c 0,0 -4,0.1 -4.3,4 l -1.3,18.7 c 0,0 -0.2,4.4 3.6,4.4 l 4.6,-0.5 c -3.9,0.2 -3.7,-4.2 -3.6,-4.2"
   id="path15" />&#10;<path
   class="st0"
   d="m 389.56114,45.9 c -0.3,0 -0.6,0.1 -0.9,0.1 -2,0.4 -3.5,2.2 -3.5,4.3 l -1.3,18.5 c 0,0 -0.3,4.3 3.6,4.4 h 0.1 l 20.1,-2.2 4.6,-0.5 -2.3,78.1 c 0,0 0.5,7.9 9.5,7.5 l 7.1,-1 11.2,-1.7 2.5,-85.7 19.8,-2.3 c 8.8,-1.4 9.3,-9 9.3,-9 l 1.4,-19 z"
   id="path16" />&#10;<path
   class="st0"
   d="m 721.46114,102.5 v 0 l -83.7,-28.4 v 0 l -84.4,157.6 c 2.1,0.8 4.3,1.3 6.6,1.5 l 77.5,9.7 c 10.8,0.7 20.9,-5 26,-14.5 l 57.4,-102 c 6.5,-15.6 0.9,-23.7 0.6,-23.9"
   id="path17" />&#10;<path
   class="st0"
   d="m 525.06114,7.7 -2.1,-1.2 h 0.1 c -8.6,1.1 -16.2,6.1 -20.7,13.5 l -48.3,107.7 c 0,0 -11.2,19.9 3.6,31 0,0 66.1,53.1 88.7,69.2 0,0 4.5,3.1 7,3.9 l 84.4,-157.6 z"
   id="path18" />&#10;<path
   class="st3"
   d="m 722.66114,100.5 v 0 l -83.9,-28.4 v 0 l -84.6,157.8 c 2.1,0.8 4.3,1.3 6.6,1.5 l 77.6,9.7 c 10.8,0.7 20.9,-5 26,-14.5 l 57.5,-102 c 6.7,-15.6 1.1,-23.7 0.8,-24.1"
   id="path19" />&#10;<path
   class="st2"
   d="m 525.96114,5.8 -2.1,-1.2 h 0.1 c -8.6,1.1 -16.3,6.1 -20.8,13.5 l -48.4,107.8 c 0,0 -11.2,19.9 3.7,31 0,0 66.1,53.2 88.7,69.2 0,0 4.5,3.1 7,3.9 l 84.6,-157.8 z"
   id="path20" />&#10;<path
   class="st0"
   d="m 525.96114,5.8 112.8,66.5 v 0 l 83.9,28.4 v -0.1 c -3.4,-6.1 -14.2,-12.8 -14.2,-12.8 l -98.9,-55.1 -74.1,-26.5 c -3.7,-1.3 -7.6,-1.8 -11.5,-1.5 h -0.1 z"
   id="path21" />&#10;<path
   class="st5"
   d="m 599.36114,79.4 -4.3,-2.5 c 1.9,1.3 2.6,3.8 1.5,5.8 l -49.4,95 c 0,0 -4,6.8 -11,2.8 l 3.5,2.6 c 7.4,4.9 11.8,-2.6 11.8,-2.6 l 49.2,-95 c 1.3,-2 0.7,-4.8 -1.3,-6.1"
   id="path22" />&#10;<polygon
   class="st5"
   points="575,290.6 570.6,287.7 547.2,330.6 551.2,333.3 "
   id="polygon22"
   transform="translate(-48.93886,-177.9)" />&#10;<path
   class="st5"
   d="m 549.06114,56.1 -17.6,33.8 4.3,2.7 17.4,-33.7 c 0,0 1.9,-4 -1.8,-6.5 l -4.3,-2.5 c 2.2,1.4 3,4 2,6.2"
   id="path23" />&#10;<path
   class="st0"
   d="m 547.26114,177.9 49.4,-95 c 0,0 1.8,-3.6 -1.5,-5.8 v 0 l -20,-11.5 c -3.2,-2.2 -5,1.4 -5,1.4 l -18.8,35.7 -15.6,-10.1 -4.3,-2.7 17.6,-33.8 c 1,-2.2 0.2,-4.9 -1.9,-6.1 l -19.6,-11.5 c -1.4,-1.2 -3.5,-0.9 -4.7,0.5 -0.2,0.2 -0.4,0.5 -0.5,0.8 l -45.3,88.1 c 0,0 -4.3,7.4 4.3,13 l 17,11.8 v 0 l 23.4,-42.8 4.3,2.8 15.4,10.1 -23.5,44.7 17.8,12.9 c 0.3,0.1 0.4,0.3 0.7,0.4 6.8,3.9 10.8,-2.9 10.8,-2.9"
   id="path24" />&#10;<path
   class="st5"
   d="m 704.56114,128.3 c -6.6,-11.1 -22.5,-20.5 -34.5,-23.9 -22.6,-6.2 -44.2,1.4 -53.7,22.5 -7.5,16.5 -3.3,27.6 6.7,36 -7.1,-8 -9.3,-18.1 -2.8,-32.4 9.5,-21.2 31.4,-29.7 53.7,-22.6 13.8,4.5 23.9,11.6 29.8,21.2 0,0.1 0.8,-0.8 0.8,-0.8"
   id="path25" />&#10;<path
   class="st5"
   d="m 610.96114,185.2 c 0,0 9.9,6.6 16.5,8.6 10.1,3.1 15.9,0.6 18.5,-5.3 1.9,-4.3 0.2,-7.1 -4.4,-10.7 1.5,2.2 1.8,4.3 0.5,7.1 -2.6,5.8 -8.4,8.4 -18.5,5.3 -6.6,-2.1 -16.5,-8.6 -16.5,-8.6 -9,-6.3 -15.5,2.5 -15.5,2.5 l -7.8,9.5 c 1.1,1.3 2.3,2.6 3.5,3.9 l 8.1,-9.7 c 0.3,-0.1 6.6,-8.7 15.6,-2.6"
   id="path26" />&#10;<path
   class="st0"
   d="m 673.96114,108.1 c -22.3,-7.2 -44.2,1.4 -53.7,22.6 -6.5,14.2 -4.3,24.4 2.8,32.4 2.2,2.4 4.7,4.6 7.4,6.5 l 9.4,7.2 c 0.6,0.4 1.2,0.9 1.7,1.3 4.6,3.6 6.3,6.5 4.4,10.7 -2.7,5.8 -8.4,8.4 -18.5,5.3 -6.6,-2.1 -16.5,-8.6 -16.5,-8.6 -9,-6.2 -15.5,2.5 -15.5,2.5 l -8.1,9.7 v 0 c 7.5,8.9 14.6,14.1 29.6,18.9 26,8.4 48.4,0.2 59.9,-25.3 9.7,-21.4 -3.4,-31.6 -12.8,-38.1 l -8.9,-6.1 c -6.6,-4.4 -6.3,-8.4 -4.3,-11.8 2.8,-4.6 8.8,-5.8 13,-5.2 8.1,1.4 12.4,5.2 15.9,7.9 7,5.9 13.9,-0.3 13.9,-0.3 2.1,-1.7 9.8,-8.3 9.8,-8.3 -5.6,-9.6 -15.7,-16.7 -29.5,-21.3"
   id="path27" />&#10;<path
   class="st2"
   d="M 86.36114,72.3 2.2611398,100.7 c 0,0 -5.7,8.4 1,24 l 57.4000002,102 c 5.1,9.5 15.2,15.2 26,14.5 l 77.6,-9.6 c 5.2,-0.6 6.7,-1.5 6.7,-1.5 z"
   id="path28" />&#10;<path
   class="st3"
   d="m 270.16114,125.8 -48.3,-107.8 c -4.4,-7.5 -12,-12.5 -20.7,-13.4 l -2.1,1.2 -112.6,66.3 84.7,157.9 c 1.9,-0.6 6.8,-4 6.8,-4 22.6,-16.1 88.7,-69.2 88.7,-69.2 15.4,-11.9 3.5,-31 3.5,-31"
   id="path29" />&#10;<path
   class="st0"
   d="m 201.26114,4.5 v 0 c -0.1,0 -7,-0.3 -11.6,1.5 l -74.1,26.6 -98.9,55.1 c 0,0 -10.2000002,5.9 -14.2000002,12.8 v 0.1 L 86.46114,72.2 v 0 l 112.7,-66.5 z"
   id="path30" />&#10;<path
   class="st5"
   d="m 130.86114,165.6 c -9.3,-19.5 -26.2,-21.9 -38.7,-22.3 11.7,1 25.4,5 33.4,21.9 11.9,25 0.9,42.5 -26.6,49.2 -15.9,3.9 -25.8,3.6 -39,0.6 v 0 l 0.3,1.2 c 14.6,3.4 29.8,3 44.2,-1.3 23.2,-7.2 38.3,-24.1 26.4,-49.3"
   id="path31" />&#10;<path
   class="st5"
   d="m 84.06114,123.8 c -4.9,-0.2 -11.4,-0.9 -19.1,2.1 -4,1.5 -7.6,5.5 -6.1,10.5 1.2,3.5 4.3,6.7 13,6.7 h 0.5 c -5.2,-0.9 -7.4,-3.5 -8.3,-6.3 -1.6,-4.9 2.1,-8.8 6.1,-10.3 7.6,-3.1 14.1,-2.5 19.1,-2.1 10.5,1 10.9,-7.2 10.9,-7.2 0.3,-2.3 0.9,-9.9 0.9,-9.9 -1.7,-0.6 -3.5,-1.2 -5.3,-1.7 0,0.1 -0.7,8.9 -0.9,11.2 0,-0.3 -0.4,8 -10.8,7"
   id="path32" />&#10;<path
   class="st0"
   d="m 98.86114,214.4 c 27.5,-6.7 38.6,-24.1 26.6,-49.2 -8,-16.9 -21.8,-20.9 -33.4,-21.9 -2.8,-0.3 -5.6,-0.3 -8.1,-0.3 h -12.1 c -8.8,0 -12,-3.2 -13,-6.7 -1.6,-4.9 2.2,-8.8 6.1,-10.5 7.6,-3.1 14.1,-2.5 19,-2.1 10.5,1 10.9,-7.2 10.9,-7.2 0.3,-2.3 0.9,-11.1 0.9,-11.2 -12.5,-4.1 -26.3,-4.5 -41,-0.9 -23.5,5.8 -33.6,23.4 -23.8,44 8.5,18.1 23,23.8 40.3,24 l 13.4,0.6 c 8.3,0.1 12.5,1.3 14.7,5.9 2.7,5.7 0.2,10.6 -10.3,13.3 -7,1.8 -20.4,1.8 -20.4,1.8 -12.5,-0.8 -10.2,9.6 -10.2,9.6 l 1.6,11.4 v 0 c 13,3 23,3.3 38.8,-0.6"
   id="path33" />&#10;<path
   class="st5"
   d="m 123.26114,90.5 c -2.3,-4.7 -0.8,-10.4 3.5,-13.4 l -3.2,1.9 c -8.4,5.7 -4,14.1 -4,14.1 l 10.9,25.8 40.6,77.2 3.9,-2.7 -40.7,-77.3 z"
   id="path34" />&#10;<path
   class="st5"
   d="m 230.26114,137.2 -27.4,-57.2 c 0.9,4 2.1,11 2.4,12.9 l 0.5,4 20.5,43 c 5.8,13.2 13.8,6.2 13.8,6.2 l 2.6,-2.2 c -2,1.3 -7.7,3.6 -12.4,-6.7"
   id="path35" />&#10;<path
   class="st5"
   d="m 186.16114,99.7 c -1,-7.3 -2.4,-14.5 -4.1,-21.6 l -4.4,-22.5 c 0,0 -1.2,-7 2.6,-9.2 l -3.9,2.5 c -4,2.5 -2.6,9.4 -2.6,9.4 l 4.3,22.3 c 1.6,6.3 2.3,10.8 3.1,15.4 1.6,1.3 3,2.6 4.5,4 z"
   id="path36" />&#10;<path
   class="st5"
   d="m 195.56114,135.4 -28.4,-21.2 c -2.3,-2.1 -7.6,-7.4 -9.3,-9.3 l 4,7 3.5,6.5 26.3,19.8 c 2.4,1.9 6.6,4.6 10.2,2.7 l 3.9,-2.2 c -3.1,1.5 -7.8,-1.2 -10.2,-3.3"
   id="path37" />&#10;<path
   class="st0"
   d="m 256.66114,132.3 -34.9,-74.6 c -4.6,-8.4 -10.1,-15.8 -11.8,-18.3 0,0 -5,-8.8 -13.6,-3.2 l -16.3,10.3 v 0 c -3.6,2.2 -2.6,9.2 -2.6,9.2 l 4.4,22.5 c 1.8,7.1 3.1,14.3 4.1,21.6 l -0.4,0.3 c -1.4,-1.3 -3,-2.7 -4.5,-4 -4.9,-4.3 -9.9,-8.3 -13.4,-11.9 l -15.4,-14.6 c 0,0 -5.4,-5 -10.7,-1.5 l -14.2,8.6 c -0.3,0.1 -0.4,0.2 -0.6,0.4 -4.3,3 -5.8,8.7 -3.5,13.4 l 10.8,25.8 40.7,77.2 v 0 l 14.4,-10.2 c 0,0 7.9,-6.2 2.5,-15.9 l -26.5,-48.9 -3.5,-6.5 -4,-7 c 1.7,1.9 7,7.2 9.3,9.3 l 28.4,21.2 c 2.4,1.9 7.1,4.8 10.2,3.1 h 0.1 l 1.8,-1 c 3.2,-2.3 3,-6.2 1.9,-11.1 l -3.7,-29.6 -0.5,-3.9 c -0.5,-1.9 -1.6,-8.9 -2.4,-12.9 l 27.4,57.2 c 4.6,10.3 10.3,8 12.5,6.6 0.4,-0.2 0.7,-0.5 1,-0.8 z"
   id="path38" />&#10;</svg>
