<?xml version="1.0" encoding="UTF-8" standalone="no"?><svg version="1.1" id="Réteg_1" xmlns="http://www.w3.org/2000/svg" xmlns:xlink="http://www.w3.org/1999/xlink" x="0px" y="0px" viewBox="0 0 128 128" style="enable-background:new 0 0 128 128;" xml:space="preserve"><style type="text/css">.st0{fill:#11AD87;}.st1{fill:#FFFFFF;}</style><circle class="st0" cx="64" cy="64" r="64"/><circle class="st1" cx="41.8" cy="66.2" r="3.7"/><circle class="st1" cx="86.3" cy="66.2" r="3.7"/><path class="st1" d="M104.2,53.2c0.9-3.2,2.4-6.2,4.4-8.9l-14.8,0c-8.9-5.5-19.1-8.4-29.6-8.2c-10.7-0.2-21.3,2.7-30.4,8.3l-13.9,0c1.9,2.7,3.4,5.6,4.3,8.8c-7.3,9.9-5.2,23.8,4.7,31c9.6,7.1,23,5.3,30.5-4l4.7,7.1l4.8-7.1c7.6,9.7,21.5,11.3,31.2,3.8C109.5,76.5,111.4,62.9,104.2,53.2z M85.6,44.3C74.3,44.6,65,53.4,64.2,64.8C63.4,53.3,54,44.4,42.5,44.2c6.8-2.8,14.2-4.3,21.6-4.2C71.5,39.9,78.8,41.3,85.6,44.3z M42.1,84.1c-9.8,0-17.7-7.9-17.7-17.7s7.9-17.7,17.7-17.7c9.8,0,17.7,7.9,17.7,17.7c0,0,0,0,0,0C59.8,76.2,51.8,84.1,42.1,84.1z M92.5,83.1c-9.2,3.4-19.4-1.3-22.8-10.5v0c-3.4-9.2,1.3-19.4,10.5-22.8c9.2-3.4,19.4,1.3,22.8,10.5C106.4,69.5,101.7,79.7,92.5,83.1z"/><path class="st1" d="M41.8,55.2c-6.1,0-11,4.9-11,11c0,6.1,4.9,11,11,11c6.1,0,11-4.9,11-11c0,0,0,0,0,0C52.7,60.1,47.8,55.2,41.8,55.2z M41.8,73.4c-4,0-7.2-3.2-7.2-7.2c0-4,3.2-7.2,7.2-7.2s7.2,3.2,7.2,7.2c0,0,0,0,0,0C49,70.1,45.8,73.3,41.8,73.4z"/><path class="st1" d="M86.3,55.2c-6.1,0-11,4.9-11,11s4.9,11,11,11c6.1,0,11-4.9,11-11c0,0,0,0,0,0C97.2,60.1,92.3,55.2,86.3,55.2z	M86.3,73.4c-4,0-7.2-3.2-7.2-7.2c0-4,3.2-7.2,7.2-7.2c4,0,7.2,3.2,7.2,7.2c0,0,0,0,0,0C93.5,70.1,90.3,73.4,86.3,73.4z"/></svg>