<?xml version="1.0" encoding="UTF-8" standalone="no"?>
<svg
   id="Layer_1"
   data-name="Layer 1"
   viewBox="0 0 122.88 122.88"
   version="1.1"
   sodipodi:docname="video-icon.svg"
   width="122.88"
   height="122.88"
   inkscape:version="1.3 (0e150ed6c4, 2023-07-21)"
   xmlns:inkscape="http://www.inkscape.org/namespaces/inkscape"
   xmlns:sodipodi="http://sodipodi.sourceforge.net/DTD/sodipodi-0.dtd"
   xmlns="http://www.w3.org/2000/svg"
   xmlns:svg="http://www.w3.org/2000/svg"
   xmlns:rdf="http://www.w3.org/1999/02/22-rdf-syntax-ns#"
   xmlns:cc="http://creativecommons.org/ns#"
   xmlns:dc="http://purl.org/dc/elements/1.1/">
  <defs
     id="defs1" />
  <sodipodi:namedview
     id="namedview1"
     pagecolor="#ffffff"
     bordercolor="#000000"
     borderopacity="0.25"
     inkscape:showpageshadow="2"
     inkscape:pageopacity="0.0"
     inkscape:pagecheckerboard="0"
     inkscape:deskcolor="#d1d1d1"
     showgrid="false"
     inkscape:zoom="7.4495804"
     inkscape:cx="53.090238"
     inkscape:cy="46.915394"
     inkscape:window-width="2560"
     inkscape:window-height="1369"
     inkscape:window-x="-8"
     inkscape:window-y="-8"
     inkscape:window-maximized="1"
     inkscape:current-layer="Layer_1" />
  <title
     id="title1">video</title>
  <path
     d="m 23.59,6 h 75.7 a 23.68,23.68 0 0 1 23.59,23.59 V 93.75 A 23.56,23.56 0 0 1 116,110.41 l -0.22,0.2 a 23.53,23.53 0 0 1 -16.44,6.73 H 23.59 A 23.53,23.53 0 0 1 6.93,110.41 l -0.2,-0.22 A 23.46,23.46 0 0 1 0,93.75 V 29.59 A 23.66,23.66 0 0 1 23.59,6 Z M 54,53.73 79.25,71.36 a 3.79,3.79 0 0 1 0.14,6.3 L 54.22,95.05 A 3.75,3.75 0 0 1 51.82,95.92 3.79,3.79 0 0 1 48,92.13 v -35.31 0 a 3.77,3.77 0 0 1 6,-3.09 z M 7.35,32.47 h 14 L 30.41,13.35 H 23.59 A 16.29,16.29 0 0 0 7.35,29.59 Z M 37.05,13.35 28,32.47 h 25.36 l 9.07,-19.09 v 0 z m 32,0 -9.13,19.12 h 24.7 L 93.7,13.35 Z m 31.32,0 -9.11,19.12 h 24.27 v -2.88 a 16.32,16.32 0 0 0 -15.2,-16.21 z m 15.2,26.68 H 7.35 v 53.72 a 16.21,16.21 0 0 0 4.65,11.3 l 0.17,0.16 A 16.19,16.19 0 0 0 23.59,110 h 75.7 a 16.21,16.21 0 0 0 11.3,-4.6 l 0.16,-0.18 a 16.17,16.17 0 0 0 4.78,-11.46 v -53.7 z"
     id="path1"
     style="fill:#4d4d4d;fill-opacity:1" />
  <metadata
     id="metadata1">
    <rdf:RDF>
      <cc:Work
         rdf:about="">
        <dc:title>video</dc:title>
      </cc:Work>
    </rdf:RDF>
  </metadata>
</svg>
