<?xml version="1.0" encoding="utf-8" standalone="no"?><svg id="Layer_1" data-name="Layer 1" xmlns="http://www.w3.org/2000/svg" viewBox="0 0 326.11 435.65"><defs><style>.cls-1{fill:#dc0000;}</style></defs><title>Yelp</title><path class="cls-1" d="M182.47,306.94l-60.24,73.35a19.68,19.68,0,0,0,8,30.8l58.89,23.18A19.68,19.68,0,0,0,216,416.47l2.54-96.08C219.05,301,194.77,292,182.47,306.94Z" transform="translate(-54.77 0)"/><path class="cls-1" d="M172.46,234L83.13,201.95a19.68,19.68,0,0,0-26.32,17.89l-2,63.25a19.67,19.67,0,0,0,25.79,19.33l91.35-29.91C190.33,266.48,190.69,240.57,172.46,234Z" transform="translate(-54.77 0)"/><path class="cls-1" d="M274.84,244.31l91.5-25.22a19.68,19.68,0,0,0,11.21-29.78l-34.76-52.88a19.68,19.68,0,0,0-32.21-1l-57.46,77.05C241.54,228.06,256.16,249.46,274.84,244.31Z" transform="translate(-54.77 0)"/><path class="cls-1" d="M208.57,24.43A23.34,23.34,0,0,0,179.11.84L106.68,20.62a23.34,23.34,0,0,0-12.91,36l83.12,144a22.38,22.38,0,0,0,2.29,3.33c12.31,14.46,35.42,9.1,41.11-7.83a23.87,23.87,0,0,0,1.06-9.48Z" transform="translate(-54.77 0)"/><path class="cls-1" d="M367,310.14l-91.88-28.21c-18.52-5.69-33.76,15.28-22.63,31.14L307,390.76a19.68,19.68,0,0,0,31.81.55L376.9,340.8A19.68,19.68,0,0,0,367,310.14Z" transform="translate(-54.77 0)"/></svg>