<?xml version="1.0" encoding="UTF-8"?>
<svg width="91px" height="27px" viewBox="0 0 91 27" version="1.1" xmlns="http://www.w3.org/2000/svg"
     xmlns:xlink="http://www.w3.org/1999/xlink">
    <!-- Generator: Sketch 47.1 (45422) - http://www.bohemiancoding.com/sketch -->
    <title>amelia-logo-horizontal@svg</title>
    <desc>Created with Sketch.</desc>
    <defs></defs>
    <g id="Page-1" stroke="none" stroke-width="1" fill="none" fill-rule="evenodd">
        <g id="Dashboard-2" transform="translate(-207.000000, -79.000000)">
            <g id="Heading" transform="translate(182.000000, 55.000000)">
                <g id="amelia-logo-horizontal" transform="translate(25.000000, 24.000000)">
                    <g id="Page-1">
                        <path d="M11.4937358,10.7089033 L11.4937358,2.00347742 C11.4937358,0.463573647 9.83438046,-0.498899048 8.50694847,0.271096622 L0.995613218,4.6279253 C0.379532759,4.98520749 1.74329502e-05,5.64565414 1.74329502e-05,6.36030609 L1.74329502e-05,15.0243117 C1.74329502e-05,16.5606252 1.65222529,17.5235357 2.97965728,16.7608958 L10.4910797,12.4454874 C11.1110826,12.0891685 11.4937358,11.4265326 11.4937358,10.7089033"
                              id="Fill-1" fill="#1A84EE"></path>
                        <path d="M13.4849535,2.00346866 L13.4849535,10.7088945 C13.4849535,11.4265238 13.8676068,12.0891597 14.4876097,12.4453911 L21.9991193,16.7608871 C23.3265512,17.5235269 24.9787591,16.5606164 24.9787591,15.024303 L24.9787591,6.36029734 C24.9787591,5.64564538 24.5992438,4.98519874 23.9831633,4.62791654 L16.4717409,0.271000296 C15.1443089,-0.498907805 13.4849535,0.46356489 13.4849535,2.00346866"
                              id="Fill-3" fill="#005AEE"></path>
                        <g id="Group-7" transform="translate(2.876437, 13.843371)" fill="#3BA6FF">
                            <path d="M8.62445527,0.32630898 L1.0701478,4.66641195 C-0.263647222,5.43264214 -0.267569636,7.36354223 1.06300029,8.13537686 L8.61730776,12.5170752 C9.23338822,12.8744449 9.99241887,12.8744449 10.6084993,12.5170752 L18.162894,8.13537686 C19.4934639,7.36354223 19.4895415,5.43264214 18.1557465,4.66641195 L10.601439,0.32630898 C9.98893228,-0.0256314947 9.23687481,-0.0256314947 8.62445527,0.32630898"
                                  id="Fill-5"></path>
                        </g>
                        <path d="M79.2693155,8.36586766 C79.434667,8.39161299 79.6132676,8.41087821 79.8043328,8.42348817 C79.9953979,8.43636083 80.1673739,8.44257825 80.3202609,8.44257825 C80.4602475,8.44257825 80.6226354,8.43636083 80.8074247,8.42348817 C80.9919525,8.41087821 81.1608778,8.39161299 81.3137648,8.36586766 C81.3391297,8.21235891 81.3549937,8.04615263 81.361531,7.86681098 C81.3678069,7.68773204 81.371032,7.52783075 81.371032,7.38693196 C81.371032,7.24620831 81.3678069,7.08639458 81.361531,6.90705293 C81.3549937,6.72788642 81.3391297,6.56807269 81.3137648,6.42708634 C81.1608778,6.40160371 80.9889889,6.38242606 80.7978366,6.3695534 C80.6068586,6.35694344 80.4410713,6.35028818 80.3010847,6.35028818 C80.1608366,6.35028818 79.9953979,6.35694344 79.8043328,6.3695534 C79.6132676,6.38242606 79.434667,6.40160371 79.2693155,6.42708634 C79.2436891,6.56807269 79.2278251,6.72788642 79.2215492,6.90705293 C79.2150119,7.08639458 79.2120483,7.24620831 79.2120483,7.38693196 C79.2120483,7.52783075 79.2150119,7.68773204 79.2215492,7.86681098 C79.2278251,8.04615263 79.2436891,8.21235891 79.2693155,8.36586766"
                              id="Fill-8" fill="#00143C"></path>
                        <path d="M38.1347877,15.2186277 L40.1906556,8.26414731 L42.2655253,15.2186277 L38.1347877,15.2186277 Z M40.8131862,6.36923815 C40.6244745,6.35680333 40.4421259,6.35032321 40.2661402,6.35032321 C40.0648768,6.35032321 39.8700636,6.35680333 39.6814391,6.36923815 C39.4928146,6.38202325 39.3165674,6.40093819 39.1533079,6.42615811 L34.7396335,20.0507818 C34.8777897,20.0760017 35.0319841,20.0949167 35.2016939,20.1076142 C35.3714908,20.1201366 35.5441642,20.1266167 35.7204113,20.1266167 C35.8836709,20.1266167 36.0472791,20.1201366 36.2108002,20.1076142 C36.3740598,20.0949167 36.537668,20.0760017 36.7012762,20.0507818 L37.6254841,16.9052098 L42.7748289,16.9052098 L43.7178644,20.0507818 C43.8688337,20.0760017 44.0291297,20.0949167 44.1988395,20.1076142 C44.3686364,20.1201366 44.5351211,20.1266167 44.6987293,20.1266167 C44.8746278,20.1266167 45.0571508,20.1201366 45.2456881,20.1076142 C45.4343126,20.0949167 45.6040224,20.0760017 45.7549918,20.0507818 L41.360145,6.42615811 C41.1838979,6.40093819 41.0018107,6.38202325 40.8131862,6.36923815 L40.8131862,6.36923815 Z"
                              id="Fill-10" fill="#00143C"></path>
                        <path d="M57.7924787,10.1022854 C57.4276071,10.1022854 57.1007393,10.1529004 56.8116138,10.2538676 C56.522314,10.3551851 56.264655,10.4877649 56.0383753,10.6517819 C55.8119213,10.8161492 55.6074328,11.0056489 55.4253456,11.2203685 C55.2429098,11.4353508 55.0887153,11.6499828 54.9631981,11.8646148 C54.7492086,11.3089009 54.4380305,10.8763092 54.0294893,10.5665771 C53.6207738,10.2571952 53.0392977,10.1022854 52.2847125,10.1022854 C51.919928,10.1022854 51.5869586,10.1529004 51.2851071,10.2538676 C50.9833427,10.3551851 50.7160084,10.4877649 50.4834529,10.6517819 C50.250723,10.8161492 50.0496339,11.0024088 49.8799241,11.210911 C49.7558015,11.3631938 49.6471943,11.5208183 49.5533178,11.6833467 L49.5533178,10.2510654 L47.7013284,10.2510654 L47.7013284,10.3297025 L47.7013284,16.2832673 L47.7013284,20.0507555 C47.8394845,20.0759755 47.9966425,20.0948904 48.1728897,20.1075879 C48.3487881,20.1201103 48.5059462,20.1265904 48.644451,20.1265904 C48.7826943,20.1265904 48.9368015,20.1201103 49.1065985,20.1075879 C49.2763082,20.0948904 49.4300669,20.0759755 49.5686588,20.0507555 L49.5686588,15.0860217 C49.5686588,14.5303078 49.6281923,14.0407962 49.7478695,13.6173993 C49.8671981,13.1943526 50.0308063,12.8438132 50.2382584,12.5657811 C50.4457977,12.2880118 50.6876799,12.0795971 50.964428,11.9403622 C51.2409146,11.801565 51.5365774,11.7319476 51.8509807,11.7319476 C52.4042153,11.7319476 52.8064807,11.9436898 53.0581253,12.3667364 C53.3095084,12.7901333 53.4353743,13.4250098 53.4353743,14.2711906 L53.4353743,20.0507555 C53.5736176,20.0759755 53.7277249,20.0948904 53.8974347,20.1075879 C54.0673188,20.1201103 54.2210774,20.1265904 54.3595822,20.1265904 C54.4978255,20.1265904 54.6520199,20.1201103 54.8217297,20.1075879 C54.9914395,20.0948904 55.1453724,20.0759755 55.2838772,20.0507555 L55.2838772,14.5554401 C55.2838772,13.6458592 55.4819155,12.957478 55.8779921,12.4899462 C56.2740688,12.0227648 56.7927862,11.7887799 57.4341444,11.7887799 C58.0376732,11.7887799 58.4714921,12.0067396 58.7356013,12.4425713 C58.9997105,12.8784031 59.131678,13.5321069 59.131678,14.4038579 L59.131678,20.0507555 C59.2699213,20.0759755 59.4241157,20.0948904 59.5938255,20.1075879 C59.7635352,20.1201103 59.9174682,20.1265904 60.055973,20.1265904 C60.1941291,20.1265904 60.3512,20.1201103 60.5274471,20.1075879 C60.7034328,20.0948904 60.8605036,20.0759755 60.9990084,20.0507555 L60.9990084,13.8542738 C60.9990084,12.6163961 60.7444002,11.6816829 60.2350966,11.0497838 C59.7258801,10.4182349 58.911587,10.1022854 57.7924787,10.1022854"
                              id="Fill-12" fill="#00143C"></path>
                        <path d="M65.0333679,14.2522845 C65.12123,13.4185384 65.3696495,12.7679871 65.7784522,12.3004553 C66.1869062,11.8331863 66.7748325,11.599289 67.5419694,11.599289 C67.9315959,11.599289 68.2682261,11.6721466 68.5510758,11.8172487 C68.8340997,11.9626135 69.0665681,12.1553532 69.2490039,12.3952052 C69.4311783,12.6353198 69.569683,12.9163293 69.6639953,13.2384087 C69.7583076,13.5606632 69.8054637,13.8987677 69.8054637,14.2522845 L65.0333679,14.2522845 Z M70.6165317,11.3814169 C70.2769378,10.9834151 69.8554963,10.6707932 69.3528171,10.443376 C68.8497022,10.2159589 68.2649139,10.1022941 67.5986265,10.1022941 C66.8187635,10.1022941 66.1429752,10.2382015 65.5709129,10.5097535 C64.9986763,10.7815682 64.5240643,11.1477824 64.1469024,11.6088341 C63.7696534,12.0701484 63.489593,12.6131648 63.3075058,13.2384087 C63.12507,13.8637401 63.03407,14.5364464 63.03407,15.2566152 C63.03407,15.989394 63.1283823,16.6621003 63.3170068,17.2747342 C63.5056313,17.8876308 63.8040834,18.4181248 64.2128861,18.8663913 C64.6213401,19.3150082 65.1401447,19.6623075 65.7689512,19.9087271 C66.3975834,20.1549716 67.1521687,20.2781814 68.0324455,20.2781814 C68.6359742,20.2781814 69.1859838,20.2337839 69.6829101,20.1455141 C70.1794876,20.0569817 70.6354465,19.9246647 71.0503507,19.7475998 C71.0377118,19.4823528 70.9999694,19.2140409 70.9371237,18.9422262 C70.8741035,18.6707618 70.7924302,18.4401046 70.6920164,18.250605 C69.8871371,18.5665545 69.0382396,18.7242666 68.1455853,18.7242666 C67.1270652,18.7242666 66.3567032,18.4780221 65.8350221,17.985358 C65.3130796,17.4926063 65.0395566,16.7156926 65.0145403,15.6545295 L71.5973966,15.6545295 C71.6096869,15.5156448 71.6224129,15.3483877 71.6350518,15.1523203 C71.6474292,14.9566033 71.6538794,14.7704312 71.6538794,14.5933664 C71.6538794,13.9490324 71.5657558,13.352161 71.3898574,12.8025769 C71.2136102,12.2530804 70.9560384,11.7793312 70.6165317,11.3814169 L70.6165317,11.3814169 Z"
                              id="Fill-14" fill="#00143C"></path>
                        <path d="M77.1748947,18.6485368 C77.0301141,18.6613219 76.9013717,18.6675393 76.7881447,18.6675393 C76.6246237,18.6675393 76.4705164,18.6517768 76.3260844,18.6200768 C76.1813909,18.588727 76.055525,18.5191095 75.9488353,18.4116622 C75.841797,18.3044775 75.7568986,18.1496552 75.6942271,17.9473705 C75.6311198,17.745436 75.5999148,17.4674914 75.5999148,17.1136244 L75.5999148,6.42615811 C75.4613229,6.40093819 75.3074771,6.38202325 75.1377673,6.36923815 C74.9680576,6.35680333 74.8138631,6.35032321 74.6756198,6.35032321 C74.537115,6.35032321 74.3833564,6.35680333 74.2134723,6.36923815 C74.0437625,6.38202325 73.8896553,6.40093819 73.751412,6.42615811 L73.751412,17.5304537 C73.751412,18.0359029 73.8204465,18.4590371 73.9588641,18.800119 C74.0971074,19.1412009 74.2857319,19.4130156 74.5248248,19.6149501 C74.7634819,19.8172348 75.04023,19.9625997 75.3546332,20.0507818 C75.6688622,20.1390515 76.0083689,20.1834491 76.3732405,20.1834491 C76.5868813,20.1834491 76.8194369,20.1739916 77.0711687,20.1549891 C77.3224647,20.1360742 77.5361926,20.0949167 77.7124398,20.0318669 C77.7124398,19.5139828 77.6558698,19.0340162 77.54273,18.5917044 C77.4418804,18.617187 77.3192396,18.6361019 77.1748947,18.6485368"
                              id="Fill-16" fill="#00143C"></path>
                        <path d="M78.3007147,10.6802944 C78.2879886,10.8128741 78.2817999,10.9425641 78.2817999,11.0687512 C78.2817999,11.1951135 78.2879886,11.3245408 78.3007147,11.4572081 C78.313092,11.5898753 78.3318325,11.7067802 78.3571974,11.8077474 L79.583344,11.8077474 L79.583344,20.0507205 C79.7215001,20.0759404 79.8756074,20.0948554 80.0454043,20.1076405 C80.2152012,20.1200753 80.3627712,20.126643 80.4887242,20.126643 C80.6268804,20.126643 80.7809876,20.1200753 80.9507846,20.1076405 C81.1205815,20.0948554 81.2743401,20.0759404 81.4129321,20.0507205 L81.4129321,10.3296675 L78.3571974,10.3296675 C78.3318325,10.430985 78.313092,10.5476271 78.3007147,10.6802944"
                              id="Fill-18" fill="#00143C"></path>
                        <path d="M89.1574941,18.5727632 C88.9185755,18.6361632 88.6449653,18.6835382 88.3370123,18.7148004 C88.0287977,18.7465004 87.7302584,18.7622628 87.441133,18.7622628 C87.2147661,18.7622628 86.9757603,18.7497405 86.7243772,18.7242578 C86.4726454,18.6991255 86.2433149,18.629508 86.0358628,18.5159308 C85.8284107,18.4021784 85.6553887,18.2381614 85.5171454,18.0232667 C85.3786406,17.8084595 85.3096061,17.5116 85.3096061,17.1326007 C85.3096061,16.5388817 85.5139203,16.0969202 85.922723,15.806103 C86.331177,15.515636 86.9253791,15.3702712 87.705155,15.3702712 C87.9061569,15.3702712 88.1513513,15.3829688 88.4407383,15.4081011 C88.729951,15.4335837 88.9688695,15.4587161 89.1574941,15.4840236 L89.1574941,18.5727632 Z M90.0063044,10.9644914 C89.3523073,10.389775 88.396633,10.1022854 87.1393686,10.1022854 C86.6612699,10.1022854 86.1646923,10.1402028 85.6492,10.2159502 C85.1334462,10.2917851 84.6618849,10.39932 84.2345161,10.5381171 C84.2345161,11.1194012 84.3539318,11.6182828 84.5929375,12.035112 C84.9574605,11.9214472 85.3314845,11.830025 85.7152709,11.7604075 C86.0986215,11.6911403 86.5103877,11.6562002 86.9507441,11.6562002 C87.6674126,11.6562002 88.2144586,11.801565 88.5917077,12.092032 C88.9688695,12.3827616 89.1574941,12.9006456 89.1574941,13.6458592 L89.1574941,14.0059436 C88.9813341,13.9808113 88.764381,13.9585687 88.5068092,13.9395662 C88.2488887,13.9206513 87.918883,13.9111938 87.5165305,13.9111938 C86.9757603,13.9111938 86.460268,13.9774837 85.9698791,14.1101509 C85.4794902,14.2428182 85.0455841,14.4449279 84.6683351,14.7164798 C84.2911732,14.9882945 83.9922852,15.3293764 83.7724557,15.7397255 C83.5522776,16.1504249 83.4423628,16.6274142 83.4423628,17.1704306 C83.4423628,17.7264948 83.5366751,18.2002439 83.7252996,18.5916781 C83.9139241,18.983375 84.1809098,19.3055419 84.5269538,19.5580914 C84.8726492,19.8109912 85.2937421,19.9939232 85.7906684,20.1075879 C86.287246,20.2213403 86.8437057,20.2782602 87.4598734,20.2782602 C88.113609,20.2782602 88.7549672,20.2242301 89.3838609,20.117133 C90.0125803,20.0099483 90.5469002,19.905741 90.9870822,19.8044235 L90.9870822,13.7216941 C90.9870822,12.4585965 90.6599529,11.5395581 90.0063044,10.9644914 L90.0063044,10.9644914 Z"
                              id="Fill-20" fill="#00143C"></path>
                    </g>
                </g>
            </g>
        </g>
    </g>
</svg>