<svg xmlns="http://www.w3.org/2000/svg" viewBox="0 0 1920 145" preserveAspectRatio="none">
    <path fill="#000000"
          to-d="M1840,120 H1880 V0 H1840 V120 M1760,60 H1800 V0 H1760 V60 M1720,100 H1760 V0 H1720 V100 M1600,80 H1640 V0 H1600 V80 M1400,60 H1440 V0 H1400 V60 M1360,20 H1400 V0 H1360 V20 M1320,80 H1360 V0 H1320 V80 M1280,60 H1320 V0 H1280 V60 M1120,80 H1160 V0 H1120 V80 M1040,60 H1080 V0 H1040 V60 M1000,80 H1040 V0 H1000 V80 M880,20 H920 V0 H880 V20 M840,40 H880 V0 H840 V40 M800,60 H840 V0 H800 V60 M760,20 H800 V0 H760 V20 M640,100 H680 V0 H640 V100 M560,80 H600 V0 H560 V80 M520,20 H560 V0 H520 V20 M440,60 H480 V0 H440 V60 M200,20 H240 V0 H200 V20 M160,100 H200 V0 H160 V100 M0,140 H40 V0 H0 V140 z"
          opacity="0.5"
          duration="1"
          d="M1840,0 H1880 V0 H1840 V0 M1760,0 H1800 V0 H1760 V0 M1720,0 H1760 V0 H1720 V0 M1600,0 H1640 V0 H1600 V0 M1400,0 H1440 V0 H1400 V0 M1360,0 H1400 V0 H1360 V0 M1320,0 H1360 V0 H1320 V0 M1280,0 H1320 V0 H1280 V0 M1120,0 H1160 V0 H1120 V0 M1040,0 H1080 V0 H1040 V0 M1000,0 H1040 V0 H1000 V0 M880,0 H920 V0 H880 V0 M840,0 H880 V0 H840 V0 M800,0 H840 V0 H800 V0 M760,0 H800 V0 H760 V0 M640,0 H680 V0 H640 V0 M560,0 H600 V0 H560 V0 M520,0 H560 V0 H520 V0 M440,0 H480 V0 H440 V0 M200,0 H240 V0 H200 V0 M160,0 H200 V0 H160 V0 M0,0 H40 V0 H0 V0 z"/>
    <path fill="#000000"
          to-d="M1560,80 H1600 V0 H1560 V80 M1520,40 H1560 V0 H1520 V40 M1480,60 H1520 V0 H1480 V60 M1440,40 H1480 V0 H1440 V40 M1320,40 H1360 V0 H1320 V40 M1280,20 H1320 V0 H1280 V20 M1240,40 H1280 V0 H1240 V40 M1200,80 H1240 V0 H1200 V80 M1160,100 H1200 V0 H1160 V100 M1120,40 H1160 V0 H1120 V40 M1080,60 H1120 V0 H1080 V60 M1040,20 H1080 V0 H1040 V20 M960,60 H1000 V0 H960 V60 M920,40 H960 V0 H920 V40 M840,20 H880 V0 H840 V20 M680,80 H720 V0 H680 V80 M640,20 H680 V0 H640 V20 M720,40 H760 V0 H720 V40 M600,60 H640 V0 H600 V60 M560,20 H600 V0 H560 V20 M480,40 H520 V0 H480 V40 M360,40 H400 V0 H360 V40 M320,100 H360 V0 H320 V100 M280,80 H320 V0 H280 V80 M120,80 H160 V0 H120 V80 M80,40 H120 V0 H80 V40 M240,40 H280 V0 H240 V40 M1880,140 H1920 V0 H1880 V140 M1840,80 H1880 V0 H1840 V80 M1800,40 H1840 V0 H1800 V40 M1760,40 H1800 V0 H1760 V40 M1680,60 H1720 V0 H1680 V60 M1640,100 H1680 V0 H1640 V100 M1600,40 H1640 V0 H1600 V40 M0,20 H40 V0 H0 V20 M40,120 H80 V0 H40 V120 z"
          duration="0.5"
          d="M1560,0 H1600 V0 H1560 V0 M1520,0 H1560 V0 H1520 V0 M1480,0 H1520 V0 H1480 V0 M1440,0 H1480 V0 H1440 V0 M1320,0 H1360 V0 H1320 V0 M1280,0 H1320 V0 H1280 V0 M1240,0 H1280 V0 H1240 V0 M1200,0 H1240 V0 H1200 V0 M1160,0 H1200 V0 H1160 V0 M1120,0 H1160 V0 H1120 V0 M1080,0 H1120 V0 H1080 V0 M1040,0 H1080 V0 H1040 V0 M960,0 H1000 V0 H960 V0 M920,0 H960 V0 H920 V0 M840,0 H880 V0 H840 V0 M680,0 H720 V0 H680 V0 M640,0 H680 V0 H640 V0 M720,0 H760 V0 H720 V0 M600,0 H640 V0 H600 V0 M560,0 H600 V0 H560 V0 M480,0 H520 V0 H480 V0 M360,0 H400 V0 H360 V0 M320,0 H360 V0 H320 V0 M280,0 H320 V0 H280 V0 M120,0 H160 V0 H120 V0 M80,0 H120 V0 H80 V0 M240,0 H280 V0 H240 V0 M1880,0 H1920 V0 H1880 V0 M1840,0 H1880 V0 H1840 V0 M1800,0 H1840 V0 H1800 V0 M1760,0 H1800 V0 H1760 V0 M1680,0 H1720 V0 H1680 V0 M1640,0 H1680 V0 H1640 V0 M1600,0 H1640 V0 H1600 V0 M0,0 H40 V0 H0 V0 M40,0 H80 V0 H40 V0 z"/>
</svg>