<svg xmlns="http://www.w3.org/2000/svg" viewBox="0 0 1920 140" preserveAspectRatio="none">
    <path fill="#000000"
          to-d="M360,75 H320 V-5 H360 V75 M400,95 H360 V-5 H400 V95 M440,55 H400 V-5 H440 V55 M480,35 H440 V-5 H480 V35 M600,35 H560 V-5 H600 V35 M640,15 H600 V-5 H640 V15 M680,35 H640 V-5 H680 V35 M720,75 H680 V-5 H720 V75 M760,95 H720 V-5 H760 V95 M800,35 H760 V-5 H800 V35 M840,55 H800 V-5 H840 V55 M880,15 H840 V-5 H880 V15 M960,55 H920 V-5 H960 V55 M1000,35 H960 V-5 H1000 V35 M1080,15 H1040 V-5 H1080 V15 M1240,75 H1200 V-5 H1240 V75 M1280,15 H1240 V-5 H1280 V15 M1200,35 H1160 V-5 H1200 V35 M1320,55 H1280 V-5 H1320 V55 M1360,15 H1320 V-5 H1360 V15 M1440,35 H1400 V-5 H1440 V35 M1560,35 H1520 V-5 H1560 V35 M1600,95 H1560 V-5 H1600 V95 M1640,75 H1600 V-5 H1640 V75 M1800,75 H1760 V-5 H1800 V75 M1840,55 H1800 V-5 H1840 V55 M1880,35 H1840 V-5 H1880 V35 M1920,115 H1880 V-5 H1920 V115 M1680,35 H1640 V-5 H1680 V35 M1720,15 H1680 V-5 H1720 V15 M1760,15 H1720 V-5 H1760 V15 M40,135 H0 V-5 H40 V135 M80,95 H40 V-5 H80 V95 M120,35 H80 V-5 H120 V35 M160,35 H120 V-5 H160 V35 M240,55 H200 V-5 H240 V55 M280,115 H240 V-5 H280 V115 M320,35 H280 V-5 H320 V35 z"
          duration="1"
          d="M360,0 H320 V0 H360 V0 M400,0 H360 V0 H400 V0 M440,0 H400 V0 H440 V0 M480,0 H440 V0 H480 V0 M600,0 H560 V0 H600 V0 M640,0 H600 V0 H640 V0 M680,0 H640 V0 H680 V0 M720,0 H680 V0 H720 V0 M760,0 H720 V0 H760 V0 M800,0 H760 V0 H800 V0 M840,0 H800 V0 H840 V0 M880,0 H840 V0 H880 V0 M960,0 H920 V0 H960 V0 M1000,0 H960 V0 H1000 V0 M1080,0 H1040 V0 H1080 V0 M1240,0 H1200 V0 H1240 V0 M1280,0 H1240 V0 H1280 V0 M1200,0 H1160 V0 H1200 V0 M1320,0 H1280 V0 H1320 V0 M1360,0 H1320 V0 H1360 V0 M1440,0 H1400 V0 H1440 V0 M1560,0 H1520 V0 H1560 V0 M1600,0 H1560 V0 H1600 V0 M1640,0 H1600 V0 H1640 V0 M1800,0 H1760 V0 H1800 V0 M1840,0 H1800 V0 H1840 V0 M1880,0 H1840 V0 H1880 V0 M1920,0 H1880 V0 H1920 V0 M1680,0 H1640 V0 H1680 V0 M1720,0 H1680 V0 H1720 V0 M1760,0 H1720 V0 H1760 V0 M40,0 H0 V0 H40 V0 M80,0 H40 V0 H80 V0 M120,0 H80 V0 H120 V0 M160,0 H120 V0 H160 V0 M240,0 H200 V0 H240 V0 M280,0 H240 V0 H280 V0 M320,0 H280 V0 H320 V0 z"/>
</svg>