<svg xmlns="http://www.w3.org/2000/svg" width="1920" height="138" viewBox="0 0 1920 138" preserveAspectRatio="none">
    <path
            to-d="M11.6,29.11 l-3.8,-0.82 s0.1,-2.39,-7.8,1.52 V0 h1920 V138 l-13,-3.58,-11.04,1.33,-13.42,-0.71 c0.17,-0.2,0.19,-0.4,0.03,-0.62,0.4,-0.6,0.43,-1.22,0.1,-1.85,-3.19,0.08,-9.56,0.18,-9.55,-0.07,0.02,-0.24,-0.62,-0.75,-0.95,-0.97 l-2.04,0.81,-4.68,-1.3 c-3.6,-4.52,-5.55,-4.01,-5.55,-4.01 l-1.95,0.51,0.03,-0.61,-1.89,-0.72,0.04,-0.62,-1.92,-0.1,-1.92,-0.1,0.07,-1.23,-1.85,-1.34,-1.95,0.51,0.03,-0.61,-1.98,1.13,0.09,-1.85 a5.36,5.36,0,0,1,-1.98,1.13 l1.85,1.34 a0.82,0.82,0,0,1,-0.03,0.61 l-1.98,1.13 c-0.24,0.4,-0.26,0.82,-0.07,1.23,-1.26,-0.13,-2.56,-0.2,-3.83,-0.2,-2.55,0.02,-5.14,-0.12,-7.67,-0.4,-1.27,-0.14,-2.56,-0.21,-3.84,-0.21 a4.73,4.73,0,0,1,-1.95,0.51 l-1.91,-0.1,0.06,-1.23,0.13,-2.47,-1.95,0.52,-0.03,0.61,-1.92,-0.1,0.04,-0.62,-1.89,-0.72,-1.98,1.13 c-0.57,0.2,-1.23,0.38,-1.95,0.52 l0.03,-0.62,-1.95,0.52 s-1.85,-1.34,-3.73,-2.06 l-1.95,0.52,-2.02,1.74,0.1,-1.84,-2.12,3.6,-1.88,-0.73,-1.95,0.52,-1.92,-0.1,-1.92,-0.1,-1.95,0.5,0.04,-0.61,-1.99,1.13 a27.27,27.27,0,0,1,-3.9,1.03 c-0.46,-0.28,-1.11,-0.52,-1.88,-0.72 l0.07,-1.23,-5.79,0.3,-0.03,0.62,-3.94,1.65,0.04,-0.62,-1.89,-0.72,-0.06,1.24,-1.95,0.51,-0.04,0.62,-1.91,-0.1,-1.92,-0.1,-1.88,-0.73,-0.04,0.62,-0.03,0.62,-0.03,0.61,-1.86,-1.33,-0.03,0.61,-0.03,0.62,-1.98,1.13 c0.17,-0.2,0.18,-0.4,0.03,-0.61 l0.03,-0.62 c0.06,-0.2,0.07,-0.41,0.03,-0.62,0,0,-1.95,0.52,-1.88,-0.72 l-1.92,-0.1,-0.06,1.23 c-0.46,0.38,-0.49,0.82,-0.07,1.24,0.03,0.2,0.02,0.41,-0.03,0.61 l-0.03,0.62,-1.92,-0.1,-1.92,-0.1,0.03,-0.62,-1.91,-0.1,-7.61,-1.64,-9.39,-4.21,-7.43,-4.73,-9.79,3.19 a4.68,4.68,0,0,1,-1.95,0.51 l0.03,-0.61,-1.91,-0.1 c-0.06,0.2,-0.07,0.4,-0.04,0.61 l-1.85,-1.33,-1.95,0.51,-0.03,0.62,-3.83,-0.2,0.06,-1.24 c0.25,-0.81,0.29,-1.63,0.13,-2.47,-0.63,-0.06,-1.28,-0.09,-1.91,-0.1 l-1.92,-0.1 c0.23,-0.4,0.26,-0.81,0.06,-1.23 l-1.95,0.51,-1.95,0.52 c-1.82,-1.96,-5.62,-2.78,-7.53,-2.88 l-5.89,2.16,-3.93,1.64 c-3.87,0.42,-5.75,-0.3,-7.64,-1.02,-1.88,-0.72,0.2,-3.7,-1.62,-5.65,-1.82,-1.95,-1.88,-0.72,-3.8,-0.82 l-7.6,-1.64 a54.57,54.57,0,0,1,-5.85,1.54 l-4,2.88,-0.04,0.61 c-0.17,0.2,-0.18,0.4,-0.03,0.62 l-2.05,2.36,-1.91,-0.1,0.03,-0.62,-1.89,-0.71,-0.03,0.61,-0.03,0.62,-3.87,0.41,-1.95,0.52,-1.92,-0.1,1.95,-0.52,-1.88,-0.72 c-1.92,-0.1,-5.75,-0.3,-5.92,2.78,0.07,-1.24,-1.91,-0.1,-1.88,-0.72,-0.42,-0.43,-0.4,-0.86,0.06,-1.24,0.28,-0.39,0.31,-0.8,0.07,-1.23 l-1.53,0.05,1.56,-0.66,-1.85,-1.34,-0.06,1.23,-1.89,-0.72,-0.06,1.24,-1.95,0.51,1.85,1.34,-1.92,-0.1 c-0.6,-0.25,-1.22,-0.5,-1.88,-0.72 a9.8,9.8,0,0,1,-1.89,-0.72 c-1.85,-1.34,0.13,-2.47,-7.57,-2.26,-2.04,-0.05,-4.02,0.06,-5.78,0.3,-0.26,-0.3,-0.74,-0.59,-1.4,-0.84,-0.66,-0.25,-1.47,-0.45,-2.37,-0.59 l0.03,-0.62,0.03,-0.61,-9.42,-4.36,-11.44,-1.08,1.44,0.85,-4.29,-0.22 c1.01,-0.3,-1.14,-2.85,-0.85,-3.3,-0.22,-0.67,-0.83,-1.33,-1.82,-1.95,-2.04,-0.87,-5.84,-2.47,-4.66,-1.92,1.17,0.56,-4.12,1.92,-6.91,2.54,0.24,-0.4,0.26,-0.82,0.07,-1.24 l-1.95,0.52 c0.18,-0.4,0.2,-0.82,0.06,-1.23 l-0.03,0.61,-5.59,-3.39 c-1.95,0.52,-7.37,-5.95,-7.37,-5.95 l-5.52,-4.62 c-1.85,-1.34,-5.79,0.3,-7.77,1.44 a5.5,5.5,0,0,1,-2.02,1.74 l-1.95,0.52 c-0.43,-0.47,-1.05,-0.91,-1.85,-1.34 l0.03,-0.61,1.92,0.1,-3.8,-0.82,-0.03,0.61,-1.85,-1.33,-1.95,0.51 a1.6,1.6,0,0,1,-0.07,1.24 c-0.11,0.4,-0.13,0.81,-0.07,1.23,0.49,0.46,1.11,0.9,1.86,1.33 l-0.04,0.62,-1.88,-0.72,-0.03,0.62,-3.87,0.4 c-1.64,0.2,-2.99,0.56,-3.9,1.04 l-1.92,-0.1,1.95,-0.52,-1.88,-0.72,-1.99,1.13 a5.28,5.28,0,0,1,-1.98,1.13 l-1.92,-0.1,1.95,-0.51,-1.88,-0.72,-1.95,0.51,2.01,-1.74,-1.5,-1.11,-2.03,0.5,-2.25,0.92,-0.07,1.23,-1.88,-0.72,-0.03,0.62 s0.06,-1.24,-1.89,-0.72 a0.62,0.62,0,0,1,-0.03,0.61 l-5.85,1.55 c-3.87,0.4,-2.02,1.74,-5.88,2.16,-3.87,0.4,-2.05,2.36,-3.97,2.26 l-5.69,-1.54 c-0.57,-0.37,-1.38,-0.7,-2.37,-0.97,-0.99,-0.27,-2.12,-0.46,-3.31,-0.57 l-7.8,2.05,-3.97,2.27,-3.93,1.64 c-0.55,0.4,-1.22,0.78,-1.99,1.13 l0.04,-0.61,-1.85,-1.34,0.03,-0.62,-3.84,-0.2,0.04,-0.62,-1.95,0.52,0.06,-1.24,-1.91,-0.1,-0.04,0.62 c-0.51,-0.03,-1,0.01,-1.36,0.1,-0.37,0.1,-0.58,0.25,-0.59,0.41 l1.89,0.72 c-0.75,0.36,-1.41,0.74,-1.99,1.13,0.06,-0.2,0.07,-0.4,0.04,-0.61,0.09,-0.2,0.1,-0.41,0.03,-0.62 l-1.92,-0.1 c0.18,-0.2,0.19,-0.4,0.04,-0.62 l0.06,-1.23 a9.29,9.29,0,0,1,-1.78,-2.57 l-4.07,4.11,-1.92,-0.1,0.04,-0.62,-1.95,0.52,-0.04,0.61,-3.86,0.41,-0.04,0.62,-5.81,0.93,-1.95,0.51,0.03,-0.62,-5.79,0.31 c-1.12,0.26,-1.83,0.67,-1.98,1.13 l-1.92,-0.1,-1.91,-0.1 c0.17,-0.2,0.18,-0.4,0.03,-0.62 l-1.89,-0.71,-1.81,-1.96,-1.92,-0.1,-0.07,1.23,-0.03,0.62 c-0.16,0.4,-0.19,0.82,-0.07,1.23,-1.27,-0.04,-2.55,-0.11,-3.83,-0.2,0.07,-0.2,0.09,-0.4,0.03,-0.62 l-3.83,-0.2,-1.92,-0.1,0.07,-1.24,-1.92,-0.1,-0.03,0.62,-0.04,0.61 c-0.76,0,-1.52,-0.09,-2.2,-0.23 a5.1,5.1,0,0,1,-1.6,-0.59 c0.38,-1,0.43,-2.04,0.17,-3.08,-0.29,-0.07,-0.62,-0.11,-0.96,-0.13 l-8.6,-1,-9.55,-1.12,-7.67,-0.41 c-3.83,-0.2,-3.9,1.03,-5.85,1.54 a17.71,17.71,0,0,1,-5.82,0.93 l-7.77,1.44,-5.75,-0.31 c-1.92,-0.1,-3.96,2.26,-7.83,2.67,-3.87,0.42,-1.92,-0.1,-3.8,-0.82,-0.15,-0.2,-0.14,-0.42,0.03,-0.61,0.17,-0.2,0.18,-0.41,0.03,-0.62 l0.04,-0.62,-1.92,-0.1,-0.03,0.62,-0.04,0.61,-4,2.88,-5.65,-2.15,-1.88,-0.72,0.03,-0.62,-1.92,-0.1,0.1,-1.85,-3.83,-0.2,-0.04,0.61,-1.85,-1.33,0.03,-0.62,-1.95,0.51 c0.07,-0.2,0.08,-0.4,0.04,-0.61,-0.1,-0.48,-0.76,-0.96,-1.85,-1.34,-1.78,0.16,-5.32,0.54,-5.33,0.79,-0.02,0.25,-1.41,1.26,-2.1,1.74 l-2.29,-0.57,-1.89,-0.72 c0.12,-0.2,0.13,-0.4,0.04,-0.62 l0.06,-1.23 a5.36,5.36,0,0,1,-1.98,1.13 l-3.8,-0.82 s-9.59,-0.51,-17.49,3.4 l-0.03,0.61,-3.84,-0.2,-7.7,0.2,-13.42,-0.71 c0.17,-0.2,0.19,-0.4,0.03,-0.62,0.4,-0.59,0.43,-1.22,0.1,-1.85 l-6.71,-1.15 c-0.52,0.39,-1.56,1.21,-1.58,1.46,-0.01,0.24,-1.37,0.64,-2.04,0.81 l-5.04,-1.32,-0.06,1.23,-1.79,-2.56,-3.64,-3.9,-3.83,-0.21,0.03,-0.62 c-0.08,-0.41,-0.05,-0.83,0.07,-1.23 l-1.95,0.51,0.03,-0.61,-1.95,0.51,0.03,-0.62,-1.92,-0.1,0.04,-0.61,-1.85,-1.34,-1.95,0.52,-1.95,0.51,-0.14,2.47 a5.36,5.36,0,0,1,-1.98,1.13 c-1.26,-0.14,-2.56,-0.21,-3.83,-0.2 l-2.56,0.62,-1.55,0.84,-5.48,-1.98,0.03,-0.62,-1.95,0.52 c-0.17,0.2,-0.18,0.4,-0.03,0.61 l-3.83,-0.2,0.06,-1.23,0.1,-1.85,-1.92,-0.1,-1.95,0.51,0.1,-1.85,-15.4,0.42,-2.08,2.98,-1.92,-0.1,-0.03,0.61,-3.84,-0.2,-3.87,0.4 c0.12,-0.2,0.13,-0.4,0.04,-0.6 l-1.95,0.5,-0.04,0.62 a27.27,27.27,0,0,1,-3.9,1.03 c0.12,-0.2,0.13,-0.4,0.04,-0.62 l0.06,-1.23,-4.84,2.83,-1.47,-0.56,0.46,-0.73,-1.88,-0.72,-1.95,0.52,-6.53,-1.14,2.45,1.05,0.18,1.12,-0.04,0.61,-0.03,0.62,-6.12,-2.36 c-0.19,0.4,-0.37,1.25,0.4,1.44 l-0.03,0.61,-0.03,0.62,-0.04,0.62,-3.46,-0.38,-1.93,-1.33,-2.28,1.3 a0.64,0.64,0,0,1,-0.03,0.61 c0.12,0.42,0.1,0.83,-0.06,1.24 l-0.04,0.61 a4.7,4.7,0,0,1,-1.88,-0.72 l-0.03,0.62,-1.92,-0.1,0.03,-0.62,-1.92,-0.1,-7.6,-1.64,-9.36,-4.83,-7.47,-4.1,-9.78,3.18 c-2.16,-0.17,-6.43,-0.48,-6.31,-0.33,0.11,0.14,-5.7,-0.57,-8.62,-0.95 l-4.11,-2.2 c-0.1,-0.21,-0.09,-0.42,0.03,-0.62,-1.82,-1.95,-3.7,-2.67,-7.54,-2.88,-3.83,-0.2,-1.95,0.52,-5.88,2.16 l-5.85,1.55 c-1.95,0.51,-3.84,-0.2,-5.72,-0.93,-1.88,-0.72,0.2,-3.7,-1.62,-5.65,-1.82,-1.95,-1.89,-0.72,-3.8,-0.82 l-7.61,-1.64 a53.3,53.3,0,0,1,-5.85,1.54 l-4.06,4.11,-2.05,2.37,-1.92,-0.1,0.03,-0.62,-1.85,-1.34,-0.06,1.24,-0.04,0.61,-3.86,0.41,-2.24,0.94,-9.24,-5.11 c-0.6,0.27,-1.8,0.86,-1.81,1 l-0.07,1.23,-1.88,-0.72,-0.07,1.23,-1.95,0.51,1.85,1.34,-1.91,-0.1 c-1.13,-0.52,-2.39,-1,-3.77,-1.44,-0.07,-0.2,-0.06,-0.42,0.03,-0.62,-1.85,-1.33,0.1,-1.85,-7.6,-1.64,-2.04,-0.05,-4.02,0.06,-5.79,0.31,-0.26,-0.3,-0.74,-0.6,-1.4,-0.85 l-5.12,-1.2,-2.51,0.17 c-1.34,0.03,-4.11,0.15,-4.53,0.37,-0.41,0.23,-3.06,-2.11,-4.33,-3.3 l-3.35,-2.96,-3.35,0.28,-7.64,-1.03,1.98,-1.13 c0.35,-0.38,0.37,-0.8,0.07,-1.23,-0.75,-0.9,-2.27,-2.6,-2.3,-2.1,-0.03,0.61,-1.56,1.14,-1.57,1.45,-0.02,0.25,-1.64,-0.6,-2.45,-1.05 l-0.38,-2.18,-8.54,1.21,-3.67,-3.28 c-1.95,0.51,-5.46,-5.86,-7.38,-5.96 l-5.52,-4.62 c-1.85,-1.34,-5.78,0.3,-7.76,1.44 l-3.94,1.64,-0.03,0.62 c-0.43,-0.46,-1.06,-0.91,-1.85,-1.34 l0.03,-0.61,1.92,0.1,-3.8,-0.82,-0.04,0.62,-0.33,0.6,-1.58,-0.79,-1.89,-0.63 c-0.18,0.4,-0.2,0.81,-0.06,1.23,-0.11,0.4,-0.13,0.82,-0.07,1.23,0.48,0.46,1.1,0.9,1.85,1.34 l-1.04,1.18,-6.7,-0.36 a4.42,4.42,0,0,1,-1.98,1.13 l-1.91,-0.1,0.03,-0.62 c1.95,-0.51,0.03,-0.61,-1.89,-0.72 l-0.06,1.24 a5.33,5.33,0,0,1,-1.98,1.13 l-1.92,-0.1,0.06,-1.24,-1.94,0.52,-1.89,-0.72,2.02,-1.75,-1.99,1.13,-0.85,-0.15,-4,-0.21,-8.73,2.73,-5.88,2.16,-2.05,2.36,-5.69,-1.54 c-0.57,-0.37,-1.39,-0.7,-2.38,-0.96,-0.98,-0.27,-2.12,-0.47,-3.3,-0.58,-3.84,-0.2,-7.74,0.83,-9.72,1.96 l-3.97,2.26,-2.02,1.74 c-0.55,0.4,-1.21,0.78,-1.98,1.13,0.07,-1.23,-1.92,-0.1,-1.88,-0.71 l-1.89,-0.72,-1.85,-1.34,0.03,-0.61,-1.91,-0.1,-0.04,0.61,-1.85,-1.33,-1.95,0.5 c-0.17,0.1,-0.27,0.2,-0.27,0.3,0,0.11,0.08,0.22,0.24,0.33 l-0.03,0.61,-0.04,0.62 c-0.5,-0.27,-1.14,-0.51,-1.88,-0.72 l-1.92,-0.1 c0.18,-0.2,0.19,-0.4,0.03,-0.62 l0.07,-1.23,-2.09,0.05,0.1,0.77,-2.2,0.97,-1.01,-1.45,-2.54,0.48,-0.03,0.62,-0.03,0.62,-1.95,0.5 c0,0.17,-0.22,0.32,-0.59,0.42,-0.36,0.1,-0.85,0.13,-1.36,0.1,-0.07,-0.2,-0.06,-0.41,0.03,-0.61 l-1.92,-0.1,-0.03,0.61,-5.85,1.54 c0.04,-0.61,-1.82,-1.95,-1.88,-0.71 l-3.87,0.4,-1.92,-0.1,-3.87,0.42,-3.8,-0.82,-1.91,-0.1 a8.06,8.06,0,0,1,-1.99,1.12 c-1.27,-0.04,-2.55,-0.1,-3.83,-0.2,0.07,-0.2,0.08,-0.4,0.03,-0.62 l-1.92,-0.1,0.04,-0.61,-1.92,-0.1,-2.94,-1.25 s-1.04,0.78,-1.17,1.33 c0,0,0.08,0.22,0.24,0.33,-0.76,-0.01,-1.52,-0.1,-2.2,-0.24,-0.68,-0.15,-1.24,-0.35,-1.6,-0.59 l-1.3,-0.23 c-0.28,-0.17,-0.87,-0.53,-0.97,-0.67,-0.14,-0.17,-1.49,-0.39,-1.5,-0.08,-0.01,0.25,-0.3,0.2,-0.45,0.14 l-1.52,-0.86,0.58,-1.5,-1.54,0.83,-0.77,-1.73,-1.92,-0.1,-7.63,-1.03,-9.6,-0.51 c-3.83,-0.2,-1.97,1.13,-3.92,1.64 a17.7,17.7,0,0,1,-5.82,0.93 c-3.84,-0.2,-3.9,1.03,-7.77,1.44 l-7.67,-0.4 c-1.92,-0.11,-2.05,2.35,-5.91,2.77,-3.87,0.4,-1.92,-0.1,-5.72,-0.93 l-1.95,0.52,-0.04,0.61,-1.98,1.13 c-1.24,0.17,-2.53,0.31,-3.87,0.42 l-0.7,-1.46,-4.82,-3.17,0.03,-0.61,-1.88,-0.72,-1.92,-0.1,-1.95,0.51,0.07,-1.23,-1.89,-0.72 c-0.1,-0.48,-0.76,-0.96,-1.85,-1.33,-1.02,-0.1,-2.9,-0.3,-2.95,-0.32 l-4.96,0.04,0.93,1.28,-2.7,0.33,-0.04,0.62,-1.88,-0.72 c0.12,-0.2,0.13,-0.4,0.03,-0.62 l0.04,-0.61,-1.89,-0.72 c-0.23,0.4,-0.26,0.81,-0.06,1.23 l-1.89,-0.72 s-11.5,-0.6,-19.4,3.3 l0.03,-0.62,-3.83,-0.2,-7.7,0.2,-11.5,-0.61 c0.16,-0.2,0.17,-0.4,0.02,-0.62,-0.21,-0.66,-0.83,-1.32,-1.82,-1.95 l-1.94,0.52 c-0.24,-0.42,-0.22,-0.84,0.06,-1.24 l-0.47,-0.19,-1.55,1.94 c-1.95,0.51,-1.85,-1.33,-3.73,-2.05,-0.14,-0.42,-0.12,-0.83,0.06,-1.24 l1.95,-0.51,-1.88,-0.72,1.95,-0.51 c-1.85,-1.34,-1.95,0.51,-3.93,1.64 l-0.07,1.23,-0.07,1.24,-1.88,-0.72,-3.9,1.03,-3.75,-2.08,-3.62,-3.88,-1.95,0.52,-1.89,-0.72 c-0.08,-0.42,-0.06,-0.83,0.07,-1.24 l-1.92,-0.1,-1.95,0.52,0.03,-0.62,0.04,-0.62,-1.92,-0.1,-1.85,-1.33,-4.1,4.72 c-1.88,-0.25,-3.86,-0.36,-5.75,-0.3 a65.2,65.2,0,0,1,-7.67,-0.41 c-0.64,-0.05,-1.28,-0.09,-1.92,-0.1 l0.03,-0.62,-1.94,0.51,-3.87,0.41,1.95,-0.51,0.03,-0.62,-1.92,-0.1,2.02,-1.75,0.03,-0.61 c-1.88,-0.72,-1.95,0.51,-1.95,0.51 l-1.91,-0.1,-1.86,-1.33,-1.98,1.13 a5.32,5.32,0,0,1,-1.98,1.13 l-1.92,-0.1,1.95,-0.52,-1.88,-0.72,0.03,-0.61,-1.99,1.13,-1.88,-0.72,-0.03,0.61,-1.85,-1.33,-0.04,0.61,-0.03,0.62,-1.95,0.52,-1.95,0.51,-0.07,1.23,-1.91,-0.1,-1.95,0.51,-3.84,-0.2,-1.95,0.51 a7.2,7.2,0,0,1,-1.88,-0.71 l-1.95,0.51,-0.04,0.62 a26.81,26.81,0,0,1,-3.9,1.02 l0.04,-0.61,0.03,-0.62,0.03,-0.61,-1.91,-0.1,-1.95,0.5 c-0.17,-0.1,-0.25,-0.2,-0.24,-0.31,0,-0.11,0.1,-0.21,0.27,-0.3 l-1.92,-0.1,-2.01,1.75,0.03,-0.62,0.03,-0.62,0.07,-1.23,-2.08,2.98 c-0.01,0.16,-0.22,0.3,-0.59,0.4,-0.36,0.1,-0.86,0.14,-1.36,0.11 l-1.95,0.52,-1.96,0.51 c-0.28,-0.07,-0.61,-0.11,-0.95,-0.13,-0.33,-0.02,-0.3,0.13,-0.59,0.17,0.17,-0.08,-0.1,-0.33,-0.1,-0.43,0,-0.11,-0.08,-0.22,-0.24,-0.33 l0.03,-0.61,-1.95,0.51,-0.03,0.62 c-0.03,0.61,1.98,-1.13,1.88,0.72 l-1.91,-0.1,-1.95,0.5,-0.03,0.63,-1.89,-0.72 c0.07,-0.2,0.08,-0.41,0.03,-0.62 l-1.91,-0.1,-1.95,0.51 a0.63,0.63,0,0,1,-0.04,0.62 c0.12,0.42,0.1,0.83,-0.06,1.23 l-3.84,-0.2,-1.91,-0.1,-7.58,-2.26,-9.38,-4.21,-7.48,-4.11,-9.78,3.19,-1.92,-0.1,0.04,-0.62 c-0.72,0.15,-1.37,0.32,-1.95,0.51 l-3.8,-0.82,-0.04,0.62,-3.83,-0.2,0.03,-0.62 c0.38,-1.01,0.43,-2.04,0.16,-3.08,-1.17,0.48,-1.86,1.09,-2.01,1.74 l-0.04,0.62,-0.03,0.62,-1.88,-0.72 c-0.7,-0.23,-1.33,-0.47,-1.89,-0.72 l0.07,-1.23 c-1.82,-1.96,-3.7,-2.67,-7.54,-2.88,-3.83,-0.2,-1.95,0.51,-5.88,2.16 l-5.85,1.54 c-3.87,0.41,-1.92,-0.1,-5.72,-0.92,-3.8,-0.82,-3.57,-5.14,-3.5,-6.37,0.06,-1.23,-1.86,-1.33,-3.8,-0.82 l-7.64,-1.03 a53.82,53.82,0,0,1,-3.9,1.03 c-3.87,0.41,-1.99,1.13,-4,2.88,0.09,-0.2,0.1,-0.4,0.03,-0.62 l-2.02,1.75,-2.08,2.98,0.1,-1.85,-1.98,1.13,0.03,-0.61,-1.95,0.51,-1.95,0.51,-1.95,0.52 s-1.98,1.13,-1.92,-0.1 l0.04,-0.62 c-1.89,-0.72,-5.72,-0.92,-5.89,2.16 l-1.85,-1.34 c0.28,-0.39,0.3,-0.8,0.07,-1.23 L351.46,48 l-2.58,2.18,-0.06,1.24 c-0.4,0.25,-1.1,0.43,-1.95,0.51,-0.5,-0.45,-1.13,-0.9,-1.85,-1.33 a1,1,0,0,1,.03,-0.62 c-1.85,-1.34,0.1,-1.85,-7.6,-1.64,-2.05,-0.05,-4.02,0.06,-5.79,0.3,0.1,-0.39,-0.22,-0.8,-0.9,-1.17,-0.67,-0.37,-1.67,-0.68,-2.83,-0.88 l0.06,-1.23,-1.98,1.13,0.13,-2.46,-1.92,-0.1,-1.82,-1.96 c-1.88,-0.72,-0.16,3.08,-2.08,2.98 l-0.7,-0.87,-3.44,-1.02,-1.58,0.97,-0.03,0.62,-0.03,0.61,-1.89,-0.72,-1.91,-0.1 c0.06,-0.2,0.07,-0.4,0.03,-0.61,0.16,-0.4,0.19,-0.82,0.06,-1.24 l-1.88,-0.72,0.03,-0.61,-1.95,0.51,0.04,-0.61,-1.92,-0.1,-0.03,0.6,-0.04,0.63 a7.2,7.2,0,0,1,-1.95,0.51 l-0.03,0.62,-1.85,-1.34,-1.79,-2.57,1.99,-1.13 c0.09,-0.2,0.1,-0.4,0.03,-0.61,-0.22,-0.67,-0.84,-1.33,-1.82,-1.95 l-1.92,-0.1 c-0.05,-0.22,-0.04,-0.42,0.03,-0.62,0.07,-1.24,1.92,0.1,1.96,-0.52,0.02,-0.55,-2.73,-1.06,-3.1,-0.63 l-4.57,0.22,-0.07,1.2 v0.04,0.04 c-0.13,-0.4,-5.55,-1.1,-5.69,-1.5 l-1.66,-0.28 c-1.85,-1.33,-2.04,-2.4,-3.99,-1.88 l-5.45,-5.85,-7.41,-5.34 c-1.85,-1.34,-5.79,0.3,-5.89,2.16 a26.7,26.7,0,0,1,-3.9,1.02 l-0.03,0.62,-1.95,0.51 c0.18,-0.4,0.2,-0.81,0.07,-1.23 l-1.85,-1.33,-1.92,-0.1,0.03,-0.62,-1.95,0.51 c-0.18,0.4,-0.2,0.82,-0.06,1.23,-0.11,0.41,-0.13,0.82,-0.07,1.24,-0.14,0.4,-0.16,0.81,-0.07,1.23 l-5.78,0.31 c-1.64,0.2,-2.99,0.56,-3.9,1.03 l-1.85,-1.34,-1.98,1.13 a5.33,5.33,0,0,1,-1.99,1.14 l0.07,-1.24,-5.75,-0.3,-0.04,0.61,-1.85,-1.33,-0.03,0.61,-0.03,0.62,-0.04,0.62 c-0.63,-0.06,-1.28,-0.1,-1.91,-0.1 l0.06,-1.24 c-1.13,0.26,-1.84,0.66,-1.98,1.13 l-5.82,0.93 c-3.87,0.41,-3.97,2.26,-5.92,2.77 l-3.93,1.65,-3.8,-0.82 c-0.57,-0.37,-1.39,-0.7,-2.38,-0.97,-0.98,-0.27,-2.12,-0.46,-3.3,-0.57,-1.9,-0.72,-3.87,0.41,-7.77,1.44 l-3.97,2.26,-3.97,2.26 a32.1,32.1,0,0,1,-1.95,0.52 c0.07,-1.24,-0.03,0.61,-1.88,-0.72 l0.1,-1.85,-3.84,-0.2,0.04,-0.62,-1.99,1.13,0.1,-1.85,-1.92,-0.1,-0.03,0.61 c-0.5,-0.03,-1,0.01,-1.36,0.11,-0.37,0.1,-0.58,0.24,-0.59,0.4 l-0.12,1.14,-1.83,-0.62,0.07,-1.23 a7.7,7.7,0,0,1,-1.76,-3.19 l0.04,-0.61,0.03,-0.62,-4.03,3.5,-2.05,2.36,0.06,-1.23,-1.94,0.5,-1.96,0.52,-1.91,-0.1,-0.03,0.62,-1.96,0.51,-0.03,0.62,-0.03,0.61,-1.89,-0.71,-1.88,-0.72,-0.07,1.23,-3.83,-0.2,-1.95,0.51 s-1.95,0.51,-1.88,-0.72 l-1.92,-0.1 c-0.18,0.08,-0.27,0.19,-0.28,0.3,0,0.1,0.08,0.21,0.25,0.31,0.1,0.22,-3.25,0.45,-3.87,0.42 l-2.97,-0.63,-0.77,-1.43,-1.92,-0.1,-1.28,0.77,1.19,1.08 a8.94,8.94,0,0,1,-1.99,1.13 l-3.83,-0.2 c0.07,-0.2,0.08,-0.41,0.03,-0.62 l0.03,-0.62,-1.91,-0.1,-1.89,-0.72,-0.06,1.24,-1.85,-1.34,0.03,-0.61,-1.98,1.13,-0.04,0.61 c-0.76,0,-1.53,-0.09,-2.2,-0.24,-0.68,-0.14,-1.24,-0.34,-1.6,-0.58 l0.03,-0.62,-1.72,-3.8 a6.3,6.3,0,0,1,-2.05,2.37 l0.04,-0.62,-3.74,-2.05,-1.92,-0.1,-7.63,-1.03,-9.59,-0.51 c-3.83,-0.2,-2.01,1.75,-3.96,2.26,-0.92,0.33,-2.1,0.58,-3.44,0.73 a27.46,27.46,0,0,1,-4.3,0.1 l-5.82,0.92,-7.67,-0.4,-7.83,2.66 c-1.95,0.52,-1.92,-0.1,-3.8,-0.82 l-3.97,2.27,-3.9,1.02,-1.91,-0.1,0.03,-0.62,-1.95,0.52,-3.05,-0.66,3.18,-1.8,0.03,-0.62 c0.07,-1.24,-1.95,0.51,-1.88,-0.72,0.03,-0.2,0.04,-0.41,0.03,-0.62 l0.07,-1.23,-3.84,-0.2,-1.92,-0.1,-1.85,-1.34,-0.03,0.61 c-0.56,-0.25,-1.2,-0.5,-1.88,-0.72,-0.1,-0.48,-0.76,-0.95,-1.86,-1.33,-0.37,-0.3,-1.04,-0.55,-1.88,-0.72 l-3.9,1.03,-0.03,0.62 c-0.73,0.36,-1.4,0.73,-1.99,1.13 l0.04,-0.62,-3.8,-0.82 c0.11,-0.2,0.12,-0.4,0.03,-0.62 z"
            fill="#000000"
            duration="1"
            d="M11.6,0 l-3.8,0 s0.1,0,-7.8,0 V0 h1920 V0 l-13,0,-11.04,0,-13.42,0 c0.17,0,0.19,0,0.03,0,0.4,0,0.43,0,0.1,0,-3.19,0,-9.56,0,-9.55,0,0.02,0,-0.62,0,-0.95,0 l-2.04,0,-4.68,0 c-3.6,0,-5.55,0,-5.55,0 l-1.95,0,0.03,0,-1.89,0,0.04,0,-1.92,0,-1.92,0,0.07,0,-1.85,0,-1.95,0,0.03,0,-1.98,0,0.09,0 a5.36,0,0,0,1,-1.98,0 l1.85,0 a0.82,0,0,0,1,-0.03,0 l-1.98,0 c-0.24,0,-0.26,0,-0.07,0,-1.26,0,-2.56,0,-3.83,0,-2.55,0,-5.14,0,-7.67,0,-1.27,0,-2.56,0,-3.84,0 a4.73,0,0,0,1,-1.95,0 l-1.91,0,0.06,0,0.13,0,-1.95,0,-0.03,0,-1.92,0,0.04,0,-1.89,0,-1.98,0 c-0.57,0,-1.23,0,-1.95,0 l0.03,0,-1.95,0 s-1.85,0,-3.73,0 l-1.95,0,-2.02,0,0.1,0,-2.12,0,-1.88,0,-1.95,0,-1.92,0,-1.92,0,-1.95,0,0.04,0,-1.99,0 a27.27,0,0,0,1,-3.9,0 c-0.46,0,-1.11,0,-1.88,0 l0.07,0,-5.79,0,-0.03,0,-3.94,0,0.04,0,-1.89,0,-0.06,0,-1.95,0,-0.04,0,-1.91,0,-1.92,0,-1.88,0,-0.04,0,-0.03,0,-0.03,0,-1.86,0,-0.03,0,-0.03,0,-1.98,0 c0.17,0,0.18,0,0.03,0 l0.03,0 c0.06,0,0.07,0,0.03,0,0,0,-1.95,0,-1.88,0 l-1.92,0,-0.06,0 c-0.46,0,-0.49,0,-0.07,0,0.03,0,0.02,0,-0.03,0 l-0.03,0,-1.92,0,-1.92,0,0.03,0,-1.91,0,-7.61,0,-9.39,0,-7.43,0,-9.79,0 a4.68,0,0,0,1,-1.95,0 l0.03,0,-1.91,0 c-0.06,0,-0.07,0,-0.04,0 l-1.85,0,-1.95,0,-0.03,0,-3.83,0,0.06,0 c0.25,0,0.29,0,0.13,0,-0.63,0,-1.28,0,-1.91,0 l-1.92,0 c0.23,0,0.26,0,0.06,0 l-1.95,0,-1.95,0 c-1.82,0,-5.62,0,-7.53,0 l-5.89,0,-3.93,0 c-3.87,0,-5.75,0,-7.64,0,-1.88,0,0.2,0,-1.62,0,-1.82,0,-1.88,0,-3.8,0 l-7.6,0 a54.57,0,0,0,1,-5.85,0 l-4,0,-0.04,0 c-0.17,0,-0.18,0,-0.03,0 l-2.05,0,-1.91,0,0.03,0,-1.89,0,-0.03,0,-0.03,0,-3.87,0,-1.95,0,-1.92,0,1.95,0,-1.88,0 c-1.92,0,-5.75,0,-5.92,0,0.07,0,-1.91,0,-1.88,0,-0.42,0,-0.4,0,0.06,0,0.28,0,0.31,0,0.07,0 l-1.53,0,1.56,0,-1.85,0,-0.06,0,-1.89,0,-0.06,0,-1.95,0,1.85,0,-1.92,0 c-0.6,0,-1.22,0,-1.88,0 a9.8,0,0,0,1,-1.89,0 c-1.85,0,0.13,0,-7.57,0,-2.04,0,-4.02,0,-5.78,0,-0.26,0,-0.74,0,-1.4,0,-0.66,0,-1.47,0,-2.37,0 l0.03,0,0.03,0,-9.42,0,-11.44,0,1.44,0,-4.29,0 c1.01,0,-1.14,0,-0.85,0,-0.22,0,-0.83,0,-1.82,0,-2.04,0,-5.84,0,-4.66,0,1.17,0,-4.12,0,-6.91,0,0.24,0,0.26,0,0.07,0 l-1.95,0 c0.18,0,0.2,0,0.06,0 l-0.03,0,-5.59,0 c-1.95,0,-7.37,0,-7.37,0 l-5.52,0 c-1.85,0,-5.79,0,-7.77,0 a5.5,0,0,0,1,-2.02,0 l-1.95,0 c-0.43,0,-1.05,0,-1.85,0 l0.03,0,1.92,0,-3.8,0,-0.03,0,-1.85,0,-1.95,0 a1.6,0,0,0,1,-0.07,0 c-0.11,0,-0.13,0,-0.07,0,0.49,0,1.11,0,1.86,0 l-0.04,0,-1.88,0,-0.03,0,-3.87,0 c-1.64,0,-2.99,0,-3.9,0 l-1.92,0,1.95,0,-1.88,0,-1.99,0 a5.28,0,0,0,1,-1.98,0 l-1.92,0,1.95,0,-1.88,0,-1.95,0,2.01,0,-1.5,0,-2.03,0,-2.25,0,-0.07,0,-1.88,0,-0.03,0 s0.06,0,-1.89,0 a0.62,0,0,0,1,-0.03,0 l-5.85,0 c-3.87,0,-2.02,0,-5.88,0,-3.87,0,-2.05,0,-3.97,0 l-5.69,0 c-0.57,0,-1.38,0,-2.37,0,-0.99,0,-2.12,0,-3.31,0 l-7.8,0,-3.97,0,-3.93,0 c-0.55,0,-1.22,0,-1.99,0 l0.04,0,-1.85,0,0.03,0,-3.84,0,0.04,0,-1.95,0,0.06,0,-1.91,0,-0.04,0 c-0.51,0,-1,0,-1.36,0,-0.37,0,-0.58,0,-0.59,0 l1.89,0 c-0.75,0,-1.41,0,-1.99,0,0.06,0,0.07,0,0.04,0,0.09,0,0.1,0,0.03,0 l-1.92,0 c0.18,0,0.19,0,0.04,0 l0.06,0 a9.29,0,0,0,1,-1.78,0 l-4.07,0,-1.92,0,0.04,0,-1.95,0,-0.04,0,-3.86,0,-0.04,0,-5.81,0,-1.95,0,0.03,0,-5.79,0 c-1.12,0,-1.83,0,-1.98,0 l-1.92,0,-1.91,0 c0.17,0,0.18,0,0.03,0 l-1.89,0,-1.81,0,-1.92,0,-0.07,0,-0.03,0 c-0.16,0,-0.19,0,-0.07,0,-1.27,0,-2.55,0,-3.83,0,0.07,0,0.09,0,0.03,0 l-3.83,0,-1.92,0,0.07,0,-1.92,0,-0.03,0,-0.04,0 c-0.76,0,-1.52,0,-2.2,0 a5.1,0,0,0,1,-1.6,0 c0.38,0,0.43,0,0.17,0,-0.29,0,-0.62,0,-0.96,0 l-8.6,0,-9.55,0,-7.67,0 c-3.83,0,-3.9,0,-5.85,0 a17.71,0,0,0,1,-5.82,0 l-7.77,0,-5.75,0 c-1.92,0,-3.96,0,-7.83,0,-3.87,0,-1.92,0,-3.8,0,-0.15,0,-0.14,0,0.03,0,0.17,0,0.18,0,0.03,0 l0.04,0,-1.92,0,-0.03,0,-0.04,0,-4,0,-5.65,0,-1.88,0,0.03,0,-1.92,0,0.1,0,-3.83,0,-0.04,0,-1.85,0,0.03,0,-1.95,0 c0.07,0,0.08,0,0.04,0,-0.1,0,-0.76,0,-1.85,0,-1.78,0,-5.32,0,-5.33,0,-0.02,0,-1.41,0,-2.1,0 l-2.29,0,-1.89,0 c0.12,0,0.13,0,0.04,0 l0.06,0 a5.36,0,0,0,1,-1.98,0 l-3.8,0 s-9.59,0,-17.49,0 l-0.03,0,-3.84,0,-7.7,0,-13.42,0 c0.17,0,0.19,0,0.03,0,0.4,0,0.43,0,0.1,0 l-6.71,0 c-0.52,0,-1.56,0,-1.58,0,-0.01,0,-1.37,0,-2.04,0 l-5.04,0,-0.06,0,-1.79,0,-3.64,0,-3.83,0,0.03,0 c-0.08,0,-0.05,0,0.07,0 l-1.95,0,0.03,0,-1.95,0,0.03,0,-1.92,0,0.04,0,-1.85,0,-1.95,0,-1.95,0,-0.14,0 a5.36,0,0,0,1,-1.98,0 c-1.26,0,-2.56,0,-3.83,0 l-2.56,0,-1.55,0,-5.48,0,0.03,0,-1.95,0 c-0.17,0,-0.18,0,-0.03,0 l-3.83,0,0.06,0,0.1,0,-1.92,0,-1.95,0,0.1,0,-15.4,0,-2.08,0,-1.92,0,-0.03,0,-3.84,0,-3.87,0 c0.12,0,0.13,0,0.04,0 l-1.95,0,-0.04,0 a27.27,0,0,0,1,-3.9,0 c0.12,0,0.13,0,0.04,0 l0.06,0,-4.84,0,-1.47,0,0.46,0,-1.88,0,-1.95,0,-6.53,0,2.45,0,0.18,0,-0.04,0,-0.03,0,-6.12,0 c-0.19,0,-0.37,0,0.4,0 l-0.03,0,-0.03,0,-0.04,0,-3.46,0,-1.93,0,-2.28,0 a0.64,0,0,0,1,-0.03,0 c0.12,0,0.1,0,-0.06,0 l-0.04,0 a4.7,0,0,0,1,-1.88,0 l-0.03,0,-1.92,0,0.03,0,-1.92,0,-7.6,0,-9.36,0,-7.47,0,-9.78,0 c-2.16,0,-6.43,0,-6.31,0,0.11,0,-5.7,0,-8.62,0 l-4.11,0 c-0.1,0,-0.09,0,0.03,0,-1.82,0,-3.7,0,-7.54,0,-3.83,0,-1.95,0,-5.88,0 l-5.85,0 c-1.95,0,-3.84,0,-5.72,0,-1.88,0,0.2,0,-1.62,0,-1.82,0,-1.89,0,-3.8,0 l-7.61,0 a53.3,0,0,0,1,-5.85,0 l-4.06,0,-2.05,0,-1.92,0,0.03,0,-1.85,0,-0.06,0,-0.04,0,-3.86,0,-2.24,0,-9.24,0 c-0.6,0,-1.8,0,-1.81,0 l-0.07,0,-1.88,0,-0.07,0,-1.95,0,1.85,0,-1.91,0 c-1.13,0,-2.39,0,-3.77,0,-0.07,0,-0.06,0,0.03,0,-1.85,0,0.1,0,-7.6,0,-2.04,0,-4.02,0,-5.79,0,-0.26,0,-0.74,0,-1.4,0 l-5.12,0,-2.51,0 c-1.34,0,-4.11,0,-4.53,0,-0.41,0,-3.06,0,-4.33,0 l-3.35,0,-3.35,0,-7.64,0,1.98,0 c0.35,0,0.37,0,0.07,0,-0.75,0,-2.27,0,-2.3,0,-0.03,0,-1.56,0,-1.57,0,-0.02,0,-1.64,0,-2.45,0 l-0.38,0,-8.54,0,-3.67,0 c-1.95,0,-5.46,0,-7.38,0 l-5.52,0 c-1.85,0,-5.78,0,-7.76,0 l-3.94,0,-0.03,0 c-0.43,0,-1.06,0,-1.85,0 l0.03,0,1.92,0,-3.8,0,-0.04,0,-0.33,0,-1.58,0,-1.89,0 c-0.18,0,-0.2,0,-0.06,0,-0.11,0,-0.13,0,-0.07,0,0.48,0,1.1,0,1.85,0 l-1.04,0,-6.7,0 a4.42,0,0,0,1,-1.98,0 l-1.91,0,0.03,0 c1.95,0,0.03,0,-1.89,0 l-0.06,0 a5.33,0,0,0,1,-1.98,0 l-1.92,0,0.06,0,-1.94,0,-1.89,0,2.02,0,-1.99,0,-0.85,0,-4,0,-8.73,0,-5.88,0,-2.05,0,-5.69,0 c-0.57,0,-1.39,0,-2.38,0,-0.98,0,-2.12,0,-3.3,0,-3.84,0,-7.74,0,-9.72,0 l-3.97,0,-2.02,0 c-0.55,0,-1.21,0,-1.98,0,0.07,0,-1.92,0,-1.88,0 l-1.89,0,-1.85,0,0.03,0,-1.91,0,-0.04,0,-1.85,0,-1.95,0 c-0.17,0,-0.27,0,-0.27,0,0,0,0.08,0,0.24,0 l-0.03,0,-0.04,0 c-0.5,0,-1.14,0,-1.88,0 l-1.92,0 c0.18,0,0.19,0,0.03,0 l0.07,0,-2.09,0,0.1,0,-2.2,0,-1.01,0,-2.54,0,-0.03,0,-0.03,0,-1.95,0 c0,0,-0.22,0,-0.59,0,-0.36,0,-0.85,0,-1.36,0,-0.07,0,-0.06,0,0.03,0 l-1.92,0,-0.03,0,-5.85,0 c0.04,0,-1.82,0,-1.88,0 l-3.87,0,-1.92,0,-3.87,0,-3.8,0,-1.91,0 a8.06,0,0,0,1,-1.99,0 c-1.27,0,-2.55,0,-3.83,0,0.07,0,0.08,0,0.03,0 l-1.92,0,0.04,0,-1.92,0,-2.94,0 s-1.04,0,-1.17,0 c0,0,0.08,0,0.24,0,-0.76,0,-1.52,0,-2.2,0,-0.68,0,-1.24,0,-1.6,0 l-1.3,0 c-0.28,0,-0.87,0,-0.97,0,-0.14,0,-1.49,0,-1.5,0,-0.01,0,-0.3,0,-0.45,0 l-1.52,0,0.58,0,-1.54,0,-0.77,0,-1.92,0,-7.63,0,-9.6,0 c-3.83,0,-1.97,0,-3.92,0 a17.7,0,0,0,1,-5.82,0 c-3.84,0,-3.9,0,-7.77,0 l-7.67,0 c-1.92,0,-2.05,0,-5.91,0,-3.87,0,-1.92,0,-5.72,0 l-1.95,0,-0.04,0,-1.98,0 c-1.24,0,-2.53,0,-3.87,0 l-0.7,0,-4.82,0,0.03,0,-1.88,0,-1.92,0,-1.95,0,0.07,0,-1.89,0 c-0.1,0,-0.76,0,-1.85,0,-1.02,0,-2.9,0,-2.95,0 l-4.96,0,0.93,0,-2.7,0,-0.04,0,-1.88,0 c0.12,0,0.13,0,0.03,0 l0.04,0,-1.89,0 c-0.23,0,-0.26,0,-0.06,0 l-1.89,0 s-11.5,0,-19.4,0 l0.03,0,-3.83,0,-7.7,0,-11.5,0 c0.16,0,0.17,0,0.02,0,-0.21,0,-0.83,0,-1.82,0 l-1.94,0 c-0.24,0,-0.22,0,0.06,0 l-0.47,0,-1.55,0 c-1.95,0,-1.85,0,-3.73,0,-0.14,0,-0.12,0,0.06,0 l1.95,0,-1.88,0,1.95,0 c-1.85,0,-1.95,0,-3.93,0 l-0.07,0,-0.07,0,-1.88,0,-3.9,0,-3.75,0,-3.62,0,-1.95,0,-1.89,0 c-0.08,0,-0.06,0,0.07,0 l-1.92,0,-1.95,0,0.03,0,0.04,0,-1.92,0,-1.85,0,-4.1,0 c-1.88,0,-3.86,0,-5.75,0 a65.2,0,0,0,1,-7.67,0 c-0.64,0,-1.28,0,-1.92,0 l0.03,0,-1.94,0,-3.87,0,1.95,0,0.03,0,-1.92,0,2.02,0,0.03,0 c-1.88,0,-1.95,0,-1.95,0 l-1.91,0,-1.86,0,-1.98,0 a5.32,0,0,0,1,-1.98,0 l-1.92,0,1.95,0,-1.88,0,0.03,0,-1.99,0,-1.88,0,-0.03,0,-1.85,0,-0.04,0,-0.03,0,-1.95,0,-1.95,0,-0.07,0,-1.91,0,-1.95,0,-3.84,0,-1.95,0 a7.2,0,0,0,1,-1.88,0 l-1.95,0,-0.04,0 a26.81,0,0,0,1,-3.9,0 l0.04,0,0.03,0,0.03,0,-1.91,0,-1.95,0 c-0.17,0,-0.25,0,-0.24,0,0,0,0.1,0,0.27,0 l-1.92,0,-2.01,0,0.03,0,0.03,0,0.07,0,-2.08,0 c-0.01,0,-0.22,0,-0.59,0,-0.36,0,-0.86,0,-1.36,0 l-1.95,0,-1.96,0 c-0.28,0,-0.61,0,-0.95,0,-0.33,0,-0.3,0,-0.59,0,0.17,0,-0.1,0,-0.1,0,0,0,-0.08,0,-0.24,0 l0.03,0,-1.95,0,-0.03,0 c-0.03,0,1.98,0,1.88,0 l-1.91,0,-1.95,0,-0.03,0,-1.89,0 c0.07,0,0.08,0,0.03,0 l-1.91,0,-1.95,0 a0.63,0,0,0,1,-0.04,0 c0.12,0,0.1,0,-0.06,0 l-3.84,0,-1.91,0,-7.58,0,-9.38,0,-7.48,0,-9.78,0,-1.92,0,0.04,0 c-0.72,0,-1.37,0,-1.95,0 l-3.8,0,-0.04,0,-3.83,0,0.03,0 c0.38,0,0.43,0,0.16,0,-1.17,0,-1.86,0,-2.01,0 l-0.04,0,-0.03,0,-1.88,0 c-0.7,0,-1.33,0,-1.89,0 l0.07,0 c-1.82,0,-3.7,0,-7.54,0,-3.83,0,-1.95,0,-5.88,0 l-5.85,0 c-3.87,0,-1.92,0,-5.72,0,-3.8,0,-3.57,0,-3.5,0,0.06,0,-1.86,0,-3.8,0 l-7.64,0 a53.82,0,0,0,1,-3.9,0 c-3.87,0,-1.99,0,-4,0,0.09,0,0.1,0,0.03,0 l-2.02,0,-2.08,0,0.1,0,-1.98,0,0.03,0,-1.95,0,-1.95,0,-1.95,0 s-1.98,0,-1.92,0 l0.04,0 c-1.89,0,-5.72,0,-5.89,0 l-1.85,0 c0.28,0,0.3,0,0.07,0 L351.46,0 l-2.58,0,-0.06,0 c-0.4,0,-1.1,0,-1.95,0,-0.5,0,-1.13,0,-1.85,0 a1,0,0,0,1,.03,0 c-1.85,0,0.1,0,-7.6,0,-2.05,0,-4.02,0,-5.79,0,0.1,0,-0.22,0,-0.9,0,-0.67,0,-1.67,0,-2.83,0 l0.06,0,-1.98,0,0.13,0,-1.92,0,-1.82,0 c-1.88,0,-0.16,0,-2.08,0 l-0.7,0,-3.44,0,-1.58,0,-0.03,0,-0.03,0,-1.89,0,-1.91,0 c0.06,0,0.07,0,0.03,0,0.16,0,0.19,0,0.06,0 l-1.88,0,0.03,0,-1.95,0,0.04,0,-1.92,0,-0.03,0,-0.04,0 a7.2,0,0,0,1,-1.95,0 l-0.03,0,-1.85,0,-1.79,0,1.99,0 c0.09,0,0.1,0,0.03,0,-0.22,0,-0.84,0,-1.82,0 l-1.92,0 c-0.05,0,-0.04,0,0.03,0,0.07,0,1.92,0,1.96,0,0.02,0,-2.73,0,-3.1,0 l-4.57,0,-0.07,0 v0,0.04 c-0.13,0,-5.55,0,-5.69,0 l-1.66,0 c-1.85,0,-2.04,0,-3.99,0 l-5.45,0,-7.41,0 c-1.85,0,-5.79,0,-5.89,0 a26.7,0,0,0,1,-3.9,0 l-0.03,0,-1.95,0 c0.18,0,0.2,0,0.07,0 l-1.85,0,-1.92,0,0.03,0,-1.95,0 c-0.18,0,-0.2,0,-0.06,0,-0.11,0,-0.13,0,-0.07,0,-0.14,0,-0.16,0,-0.07,0 l-5.78,0 c-1.64,0,-2.99,0,-3.9,0 l-1.85,0,-1.98,0 a5.33,0,0,0,1,-1.99,0 l0.07,0,-5.75,0,-0.04,0,-1.85,0,-0.03,0,-0.03,0,-0.04,0 c-0.63,0,-1.28,0,-1.91,0 l0.06,0 c-1.13,0,-1.84,0,-1.98,0 l-5.82,0 c-3.87,0,-3.97,0,-5.92,0 l-3.93,0,-3.8,0 c-0.57,0,-1.39,0,-2.38,0,-0.98,0,-2.12,0,-3.3,0,-1.9,0,-3.87,0,-7.77,0 l-3.97,0,-3.97,0 a32.1,0,0,0,1,-1.95,0 c0.07,0,-0.03,0,-1.88,0 l0.1,0,-3.84,0,0.04,0,-1.99,0,0.1,0,-1.92,0,-0.03,0 c-0.5,0,-1,0,-1.36,0,-0.37,0,-0.58,0,-0.59,0 l-0.12,0,-1.83,0,0.07,0 a7.7,0,0,0,1,-1.76,0 l0.04,0,0.03,0,-4.03,0,-2.05,0,0.06,0,-1.94,0,-1.96,0,-1.91,0,-0.03,0,-1.96,0,-0.03,0,-0.03,0,-1.89,0,-1.88,0,-0.07,0,-3.83,0,-1.95,0 s-1.95,0,-1.88,0 l-1.92,0 c-0.18,0,-0.27,0,-0.28,0,0,0,0.08,0,0.25,0,0.1,0,-3.25,0,-3.87,0 l-2.97,0,-0.77,0,-1.92,0,-1.28,0,1.19,0 a8.94,0,0,0,1,-1.99,0 l-3.83,0 c0.07,0,0.08,0,0.03,0 l0.03,0,-1.91,0,-1.89,0,-0.06,0,-1.85,0,0.03,0,-1.98,0,-0.04,0 c-0.76,0,-1.53,0,-2.2,0,-0.68,0,-1.24,0,-1.6,0 l0.03,0,-1.72,0 a6.3,0,0,0,1,-2.05,0 l0.04,0,-3.74,0,-1.92,0,-7.63,0,-9.59,0 c-3.83,0,-2.01,0,-3.96,0,-0.92,0,-2.1,0,-3.44,0 a27.46,0,0,0,1,-4.3,0 l-5.82,0,-7.67,0,-7.83,0 c-1.95,0,-1.92,0,-3.8,0 l-3.97,0,-3.9,0,-1.91,0,0.03,0,-1.95,0,-3.05,0,3.18,0,0.03,0 c0.07,0,-1.95,0,-1.88,0,0.03,0,0.04,0,0.03,0 l0.07,0,-3.84,0,-1.92,0,-1.85,0,-0.03,0 c-0.56,0,-1.2,0,-1.88,0,-0.1,0,-0.76,0,-1.86,0,-0.37,0,-1.04,0,-1.88,0 l-3.9,0,-0.03,0 c-0.73,0,-1.4,0,-1.99,0 l0.04,0,-3.8,0 c0.11,0,0.12,0,0.03,0 z"/>
</svg>