<svg xmlns="http://www.w3.org/2000/svg" viewBox="0 0 1920 100" preserveAspectRatio="none">
    <path
            to-d="M1920,93.84 V0 H0 V60.44 c1.2,-0.1,2.42,-0.16,3.65,-0.16,0.73,-0.02,1.42,-0.11,2,-0.26,0.93,-0.28,2.14,-0.43,3.38,-0.43 h1.46 a14,14,0,0,1,3.42,-0.37 c0.62,-0.14,1.34,-0.22,2.08,-0.22,0.73,-0.02,1.46,-0.02,2.19,0,1.22,-0.02,2.42,-0.11,3.53,-0.29 h0.73 l4.08,0.52 c0.42,0.08,0.84,0.18,1.27,0.25,0.45,0.06,0.93,0.11,1.42,0.14,1.46,0.04,2.92,0.04,4.38,0,1.23,0,2.44,-0.13,3.46,-0.36,0.6,-0.15,1.33,-0.22,2.07,-0.22 H45 c1.23,0,2.44,-0.11,3.46,-0.34,0.62,-0.14,1.34,-0.21,2.08,-0.22 h2.92 c1,-0.02,1.94,-0.16,2.69,-0.38,0.56,-0.16,1.26,-0.25,2,-0.26 l4.42,-0.06 c0.99,0,1.96,-0.1,2.76,-0.3 a15,15,0,0,1,3.46,-0.35 c0.5,0,0.98,-0.03,1.43,-0.1,0.61,-0.12,1.26,-0.27,1.92,-0.36,0.65,-0.1,1.38,-0.16,2.03,-0.26,0.82,-0.18,1.67,-0.35,2.54,-0.5,0.94,-0.1,1.81,-0.25,2.58,-0.46,0.38,-0.1,0.83,-0.18,1.3,-0.22,0.6,-0.05,1.13,-0.15,1.55,-0.3,0.42,-0.14,0.7,-0.33,0.8,-0.53 a5.7,5.7,0,0,1,2.65,0.14 c0.3,0.13,0.57,0.26,0.8,0.4,0.07,0.06,0.18,0.1,0.31,0.14 a3.02,3.02,0,0,1,1.42,-0.04 l1.66,-0.47 c1.11,-0.33,1.96,-0.75,2.46,-1.22,0.27,-0.26,0.96,-0.34,1.69,-0.4 h0.73 c0.98,0,1.94,-0.1,2.77,-0.27,1.02,-0.23,2.23,-0.35,3.45,-0.34 h3.85 c0.98,0,1.92,-0.13,2.65,-0.35,0.8,-0.19,1.75,-0.3,2.73,-0.32 h2.96 c0.49,-0.02,0.96,-0.08,1.34,-0.18,0.96,-0.26,1.85,-0.54,2.8,-0.8,0.92,-0.29,1.58,-0.65,1.93,-1.04,0.17,-0.16,0.48,-0.29,0.9,-0.38,0.4,-0.08,0.88,-0.13,1.37,-0.12 h2.96 c0.72,-0.02,1.41,-0.1,2,-0.26,0.8,-0.19,1.77,-0.3,2.76,-0.3 h2.2 c0.97,0,1.92,-0.1,2.76,-0.28,0.77,-0.21,1.73,-0.32,2.73,-0.32 H139 c1,-0.01,1.96,-0.12,2.77,-0.31,0.98,-0.25,2.19,-0.38,3.42,-0.37 h5.88 c0.74,0.02,1.44,0.11,2.03,0.26,0.38,0.1,0.79,0.2,1.23,0.26 a13.8,13.8,0,0,1,4.23,-0.11 c0.92,-0.28,1.8,-0.56,2.77,-0.82,0.58,-0.16,1.3,-0.25,2.04,-0.26 h1.42 c0.21,0.18,0.58,0.34,1.06,0.44 a18.04,18.04,0,0,1,3.08,0.15 c0.5,0,0.98,-0.06,1.35,-0.17,0.77,-0.21,1.46,-0.44,2.2,-0.66 a9.4,9.4,0,0,1,1.95,-0.33 c0.97,-0.07,1.82,-0.25,2.43,-0.52,0.3,-0.13,0.73,-0.22,1.03,-0.35,1.16,-0.44,3.2,0,3.38,0.42 a0.2,0.2,0,0,1,0,0.24 c-0.03,0.08,-0.12,0.15,-0.26,0.21,-1.04,0.52,-2.54,0.83,-3.58,1.3,-0.47,0.19,-0.76,0.42,-0.8,0.67,0,0.12,0.1,0.24,0.3,0.34,0.2,0.1,0.48,0.18,0.8,0.23 a17.8,17.8,0,0,1,2.2,0 c0.74,0.01,1.47,-0.07,2.04,-0.23 l1.57,-0.52 c0.92,-0.29,1.35,-0.25,2.38,0.1,1.04,0.35,1.62,0.34,2.12,-0.08,0.22,-0.23,0.59,-0.45,1.07,-0.63,0.3,-0.13,0.63,-0.25,0.97,-0.36 l3.84,-1.18 c0.53,-0.17,1.22,-0.28,1.96,-0.3 l3.84,-0.09 c0.5,-0.01,0.96,-0.08,1.3,-0.2 l2.28,-0.63 c0.73,-0.22,1.67,-0.34,2.65,-0.35 h0.73 a8.7,8.7,0,0,1,2.61,-0.39 c0.5,-0.18,1.08,-0.35,1.58,-0.52,0.72,-0.22,1.6,-0.39,2.57,-0.46,0.49,-0.03,0.94,-0.11,1.31,-0.22,0.76,-0.2,1.66,-0.35,2.61,-0.42,0.48,-0.04,0.92,-0.12,1.27,-0.24,0.76,-0.21,1.47,-0.44,2.15,-0.68,0.52,-0.17,1.2,-0.28,1.93,-0.3,0.48,-0.02,0.97,-0.02,1.46,0,0.98,-0.04,1.92,-0.17,2.69,-0.38,0.37,-0.1,0.82,-0.18,1.3,-0.2,1.27,-0.06,2.16,-0.4,3.3,-0.53,0.72,-0.06,1.46,-0.1,2.2,-0.11,0.72,-0.02,1.42,-0.11,2,-0.26,0.95,-0.27,2.14,-0.42,3.38,-0.44 a12.5,12.5,0,0,1,3.34,-0.46 c0.66,-0.1,1.39,-0.16,2.12,-0.15,0.98,-0.02,1.96,0.05,2.84,0.2 a5.07,5.07,0,0,1,2,0 c0.43,-0.07,0.88,-0.14,1.34,-0.19,1.16,-0.13,2.26,-0.3,3.3,-0.5 a12.76,12.76,0,0,1,4.24,0 c0.41,0.09,0.73,0.22,0.92,0.37,0.7,0.45,0.88,0.45,2.15,0.17,0.63,-0.13,1.23,-0.27,1.8,-0.43,0.58,-0.16,1.3,-0.25,2.04,-0.26 h2.93 c0.99,0,1.93,-0.14,2.65,-0.37,1.27,-0.49,2.7,-0.92,4.26,-1.3 a6.23,6.23,0,0,1,2.12,-0.11,7.1,7.1,0,001.61,-0.28,2.55,2.55,0,011.04,0.08 c0.57,-0.15,1.23,-0.27,1.77,-0.44,1.05,-0.33,2.4,-0.52,3.84,-0.54,0.49,-0.01,0.96,-0.07,1.34,-0.17,0.39,-0.1,0.67,-0.24,0.81,-0.4,0.4,-0.4,1.19,-0.73,2.23,-0.95,0.28,-0.07,0.62,-0.12,0.98,-0.12 s0.7,0.05,0.98,0.12 c0.56,0.16,1,0.36,1.3,0.59,0.31,0.22,0.47,0.46,0.47,0.7,0.03,0.09,0.12,0.16,0.26,0.23,0.13,0.07,0.3,0.12,0.52,0.16 a4.12,4.12,0,0,1,1.37,0.03 c0.24,-0.02,0.47,-0.05,0.7,-0.09 l0.69,-0.06 c1.45,-0.1,2.97,0,4.22,0.27,0.79,0.2,1.75,0.3,2.73,0.3 h13.99 c0.74,0,1.46,-0.08,2.08,-0.22,0.99,-0.25,2.19,-0.38,3.42,-0.38,1.46,-0.06,2.95,-0.06,4.42,-0.06,0.74,-0.02,1.43,-0.12,1.96,-0.3 l0.61,-0.14 c0.39,-0.1,0.83,-0.17,1.3,-0.21,0.96,-0.09,1.83,-0.25,2.54,-0.48,0.35,-0.12,0.77,-0.2,1.12,-0.32 a8.7,8.7,0,0,1,2.61,-0.4 h11.76 c1.25,0,2.46,0.13,3.5,0.36,0.6,0.13,1.3,0.21,2.04,0.23 h1.46 c0.72,0.05,1.4,0.14,2.03,0.27 a12.2,12.2,0,0,1,2.77,0.27 H377.94 a9,9,0,0,1,2,0.29 c0.76,0.21,1.7,0.33,2.7,0.35 h8.1 c1,0,1.95,0.12,2.73,0.32,0.36,0.11,0.8,0.19,1.27,0.22,0.73,0.03,1.46,0.1,2.19,0.1,0.74,0,1.45,0.09,2.04,0.24,0.82,0.18,1.71,0.31,2.65,0.4,0.47,0.06,0.9,0.15,1.27,0.26,1.06,0.33,2.05,0.68,3.07,1.04 h0.04 c0.82,0.32,1.91,0.53,3.11,0.62,0.49,0.04,0.94,0.1,1.35,0.2,0.95,0.27,2.15,0.4,3.38,0.4 a12.8,12.8,0,0,1,2.69,0.37 l0.58,0.14 c0.4,0.1,0.88,0.15,1.38,0.17,2.94,0.05,5.9,0.05,8.84,0,0.99,0,1.94,-0.12,2.69,-0.34,0.55,-0.16,1.23,-0.27,1.96,-0.3,1.23,-0.1,2.46,-0.1,3.65,-0.1,0.5,0,0.97,-0.06,1.38,-0.15,0.67,-0.19,1.46,-0.32,2.3,-0.38,0.84,-0.05,1.72,-0.04,2.55,0.04,0.33,0.04,0.63,0.11,0.85,0.2,0.23,0.1,0.37,0.21,0.41,0.33,-0.07,0.25,-0.24,0.5,-0.5,0.73,-0.34,0.36,-0.26,0.44,0.62,0.55,0.88,0.15,1.74,0.3,2.57,0.48,0.44,0.08,0.9,0.13,1.39,0.14,1.38,0.08,2.61,0.08,3.84,0.08,0.5,0.01,0.98,0.07,1.38,0.17,0.75,0.22,1.6,0.39,2.5,0.5,0.95,0.1,1.82,0.26,2.54,0.49,0.15,0.05,0.58,0.14,0.58,0.14,0.2,-0.15,0.51,-0.28,0.92,-0.38,1.34,-0.35,2.46,-0.8,3.3,-1.3,0.27,-0.13,0.45,-0.28,0.54,-0.43,0.27,-0.25,0.96,-0.3,1.7,-0.15 l1.18,0.28 c1,0.11,1.87,0.33,2.46,0.63,0.24,0.12,0.36,0.26,0.35,0.4 l0.46,0.9 c0.92,0.27,1.23,0.36,1.23,0.57 l0.23,0.73 c0.08,0.17,0.32,0.32,0.68,0.43,0.37,0.1,0.83,0.17,1.32,0.18 H477.52 c0.74,-0.01,1.45,-0.09,2.08,-0.22,0.59,-0.15,1.23,-0.28,1.92,-0.37,0.92,-0.1,1.78,-0.26,2.54,-0.47,0.59,-0.14,1.3,-0.23,2.03,-0.23 h2.96 c0.73,0,1.44,-0.09,2.04,-0.24,0.77,-0.19,1.54,-0.4,2.27,-0.62,0.75,-0.2,1.63,-0.35,2.57,-0.44,0.46,-0.05,0.88,-0.2,1.34,-0.2 a5.91,5.91,0,0,1,2.08,0 c0.83,0.18,1.79,0.28,2.77,0.28,1.45,0.05,2.92,0.05,4.38,0,0.36,0,0.72,-0.03,1.03,-0.1,0.32,-0.06,0.57,-0.15,0.74,-0.26 l0.57,-0.46 c0.15,-0.09,0.35,-0.16,0.6,-0.23 a4.94,4.94,0,0,1,1.7,-0.15 c0.31,0.02,0.6,0.06,0.86,0.11 l0.61,0.13 c0.59,0.15,1.25,0.25,1.96,0.31,0.46,0.04,0.9,0.12,1.27,0.22,0.95,0.26,1.87,0.53,2.76,0.82 a7.28,7.28,0,0,1,2,0.26 c1.47,0,2.9,0.16,4.08,0.45,0.45,0.07,0.93,0.12,1.42,0.14 h2.92 c0.98,0,1.93,-0.1,2.73,-0.28,0.82,-0.19,1.78,-0.3,2.77,-0.3,1.22,0,2.41,-0.14,3.42,-0.37 a5.1,5.1,0,0,1,2.01,-0.1 c0.45,0.07,0.8,0.2,0.98,0.34,0.13,0.16,0.22,0.32,0.27,0.48,0.12,0.33,0.42,0.64,0.89,0.93,0.25,0.24,0.25,0.5,0,0.73 l0.57,0.45 c0.15,0.11,0.39,0.21,0.69,0.28,0.3,0.07,0.64,0.11,1,0.12,2.62,0.12,5.3,0.04,7.96,0.12,0.47,-0.18,1.11,-0.3,1.81,-0.33,0.7,-0.04,1.42,0,2.03,0.12,1,0.14,1.08,0.13,2.5,0.02 l0.2,-0.02 c0.22,-0.02,0.46,-0.02,0.69,0,1.1,0.19,2.22,0.35,3.38,0.48 a7.1,7.1,0,0,1,1.23,0.27,6.96,6.96,0,011.96,-0.29 c1.38,0.09,2.61,0.09,3.84,0.09,0.37,0,0.73,0.04,1.02,0.12,0.3,0.07,0.52,0.18,0.63,0.3 a0.7,0.7,0,0,1,.27,0.21 c0.2,0.2,0.53,0.37,0.94,0.52,0.42,0.15,0.93,0.27,1.48,0.35,0.24,0.03,0.5,0.03,0.73,0,0.73,0,1.73,-0.05,2.16,0,0.42,0.05,0.8,0.23,1.26,0.23 a6.52,6.52,0,0,1,2.12,0 l1.34,-0.2 a3.7,3.7,0,0,1,1.35,0 c1,0.24,1.74,0.6,2.07,1,0.15,0.15,0.44,0.3,0.85,0.39,0.4,0.1,0.89,0.14,1.38,0.14 h5.15 c0.74,0,1.44,0.1,2,0.26 a47,47,0,0,1,2.15,0.67,3.55,3.55,0,011.39,0 c0.83,-0.17,1.63,-0.36,2.38,-0.57 a4.18,4.18,0,0,1,2,-0.06 c0.81,0.18,1.78,0.29,2.76,0.3,0.99,-0.02,1.97,0.03,2.89,0.15,0.57,0.09,0.69,0.24,0.34,0.36 a7.2,7.2,0,0,1,-1.15,0.29 c-0.29,0.07,-0.48,0.18,-0.53,0.3,-0.05,0.13,0.04,0.26,0.26,0.36,0.27,0.09,0.7,0.11,1.23,0,0.4,-0.1,0.87,-0.16,1.35,-0.19,0.36,-0.01,0.72,0,1.06,0.05,0.34,0.04,0.64,0.12,0.86,0.21 l0.77,0.43 c0.07,0.06,0.17,0.1,0.3,0.15 a3.5,3.5,0,0,1,1.5,0.02 c0.2,-0.03,0.39,-0.13,0.62,-0.13 a5.26,5.26,0,0,1,2.47,0.18 c0.18,0.08,0.31,0.17,0.37,0.27,0.12,0.25,0.39,0.5,0.39,0.74,0.11,0.12,0.36,0.22,0.68,0.27,0.32,0.06,0.7,0.07,1.05,0.04,1.26,-0.08,1.26,-0.08,1.76,0.2,0.89,0.45,0.97,0.51,1.46,0.45 l1.31,-0.2 a15,15,0,0,1,3.58,-0.09 c0.24,0.02,0.47,0.06,0.65,0.12 a0.77,0.77,0,0,1,.38,0.2 c0.23,0.32,0.39,0.66,0.58,0.98,0.09,0.12,0.28,0.22,0.54,0.3,0.27,0.08,0.6,0.14,0.96,0.15 a7.8,7.8,0,0,1,2.07,-0.15 c0.79,-0.2,1.74,-0.32,2.73,-0.33,1.22,0,2.42,-0.11,3.5,-0.3,0.22,-0.05,0.45,-0.08,0.7,-0.1,0.23,0.01,0.45,0.04,0.65,0.1,1.42,0.32,3.3,0.3,4.64,0.7 a25,25,0,0,1,1.39,0.16 l3.65,0.1 c0.48,0,0.94,0.07,1.3,0.18,0.36,0.11,0.6,0.26,0.7,0.42,0.27,0.25,0.27,0.5,0.27,0.74,0.06,0.08,0.13,0.16,0.23,0.23 a4.95,4.95,0,0,1,3.5,0.55 l1.38,-0.17 a6,6,0,0,1,1.05,0.03 c0.34,0.04,0.64,0.1,0.87,0.2,0.12,0.08,0.22,0.15,0.3,0.23,0.62,0.5,0.85,0.56,2.04,0.4,0.88,-0.15,1.84,-0.24,2.81,-0.27,0.98,0,1.94,-0.09,2.8,-0.24,0.85,-0.13,1.31,-0.07,1.85,0.2,0.33,0.21,0.78,0.41,1.3,0.59,0.65,0.11,1.32,0.2,2,0.28 a12.69,12.69,0,0,1,3.3,0.45 H679.07 c0.48,0.02,0.95,0.06,1.38,0.12 a8.18,8.18,0,0,1,3.46,0,6.5,6.5,0,002.73,-0.12 l2.3,0.6 a3.8,3.8,0,0,1,1.97,0.07 c0.76,-0.21,1.74,-0.32,2.73,-0.3 h2.23 a9,9,0,0,1,2.65,0.37,7.2,7.2,0,011.96,-0.3 h7.49 a12.55,12.55,0,0,1,2.65,0.37 c0.85,0.18,1.89,0.2,2.73,0.36 l1.92,0.35 h1.46 c0.25,-0.02,0.47,-0.06,0.66,-0.11 l2.88,-0.77 a4.98,4.98,0,0,1,1.73,-0.12 c0.3,0.02,0.58,0.06,0.83,0.13,0.24,0.06,0.44,0.14,0.6,0.23,0.1,0.07,0.19,0.15,0.26,0.23,0.13,0.11,0.34,0.21,0.62,0.3 a4.74,4.74,0,0,1,1.69,0.15 h3.84 a14.5,14.5,0,0,1,4.07,0.47,6.1,6.1,0,013.27,0.16 l0.62,-0.14 a5.8,5.8,0,0,1,2.76,0 c0.73,0.2,1.42,0.44,2.15,0.66 a4.97,4.97,0,0,1,1.96,0.14,8.56,8.56,0,002.77,-0.15 c1.12,0.17,2.39,0.2,3.58,0.09,0.47,-0.05,0.9,-0.14,1.19,-0.28 l0.76,-0.42 c0.08,-0.06,0.2,-0.1,0.34,-0.14 a2.6,2.6,0,0,1,1,-0.04 c0.17,0.02,0.32,0.05,0.43,0.1 l1.08,0.35 a7.97,7.97,0,0,1,2.46,0.5 c0.72,0.05,1.4,0.15,2,0.3,0.79,0.2,1.75,0.3,2.73,0.29,0.99,0.02,1.97,-0.07,2.8,-0.25 l0.62,-0.12 a6.99,6.99,0,0,1,2.76,0 c0.58,0.16,1.25,0.28,1.96,0.34,0.71,0.07,1.46,0.09,2.2,0.05,0.48,0.01,0.96,-0.03,1.38,-0.11,1.06,-0.19,2.2,-0.32,3.38,-0.4,0.58,-0.04,1.2,-0.38,1.38,-0.52,0.2,-0.15,0.43,-0.3,0.66,-0.44,0.15,-0.06,0.34,-0.11,0.56,-0.15 a4.58,4.58,0,0,1,1.93,0.15 c0.26,0.14,0.49,0.29,0.7,0.44,0.22,0.19,0.63,0.35,1.16,0.45,0.53,0.1,1.15,0.15,1.76,0.12 h0.73 c0.37,0,0.74,-0.05,1.04,-0.12,0.3,-0.08,0.51,-0.19,0.61,-0.31 l0.46,-0.71 c0.27,-0.37,0.89,-0.53,2.2,-0.37,0.91,0.13,1.89,0.19,2.88,0.19,0.73,0,1.45,-0.07,2.07,-0.2,0.81,-0.19,1.7,-0.33,2.65,-0.43,0.71,-0.06,1.35,-0.19,1.85,-0.37,0.53,-0.18,1.11,-0.34,1.65,-0.5,0.69,-0.24,1.6,-0.38,2.57,-0.4,1.24,-0.03,2.43,-0.16,3.46,-0.38,0.82,-0.19,1.79,-0.28,2.77,-0.26 h11.22 c2.16,-0.03,2.37,-0.03,3.3,-0.68,0.31,-0.2,1.2,-0.22,1.9,-0.06,0.63,0.12,1.23,0.27,1.8,0.43 a13.82,13.82,0,0,1,4.15,0.26 c0.71,-0.06,1.41,-0.14,2.07,-0.25 a3.3,3.3,0,0,1,1.39,0,8.17,8.17,0,013.42,-0.05 c1.02,-0.23,2.23,-0.35,3.46,-0.35 h7.38 a14,14,0,0,1,3.38,-0.4 c0.6,-0.15,1.3,-0.23,2.03,-0.25,2.2,-0.05,4.41,-0.05,6.61,0,0.75,0.01,1.48,0.08,2.12,0.21 a7.25,7.25,0,0,1,2.76,0 c0.9,-0.14,1.87,-0.21,2.85,-0.22,0.74,-0.02,1.45,-0.1,2.08,-0.23,1,-0.24,2.12,-0.42,3.3,-0.52,1.38,-0.34,3.05,-0.53,4.76,-0.53,0.75,-0.03,1.43,-0.15,1.93,-0.34,0.69,-0.23,1.42,-0.45,2.15,-0.67,0.18,-0.06,0.39,-0.1,0.61,-0.14 l0.66,-0.1 c1.15,-0.14,2.24,-0.32,3.26,-0.54,0.45,-0.07,0.94,-0.1,1.43,-0.09 h9.57 c1.23,0.03,2.45,-0.1,3.46,-0.34,0.4,-0.1,0.84,-0.16,1.3,-0.22,1.18,-0.12,2.26,-0.32,3.2,-0.6,0.18,-0.04,0.39,-0.08,0.6,-0.1,1.2,-0.12,2.31,-0.3,3.31,-0.54,0.62,-0.14,1.38,-0.14,2.04,-0.26,0.65,-0.12,1.23,-0.27,1.88,-0.38,0.45,-0.06,0.91,-0.12,1.38,-0.16 a8,8,0,0,1,1.81,-0.4 c0.5,-0.19,1.04,-0.37,1.58,-0.54,0.52,-0.17,1.2,-0.3,1.92,-0.35,0.96,-0.06,1.83,-0.23,2.5,-0.48,0.53,-0.16,1.11,-0.32,1.61,-0.5,0.58,-0.15,1.27,-0.25,2,-0.27 l1.46,-0.08 c0.74,-0.02,1.43,-0.12,2,-0.28 a8,8,0,0,1,2,-0.3 c2.68,-0.1,5.38,-0.1,8.07,0,0.33,0.05,0.62,0.12,0.87,0.2,0.24,0.1,0.43,0.2,0.55,0.32 a0.6,0.6,0,0,1,0,0.25 v0.5 l2.3,0.09 h0.74 c1.21,-0.04,2.37,-0.2,3.34,-0.44,0.57,-0.17,1.29,-0.26,2.04,-0.26 h0.73 a12,12,0,0,1,2.69,-0.35 c0.96,-0.29,2.46,-0.31,3.26,-0.52,0.81,-0.2,1.54,-0.43,2.27,-0.65,0.54,-0.16,1.16,-0.29,1.85,-0.37,0.7,-0.07,1.36,-0.18,1.96,-0.33,0.23,-0.05,0.38,-0.15,0.57,-0.15,0.63,-0.13,1.34,-0.2,2.08,-0.22 h6.6 a9.9,9.9,0,0,1,2.66,0.35,5.85,5.85,0,011.67,-0.22 c0.62,0,1.22,-0.08,1.67,-0.22 l1.27,-0.26 a5.9,5.9,0,0,1,2.08,0 c0.42,0.09,0.77,0.2,1.19,0.3,0.6,0.13,1.3,0.2,2.04,0.22,0.6,0.03,1.22,0.01,1.82,-0.04,0.59,-0.06,1.13,-0.16,1.6,-0.3,0.15,-0.07,0.35,-0.12,0.57,-0.16,1.16,-0.13,2.27,-0.3,3.3,-0.51,0.7,-0.24,1.47,-0.43,2.2,-0.65 a7.22,7.22,0,0,1,2.76,-0.07 c1,0.25,2.14,0.41,3.35,0.5,0.58,0.14,1.2,0.27,1.84,0.38 a7.65,7.65,0,0,1,2.81,-0.07 c0.79,-0.2,1.52,-0.41,2.19,-0.65,0.56,-0.16,1.21,-0.28,1.92,-0.34,0.47,-0.04,0.91,-0.12,1.27,-0.23,0.35,-0.12,0.62,-0.26,0.77,-0.42,0.28,-0.31,0.78,-0.6,1.46,-0.84,1.18,-0.41,2.1,-0.9,2.73,-1.44,0.19,-0.1,0.47,-0.19,0.81,-0.24 a5.4,5.4,0,0,1,2.06,0.09 c0.29,0.07,0.53,0.16,0.7,0.27,1.97,0.1,3.98,0.06,5.92,-0.09,0.19,-0.1,0.45,-0.19,0.75,-0.25,0.31,-0.07,0.66,-0.1,1.02,-0.11 h1.46 c0.49,0,0.97,0.05,1.36,0.15,0.4,0.1,0.69,0.23,0.83,0.4 l0.27,0.23 c0.3,0.31,0.91,0.59,1.73,0.77,0.73,0.2,1.04,0.18,1.61,-0.2,0.19,-0.14,0.47,-0.28,0.82,-0.4,0.35,-0.1,0.76,-0.2,1.22,-0.25,0.94,-0.1,1.8,-0.28,2.5,-0.52,0.36,-0.11,0.74,-0.21,1.15,-0.3 V42 c-0.05,-0.22,-0.26,-0.44,-0.62,-0.63,-0.2,-0.13,-0.37,-0.27,-0.49,-0.4,-0.23,-0.14,-0.31,-0.3,-0.24,-0.46,0.04,-0.07,0.13,-0.15,0.27,-0.2,0.13,-0.07,0.3,-0.12,0.5,-0.16,0.2,0.04,0.37,0.1,0.5,0.15 a0.66,0.66,0,0,1,.27,0.21 c0.12,0.15,0.12,0.3,0,0.46,1.28,0.24,2.35,0.6,3.11,1.02,0.26,0.14,0.63,0.25,1.08,0.3 a0.51,0.51,0,0,1,0,-0.24 c0.02,-0.16,0.14,-0.32,0.35,-0.47,0.21,-0.15,0.51,-0.28,0.88,-0.38 a4.35,4.35,0,0,1,1.27,-0.18 c0.23,0.01,0.45,0.05,0.61,0.1,0.17,0.07,0.28,0.14,0.31,0.22,0.19,0.23,0.31,0.48,0.5,0.71,0.13,0.12,0.35,0.22,0.63,0.3,0.29,0.07,0.63,0.12,0.99,0.13 h5.11 c0.97,0,1.91,0.1,2.73,0.29 a4.56,4.56,0,0,1,1.38,0.1 c0.46,-0.07,0.96,-0.06,1.41,0,0.45,0.07,0.81,0.19,1.01,0.34 a3.23,3.23,0,0,1,1.46,0.51 c0.22,0.02,0.46,0.03,0.69,0.02,0.25,0.01,0.5,0,0.72,-0.05 a0.9,0.9,0,0,1,.44,-0.2 c0.26,-0.22,0.53,-0.45,0.84,-0.67,0.14,-0.07,0.33,-0.13,0.54,-0.17 a46,46,0,0,1,2.61,-0.4 c0.8,-0.2,1.57,-0.4,2.31,-0.62 a3.85,3.85,0,0,1,1.34,-0.06 c0.88,0.13,1.8,0.24,2.73,0.33,1,0.06,1.69,0.32,2.58,0.44,0.21,0.04,0.45,0.07,0.69,0.09,1.94,0.06,3.9,0.06,5.84,0,0.73,-0.03,1.42,-0.12,2,-0.27,1.57,-0.35,2.84,-0.86,4.27,-1.3 a7.5,7.5,0,0,1,1.99,-0.26 c1.69,-0.06,3.42,-0.06,5.12,-0.06,0.73,-0.02,1.44,-0.11,2.03,-0.26,0.81,-0.19,1.75,-0.3,2.73,-0.33 h1.42 c0.5,-0.01,0.97,-0.08,1.35,-0.19,1.16,-0.3,2.23,-0.64,3.19,-1.01 l1.04,-0.35 a8.3,8.3,0,0,1,3.38,-0.16 c0.6,0.13,1.23,0.25,1.88,0.35 a5.23,5.23,0,0,1,2.04,-0.11 c1.5,-0.42,2.96,-0.84,4.38,-1.3,0.57,-0.15,1.22,-0.27,1.92,-0.35,0.69,-0.08,1.32,-0.2,1.88,-0.36,0.79,-0.2,1.72,-0.3,2.69,-0.34 h0.73 v-0.94 a0.91,0.91,0,0,1,0,-0.23 c0.13,-0.1,0.34,-0.2,0.62,-0.25,0.01,-0.1,0.07,-0.19,0.19,-0.27 a0.46,0.46,0,0,1,0,0.23 c0.2,0.04,0.37,0.1,0.51,0.15 a0.79,0.79,0,0,1,.3,0.21 c0.33,0.38,0.24,0.79,-0.27,1.14,0.15,0.16,0.26,0.32,0.34,0.48,0.08,0.26,0.32,0.5,0.71,0.73,0.38,0.22,0.9,0.42,1.52,0.57 a9.13,9.13,0,0,1,2,0.28 c0.73,0.02,1.46,0.02,2.19,0 h2.92 c0.75,0.01,1.46,0.1,2.04,0.26 l2.77,0.82 c0.57,0.16,1.3,0.24,2.04,0.22 h8.07 c1.23,0,2.42,0.17,3.3,0.46,0.54,0.16,1.15,0.31,1.69,0.48,0.36,0.12,0.82,0.18,1.31,0.2,0.73,0.02,1.46,0.11,2.15,0.11,0.37,0.02,0.72,0.07,1.02,0.14,0.3,0.07,0.54,0.17,0.71,0.28,0.41,0.39,0.95,0.76,1.61,1.1,0.26,0.14,0.41,0.3,0.43,0.47,0.1,0.49,-0.18,0.99,-0.81,1.43,0.01,0.08,0.1,0.15,0.24,0.21,0.15,0.06,0.35,0.1,0.57,0.12,0.73,0.06,1.46,0.14,2.15,0.14 a6.78,6.78,0,0,1,1.92,0.34 l3.08,1.06 c0.89,0.28,1.81,0.56,2.76,0.81 a6.62,6.62,0,0,1,1.96,0.29 c1.48,0,2.91,0.18,4.08,0.48,1.15,0.3,2.73,0.35,3.84,0.68,0.38,0.1,0.85,0.17,1.35,0.17 l2.19,0.08 c0.61,0.03,0.99,0.12,1.69,0.42 l2.76,0.1 h0.7 c0.59,0,1.16,0.08,1.59,0.21,0.43,0.14,0.68,0.33,0.71,0.53,0.15,0.38,0.24,0.77,0.27,1.16 l3.65,0.07 c1.48,0.05,2.96,-0.08,4.15,-0.38,0.4,-0.1,0.89,-0.16,1.39,-0.17,1.45,-0.07,2.93,-0.07,4.38,0,0.24,0.01,0.48,0.04,0.69,0.08,1.21,0.28,2.31,0.6,3.3,0.97 a4.05,4.05,0,0,1,1.46,0.84 c0.35,0.37,0.54,0.45,1.39,0.54 a14,14,0,0,1,3.11,0.62 l1.08,0.33 c0.3,0.14,0.7,0.24,1.15,0.3,1.31,0.2,2.6,0.42,3.84,0.66,1.15,0.13,2.25,0.31,3.27,0.53,0.41,0.1,0.87,0.15,1.35,0.17,0.71,0.07,1.36,0.2,1.92,0.37,0.73,0.22,1.38,0.47,2.11,0.68,0.34,0.12,0.76,0.2,1.23,0.25 a8.45,8.45,0,0,1,1.61,0.28 c0.46,0.13,0.82,0.3,1.04,0.5,0.1,0.11,0.3,0.22,0.57,0.3,0.28,0.08,0.61,0.14,0.97,0.16 l2.19,0.13 c0.48,0.03,0.93,0.1,1.31,0.2 l0.57,0.16 c0.95,0.26,1.66,0.6,2.04,1 a0.79,0.79,0,0,1,.32,0.22,4.58,4.58,0,011.99,-0.17 l1.38,-0.18 c0.46,-0.06,0.96,-0.06,1.42,0 a4.8,4.8,0,0,1,1.58,0.49,0.67,0.67,0,00.31,-0.22 c0.15,0.22,0.38,0.43,0.38,0.63,0.75,-0.19,1.68,-0.28,2.61,-0.25,0.73,-0.01,1.45,0.03,2.12,0.13,0.22,0.03,0.41,0.08,0.56,0.14,0.16,0.06,0.27,0.14,0.32,0.22,0.27,0.47,2.27,2.65,2,3.13,0.58,-0.05,1.05,0.04,1.53,-0.08 a5,5,0,0,1,1.2,-0.44 v-0.53 c-0.11,-0.06,-0.16,-0.14,-0.16,-0.22,0,-0.07,0.05,-0.15,0.16,-0.22,0.18,-0.1,0.43,-0.17,0.72,-0.23,0.3,-0.05,0.63,-0.08,0.97,-0.08 h1.34 c0.23,0.01,0.46,0.04,0.65,0.08 s0.35,0.1,0.47,0.17 c0.45,0.06,0.89,0.13,1.31,0.22,0.86,0.15,1.84,0.2,2.8,0.17,0.72,0,1.44,-0.07,2,-0.22 l1.15,-0.3 c0.06,-0.12,0.23,-0.24,0.49,-0.32,0.27,-0.09,0.61,-0.15,0.97,-0.16,1.31,-0.27,2.08,-0.3,3.27,0,0.76,0.22,1.67,0.36,2.65,0.43 l2.15,0.11 c0.49,0.04,0.93,0.11,1.31,0.22 a7.75,7.75,0,0,1,2,0.26 h12.68 c0.99,0.02,1.94,0.12,2.77,0.3,0.82,0.18,1.78,0.27,2.77,0.27 h11.6 a15.7,15.7,0,0,1,3.5,-0.3 c0.84,-0.17,1.73,-0.3,2.65,-0.41 l1.92,-0.38 a16.58,16.58,0,0,1,4.96,0.13,6.17,6.17,0,012.08,0.1 c0.53,-0.17,0.92,-0.25,1.61,-0.5,0.69,-0.24,1.42,-0.46,2.15,-0.68,0.18,-0.05,0.41,-0.08,0.66,-0.08,0.24,0,0.47,0.03,0.65,0.08,1.27,0.25,2.19,0.66,3.5,0.9 a4.58,4.58,0,0,1,1.42,0 c0.45,-0.07,0.86,-0.16,1.23,-0.26,0.52,-0.18,1.22,-0.28,1.96,-0.3,0.98,-0.02,1.97,-0.02,2.96,0,0.99,0,1.96,0.1,2.73,0.32,0.97,0.26,2.18,0.39,3.42,0.36 h1.46 c0.73,0,1.46,-0.06,2.11,-0.18,0.88,-0.15,1.58,-0.49,2.54,-0.49,0.93,-0.1,1.82,-0.26,2.61,-0.45,0.65,-0.12,1.38,-0.18,2.11,-0.17,0.98,-0.02,1.95,0.06,2.81,0.2 a4.34,4.34,0,0,1,2.08,0,10.12,10.12,0,004.11,0,3.1,3.1,0,011.38,0 c1.11,-0.18,2.07,-0.45,2.81,-0.78,0.22,-0.3,0.74,-0.58,1.46,-0.78,0.34,-0.11,0.76,-0.19,1.23,-0.22,0.54,-0.16,1.16,-0.28,1.84,-0.36 a7.93,7.93,0,0,1,2.12,0.1 c1.21,0.27,2.09,0.69,2.46,1.17,0.26,0.35,1.26,0.36,2.3,0.11 l0.62,-0.14,1.11,-0.31 c0.58,-0.16,1.08,-0.14,1.88,0.06,0.82,0.18,1.56,0.4,2.19,0.64,0.44,0.2,1.02,0.35,1.7,0.45,0.22,0.02,0.46,0.02,0.69,0,0.61,0.02,0.88,-0.09,0.88,-0.3,0.11,-0.43,0.11,-0.86,0,-1.3,-0.03,-0.24,-0.27,-0.48,-0.69,-0.68,-0.54,-0.27,-0.5,-0.3,0.27,-0.66,0.77,-0.36,1.5,-0.41,2.38,-0.2,0.93,0.26,1.91,0.5,2.92,0.73 a8.34,8.34,0,0,1,2.12,0 l0.57,-0.14,1.19,-0.28 c0.07,-0.25,0.24,-0.49,0.5,-0.72 l0.27,-0.23 c0.13,-0.07,0.31,-0.12,0.52,-0.16 a3.84,3.84,0,0,1,1.35,-0.01 c0.19,0.04,0.32,0.12,0.36,0.2 a0.83,0.83,0,0,1,0,0.97 c-0.11,0.2,-0.5,0.35,-1.38,0.52,-1.19,0.49,-2.65,0.94,-3.85,1.47 a0.78,0.78,0,0,1,-0.34,0.22 c-0.1,0.08,-0.15,0.16,-0.15,0.24,0,0.08,0.05,0.16,0.15,0.23,0.11,0.06,-0.27,0.22,0.46,0.14,0.73,-0.08,1.46,-0.14,2.15,-0.08,0.69,0.07,1.35,0.18,2.04,0.25 a6.63,6.63,0,0,1,2.11,-0.1 c0.36,-0.12,0.82,-0.18,1.31,-0.18,0.48,0,0.95,0.06,1.31,0.18,0.59,0.14,1.14,0.3,1.65,0.48,0.65,0.24,1.38,0.46,2.07,0.7 a3.1,3.1,0,0,1,1.23,0.23 c1.47,0.08,2.95,0.1,4.42,0.08,1.48,-0.03,2.95,0.1,4.19,0.37 a9.96,9.96,0,0,1,2.08,0.22 c1.23,0,2.43,0.13,3.42,0.38,0.82,0.18,1.78,0.28,2.77,0.28 h1.46 c0.49,0.01,0.98,0.03,1.46,0.07,0.49,0.02,0.96,0.08,1.38,0.16,1.16,0.31,2.61,0.46,4.07,0.43,0.99,0,1.97,0.03,2.92,0.1,0.24,0.03,0.47,0.07,0.66,0.12,0.76,0.2,1.5,0.43,2.19,0.66 a63.5,63.5,0,0,1,3.84,1.2,6.7,6.7,0,012.04,-0.16 c0.86,-0.17,1.82,-0.26,2.8,-0.27,2.94,-0.06,5.87,-0.06,8.81,0,0.48,0.02,0.93,0.1,1.26,0.22,0.34,0.12,0.54,0.28,0.58,0.44 v0.74 c0,0.17,0.07,0.33,0.19,0.5,0.16,0.15,0.39,0.3,0.69,0.42,0.12,0.09,0.43,0.09,0.66,0.09,0.69,0.08,1.42,0.13,2.15,0.13,0.98,0.04,1.87,0.2,2.5,0.47,0.72,0.22,1.19,0.52,1.3,0.85 v0.25 c0.27,0.62,0.7,0.62,2.39,0.62,0.35,-0.03,0.72,-0.03,1.07,0,0.35,0.04,0.66,0.11,0.89,0.2,0.34,0.1,0.77,0.21,1.11,0.33,0.7,0.23,1.61,0.37,2.58,0.41 h1.5 a7.6,7.6,0,0,1,1.92,0.34,5.29,5.29,0,002.07,-1,3.6,3.6,0,011.19,-0.6 c0.75,0.34,1.78,0.59,2.96,0.72,0.47,0.05,0.9,0.13,1.27,0.23,0.96,0.26,1.88,0.53,2.88,0.77 a7.05,7.05,0,0,1,3.39,-0.15 c0.62,-0.13,1.33,-0.2,2.07,-0.22 a13.78,13.78,0,0,1,3.5,0.28 c0.37,0.1,0.82,0.17,1.31,0.2 l2.19,0.12 c0.48,0,0.94,0.07,1.32,0.17,0.38,0.1,0.66,0.24,0.79,0.4,0.18,0.24,0.5,0.47,0.96,0.66,1.14,0.43,2.43,0.81,3.84,1.14,0.43,0.08,0.93,0.1,1.4,0.06,0.47,-0.03,0.89,-0.12,1.18,-0.25 l0.31,-0.24 c0.3,-0.31,0.91,-0.58,1.73,-0.76 a4.2,4.2,0,0,1,3.07,0.17 c0.46,0.14,0.74,0.33,0.81,0.54,0.06,0.2,-0.1,0.41,-0.46,0.58,-0.12,0.07,-0.39,0.13,-0.39,0.21 l-0.34,0.22 c-0.15,0.11,-0.2,0.24,-0.17,0.36 s0.16,0.24,0.36,0.34 c0.15,0.07,0.34,0.12,0.56,0.16,0.22,0.03,0.46,0.06,0.71,0.06 h3.69 a8.06,8.06,0,0,1,1.96,0.29 c0.53,0.18,1.11,0.32,1.69,0.49,0.37,0.1,0.84,0.16,1.32,0.16,0.49,0,0.96,-0.06,1.33,-0.16 l1.73,-0.47 c0.08,-0.03,0.19,-0.05,0.3,-0.07 a2.51,2.51,0,0,1,1,0.07 l1.77,0.44 c0.58,0.14,0.96,0.43,1.69,0.47,0.73,0.04,1.46,0.11,2.19,0.11,0.97,0.04,1.9,0.16,2.69,0.35,0.61,0.14,1.29,0.25,2,0.3,0.7,0.08,1.33,0.2,1.85,0.38 a23.3,23.3,0,0,1,1.77,0.45 c0.43,0.08,0.93,0.11,1.42,0.1,0.19,0,0.38,-0.12,0.61,-0.12,0.86,-0.18,1.85,-0.25,2.85,-0.22,0.61,0,1.21,0.05,1.76,0.14 a6.99,6.99,0,0,1,1.43,0.37 c0.86,0.3,1.36,0.7,1.38,1.12 v0.99 c0.11,0.24,0.43,0.47,0.92,0.65,0.47,0.2,0.97,0.37,1.5,0.55,0.74,0.22,1.2,0.53,1.31,0.86,0.03,0.17,0.09,0.33,0.19,0.5,0.08,0.24,0.38,0.48,0.85,0.67,0.57,0.27,0.89,0.59,0.92,0.92 a0.9,0.9,0,0,1,.19,0.5 c0.09,0.15,0.29,0.3,0.58,0.43,0.93,0.38,2.01,0.73,3.19,1.03,0.37,0.1,0.8,0.18,1.27,0.24,0.92,0.1,1.78,0.27,2.53,0.48,1.02,0.24,2.28,0.33,3.5,0.26,0.49,0,0.97,-0.06,1.38,-0.14,0.97,-0.26,2.04,-0.46,3.19,-0.6,0.93,-0.13,1.83,-0.29,2.69,-0.47 a5.16,5.16,0,0,1,1.39,0.04 c0.21,0.04,0.4,0.1,0.55,0.15 a0.92,0.92,0,0,1,.33,0.22 c0.14,0.32,-0.06,0.66,-0.58,0.94,-0.07,0.04,-0.12,0.08,-0.13,0.12,-0.02,0.04,-0.01,0.08,0.03,0.12 a0.51,0.51,0,0,1,.2,0.1 c0.1,0.03,0.21,0.05,0.33,0.06,1.14,0.13,2.24,0.3,3.26,0.52,1.12,0.17,2.21,0.35,3.27,0.56 a2.95,2.95,0,0,1,1.34,0 l0.62,-0.14 c0.58,-0.16,1.15,-0.31,1.69,-0.48,0.56,-0.17,1.24,-0.28,1.96,-0.33,0.47,-0.03,0.92,-0.1,1.31,-0.2,0.94,-0.27,2.14,-0.41,3.38,-0.4,1.23,-0.01,2.42,-0.17,3.34,-0.45,0.38,-0.1,0.86,-0.16,1.35,-0.16 a8.08,8.08,0,0,1,2,0.28 c0.18,0.05,0.35,0.12,0.5,0.18,0.38,0.1,0.7,0.23,0.93,0.38,0.22,0.15,0.35,0.31,0.37,0.48 v0.49 c0.05,0.16,0.24,0.32,0.57,0.44,0.33,0.12,0.76,0.2,1.24,0.23,0.48,0.04,0.97,0.07,1.46,0.08,0.98,0.04,1.91,0.16,2.69,0.36 a8.98,8.98,0,0,1,2.08,0.22 h11.76 c1.22,0,2.43,0.11,3.45,0.34,1.07,0.2,2.33,0.28,3.54,0.2,0.24,0.02,0.49,0.02,0.73,0 l1.92,0.02 c0.43,-0.08,0.88,-0.13,1.35,-0.17,0.71,-0.06,1.38,-0.18,1.96,-0.34,0.19,-0.11,0.42,-0.11,0.65,-0.11 a8.27,8.27,0,0,1,2.77,0.11 c1.46,0.4,2.84,0.86,4.34,1.3,0.35,0.12,0.79,0.2,1.27,0.23 a7.15,7.15,0,0,1,2.07,-0.17 c0.97,-0.14,1.31,-0.1,1.81,0.16,0.52,0.47,1.5,0.86,2.77,1.11,0.38,0.1,0.83,0.18,1.3,0.21,0.71,0.07,1.38,0.19,1.96,0.34,0.8,0.2,1.75,0.3,2.73,0.32 h1.62 c2,0.01,2,0.01,4.72,-0.53 a6.8,6.8,0,0,1,2.08,0.08 l2.19,0.66 c0.2,0.05,0.42,0.09,0.65,0.12 a4.02,4.02,0,0,1,1.39,0 c0.83,-0.18,1.57,-0.4,2.19,-0.67,0.53,-0.16,1.23,-0.26,1.96,-0.28 h1.46 c0.98,-0.02,1.91,-0.15,2.65,-0.36 a14.67,14.67,0,0,1,4.96,0 c0.98,0.25,2.19,0.37,3.42,0.35,0.99,0,1.96,-0.08,2.84,-0.24 a4.35,4.35,0,0,1,1.96,0 l0.69,0.1 a17.84,17.84,0,0,1,4.27,-0.1 l2.88,-0.77 c0.37,-0.12,0.82,-0.19,1.31,-0.21,1.45,-0.08,2.93,-0.08,4.38,0,0.48,0.04,0.95,0.1,1.38,0.18 a11.1,11.1,0,0,1,2.85,0,5.24,5.24,0,001.38,-0.08,4.1,4.1,0,011.39,0 c0.57,-0.08,1.2,-0.09,1.8,-0.04,0.6,0.05,1.14,0.17,1.54,0.32,0.35,0.12,0.77,0.2,1.11,0.33 a7.06,7.06,0,0,1,2.04,0.24 h7.34 c0.36,0.01,0.71,0.06,1.01,0.12,0.3,0.07,0.55,0.16,0.72,0.27 a4.63,4.63,0,0,1,2.35,1.23,14.7,14.7,0,016.18,0.13 c0.42,-0.08,0.9,-0.13,1.39,-0.14,1.23,-0.01,2.46,-0.08,3.65,-0.08,0.74,-0.02,1.45,-0.12,2,-0.3,0.55,-0.16,1.25,-0.26,1.99,-0.28 l3.66,-0.1 a8,8,0,0,1,1.38,-0.17 c0.57,-0.16,1.2,-0.28,1.88,-0.36,1.16,-0.13,2.27,-0.3,3.31,-0.52 a15.9,15.9,0,0,1,3.58,-0.09 c0.71,0.06,1.37,0.17,1.95,0.32,0.41,0.1,0.89,0.15,1.39,0.16,1.46,0.07,2.96,-0.02,4.26,-0.26 a3.69,3.69,0,0,1,1.38,0,59.4,59.4,0,004.35,-1.3,7.7,7.7,0,012.03,-0.24 c1.72,0.05,3.44,0.05,5.15,0,0.73,-0.04,1.41,-0.14,1.96,-0.3,0.57,-0.16,1.27,-0.26,2,-0.28 l2.92,-0.1 c1,0.02,1.98,-0.09,2.73,-0.3,0.8,-0.2,1.75,-0.31,2.73,-0.33,1.24,-0.01,2.44,-0.14,3.46,-0.38,0.62,-0.13,1.34,-0.2,2.08,-0.2 h2.22 c1.24,0,2.44,-0.14,3.42,-0.4 a6.62,6.62,0,0,1,2.04,-0.19 c1.49,-0.01,2.91,-0.2,4.04,-0.53,0.41,-0.09,0.9,-0.12,1.38,-0.1 a3.12,3.12,0,0,1,1.58,0.44 c0.19,0.16,0.34,0.31,0.57,0.47,0.22,0.09,0.51,0.16,0.84,0.2 a6,6,0,0,1,1.05,0.06 c0.47,-0.05,0.93,-0.1,1.38,-0.17,0.42,-0.07,0.81,-0.18,1.27,-0.25 a14.36,14.36,0,0,1,4.88,0.23 c0.61,0.14,1.31,0.23,2.04,0.25 h5.15 c0.73,0,1.43,0.09,1.99,0.25 l2.27,0.64 c0.49,0.13,1.08,0.2,1.69,0.2,0.61,0,1.21,-0.07,1.69,-0.2,0.23,-0.04,0.39,-0.14,0.58,-0.14 a7.36,7.36,0,0,1,2.77,-0.1,11.75,11.75,0,013.53,-0.14 c0.21,-0.03,0.45,-0.03,0.66,0,0.46,0.06,0.88,0.2,1.34,0.2,0.5,0.03,1,0,1.47,-0.05,0.46,-0.06,0.88,-0.16,1.22,-0.28 l0.58,-0.14 a6.67,6.67,0,0,1,2.77,0 c0.78,0.2,1.69,0.33,2.65,0.4 a34,34,0,0,1,3.65,0 c0.49,-0.01,0.97,-0.06,1.38,-0.16,1.2,-0.3,2.63,-0.46,4.11,-0.48,0.49,0,0.97,-0.04,1.39,-0.12,1.29,-0.24,2.64,-0.44,4.03,-0.6 a12.38,12.38,0,0,1,3.31,-0.47 h8.11 c0.61,0,1.21,-0.06,1.7,-0.18 s0.84,-0.3,0.99,-0.5 c0.1,-0.08,0.21,-0.15,0.34,-0.22,0.12,-0.08,0.29,-0.14,0.49,-0.19,0.2,-0.05,0.43,-0.08,0.67,-0.1 l1.42,-0.08 c1,0,1.97,-0.1,2.77,-0.3,0.37,-0.1,0.78,-0.2,1.23,-0.25,1.18,-0.11,2.29,-0.3,3.26,-0.56,0.58,-0.15,1.31,-0.22,2.04,-0.2 h6.65 c0.48,-0.02,0.96,-0.06,1.42,-0.11 z"
            fill="#000000"
            duration="1"
            d="M1920,0 V0 H0 V0 c1.2,0,2.42,0,3.65,0,0.73,0,1.42,0,2,0,0.93,0,2.14,0,3.38,0 h1.46 a14,0,0,0,1,3.42,0 c0.62,0,1.34,0,2.08,0,0.73,0,1.46,0,2.19,0,1.22,0,2.42,0,3.53,0 h0.73 l4.08,0 c0.42,0,0.84,0,1.27,0,0.45,0,0.93,0,1.42,0,1.46,0,2.92,0,4.38,0,1.23,0,2.44,0,3.46,0,0.6,0,1.33,0,2.07,0 H45 c1.23,0,2.44,0,3.46,0,0.62,0,1.34,0,2.08,0 h2.92 c1,0,1.94,0,2.69,0,0.56,0,1.26,0,2,0 l4.42,0 c0.99,0,1.96,0,2.76,0 a15,0,0,0,1,3.46,0 c0.5,0,0.98,0,1.43,0,0.61,0,1.26,0,1.92,0,0.65,0,1.38,0,2.03,0,0.82,0,1.67,0,2.54,0,0.94,0,1.81,0,2.58,0,0.38,0,0.83,0,1.3,0,0.6,0,1.13,0,1.55,0,0.42,0,0.7,0,0.8,0 a5.7,0,0,0,1,2.65,0 c0.3,0,0.57,0,0.8,0,0.07,0,0.18,0,0.31,0 a3.02,0,0,0,1,1.42,0 l1.66,0 c1.11,0,1.96,0,2.46,0,0.27,0,0.96,0,1.69,0 h0.73 c0.98,0,1.94,0,2.77,0,1.02,0,2.23,0,3.45,0 h3.85 c0.98,0,1.92,0,2.65,0,0.8,0,1.75,0,2.73,0 h2.96 c0.49,0,0.96,0,1.34,0,0.96,0,1.85,0,2.8,0,0.92,0,1.58,0,1.93,0,0.17,0,0.48,0,0.9,0,0.4,0,0.88,0,1.37,0 h2.96 c0.72,0,1.41,0,2,0,0.8,0,1.77,0,2.76,0 h2.2 c0.97,0,1.92,0,2.76,0,0.77,0,1.73,0,2.73,0 H139 c1,0,1.96,0,2.77,0,0.98,0,2.19,0,3.42,0 h5.88 c0.74,0,1.44,0,2.03,0,0.38,0,0.79,0,1.23,0 a13.8,0,0,0,1,4.23,0 c0.92,0,1.8,0,2.77,0,0.58,0,1.3,0,2.04,0 h1.42 c0.21,0,0.58,0,1.06,0 a18.04,0,0,0,1,3.08,0 c0.5,0,0.98,0,1.35,0,0.77,0,1.46,0,2.2,0 a9.4,0,0,0,1,1.95,0 c0.97,0,1.82,0,2.43,0,0.3,0,0.73,0,1.03,0,1.16,0,3.2,0,3.38,0 a0.2,0,0,0,1,0,0 c-0.03,0,-0.12,0,-0.26,0,-1.04,0,-2.54,0,-3.58,0,-0.47,0,-0.76,0,-0.8,0,0,0,0.1,0,0.3,0,0.2,0,0.48,0,0.8,0 a17.8,0,0,0,1,2.2,0 c0.74,0,1.47,0,2.04,0 l1.57,0 c0.92,0,1.35,0,2.38,0,1.04,0,1.62,0,2.12,0,0.22,0,0.59,0,1.07,0,0.3,0,0.63,0,0.97,0 l3.84,0 c0.53,0,1.22,0,1.96,0 l3.84,0 c0.5,0,0.96,0,1.3,0 l2.28,0 c0.73,0,1.67,0,2.65,0 h0.73 a8.7,0,0,0,1,2.61,0 c0.5,0,1.08,0,1.58,0,0.72,0,1.6,0,2.57,0,0.49,0,0.94,0,1.31,0,0.76,0,1.66,0,2.61,0,0.48,0,0.92,0,1.27,0,0.76,0,1.47,0,2.15,0,0.52,0,1.2,0,1.93,0,0.48,0,0.97,0,1.46,0,0.98,0,1.92,0,2.69,0,0.37,0,0.82,0,1.3,0,1.27,0,2.16,0,3.3,0,0.72,0,1.46,0,2.2,0,0.72,0,1.42,0,2,0,0.95,0,2.14,0,3.38,0 a12.5,0,0,0,1,3.34,0 c0.66,0,1.39,0,2.12,0,0.98,0,1.96,0,2.84,0 a5.07,0,0,0,1,2,0 c0.43,0,0.88,0,1.34,0,1.16,0,2.26,0,3.3,0 a12.76,0,0,0,1,4.24,0 c0.41,0,0.73,0,0.92,0,0.7,0,0.88,0,2.15,0,0.63,0,1.23,0,1.8,0,0.58,0,1.3,0,2.04,0 h2.93 c0.99,0,1.93,0,2.65,0,1.27,0,2.7,0,4.26,0 a6.23,0,0,0,1,2.12,0,7.1,7.1,0,001.61,-0.28,2.55,2.55,0,011.04,0.08 c0.57,0,1.23,0,1.77,0,1.05,0,2.4,0,3.84,0,0.49,0,0.96,0,1.34,0,0.39,0,0.67,0,0.81,0,0.4,0,1.19,0,2.23,0,0.28,0,0.62,0,0.98,0 s0.7,0,0.98,0 c0.56,0,1,0,1.3,0,0.31,0,0.47,0,0.47,0,0.03,0,0.12,0,0.26,0,0.13,0,0.3,0,0.52,0 a4.12,0,0,0,1,1.37,0 c0.24,0,0.47,0,0.7,0 l0.69,0 c1.45,0,2.97,0,4.22,0,0.79,0,1.75,0,2.73,0 h13.99 c0.74,0,1.46,0,2.08,0,0.99,0,2.19,0,3.42,0,1.46,0,2.95,0,4.42,0,0.74,0,1.43,0,1.96,0 l0.61,0 c0.39,0,0.83,0,1.3,0,0.96,0,1.83,0,2.54,0,0.35,0,0.77,0,1.12,0 a8.7,0,0,0,1,2.61,0 h11.76 c1.25,0,2.46,0,3.5,0,0.6,0,1.3,0,2.04,0 h1.46 c0.72,0,1.4,0,2.03,0 a12.2,0,0,0,1,2.77,0 H377.94 a9,0,0,0,1,2,0 c0.76,0,1.7,0,2.7,0 h8.1 c1,0,1.95,0,2.73,0,0.36,0,0.8,0,1.27,0,0.73,0,1.46,0,2.19,0,0.74,0,1.45,0,2.04,0,0.82,0,1.71,0,2.65,0,0.47,0,0.9,0,1.27,0,1.06,0,2.05,0,3.07,0 h0.04 c0.82,0,1.91,0,3.11,0,0.49,0,0.94,0,1.35,0,0.95,0,2.15,0,3.38,0 a12.8,0,0,0,1,2.69,0 l0.58,0 c0.4,0,0.88,0,1.38,0,2.94,0,5.9,0,8.84,0,0.99,0,1.94,0,2.69,0,0.55,0,1.23,0,1.96,0,1.23,0,2.46,0,3.65,0,0.5,0,0.97,0,1.38,0,0.67,0,1.46,0,2.3,0,0.84,0,1.72,0,2.55,0,0.33,0,0.63,0,0.85,0,0.23,0,0.37,0,0.41,0,-0.07,0,-0.24,0,-0.5,0,-0.34,0,-0.26,0,0.62,0,0.88,0,1.74,0,2.57,0,0.44,0,0.9,0,1.39,0,1.38,0,2.61,0,3.84,0,0.5,0,0.98,0,1.38,0,0.75,0,1.6,0,2.5,0,0.95,0,1.82,0,2.54,0,0.15,0,0.58,0,0.58,0,0.2,0,0.51,0,0.92,0,1.34,0,2.46,0,3.3,0,0.27,0,0.45,0,0.54,0,0.27,0,0.96,0,1.7,0 l1.18,0 c1,0,1.87,0,2.46,0,0.24,0,0.36,0,0.35,0 l0.46,0 c0.92,0,1.23,0,1.23,0 l0.23,0 c0.08,0,0.32,0,0.68,0,0.37,0,0.83,0,1.32,0 H477.52 c0.74,0,1.45,0,2.08,0,0.59,0,1.23,0,1.92,0,0.92,0,1.78,0,2.54,0,0.59,0,1.3,0,2.03,0 h2.96 c0.73,0,1.44,0,2.04,0,0.77,0,1.54,0,2.27,0,0.75,0,1.63,0,2.57,0,0.46,0,0.88,0,1.34,0 a5.91,0,0,0,1,2.08,0 c0.83,0,1.79,0,2.77,0,1.45,0,2.92,0,4.38,0,0.36,0,0.72,0,1.03,0,0.32,0,0.57,0,0.74,0 l0.57,0 c0.15,0,0.35,0,0.6,0 a4.94,0,0,0,1,1.7,0 c0.31,0,0.6,0,0.86,0 l0.61,0 c0.59,0,1.25,0,1.96,0,0.46,0,0.9,0,1.27,0,0.95,0,1.87,0,2.76,0 a7.28,0,0,0,1,2,0 c1.47,0,2.9,0,4.08,0,0.45,0,0.93,0,1.42,0 h2.92 c0.98,0,1.93,0,2.73,0,0.82,0,1.78,0,2.77,0,1.22,0,2.41,0,3.42,0 a5.1,0,0,0,1,2.01,0 c0.45,0,0.8,0,0.98,0,0.13,0,0.22,0,0.27,0,0.12,0,0.42,0,0.89,0,0.25,0,0.25,0,0,0 l0.57,0 c0.15,0,0.39,0,0.69,0,0.3,0,0.64,0,1,0,2.62,0,5.3,0,7.96,0,0.47,0,1.11,0,1.81,0,0.7,0,1.42,0,2.03,0,1,0,1.08,0,2.5,0 l0.2,0 c0.22,0,0.46,0,0.69,0,1.1,0,2.22,0,3.38,0 a7.1,0,0,0,1,1.23,0,6.96,6.96,0,011.96,-0.29 c1.38,0,2.61,0,3.84,0,0.37,0,0.73,0,1.02,0,0.3,0,0.52,0,0.63,0 a0.7,0,0,0,1,.27,0 c0.2,0,0.53,0,0.94,0,0.42,0,0.93,0,1.48,0,0.24,0,0.5,0,0.73,0,0.73,0,1.73,0,2.16,0,0.42,0,0.8,0,1.26,0 a6.52,0,0,0,1,2.12,0 l1.34,0 a3.7,0,0,0,1,1.35,0 c1,0,1.74,0,2.07,0,0.15,0,0.44,0,0.85,0,0.4,0,0.89,0,1.38,0 h5.15 c0.74,0,1.44,0,2,0 a47,0,0,0,1,2.15,0,3.55,3.55,0,011.39,0 c0.83,0,1.63,0,2.38,0 a4.18,0,0,0,1,2,0 c0.81,0,1.78,0,2.76,0,0.99,0,1.97,0,2.89,0,0.57,0,0.69,0,0.34,0 a7.2,0,0,0,1,-1.15,0 c-0.29,0,-0.48,0,-0.53,0,-0.05,0,0.04,0,0.26,0,0.27,0,0.7,0,1.23,0,0.4,0,0.87,0,1.35,0,0.36,0,0.72,0,1.06,0,0.34,0,0.64,0,0.86,0 l0.77,0 c0.07,0,0.17,0,0.3,0 a3.5,0,0,0,1,1.5,0 c0.2,0,0.39,0,0.62,0 a5.26,0,0,0,1,2.47,0 c0.18,0,0.31,0,0.37,0,0.12,0,0.39,0,0.39,0,0.11,0,0.36,0,0.68,0,0.32,0,0.7,0,1.05,0,1.26,0,1.26,0,1.76,0,0.89,0,0.97,0,1.46,0 l1.31,0 a15,0,0,0,1,3.58,0 c0.24,0,0.47,0,0.65,0 a0.77,0,0,0,1,.38,0 c0.23,0,0.39,0,0.58,0,0.09,0,0.28,0,0.54,0,0.27,0,0.6,0,0.96,0 a7.8,0,0,0,1,2.07,0 c0.79,0,1.74,0,2.73,0,1.22,0,2.42,0,3.5,0,0.22,0,0.45,0,0.7,0,0.23,0,0.45,0,0.65,0,1.42,0,3.3,0,4.64,0 a25,0,0,0,1,1.39,0 l3.65,0 c0.48,0,0.94,0,1.3,0,0.36,0,0.6,0,0.7,0,0.27,0,0.27,0,0.27,0,0.06,0,0.13,0,0.23,0 a4.95,0,0,0,1,3.5,0 l1.38,0 a6,0,0,0,1,1.05,0 c0.34,0,0.64,0,0.87,0,0.12,0,0.22,0,0.3,0,0.62,0,0.85,0,2.04,0,0.88,0,1.84,0,2.81,0,0.98,0,1.94,0,2.8,0,0.85,0,1.31,0,1.85,0,0.33,0,0.78,0,1.3,0,0.65,0,1.32,0,2,0 a12.69,0,0,0,1,3.3,0 H679.07 c0.48,0,0.95,0,1.38,0 a8.18,0,0,0,1,3.46,0,6.5,6.5,0,002.73,-0.12 l2.3,0 a3.8,0,0,0,1,1.97,0 c0.76,0,1.74,0,2.73,0 h2.23 a9,0,0,0,1,2.65,0,7.2,7.2,0,011.96,-0.3 h7.49 a12.55,0,0,0,1,2.65,0 c0.85,0,1.89,0,2.73,0 l1.92,0 h1.46 c0.25,0,0.47,0,0.66,0 l2.88,0 a4.98,0,0,0,1,1.73,0 c0.3,0,0.58,0,0.83,0,0.24,0,0.44,0,0.6,0,0.1,0,0.19,0,0.26,0,0.13,0,0.34,0,0.62,0 a4.74,0,0,0,1,1.69,0 h3.84 a14.5,0,0,0,1,4.07,0,6.1,6.1,0,013.27,0.16 l0.62,0 a5.8,0,0,0,1,2.76,0 c0.73,0,1.42,0,2.15,0 a4.97,0,0,0,1,1.96,0,8.56,8.56,0,002.77,-0.15 c1.12,0,2.39,0,3.58,0,0.47,0,0.9,0,1.19,0 l0.76,0 c0.08,0,0.2,0,0.34,0 a2.6,0,0,0,1,1,0 c0.17,0,0.32,0,0.43,0 l1.08,0 a7.97,0,0,0,1,2.46,0 c0.72,0,1.4,0,2,0,0.79,0,1.75,0,2.73,0,0.99,0,1.97,0,2.8,0 l0.62,0 a6.99,0,0,0,1,2.76,0 c0.58,0,1.25,0,1.96,0,0.71,0,1.46,0,2.2,0,0.48,0,0.96,0,1.38,0,1.06,0,2.2,0,3.38,0,0.58,0,1.2,0,1.38,0,0.2,0,0.43,0,0.66,0,0.15,0,0.34,0,0.56,0 a4.58,0,0,0,1,1.93,0 c0.26,0,0.49,0,0.7,0,0.22,0,0.63,0,1.16,0,0.53,0,1.15,0,1.76,0 h0.73 c0.37,0,0.74,0,1.04,0,0.3,0,0.51,0,0.61,0 l0.46,0 c0.27,0,0.89,0,2.2,0,0.91,0,1.89,0,2.88,0,0.73,0,1.45,0,2.07,0,0.81,0,1.7,0,2.65,0,0.71,0,1.35,0,1.85,0,0.53,0,1.11,0,1.65,0,0.69,0,1.6,0,2.57,0,1.24,0,2.43,0,3.46,0,0.82,0,1.79,0,2.77,0 h11.22 c2.16,0,2.37,0,3.3,0,0.31,0,1.2,0,1.9,0,0.63,0,1.23,0,1.8,0 a13.82,0,0,0,1,4.15,0 c0.71,0,1.41,0,2.07,0 a3.3,0,0,0,1,1.39,0,8.17,8.17,0,013.42,-0.05 c1.02,0,2.23,0,3.46,0 h7.38 a14,0,0,0,1,3.38,0 c0.6,0,1.3,0,2.03,0,2.2,0,4.41,0,6.61,0,0.75,0,1.48,0,2.12,0 a7.25,0,0,0,1,2.76,0 c0.9,0,1.87,0,2.85,0,0.74,0,1.45,0,2.08,0,1,0,2.12,0,3.3,0,1.38,0,3.05,0,4.76,0,0.75,0,1.43,0,1.93,0,0.69,0,1.42,0,2.15,0,0.18,0,0.39,0,0.61,0 l0.66,0 c1.15,0,2.24,0,3.26,0,0.45,0,0.94,0,1.43,0 h9.57 c1.23,0,2.45,0,3.46,0,0.4,0,0.84,0,1.3,0,1.18,0,2.26,0,3.2,0,0.18,0,0.39,0,0.6,0,1.2,0,2.31,0,3.31,0,0.62,0,1.38,0,2.04,0,0.65,0,1.23,0,1.88,0,0.45,0,0.91,0,1.38,0 a8,0,0,0,1,1.81,0 c0.5,0,1.04,0,1.58,0,0.52,0,1.2,0,1.92,0,0.96,0,1.83,0,2.5,0,0.53,0,1.11,0,1.61,0,0.58,0,1.27,0,2,0 l1.46,0 c0.74,0,1.43,0,2,0 a8,0,0,0,1,2,0 c2.68,0,5.38,0,8.07,0,0.33,0,0.62,0,0.87,0,0.24,0,0.43,0,0.55,0 a0.6,0,0,0,1,0,0 v0 l2.3,0 h0.74 c1.21,0,2.37,0,3.34,0,0.57,0,1.29,0,2.04,0 h0.73 a12,0,0,0,1,2.69,0 c0.96,0,2.46,0,3.26,0,0.81,0,1.54,0,2.27,0,0.54,0,1.16,0,1.85,0,0.7,0,1.36,0,1.96,0,0.23,0,0.38,0,0.57,0,0.63,0,1.34,0,2.08,0 h6.6 a9.9,0,0,0,1,2.66,0,5.85,5.85,0,011.67,-0.22 c0.62,0,1.22,0,1.67,0 l1.27,0 a5.9,0,0,0,1,2.08,0 c0.42,0,0.77,0,1.19,0,0.6,0,1.3,0,2.04,0,0.6,0,1.22,0,1.82,0,0.59,0,1.13,0,1.6,0,0.15,0,0.35,0,0.57,0,1.16,0,2.27,0,3.3,0,0.7,0,1.47,0,2.2,0 a7.22,0,0,0,1,2.76,0 c1,0,2.14,0,3.35,0,0.58,0,1.2,0,1.84,0 a7.65,0,0,0,1,2.81,0 c0.79,0,1.52,0,2.19,0,0.56,0,1.21,0,1.92,0,0.47,0,0.91,0,1.27,0,0.35,0,0.62,0,0.77,0,0.28,0,0.78,0,1.46,0,1.18,0,2.1,0,2.73,0,0.19,0,0.47,0,0.81,0 a5.4,0,0,0,1,2.06,0 c0.29,0,0.53,0,0.7,0,1.97,0,3.98,0,5.92,0,0.19,0,0.45,0,0.75,0,0.31,0,0.66,0,1.02,0 h1.46 c0.49,0,0.97,0,1.36,0,0.4,0,0.69,0,0.83,0 l0.27,0 c0.3,0,0.91,0,1.73,0,0.73,0,1.04,0,1.61,0,0.19,0,0.47,0,0.82,0,0.35,0,0.76,0,1.22,0,0.94,0,1.8,0,2.5,0,0.36,0,0.74,0,1.15,0 V0 c-0.05,0,-0.26,0,-0.62,0,-0.2,0,-0.37,0,-0.49,0,-0.23,0,-0.31,0,-0.24,0,0.04,0,0.13,0,0.27,0,0.13,0,0.3,0,0.5,0,0.2,0,0.37,0,0.5,0 a0.66,0,0,0,1,.27,0 c0.12,0,0.12,0,0,0,1.28,0,2.35,0,3.11,0,0.26,0,0.63,0,1.08,0 a0.51,0,0,0,1,0,0 c0.02,0,0.14,0,0.35,0,0.21,0,0.51,0,0.88,0 a4.35,0,0,0,1,1.27,0 c0.23,0,0.45,0,0.61,0,0.17,0,0.28,0,0.31,0,0.19,0,0.31,0,0.5,0,0.13,0,0.35,0,0.63,0,0.29,0,0.63,0,0.99,0 h5.11 c0.97,0,1.91,0,2.73,0 a4.56,0,0,0,1,1.38,0 c0.46,0,0.96,0,1.41,0,0.45,0,0.81,0,1.01,0 a3.23,0,0,0,1,1.46,0 c0.22,0,0.46,0,0.69,0,0.25,0,0.5,0,0.72,0 a0.9,0,0,0,1,.44,0 c0.26,0,0.53,0,0.84,0,0.14,0,0.33,0,0.54,0 a46,0,0,0,1,2.61,0 c0.8,0,1.57,0,2.31,0 a3.85,0,0,0,1,1.34,0 c0.88,0,1.8,0,2.73,0,1,0,1.69,0,2.58,0,0.21,0,0.45,0,0.69,0,1.94,0,3.9,0,5.84,0,0.73,0,1.42,0,2,0,1.57,0,2.84,0,4.27,0 a7.5,0,0,0,1,1.99,0 c1.69,0,3.42,0,5.12,0,0.73,0,1.44,0,2.03,0,0.81,0,1.75,0,2.73,0 h1.42 c0.5,0,0.97,0,1.35,0,1.16,0,2.23,0,3.19,0 l1.04,0 a8.3,0,0,0,1,3.38,0 c0.6,0,1.23,0,1.88,0 a5.23,0,0,0,1,2.04,0 c1.5,0,2.96,0,4.38,0,0.57,0,1.22,0,1.92,0,0.69,0,1.32,0,1.88,0,0.79,0,1.72,0,2.69,0 h0.73 v0 a0.91,0,0,0,1,0,0 c0.13,0,0.34,0,0.62,0,0.01,0,0.07,0,0.19,0 a0.46,0,0,0,1,0,0 c0.2,0,0.37,0,0.51,0 a0.79,0,0,0,1,.3,0 c0.33,0,0.24,0,-0.27,0,0.15,0,0.26,0,0.34,0,0.08,0,0.32,0,0.71,0,0.38,0,0.9,0,1.52,0 a9.13,0,0,0,1,2,0 c0.73,0,1.46,0,2.19,0 h2.92 c0.75,0,1.46,0,2.04,0 l2.77,0 c0.57,0,1.3,0,2.04,0 h8.07 c1.23,0,2.42,0,3.3,0,0.54,0,1.15,0,1.69,0,0.36,0,0.82,0,1.31,0,0.73,0,1.46,0,2.15,0,0.37,0,0.72,0,1.02,0,0.3,0,0.54,0,0.71,0,0.41,0,0.95,0,1.61,0,0.26,0,0.41,0,0.43,0,0.1,0,-0.18,0,-0.81,0,0.01,0,0.1,0,0.24,0,0.15,0,0.35,0,0.57,0,0.73,0,1.46,0,2.15,0 a6.78,0,0,0,1,1.92,0 l3.08,0 c0.89,0,1.81,0,2.76,0 a6.62,0,0,0,1,1.96,0 c1.48,0,2.91,0,4.08,0,1.15,0,2.73,0,3.84,0,0.38,0,0.85,0,1.35,0 l2.19,0 c0.61,0,0.99,0,1.69,0 l2.76,0 h0.7 c0.59,0,1.16,0,1.59,0,0.43,0,0.68,0,0.71,0,0.15,0,0.24,0,0.27,0 l3.65,0 c1.48,0,2.96,0,4.15,0,0.4,0,0.89,0,1.39,0,1.45,0,2.93,0,4.38,0,0.24,0,0.48,0,0.69,0,1.21,0,2.31,0,3.3,0 a4.05,0,0,0,1,1.46,0 c0.35,0,0.54,0,1.39,0 a14,0,0,0,1,3.11,0 l1.08,0 c0.3,0,0.7,0,1.15,0,1.31,0,2.6,0,3.84,0,1.15,0,2.25,0,3.27,0,0.41,0,0.87,0,1.35,0,0.71,0,1.36,0,1.92,0,0.73,0,1.38,0,2.11,0,0.34,0,0.76,0,1.23,0 a8.45,0,0,0,1,1.61,0 c0.46,0,0.82,0,1.04,0,0.1,0,0.3,0,0.57,0,0.28,0,0.61,0,0.97,0 l2.19,0 c0.48,0,0.93,0,1.31,0 l0.57,0 c0.95,0,1.66,0,2.04,0 a0.79,0,0,0,1,.32,0,4.58,4.58,0,011.99,-0.17 l1.38,0 c0.46,0,0.96,0,1.42,0 a4.8,0,0,0,1,1.58,0,0.67,0.67,0,00.31,-0.22 c0.15,0,0.38,0,0.38,0,0.75,0,1.68,0,2.61,0,0.73,0,1.45,0,2.12,0,0.22,0,0.41,0,0.56,0,0.16,0,0.27,0,0.32,0,0.27,0,2.27,0,2,0,0.58,0,1.05,0,1.53,0 a5,0,0,0,1,1.2,0 v0 c-0.11,0,-0.16,0,-0.16,0,0,0,0.05,0,0.16,0,0.18,0,0.43,0,0.72,0,0.3,0,0.63,0,0.97,0 h1.34 c0.23,0,0.46,0,0.65,0 s0.35,0,0.47,0 c0.45,0,0.89,0,1.31,0,0.86,0,1.84,0,2.8,0,0.72,0,1.44,0,2,0 l1.15,0 c0.06,0,0.23,0,0.49,0,0.27,0,0.61,0,0.97,0,1.31,0,2.08,0,3.27,0,0.76,0,1.67,0,2.65,0 l2.15,0 c0.49,0,0.93,0,1.31,0 a7.75,0,0,0,1,2,0 h12.68 c0.99,0,1.94,0,2.77,0,0.82,0,1.78,0,2.77,0 h11.6 a15.7,0,0,0,1,3.5,0 c0.84,0,1.73,0,2.65,0 l1.92,0 a16.58,0,0,0,1,4.96,0,6.17,6.17,0,012.08,0.1 c0.53,0,0.92,0,1.61,0,0.69,0,1.42,0,2.15,0,0.18,0,0.41,0,0.66,0,0.24,0,0.47,0,0.65,0,1.27,0,2.19,0,3.5,0 a4.58,0,0,0,1,1.42,0 c0.45,0,0.86,0,1.23,0,0.52,0,1.22,0,1.96,0,0.98,0,1.97,0,2.96,0,0.99,0,1.96,0,2.73,0,0.97,0,2.18,0,3.42,0 h1.46 c0.73,0,1.46,0,2.11,0,0.88,0,1.58,0,2.54,0,0.93,0,1.82,0,2.61,0,0.65,0,1.38,0,2.11,0,0.98,0,1.95,0,2.81,0 a4.34,0,0,0,1,2.08,0,10.12,10.12,0,004.11,0,3.1,3.1,0,011.38,0 c1.11,0,2.07,0,2.81,0,0.22,0,0.74,0,1.46,0,0.34,0,0.76,0,1.23,0,0.54,0,1.16,0,1.84,0 a7.93,0,0,0,1,2.12,0 c1.21,0,2.09,0,2.46,0,0.26,0,1.26,0,2.3,0 l0.62,0,1.11,0 c0.58,0,1.08,0,1.88,0,0.82,0,1.56,0,2.19,0,0.44,0,1.02,0,1.7,0,0.22,0,0.46,0,0.69,0,0.61,0,0.88,0,0.88,0,0.11,0,0.11,0,0,0,-0.03,0,-0.27,0,-0.69,0,-0.54,0,-0.5,0,0.27,0,0.77,0,1.5,0,2.38,0,0.93,0,1.91,0,2.92,0 a8.34,0,0,0,1,2.12,0 l0.57,0,1.19,0 c0.07,0,0.24,0,0.5,0 l0.27,0 c0.13,0,0.31,0,0.52,0 a3.84,0,0,0,1,1.35,0 c0.19,0,0.32,0,0.36,0 a0.83,0,0,0,1,0,0 c-0.11,0,-0.5,0,-1.38,0,-1.19,0,-2.65,0,-3.85,0 a0.78,0,0,0,1,-0.34,0 c-0.1,0,-0.15,0,-0.15,0,0,0,0.05,0,0.15,0,0.11,0,-0.27,0,0.46,0,0.73,0,1.46,0,2.15,0,0.69,0,1.35,0,2.04,0 a6.63,0,0,0,1,2.11,0 c0.36,0,0.82,0,1.31,0,0.48,0,0.95,0,1.31,0,0.59,0,1.14,0,1.65,0,0.65,0,1.38,0,2.07,0 a3.1,0,0,0,1,1.23,0 c1.47,0,2.95,0,4.42,0,1.48,0,2.95,0,4.19,0 a9.96,0,0,0,1,2.08,0 c1.23,0,2.43,0,3.42,0,0.82,0,1.78,0,2.77,0 h1.46 c0.49,0,0.98,0,1.46,0,0.49,0,0.96,0,1.38,0,1.16,0,2.61,0,4.07,0,0.99,0,1.97,0,2.92,0,0.24,0,0.47,0,0.66,0,0.76,0,1.5,0,2.19,0 a63.5,0,0,0,1,3.84,0,6.7,6.7,0,012.04,-0.16 c0.86,0,1.82,0,2.8,0,2.94,0,5.87,0,8.81,0,0.48,0,0.93,0,1.26,0,0.34,0,0.54,0,0.58,0 v0 c0,0,0.07,0,0.19,0,0.16,0,0.39,0,0.69,0,0.12,0,0.43,0,0.66,0,0.69,0,1.42,0,2.15,0,0.98,0,1.87,0,2.5,0,0.72,0,1.19,0,1.3,0 v0 c0.27,0,0.7,0,2.39,0,0.35,0,0.72,0,1.07,0,0.35,0,0.66,0,0.89,0,0.34,0,0.77,0,1.11,0,0.7,0,1.61,0,2.58,0 h1.5 a7.6,0,0,0,1,1.92,0,5.29,5.29,0,002.07,-1,3.6,3.6,0,011.19,-0.6 c0.75,0,1.78,0,2.96,0,0.47,0,0.9,0,1.27,0,0.96,0,1.88,0,2.88,0 a7.05,0,0,0,1,3.39,0 c0.62,0,1.33,0,2.07,0 a13.78,0,0,0,1,3.5,0 c0.37,0,0.82,0,1.31,0 l2.19,0 c0.48,0,0.94,0,1.32,0,0.38,0,0.66,0,0.79,0,0.18,0,0.5,0,0.96,0,1.14,0,2.43,0,3.84,0,0.43,0,0.93,0,1.4,0,0.47,0,0.89,0,1.18,0 l0.31,0 c0.3,0,0.91,0,1.73,0 a4.2,0,0,0,1,3.07,0 c0.46,0,0.74,0,0.81,0,0.06,0,-0.1,0,-0.46,0,-0.12,0,-0.39,0,-0.39,0 l-0.34,0 c-0.15,0,-0.2,0,-0.17,0 s0.16,0,0.36,0 c0.15,0,0.34,0,0.56,0,0.22,0,0.46,0,0.71,0 h3.69 a8.06,0,0,0,1,1.96,0 c0.53,0,1.11,0,1.69,0,0.37,0,0.84,0,1.32,0,0.49,0,0.96,0,1.33,0 l1.73,0 c0.08,0,0.19,0,0.3,0 a2.51,0,0,0,1,1,0 l1.77,0 c0.58,0,0.96,0,1.69,0,0.73,0,1.46,0,2.19,0,0.97,0,1.9,0,2.69,0,0.61,0,1.29,0,2,0,0.7,0,1.33,0,1.85,0 a23.3,0,0,0,1,1.77,0 c0.43,0,0.93,0,1.42,0,0.19,0,0.38,0,0.61,0,0.86,0,1.85,0,2.85,0,0.61,0,1.21,0,1.76,0 a6.99,0,0,0,1,1.43,0 c0.86,0,1.36,0,1.38,0 v0 c0.11,0,0.43,0,0.92,0,0.47,0,0.97,0,1.5,0,0.74,0,1.2,0,1.31,0,0.03,0,0.09,0,0.19,0,0.08,0,0.38,0,0.85,0,0.57,0,0.89,0,0.92,0 a0.9,0,0,0,1,.19,0 c0.09,0,0.29,0,0.58,0,0.93,0,2.01,0,3.19,0,0.37,0,0.8,0,1.27,0,0.92,0,1.78,0,2.53,0,1.02,0,2.28,0,3.5,0,0.49,0,0.97,0,1.38,0,0.97,0,2.04,0,3.19,0,0.93,0,1.83,0,2.69,0 a5.16,0,0,0,1,1.39,0 c0.21,0,0.4,0,0.55,0 a0.92,0,0,0,1,.33,0 c0.14,0,-0.06,0,-0.58,0,-0.07,0,-0.12,0,-0.13,0,-0.02,0,-0.01,0,0.03,0 a0.51,0,0,0,1,.2,0 c0.1,0,0.21,0,0.33,0,1.14,0,2.24,0,3.26,0,1.12,0,2.21,0,3.27,0 a2.95,0,0,0,1,1.34,0 l0.62,0 c0.58,0,1.15,0,1.69,0,0.56,0,1.24,0,1.96,0,0.47,0,0.92,0,1.31,0,0.94,0,2.14,0,3.38,0,1.23,0,2.42,0,3.34,0,0.38,0,0.86,0,1.35,0 a8.08,0,0,0,1,2,0 c0.18,0,0.35,0,0.5,0,0.38,0,0.7,0,0.93,0,0.22,0,0.35,0,0.37,0 v0 c0.05,0,0.24,0,0.57,0,0.33,0,0.76,0,1.24,0,0.48,0,0.97,0,1.46,0,0.98,0,1.91,0,2.69,0 a8.98,0,0,0,1,2.08,0 h11.76 c1.22,0,2.43,0,3.45,0,1.07,0,2.33,0,3.54,0,0.24,0,0.49,0,0.73,0 l1.92,0 c0.43,0,0.88,0,1.35,0,0.71,0,1.38,0,1.96,0,0.19,0,0.42,0,0.65,0 a8.27,0,0,0,1,2.77,0 c1.46,0,2.84,0,4.34,0,0.35,0,0.79,0,1.27,0 a7.15,0,0,0,1,2.07,0 c0.97,0,1.31,0,1.81,0,0.52,0,1.5,0,2.77,0,0.38,0,0.83,0,1.3,0,0.71,0,1.38,0,1.96,0,0.8,0,1.75,0,2.73,0 h1.62 c2,0,2,0,4.72,0 a6.8,0,0,0,1,2.08,0 l2.19,0 c0.2,0,0.42,0,0.65,0 a4.02,0,0,0,1,1.39,0 c0.83,0,1.57,0,2.19,0,0.53,0,1.23,0,1.96,0 h1.46 c0.98,0,1.91,0,2.65,0 a14.67,0,0,0,1,4.96,0 c0.98,0,2.19,0,3.42,0,0.99,0,1.96,0,2.84,0 a4.35,0,0,0,1,1.96,0 l0.69,0 a17.84,0,0,0,1,4.27,0 l2.88,0 c0.37,0,0.82,0,1.31,0,1.45,0,2.93,0,4.38,0,0.48,0,0.95,0,1.38,0 a11.1,0,0,0,1,2.85,0,5.24,5.24,0,001.38,-0.08,4.1,4.1,0,011.39,0 c0.57,0,1.2,0,1.8,0,0.6,0,1.14,0,1.54,0,0.35,0,0.77,0,1.11,0 a7.06,0,0,0,1,2.04,0 h7.34 c0.36,0,0.71,0,1.01,0,0.3,0,0.55,0,0.72,0 a4.63,0,0,0,1,2.35,0,14.7,14.7,0,016.18,0.13 c0.42,0,0.9,0,1.39,0,1.23,0,2.46,0,3.65,0,0.74,0,1.45,0,2,0,0.55,0,1.25,0,1.99,0 l3.66,0 a8,0,0,0,1,1.38,0 c0.57,0,1.2,0,1.88,0,1.16,0,2.27,0,3.31,0 a15.9,0,0,0,1,3.58,0 c0.71,0,1.37,0,1.95,0,0.41,0,0.89,0,1.39,0,1.46,0,2.96,0,4.26,0 a3.69,0,0,0,1,1.38,0,59.4,59.4,0,004.35,-1.3,7.7,7.7,0,012.03,-0.24 c1.72,0,3.44,0,5.15,0,0.73,0,1.41,0,1.96,0,0.57,0,1.27,0,2,0 l2.92,0 c1,0,1.98,0,2.73,0,0.8,0,1.75,0,2.73,0,1.24,0,2.44,0,3.46,0,0.62,0,1.34,0,2.08,0 h2.22 c1.24,0,2.44,0,3.42,0 a6.62,0,0,0,1,2.04,0 c1.49,0,2.91,0,4.04,0,0.41,0,0.9,0,1.38,0 a3.12,0,0,0,1,1.58,0 c0.19,0,0.34,0,0.57,0,0.22,0,0.51,0,0.84,0 a6,0,0,0,1,1.05,0 c0.47,0,0.93,0,1.38,0,0.42,0,0.81,0,1.27,0 a14.36,0,0,0,1,4.88,0 c0.61,0,1.31,0,2.04,0 h5.15 c0.73,0,1.43,0,1.99,0 l2.27,0 c0.49,0,1.08,0,1.69,0,0.61,0,1.21,0,1.69,0,0.23,0,0.39,0,0.58,0 a7.36,0,0,0,1,2.77,0,11.75,11.75,0,013.53,-0.14 c0.21,0,0.45,0,0.66,0,0.46,0,0.88,0,1.34,0,0.5,0,1,0,1.47,0,0.46,0,0.88,0,1.22,0 l0.58,0 a6.67,0,0,0,1,2.77,0 c0.78,0,1.69,0,2.65,0 a34,0,0,0,1,3.65,0 c0.49,0,0.97,0,1.38,0,1.2,0,2.63,0,4.11,0,0.49,0,0.97,0,1.39,0,1.29,0,2.64,0,4.03,0 a12.38,0,0,0,1,3.31,0 h8.11 c0.61,0,1.21,0,1.7,0 s0.84,0,0.99,0 c0.1,0,0.21,0,0.34,0,0.12,0,0.29,0,0.49,0,0.2,0,0.43,0,0.67,0 l1.42,0 c1,0,1.97,0,2.77,0,0.37,0,0.78,0,1.23,0,1.18,0,2.29,0,3.26,0,0.58,0,1.31,0,2.04,0 h6.65 c0.48,0,0.96,0,1.42,0 z"/>
</svg>