<svg xmlns="http://www.w3.org/2000/svg" width="1920" height="96" viewBox="0 0 1920 96" preserveAspectRatio="none">
    <path
            to-d="M1914.5,43.3 c0.3,-1.9,4.4,-3.5,5.5,-5.3 v-38 H0 V53 c0.9,0,1.8,-0.7,2.7,-0.8 H7 c1,0.2,1.7,0.6,2.2,1.1 h2.2 V46.7 l2.2,1 V49 h2.2 v-1.1 l2.2,-1.1,2.2,2.2 a13,13,0,0,1,2.2,1.1 v-1.1 l2.2,1.1 s2.2,-2.2,4.4,-3.3 l2.2,1,2.2,3.4 v-3.3 l2.2,6.6,2.2,-1,2.2,1 h4.4 l2.2,1.2 v-1.2 l2.2,2.3 c1.6,0.6,3.1,1.4,4.4,2.2,0.5,-0.5,1.3,-0.8,2.2,-1.1 v-2.2 l6.6,1 v1.2 l4.4,3.3 V60 l2.2,-1.1 V61 l2.2,1.1 v1.1 h4.4 l2.2,-1 v3.3 l2.2,-2.3 v2.3 l2.2,2.2 c-0.2,-0.4,-0.2,-0.8,0,-1.1 v-2.3 s2.2,1.2,2.2,-1 h2.2 v2.2 c0.5,0.7,0.5,1.5,0,2.2 V70 h4.4 v-1.1 h2.2 l8.8,-2.2,11,-6.7,8.8,-7.8,11,6.7 c0.4,0.5,1.2,0.9,2.2,1.1 v-1.1 h2.2 V60 l2.2,-2.2,2.2,1 V60 h4.4 v-2.2 c-0.3,-1.5,-0.3,-3,0,-4.5 h4.4 c-0.3,-0.7,-0.3,-1.5,0,-2.2 l2.2,1.1,2.2,1.1 c2.2,-3.3,6.6,-4.4,8.8,-4.4 l6.6,4.4,4.4,3.4 c4.4,1,6.6,0,8.8,-1.1,2.2,-1.2,0,-6.7,2.2,-10,2.2,-3.4,2.2,-1.2,4.4,-1.2 l8.8,-2.2 c2,1.2,4.2,2.4,6.6,3.4 l4.4,5.5 v1.1 c0.2,0.4,0.2,0.8,0,1.1 l2.2,4.5 h2.2 v-1.1 l2.2,-1.1 v2.2 l4.4,1,2.2,1.2 h2.2 l-2.2,-1.1,2.2,-1.1 c2.2,0,6.6,0,6.6,5.5,0,-2.2,2.2,0,2.2,-1,0.5,-0.8,0.5,-1.6,0,-2.3,-0.3,-0.7,-0.3,-1.5,0,-2.2 l1.7,0.2,-1.7,-1.3,2.2,-2.3 v2.3 l2.2,-1.1 v2.2 l2.2,1,-2.2,2.3 h2.2 l2.2,-1.1,2.2,-1.1 c2.2,-2.2,0,-4.5,8.8,-3.3,2.3,0,4.6,0.4,6.6,1,0.3,-0.5,0.9,-1,1.6,-1.3,0.8,-0.4,1.7,-0.7,2.8,-0.9 v-2.2 l11,-7,13.2,-0.8,-1.7,1.4 h4.9 c-1.1,-0.6,1.5,-5,1.2,-5.8,0.3,-1.2,1,-2.3,2.2,-3.3,2.4,-1.4,6.8,-4,5.4,-3,-1.3,0.9,4.6,3.8,7.8,5.2,-0.3,-0.7,-0.3,-1.5,0,-2.2 l2.2,1 c-0.2,-0.7,-0.2,-1.4,0,-2.1 v1 l6.6,-5.5 c2.2,1.1,8.8,-10,8.8,-10 l6.6,-7.8 c2.2,-2.2,6.6,1.1,8.8,3.4 a9.1,9.1,0,0,1,2.2,3.3 l2.2,1.1 A9,9,0,0,1,348,19 v-1.1 h-2.2 l4.4,-1.1 v1 l2.2,-2.1,2.2,1 c0.2,0.8,0.2,1.6,0,2.3 V21 c-0.6,0.8,-1.3,1.5,-2.2,2.2 v1.1 l2.2,-1 v1 l4.4,1.2 c1.8,0.5,3.4,1.2,4.4,2.2 h2.2 l-2.2,-1.1,2.2,-1.1,2.2,2.2 c0.4,0.8,1.2,1.5,2.2,2.2 h2.2 l-2.2,-1.1,2.2,-1.1,2.2,1,-2.2,-3.2,1.8,-1.9,2.3,1.1,2.5,1.9 v2.2 l2.2,-1.1 v1 s0,-2.1,2.2,-1 v1 l6.6,3.4 c4.4,1.1,2.2,3.4,6.6,4.5,4.4,1,2.2,4.4,4.4,4.4 l6.6,-2.2 a8,8,0,0,1,2.8,-1.5 c1.1,-0.4,2.4,-0.6,3.8,-0.7 l8.8,4.4,4.4,4.5,4.4,3.3 c0.6,0.8,1.3,1.5,2.2,2.2 V50 l2.2,-2.2 v-1.1 h4.4 v-1.1 l2.2,1 v-2.2 h2.2 v1.2 c0.6,0,1.1,0,1.5,0.3,0.4,0.2,0.7,0.5,0.7,0.8 l-2.2,1 A19,19,0,0,1,447,50 v-1.1,1.1 h2.2 c-0.2,-0.4,-0.2,-0.8,0,-1.1 v-2.3 c0.5,-1.5,1.2,-3,2.2,-4.4 l4.4,7.8 h2.2 v-1.1 l2.2,1 V49 l4.4,1.1 v1.1 l6.6,2.2,2.2,1.1 v-1 l6.6,1 c1.2,0.6,2,1.4,2.2,2.3 h4.4 c-0.2,-0.4,-0.2,-0.8,0,-1.1 l2.2,-1.2,2.2,-3.3 h2.2 V54.4 v2.3 h4.4 v-1.1 H504.3 v-2.3 h2.2 v2.3 c0.8,0,1.7,0,2.5,-0.3,0.8,-0.2,1.4,-0.5,1.9,-0.9,-0.4,-1.8,-0.4,-3.7,0,-5.5 l1,-0.2,10,-1,11,-1 h8.8 c4.4,0,4.4,2.2,6.6,3.3,1.6,1.1,3.9,2,6.6,2.2 l8.8,3.4 h6.6 c2.2,0,4.4,4.4,8.8,5.5,4.4,1.1,2.2,0,4.4,-1.1,0.2,-0.4,0.2,-0.7,0,-1.1,-0.2,-0.4,-0.2,-0.8,0,-1.1 v-1.1 h2.2 v2.2 l4.4,5.5,6.6,-3.3,2.2,-1.1 v-1.1 h2.2 v-3.3 h4.4 v1 l2.2,-2.2 v-1 l2.2,1 v-1 c0.1,-1,0.9,-1.7,2.2,-2.3,2,0.5,6,1.5,6,2 a15,15,0,0,1,2.3,3.3 l2.7,-0.8,2.2,-1.2 v-3.3 c1,0.7,1.7,1.4,2.2,2.2 l4.4,-1 s11,0,19.8,7.7 v1.1 h4.4 l8.8,1.1 h15.4 c-0.2,-0.3,-0.2,-0.7,0,-1 a4.6,4.6,0,0,1,0,-3.4 l7.7,-1.4 c0.6,0.7,1.7,2.3,1.7,2.7,0,0.5,1.6,1.3,2.3,1.7 l5.9,-2 v2.3 l2.2,-4.4,4.4,-6.7 h4.4 V46.7 l2.2,1 v-1 l2.2,1 v-1 h2.2 v-1.1 l2.2,-2.3,2.2,1.1,2.2,1.2 V50 c1,0.7,1.7,1.4,2.2,2.2 h4.4 l2.9,1.4,1.7,1.7,6.4,-3 V51 l2.2,1.1 c0.2,0.4,0.2,0.8,0,1.1 h4.4 v-5.5 h2.2 l2.2,1 v-3.2 l17.6,2.2,2.2,5.5 h2.2 v1.1 h4.4 l4.4,1.2 v-1.2 l2.2,1.2 v1 c1.6,0.7,3.1,1.5,4.4,2.3 V55.6 l5.3,5.5,1.8,-0.9,-0.5,-1.3,2.2,-1.1,2.2,1,7.5,-1.3,-2.9,1.6,-0.2,2 v2.2 l7.1,-3.6 c0.2,0.7,0.4,2.3,-0.5,2.5 V65.6 l4,-0.4,2.3,-2.2,2.5,2.6 v1 c-0.2,0.8,-0.2,1.6,0,2.3 V70 c0.4,-0.5,1.2,-0.9,2.2,-1.1 V70 h2.2 v-1.1 h2.2 l8.8,-2.2,11,-7.8,8.8,-6.7,11,6.7 a89.9,89.9,0,0,1,17.2,-0.9 l4.8,-3.6 v-1 c2.2,-3.4,4.4,-4.5,8.8,-4.5 s2.2,1.1,6.6,4.4 l6.6,3.4 c2.2,1,4.4,0,6.6,-1.1,2.2,-1.2,0,-6.7,2.2,-10,2.2,-3.4,2.2,-1.2,4.4,-1.2 l8.8,-2.2 c2,1.2,4.2,2.4,6.6,3.4 l4.4,7.7,2.2,4.5 h2.2 v-1.1 l2.2,-2.3 v3.3 L953,59 l2.5,1.9,10.9,-8.3 c0.6,0.5,2,1.7,2,2 v2.2 l2.2,-1.1 v2.2 l2.2,1,-2.2,2.3 h2.2 c1.3,-0.8,2.8,-1.5,4.4,-2.2 v-1.1 c2.2,-2.2,0,-3.4,8.8,-2.2,2.3,0,4.6,0.4,6.6,1,0.3,-0.5,0.9,-1,1.6,-1.3 l6,-1.7,2.8,0.5 c1.5,0.2,4.7,0.7,5.2,1.2,0.4,0.4,3.6,-3.6,5.1,-5.6 l4,-5,3.9,0.9,8.8,-1.2,-2.2,-2.2 c-0.4,-0.7,-0.4,-1.5,0,-2.2,0.9,-1.6,2.7,-4.4,2.7,-3.6,0,1.1,1.7,2.3,1.7,2.8,0,0.4,2,-1,3,-1.7 l0.5,-3.8,9.7,3,4.4,-5.6 c2.2,1.1,6.6,-10,8.8,-10 l6.6,-7.8 c2.2,-2.2,6.6,1.1,8.8,3.4 l4.4,3.3 v1.1 c0.5,-0.8,1.2,-1.5,2.2,-2.2 v-1.1 h-2.2 l4.4,-1.1 v1 l0.3,1.2,1.9,-1.3,2.2,-1 c0.2,0.8,0.2,1.6,0,2.3 V21 a12,12,0,0,1,-2.2,2.2 l1.1,2.3 h7.7 c1,0.6,1.8,1.4,2.2,2.2 h2.2 v-1.1 c-2.2,-1.1,0,-1.1,2.2,-1.1 v2.2 c0.4,0.8,1.2,1.5,2.2,2.2 h2.2 v-2.2 l2.2,1,2.2,-1,-2.2,-3.4,2.2,2.3,1,-0.2 h4.5 l9.9,5.7,6.6,4.5,2.2,4.4,6.6,-2.2 c0.7,-0.6,1.6,-1.1,2.8,-1.5,1.1,-0.4,2.4,-0.6,3.8,-0.7,4.4,0,8.8,2.2,11,4.4 l4.4,4.5,2.2,3.3 c0.6,0.8,1.3,1.5,2.2,2.2,0,-2.2,2.2,0,2.2,-1.1 l2.2,-1.1,2.2,-2.2 v-1.1 h2.2 v1 l2.2,-2.2,2.2,1.2 c0.2,0.1,0.3,0.3,0.3,0.5 l-0.3,0.6 v2.2 c0.6,-0.4,1.3,-0.8,2.2,-1.1 h2.2 c-0.2,-0.4,-0.2,-0.8,0,-1.1 v-2.3 l2.4,0.3,-0.2,1.4,2.5,2,1.2,-2.5,2.9,1 v2.2 l2.2,1.2 c0,0.3,0.2,0.6,0.6,0.8,0.4,0.2,1,0.3,1.6,0.3 V50 h2.2 v1.1 l6.6,3.3 c0,-1,2.2,-3.3,2.2,-1 l4.4,1 h2.2 l4.4,1.2,4.4,-1.2 h2.2 a10,10,0,0,1,2.2,2.3 h4.4 v-1.1 h2.2 v-1.2 h2.2 l3.4,-1.9 s1.2,1.5,1.3,2.5 l-0.3,0.6 c0.8,0,1.7,0,2.5,-0.3,0.8,-0.2,1.4,-0.5,1.9,-0.9 l1.5,-0.3,1.1,-1 c0.2,-0.4,1.8,-0.6,1.8,0,0,0.4,0.3,0.3,0.5,0.2 l1.7,-1.4,-0.5,-2.7,1.7,1.6,1,-3 h2.2 l8.8,-1.1 h11 c4.4,0,2.2,2.2,4.4,3.3,1.5,1.1,3.9,2,6.6,2.2,4.4,0,4.4,2.2,8.8,3.4 h8.8 c2.2,0,2.2,4.4,6.6,5.5,4.4,1.1,2.2,0,6.6,-1.1 l2.2,1.1 v1.1 l2.2,2.2 c1.4,0.5,2.9,0.8,4.4,1.2 l0.9,-2.6,5.7,-5.2 v-1.1 l2.2,-1.1 h2.2 l2.2,1 v-2.2 l2.2,-1 c0.1,-1,0.9,-1.7,2.2,-2.3 l3.4,-0.3,5.7,0.6,-1.2,2.2,3,0.8 v1.2 l2.3,-1.2 c-0.2,-0.3,-0.2,-0.7,0,-1 v-1.2 l2.2,-1 c0.2,0.6,0.2,1.4,0,2.1 l2.2,-1 s13.2,0,22,7.7 v-1.1 h4.4 l8.8,1.1 h13.2 c-0.2,-0.4,-0.2,-0.7,0,-1.1,0.3,-1.2,1,-2.3,2.2,-3.3 l2.2,1 a3,3,0,0,1,0,-2.2 l0.5,-0.3,1.7,3.7 c2.2,1,2.2,-2.2,4.4,-3.4,0.2,-0.7,0.2,-1.4,0,-2.2 l-2.2,-1,2.2,-1.2,-2.2,-1.1 c2.2,-2.2,2.2,1.1,4.4,3.3 v4.5 l2.2,-1.1,4.4,2.2,4.4,-3.4,4.4,-6.6,2.2,1,2.2,-1 v-2.2 h2.2 l2.2,1 v-2.2 h2.2 l2.2,-2.2,4.4,9 c2.1,-0.4,4.4,-0.4,6.6,0,2.9,0.2,5.9,0.2,8.8,0 h2.2 V50 l2.2,1.1,4.4,1.1,-2.2,-1 V50 h2.2 l-2.2,-3.3 v-1.1 c2.2,-1.2,2.2,1,2.2,1 h2.2 l2.2,-2.2,2.2,2.3 c0.4,0.8,1.2,1.5,2.2,2.2 h2.2 l-2.2,-1.1,2.2,-1.1 v-1.1 l2.2,2.2,2.2,-1.1 v1 l2.2,-2.1 v2.2 l2.2,1,2.2,1.2 v2.2 h2.2 l2.2,1.1 h4.4 l2.2,1.1 c0.5,-0.4,1.3,-0.8,2.2,-1 l2.2,1 v1.2 c1.6,0.6,3.1,1.3,4.4,2.2 V54.4 h2.2 l2.2,1.2,0.3,-0.6,-0.3,-0.6 h2.2 l2.2,3.4 v-4.5 l2.2,5.6 c0,0.3,0.2,0.6,0.6,0.8,0.4,0.2,1,0.3,1.6,0.3 l2.2,1.1,2.2,1.1,1,-0.1 c0.5,0,0.4,0.2,0.7,0.3,-0.2,-0.1,0.2,-0.5,0.2,-0.7,0,-0.2,0,-0.4,0.3,-0.6 V60 l2.2,1.1 v1.1 c0,1.1,-2.2,-2.2,-2.2,1.1 h2.2 l2.2,1.1 v1.2 l2.2,-1.2 v-1 h2.2 l2.2,1 v1.2 c-0.2,0.7,-0.2,1.4,0,2.2 H1560.3 l8.8,-3.4,11,-6.6,8.8,-6.7,11,6.7 h2.2 v-1.1 l2.2,1,4.4,-1 v1 h4.4 v-1 c-0.4,-1.9,-0.4,-3.7,0,-5.6,1.3,1,2,2.2,2.2,3.3 v2.2 l2.2,-1 c0.8,-0.4,1.5,-0.7,2.2,-1.2 v-2.2 c2.2,-3.3,4.4,-4.4,8.8,-4.4 s2.2,1,6.6,4.4 l6.6,3.4 c4.4,1,2.2,0,6.6,-1.2,4.4,-1,4.4,-8.8,4.4,-11,0,-2.3,2.2,-2.3,4.4,-1.2 l8.8,-1 a50,50,0,0,1,4.4,2.1 c4.4,1.1,2.2,2.3,4.4,5.6 v-1.1 l2.2,3.3,2.2,5.6 v-3.4 l2.2,2.3 v-1.2 l2.2,1.2,2.2,1,2.2,1.2 s2.2,2.2,2.2,0 v-1.1 c2.2,-1.1,6.6,-1.1,6.6,4.4 l2.2,-2.2 c-0.3,-0.7,-0.3,-1.5,0,-2.2 l3.8,-4.2,2.8,4.2 v2.2 c0.4,0.5,1.2,0.9,2.2,1.1,0.6,-0.8,1.3,-1.5,2.2,-2.2 v-1.1 c2.2,-2.3,0,-3.4,8.8,-2.3 a27,27,0,0,1,6.6,1.2 c-0.1,-0.8,0.3,-1.5,1,-2,0.9,-0.7,2,-1.1,3.4,-1.4 V50 l2.2,2.2 v-4.4 h2.2 l2.2,-3.4 c2.2,-1,0,5.6,2.2,5.6 l0.8,-1.5,4,-1.5,1.8,1.9 V51 l2.2,-1.1 h2.2 v-1.1 a5,5,0,0,1,0,-2.2 l2.2,-1.1 v-1.2 l2.2,1.2 v-1.2 h2.2 v2.2 c0.9,0.3,1.6,0.7,2.2,1.2 v1 l2.2,-2.1,2.2,-4.5,-2.2,-2.2 v-1.1 c0.3,-1.2,1,-2.3,2.2,-3.3 h2.2 v-1.2 c0,-2.2,-2.2,0,-2.2,-1 s3.2,-1.7,3.5,-0.9 l5.3,0.8 v2.2 c0.2,-0.7,6.4,-1.4,6.6,-2.2 l1.9,-0.3 c2.2,-2.2,2.5,-4.1,4.7,-3 l6.6,-10,8.8,-8.9 c2.2,-2.2,6.6,1.1,6.6,4.5,1.3,0.8,2.7,1.5,4.4,2.2 v1 l2.2,1.2 c-0.2,-0.7,-0.2,-1.5,0,-2.2 l2.2,-2.2 h2.2 v-1.2 l2.2,1.2 c0.2,0.7,0.2,1.4,0,2.2 V20 v2.2 l6.6,1.1 c1.8,0.5,3.4,1.3,4.4,2.3 l2.2,-2.3,2.2,2.3 c0.4,0.8,1.2,1.5,2.2,2.2 v-2.2 h6.6 v1 l2.2,-2.2 V27.799999999999997 h2.2 v-2.2 c1.3,0.5,2,1.3,2.2,2.2 l6.6,2.2 c4.4,1.1,4.4,4.4,6.6,5.6 l4.4,3.3,4.4,-1.1 c0.6,-0.6,1.6,-1.1,2.8,-1.5,1.1,-0.4,2.4,-0.7,3.8,-0.7,2.2,-1.2,4.4,1,8.8,3.3 l4.4,4.4,4.4,4.5 a28,28,0,0,1,2.2,1 c0,-2.1,0,1.2,2.2,-1 v-3.4 h4.4 v-1 l2.2,2.2 v-3.4 h2.2 v1.1 c0.6,0,1.1,0.2,1.5,0.4,0.4,0.2,0.7,0.4,0.7,0.7 v2.1 l2.2,-1 v-2.2 z"
            fill="#000000" opacity="0.3"
            duration="1"
            d="M1914.5,0 c0.3,0,4.4,0,5.5,0 v0 H0 V0 c0.9,0,1.8,0,2.7,0 H7 c1,0,1.7,0,2.2,0 h2.2 V0 l2.2,0 V0 h2.2 v0 l2.2,0,2.2,0 a13,0,0,0,1,2.2,0 v0 l2.2,0 s2.2,0,4.4,0 l2.2,0,2.2,0 v0 l2.2,0,2.2,0,2.2,0 h4.4 l2.2,0 v0 l2.2,0 c1.6,0,3.1,0,4.4,0,0.5,0,1.3,0,2.2,0 v0 l6.6,0 v0 l4.4,0 V0 l2.2,0 V0 l2.2,0 v0 h4.4 l2.2,0 v0 l2.2,0 v0 l2.2,0 c-0.2,0,-0.2,0,0,0 v0 s2.2,0,2.2,0 h2.2 v0 c0.5,0,0.5,0,0,0 V0 h4.4 v0 h2.2 l8.8,0,11,0,8.8,0,11,0 c0.4,0,1.2,0,2.2,0 v0 h2.2 V0 l2.2,0,2.2,0 V0 h4.4 v0 c-0.3,0,-0.3,0,0,0 h4.4 c-0.3,0,-0.3,0,0,0 l2.2,0,2.2,0 c2.2,0,6.6,0,8.8,0 l6.6,0,4.4,0 c4.4,0,6.6,0,8.8,0,2.2,0,0,0,2.2,0,2.2,0,2.2,0,4.4,0 l8.8,0 c2,0,4.2,0,6.6,0 l4.4,0 v0 c0.2,0,0.2,0,0,0 l2.2,0 h2.2 v0 l2.2,0 v0 l4.4,0,2.2,0 h2.2 l-2.2,0,2.2,0 c2.2,0,6.6,0,6.6,0,0,0,2.2,0,2.2,0,0.5,0,0.5,0,0,0,-0.3,0,-0.3,0,0,0 l1.7,0,-1.7,0,2.2,0 v0 l2.2,0 v0 l2.2,0,-2.2,0 h2.2 l2.2,0,2.2,0 c2.2,0,0,0,8.8,0,2.3,0,4.6,0,6.6,0,0.3,0,0.9,0,1.6,0,0.8,0,1.7,0,2.8,0 v0 l11,0,13.2,0,-1.7,0 h4.9 c-1.1,0,1.5,0,1.2,0,0.3,0,1,0,2.2,0,2.4,0,6.8,0,5.4,0,-1.3,0,4.6,0,7.8,0,-0.3,0,-0.3,0,0,0 l2.2,0 c-0.2,0,-0.2,0,0,0 v0 l6.6,0 c2.2,0,8.8,0,8.8,0 l6.6,0 c2.2,0,6.6,0,8.8,0 a9.1,0,0,0,1,2.2,0 l2.2,0 A9,0,0,0,1,348,0 v0 h-2.2 l4.4,0 v0 l2.2,0,2.2,0 c0.2,0,0.2,0,0,0 V0 c-0.6,0,-1.3,0,-2.2,0 v0 l2.2,0 v0 l4.4,0 c1.8,0,3.4,0,4.4,0 h2.2 l-2.2,0,2.2,0,2.2,0 c0.4,0,1.2,0,2.2,0 h2.2 l-2.2,0,2.2,0,2.2,0,-2.2,0,1.8,0,2.3,0,2.5,0 v0 l2.2,0 v0 s0,0,2.2,0 v0 l6.6,0 c4.4,0,2.2,0,6.6,0,4.4,0,2.2,0,4.4,0 l6.6,0 a8,0,0,0,1,2.8,0 c1.1,0,2.4,0,3.8,0 l8.8,0,4.4,0,4.4,0 c0.6,0,1.3,0,2.2,0 V0 l2.2,0 v0 h4.4 v0 l2.2,0 v0 h2.2 v0 c0.6,0,1.1,0,1.5,0,0.4,0,0.7,0,0.7,0 l-2.2,0 A19,0,0,0,1,447,0 v0,1.1 h2.2 c-0.2,0,-0.2,0,0,0 v0 c0.5,0,1.2,0,2.2,0 l4.4,0 h2.2 v0 l2.2,0 V0 l4.4,0 v0 l6.6,0,2.2,0 v0 l6.6,0 c1.2,0,2,0,2.2,0 h4.4 c-0.2,0,-0.2,0,0,0 l2.2,0,2.2,0 h2.2 V0 v0 h4.4 v0 H504.3 v0 h2.2 v0 c0.8,0,1.7,0,2.5,0,0.8,0,1.4,0,1.9,0,-0.4,0,-0.4,0,0,0 l1,0,10,0,11,0 h8.8 c4.4,0,4.4,0,6.6,0,1.6,0,3.9,0,6.6,0 l8.8,0 h6.6 c2.2,0,4.4,0,8.8,0,4.4,0,2.2,0,4.4,0,0.2,0,0.2,0,0,0,-0.2,0,-0.2,0,0,0 v0 h2.2 v0 l4.4,0,6.6,0,2.2,0 v0 h2.2 v0 h4.4 v0 l2.2,0 v0 l2.2,0 v0 c0.1,0,0.9,0,2.2,0,2,0,6,0,6,0 a15,0,0,0,1,2.3,0 l2.7,0,2.2,0 v0 c1,0,1.7,0,2.2,0 l4.4,0 s11,0,19.8,0 v0 h4.4 l8.8,0 h15.4 c-0.2,0,-0.2,0,0,0 a4.6,0,0,0,1,0,0 l7.7,0 c0.6,0,1.7,0,1.7,0,0,0,1.6,0,2.3,0 l5.9,0 v0 l2.2,0,4.4,0 h4.4 V0 l2.2,0 v0 l2.2,0 v0 h2.2 v0 l2.2,0,2.2,0,2.2,0 V0 c1,0,1.7,0,2.2,0 h4.4 l2.9,0,1.7,0,6.4,0 V0 l2.2,0 c0.2,0,0.2,0,0,0 h4.4 v0 h2.2 l2.2,0 v0 l17.6,0,2.2,0 h2.2 v0 h4.4 l4.4,0 v0 l2.2,0 v0 c1.6,0,3.1,0,4.4,0 V0 l5.3,0,1.8,0,-0.5,0,2.2,0,2.2,0,7.5,0,-2.9,0,-0.2,0 v0 l7.1,0 c0.2,0,0.4,0,-0.5,0 V0 l4,0,2.3,0,2.5,0 v0 c-0.2,0,-0.2,0,0,0 V0 c0.4,0,1.2,0,2.2,0 V0 h2.2 v0 h2.2 l8.8,0,11,0,8.8,0,11,0 a89.9,0,0,0,1,17.2,0 l4.8,0 v0 c2.2,0,4.4,0,8.8,0 s2.2,0,6.6,0 l6.6,0 c2.2,0,4.4,0,6.6,0,2.2,0,0,0,2.2,0,2.2,0,2.2,0,4.4,0 l8.8,0 c2,0,4.2,0,6.6,0 l4.4,0,2.2,0 h2.2 v0 l2.2,0 v0 L953,0 l2.5,0,10.9,0 c0.6,0,2,0,2,0 v0 l2.2,0 v0 l2.2,0,-2.2,0 h2.2 c1.3,0,2.8,0,4.4,0 v0 c2.2,0,0,0,8.8,0,2.3,0,4.6,0,6.6,0,0.3,0,0.9,0,1.6,0 l6,0,2.8,0 c1.5,0,4.7,0,5.2,0,0.4,0,3.6,0,5.1,0 l4,0,3.9,0,8.8,0,-2.2,0 c-0.4,0,-0.4,0,0,0,0.9,0,2.7,0,2.7,0,0,0,1.7,0,1.7,0,0,0,2,0,3,0 l0.5,0,9.7,0,4.4,0 c2.2,0,6.6,0,8.8,0 l6.6,0 c2.2,0,6.6,0,8.8,0 l4.4,0 v0 c0.5,0,1.2,0,2.2,0 v0 h-2.2 l4.4,0 v0 l0.3,0,1.9,0,2.2,0 c0.2,0,0.2,0,0,0 V0 a12,0,0,0,1,-2.2,0 l1.1,0 h7.7 c1,0,1.8,0,2.2,0 h2.2 v0 c-2.2,0,0,0,2.2,0 v0 c0.4,0,1.2,0,2.2,0 h2.2 v0 l2.2,0,2.2,0,-2.2,0,2.2,0,1,0 h4.5 l9.9,0,6.6,0,2.2,0,6.6,0 c0.7,0,1.6,0,2.8,0,1.1,0,2.4,0,3.8,0,4.4,0,8.8,0,11,0 l4.4,0,2.2,0 c0.6,0,1.3,0,2.2,0,0,0,2.2,0,2.2,0 l2.2,0,2.2,0 v0 h2.2 v0 l2.2,0,2.2,0 c0.2,0,0.3,0,0.3,0 l-0.3,0 v0 c0.6,0,1.3,0,2.2,0 h2.2 c-0.2,0,-0.2,0,0,0 v0 l2.4,0,-0.2,0,2.5,0,1.2,0,2.9,0 v0 l2.2,0 c0,0,0.2,0,0.6,0,0.4,0,1,0,1.6,0 V0 h2.2 v0 l6.6,0 c0,0,2.2,0,2.2,0 l4.4,0 h2.2 l4.4,0,4.4,0 h2.2 a10,0,0,0,1,2.2,0 h4.4 v0 h2.2 v0 h2.2 l3.4,0 s1.2,0,1.3,0 l-0.3,0 c0.8,0,1.7,0,2.5,0,0.8,0,1.4,0,1.9,0 l1.5,0,1.1,0 c0.2,0,1.8,0,1.8,0,0,0,0.3,0,0.5,0 l1.7,0,-0.5,0,1.7,0,1,0 h2.2 l8.8,0 h11 c4.4,0,2.2,0,4.4,0,1.5,0,3.9,0,6.6,0,4.4,0,4.4,0,8.8,0 h8.8 c2.2,0,2.2,0,6.6,0,4.4,0,2.2,0,6.6,0 l2.2,0 v0 l2.2,0 c1.4,0,2.9,0,4.4,0 l0.9,0,5.7,0 v0 l2.2,0 h2.2 l2.2,0 v0 l2.2,0 c0.1,0,0.9,0,2.2,0 l3.4,0,5.7,0,-1.2,0,3,0 v0 l2.3,0 c-0.2,0,-0.2,0,0,0 v0 l2.2,0 c0.2,0,0.2,0,0,0 l2.2,0 s13.2,0,22,0 v0 h4.4 l8.8,0 h13.2 c-0.2,0,-0.2,0,0,0,0.3,0,1,0,2.2,0 l2.2,0 a3,0,0,0,1,0,0 l0.5,0,1.7,0 c2.2,0,2.2,0,4.4,0,0.2,0,0.2,0,0,0 l-2.2,0,2.2,0,-2.2,0 c2.2,0,2.2,0,4.4,0 v0 l2.2,0,4.4,0,4.4,0,4.4,0,2.2,0,2.2,0 v0 h2.2 l2.2,0 v0 h2.2 l2.2,0,4.4,0 c2.1,0,4.4,0,6.6,0,2.9,0,5.9,0,8.8,0 h2.2 V0 l2.2,0,4.4,0,-2.2,0 V0 h2.2 l-2.2,0 v0 c2.2,0,2.2,0,2.2,0 h2.2 l2.2,0,2.2,0 c0.4,0,1.2,0,2.2,0 h2.2 l-2.2,0,2.2,0 v0 l2.2,0,2.2,0 v0 l2.2,0 v0 l2.2,0,2.2,0 v0 h2.2 l2.2,0 h4.4 l2.2,0 c0.5,0,1.3,0,2.2,0 l2.2,0 v0 c1.6,0,3.1,0,4.4,0 V0 h2.2 l2.2,0,0.3,0,-0.3,0 h2.2 l2.2,0 v0 l2.2,0 c0,0,0.2,0,0.6,0,0.4,0,1,0,1.6,0 l2.2,0,2.2,0,1,0 c0.5,0,0.4,0,0.7,0,-0.2,0,0.2,0,0.2,0,0,0,0,0,0.3,0 V0 l2.2,0 v0 c0,0,-2.2,0,-2.2,0 h2.2 l2.2,0 v0 l2.2,0 v0 h2.2 l2.2,0 v0 c-0.2,0,-0.2,0,0,0 H1560.3 l8.8,0,11,0,8.8,0,11,0 h2.2 v0 l2.2,0,4.4,0 v0 h4.4 v0 c-0.4,0,-0.4,0,0,0,1.3,0,2,0,2.2,0 v0 l2.2,0 c0.8,0,1.5,0,2.2,0 v0 c2.2,0,4.4,0,8.8,0 s2.2,0,6.6,0 l6.6,0 c4.4,0,2.2,0,6.6,0,4.4,0,4.4,0,4.4,0,0,0,2.2,0,4.4,0 l8.8,0 a50,0,0,0,1,4.4,0 c4.4,0,2.2,0,4.4,0 v0 l2.2,0,2.2,0 v0 l2.2,0 v0 l2.2,0,2.2,0,2.2,0 s2.2,0,2.2,0 v0 c2.2,0,6.6,0,6.6,0 l2.2,0 c-0.3,0,-0.3,0,0,0 l3.8,0,2.8,0 v0 c0.4,0,1.2,0,2.2,0,0.6,0,1.3,0,2.2,0 v0 c2.2,0,0,0,8.8,0 a27,0,0,0,1,6.6,0 c-0.1,0,0.3,0,1,0,0.9,0,2,0,3.4,0 V0 l2.2,0 v0 h2.2 l2.2,0 c2.2,0,0,0,2.2,0 l0.8,0,4,0,1.8,0 V0 l2.2,0 h2.2 v0 a5,0,0,0,1,0,0 l2.2,0 v0 l2.2,0 v0 h2.2 v0 c0.9,0,1.6,0,2.2,0 v0 l2.2,0,2.2,0,-2.2,0 v0 c0.3,0,1,0,2.2,0 h2.2 v0 c0,0,-2.2,0,-2.2,0 s3.2,0,3.5,0 l5.3,0 v0 c0.2,0,6.4,0,6.6,0 l1.9,0 c2.2,0,2.5,0,4.7,0 l6.6,0,8.8,0 c2.2,0,6.6,0,6.6,0,1.3,0,2.7,0,4.4,0 v0 l2.2,0 c-0.2,0,-0.2,0,0,0 l2.2,0 h2.2 v0 l2.2,0 c0.2,0,0.2,0,0,0 V0 v0 l6.6,0 c1.8,0,3.4,0,4.4,0 l2.2,0,2.2,0 c0.4,0,1.2,0,2.2,0 v0 h6.6 v0 l2.2,0 V0 h2.2 v0 c1.3,0,2,0,2.2,0 l6.6,0 c4.4,0,4.4,0,6.6,0 l4.4,0,4.4,0 c0.6,0,1.6,0,2.8,0,1.1,0,2.4,0,3.8,0,2.2,0,4.4,0,8.8,0 l4.4,0,4.4,0 a28,0,0,0,1,2.2,0 c0,0,0,0,2.2,0 v0 h4.4 v0 l2.2,0 v0 h2.2 v0 c0.6,0,1.1,0,1.5,0,0.4,0,0.7,0,0.7,0 v0 l2.2,0 v0 z"/>
    <path
            to-d="M15.1,39.5 l-3.8,-0.6 S7.7,38,0,42.4 V0 h1920 V44.6 l-9.8,0.5,-7.7,0.6 H1889 c0.2,-0.2,0.2,-0.4,0,-0.6,0.4,-0.6,0.4,-1.3,0,-1.9 a82,82,0,0,1,-9.5,0.5 c0,-0.3,-0.7,-0.8,-1,-1 l-2,1,-4.7,-1.1 c-3.9,-4.3,-5.8,-3.7,-5.8,-3.7 l-2,0.6 v-0.6 l-1.8,-0.6 v-0.6 h-3.9 v-1.3 l-1.9,-1.2,-2,0.6 v-0.6 l-1.8,1.2 v-1.8 c-1,0.3,-1.6,0.8,-2,1.2 l2,1.2 v0.7 l-2,1.2 c-0.2,0.4,-0.2,0.8,0,1.2 h-3.8 c-2.5,0.2,-5.1,0.2,-7.7,0 h-3.8 c-0.9,0.1,-1.6,0.4,-2,0.6 h-1.9 V37 l-1.9,0.7 v0.6 h-1.9 v-0.6 l-2,-0.7,-1.8,1.3,-2,0.6 v-0.6 l-1.9,0.6 s-1.9,-1.2,-3.8,-1.9 l-2,0.7,-1.9,1.8 v-1.8 l-1.9,3.7,-1.9,-0.7,-2,0.7 h-3.8 l-1.9,0.6 v-0.6 l-1.9,1.2 c-1.4,0.3,-2.7,0.8,-3.8,1.2 l-2,-0.6 V42 l-5.7,0.6 v0.6 l-3.9,1.9 v-0.7 l-1.9,-0.6 v1.3 l-1.9,0.6 v0.6 h-3.8 l-2,-0.6 V47.5 l-1.9,-1.2 v1.2 l-1.9,1.3 c0.2,-0.2,0.2,-0.4,0,-0.7 V47 s-2,0.6,-2,-0.6 h-1.8 v1.2 c-0.5,0.4,-0.5,0.9,0,1.3 V50 h-3.9 v-0.6 h-1.9 l-7.7,-1.3,-9.6,-3.7,-7.7,-4.3,-9.6,3.7 c-0.3,0.3,-1,0.5,-1.9,0.6 v-0.6 h-1.9 v0.6 l-2,-1.2,-1.8,0.6 v0.6 h-3.9 v-1.2 a5,5,0,0,1,0,-2.5 h-3.9 c0.3,-0.4,0.3,-0.8,0,-1.2 l-1.8,0.6,-2,0.6 c-1.9,-1.8,-5.7,-2.4,-7.6,-2.4 l-5.8,2.4,-3.8,1.9 c-3.9,0.6,-5.8,0,-7.7,-0.6,-2,-0.6,0,-3.7,-2,-5.6,-1.9,-1.8,-1.9,-0.6,-3.8,-0.6 l-7.7,-1.2 c-1.7,0.6,-3.6,1.3,-5.7,1.8 l-3.9,3.1 v1.2 l-1.9,2.5 h-1.9 v-0.6 l-2,-0.6 v1.2 l-3.8,0.6,-1.9,0.6 h-1.9 l2,-0.6,-2,-0.6 c-2,0,-5.8,0,-5.8,3.1,0,-1.2,-1.9,0,-1.9,-0.6,-0.4,-0.4,-0.4,-0.9,0,-1.3,0.3,-0.4,0.3,-0.8,0,-1.2 l-1.5,0.1,1.5,-0.7,-1.9,-1.2 v1.2 l-2,-0.6 v1.2 l-1.8,0.6,1.9,1.3 h-2 a35.6,35.6,0,0,1,-3.8,-1.3 c-1.9,-1.2,0,-2.4,-7.7,-1.8,-2,0,-4,0.2,-5.7,0.6,-0.3,-0.3,-0.8,-0.6,-1.5,-0.8,-0.6,-0.2,-1.5,-0.4,-2.4,-0.4 V40 l-9.6,-3.8,-11.5,-0.5,1.5,0.8 h-4.3 c1,-0.4,-1.3,-2.8,-1,-3.3,-0.3,-0.6,-1,-1.2,-2,-1.8 l-4.7,-1.7 c1.2,0.5,-4,2.2,-6.8,3,0.3,-0.5,0.3,-1,0,-1.3 l-1.9,0.6 c0.2,-0.4,0.2,-0.8,0,-1.2 v0.6 l-5.7,-3.1 c-2,0.6,-7.7,-5.6,-7.7,-5.6 l-5.8,-4.3 c-1.9,-1.2,-5.7,0.6,-7.7,1.9,-0.3,0.6,-1,1.2,-1.9,1.8 l-1.9,0.6 c-0.5,-0.4,-1.1,-0.8,-2,-1.2 v-0.6 h2 l-3.8,-0.6 V21 l-2,-1.2,-1.9,0.6 v1.2,-1.2 c0.5,0.5,1.2,0.9,2,1.3 v0.6 l-2,-0.6 v0.6 l-3.8,0.6 c-1.6,0.3,-3,0.7,-3.9,1.2 h-1.9 l2,-0.6,-2,-0.6,-1.9,1.2 c-0.4,0.5,-1,1,-2,1.3 h-1.8 l1.9,-0.6,-2,-0.7,-1.9,0.7,2,-1.9,-1.6,-1,-2,0.6,-2.2,1 v1.3 l-2,-0.7 v0.7 s0,-1.3,-1.8,-0.7 a0.6,0.6,0,0,1,0,0.7 l-5.8,1.8 c-3.8,0.6,-2,1.9,-5.8,2.5,-3.8,0.6,-1.9,2.5,-3.8,2.5 l-5.8,-1.3 c-0.5,-0.3,-1.4,-0.6,-2.4,-0.8,-1,-0.2,-2.1,-0.4,-3.3,-0.4 l-7.7,2.5,-3.8,2.4,-3.9,1.9,-1.9,1.2 v-0.6 l-2,-1.2 v-0.7 h-3.8 v-0.6 l-1.9,0.6 v-1.2 h-1.9 v0.6 c-0.5,0,-1,0,-1.4,0.2,-0.3,0.1,-0.5,0.3,-0.5,0.4 l1.9,0.7,-2,1.2 v-0.6 c0.2,-0.2,0.2,-0.4,0,-0.6 h-1.8 v-1.9 c-0.5,-0.8,-1.1,-1.7,-2,-2.5 l-3.8,4.4 h-2 v-0.7 l-1.8,0.7 v0.6 l-3.9,0.6 v0.6 l-5.7,1.2,-2,0.7 v-0.7 l-5.7,0.7 c-1.1,0.3,-1.8,0.7,-2,1.2 h-3.8 c0.2,-0.2,0.2,-0.4,0,-0.6 l-1.9,-0.6,-2,-1.9 h-1.8 v1.9 c-0.2,0.4,-0.2,0.8,0,1.2 h-3.9 v-0.6 h-5.8 v-1.3 h-1.9 V42 l-2.2,-0.1 a5,5,0,0,1,-1.6,-0.5 c0.3,-1,0.3,-2.1,0,-3.1 l-1,-0.1,-8.6,-0.5,-9.6,-0.7 h-7.7 c-3.8,0,-3.8,1.3,-5.7,1.9,-1.4,0.6,-3.5,1,-5.8,1.2 l-7.7,1.9 h-5.7 c-2,0,-3.9,2.4,-7.7,3,-3.9,0.7,-2,0,-3.9,-0.6 v-0.6 c0.2,-0.2,0.2,-0.4,0,-0.6 v-0.6 h-1.9 v1.2 l-3.8,3.1,-5.8,-1.8,-1.9,-0.7 v-0.6 h-2 V42 h-3.8 v0.6 l-1.9,-1.2 v-0.7 l-1.9,0.7 v-0.7 c-0.1,-0.4,-0.8,-0.9,-2,-1.2,-1.7,0.3,-5.2,0.8,-5.2,1,0,0.3,-1.3,1.4,-2,2 l-2.3,-0.5,-2,-0.6 c0.2,-0.2,0.2,-0.5,0,-0.7 v-1.2 c-0.8,0.4,-1.5,0.8,-1.9,1.2 l-3.8,-0.6 s-9.6,0,-17.3,4.3 v0.7 h-3.8 l-7.7,0.6 h-13.4 v-0.6 c0.3,-0.6,0.3,-1.3,0,-1.9 l-6.8,-0.8 c-0.5,0.4,-1.5,1.3,-1.5,1.6,0,0.2,-1.3,0.7,-2,0.9 l-5.1,-1 V45 l-2,-2.5,-3.8,-3.7 h-3.8 v-0.6 V37 l-2,0.7 v-0.7 l-1.8,0.7 v-0.7 h-2 v-0.6 l-1.9,-1.2,-1.9,0.6,-2,0.6 V39 c-0.8,0.4,-1.5,0.8,-1.8,1.2 h-3.9 l-2.5,0.8,-1.5,1,-5.6,-1.8 v-0.6 l-1.9,0.6 c-0.2,0.2,-0.2,0.4,0,0.6 h-3.8 v-3 h-2 l-1.9,0.6 v-1.9 l-15.3,1.3,-2,3 h-1.9 v0.7 h-3.8 l-3.9,0.6 v-0.6 l-1.9,0.6 v0.6 c-1.4,0.3,-2.7,0.8,-3.8,1.2 V42 l-4.7,3,-1.5,-0.4,0.4,-0.8,-1.9,-0.6,-2,0.6,-6.5,-0.8,2.5,1,0.2,1 V46.4 l-6.2,-2 c-0.2,0.4,-0.3,1.2,0.5,1.4 V47.5 l-3.5,-0.2,-2,-1.2,-2.2,1.4 a0.6,0.6,0,0,1,0,0.6 V50 c-0.4,-0.3,-1,-0.5,-2,-0.6 V50 h-1.8 v-0.6 h-2 l-7.6,-1.3,-9.6,-4.3,-7.7,-3.7,-9.6,3.7 h-6.3 c0,0.2,-5.8,-0.2,-8.7,-0.5 l-4.2,-2 v-0.6 c-2,-1.8,-3.9,-2.4,-7.7,-2.4,-3.8,0,-2,0.6,-5.8,2.4 l-5.7,1.9 c-2,0.6,-3.9,0,-5.8,-0.6 s0,-3.7,-1.9,-5.6 c-2,-1.8,-2,-0.6,-3.8,-0.6 l-7.7,-1.2 c-1.8,0.6,-3.7,1.3,-5.8,1.8 l-3.8,4.3,-2,2.5 h-1.9 v-0.6 l-1.9,-1.2 V43.2 l-3.8,0.6,-2.2,1,-9.5,-4.5,-1.8,1 v1.3 l-1.9,-0.6 v1.2 l-1.9,0.6,2,1.3 h-2 c-1.1,-0.5,-2.4,-0.9,-3.8,-1.3 v-0.6 c-2,-1.2,0,-1.8,-7.7,-1.2,-2,0,-4,0.2,-5.8,0.6,-0.3,-0.3,-0.7,-0.6,-1.4,-0.8 l-5.2,-1,-2.5,0.4 a25,25,0,0,1,-4.5,0.6 c-0.4,0.3,-3.2,-2,-4.5,-3 l-3.5,-2.8,-3.3,0.4,-7.7,-0.6,1.9,-1.2 c0.3,-0.4,0.3,-0.9,0,-1.3,-0.8,-0.8,-2.4,-2.4,-2.4,-2,0,0.7,-1.5,1.3,-1.5,1.6,0,0.2,-1.7,-0.5,-2.5,-1 l-0.5,-2,-8.5,1.6,-3.8,-3.1 c-2,0.6,-5.8,-5.6,-7.7,-5.6 l-5.7,-4.3 c-2,-1.2,-5.8,0.6,-7.7,1.9 l-3.9,1.8 v0.6 c-0.4,-0.4,-1,-0.8,-1.9,-1.2 v-0.6 h2 l-3.9,-0.6 V21 l-0.3,0.6,-1.6,-0.7,-2,-0.5 v1.2,-1.2 c0.6,0.5,1.2,0.9,2,1.3 l-1,1.2 h-6.7 c-1,0.4,-1.6,0.8,-2,1.2 H883 v-0.6 c1.9,-0.6,0,-0.6,-2,-0.6 v1.2 c-0.4,0.5,-1,1,-1.9,1.3 h-1.9 v-1.3 l-2,0.7,-1.8,-0.7,1.9,-1.8,-2,1.2 h-4.8 l-8.6,3.1,-5.7,2.5,-2,2.5,-5.7,-1.3 c-0.6,-0.3,-1.4,-0.6,-2.4,-0.8 a19.6,19.6,0,0,1,-13,2 l-3.8,2.5,-2,1.9,-1.9,1.2 c0,-1.2,-1.9,0,-1.9,-0.6 l-1.9,-0.6,-2,-1.3 v-0.6 h-1.8 V37 l-2,-1.2,-1.9,0.6,-0.2,0.3 c0,0.1,0,0.2,0.2,0.3 V38.3 c-0.5,-0.3,-1.2,-0.5,-1.9,-0.6 h-2 c0.2,-0.2,0.2,-0.5,0,-0.7 v-1.2 l-2,0.2,0.1,0.7,-2.1,1.1,-1.1,-1.4,-2.5,0.6 V38.3 l-2,0.6 c0,0.2,-0.1,0.3,-0.5,0.4 l-1.3,0.2 v-0.6 h-2 v0.6 l-5.7,1.9 c0,-0.7,-2,-1.9,-2,-0.7 l-3.8,0.7 h-1.9 l-3.8,0.6,-3.9,-0.6 h-1.9 a8,8,0,0,1,-2,1.2 h-3.8 v-0.6 H764 v-0.6 H762 l-3,-1.1 s-1,0.8,-1.1,1.4 c0,0,0,0.2,0.3,0.3 l-2.3,-0.1 a5,5,0,0,1,-1.6,-0.5 l-1.3,-0.2,-1,-0.6 c-0.1,-0.2,-1.5,-0.3,-1.5,0,0,0.2,-0.3,0.2,-0.4,0.1 l-1.6,-0.7,0.5,-1.6,-1.5,1,-0.9,-1.7 h-1.9 l-7.7,-0.7 h-9.6 c-3.8,0,-1.9,1.3,-3.8,1.9,-1.4,0.6,-3.4,1,-5.8,1.2,-3.8,0,-3.8,1.3,-7.6,1.9 h-7.7 c-2,0,-2,2.4,-5.8,3,-3.8,0.7,-1.9,0,-5.7,-0.6 l-2,0.7 v0.6 l-1.9,1.2 c-1.2,0.2,-2.5,0.5,-3.8,0.6 l-0.8,-1.4,-5,-2.9 v-0.6 l-1.9,-0.6 h-2 l-1.8,0.6 v-1.2 l-2,-0.7 c0,-0.4,-0.8,-0.9,-1.9,-1.2 l-3,-0.2,-4.9,0.4,1,1.2,-2.7,0.5 V42 l-1.9,-0.6 V40 l-2,-0.6 v1.2 l-1.8,-0.6 s-11.6,0,-19.2,4.3 v-0.6 h-3.9 l-7.7,0.6 h-11.5 c0.2,-0.2,0.2,-0.4,0,-0.6,-0.2,-0.6,-0.9,-1.3,-1.9,-1.8 l-2,0.6 a1,1,0,0,1,0,-1.2 l-0.4,-0.2,-1.4,2 c-2,0.6,-2,-1.2,-3.9,-1.8 V40 l2,-0.6,-2,-0.6,2,-0.6 c-2,-1.3,-2,0.6,-3.9,1.8 v2.5 l-2,-0.6,-3.8,1.2,-3.8,-1.9,-3.8,-3.6,-2,0.6,-1.9,-0.6 v-1.3 h-1.9 l-2,0.6 v-1.2 h-1.8 l-2,-1.2,-3.8,5 c-1.9,-0.3,-3.9,-0.3,-5.8,0 a65.2,65.2,0,0,1,-9.6,0 v-0.7 l-1.9,0.6,-3.8,0.6,1.9,-0.6 v-0.6 h-2 l2,-1.9 v-0.6 c-2,-0.6,-2,0.6,-2,0.6 H547 l-2,-1.2,-1.9,1.2 c-0.4,0.5,-1,0.9,-1.9,1.3 h-2 l2,-0.6,-2,-0.7 v-0.6 l-1.8,1.3,-2,-0.7 v0.7 l-1.9,-1.3 V37.7 l-1.9,0.6,-2,0.6 V40 h-1.8 l-2,0.6 H522 l-2,0.7 c-0.4,-0.3,-1,-0.5,-1.8,-0.7 l-2,0.7 V42 c-1.4,0.3,-2.7,0.7,-3.8,1.2 V41.4 h-2 l-1.8,0.6,-0.3,-0.3 c0,-0.1,0,-0.2,0.3,-0.3 h-2 l-1.9,1.8 v-2.5 l-1.9,3.1 c0,0.2,-0.2,0.3,-0.6,0.5 l-1.3,0.1,-2,0.7,-1.9,0.6,-1,-0.1 c-0.3,0,-0.2,0.1,-0.5,0.2,0.2,0,-0.1,-0.3,-0.1,-0.4 l-0.3,-0.3 v-0.7 l-1.9,0.7 v0.6 c0,0.6,2,-1.3,2,0.6 h-2 l-2,0.6 v0.6 l-1.8,-0.6 v-0.6 h-2 l-1.9,0.6 a0.6,0.6,0,0,1,0,0.6 c0.2,0.4,0.2,0.9,0,1.3 h-5.8 l-7.6,-1.9,-9.6,-3.7,-7.7,-3.7,-9.6,3.7 h-2 v-0.6 l-1.8,0.6,-3.9,-0.6 v0.6 h-3.8 v-0.6 c0.3,-1,0.3,-2,0,-3,-1.2,0.5,-1.8,1.1,-2,1.8 v1.2 l-1.9,-0.6,-1.9,-0.6 V40 c-1.9,-1.8,-3.8,-2.4,-7.7,-2.4,-3.8,0,-1.9,0.6,-5.7,2.4 l-5.8,1.9 c-3.8,0.6,-1.9,0,-5.7,-0.6,-3.9,-0.7,-3.9,-5,-3.9,-6.2,0,-1.2,-1.9,-1.2,-3.8,-0.6 l-7.7,-0.6,-3.8,1.2 c-3.9,0.6,-2,1.2,-3.9,3 v-0.5 l-1.9,1.8,-2,3 v-1.8 l-1.8,1.3 v-0.6 l-2,0.6,-1.9,0.6,-1.9,0.6 s-2,1.2,-2,0 v-0.6 c-1.8,-0.6,-5.7,-0.6,-5.7,2.5 l-1.9,-1.3 c0.3,-0.4,0.3,-0.8,0,-1.2 l-3.3,-2.3,-2.5,2.3 v1.2 c-0.3,0.3,-1,0.5,-1.9,0.6 l-1.9,-1.2 v-0.6 c-2,-1.2,0,-1.9,-7.7,-1.2,-2,0,-4,0.2,-5.7,0.6,0,-0.4,-0.3,-0.8,-1,-1.2,-0.7,-0.3,-1.7,-0.5,-2.9,-0.7 V39 L330,40 v-2.4 h-2 l-1.8,-1.9 c-2,-0.6,0,3,-2,3 l-0.7,-0.7,-3.5,-0.9,-1.5,1 V39.6 l-2,-0.6 h-1.9 v-0.6 c0.2,-0.4,0.2,-0.9,0,-1.3 l-1.9,-0.6 v-0.6 l-1.9,0.6 v-0.6 h-2 V37 c-0.7,0.2,-1.4,0.4,-1.8,0.7 v0.6 l-2,-1.3,-1.9,-2.4,2,-1.3 v-0.6 c-0.3,-0.6,-1,-1.3,-2,-1.8 h-1.9 v-0.7 c0,-1.2,2,0,2,-0.6,0,-0.5,-2.9,-0.9,-3.2,-0.4 l-4.6,0.4 v1.2 c-0.1,-0.4,-5.6,-0.8,-5.7,-1.2 l-1.7,-0.2 c-2,-1.2,-2.2,-2.2,-4,-1.6 l-5.8,-5.6,-7.7,-5 c-2,-1.2,-5.8,0.7,-5.8,2.6 L261,21 v0.6 l-2,0.6 c0.2,-0.4,0.2,-0.8,0,-1.2 l-1.9,-1.2 h-1.9 v-0.7 l-1.9,0.7 c-0.2,0.4,-0.2,0.8,0,1.2 v2.5 l-5.8,0.6 a12,12,0,0,1,-3.8,1.2 l-2,-1.2,-1.8,1.2 c-0.4,0.5,-1,0.9,-2,1.2 v-1.2 h-5.7 V26 l-2,-1.2 V26.5 h-1.9 v-1.2 c-1,0.3,-1.8,0.8,-1.9,1.2 l-5.7,1.3 c-3.9,0.6,-3.9,2.4,-5.8,3 l-3.8,2,-3.9,-0.7 c-0.6,-0.3,-1.4,-0.6,-2.4,-0.8,-1,-0.3,-2.1,-0.4,-3.3,-0.4,-2,-0.7,-3.9,0.6,-7.7,1.8 l-3.9,2.5,-3.8,2.5 a32,32,0,0,1,-2,0.6 c0,-1.3,0,0.6,-1.8,-0.6 v-1.9 h-3.9 v-0.6 l-1.9,1.2 v-1.8 h-2 v0.6 c-0.4,0,-1,0,-1.3,0.2,-0.3,0,-0.5,0.2,-0.5,0.4 l-0.1,1.1,-1.9,-0.5 v-1.2 c-0.3,-1,-1,-2.1,-1.9,-3.1 v-1.2 l-3.8,3.7,-2,2.4 v-1.2 l-1.9,0.6,-1.9,0.6 h-1.9 v0.7 l-2,0.6 v1.2 l-1.8,-0.6,-2,-0.6 v1.2 h-3.8 l-2,0.6 s-1.8,0.6,-1.8,-0.6 h-2 l-0.2,0.3 c0,0.1,0,0.2,0.2,0.3,0.1,0.2,-3.2,0.6,-3.8,0.6 l-3,-0.4,-0.8,-1.4 h-2 l-1.2,0.8,1.2,1 a9,9,0,0,1,-1.9,1.3 h-3.8 V40.7 h-2 l-1.9,-0.6 v1.3 l-1.9,-1.3 v-0.6 l-1.9,1.2 v0.7 c-0.8,0,-1.5,0,-2.2,-0.2 a5,5,0,0,1,-1.6,-0.5 v-0.6 l-2,-3.7 c-1,0.8,-1.6,1.6,-1.9,2.5 v-0.6 l-3.8,-1.9 h-2 l-7.6,-0.6 H88 c-3.9,0,-2,1.9,-3.9,2.5,-0.9,0.4,-2,0.7,-3.3,0.9,-1.4,0.2,-2.8,0.3,-4.3,0.3 l-5.8,1.2 h-7.7 l-7.7,3.1 c-1.9,0.6,-1.9,0,-3.8,-0.6 l-3.8,2.5,-3.9,1.2 H42 v-0.6 l-2,0.6,-3,-0.5,3,-2 v-0.6 c0,-1.2,-1.8,0.6,-1.8,-0.6 V41.4 h-5.8 l-2,-1.3 v0.6 l-1.8,-0.6 c-0.2,-0.5,-0.8,-0.9,-2,-1.2,-0.3,-0.3,-1,-0.5,-1.9,-0.6 L21,39.5 v0.6 l-2,1.3 v-0.7 l-3.8,-0.6 v-0.6 z"
            fill="#000000" duration="0.5"
            d="M15.1,0 l-3.8,0 S7.7,0,0,0 V0 h1920 V0 l-9.8,0,-7.7,0 H1889 c0.2,0,0.2,0,0,0,0.4,0,0.4,0,0,0 a82,0,0,0,1,-9.5,0 c0,0,-0.7,0,-1,0 l-2,0,-4.7,0 c-3.9,0,-5.8,0,-5.8,0 l-2,0 v0 l-1.8,0 v0 h-3.9 v0 l-1.9,0,-2,0 v0 l-1.8,0 v0 c-1,0,-1.6,0,-2,0 l2,0 v0 l-2,0 c-0.2,0,-0.2,0,0,0 h-3.8 c-2.5,0,-5.1,0,-7.7,0 h-3.8 c-0.9,0,-1.6,0,-2,0 h-1.9 V0 l-1.9,0 v0 h-1.9 v0 l-2,0,-1.8,0,-2,0 v0 l-1.9,0 s-1.9,0,-3.8,0 l-2,0,-1.9,0 v0 l-1.9,0,-1.9,0,-2,0 h-3.8 l-1.9,0 v0 l-1.9,0 c-1.4,0,-2.7,0,-3.8,0 l-2,0 V0 l-5.7,0 v0 l-3.9,0 v0 l-1.9,0 v0 l-1.9,0 v0 h-3.8 l-2,0 V0 l-1.9,0 v0 l-1.9,0 c0.2,0,0.2,0,0,0 V0 s-2,0,-2,0 h-1.8 v0 c-0.5,0,-0.5,0,0,0 V0 h-3.9 v0 h-1.9 l-7.7,0,-9.6,0,-7.7,0,-9.6,0 c-0.3,0,-1,0,-1.9,0 v0 h-1.9 v0 l-2,0,-1.8,0 v0 h-3.9 v0 a5,0,0,0,1,0,0 h-3.9 c0.3,0,0.3,0,0,0 l-1.8,0,-2,0 c-1.9,0,-5.7,0,-7.6,0 l-5.8,0,-3.8,0 c-3.9,0,-5.8,0,-7.7,0,-2,0,0,0,-2,0,-1.9,0,-1.9,0,-3.8,0 l-7.7,0 c-1.7,0,-3.6,0,-5.7,0 l-3.9,0 v0 l-1.9,0 h-1.9 v0 l-2,0 v0 l-3.8,0,-1.9,0 h-1.9 l2,0,-2,0 c-2,0,-5.8,0,-5.8,0,0,0,-1.9,0,-1.9,0,-0.4,0,-0.4,0,0,0,0.3,0,0.3,0,0,0 l-1.5,0,1.5,0,-1.9,0 v0 l-2,0 v0 l-1.8,0,1.9,0 h-2 a35.6,0,0,0,1,-3.8,0 c-1.9,0,0,0,-7.7,0,-2,0,-4,0,-5.7,0,-0.3,0,-0.8,0,-1.5,0,-0.6,0,-1.5,0,-2.4,0 V0 l-9.6,0,-11.5,0,1.5,0 h-4.3 c1,0,-1.3,0,-1,0,-0.3,0,-1,0,-2,0 l-4.7,0 c1.2,0,-4,0,-6.8,0,0.3,0,0.3,0,0,0 l-1.9,0 c0.2,0,0.2,0,0,0 v0 l-5.7,0 c-2,0,-7.7,0,-7.7,0 l-5.8,0 c-1.9,0,-5.7,0,-7.7,0,-0.3,0,-1,0,-1.9,0 l-1.9,0 c-0.5,0,-1.1,0,-2,0 v0 h2 l-3.8,0 V0 l-2,0,-1.9,0 v0,-1.2 c0.5,0,1.2,0,2,0 v0 l-2,0 v0 l-3.8,0 c-1.6,0,-3,0,-3.9,0 h-1.9 l2,0,-2,0,-1.9,0 c-0.4,0,-1,0,-2,0 h-1.8 l1.9,0,-2,0,-1.9,0,2,0,-1.6,0,-2,0,-2.2,0 v0 l-2,0 v0 s0,0,-1.8,0 a0.6,0,0,0,1,0,0 l-5.8,0 c-3.8,0,-2,0,-5.8,0,-3.8,0,-1.9,0,-3.8,0 l-5.8,0 c-0.5,0,-1.4,0,-2.4,0,-1,0,-2.1,0,-3.3,0 l-7.7,0,-3.8,0,-3.9,0,-1.9,0 v0 l-2,0 v0 h-3.8 v0 l-1.9,0 v0 h-1.9 v0 c-0.5,0,-1,0,-1.4,0,-0.3,0,-0.5,0,-0.5,0 l1.9,0,-2,0 v0 c0.2,0,0.2,0,0,0 h-1.8 v0 c-0.5,0,-1.1,0,-2,0 l-3.8,0 h-2 v0 l-1.8,0 v0 l-3.9,0 v0 l-5.7,0,-2,0 v0 l-5.7,0 c-1.1,0,-1.8,0,-2,0 h-3.8 c0.2,0,0.2,0,0,0 l-1.9,0,-2,0 h-1.8 v0 c-0.2,0,-0.2,0,0,0 h-3.9 v0 h-5.8 v0 h-1.9 V0 l-2.2,0 a5,0,0,0,1,-1.6,0 c0.3,0,0.3,0,0,0 l-1,0,-8.6,0,-9.6,0 h-7.7 c-3.8,0,-3.8,0,-5.7,0,-1.4,0,-3.5,0,-5.8,0 l-7.7,0 h-5.7 c-2,0,-3.9,0,-7.7,0,-3.9,0,-2,0,-3.9,0 v0 c0.2,0,0.2,0,0,0 v0 h-1.9 v0 l-3.8,0,-5.8,0,-1.9,0 v0 h-2 V0 h-3.8 v0 l-1.9,0 v0 l-1.9,0 v0 c-0.1,0,-0.8,0,-2,0,-1.7,0,-5.2,0,-5.2,0,0,0,-1.3,0,-2,0 l-2.3,0,-2,0 c0.2,0,0.2,0,0,0 v0 c-0.8,0,-1.5,0,-1.9,0 l-3.8,0 s-9.6,0,-17.3,0 v0 h-3.8 l-7.7,0 h-13.4 v0 c0.3,0,0.3,0,0,0 l-6.8,0 c-0.5,0,-1.5,0,-1.5,0,0,0,-1.3,0,-2,0 l-5.1,0 V0 l-2,0,-3.8,0 h-3.8 v0 V0 l-2,0 v0 l-1.8,0 v0 h-2 v0 l-1.9,0,-1.9,0,-2,0 V0 c-0.8,0,-1.5,0,-1.8,0 h-3.9 l-2.5,0,-1.5,0,-5.6,0 v0 l-1.9,0 c-0.2,0,-0.2,0,0,0 h-3.8 v0 h-2 l-1.9,0 v0 l-15.3,0,-2,0 h-1.9 v0 h-3.8 l-3.9,0 v0 l-1.9,0 v0 c-1.4,0,-2.7,0,-3.8,0 V0 l-4.7,0,-1.5,0,0.4,0,-1.9,0,-2,0,-6.5,0,2.5,0,0.2,0 V0 l-6.2,0 c-0.2,0,-0.3,0,0.5,0 V0 l-3.5,0,-2,0,-2.2,0 a0.6,0,0,0,1,0,0 V0 c-0.4,0,-1,0,-2,0 V0 h-1.8 v0 h-2 l-7.6,0,-9.6,0,-7.7,0,-9.6,0 h-6.3 c0,0,-5.8,0,-8.7,0 l-4.2,0 v0 c-2,0,-3.9,0,-7.7,0,-3.8,0,-2,0,-5.8,0 l-5.7,0 c-2,0,-3.9,0,-5.8,0 s0,0,-1.9,0 c-2,0,-2,0,-3.8,0 l-7.7,0 c-1.8,0,-3.7,0,-5.8,0 l-3.8,0,-2,0 h-1.9 v0 l-1.9,0 V0 l-3.8,0,-2.2,0,-9.5,0,-1.8,0 v0 l-1.9,0 v0 l-1.9,0,2,0 h-2 c-1.1,0,-2.4,0,-3.8,0 v0 c-2,0,0,0,-7.7,0,-2,0,-4,0,-5.8,0,-0.3,0,-0.7,0,-1.4,0 l-5.2,0,-2.5,0 a25,0,0,0,1,-4.5,0 c-0.4,0,-3.2,0,-4.5,0 l-3.5,0,-3.3,0,-7.7,0,1.9,0 c0.3,0,0.3,0,0,0,-0.8,0,-2.4,0,-2.4,0,0,0,-1.5,0,-1.5,0,0,0,-1.7,0,-2.5,0 l-0.5,0,-8.5,0,-3.8,0 c-2,0,-5.8,0,-7.7,0 l-5.7,0 c-2,0,-5.8,0,-7.7,0 l-3.9,0 v0 c-0.4,0,-1,0,-1.9,0 v0 h2 l-3.9,0 V0 l-0.3,0,-1.6,0,-2,0 v0,-1.2 c0.6,0,1.2,0,2,0 l-1,0 h-6.7 c-1,0,-1.6,0,-2,0 H883 v0 c1.9,0,0,0,-2,0 v0 c-0.4,0,-1,0,-1.9,0 h-1.9 v0 l-2,0,-1.8,0,1.9,0,-2,0 h-4.8 l-8.6,0,-5.7,0,-2,0,-5.7,0 c-0.6,0,-1.4,0,-2.4,0 a19.6,0,0,0,1,-13,0 l-3.8,0,-2,0,-1.9,0 c0,0,-1.9,0,-1.9,0 l-1.9,0,-2,0 v0 h-1.8 V0 l-2,0,-1.9,0,-0.2,0 c0,0,0,0,0.2,0 V0 c-0.5,0,-1.2,0,-1.9,0 h-2 c0.2,0,0.2,0,0,0 v0 l-2,0,0.1,0,-2.1,0,-1.1,0,-2.5,0 V0 l-2,0 c0,0,-0.1,0,-0.5,0 l-1.3,0 v0 h-2 v0 l-5.7,0 c0,0,-2,0,-2,0 l-3.8,0 h-1.9 l-3.8,0,-3.9,0 h-1.9 a8,0,0,0,1,-2,0 h-3.8 v0 H764 v0 H762 l-3,0 s-1,0,-1.1,0 c0,0,0,0,0.3,0 l-2.3,0 a5,0,0,0,1,-1.6,0 l-1.3,0,-1,0 c-0.1,0,-1.5,0,-1.5,0,0,0,-0.3,0,-0.4,0 l-1.6,0,0.5,0,-1.5,0,-0.9,0 h-1.9 l-7.7,0 h-9.6 c-3.8,0,-1.9,0,-3.8,0,-1.4,0,-3.4,0,-5.8,0,-3.8,0,-3.8,0,-7.6,0 h-7.7 c-2,0,-2,0,-5.8,0,-3.8,0,-1.9,0,-5.7,0 l-2,0 v0 l-1.9,0 c-1.2,0,-2.5,0,-3.8,0 l-0.8,0,-5,0 v0 l-1.9,0 h-2 l-1.8,0 v0 l-2,0 c0,0,-0.8,0,-1.9,0 l-3,0,-4.9,0,1,0,-2.7,0 V0 l-1.9,0 V0 l-2,0 v0 l-1.8,0 s-11.6,0,-19.2,0 v0 h-3.9 l-7.7,0 h-11.5 c0.2,0,0.2,0,0,0,-0.2,0,-0.9,0,-1.9,0 l-2,0 a1,0,0,0,1,0,0 l-0.4,0,-1.4,0 c-2,0,-2,0,-3.9,0 V0 l2,0,-2,0,2,0 c-2,0,-2,0,-3.9,0 v0 l-2,0,-3.8,0,-3.8,0,-3.8,0,-2,0,-1.9,0 v0 h-1.9 l-2,0 v0 h-1.8 l-2,0,-3.8,0 c-1.9,0,-3.9,0,-5.8,0 a65.2,0,0,0,1,-9.6,0 v0 l-1.9,0,-3.8,0,1.9,0 v0 h-2 l2,0 v0 c-2,0,-2,0,-2,0 H547 l-2,0,-1.9,0 c-0.4,0,-1,0,-1.9,0 h-2 l2,0,-2,0 v0 l-1.8,0,-2,0 v0 l-1.9,0 V0 l-1.9,0,-2,0 V0 h-1.8 l-2,0 H522 l-2,0 c-0.4,0,-1,0,-1.8,0 l-2,0 V0 c-1.4,0,-2.7,0,-3.8,0 V0 h-2 l-1.8,0,-0.3,0 c0,0,0,0,0.3,0 h-2 l-1.9,0 v0 l-1.9,0 c0,0,-0.2,0,-0.6,0 l-1.3,0,-2,0,-1.9,0,-1,0 c-0.3,0,-0.2,0,-0.5,0,0.2,0,-0.1,0,-0.1,0 l-0.3,0 v0 l-1.9,0 v0 c0,0,2,0,2,0 h-2 l-2,0 v0 l-1.8,0 v0 h-2 l-1.9,0 a0.6,0,0,0,1,0,0 c0.2,0,0.2,0,0,0 h-5.8 l-7.6,0,-9.6,0,-7.7,0,-9.6,0 h-2 v0 l-1.8,0,-3.9,0 v0 h-3.8 v0 c0.3,0,0.3,0,0,0,-1.2,0,-1.8,0,-2,0 v0 l-1.9,0,-1.9,0 V0 c-1.9,0,-3.8,0,-7.7,0,-3.8,0,-1.9,0,-5.7,0 l-5.8,0 c-3.8,0,-1.9,0,-5.7,0,-3.9,0,-3.9,0,-3.9,0,0,0,-1.9,0,-3.8,0 l-7.7,0,-3.8,0 c-3.9,0,-2,0,-3.9,0 v0 l-1.9,0,-2,0 v0 l-1.8,0 v0 l-2,0,-1.9,0,-1.9,0 s-2,0,-2,0 v0 c-1.8,0,-5.7,0,-5.7,0 l-1.9,0 c0.3,0,0.3,0,0,0 l-3.3,0,-2.5,0 v0 c-0.3,0,-1,0,-1.9,0 l-1.9,0 v0 c-2,0,0,0,-7.7,0,-2,0,-4,0,-5.7,0,0,0,-0.3,0,-1,0,-0.7,0,-1.7,0,-2.9,0 V0 L330,0 v0 h-2 l-1.8,0 c-2,0,0,0,-2,0 l-0.7,0,-3.5,0,-1.5,0 V0 l-2,0 h-1.9 v0 c0.2,0,0.2,0,0,0 l-1.9,0 v0 l-1.9,0 v0 h-2 V0 c-0.7,0,-1.4,0,-1.8,0 v0 l-2,0,-1.9,0,2,0 v0 c-0.3,0,-1,0,-2,0 h-1.9 v0 c0,0,2,0,2,0,0,0,-2.9,0,-3.2,0 l-4.6,0 v0 c-0.1,0,-5.6,0,-5.7,0 l-1.7,0 c-2,0,-2.2,0,-4,0 l-5.8,0,-7.7,0 c-2,0,-5.8,0,-5.8,0 L261,0 v0 l-2,0 c0.2,0,0.2,0,0,0 l-1.9,0 h-1.9 v0 l-1.9,0 c-0.2,0,-0.2,0,0,0 v0 l-5.8,0 a12,0,0,0,1,-3.8,0 l-2,0,-1.8,0 c-0.4,0,-1,0,-2,0 v0 h-5.7 V0 l-2,0 V0 h-1.9 v0 c-1,0,-1.8,0,-1.9,0 l-5.7,0 c-3.9,0,-3.9,0,-5.8,0 l-3.8,0,-3.9,0 c-0.6,0,-1.4,0,-2.4,0,-1,0,-2.1,0,-3.3,0,-2,0,-3.9,0,-7.7,0 l-3.9,0,-3.8,0 a32,0,0,0,1,-2,0 c0,0,0,0,-1.8,0 v0 h-3.9 v0 l-1.9,0 v0 h-2 v0 c-0.4,0,-1,0,-1.3,0,-0.3,0,-0.5,0,-0.5,0 l-0.1,0,-1.9,0 v0 c-0.3,0,-1,0,-1.9,0 v0 l-3.8,0,-2,0 v0 l-1.9,0,-1.9,0 h-1.9 v0 l-2,0 v0 l-1.8,0,-2,0 v0 h-3.8 l-2,0 s-1.8,0,-1.8,0 h-2 l-0.2,0 c0,0,0,0,0.2,0,0.1,0,-3.2,0,-3.8,0 l-3,0,-0.8,0 h-2 l-1.2,0,1.2,0 a9,0,0,0,1,-1.9,0 h-3.8 V0 h-2 l-1.9,0 v0 l-1.9,0 v0 l-1.9,0 v0 c-0.8,0,-1.5,0,-2.2,0 a5,0,0,0,1,-1.6,0 v0 l-2,0 c-1,0,-1.6,0,-1.9,0 v0 l-3.8,0 h-2 l-7.6,0 H88 c-3.9,0,-2,0,-3.9,0,-0.9,0,-2,0,-3.3,0,-1.4,0,-2.8,0,-4.3,0 l-5.8,0 h-7.7 l-7.7,0 c-1.9,0,-1.9,0,-3.8,0 l-3.8,0,-3.9,0 H42 v0 l-2,0,-3,0,3,0 v0 c0,0,-1.8,0,-1.8,0 V0 h-5.8 l-2,0 v0 l-1.8,0 c-0.2,0,-0.8,0,-2,0,-0.3,0,-1,0,-1.9,0 L21,0 v0 l-2,0 v0 l-3.8,0 v0 z"/>
</svg>