<svg xmlns="http://www.w3.org/2000/svg" width="1880" height="100" viewBox="0 0 1880 100" preserveAspectRatio="none">
    <path
            to-d="M5.78,78.3 c0.36,0.29,1.56,0.14,2.68,-0.32 s6.96,-1.2,12.97,-1.63 c6.02,-0.43,14.4,-1.09,18.65,-1.45,22.83,-1.98,29.8,-2.43,44.01,-2.84,11.16,-0.32,15.57,-0.7,15.56,-1.35,-0.01,-0.66,0.2,-0.67,0.77,-0.06,0.8,0.86,4.38,0.96,14.67,0.43,3.1,-0.16,5.9,-0.27,6.22,-0.25 l7.14,0.6 c3.6,0.3,6.98,0.33,7.52,0.08,0.54,-0.24,1.12,-0.14,1.3,0.23,0.18,0.37,2.54,0.67,5.26,0.68,2.71,0,6.46,0.32,8.34,0.7,1.87,0.39,6.82,0.74,11,0.8,4.16,0.05,9.45,0.17,11.74,0.26,2.28,0.09,4.65,-0.2,5.25,-0.66,0.6,-0.45,0.95,-0.48,0.78,-0.08,-0.18,0.42,2.17,0.62,5.43,0.47,3.16,-0.15,6.68,0.13,7.83,0.62,1.58,0.68,2.2,0.66,2.52,-0.05,0.28,-0.65,0.42,-0.67,0.44,-0.06,0.02,0.54,1.68,0.9,4.33,0.92,5.89,0.04,23.8,-0.5,27.44,-0.83,1.63,-0.14,5.36,-0.12,8.3,0.05,7.1,0.42,18.11,0.29,18.1,-0.22,0,-0.63,2.84,-0.44,7.6,0.5,2.4,0.47,5.07,0.57,5.95,0.23,2.05,-0.81,6.03,-1.15,6.05,-0.52,0,0.27,0.74,0.47,1.63,0.43,16.6,-0.6,47.92,-0.17,48.97,0.67,0.26,0.2,0.46,0.05,0.45,-0.34,0,-0.4,0.79,-0.59,1.77,-0.43,0.98,0.17,2.24,0.01,2.81,-0.34,1.31,-0.8,3.68,-1.13,3.4,-0.47,-0.12,0.28,4.37,0.27,9.98,-0.02,5.61,-0.29,10.2,-0.58,10.2,-0.66,0,-0.08,1.66,-0.27,3.7,-0.43,2.04,-0.15,3.71,-0.05,3.71,0.24,0.01,0.28,0.94,0.2,2.08,-0.2,1.14,-0.38,2.19,-0.45,2.34,-0.15,0.14,0.31,2.68,0.46,5.64,0.33,3.2,-0.14,5.18,-0.35,5.19,0.13,0.33,0.1,1.1,0.33,1.5,0.33,0.5,0,4.64,-0.26,4.82,-0.46 a11,11,0,0,1,1.18,-0.86 l1.43,0.42 c1.23,0,2.84,-0.32,3.59,-0.73,0.81,-0.45,1.8,-0.44,2.47,0,1.06,0.74,3.55,0.96,16.36,1.48,3.27,0.13,8.62,0.48,11.89,0.76,3.27,0.29,10.55,-0.59,16.26,-0.73 a60.6,60.6,0,0,1,12.83,1.27 c1.31,0.29,8.53,0.38,16.03,0.2,17.63,-0.42,30.89,-0.23,36.17,0.53 l11.06,1.57 c3.76,0.53,10.05,1.28,13.97,1.66,3.93,0.37,8.34,0.82,9.82,0.99,4.82,0.56,9.73,0.24,13.7,-0.9,2.5,-0.71,10.1,-1.32,21.2,-1.7,9.53,-0.31,17.51,-0.73,17.74,-0.92,0.22,-0.2,10.28,-0.93,22.34,-1.64,12.07,-0.7,33,-1.53,35.6,-1.83,14.63,-1.68,25.74,-2.37,50.1,-3.12,3.42,-0.1,7.15,-0.34,8.3,-0.52 l34,-2.89 c5.87,-0.41,15.2,-1.17,20.74,-1.68,5.54,-0.52,14.48,-1.05,19.86,-1.2,5.68,-0.87,17.34,-2.62,18.54,-2.68,3.9,-0.19,5.76,-0.51,6.57,-0.76 a0.67,0.67,0,0,1,-0.07,0.23 c-0.23,1.95,6,1.98,10.83,3.22,2.04,-0.36,9.39,-1.07,16.32,-1.56,17.03,-1.22,19.39,-1.56,20.26,-2.89,0.42,-0.62,1.52,-1.15,2.46,-1.17,0.94,-0.03,6.54,-0.4,12.44,-0.85,5.9,-0.45,11.46,-0.83,12.35,-0.84,1.51,-0.03,8.08,-0.9,14.76,-1.96,1.62,-0.26,5.9,-0.68,9.52,-0.94,5.76,-0.41,16.76,-1.5,17.06,-0.34,8.37,0.16,10.18,0.1,11,-1.53,0.93,-1.87,1.3,-1.92,14.17,-1.71,5.77,0.1,6.47,0.27,7.16,1.75,0.72,1.55,1.27,1.63,10.51,1.49,8.82,-0.14,9.96,0,11.9,1.48,4.04,3.07,17.26,3.61,35.26,1.44,3.83,5.02,12.7,15.04,17.5,15.04,4.8,0,12.47,-0.6,15.71,-0.9,2.45,0.33,7.73,0.55,11.74,0.5,4,-0.05,8.81,0.13,10.69,0.4,1.88,0.27,5.59,0.63,8.26,0.8,2.66,0.17,7.75,0.77,11.3,1.33,3.55,0.56,8.06,1.14,10.02,1.3,1.96,0.15,5.58,0.56,8.03,0.91,2.46,0.35,6.07,0.77,8.03,0.94 a80.1,80.1,0,0,1,9.35,1.7,75.98,75.98,0,019.52,-1.7 c2.07,0.15,4.53,0.6,5.49,0.98,0.95,0.39,2.75,0.67,4,0.62,1.24,-0.04,5.02,0.34,8.38,0.86,7.74,1.18,17.12,2.02,29.6,2.65,15.9,0.8,20.4,1.06,22.22,1.3,0.95,0.13,7.63,0.25,14.84,0.29,7.22,0.03,13.93,0.15,14.91,0.27,0.98,0.1,8.46,0.2,16.62,0.18,8.16,-0.01,19.38,0.17,24.94,0.4,5.55,0.22,13.83,0.47,18.41,0.56,8.28,0.16,22.41,0.94,26.52,1.48,1.2,0.16,6.67,0.35,12.18,0.43,5.5,0.08,13.62,0.58,18.04,1.13,6.31,0.77,11.1,0.75,22.4,-0.07,7.91,-0.58,23.77,-1.19,24.34,-1.36,1.22,-0.36,10.09,-1.55,17.3,-2.3,2.77,-0.3,14.38,-1.05,25.79,-1.68,19.6,-1.08,21,-1.06,25.08,0.34 a26.91,26.91,0,0,1,8,1.37 c2.06,-0.07,5.13,0.5,7,1.3,1.83,0.78,7.08,2.07,11.67,2.87,4.58,0.8,9.54,1.77,11.02,2.16,1.48,0.39,4.55,0.82,6.83,0.95 l4.06,1.34,11.06,1.57 c3.76,0.53,10.05,1.28,13.98,1.66,3.92,0.37,8.63,0.85,9.81,0.99,4.82,0.56,9.73,0.24,13.69,-0.9,2.51,-0.71,10.11,-1.32,21.22,-1.7,9.52,-0.31,17.5,-0.73,17.73,-0.92,0.22,-0.2,10.28,-0.93,22.34,-1.64,12.07,-0.7,32.99,-1.53,35.6,-1.83,14.63,-1.68,25.74,-2.37,50.09,-3.12,3.43,-0.1,7.16,-0.34,8.3,-0.52 l34.01,-2.89 c5.87,-0.41,15.2,-1.17,20.74,-1.68,5.54,-0.52,14.48,-1.05,19.86,-1.2,1.68,-0.34,5.24,-1.35,6.14,-2.56,0.89,-1.22,7.06,-7.59,10.03,-10.62,2.05,-1.27,6.25,-3.8,6.69,-3.8,0.45,0,4.01,-0.8,5.73,-1.19,9.46,-0.51,18.13,-1.16,19.27,-1.44,1.13,-0.28,4.2,-0.72,6.8,-0.97,4.83,-0.47,10.33,-1.55,11.04,-2.16,0.22,-0.19,2.22,-0.6,4.44,-0.9,2.22,-0.3,5.64,-0.96,7.59,-1.45,1.95,-0.5,4.34,-1.07,5.31,-1.29,0.98,-0.21,3.94,-1.23,6.59,-2.26,2.65,-1.02,5.37,-1.88,6.05,-1.9,0.68,-0.03,1.23,-0.35,1.22,-0.72,-0.01,-0.37,0.32,-0.69,0.73,-0.7,4,-0.2,13.58,-1.77,15.08,-2.49,1.04,-0.5,2.44,-2,3.11,-3.35,1.31,-2.64,4.87,-5.36,8.14,-6.21,2.33,-0.61,5.63,-1.25,8.32,-1.65 V0 H0 V78.82 c0.5,-0.5,1.7,-1.52,2.5,-1.52 s2.52,0.67,3.28,1 z"
            fill="#000000"
            duration="1"
            d="M5.78,0 c0.36,0,1.56,0,2.68,0 s6.96,0,12.97,0 c6.02,0,14.4,0,18.65,0,22.83,0,29.8,0,44.01,0,11.16,0,15.57,0,15.56,0,-0.01,0,0.2,0,0.77,0,0.8,0,4.38,0,14.67,0,3.1,0,5.9,0,6.22,0 l7.14,0 c3.6,0,6.98,0,7.52,0,0.54,0,1.12,0,1.3,0,0.18,0,2.54,0,5.26,0,2.71,0,6.46,0,8.34,0,1.87,0,6.82,0,11,0,4.16,0,9.45,0,11.74,0,2.28,0,4.65,0,5.25,0,0.6,0,0.95,0,0.78,0,-0.18,0,2.17,0,5.43,0,3.16,0,6.68,0,7.83,0,1.58,0,2.2,0,2.52,0,0.28,0,0.42,0,0.44,0,0.02,0,1.68,0,4.33,0,5.89,0,23.8,0,27.44,0,1.63,0,5.36,0,8.3,0,7.1,0,18.11,0,18.1,0,0,0,2.84,0,7.6,0,2.4,0,5.07,0,5.95,0,2.05,0,6.03,0,6.05,0,0,0,0.74,0,1.63,0,16.6,0,47.92,0,48.97,0,0.26,0,0.46,0,0.45,0,0,0,0.79,0,1.77,0,0.98,0,2.24,0,2.81,0,1.31,0,3.68,0,3.4,0,-0.12,0,4.37,0,9.98,0,5.61,0,10.2,0,10.2,0,0,0,1.66,0,3.7,0,2.04,0,3.71,0,3.71,0,0.01,0,0.94,0,2.08,0,1.14,0,2.19,0,2.34,0,0.14,0,2.68,0,5.64,0,3.2,0,5.18,0,5.19,0,0.33,0,1.1,0,1.5,0,0.5,0,4.64,0,4.82,0 a11,0,0,0,1,1.18,0 l1.43,0 c1.23,0,2.84,0,3.59,0,0.81,0,1.8,0,2.47,0,1.06,0,3.55,0,16.36,0,3.27,0,8.62,0,11.89,0,3.27,0,10.55,0,16.26,0 a60.6,0,0,0,1,12.83,0 c1.31,0,8.53,0,16.03,0,17.63,0,30.89,0,36.17,0 l11.06,0 c3.76,0,10.05,0,13.97,0,3.93,0,8.34,0,9.82,0,4.82,0,9.73,0,13.7,0,2.5,0,10.1,0,21.2,0,9.53,0,17.51,0,17.74,0,0.22,0,10.28,0,22.34,0,12.07,0,33,0,35.6,0,14.63,0,25.74,0,50.1,0,3.42,0,7.15,0,8.3,0 l34,0 c5.87,0,15.2,0,20.74,0,5.54,0,14.48,0,19.86,0,5.68,0,17.34,0,18.54,0,3.9,0,5.76,0,6.57,0 a0.67,0,0,0,1,-0.07,0 c-0.23,0,6,0,10.83,0,2.04,0,9.39,0,16.32,0,17.03,0,19.39,0,20.26,0,0.42,0,1.52,0,2.46,0,0.94,0,6.54,0,12.44,0,5.9,0,11.46,0,12.35,0,1.51,0,8.08,0,14.76,0,1.62,0,5.9,0,9.52,0,5.76,0,16.76,0,17.06,0,8.37,0,10.18,0,11,0,0.93,0,1.3,0,14.17,0,5.77,0,6.47,0,7.16,0,0.72,0,1.27,0,10.51,0,8.82,0,9.96,0,11.9,0,4.04,0,17.26,0,35.26,0,3.83,0,12.7,0,17.5,0,4.8,0,12.47,0,15.71,0,2.45,0,7.73,0,11.74,0,4,0,8.81,0,10.69,0,1.88,0,5.59,0,8.26,0,2.66,0,7.75,0,11.3,0,3.55,0,8.06,0,10.02,0,1.96,0,5.58,0,8.03,0,2.46,0,6.07,0,8.03,0 a80.1,0,0,0,1,9.35,0,75.98,75.98,0,019.52,-1.7 c2.07,0,4.53,0,5.49,0,0.95,0,2.75,0,4,0,1.24,0,5.02,0,8.38,0,7.74,0,17.12,0,29.6,0,15.9,0,20.4,0,22.22,0,0.95,0,7.63,0,14.84,0,7.22,0,13.93,0,14.91,0,0.98,0,8.46,0,16.62,0,8.16,0,19.38,0,24.94,0,5.55,0,13.83,0,18.41,0,8.28,0,22.41,0,26.52,0,1.2,0,6.67,0,12.18,0,5.5,0,13.62,0,18.04,0,6.31,0,11.1,0,22.4,0,7.91,0,23.77,0,24.34,0,1.22,0,10.09,0,17.3,0,2.77,0,14.38,0,25.79,0,19.6,0,21,0,25.08,0 a26.91,0,0,0,1,8,0 c2.06,0,5.13,0,7,0,1.83,0,7.08,0,11.67,0,4.58,0,9.54,0,11.02,0,1.48,0,4.55,0,6.83,0 l4.06,0,11.06,0 c3.76,0,10.05,0,13.98,0,3.92,0,8.63,0,9.81,0,4.82,0,9.73,0,13.69,0,2.51,0,10.11,0,21.22,0,9.52,0,17.5,0,17.73,0,0.22,0,10.28,0,22.34,0,12.07,0,32.99,0,35.6,0,14.63,0,25.74,0,50.09,0,3.43,0,7.16,0,8.3,0 l34.01,0 c5.87,0,15.2,0,20.74,0,5.54,0,14.48,0,19.86,0,1.68,0,5.24,0,6.14,0,0.89,0,7.06,0,10.03,0,2.05,0,6.25,0,6.69,0,0.45,0,4.01,0,5.73,0,9.46,0,18.13,0,19.27,0,1.13,0,4.2,0,6.8,0,4.83,0,10.33,0,11.04,0,0.22,0,2.22,0,4.44,0,2.22,0,5.64,0,7.59,0,1.95,0,4.34,0,5.31,0,0.98,0,3.94,0,6.59,0,2.65,0,5.37,0,6.05,0,0.68,0,1.23,0,1.22,0,-0.01,0,0.32,0,0.73,0,4,0,13.58,0,15.08,0,1.04,0,2.44,0,3.11,0,1.31,0,4.87,0,8.14,0,2.33,0,5.63,0,8.32,0 V0 H0 V0 c0.5,0,1.7,0,2.5,0 s2.52,0,3.28,0 z"/>
</svg>