<svg xmlns="http://www.w3.org/2000/svg" width="128" height="128" viewBox="0 0 128 128" fill="none">
	<g clip-path="url(#clip0_1705_179551)">
	<rect width="128" height="128" fill="white"/>
	<g clip-path="url(#clip1_1705_179551)">
	<path d="M112.256 21.9616C110.768 23.4496 109.28 24.9376 107.792 26.4224C103.894 30.32 99.9904 34.2176 96.096 38.1216C95.1872 39.0304 94.112 39.568 92.8224 39.552C91.0912 39.5296 89.7632 38.7328 88.96 37.2064C88.1408 35.6512 88.2848 34.1024 89.2672 32.6464C89.4496 32.3776 89.6768 32.1312 89.9072 31.9008C95.2864 26.5184 100.669 21.136 106.048 15.7536C94.8032 5.9424 80.096 0 64 0C28.6528 0 0 28.6528 0 64C0 80.096 5.9456 94.8032 15.7536 106.051C21.1296 100.675 26.5056 95.2992 31.8784 89.92C32.7648 89.0304 33.8016 88.4448 35.0656 88.4384C36.768 88.4288 38.1024 89.1584 38.9824 90.64C39.3632 91.28 39.5584 91.984 39.5552 92.3712C39.5776 94.0832 39.0336 95.184 38.0928 96.1216C33.3088 100.899 28.528 105.68 23.7472 110.461C23.1488 111.059 22.5536 111.654 21.9552 112.253C33.2 122.058 47.904 127.997 63.9936 127.997C99.3408 127.997 127.994 99.344 127.994 63.9968C127.994 47.904 122.054 33.2032 112.25 21.9584L112.256 21.9616ZM30.1312 82.3808C28.528 83.9808 27.4176 85.8688 26.9824 88.1024C26.9024 88.5056 26.848 88.9056 26.8096 89.3024L19.1488 96.9632C18.8096 96 18.5376 95.0048 18.3456 93.9712C17.4912 89.392 18.1792 85.0272 20.3712 80.9088C21.2192 79.3152 22.2688 77.8656 23.5456 76.5856C25.9648 74.1632 28.3808 71.7408 30.8032 69.3216C31.3312 72.6496 32.3456 75.8144 33.7728 78.7424C32.5568 79.9552 31.344 81.168 30.1312 82.3808ZM76.4544 23.6768C79.1616 20.9824 82.4096 19.2544 86.1344 18.4512C89.8016 17.6608 93.4208 17.8816 96.944 19.168L89.3024 26.8096C88.1856 26.9152 87.0784 27.1872 85.984 27.648C84.6336 28.2176 83.4656 29.0496 82.432 30.08C81.2 31.3088 79.9712 32.5408 78.7392 33.7696C75.8144 32.3424 72.6496 31.328 69.3248 30.8C71.6992 28.4224 74.0704 26.0448 76.4512 23.6736L76.4544 23.6768ZM51.2288 104.624C48.4032 107.37 44.9792 109.037 41.088 109.706C37.6512 110.298 34.2944 110.006 31.0432 108.838L38.6976 101.184C38.8608 101.168 39.024 101.165 39.1872 101.142C41.1872 100.877 42.9664 100.086 44.5472 98.8448C44.9248 98.5472 45.2768 98.2176 45.616 97.8784C46.832 96.6624 48.048 95.4464 49.264 94.2272C52.1984 95.6576 55.3696 96.6752 58.704 97.2C56.2272 99.6896 53.7472 102.176 51.2288 104.624ZM92.4384 69.3536C92.3328 69.9424 92.208 70.5344 92.064 71.1232C91.92 71.712 91.76 72.2944 91.5872 72.8672C91.4464 73.3312 91.1616 73.7088 90.8 73.984C90.4384 74.1568 90.032 74.2464 89.6128 74.2272L85.8336 74.0544C85.0976 74.0224 84.4064 74.3168 83.8944 74.816C83.6384 75.024 83.4144 75.28 83.2416 75.5776C82.8768 76.208 82.4768 76.8128 82.0576 77.3984C81.6224 77.9648 81.168 78.512 80.6816 79.0336C80.4544 79.2768 80.2784 79.5584 80.1536 79.856C79.8112 80.496 79.7248 81.2544 79.9744 81.9552L81.2416 85.52C81.3856 85.9232 81.4144 86.3456 81.3504 86.7488C81.1904 87.1648 80.9152 87.5392 80.5216 87.8048C79.5232 88.48 78.48 89.0944 77.4048 89.6448C76.4608 90.128 75.3184 89.888 74.608 89.1168L72.0736 86.3712C71.4208 85.664 70.4064 85.4176 69.4624 85.6576C67.9712 86.0352 66.4288 86.2688 64.864 86.3424C63.8912 86.3872 62.992 86.9216 62.5728 87.7856L60.9504 91.1456C60.496 92.0896 59.472 92.6528 58.4256 92.464C57.8368 92.3584 57.2448 92.2336 56.656 92.0896C56.0672 91.9456 55.4848 91.7856 54.912 91.6128C54.72 91.5552 54.5472 91.4656 54.384 91.3632C53.9648 90.9024 53.7344 90.2688 53.7632 89.6096L53.936 85.8304C53.9808 84.8576 53.4496 83.9584 52.6272 83.4592C51.3024 82.656 50.0736 81.7216 48.9568 80.6816C48.5056 80.2624 47.9392 80.0064 47.3536 79.9616C46.8576 79.8272 46.3264 79.8304 45.8272 80.0064L42.2624 81.2736C41.9872 81.3728 41.6992 81.4144 41.4176 81.4144C40.9312 81.2736 40.4928 80.9728 40.1888 80.5216C39.5136 79.5232 38.8992 78.48 38.3488 77.4048C37.8656 76.4608 38.1056 75.3184 38.8768 74.608L41.6224 72.0736C42.3296 71.4208 42.576 70.4064 42.336 69.4624C41.9584 67.9712 41.7248 66.4288 41.6512 64.864C41.6064 63.8912 41.072 62.992 40.208 62.5728L36.848 60.9504C35.904 60.496 35.3408 59.472 35.5296 58.4256C35.6352 57.8368 35.76 57.2448 35.904 56.656C36.048 56.0672 36.208 55.4848 36.3808 54.912C36.4704 54.6176 36.624 54.3584 36.8128 54.1344C37.2128 53.8976 37.6832 53.7728 38.176 53.7952L41.9552 53.968C42.8416 54.0096 43.6672 53.568 44.1824 52.8672C44.3936 52.6784 44.5792 52.4576 44.7264 52.2016C45.0656 51.6128 45.4432 51.0528 45.8304 50.5056C46.2368 49.984 46.656 49.472 47.1072 48.9888C47.3024 48.7776 47.4592 48.5408 47.5776 48.288C48.1056 47.5872 48.2912 46.6656 47.9904 45.824L46.7232 42.2592C46.5568 41.792 46.5408 41.2992 46.6528 40.8448C46.8096 40.6048 47.0112 40.3904 47.264 40.2176C48.2624 39.5424 49.3056 38.928 50.3808 38.3776C51.3248 37.8944 52.4672 38.1344 53.1776 38.9056L55.712 41.6512C56.3648 42.3584 57.3792 42.6048 58.3232 42.3648C59.8144 41.9872 61.3568 41.7536 62.9216 41.68C63.8944 41.6352 64.7936 41.1008 65.2128 40.2368L66.8352 36.8768C67.2896 35.9328 68.3136 35.3696 69.36 35.5584C69.9488 35.664 70.5408 35.7888 71.1296 35.9328C71.7184 36.0768 72.3008 36.2368 72.8736 36.4096C73.4016 36.5728 73.8208 36.912 74.0992 37.3472C74.176 37.6096 74.2144 37.888 74.2016 38.1696L74.0288 41.9488C74.0032 42.4768 74.1536 42.9792 74.4224 43.4144C74.6368 43.9648 75.0464 44.4416 75.584 44.752C76.9312 45.5328 78.176 46.4416 79.3088 47.456C80.0256 48.0992 81.0432 48.3424 81.9584 48.016L85.5232 46.7488C86.1536 46.5248 86.832 46.5664 87.3984 46.8384C87.5392 46.96 87.6672 47.0976 87.776 47.2576C88.4512 48.256 89.0656 49.2992 89.616 50.3744C90.0992 51.3184 89.8592 52.4608 89.088 53.1712L86.3424 55.7056C85.6352 56.3584 85.3888 57.3728 85.6288 58.3168C86.0064 59.808 86.24 61.3504 86.3136 62.9152C86.3584 63.888 86.8928 64.7872 87.7568 65.2064L91.1168 66.8288C92.0608 67.2832 92.624 68.3072 92.4352 69.3536H92.4384ZM109.85 40.112C109.386 43.84 107.984 47.1744 105.629 50.0992C105.203 50.6272 104.749 51.1328 104.272 51.6128C101.917 53.9744 99.5616 56.3392 97.2 58.6944C96.6752 55.3632 95.6608 52.192 94.2304 49.264C95.472 48.0256 96.7136 46.784 97.9552 45.5424C99.5328 43.9616 100.598 42.0832 101.021 39.8848C101.098 39.4816 101.152 39.0848 101.19 38.688L108.838 31.04C109.91 33.952 110.237 36.9888 109.85 40.1088V40.112Z" fill="#005AE0"/>
	<path d="M75.5685 52.6619C74.5541 52.6619 73.6773 53.0235 72.9637 53.7403L60.2053 66.4987L55.0981 61.3947C54.3877 60.7419 53.5429 60.4123 52.5893 60.4123C51.6357 60.4123 50.7653 60.7675 49.9845 61.4907C49.2229 62.2491 48.8389 63.1259 48.8389 64.0955C48.8389 65.0651 49.2421 65.9323 50.0101 66.5947L57.6677 74.3163C58.3845 75.0331 59.2389 75.3947 60.2085 75.3947C61.1781 75.3947 62.0325 75.0331 62.7525 74.3131L78.1477 58.7835C78.8805 58.1115 79.2549 57.2347 79.2229 56.2491C79.1941 55.2923 78.8197 54.4475 78.1413 53.7691C77.4757 53.0427 76.5893 52.6587 75.5717 52.6587L75.5685 52.6619Z" fill="#005AE0"/>
	</g>
	</g>
	<defs>
	<clipPath id="clip0_1705_179551">
	<rect width="128" height="128" fill="white"/>
	</clipPath>
	<clipPath id="clip1_1705_179551">
	<rect width="128" height="128" fill="white"/>
	</clipPath>
	</defs>
</svg>