<svg width="80" height="80" viewBox="0 0 80 80" fill="none" xmlns="http://www.w3.org/2000/svg">
<g clip-path="url(#clip0_5838_38071)">
<path d="M66.6659 40.0009C66.6659 54.7344 54.723 66.6659 40.0009 66.6659C25.2789 66.6659 13.3359 54.7344 13.3359 40.0009C13.3359 25.2674 25.2789 13.3359 40.0009 13.3359C54.723 13.3359 66.6659 25.2674 66.6659 40.0009Z" fill="#F99E36"/>
<path d="M50.4777 26.0538C48.468 23.8145 46.4354 22.9302 44.7473 23.5388C44.4258 23.6767 44.1272 23.8489 43.8631 24.0786L38.9825 28.1782L26.2127 38.9154L23.4681 41.2236C22.5495 42.0045 22.2049 43.2792 22.6184 44.4161L23.1696 45.909L23.7208 47.4018C24.1342 48.5387 25.2251 49.2966 26.4309 49.2966L53.0615 49.2852C53.4175 49.2852 54.095 49.1014 54.095 49.1014C55.7831 48.4928 56.7592 46.4946 56.8511 43.4974C56.9429 40.8102 56.3228 37.5259 55.1285 34.2416C53.9228 30.9573 52.2691 28.0519 50.4777 26.0538ZM49.6738 39.2485L47.7331 33.9315C49.203 33.3918 50.8222 34.1497 51.3619 35.6196C51.9016 37.0895 51.1437 38.7202 49.6738 39.2485ZM44.5521 24.7446C44.5177 24.7791 44.4717 24.802 44.4373 24.8365C42.4276 26.5246 42.4506 32.1171 44.6325 38.0771C46.1598 42.2801 48.3991 45.6563 50.5006 47.2755L26.4194 47.287C26.0635 47.287 25.7304 47.0573 25.6041 46.7243L25.0529 45.2314L42.9903 38.6858V38.6743C40.7281 32.4846 41.4515 26.4672 44.5521 24.7446Z" fill="white"/>
<path d="M45.3663 49.0662C45.2056 51.8567 42.8974 53.8204 40.0609 53.8548C40.0379 53.8548 40.0264 53.8548 40.0035 53.8548C37.1555 53.8548 34.8014 51.8797 34.6406 49.0547H36.6732C36.8799 50.7083 38.2924 51.8682 40.0035 51.8682H40.0379C41.7031 51.8682 43.0811 50.6624 43.3223 49.0662" fill="white"/>
</g>
<defs>
<clipPath id="clip0_5838_38071">
<rect width="80" height="80" fill="white"/>
</clipPath>
</defs>
</svg>
