<svg width="80" height="80" viewBox="0 0 80 80" fill="none" xmlns="http://www.w3.org/2000/svg">
<g clip-path="url(#clip0_5838_38202)">
<g clip-path="url(#clip1_5838_38202)">
<path d="M64.6706 35.6475H63.1741C63.038 35.6475 62.902 35.6021 62.7206 35.6021C62.1311 35.4661 61.5869 35.2393 61.0427 34.9672C60.9067 34.8765 60.7706 34.8312 60.6799 34.7405C60.6346 34.6951 60.5439 34.6498 60.4985 34.6044C60.4078 34.5591 60.3625 34.5138 60.2718 34.4231C60.045 34.2417 59.8636 34.0603 59.6369 33.8335C59.6369 33.8335 59.6369 33.8335 59.5915 33.7882C59.4555 33.6521 59.3648 33.5161 59.2741 33.38C59.1381 33.1986 59.0474 33.0172 58.9113 32.8359C58.7753 32.5638 58.6392 32.2917 58.5032 31.9742C58.4578 31.7928 58.3671 31.6114 58.3218 31.43C58.2764 31.294 58.2764 31.158 58.2311 31.0673C58.2764 30.9312 58.2311 30.7498 58.2311 30.5684C58.2311 30.5231 58.2311 30.4777 58.2311 30.4324C58.2311 29.8882 58.2764 29.3894 58.4125 28.8905C58.6392 28.1196 59.002 27.394 59.4102 26.7138C59.5009 26.6231 59.5915 26.5324 59.6369 26.3963L60.4532 25.5347C61.1334 24.8545 61.1788 23.7208 60.5439 22.9952C59.7276 21.9975 58.8206 21.0452 57.823 20.1836L30.3417 47.3021C29.8882 47.7102 29.1626 47.4381 29.1626 46.8032C29.208 42.0416 29.2987 33.9242 29.344 29.8428C29.344 29.1626 30.251 28.9359 30.6138 29.5254L33.4707 34.5138C33.6975 34.9219 34.2417 34.9672 34.5591 34.6498L47.3021 21.9068C47.3021 21.9068 47.2567 21.9068 47.2567 21.8615C47.0753 21.7708 46.9393 21.6801 46.7579 21.5894C46.6672 21.4987 46.5311 21.4533 46.4404 21.3626C46.3044 21.2719 46.1684 21.1359 46.0323 21.0452C45.987 20.9999 45.987 20.9999 45.9416 20.9545C45.5335 20.5464 45.2614 20.1382 44.9893 19.6847C44.5812 18.9138 44.3091 18.0975 44.173 17.2813C44.1277 17.1452 44.1277 16.9638 44.0823 16.8278C44.0823 16.7371 44.0823 16.6464 44.0823 16.5557V15.3766C44.0823 14.3336 43.3114 13.5173 42.3137 13.4266C41.5428 13.3813 40.7719 13.3359 40.0009 13.3359C39.2754 13.3359 38.5044 13.3813 37.7789 13.4266C36.7812 13.5173 36.0103 14.3336 36.0103 15.3313C36.0103 15.9208 35.9649 16.601 35.8289 17.2813C35.6928 18.0975 35.4207 18.9138 35.0126 19.6847C34.7858 20.1382 34.4684 20.5464 34.0603 20.9092C34.0149 20.9545 34.0149 20.9545 33.9696 20.9999C33.8335 21.1359 33.6975 21.2266 33.5614 21.3173C33.4707 21.408 33.3347 21.4533 33.244 21.544C33.0626 21.6347 32.9265 21.7254 32.7452 21.8161C32.4731 21.9522 32.1556 22.0882 31.8835 22.1336C31.6568 22.2243 31.4754 22.2696 31.2486 22.2696C31.0673 22.315 30.9312 22.315 30.7498 22.315H30.7045C30.4324 22.315 30.1149 22.315 29.8428 22.315C29.7521 22.315 29.6614 22.315 29.5707 22.2696C29.4801 22.2696 29.3894 22.2243 29.344 22.2243C29.208 22.1789 29.0719 22.1789 28.9359 22.1336C28.3463 21.9522 27.8022 21.7254 27.3033 21.4533C27.0312 21.3173 26.8045 21.1359 26.5777 20.9545C26.487 20.8638 26.3963 20.8185 26.3056 20.7278L25.3987 19.7754C24.7184 19.0499 23.5394 18.9592 22.7685 19.594C21.544 20.6371 20.4103 21.7708 19.4127 22.9952C18.7778 23.7661 18.8685 24.8545 19.5034 25.5347L20.3196 26.3963C20.4103 26.487 20.501 26.5777 20.5464 26.7138C20.9545 27.3487 21.3626 28.1196 21.544 28.8905C21.6801 29.3894 21.7254 29.8882 21.7254 30.4324C21.7254 30.4777 21.7254 30.5231 21.7254 30.5684C21.7254 30.7498 21.6801 30.8859 21.6801 31.0673C21.6801 31.2033 21.6347 31.3393 21.5894 31.43C21.544 31.6114 21.4987 31.7928 21.408 31.9742C21.3173 32.2917 21.1813 32.5638 20.9999 32.8359C20.9092 33.0172 20.7731 33.1986 20.6371 33.38C20.5464 33.5161 20.4103 33.6521 20.3196 33.7882C20.3196 33.7882 20.3196 33.7882 20.2743 33.8335C20.0929 34.0603 19.8661 34.2417 19.6394 34.4231C19.5487 34.4684 19.5034 34.5591 19.4127 34.6044C19.3673 34.6498 19.2766 34.6951 19.2313 34.7405C19.0952 34.8312 18.9592 34.8765 18.8685 34.9672C18.3243 35.2393 17.7801 35.4661 17.1906 35.6021C17.0545 35.6021 16.9185 35.6475 16.7371 35.6475H15.2406C14.2883 35.6475 13.4266 36.373 13.3359 37.3707C13.3813 38.2323 13.3359 39.1393 13.3359 40.0009C13.3359 40.7265 13.3813 41.4521 13.4266 42.1777C13.5173 43.1753 14.2883 43.9463 15.2859 43.9463L16.6464 43.9916C16.7824 43.9916 16.9185 43.9916 17.0545 44.037C17.5987 44.173 18.0975 44.3544 18.5964 44.5811C19.0499 44.8079 19.458 45.1253 19.8661 45.4881C19.9115 45.5335 19.9115 45.5335 19.9568 45.5788C20.0929 45.7149 20.1836 45.8509 20.2743 45.9416C20.365 46.0323 20.4557 46.123 20.501 46.259C20.5917 46.4404 20.7278 46.5765 20.8185 46.7579C20.9545 47.03 21.0906 47.3021 21.1813 47.6195C21.2719 47.8463 21.3173 48.0276 21.3626 48.2544C21.408 48.4358 21.408 48.5718 21.4533 48.7532V48.7986C21.4987 49.0707 21.4987 49.3881 21.4533 49.6602C21.4533 49.7509 21.4533 49.8416 21.4533 49.9323C21.4533 50.023 21.4533 50.1137 21.408 50.159C21.3626 50.2951 21.3626 50.4311 21.3173 50.5672C21.1813 51.1567 20.9545 51.7009 20.6824 52.1997C20.5917 52.3811 20.501 52.5625 20.365 52.6986C20.2743 52.7893 20.2289 52.9253 20.0929 53.016L19.2313 53.9683C18.551 54.6485 18.4603 55.7369 19.0499 56.5078C20.0022 57.7323 21.0906 58.866 22.2243 59.8636L50.159 32.4277C50.6125 32.0196 51.3381 32.2917 51.3381 32.9265C51.2927 37.6882 51.2021 45.8056 51.1567 49.8869C51.1567 50.5672 50.2497 50.7939 49.8869 50.2044L47.03 45.216C46.8032 44.8079 46.259 44.7625 45.9416 45.08L32.6545 58.3671C32.6545 58.3671 32.6998 58.3671 32.6998 58.4125C32.8359 58.5032 32.9719 58.5939 33.1079 58.7299C33.1079 58.7299 33.1079 58.7299 33.1533 58.7753C33.38 58.9567 33.5614 59.1381 33.7428 59.3648C33.7882 59.4555 33.8789 59.5009 33.9242 59.5915C33.9696 59.6369 34.0149 59.7276 34.0603 59.7729C34.151 59.909 34.1963 59.9997 34.287 60.1357C34.6044 60.6346 34.8312 61.1788 34.9672 61.7683C35.2393 62.766 35.33 63.7636 35.33 64.6252C35.33 65.6229 36.101 66.4392 37.0533 66.5299C38.0056 66.6206 39.0033 66.7113 40.0009 66.7113C40.9986 66.7113 41.9509 66.6659 42.9486 66.5299C43.9009 66.4392 44.6718 65.6229 44.6718 64.6252C44.6718 63.7636 44.7625 62.7206 45.0346 61.7683C45.1707 61.2241 45.3974 60.6799 45.7149 60.1357C45.8056 59.9997 45.8509 59.909 45.9416 59.7729C45.987 59.7276 46.0323 59.6369 46.0777 59.5915C46.123 59.5009 46.2137 59.4555 46.259 59.3648C46.4404 59.1381 46.6218 58.9567 46.8486 58.7753C46.8486 58.7753 46.8486 58.7753 46.8939 58.7299C47.03 58.6392 47.166 58.5032 47.3021 58.4125C47.4835 58.2764 47.6649 58.1857 47.8916 58.095C48.1637 57.959 48.4358 57.823 48.7532 57.7323C48.9346 57.6869 49.116 57.6416 49.2974 57.5962C49.4335 57.5509 49.5695 57.5509 49.7055 57.5509C49.8869 57.5509 50.023 57.5055 50.2044 57.5055C50.2497 57.5055 50.2951 57.5055 50.3404 57.5055C50.8846 57.5055 51.3834 57.5962 51.8823 57.7323C52.5625 57.959 53.1974 58.2764 53.7869 58.6846C53.8776 58.7753 54.0137 58.866 54.1044 58.9567L55.0567 59.9543C55.7823 60.6799 56.916 60.7253 57.6869 60.0904C58.9113 59.002 59.9997 57.8683 60.9974 56.5985C61.5869 55.8276 61.4962 54.7392 60.816 54.059L59.9543 53.1974C59.8636 53.1067 59.7729 53.016 59.6822 52.8799C59.5915 52.6986 59.4555 52.5625 59.3648 52.3811C59.0927 51.8823 58.866 51.3381 58.7299 50.7486C58.6846 50.6125 58.6392 50.4765 58.6392 50.3404C58.6392 50.2497 58.5939 50.159 58.5939 50.1137C58.5939 50.023 58.5939 49.9323 58.5939 49.8416C58.5939 49.5695 58.5939 49.2974 58.5939 48.98V48.9346C58.5939 48.7532 58.6392 48.6172 58.6846 48.4358C58.7299 48.209 58.7753 48.0276 58.866 47.8009C58.9567 47.5288 59.0927 47.2114 59.2288 46.9393C59.3195 46.7579 59.4102 46.6218 59.5462 46.4404C59.6369 46.3497 59.6822 46.2137 59.7729 46.123C59.8636 45.987 59.9997 45.8509 60.0904 45.7602C60.1357 45.7149 60.1357 45.7149 60.1811 45.6695C60.5439 45.3067 60.9974 44.9893 61.4508 44.7625C61.9497 44.4905 62.4485 44.3091 62.9927 44.2184C63.1287 44.173 63.2648 44.173 63.4008 44.173L64.7613 44.1277C65.759 44.0823 66.5299 43.3114 66.6206 42.3591C66.6659 41.6335 66.7113 40.9079 66.7113 40.1823C66.7113 39.2754 66.6659 38.4137 66.5752 37.5521C66.4392 36.4184 65.6229 35.6928 64.6706 35.6475Z" fill="#FE4715"/>
</g>
</g>
<defs>
<clipPath id="clip0_5838_38202">
<rect width="80" height="80" fill="white"/>
</clipPath>
<clipPath id="clip1_5838_38202">
<rect width="53.33" height="53.33" fill="white" transform="translate(13.3359 13.3359)"/>
</clipPath>
</defs>
</svg>
