<svg width="129" height="24" viewBox="0 0 129 24" fill="none" xmlns="http://www.w3.org/2000/svg">
<g clip-path="url(#clip0_3312_590)">
<path fill-rule="evenodd" clip-rule="evenodd" d="M47.8189 13.3784L47.7163 13.3915V13.3653L45.9597 8.34674H44.498L42.8568 13.3915L42.7542 13.3784V13.3653L41.8439 8.34674H40.1514L41.8567 15.5012H43.4851L45.216 10.2205L45.2417 10.2991L46.9341 15.5012H48.5369L50.3704 8.34674H48.6138L47.8189 13.3784Z" fill="white"/>
<path d="M54.4987 8.34674C53.473 8.34674 52.4857 8.43846 51.5625 8.63502V18.135H53.255V15.1212L53.3319 15.1605C53.8063 15.3833 54.2936 15.5012 54.7551 15.5012C55.8578 15.5012 56.6913 15.1867 57.2426 14.5709C57.7939 13.955 58.076 12.9984 58.076 11.7405C58.076 10.6136 57.7811 9.7488 57.1913 9.18536C56.5887 8.63502 55.6911 8.34674 54.4987 8.34674ZM54.7423 14.086C54.2166 14.086 53.7294 13.955 53.2678 13.706L53.2422 13.6929V9.82743L53.2806 9.81432C53.6268 9.7488 54.0499 9.7226 54.5628 9.7226C55.7809 9.7226 56.3963 10.404 56.3963 11.7405C56.4092 13.2998 55.845 14.086 54.7423 14.086Z" fill="white"/>
<path d="M63.5389 5.71298H59.7949V15.5012H63.5389C65.116 15.5012 66.3213 15.0688 67.1034 14.2171C67.8855 13.3654 68.2958 12.055 68.2958 10.3385C68.2958 8.80538 67.8983 7.63918 67.1162 6.86608C66.3213 6.10608 65.116 5.71298 63.5389 5.71298ZM63.5389 14.0205H61.4874V7.19367H63.5389C65.5776 7.19367 66.6033 8.25504 66.6033 10.3385C66.6033 12.7888 65.5648 14.0205 63.5389 14.0205Z" fill="white"/>
<path d="M72.5522 8.34674C71.7958 8.34674 70.9367 8.46467 70.0135 8.68743V10.024C70.9367 9.80122 71.7829 9.69639 72.5522 9.69639C73.5011 9.69639 73.9755 10.0371 73.9755 10.7316V11.3474L73.9114 11.3343C73.437 11.2426 72.9497 11.1902 72.4753 11.1902C70.4623 11.1902 69.4365 11.8978 69.4365 13.2998C69.4365 14.7674 70.2956 15.5143 71.9881 15.5143C72.7189 15.5143 73.3985 15.3046 74.0011 14.8722L74.0396 14.846L74.0652 14.8722L74.6807 15.5012H75.6423V10.6791C75.668 9.13294 74.6166 8.34674 72.5522 8.34674ZM73.9755 13.706L73.9498 13.7191C73.4369 14.0991 72.86 14.2957 72.2573 14.2957C71.5008 14.2957 71.1162 13.955 71.1162 13.2736C71.1162 12.6447 71.565 12.3171 72.4625 12.3171C72.9754 12.3171 73.4626 12.3695 73.9242 12.4612L73.9626 12.4743V13.706H73.9755Z" fill="white"/>
<path fill-rule="evenodd" clip-rule="evenodd" d="M78.8869 8.32055L78.6176 7.16745H77.3867V13.6012C77.3867 14.8854 77.9509 15.5012 79.1177 15.5012H80.6563V14.1516H79.9767C79.3741 14.1516 79.0664 13.7847 79.0664 13.0771V9.6833H80.6563V8.33365H78.8741L78.8869 8.32055Z" fill="white"/>
<path d="M84.8481 8.34674C84.0916 8.34674 83.2326 8.46467 82.3094 8.68743V10.024C83.2326 9.80122 84.0788 9.69639 84.8481 9.69639C85.797 9.69639 86.2714 10.0371 86.2714 10.7316V11.3474L86.2073 11.3343C85.7328 11.2426 85.2456 11.1902 84.7712 11.1902C82.7582 11.1902 81.7324 11.8978 81.7324 13.2998C81.7324 14.7674 82.5915 15.5143 84.284 15.5143C85.0148 15.5143 85.6944 15.3046 86.297 14.8722L86.3355 14.846L86.3611 14.8722L86.9766 15.5012H87.9382V10.6791C87.9639 9.13294 86.9253 8.34674 84.8481 8.34674ZM86.2842 13.706L86.2585 13.7191C85.7457 14.0991 85.1687 14.2957 84.5661 14.2957C83.8096 14.2957 83.4249 13.955 83.4249 13.2736C83.4249 12.6447 83.8737 12.3171 84.7712 12.3171C85.2841 12.3171 85.7841 12.3695 86.2329 12.4612L86.2714 12.4743V13.706H86.2842Z" fill="white"/>
<path fill-rule="evenodd" clip-rule="evenodd" d="M95.26 5.71298H88.0156V7.19367H90.7852V15.5012H92.4776V7.19367H95.26V5.71298Z" fill="white"/>
<path d="M98.0425 8.34674C97.286 8.34674 96.4269 8.46467 95.5037 8.68743V10.024C96.4269 9.80122 97.2732 9.69639 98.0425 9.69639C98.9913 9.69639 99.4657 10.0371 99.4657 10.7316V11.3474L99.4016 11.3343C98.9272 11.2426 98.44 11.1902 97.9655 11.1902C95.9525 11.1902 94.9268 11.8978 94.9268 13.2998C94.9268 14.7674 95.7858 15.5143 97.4783 15.5143C98.2092 15.5143 98.8887 15.3046 99.4913 14.8722L99.5298 14.846L99.5555 14.8722L100.171 15.5012H101.133V10.6791C101.158 9.13294 100.107 8.34674 98.0425 8.34674ZM99.4657 13.706L99.4401 13.7191C98.9272 14.0991 98.3502 14.2957 97.7476 14.2957C96.9911 14.2957 96.6064 13.955 96.6064 13.2736C96.6064 12.6447 97.0552 12.3171 97.9527 12.3171C98.4656 12.3171 98.9528 12.3695 99.4144 12.4612L99.4529 12.4743V13.706H99.4657Z" fill="white"/>
<path d="M106.479 8.34677C105.838 8.34677 105.236 8.53021 104.71 8.89711L104.62 8.94952V5.71298H102.928V15.2129C104.03 15.4095 105.069 15.5012 106.018 15.5012C107.159 15.5012 108.018 15.1867 108.582 14.5709C109.146 13.955 109.441 13.0116 109.441 11.7799C109.467 9.49987 108.454 8.34677 106.479 8.34677ZM106.12 14.1385C105.569 14.1385 105.095 14.073 104.672 13.9288L104.633 13.9157V10.155L104.659 10.1419C105.159 9.89297 105.723 9.76193 106.338 9.76193C107.3 9.76193 107.8 10.4302 107.8 11.7405C107.8 13.3261 107.223 14.1385 106.12 14.1385Z" fill="white"/>
<path d="M112.647 5.71298H110.954V15.5012H112.647V5.71298Z" fill="white"/>
<path d="M117.416 8.34674C115.236 8.34674 114.134 9.52605 114.134 11.8453C114.134 13.064 114.454 13.9812 115.083 14.5971C115.711 15.1998 116.673 15.5143 117.942 15.5143C118.814 15.5143 119.57 15.4488 120.173 15.3177V13.9812C119.481 14.1122 118.775 14.1778 118.07 14.1778C116.57 14.1778 115.813 13.6405 115.813 12.5791V12.5267H120.545C120.583 12.2516 120.596 11.9633 120.596 11.6881C120.609 9.46053 119.532 8.34674 117.416 8.34674ZM118.968 11.3474H115.826V11.2819C115.916 10.2074 116.442 9.67018 117.429 9.67018C118.455 9.67018 118.968 10.1943 118.968 11.2295V11.3474Z" fill="white"/>
<path fill-rule="evenodd" clip-rule="evenodd" d="M125.366 11.2164H124.212C123.609 11.2164 123.314 10.9544 123.314 10.4302C123.314 9.89298 123.827 9.61781 124.827 9.61781C125.725 9.61781 126.571 9.77505 127.353 10.0764V8.67436C126.584 8.4123 125.75 8.26816 124.878 8.26816C122.814 8.26816 121.763 9.01505 121.763 10.4957C121.763 11.924 122.455 12.6185 123.878 12.6185H125.16C125.712 12.6185 125.994 12.8806 125.994 13.4047C125.994 13.9419 125.584 14.2171 124.776 14.2171C123.776 14.2171 122.865 14.0599 122.096 13.7585V15.1605C122.865 15.4226 123.75 15.5668 124.712 15.5668C126.686 15.5668 127.674 14.8199 127.674 13.3392C127.686 11.9371 126.904 11.2164 125.366 11.2164Z" fill="white"/>
<path fill-rule="evenodd" clip-rule="evenodd" d="M0.929688 5.98816V10.3516C0.929688 11.2164 1.62207 11.924 2.46831 11.924H6.738V16.2874C6.738 17.1523 7.43038 17.8598 8.27663 17.8598H12.5463V5.98816H0.929688Z" fill="#DFDFDF"/>
<path fill-rule="evenodd" clip-rule="evenodd" d="M27.6378 0.0523071H9.09738C7.80237 0.0523071 6.75098 1.12679 6.75098 2.45023V5.98815H12.5593L18.3676 11.924V5.98815H24.1759V11.924H18.3676L29.3047 23.1012C29.7278 22.6688 29.997 22.066 29.997 21.3977V2.45023C29.9842 1.12679 28.9328 0.0523071 27.6378 0.0523071Z" fill="white"/>
<path fill-rule="evenodd" clip-rule="evenodd" d="M12.5596 21.3978C12.5596 22.7212 13.611 23.7957 14.906 23.7957H18.3679L12.5596 17.8598V21.3978Z" fill="white"/>
<path fill-rule="evenodd" clip-rule="evenodd" d="M12.5586 11.924H18.3669L12.5586 5.98816V11.924Z" fill="#EEEEEE"/>
<path fill-rule="evenodd" clip-rule="evenodd" d="M18.3669 11.924V17.8599H12.5586L18.3669 23.7957H27.6371C28.291 23.7957 28.868 23.5205 29.304 23.0881L18.3669 11.924Z" fill="#EEEEEE"/>
</g>
<defs>
<clipPath id="clip0_3312_590">
<rect width="127.2" height="24" fill="white" transform="translate(0.841797)"/>
</clipPath>
</defs>
</svg>
