<?xml version="1.0" encoding="UTF-8"?>
<svg width="16px" height="12px" viewBox="0 0 16 12" version="1.1" xmlns="http://www.w3.org/2000/svg"
     xmlns:xlink="http://www.w3.org/1999/xlink">
    <!-- Generator: Sketch 48.2 (47327) - http://www.bohemiancoding.com/sketch -->
    <desc>Created with Sketch.</desc>
    <defs></defs>
    <g id="Icons" stroke="none" stroke-width="1" fill="none" fill-rule="evenodd"
       transform="translate(0.000000, -2.000000)">
        <g id="Group-2" transform="translate(0.000000, 2.000000)" fill="#303C42">
            <path d="M11.2776,2.2112 L11.8109333,1.67786667 C11.8877333,1.60106667 12.0013333,1.57866667 12.1016,1.62026667 C12.2013333,1.66133333 12.2664,1.7584 12.2664,1.86666667 L12.2664,4 C12.2664,4.1472 12.1469333,4.26666667 11.9997333,4.26666667 C11.852,4.26666667 11.7330667,4.1472 11.7330667,4 L11.7330667,2.5104 L11.6546667,2.58826667 C11.5506667,2.69226667 11.3816,2.69226667 11.2776,2.58826667 C11.1736,2.48426667 11.1736,2.3152 11.2776,2.2112 M11.9997333,5.86666667 C13.6168,5.86666667 14.9330667,4.5504 14.9330667,2.93333333 C14.9330667,1.31573333 13.6168,0 11.9997333,0 C10.3821333,0 9.0664,1.31573333 9.0664,2.93333333 C9.0664,4.5504 10.3821333,5.86666667 11.9997333,5.86666667"
                  id="Fill-283"></path>
            <path d="M3.0336,5.34741333 L0.3184,4.80448 C0.240533333,4.79008 0.158933333,4.80928 0.0970666667,4.85941333 C0.0357333333,4.91061333 0,4.98581333 0,5.06581333 L0,10.39968 C0,10.5474133 0.118933333,10.6663467 0.266666667,10.6663467 L2.3552,10.6663467 C2.81653333,10.6663467 3.21386667,10.3218133 3.27893333,9.86474667 L3.77493333,6.39488 C3.8448,5.90474667 3.51893333,5.44501333 3.0336,5.34741333"
                  id="Fill-285"></path>
            <path d="M13.8661333,7.7328 C13.4709333,7.7328 12.3749333,8.04213333 11.9189333,8.176 C11.8010667,8.21066667 11.7221333,8.3216 11.728,8.44373333 C11.7301333,8.48373333 11.7312,8.51786667 11.7301333,8.53333333 C11.7018667,9.02026667 11.4874667,9.42826667 11.104,9.72 C10.7056,10.024 10.1621333,10.1717333 9.44266667,10.1717333 C8.61706667,10.1717333 7.552,9.97493333 6.18506667,9.57066667 C6.05226667,9.5312 5.95893333,9.3984 5.9856,9.2624 C6.016,9.10453333 6.17226667,9.01066667 6.32373333,9.05493333 C8.66613333,9.74933333 10.0858667,9.82453333 10.7813333,9.296 C11.0661333,9.0784 11.2069333,8.77546667 11.1994667,8.39466667 L11.1994667,8.3936 C11.1973333,8.28 11.1749333,8.17706667 11.1424,8.07946667 C11.1370667,8.06453333 11.1328,8.04906667 11.1274667,8.03466667 C10.8464,7.31413333 9.7616,7.02986667 8.6528,6.8048 C8.07253333,6.68746667 7.64213333,6.49493333 7.22613333,6.30933333 C6.7152,6.08106667 6.23253333,5.86613333 5.59946667,5.86613333 C5.2784,5.86613333 4.93706667,5.88426667 4.5552,5.9216 C4.41493333,5.93546667 4.3088,6.05546667 4.31466667,6.1968 C4.3184,6.2864 4.31573333,6.3776 4.30186667,6.46986667 L3.8064,9.9392 C3.7888,10.0586667 3.85493333,10.1749333 3.96586667,10.2224 C5.584,10.9114667 7.7824,11.7328 9.06613333,11.7328 C10.48,11.7328 13.6,10.3216 15.2762667,9.56373333 C15.5024,9.46133333 15.6933333,9.37493333 15.8384,9.31093333 C15.9392,9.26666667 16.0005333,9.1664 15.9994667,9.056 C15.9904,8.2384 14.888,7.7328 13.8661333,7.7328"
                  id="Fill-287"></path>
        </g>
    </g>
</svg>
