<svg xmlns="http://www.w3.org/2000/svg" width="64" height="18" viewBox="0 0 64 18">
    <g fill="none" fill-rule="evenodd">
        <path fill="#0079C1"
              d="M43.531 5.25c-.268 1.764-1.615 1.764-2.919 1.764h-.741l.52-3.294a.409.409 0 0 1 .404-.345h.34c.888 0 1.725 0 2.157.505.259.302.337.75.24 1.37M42.963.647H38.05a.683.683 0 0 0-.675.577l-1.987 12.6a.41.41 0 0 0 .404.474h2.522a.478.478 0 0 0 .472-.403l.564-3.573a.682.682 0 0 1 .674-.576h1.555c3.237 0 5.106-1.567 5.594-4.672.22-1.357.008-2.424-.627-3.171-.699-.821-1.938-1.256-3.582-1.256"/>
        <path fill="#00457C"
              d="M8.48 5.25c-.268 1.764-1.615 1.764-2.919 1.764h-.74l.52-3.294a.409.409 0 0 1 .404-.345h.34c.887 0 1.724 0 2.157.505.258.302.336.75.238 1.37M7.913.647H3a.683.683 0 0 0-.675.577l-1.987 12.6a.41.41 0 0 0 .405.474h2.346a.683.683 0 0 0 .675-.576l.536-3.4a.682.682 0 0 1 .674-.576h1.555c3.237 0 5.106-1.567 5.594-4.672.22-1.357.009-2.424-.627-3.171C10.796 1.082 9.558.647 7.913.647M19.322 9.773c-.227 1.345-1.294 2.248-2.656 2.248-.682 0-1.229-.22-1.58-.636-.348-.412-.48-.999-.369-1.652.212-1.333 1.297-2.265 2.637-2.265.669 0 1.211.222 1.57.642.36.422.502 1.013.398 1.663m3.28-4.58h-2.353a.41.41 0 0 0-.405.346l-.104.658-.164-.238c-.51-.74-1.646-.988-2.78-.988-2.6 0-4.82 1.97-5.253 4.734-.224 1.379.095 2.696.877 3.615.718.845 1.742 1.197 2.963 1.197 2.096 0 3.258-1.346 3.258-1.346l-.105.654a.41.41 0 0 0 .405.473h2.119a.683.683 0 0 0 .674-.576l1.273-8.056a.41.41 0 0 0-.405-.473"/>
        <path fill="#0079C1"
              d="M54.373 9.773c-.227 1.345-1.294 2.248-2.656 2.248-.682 0-1.23-.22-1.58-.636-.349-.412-.48-.999-.369-1.652.212-1.333 1.296-2.265 2.637-2.265.669 0 1.211.222 1.569.642.36.422.502 1.013.4 1.663m3.279-4.58h-2.354a.41.41 0 0 0-.404.346l-.104.658-.164-.238c-.51-.74-1.646-.988-2.78-.988-2.6 0-4.82 1.97-5.253 4.734-.225 1.379.095 2.696.877 3.615.718.845 1.742 1.197 2.963 1.197 2.096 0 3.258-1.346 3.258-1.346l-.105.654a.41.41 0 0 0 .405.473h2.118a.683.683 0 0 0 .675-.576l1.273-8.056a.41.41 0 0 0-.405-.473"/>
        <path fill="#00457C"
              d="M35.135 5.193H32.77a.681.681 0 0 0-.565.3l-3.263 4.805L27.56 5.68a.684.684 0 0 0-.655-.487H24.58a.41.41 0 0 0-.387.542l2.604 7.645-2.45 3.456a.41.41 0 0 0 .335.647h2.362c.224 0 .434-.11.562-.294L35.47 5.836a.41.41 0 0 0-.336-.643"/>
        <path fill="#0079C1"
              d="M60.426.993L58.41 13.825a.41.41 0 0 0 .405.473h2.028a.682.682 0 0 0 .675-.576L63.506 1.12A.41.41 0 0 0 63.1.647h-2.27a.409.409 0 0 0-.405.346"/>
    </g>
</svg>
