<?xml version="1.0" encoding="UTF-8"?>
<svg width="14px" height="16px" viewBox="0 0 14 16" version="1.1" xmlns="http://www.w3.org/2000/svg"
     xmlns:xlink="http://www.w3.org/1999/xlink">
    <!-- Generator: Sketch 47.1 (45422) - http://www.bohemiancoding.com/sketch -->
    <title>Paypal@svg</title>
    <desc>Created with Sketch.</desc>
    <defs></defs>
    <g id="Screens" stroke="none" stroke-width="1" fill="none" fill-rule="evenodd">
        <g id="Appointments" transform="translate(-977.000000, -616.000000)" fill-rule="nonzero" fill="#1A84EE">
            <g id="Group-11" transform="translate(183.000000, 253.000000)">
                <g id="Todays-appointments" transform="translate(0.000000, 338.000000)">
                    <g id="Person">
                        <g id="Stats" transform="translate(350.000000, 17.000000)">
                            <g id="Group-7" transform="translate(444.000000, 7.000000)">
                                <path d="M11.921058,2.206481 C11.1559101,1.36199433 9.77327493,1 8.00393547,1 L2.86990841,1 C2.50798655,1 2.20027509,1.254996 2.1434829,1.60049067 L0.00550977656,14.7312853 C-0.0368265648,14.9902813 0.170207484,15.2247777 0.441261825,15.2247777 L3.61079045,15.2247777 L4.40691548,10.334854 L4.38213343,10.4878517 C4.43892596,10.142357 4.74457192,9.887361 5.10597748,9.887361 L6.61200699,9.887361 C9.57140415,9.887361 11.8880149,8.72337933 12.5648763,5.356432 C12.5850117,5.25643333 12.6175385,5.06493633 12.6175385,5.06493633 C12.8095997,3.818956 12.6159896,2.973469 11.921058,2.206481 Z M13.4198594,5.70267667 C12.683624,9.01762467 10.3365516,10.7720973 6.61200699,10.7720973 L5.26138226,10.7720973 L4.2540925,17 L6.44472782,17 C6.76121591,17 7.03020508,16.7770033 7.07976952,16.4745083 L7.10558416,16.3425103 L7.60948718,13.2515587 L7.64201362,13.0810613 C7.69106142,12.778566 7.96056689,12.5555693 8.27653869,12.5555693 L8.67666654,12.5555693 C11.2648482,12.5555693 13.2918184,11.5370853 13.8840075,8.59213133 C14.1215028,7.41015 14.0074018,6.41916533 13.4198594,5.70267667 Z"
                                      id="Paypal"></path>
                            </g>
                        </g>
                    </g>
                </g>
            </g>
        </g>
    </g>
</svg>