<svg width="847" height="180" viewBox="0 0 847 180" fill="none" xmlns="http://www.w3.org/2000/svg">
<path d="M223.833 67.1062C226.646 56.5687 225.484 48.5062 220.345 42.9187C215.207 37.3312 206.224 34.5187 193.398 34.4812H144.247L114.617 145.65H138.414L150.397 100.65H166.112C168.987 100.506 171.852 101.093 174.438 102.356C175.488 103.013 176.363 103.913 176.99 104.981C177.617 106.048 177.977 107.251 178.039 108.488L182.333 145.65H207.837L203.674 111.131C202.849 103.425 199.305 98.8875 193.154 97.5188C200.596 95.4658 207.387 91.5411 212.882 86.1188C218.191 80.8929 221.977 74.3203 223.833 67.1062ZM201.049 67.5C200.023 72.0578 197.231 76.0226 193.285 78.525C189.534 80.8875 184.059 82.05 177.101 82.05H155.011L162.774 53.0062H184.884C191.822 53.0062 196.586 54.1875 199.211 56.5312C201.836 58.875 202.399 62.5875 201.049 67.5Z" fill="#0C2651"/>
<path d="M292.544 66.1876L289.524 77.4376C288.266 73.417 285.604 69.9829 282.023 67.7626C277.847 65.2564 273.032 64.0186 268.165 64.2001C261.337 64.2019 254.627 65.9857 248.7 69.3751C242.248 73.0745 236.676 78.128 232.366 84.1876C227.616 90.7392 224.137 98.1229 222.108 105.956C219.98 112.928 219.53 120.303 220.795 127.481C221.761 133.151 224.795 138.261 229.309 141.825C234.216 145.333 240.161 147.09 246.187 146.813C251.568 146.825 256.888 145.673 261.782 143.437C266.676 141.2 271.028 137.932 274.541 133.856L271.428 145.594H294.625L315.778 66.1876H292.544ZM282.005 105.563C280.57 112.028 277.377 117.972 272.778 122.738C270.798 124.676 268.451 126.201 265.876 127.225C263.3 128.248 260.547 128.75 257.776 128.7C251.869 128.7 247.893 126.825 245.755 122.831C243.618 118.838 243.561 113.269 245.512 105.956C246.995 99.4331 250.238 93.4411 254.888 88.6314C256.875 86.6346 259.24 85.054 261.845 83.982C264.45 82.9099 267.242 82.3679 270.059 82.3876C275.835 82.3876 279.773 84.3939 281.798 88.3876C283.824 92.3814 284.03 98.0251 282.042 105.544L282.005 105.563Z" fill="#0C2651"/>
<path d="M398.534 66.2437H331.718L326.786 84.7687H365.679L314.54 129.375L310.171 145.744H379.181L384.113 127.219H342.388L394.371 81.9749L398.534 66.2437Z" fill="#0C2651"/>
<path d="M471.614 69.1501C465.409 65.605 458.332 63.8766 451.192 64.1626C443.138 64.0929 435.167 65.7956 427.845 69.1501C420.723 72.4705 414.465 77.3925 409.561 83.5314C404.438 89.9708 400.738 97.4217 398.703 105.394C396.514 112.484 396.243 120.027 397.915 127.256C399.45 133.257 403.264 138.423 408.548 141.656C413.924 144.969 420.8 146.625 429.176 146.625C437.144 146.695 445.028 144.998 452.261 141.656C459.361 138.335 465.589 133.405 470.451 127.256C475.584 120.821 479.291 113.369 481.328 105.394C483.521 98.3039 483.786 90.7579 482.097 83.5314C480.62 77.5504 476.856 72.387 471.614 69.1501ZM458.074 105.356C455.993 113.156 452.936 119.006 448.81 122.869C444.829 126.661 439.512 128.73 434.014 128.625C421.888 128.625 417.893 120.869 422.031 105.356C424.069 97.6564 427.195 91.8501 431.408 87.9376C435.44 84.0812 440.831 81.9721 446.41 82.0689C452.186 82.0689 456.124 83.9439 458.149 87.9376C460.175 91.9314 460.118 97.6501 458.074 105.356Z" fill="#0C2651"/>
<path d="M724.213 66.1875L721.194 77.4375C719.936 73.4169 717.274 69.9828 713.693 67.7625C709.524 65.2336 704.708 63.9759 699.835 64.1438C692.995 64.1586 686.278 65.962 680.351 69.375C673.894 73.0736 668.315 78.1271 663.998 84.1875C659.256 90.7434 655.777 98.1257 653.74 105.956C651.631 112.931 651.181 120.302 652.428 127.481C653.394 133.151 656.427 138.261 660.942 141.825C665.913 145.362 671.932 147.119 678.025 146.813C683.286 146.793 688.483 145.655 693.271 143.475C698.212 141.258 702.599 137.973 706.117 133.856L703.004 145.594H726.201L747.373 66.1875H724.213ZM713.618 105.563C712.19 112.026 709.004 117.97 704.41 122.738C702.426 124.67 700.079 126.191 697.504 127.215C694.93 128.238 692.178 128.743 689.408 128.7C683.482 128.7 679.507 126.825 677.369 122.831C675.231 118.838 675.194 113.269 677.125 105.956C678.616 99.4361 681.858 93.4461 686.502 88.6313C688.493 86.6357 690.862 85.056 693.469 83.9841C696.077 82.9122 698.872 82.3695 701.691 82.3875C707.467 82.3875 711.38 84.3875 713.431 88.3875C715.606 92.2688 715.662 98.025 713.618 105.544V105.563Z" fill="#0C2651"/>
<path d="M554.182 87.5629L560.108 65.9442C557.609 64.813 554.88 64.2801 552.138 64.3879C546.778 64.394 541.509 65.7756 536.836 68.4004C532.574 70.7349 528.875 73.9731 525.997 77.8879L529.053 66.2442H505.875L484.534 145.65H508.05L519.096 104.194C520.39 98.6624 523.419 93.6892 527.741 90.0004C532.185 86.5296 537.707 84.731 543.343 84.9192C547.118 84.9034 550.839 85.811 554.182 87.5629Z" fill="#0C2651"/>
<path d="M636.132 69.5438C631.334 65.8775 625.4 64.0127 619.367 64.2751C613.497 64.2817 607.712 65.6826 602.49 68.3626C597.257 70.9354 592.746 74.7692 589.363 79.5188L589.457 78.9751L593.413 66.2438H570.348L564.459 88.3126C564.459 88.5563 564.328 88.8188 564.272 89.0626L540.081 180H563.709L575.917 134.175C577.084 138.218 579.773 141.652 583.418 143.756C587.649 146.186 592.476 147.382 597.352 147.206C604.201 147.225 610.946 145.523 616.967 142.256C623.375 138.725 628.906 133.797 633.151 127.837C637.82 121.319 641.235 113.987 643.221 106.219C645.364 99.1431 645.852 91.6693 644.646 84.3751C643.659 78.5775 640.641 73.3202 636.132 69.5438ZM619.424 105.844C617.982 112.207 614.809 118.047 610.253 122.719C606.222 126.574 600.829 128.677 595.251 128.569C589.438 128.569 585.5 126.562 583.418 122.606C581.337 118.65 581.224 112.95 583.268 105.431C584.729 98.916 587.976 92.9363 592.645 88.1626C594.628 86.2259 596.974 84.6991 599.548 83.6696C602.123 82.6401 604.875 82.128 607.647 82.1626C613.273 82.1626 617.192 84.2626 619.236 88.4063C621.28 92.5501 621.411 98.4188 619.424 105.844Z" fill="#0C2651"/>
<path d="M846.013 63.5999H821.634L817.884 71.4374C817.584 71.8311 817.302 72.2249 816.965 72.7124L816.571 73.3499L786.566 115.312L780.341 66.2436H755.737L768.245 141.506L740.585 180H764.269L771.114 170.231C771.321 169.931 771.527 169.687 771.714 169.369L779.722 157.95L779.984 157.65L815.746 106.631L846.013 63.5999Z" fill="#0C2651"/>
<path d="M54.3828 47.175L47.2567 73.125L87.4627 47.0437L61.2088 145.65H87.8565L126.656 0L54.3828 47.175Z" fill="#3395FF"/>
<path d="M11.0641 104.175L0 145.65H54.6643L77.0364 61.2749L11.0641 104.175Z" fill="#0C2651"/>
</svg>
