<?xml version="1.0" encoding="utf-8"?>
<!-- Generator: Adobe Illustrator 17.0.0, SVG Export Plug-In . SVG Version: 6.00 Build 0)  -->
<!DOCTYPE svg PUBLIC "-//W3C//DTD SVG 1.1//EN" "http://www.w3.org/Graphics/SVG/1.1/DTD/svg11.dtd">
<svg version="1.1" id="Layer_1" xmlns="http://www.w3.org/2000/svg" xmlns:xlink="http://www.w3.org/1999/xlink" x="0px"
     y="0px"
     width="477.5px" height="201.5px" viewBox="0 0 477.5 201.5" enable-background="new 0 0 477.5 201.5"
     xml:space="preserve">
<g id="Stripe">
	<path fill="#6772E5" d="M473.769,104.215c0-33.477-16.215-59.892-47.208-59.892c-31.123,0-49.954,26.415-49.954,59.631
		c0,39.362,22.231,59.238,54.138,59.238c15.562,0,27.331-3.531,36.223-8.5v-26.154c-8.892,4.446-19.092,7.192-32.038,7.192
		c-12.685,0-23.931-4.446-25.369-19.877h63.946C473.508,114.154,473.769,107.354,473.769,104.215z M409.169,91.792
		c0-14.777,9.023-20.923,17.262-20.923c7.977,0,16.477,6.146,16.477,20.923H409.169z"/>
    <path fill="#6772E5" d="M326.131,44.323c-12.815,0-21.054,6.015-25.631,10.2l-1.7-8.108h-28.769v152.477l32.692-6.931l0.131-37.008
		c4.708,3.4,11.638,8.238,23.146,8.238c23.408,0,44.723-18.831,44.723-60.285C370.592,64.985,349.015,44.323,326.131,44.323z
		 M318.285,134.423c-7.715,0-12.292-2.746-15.431-6.146l-0.131-48.515c3.4-3.792,8.108-6.408,15.562-6.408
		c11.9,0,20.138,13.338,20.138,30.469C338.423,121.346,330.315,134.423,318.285,134.423z"/>
    <polygon fill="#6772E5" points="225.046,36.608 257.869,29.546 257.869,3 225.046,9.931 	"/>
    <rect x="225.046" y="46.546" fill="#6772E5" width="32.823" height="114.423"/>
    <path fill="#6772E5" d="M189.869,56.223l-2.092-9.677h-28.246v114.423h32.692V83.423c7.715-10.069,20.792-8.238,24.846-6.8V46.546
		C212.885,44.977,197.585,42.1,189.869,56.223z"/>
    <path fill="#6772E5" d="M124.485,18.169l-31.908,6.8l-0.131,104.746c0,19.354,14.515,33.608,33.869,33.608
		c10.723,0,18.569-1.962,22.885-4.315v-26.546c-4.185,1.7-24.846,7.715-24.846-11.638V74.4H149.2V46.546h-24.846L124.485,18.169z"/>
    <path fill="#6772E5" d="M36.085,79.762c0-5.1,4.185-7.062,11.115-7.062c9.938,0,22.492,3.008,32.431,8.369V50.338
		c-10.854-4.315-21.577-6.015-32.431-6.015C20.654,44.323,3,58.185,3,81.331c0,36.092,49.692,30.338,49.692,45.9
		c0,6.015-5.231,7.977-12.554,7.977c-10.854,0-24.715-4.446-35.7-10.462v31.123c12.162,5.231,24.454,7.454,35.7,7.454
		c27.2,0,45.9-13.469,45.9-36.877C85.908,87.477,36.085,94.408,36.085,79.762z"/>
</g>
</svg>
