<svg xmlns="http://www.w3.org/2000/svg" width="901" height="183" viewBox="0 0 901 183">
    <g fill="none" fill-rule="evenodd">
        <path fill="#9C5C8F"
              d="M2.466,17.936 C6.646,7.816 17.136,0.666 28.126,0.686 C110.796,0.656 193.466,0.696 276.136,0.666 C283.306,0.506 290.486,3.176 295.776,8.026 C301.836,13.446 305.286,21.546 305.116,29.666 C305.086,61.356 305.176,93.035 305.076,124.726 C305.016,139.045 292.506,151.825 278.196,152.215 C248.046,152.346 217.886,152.226 187.736,152.276 C191.786,162.255 195.886,172.225 199.936,182.216 C181.976,172.326 164.196,162.085 146.136,152.405 C106.476,152.056 66.786,152.435 27.116,152.205 C12.826,151.806 0.366,139.035 0.286,124.745 C0.166,93.726 0.286,62.696 0.226,31.666 C0.116,27.006 0.556,22.246 2.466,17.936"/>
        <path fill="#FFF"
              d="M123.726,20.246 C128.306,15.376 136.996,16.956 140.376,22.466 C142.206,25.356 142.366,29.216 140.896,32.296 C134.526,44.826 131.866,58.786 129.416,72.506 C126.516,90.396 124.106,108.515 125.046,126.676 C125.306,131.305 123.066,136.926 118.096,138.006 C113.396,139.055 109.116,135.975 106.166,132.655 C92.666,118.135 85.026,99.325 79.516,80.556 C73.946,91.546 68.356,102.535 62.956,113.615 C59.176,121.105 55.186,128.745 49.146,134.696 C46.596,137.226 42.286,139.515 38.996,136.915 C34.047,132.585 32.827,125.685 30.726,119.756 C22.756,92.265 18.236,63.936 13.606,35.736 C12.546,31.036 14.516,25.406 19.206,23.526 C22.996,22.106 27.846,21.906 31.076,24.696 C33.327,26.706 33.946,29.816 34.366,32.656 C37.616,54.486 41.486,76.246 46.757,97.685 C55.787,80.566 64.766,63.416 73.766,46.276 C75.106,43.766 76.706,41.246 79.166,39.686 C82.456,37.576 87.336,37.726 90.086,40.676 C92.396,43.096 93.166,46.466 93.806,49.646 C96.496,63.816 100.136,77.846 105.426,91.276 C107.706,71.036 110.496,50.546 117.886,31.436 C119.556,27.586 121.026,23.516 123.726,20.246 Z M174.486,31.086 C184.206,29.896 194.696,33.126 201.316,40.516 C206.716,46.626 209.746,54.556 210.766,62.576 C212.416,76.296 209.946,90.556 203.346,102.726 C199.616,109.665 194.736,116.315 187.856,120.395 C177.776,126.515 164.256,125.765 154.516,119.305 C146.736,113.975 142.366,104.896 140.586,95.845 C137.006,75.366 143.126,52.536 158.636,38.236 C163.086,34.396 168.636,31.796 174.486,31.086 Z M176.516,52.156 C171.846,53.706 168.896,57.986 166.386,61.966 C160.096,72.096 158.276,85.456 163.336,96.475 C164.666,99.375 166.806,102.425 170.176,103.035 C173.756,103.625 177.086,101.576 179.696,99.346 C185.446,94.415 188.306,87.006 189.696,79.736 C191.256,71.456 190.456,62.286 185.596,55.196 C183.646,52.306 179.816,50.996 176.516,52.156 Z M252.476,31.106 C261.976,29.926 272.286,32.856 278.936,39.946 C284.886,46.365 288.106,54.956 289.016,63.586 C290.416,76.846 287.976,90.556 281.686,102.345 C277.906,109.475 272.916,116.336 265.836,120.486 C256.156,126.285 243.376,125.755 233.786,120.035 C227.306,116.135 222.996,109.475 220.516,102.476 C213.716,81.066 219.456,55.876 235.126,39.716 C239.826,35.135 245.926,31.926 252.476,31.106 Z M254.536,52.186 C249.436,54.006 246.376,58.876 243.726,63.296 C237.986,73.416 236.576,86.446 241.766,97.076 C243.166,100.015 245.646,102.975 249.156,103.135 C252.976,103.276 256.266,100.856 258.916,98.355 C264.686,92.665 267.326,84.536 268.246,76.646 C269.196,69.256 267.966,61.316 263.666,55.116 C261.696,52.226 257.826,50.996 254.536,52.186 Z"/>
        <path fill="#000"
              d="M356.466,33.916 C364.756,32.086 373.476,32.336 381.726,34.256 C381.756,41.006 381.726,47.756 381.746,54.506 C374.976,52.876 367.406,51.346 360.836,54.516 C352.986,58.356 348.696,67.206 348.616,75.706 C348.176,84.176 350.996,93.605 358.496,98.365 C365.386,102.925 374.186,101.955 381.746,99.786 C381.726,106.535 381.746,113.286 381.726,120.035 C371.726,122.935 360.796,122.575 351.036,118.945 C339.316,114.546 329.986,104.426 326.416,92.436 C323.716,83.336 323.366,73.476 325.556,64.226 C329.086,49.386 341.616,37.226 356.466,33.916 Z M417.386,32.916 C427.586,31.776 438.686,33.346 446.926,39.886 C454.876,46.056 458.846,56.006 460.226,65.726 C461.626,76.366 461.315,87.436 458.026,97.715 C455.226,106.446 449.366,114.515 440.926,118.485 C432.346,122.526 422.346,122.795 413.216,120.736 C404.756,118.835 397.306,113.225 393.106,105.655 C387.296,95.445 386.236,83.326 386.686,71.806 C387.166,61.866 389.676,51.506 396.356,43.846 C401.596,37.616 409.356,33.826 417.386,32.916 Z M420.526,52.276 C416.146,53.386 413.666,57.706 412.566,61.776 C410.396,69.826 410.766,78.296 411.316,86.536 C411.846,90.986 412.326,95.905 415.496,99.375 C419.706,104.166 428.166,103.515 432.036,98.615 C434.596,95.475 435.256,91.336 435.846,87.456 C436.666,80.516 436.876,73.456 435.816,66.536 C435.076,62.386 433.926,58.006 430.876,54.906 C428.256,52.186 424.116,51.356 420.526,52.276 Z M820.566,34.266 C829.225,31.996 838.405,32.326 847.115,34.186 C847.315,40.956 847.155,47.736 847.205,54.506 C840.575,52.916 833.255,51.426 826.765,54.286 C819.306,57.686 814.785,65.686 814.205,73.676 C813.286,82.636 815.755,92.936 823.655,98.175 C830.575,102.935 839.545,102.006 847.205,99.786 C847.115,106.585 847.405,113.396 847.045,120.185 C836.385,122.955 824.775,122.585 814.615,118.176 C803.455,113.315 794.805,103.236 791.595,91.516 C789.135,82.516 788.855,72.836 791.125,63.766 C794.676,49.586 806.465,37.946 820.565,34.266 L820.566,34.266 Z M473.686,34.936 C483.326,34.915 492.976,34.916 502.625,34.936 C506.116,50.576 509.436,66.266 512.335,82.026 C515.096,66.196 518.806,50.556 522.536,34.936 C532.426,34.915 542.315,34.926 552.216,34.926 C556.056,63.236 559.876,91.546 563.686,119.855 C556.116,119.865 548.555,119.866 540.985,119.855 C538.886,100.465 537.025,81.056 534.805,61.676 C530.216,81.096 525.376,100.455 520.696,119.855 C515.536,119.875 510.365,119.866 505.205,119.855 C500.256,100.435 495.386,80.986 490.396,61.576 C488.446,81.006 486.516,100.435 484.546,119.866 C477.316,119.855 470.075,119.875 462.846,119.855 C466.446,91.546 470.075,63.246 473.686,34.936 Z M577.486,34.926 C587.136,34.936 596.785,34.906 606.446,34.936 C609.926,50.556 613.216,66.216 616.136,81.956 C618.936,66.156 622.605,50.526 626.345,34.926 C636.196,34.926 646.055,34.926 655.905,34.926 C659.736,63.236 663.555,91.546 667.365,119.855 C659.805,119.875 652.245,119.845 644.685,119.875 C642.586,100.475 640.625,81.076 638.555,61.676 C633.836,81.066 629.206,100.475 624.486,119.866 C619.326,119.855 614.175,119.866 609.026,119.866 C604.076,100.425 599.156,80.976 594.216,61.526 C592.236,80.966 590.326,100.415 588.356,119.855 C581.116,119.865 573.885,119.866 566.646,119.855 C570.256,91.546 573.876,63.236 577.486,34.926 Z M673.826,35.205 C689.315,34.856 704.825,35.156 720.325,35.056 C720.356,41.086 720.305,47.106 720.355,53.136 C712.535,53.226 704.715,53.146 696.895,53.186 C696.885,58.366 696.885,63.546 696.895,68.726 C703.666,68.746 710.435,68.726 717.205,68.736 C717.206,74.606 717.215,80.466 717.205,86.326 C710.435,86.336 703.665,86.316 696.895,86.336 C696.885,91.516 696.885,96.705 696.895,101.885 C704.745,101.905 712.605,101.885 720.455,101.895 C720.455,107.925 720.465,113.955 720.455,119.985 C704.956,119.995 689.455,119.995 673.965,119.985 C673.866,91.726 674.135,63.456 673.825,35.206 L673.826,35.205 Z M727.025,34.926 C736.726,34.966 746.425,34.846 756.125,34.986 C765.266,35.276 774.955,37.556 781.775,44.026 C787.936,49.756 790.065,59.106 787.675,67.076 C785.786,73.556 780.925,78.816 774.855,81.656 C780.926,94.405 787.055,107.115 793.125,119.855 C785.056,119.865 776.985,119.855 768.925,119.866 C762.596,106.866 756.465,93.755 750.055,80.796 C749.896,93.815 750.035,106.836 749.985,119.855 C742.325,119.865 734.675,119.866 727.025,119.855 C727.016,91.546 727.015,63.236 727.025,34.926 Z M749.876,51.256 C749.856,58.006 749.855,64.766 749.875,71.526 C754.025,71.236 758.535,71.076 762.065,68.566 C766.125,65.636 765.685,59.366 763.125,55.586 C759.956,51.706 754.445,51.626 749.875,51.256 L749.876,51.256 Z M853.635,34.946 C869.105,34.906 884.575,34.946 900.045,34.926 C900.055,40.965 900.045,47.006 900.045,53.046 C892.195,53.056 884.345,53.046 876.495,53.056 C876.485,58.226 876.485,63.396 876.485,68.576 C883.255,68.596 890.025,68.566 896.795,68.586 C896.795,74.456 896.805,80.336 896.795,86.206 C890.025,86.206 883.265,86.206 876.505,86.206 C876.475,91.386 876.485,96.565 876.495,101.756 C884.375,101.775 892.255,101.756 900.145,101.766 C900.145,107.795 900.145,113.826 900.135,119.866 C884.645,119.865 869.145,119.866 853.655,119.855 C853.625,91.556 853.655,63.246 853.635,34.946 Z"/>
    </g>
</svg>
