<svg width="24" height="24" viewBox="0 0 24 24" fill="none" xmlns="http://www.w3.org/2000/svg">
<rect x="0.5" y="2.5" width="23" height="19" rx="3.5" fill="#EAEFFE"/>
<rect x="7" y="7" width="10" height="11" fill="#A8BEFA"/>
<path d="M16 6.4H15.3333V5.7C15.3333 5.28 15.0667 5 14.6667 5C14.2667 5 14 5.28 14 5.7V6.4H10V5.7C10 5.28 9.73333 5 9.33333 5C8.93333 5 8.66667 5.28 8.66667 5.7V6.4H8C6.86667 6.4 6 7.31 6 8.5V16.9C6 18.09 6.86667 19 8 19H16C17.1333 19 18 18.09 18 16.9V8.5C18 7.31 17.1333 6.4 16 6.4ZM16.6667 10.18V11.3V12.7V12.98V16.9C16.6667 17.32 16.4 17.6 16 17.6H8C7.6 17.6 7.33333 17.32 7.33333 16.9V12.98V12.7V11.3V10.18V8.5C7.33333 8.08 7.6 7.8 8 7.8H8.66667V8.5C8.66667 8.92 8.93333 9.2 9.33333 9.2C9.73333 9.2 10 8.92 10 8.5V7.8H14V8.5C14 8.92 14.2667 9.2 14.6667 9.2C15.0667 9.2 15.3333 8.92 15.3333 8.5V7.8H16C16.4 7.8 16.6667 8.08 16.6667 8.5V10.18Z" fill="#265CF2"/>
<rect x="0.5" y="2.5" width="23" height="19" rx="3.5" stroke="#265CF2"/>
</svg>
