<svg width="24" height="24" viewBox="0 0 24 24" fill="none" xmlns="http://www.w3.org/2000/svg">
<rect x="0.5" y="2.5" width="23" height="19" rx="3.5" fill="#EAEFFE"/>
<path d="M10 10L7 12.5H6.5L11.5 17.5L13.5 14L14.5 14.5L15 13L14.5 11.5L17.5 8.5V7.5L17 7L16 6.5L13 9H12H10.5L10 10Z" fill="#A8BEFA"/>
<path fill-rule="evenodd" clip-rule="evenodd" d="M15.557 7.38144C15.8968 7.0416 16.3937 7.05823 16.6679 7.33242C16.9421 7.6066 16.9587 8.10347 16.6188 8.44332L14.4379 10.6243L13.376 9.56238L15.557 7.38144ZM12.5776 8.76792L14.7606 6.58504C15.5012 5.84444 16.7122 5.78389 17.4643 6.53601C18.2164 7.28813 18.1559 8.49912 17.4153 9.23973L15.2323 11.4227C15.9327 12.1992 15.9436 13.3863 15.2413 14.1764L14.6803 14.8075C14.5772 14.9234 14.4309 14.9917 14.2759 14.9963C14.1209 15.0008 13.9708 14.9412 13.8612 14.8316L13.8242 14.7946L11.9165 17.7428C11.8242 17.8856 11.6722 17.979 11.5031 17.9969C11.334 18.0148 11.1658 17.9553 11.0455 17.8351L7.86356 14.6531C7.86038 14.6501 7.85724 14.647 7.85412 14.6439C7.85099 14.6407 7.84792 14.6376 7.84488 14.6344L6.16494 12.9545C6.04469 12.8342 5.98522 12.6661 6.00314 12.4969C6.02105 12.3278 6.11444 12.1759 6.25722 12.0835L9.20541 10.1758L9.16829 10.1387C9.05862 10.029 8.99904 9.87898 9.00359 9.72395C9.00815 9.56892 9.07644 9.42263 9.19236 9.31959L9.82348 8.7586C10.6137 8.05614 11.8011 8.06716 12.5776 8.76792ZM9.04883 14.2455L9.5891 13.7053C9.80902 13.4854 9.80902 13.1288 9.5891 12.9089C9.36918 12.6889 9.01261 12.6889 8.79269 12.9089L8.25243 13.4491L7.45393 12.6506L10.0199 10.9903L13.0097 13.9801L11.3494 16.5461L9.04883 14.2455ZM10.5717 9.6004C10.9432 9.27024 11.5076 9.28682 11.859 9.63822L14.3616 12.1409C14.713 12.4923 14.7296 13.0567 14.3995 13.4281L14.2353 13.6128L10.387 9.7646L10.5717 9.6004Z" fill="#1A2C37"/>
<rect x="0.5" y="2.5" width="23" height="19" rx="3.5" stroke="#265CF2"/>
</svg>
