<svg width="24" height="24" viewBox="0 0 24 24" fill="none" xmlns="http://www.w3.org/2000/svg">
<path d="M18.0402 6.46471C17.2428 5.66831 16.2954 5.04013 15.2534 4.61704C14.2114 4.19395 13.096 3.98447 11.9724 4.0009C9.86328 3.99559 7.83843 4.8333 6.34332 6.32973C4.84821 7.82615 4.0053 9.85873 4.00002 11.9803C3.99475 14.1019 4.82755 16.1387 6.3152 17.6426C7.80286 19.1465 9.82352 19.9944 11.9327 19.9997C12.3871 20.0075 12.8313 19.8632 13.1955 19.5896C13.5596 19.3159 13.8231 18.9284 13.9446 18.4878C14.0221 18.1696 14.0213 17.8373 13.9423 17.5195C13.8633 17.2017 13.7085 16.908 13.4913 16.664C13.4411 16.6065 13.4084 16.5357 13.3969 16.46C13.3855 16.3844 13.3959 16.307 13.4269 16.2371C13.4578 16.1672 13.5081 16.1077 13.5717 16.0657C13.6353 16.0237 13.7095 16.0009 13.7856 16H15.0978C16.3327 16.0058 17.5242 15.5414 18.4329 14.7001C19.3415 13.8588 19.9001 12.7028 19.9965 11.4643C20.0261 10.5409 19.8678 9.62111 19.5314 8.76139C19.195 7.90166 18.6876 7.12013 18.0402 6.46471ZM15.1296 14.4001H13.8174C13.4342 14.3979 13.0586 14.5077 12.7361 14.716C12.4137 14.9243 12.1583 15.2222 12.0008 15.5736C11.8434 15.9251 11.7907 16.3149 11.8492 16.6959C11.9077 17.0769 12.0748 17.4326 12.3303 17.7199C12.38 17.7704 12.4152 17.8335 12.432 17.9026C12.4488 17.9716 12.4466 18.0439 12.4257 18.1118C12.3859 18.2798 12.203 18.3838 11.9565 18.3998C11.0534 18.3882 10.163 18.1832 9.34474 17.7986C8.52644 17.414 7.79895 16.8585 7.21064 16.1691C6.62234 15.4797 6.18671 14.6722 5.93273 13.8003C5.67875 12.9284 5.61225 12.0121 5.73765 11.1124C5.96443 9.60044 6.71545 8.21789 7.8579 7.20924C9.00034 6.2006 10.4606 5.63086 11.9804 5.60078H12.044C12.9433 5.58893 13.8359 5.75837 14.669 6.09909C15.5022 6.43982 16.2591 6.94493 16.895 7.58463C17.3913 8.08411 17.7812 8.68003 18.0409 9.33605C18.3007 9.99208 18.4249 10.6945 18.406 11.4003C18.3237 12.2187 17.9436 12.9777 17.3389 13.5313C16.7341 14.085 15.9473 14.3944 15.1296 14.4001Z" fill="#1A2C37"/>
<path d="M12.044 8.80054C12.7028 8.80054 13.2369 8.26332 13.2369 7.60063C13.2369 6.93794 12.7028 6.40072 12.044 6.40072C11.3852 6.40072 10.8511 6.93794 10.8511 7.60063C10.8511 8.26332 11.3852 8.80054 12.044 8.80054Z" fill="#1A2C37"/>
<path d="M14.6286 8.16059C14.4243 8.27927 14.2596 8.45619 14.1553 8.66899C14.051 8.8818 14.0118 9.12093 14.0426 9.35617C14.0733 9.5914 14.1728 9.81218 14.3282 9.99059C14.4837 10.169 14.6883 10.297 14.9161 10.3585C15.1439 10.42 15.3848 10.4122 15.6082 10.336C15.8315 10.2598 16.0275 10.1188 16.1712 9.93063C16.3149 9.74248 16.3999 9.5157 16.4155 9.27896C16.4311 9.04221 16.3766 8.80613 16.2588 8.60055C16.1806 8.46392 16.0763 8.34415 15.952 8.24808C15.8277 8.15201 15.6858 8.08153 15.5343 8.04067C15.3829 7.99981 15.225 7.98937 15.0696 8.00995C14.9142 8.03052 14.7643 8.08171 14.6286 8.16059Z" fill="#1A2C37"/>
<path d="M9.45942 8.16059C9.25505 8.04213 9.02035 7.98729 8.785 8.00298C8.54964 8.01867 8.32419 8.1042 8.13715 8.24875C7.9501 8.3933 7.80986 8.59038 7.73414 8.81509C7.65843 9.03979 7.65064 9.28204 7.71176 9.5112C7.77288 9.74035 7.90017 9.94614 8.07754 10.1025C8.2549 10.259 8.47438 10.359 8.70824 10.3899C8.9421 10.4209 9.17983 10.3814 9.39138 10.2765C9.60294 10.1716 9.77883 10.0059 9.89681 9.80046C9.97522 9.66392 10.0261 9.51317 10.0466 9.35683C10.067 9.20049 10.0566 9.04163 10.016 8.88933C9.9754 8.73703 9.90533 8.59428 9.80983 8.46924C9.71432 8.34419 9.59525 8.23931 9.45942 8.16059Z" fill="#1A2C37"/>
<path d="M7.39972 11.4083C7.20407 11.5412 7.05201 11.7295 6.96281 11.9494C6.8736 12.1693 6.85127 12.4108 6.89862 12.6435C6.94597 12.8761 7.06089 13.0894 7.22882 13.2563C7.39675 13.4232 7.61015 13.5363 7.84198 13.5811C8.07382 13.626 8.31367 13.6006 8.53116 13.5082C8.74866 13.4159 8.93402 13.2607 9.06379 13.0623C9.19354 12.8639 9.26187 12.6313 9.2601 12.3938C9.25833 12.1563 9.18655 11.9247 9.05385 11.7283C8.96667 11.5974 8.85455 11.4852 8.72398 11.3981C8.59341 11.3111 8.44698 11.2509 8.29315 11.2212C8.13933 11.1914 7.98116 11.1927 7.82781 11.2248C7.67445 11.2569 7.52895 11.3193 7.39972 11.4083Z" fill="#1A2C37"/>
</svg>
