<svg width="24" height="24" viewBox="0 0 24 24" fill="none" xmlns="http://www.w3.org/2000/svg">
<g clip-path="url(#clip0_1257_6724)">
<rect y="2" width="24" height="20" rx="4" fill="#EAEFFE"/>
<path fill-rule="evenodd" clip-rule="evenodd" d="M17.7543 6.09898C18.011 6.27611 18.0772 6.63029 17.9022 6.89007C16.4203 9.0898 14.2023 9.09784 12.3166 9.10468C12.1639 9.10523 12.0135 9.10578 11.8658 9.10748C11.3683 9.1132 10.8973 9.1293 10.4531 9.1832C10.5261 9.84188 10.6495 10.5349 10.7766 11.2482C10.7828 11.2832 10.789 11.3182 10.7953 11.3533C10.8892 11.881 10.9838 12.4196 11.0549 12.9467L13.3453 12.2843C13.644 12.1979 13.9553 12.373 14.0407 12.6753C14.126 12.9776 13.9531 13.2927 13.6544 13.3791L11.1645 14.0991C11.197 14.8172 11.1464 15.5235 10.917 16.1442C10.6244 16.9362 10.0538 17.5522 9.12251 17.8792C8.46852 18.1088 7.75778 17.9984 7.2258 17.6557C6.68355 17.3064 6.28648 16.6807 6.39233 15.9052C6.48552 15.2226 6.85804 14.5494 7.64419 14.0429C7.90748 13.8733 8.18849 13.7755 8.4305 13.7056L9.96135 13.2629C9.89346 12.7197 9.7935 12.1474 9.6881 11.5551C9.68111 11.5159 9.6741 11.4765 9.66707 11.4371C9.54919 10.7755 9.42727 10.0912 9.34887 9.42984C9.26991 9.45788 9.19202 9.48837 9.1152 9.52151C8.3451 9.85377 7.63374 10.4767 7.07591 11.7362C6.94883 12.0231 6.61602 12.1515 6.33254 12.0228C6.04906 11.8942 5.92228 11.5574 6.04935 11.2705C6.71025 9.77829 7.61606 8.93056 8.67405 8.4741C9.70099 8.03103 10.8222 7.98079 11.853 7.96894C11.9839 7.96743 12.1133 7.9664 12.2412 7.96537C14.2169 7.94952 15.8357 7.93654 16.9727 6.24865C17.1477 5.98887 17.4977 5.92186 17.7543 6.09898ZM10.048 14.422L8.73956 14.8004C8.53572 14.8593 8.37617 14.9211 8.2483 15.0035C7.73424 15.3347 7.5537 15.717 7.50673 16.0611C7.47221 16.3139 7.58493 16.5374 7.82984 16.6952C8.08501 16.8595 8.43878 16.9141 8.75383 16.8035C9.36403 16.5892 9.68635 16.2244 9.8633 15.7454C9.99713 15.3832 10.0526 14.9401 10.048 14.422Z" fill="#1A2C37"/>
</g>
<rect x="0.5" y="2.5" width="23" height="19" rx="3.5" stroke="#265CF2"/>
<defs>
<clipPath id="clip0_1257_6724">
<rect y="2" width="24" height="20" rx="4" fill="white"/>
</clipPath>
</defs>
</svg>
