<svg width="24" height="24" viewBox="0 0 24 24" fill="none" xmlns="http://www.w3.org/2000/svg">
<path d="M13.835 8.16504H5.16501V10.5C5.16501 10.9612 5.53885 11.335 6.00001 11.335C6.46117 11.335 6.83501 10.9612 6.83501 10.5V9.83504H8.66501V14.165H8.00001C7.53885 14.165 7.16501 14.5389 7.16501 15C7.16501 15.4612 7.53885 15.835 8.00001 15.835H11C11.4612 15.835 11.835 15.4612 11.835 15C11.835 14.5389 11.4612 14.165 11 14.165H10.335V9.83504H12.165V10.5C12.165 10.9612 12.5389 11.335 13 11.335C13.4612 11.335 13.835 10.9612 13.835 10.5V8.16504Z" fill="#1A2C37"/>
<path fill-rule="evenodd" clip-rule="evenodd" d="M2 8C2 6.34315 3.34315 5 5 5H19C20.6569 5 22 6.34315 22 8V16C22 17.6569 20.6569 19 19 19H5C3.34315 19 2 17.6569 2 16V8ZM5 6.67H19C19.7345 6.67 20.33 7.26546 20.33 8V16C20.33 16.7345 19.7345 17.33 19 17.33H5C4.26546 17.33 3.67 16.7345 3.67 16V8C3.67 7.26546 4.26546 6.67 5 6.67Z" fill="#1A2C37"/>
</svg>
