<svg width="24" height="24" viewBox="0 0 24 24" fill="none" xmlns="http://www.w3.org/2000/svg">
<path fill-rule="evenodd" clip-rule="evenodd" d="M10 6.5C9.17157 6.5 8.5 7.17157 8.5 8C8.5 8.82843 9.17157 9.5 10 9.5C10.8284 9.5 11.5 8.82843 11.5 8C11.5 7.17157 10.8284 6.5 10 6.5ZM7.09451 7.25C7.42755 5.95608 8.60212 5 10 5C11.3979 5 12.5725 5.95608 12.9055 7.25H19.25C19.6642 7.25 20 7.58579 20 8C20 8.41421 19.6642 8.75 19.25 8.75H12.9055C12.5725 10.0439 11.3979 11 10 11C8.60212 11 7.42755 10.0439 7.09451 8.75H4.75C4.33579 8.75 4 8.41421 4 8C4 7.58579 4.33579 7.25 4.75 7.25H7.09451ZM15 14.5C14.1716 14.5 13.5 15.1716 13.5 16C13.5 16.8284 14.1716 17.5 15 17.5C15.8284 17.5 16.5 16.8284 16.5 16C16.5 15.1716 15.8284 14.5 15 14.5ZM12.0945 15.25C12.4275 13.9561 13.6021 13 15 13C16.3979 13 17.5725 13.9561 17.9055 15.25H19.25C19.6642 15.25 20 15.5858 20 16C20 16.4142 19.6642 16.75 19.25 16.75H17.9055C17.5725 18.0439 16.3979 19 15 19C13.6021 19 12.4275 18.0439 12.0945 16.75H4.75C4.33579 16.75 4 16.4142 4 16C4 15.5858 4.33579 15.25 4.75 15.25H12.0945Z" fill="#1A2C37"/>
</svg>
