<svg width="24" height="24" viewBox="0 0 24 24" fill="none" xmlns="http://www.w3.org/2000/svg">
<path fill-rule="evenodd" clip-rule="evenodd" d="M7.5 3C7.73462 3 7.95865 3.09769 8.1183 3.26962L11.7745 7.20712C12.0916 7.54859 12.0719 8.08246 11.7304 8.39954C11.3889 8.71663 10.855 8.69686 10.538 8.35538L8.34375 5.99239V15.6562C8.34375 16.1222 7.96599 16.5 7.5 16.5C7.03401 16.5 6.65625 16.1222 6.65625 15.6562V5.99239L4.46205 8.35538C4.14496 8.69686 3.6111 8.71663 3.26962 8.39954C2.92815 8.08246 2.90838 7.54859 3.22546 7.20712L6.88171 3.26962C7.04136 3.09769 7.26538 3 7.5 3ZM16.5 7.5C16.966 7.5 17.3437 7.87776 17.3437 8.34375V18.0076L19.538 15.6446C19.855 15.3031 20.3889 15.2834 20.7304 15.6005C21.0719 15.9175 21.0916 16.4514 20.7745 16.7929L17.1183 20.7304C16.9586 20.9023 16.7346 21 16.5 21C16.2654 21 16.0414 20.9023 15.8817 20.7304L12.2255 16.7929C11.9084 16.4514 11.9281 15.9175 12.2696 15.6005C12.6111 15.2834 13.145 15.3031 13.462 15.6446L15.6562 18.0076V8.34375C15.6562 7.87776 16.034 7.5 16.5 7.5Z" fill="#1A2C37"/>
</svg>
