<svg width="24" height="24" viewBox="0 0 24 24" fill="none" xmlns="http://www.w3.org/2000/svg">
<rect x="0.5" y="2.5" width="23" height="19" rx="3.5" fill="#EAEFFE"/>
<rect x="0.5" y="2.5" width="23" height="19" rx="3.5" stroke="#265CF2"/>
<path d="M6 16V8H18V16H6Z" fill="#A8BEFA"/>
<path d="M13.2845 9.31562H7.21548V10.9501C7.21548 11.2729 7.47717 11.5346 7.79998 11.5346C8.12279 11.5346 8.38447 11.2729 8.38447 10.9501V10.4846H9.66547V13.5156H9.19997C8.87716 13.5156 8.61547 13.7773 8.61547 14.1001C8.61547 14.4229 8.87716 14.6846 9.19997 14.6846H11.3C11.6228 14.6846 11.8845 14.4229 11.8845 14.1001C11.8845 13.7773 11.6228 13.5156 11.3 13.5156H10.8345V10.4846H12.1155V10.9501C12.1155 11.2729 12.3772 11.5346 12.7 11.5346C13.0228 11.5346 13.2845 11.2729 13.2845 10.9501V9.31562Z" fill="#265CF2"/>
<path fill-rule="evenodd" clip-rule="evenodd" d="M5 9.20009C5 8.0403 5.9402 7.1001 7.09999 7.1001H16.9C18.0598 7.1001 19 8.0403 19 9.20009V14.8001C19 15.9599 18.0598 16.9001 16.9 16.9001H7.09999C5.9402 16.9001 5 15.9599 5 14.8001V9.20009ZM7.09999 8.26909H16.9C17.4141 8.26909 17.831 8.68592 17.831 9.20009V14.8001C17.831 15.3142 17.4141 15.7311 16.9 15.7311H7.09999C6.58582 15.7311 6.169 15.3142 6.169 14.8001V9.20009C6.169 8.68592 6.58582 8.26909 7.09999 8.26909Z" fill="#265CF2"/>
</svg>
