<svg width="24" height="24" viewBox="0 0 24 24" fill="none" xmlns="http://www.w3.org/2000/svg">
<path opacity="0.2" fill-rule="evenodd" clip-rule="evenodd" d="M22 12C22 17.5228 17.5228 22 12 22C6.47715 22 2 17.5228 2 12C2 6.47715 6.47715 2 12 2C17.5228 2 22 6.47715 22 12Z" fill="#3498FC"/>
<path fill-rule="evenodd" clip-rule="evenodd" d="M12 20.3333C16.6024 20.3333 20.3333 16.6024 20.3333 12C20.3333 7.39763 16.6024 3.66667 12 3.66667C7.39763 3.66667 3.66667 7.39763 3.66667 12C3.66667 16.6024 7.39763 20.3333 12 20.3333ZM12 22C17.5228 22 22 17.5228 22 12C22 6.47715 17.5228 2 12 2C6.47715 2 2 6.47715 2 12C2 17.5228 6.47715 22 12 22Z" fill="#3498FC"/>
<path d="M12.857 16.3008V17.2C12.857 17.6418 12.4733 18 12 18C11.5267 18 11.143 17.6418 11.143 17.2V16.3084C10.7281 16.2163 10.3324 16.0609 9.97189 15.8484C9.61795 15.642 9.36428 15.4296 9.21216 15.2672C8.90371 14.9342 8.9414 14.4312 9.29649 14.1415C9.65159 13.8519 10.1907 13.8844 10.5028 14.2144C10.5517 14.2668 10.6832 14.3768 10.8807 14.492C11.2124 14.6856 11.5856 14.8 11.9961 14.8C12.8017 14.8 13.3279 14.3544 13.2829 13.9688C13.2405 13.6072 12.8831 13.3288 11.742 12.7764L11.6053 12.71L11.5904 12.7028L11.4691 12.644C9.80521 11.8388 9.14403 11.324 9.01333 10.2052C8.87578 9.03 9.81763 8.0124 11.143 7.6992V6.8C11.143 6.35817 11.5267 6 12 6C12.4733 6 12.857 6.35817 12.857 6.8V7.6916C13.2719 7.78365 13.6676 7.93908 14.0281 8.1516C14.382 8.358 14.6357 8.5704 14.7878 8.7328C15.0963 9.06578 15.0586 9.56882 14.7035 9.85848C14.3484 10.1481 13.8093 10.1156 13.4972 9.7856C13.4483 9.7332 13.3168 9.6232 13.1192 9.508C12.7876 9.3144 12.4144 9.2 12.0039 9.2C11.1983 9.2 10.6721 9.6456 10.7171 10.0312C10.7595 10.3928 11.1169 10.6712 12.258 11.2236L12.5309 11.3556C14.1948 12.1612 14.856 12.6764 14.9867 13.7948C15.1242 14.97 14.1824 15.9876 12.857 16.3008Z" fill="#3498FC"/>
</svg>
