<svg width="36" height="36" viewBox="0 0 36 36" fill="none" xmlns="http://www.w3.org/2000/svg">
<rect x="5.5" y="9.00018" width="25" height="5" fill="none"/>
<path d="M28.5 7.50018H7.5C6.30653 7.50018 5.16193 7.97429 4.31802 8.8182C3.47411 9.66212 3 10.8067 3 12.0002V24.0002C3 25.1937 3.47411 26.3383 4.31802 27.1822C5.16193 28.0261 6.30653 28.5002 7.5 28.5002H28.5C29.6935 28.5002 30.8381 28.0261 31.682 27.1822C32.5259 26.3383 33 25.1937 33 24.0002V12.0002C33 10.8067 32.5259 9.66212 31.682 8.8182C30.8381 7.97429 29.6935 7.50018 28.5 7.50018ZM6 12.0002C6 11.6024 6.15804 11.2208 6.43934 10.9395C6.72064 10.6582 7.10218 10.5002 7.5 10.5002H28.5C28.8978 10.5002 29.2794 10.6582 29.5607 10.9395C29.842 11.2208 30 11.6024 30 12.0002V13.5002H6V12.0002ZM30 24.0002C30 24.398 29.842 24.7795 29.5607 25.0608C29.2794 25.3421 28.8978 25.5002 28.5 25.5002H7.5C7.10218 25.5002 6.72064 25.3421 6.43934 25.0608C6.15804 24.7795 6 24.398 6 24.0002V16.5002H30V24.0002Z" fill="#3498FC"/>
<path d="M10.5 22.5002H16.5C16.8978 22.5002 17.2794 22.3421 17.5607 22.0608C17.842 21.7795 18 21.398 18 21.0002C18 20.6024 17.842 20.2208 17.5607 19.9395C17.2794 19.6582 16.8978 19.5002 16.5 19.5002H10.5C10.1022 19.5002 9.72064 19.6582 9.43934 19.9395C9.15804 20.2208 9 20.6024 9 21.0002C9 21.398 9.15804 21.7795 9.43934 22.0608C9.72064 22.3421 10.1022 22.5002 10.5 22.5002Z" fill="#3498FC"/>
<path d="M22.5 22.5002H25.5C25.8978 22.5002 26.2794 22.3421 26.5607 22.0608C26.842 21.7795 27 21.398 27 21.0002C27 20.6024 26.842 20.2208 26.5607 19.9395C26.2794 19.6582 25.8978 19.5002 25.5 19.5002H22.5C22.1022 19.5002 21.7206 19.6582 21.4393 19.9395C21.158 20.2208 21 20.6024 21 21.0002C21 21.398 21.158 21.7795 21.4393 22.0608C21.7206 22.3421 22.1022 22.5002 22.5 22.5002Z" fill="#3498FC"/>
</svg>
