<svg width="26" height="32" viewBox="0 0 26 32" fill="none" xmlns="http://www.w3.org/2000/svg">
<path d="M7.47783 30.0656L8.00083 26.7436L6.83583 26.7166H1.27283L5.13883 2.20361C5.15083 2.12961 5.18983 2.06061 5.24683 2.01161C5.30383 1.96261 5.37683 1.93561 5.45283 1.93561H14.8328C17.9468 1.93561 20.0958 2.58361 21.2178 3.86261C21.7438 4.46261 22.0788 5.08961 22.2408 5.77961C22.4108 6.50361 22.4138 7.36861 22.2478 8.42361L22.2358 8.50061V9.17661L22.7618 9.47461C23.2048 9.70961 23.5568 9.97861 23.8268 10.2866C24.2768 10.7996 24.5678 11.4516 24.6908 12.2246C24.8178 13.0196 24.7758 13.9656 24.5678 15.0366C24.3278 16.2686 23.9398 17.3416 23.4158 18.2196C22.9338 19.0286 22.3198 19.6996 21.5908 20.2196C20.8948 20.7136 20.0678 21.0886 19.1328 21.3286C18.2268 21.5646 17.1938 21.6836 16.0608 21.6836H15.3308C14.8088 21.6836 14.3018 21.8716 13.9038 22.2086C13.5048 22.5526 13.2408 23.0226 13.1598 23.5366L13.1048 23.8356L12.1808 29.6906L12.1388 29.9056C12.1278 29.9736 12.1088 30.0076 12.0808 30.0306C12.0558 30.0516 12.0198 30.0656 11.9848 30.0656H7.47783Z" fill="#253B80"/>
<path d="M23.2594 8.57867C23.2314 8.75767 23.1994 8.94067 23.1634 9.12867C21.9264 15.4797 17.6944 17.6737 12.2894 17.6737H9.53745C8.87645 17.6737 8.31945 18.1537 8.21645 18.8057L6.80745 27.7417L6.40845 30.2747C6.34145 30.7027 6.67145 31.0887 7.10345 31.0887H11.9844C12.5624 31.0887 13.0534 30.6687 13.1444 30.0987L13.1924 29.8507L14.1114 24.0187L14.1704 23.6987C14.2604 23.1267 14.7524 22.7067 15.3304 22.7067H16.0604C20.7894 22.7067 24.4914 20.7867 25.5734 15.2307C26.0254 12.9097 25.7914 10.9717 24.5954 9.60867C24.2334 9.19767 23.7844 8.85667 23.2594 8.57867Z" fill="#179BD7"/>
<path d="M21.9671 8.06271C21.7781 8.00771 21.5831 7.95771 21.3831 7.91271C21.1821 7.86871 20.9761 7.82971 20.7641 7.79571C20.0221 7.67571 19.2091 7.61871 18.3381 7.61871H10.9861C10.8051 7.61871 10.6331 7.65971 10.4791 7.73371C10.1401 7.89671 9.88814 8.21771 9.82714 8.61071L8.26314 18.5167L8.21814 18.8057C8.32114 18.1537 8.87814 17.6737 9.53914 17.6737H12.2911C17.6961 17.6737 21.9281 15.4787 23.1651 9.12871C23.2021 8.94071 23.2331 8.75771 23.2611 8.57871C22.9481 8.41271 22.6091 8.27071 22.2441 8.14971C22.1541 8.11971 22.0611 8.09071 21.9671 8.06271Z" fill="#222D65"/>
<path d="M9.82627 8.61068C9.88727 8.21768 10.1393 7.89668 10.4783 7.73468C10.6333 7.66068 10.8043 7.61968 10.9853 7.61968H18.3373C19.2083 7.61968 20.0213 7.67668 20.7633 7.79668C20.9753 7.83068 21.1813 7.86968 21.3823 7.91368C21.5823 7.95868 21.7773 8.00868 21.9663 8.06368C22.0603 8.09168 22.1533 8.12068 22.2443 8.14968C22.6093 8.27068 22.9483 8.41368 23.2613 8.57868C23.6293 6.23168 23.2583 4.63368 21.9893 3.18668C20.5903 1.59368 18.0653 0.911682 14.8343 0.911682H5.45427C4.79427 0.911682 4.23127 1.39168 4.12927 2.04468L0.222269 26.8097C0.145269 27.2997 0.523269 27.7417 1.01727 27.7417H6.80827L8.26227 18.5167L9.82627 8.61068Z" fill="#253B80"/>
</svg>
