<svg width="32" height="32" viewBox="0 0 32 32" fill="none" xmlns="http://www.w3.org/2000/svg">
<path fill-rule="evenodd" clip-rule="evenodd" d="M14.0795 10.0851C14.0795 8.83551 15.1193 8.35209 16.7994 8.35209C19.58 8.41217 22.3086 9.1182 24.7694 10.4144V2.87124C22.232 1.87404 19.5256 1.37694 16.7994 1.4073C10.3234 1.4073 5.97998 4.79943 5.97998 10.4636C5.97998 19.3257 18.1493 17.8864 18.1493 21.7063C18.1493 23.2003 16.8724 23.6637 15.0755 23.6637C12.4258 23.6637 9.00362 22.5673 6.31928 21.1079V28.7496C9.08298 29.9521 12.0625 30.5796 15.0764 30.5938C21.7321 30.5938 26.32 27.3057 26.32 21.543C26.32 11.9786 14.0795 13.687 14.0795 10.0869V10.0851Z" fill="#6772E5"/>
</svg>
