<svg width="20" height="22" viewBox="0 0 20 22" fill="none" xmlns="http://www.w3.org/2000/svg">
<path fill-rule="evenodd" clip-rule="evenodd" d="M5.2626 2.26045C5.38219 1.13044 6.33828 0.25 7.5 0.25H12.5C13.6617 0.25 14.6178 1.13044 14.7374 2.26045C15.5005 2.27599 16.1603 2.31546 16.7236 2.41895C17.4816 2.55818 18.1267 2.82342 18.6517 3.34835C19.2536 3.95027 19.5125 4.70814 19.6335 5.60825C19.75 6.47522 19.75 7.57754 19.75 8.94513V15.0549C19.75 16.4225 19.75 17.5248 19.6335 18.3918C19.5125 19.2919 19.2536 20.0497 18.6517 20.6517C18.0497 21.2536 17.2919 21.5125 16.3918 21.6335C15.5248 21.75 14.4225 21.75 13.0549 21.75H6.94513C5.57754 21.75 4.47522 21.75 3.60825 21.6335C2.70814 21.5125 1.95027 21.2536 1.34835 20.6517C0.746434 20.0497 0.48754 19.2919 0.366524 18.3918C0.249963 17.5248 0.24998 16.4225 0.250001 15.0549V8.94513C0.24998 7.57754 0.249963 6.47522 0.366524 5.60825C0.48754 4.70814 0.746434 3.95027 1.34835 3.34835C1.87328 2.82342 2.51835 2.55818 3.27635 2.41895C3.83973 2.31546 4.49952 2.27599 5.2626 2.26045ZM6.75 3.00102C6.75 3.00156 6.75 3.0021 6.75 3.00263V3.5C6.75 3.91421 7.08579 4.25 7.5 4.25H12.5C12.9142 4.25 13.25 3.91421 13.25 3.5V3.00263C13.25 3.00209 13.25 3.00156 13.25 3.00103V2.5C13.25 2.08579 12.9142 1.75 12.5 1.75H7.5C7.08579 1.75 6.75 2.08579 6.75 2.5V3.00102ZM14.735 3.76087C14.6058 4.88062 13.6544 5.75 12.5 5.75H7.5C6.34559 5.75 5.39424 4.88062 5.26496 3.76087C4.54678 3.7762 3.99336 3.81234 3.54735 3.89426C2.98054 3.99838 2.65246 4.16556 2.40901 4.40901C2.13225 4.68577 1.9518 5.07435 1.85315 5.80812C1.75159 6.56347 1.75 7.56458 1.75 9V15C1.75 16.4354 1.75159 17.4365 1.85315 18.1919C1.9518 18.9257 2.13225 19.3142 2.40901 19.591C2.68577 19.8678 3.07435 20.0482 3.80812 20.1469C4.56347 20.2484 5.56458 20.25 7 20.25H13C14.4354 20.25 15.4365 20.2484 16.1919 20.1469C16.9257 20.0482 17.3142 19.8678 17.591 19.591C17.8678 19.3142 18.0482 18.9257 18.1469 18.1919C18.2484 17.4365 18.25 16.4354 18.25 15V9C18.25 7.56458 18.2484 6.56347 18.1469 5.80812C18.0482 5.07434 17.8678 4.68577 17.591 4.40901C17.3475 4.16556 17.0195 3.99838 16.4527 3.89426C16.0066 3.81234 15.4532 3.7762 14.735 3.76087ZM4.25 13.5C4.25 13.0858 4.58579 12.75 5 12.75H13C13.4142 12.75 13.75 13.0858 13.75 13.5C13.75 13.9142 13.4142 14.25 13 14.25H5C4.58579 14.25 4.25 13.9142 4.25 13.5ZM4.25 17C4.25 16.5858 4.58579 16.25 5 16.25H10.5C10.9142 16.25 11.25 16.5858 11.25 17C11.25 17.4142 10.9142 17.75 10.5 17.75H5C4.58579 17.75 4.25 17.4142 4.25 17Z" fill="white"/>
</svg>
