<svg width="135" height="20" viewBox="0 0 135 20" fill="none" xmlns="http://www.w3.org/2000/svg">
<path d="M66.7468 8.04335V1.50256C66.7468 1.2388 66.6774 0.97969 66.5455 0.751272C66.4136 0.522854 66.2239 0.333175 65.9955 0.2013C65.7671 0.0694242 65.508 -1.67514e-06 65.2442 0C64.9805 1.6752e-06 64.7214 0.0694309 64.4929 0.201309L58.8251 3.47621C58.5967 3.60809 58.4071 3.79777 58.2752 4.02618C58.1433 4.2546 58.0739 4.5137 58.0739 4.77746V11.2844C58.0739 11.5477 58.143 11.8063 58.2744 12.0344C58.4058 12.2625 58.5948 12.4521 58.8225 12.5842C59.0503 12.7162 59.3087 12.7862 59.5719 12.787C59.8352 12.7878 60.094 12.7194 60.3225 12.5887L65.9903 9.3476C66.2201 9.21613 66.4111 9.02627 66.544 8.79724C66.6768 8.5682 66.7468 8.30813 66.7468 8.04335V8.04335Z" fill="#1A84EE"/>
<path d="M68.2494 1.5025V8.03878C68.2494 8.30356 68.3194 8.56364 68.4522 8.79267C68.5851 9.02171 68.7761 9.21157 69.0059 9.34303L74.6775 12.5886C74.906 12.7193 75.1648 12.7877 75.4281 12.7869C75.6913 12.7861 75.9497 12.7162 76.1774 12.5841C76.4051 12.452 76.5941 12.2625 76.7255 12.0343C76.8569 11.8062 76.9261 11.5476 76.9261 11.2844V4.7774C76.9261 4.51365 76.8567 4.25454 76.7248 4.02613C76.5929 3.79771 76.4032 3.60803 76.1748 3.47616L70.5033 0.203508C70.275 0.0717242 70.0161 0.00229811 69.7526 0.00219738C69.489 0.00209664 69.23 0.0713249 69.0017 0.202934C68.7733 0.334543 68.5836 0.523902 68.4516 0.752006C68.3195 0.98011 68.2498 1.23893 68.2494 1.5025V1.5025Z" fill="#005AEE"/>
<path d="M66.7521 10.6426L61.052 13.9025C60.8226 14.0337 60.6319 14.2231 60.4991 14.4516C60.3663 14.68 60.2961 14.9395 60.2955 15.2037C60.295 15.468 60.3642 15.7277 60.4961 15.9567C60.628 16.1857 60.8179 16.3759 61.0467 16.508L66.7468 19.7987C66.9753 19.9306 67.2344 20 67.4981 20C67.7619 20 68.021 19.9306 68.2494 19.7987L73.9495 16.508C74.1784 16.3759 74.3683 16.1857 74.5002 15.9567C74.6321 15.7277 74.7013 15.468 74.7007 15.2037C74.7002 14.9395 74.63 14.68 74.4972 14.4516C74.3644 14.2231 74.1736 14.0337 73.9443 13.9025L68.2442 10.6426C68.017 10.5127 67.7598 10.4443 67.4981 10.4443C67.2364 10.4443 66.9793 10.5127 66.7521 10.6426Z" fill="#3BA6FF"/>
<rect x="93" width="37" height="18" rx="9" fill="#005AEE" fill-opacity="0.1"/>
<path d="M101.639 12V6.18182H103.77C104.183 6.18182 104.525 6.25 104.795 6.38636C105.066 6.52083 105.269 6.7036 105.403 6.93466C105.538 7.16383 105.605 7.42235 105.605 7.71023C105.605 7.95265 105.561 8.1572 105.472 8.32386C105.383 8.48864 105.263 8.62121 105.114 8.72159C104.966 8.82008 104.803 8.89205 104.625 8.9375V8.99432C104.818 9.00379 105.007 9.06629 105.19 9.18182C105.376 9.29545 105.529 9.45739 105.651 9.66761C105.772 9.87784 105.832 10.1335 105.832 10.4347C105.832 10.732 105.762 10.9991 105.622 11.2358C105.484 11.4706 105.27 11.6572 104.98 11.7955C104.69 11.9318 104.32 12 103.869 12H101.639ZM102.517 11.2472H103.784C104.205 11.2472 104.506 11.1657 104.688 11.0028C104.869 10.84 104.96 10.6364 104.96 10.392C104.96 10.2083 104.914 10.0398 104.821 9.88636C104.728 9.73295 104.596 9.6108 104.423 9.51989C104.253 9.42898 104.05 9.38352 103.815 9.38352H102.517V11.2472ZM102.517 8.69886H103.693C103.89 8.69886 104.067 8.66098 104.224 8.58523C104.384 8.50947 104.509 8.40341 104.602 8.26705C104.697 8.12879 104.744 7.96591 104.744 7.77841C104.744 7.53788 104.66 7.33617 104.491 7.1733C104.323 7.01042 104.064 6.92898 103.716 6.92898H102.517V8.69886ZM106.874 12V6.18182H110.521V6.9375H107.751V8.71023H110.331V9.46307H107.751V11.2443H110.555V12H106.874ZM111.407 6.9375V6.18182H115.91V6.9375H114.094V12H113.219V6.9375H111.407ZM116.709 12H115.777L117.871 6.18182H118.885L120.979 12H120.047L118.402 7.23864H118.357L116.709 12ZM116.865 9.72159H119.888V10.4602H116.865V9.72159Z" fill="#005AEE"/>
</svg>
