<svg width="84" height="20" viewBox="0 0 84 20" fill="none" xmlns="http://www.w3.org/2000/svg">
<g clip-path="url(#clip0_4552_13431)">
<path d="M8.6729 8.04335V1.50256C8.6729 1.2388 8.6035 0.97969 8.4716 0.751272C8.3397 0.522854 8.15 0.333175 7.9216 0.2013C7.6932 0.0694242 7.4341 -1.67511e-06 7.1703 0C6.9066 1.67523e-06 6.6475 0.0694309 6.419 0.201309L0.751202 3.47621C0.522802 3.60809 0.333202 3.79777 0.201302 4.02618C0.0694016 4.2546 0 4.5137 0 4.77746V11.2844C0 11.5477 0.0691005 11.8063 0.2005 12.0344C0.3319 12.2625 0.5209 12.4521 0.7486 12.5842C0.9764 12.7162 1.2348 12.7862 1.498 12.787C1.7613 12.7878 2.0201 12.7194 2.2486 12.5887L7.9164 9.3476C8.1462 9.21613 8.3372 9.02627 8.4701 8.79724C8.6029 8.5682 8.6729 8.30813 8.6729 8.04335Z" fill="#1A84EE"/>
<path d="M10.1755 1.5025V8.03878C10.1755 8.30356 10.2455 8.56364 10.3783 8.79267C10.5112 9.02171 10.7022 9.21157 10.932 9.34303L16.6036 12.5886C16.8321 12.7193 17.0909 12.7877 17.3542 12.7869C17.6174 12.7861 17.8758 12.7162 18.1035 12.5841C18.3312 12.452 18.5202 12.2625 18.6516 12.0343C18.783 11.8062 18.8522 11.5476 18.8522 11.2844V4.7774C18.8522 4.51365 18.7828 4.25454 18.6509 4.02613C18.519 3.79771 18.3293 3.60803 18.1009 3.47616L12.4294 0.203508C12.2011 0.0717242 11.9422 0.00229811 11.6787 0.00219738C11.4151 0.00209664 11.1561 0.0713249 10.9278 0.202934C10.6994 0.334543 10.5097 0.523902 10.3777 0.752006C10.2456 0.98011 10.1759 1.23893 10.1755 1.5025Z" fill="#005AEE"/>
<path d="M8.67828 10.6426L2.97818 13.9025C2.74878 14.0337 2.55808 14.2231 2.42528 14.4516C2.29248 14.68 2.22228 14.9395 2.22168 15.2037C2.22118 15.468 2.29038 15.7277 2.42228 15.9567C2.55418 16.1857 2.74408 16.3759 2.97288 16.508L8.67298 19.7987C8.90148 19.9306 9.16058 20 9.42428 20C9.68808 20 9.94718 19.9306 10.1756 19.7987L15.8757 16.508C16.1046 16.3759 16.2945 16.1857 16.4264 15.9567C16.5583 15.7277 16.6275 15.468 16.6269 15.2037C16.6264 14.9395 16.5562 14.68 16.4234 14.4516C16.2906 14.2231 16.0998 14.0337 15.8705 13.9025L10.1704 10.6426C9.94318 10.5127 9.68598 10.4443 9.42428 10.4443C9.16258 10.4443 8.90548 10.5127 8.67828 10.6426Z" fill="#3BA6FF"/>
<rect x="26.8523" y="1" width="57" height="18" rx="9" fill="#FDF3F2"/>
<path d="M39.9656 9.5V9.8125C39.9656 10.2422 39.9096 10.6276 39.7976 10.9688C39.6856 11.3099 39.5255 11.6003 39.3171 11.8398C39.1114 12.0794 38.864 12.263 38.575 12.3906C38.2859 12.5156 37.9656 12.5781 37.614 12.5781C37.2651 12.5781 36.946 12.5156 36.657 12.3906C36.3705 12.263 36.1218 12.0794 35.9109 11.8398C35.7 11.6003 35.5359 11.3099 35.4187 10.9688C35.3041 10.6276 35.2468 10.2422 35.2468 9.8125V9.5C35.2468 9.07031 35.3041 8.6862 35.4187 8.34766C35.5333 8.00651 35.6947 7.71615 35.9031 7.47656C36.114 7.23438 36.3627 7.05078 36.6492 6.92578C36.9382 6.79818 37.2572 6.73438 37.6062 6.73438C37.9578 6.73438 38.2781 6.79818 38.5671 6.92578C38.8562 7.05078 39.1049 7.23438 39.3132 7.47656C39.5216 7.71615 39.6817 8.00651 39.7937 8.34766C39.9083 8.6862 39.9656 9.07031 39.9656 9.5ZM38.9851 9.8125V9.49219C38.9851 9.17448 38.9539 8.89453 38.8914 8.65234C38.8315 8.40755 38.7416 8.20312 38.6218 8.03906C38.5046 7.8724 38.3601 7.7474 38.1882 7.66406C38.0164 7.57812 37.8223 7.53516 37.6062 7.53516C37.3901 7.53516 37.1973 7.57812 37.0281 7.66406C36.8588 7.7474 36.7143 7.8724 36.5945 8.03906C36.4773 8.20312 36.3875 8.40755 36.325 8.65234C36.2625 8.89453 36.2312 9.17448 36.2312 9.49219V9.8125C36.2312 10.1302 36.2625 10.4115 36.325 10.6562C36.3875 10.901 36.4786 11.1081 36.5984 11.2773C36.7208 11.444 36.8666 11.5703 37.0359 11.6562C37.2052 11.7396 37.3979 11.7812 37.614 11.7812C37.8328 11.7812 38.0268 11.7396 38.196 11.6562C38.3653 11.5703 38.5085 11.444 38.6257 11.2773C38.7429 11.1081 38.8315 10.901 38.8914 10.6562C38.9539 10.4115 38.9851 10.1302 38.9851 9.8125ZM44.1375 6.8125H45.114V10.6133C45.114 11.0456 45.0203 11.4076 44.8328 11.6992C44.6453 11.9909 44.3901 12.2109 44.0671 12.3594C43.7468 12.5052 43.3888 12.5781 42.9929 12.5781C42.5841 12.5781 42.2195 12.5052 41.8992 12.3594C41.5789 12.2109 41.3263 11.9909 41.1414 11.6992C40.9591 11.4076 40.8679 11.0456 40.8679 10.6133V6.8125H41.8445V10.6133C41.8445 10.8867 41.8914 11.112 41.9851 11.2891C42.0789 11.4635 42.2117 11.5924 42.3835 11.6758C42.5554 11.7591 42.7585 11.8008 42.9929 11.8008C43.2273 11.8008 43.4291 11.7591 43.5984 11.6758C43.7703 11.5924 43.9031 11.4635 43.9968 11.2891C44.0906 11.112 44.1375 10.8867 44.1375 10.6133V6.8125ZM48.5203 6.8125V12.5H47.5476V6.8125H48.5203ZM50.3054 6.8125V7.59375H45.7781V6.8125H50.3054ZM52.7078 12.5H51.4929L51.5007 11.7227H52.7078C53.0593 11.7227 53.3536 11.6458 53.5906 11.4922C53.8302 11.3385 54.0098 11.1185 54.1296 10.832C54.252 10.5456 54.3132 10.2044 54.3132 9.80859V9.5C54.3132 9.19271 54.2781 8.92057 54.2078 8.68359C54.1401 8.44661 54.0385 8.2474 53.9031 8.08594C53.7703 7.92448 53.6062 7.80208 53.4109 7.71875C53.2182 7.63542 52.9955 7.59375 52.7429 7.59375H51.4695V6.8125H52.7429C53.1205 6.8125 53.4656 6.8763 53.7781 7.00391C54.0906 7.12891 54.3601 7.3099 54.5867 7.54688C54.8158 7.78385 54.9916 8.06771 55.114 8.39844C55.2364 8.72917 55.2976 9.09896 55.2976 9.50781V9.80859C55.2976 10.2174 55.2364 10.5872 55.114 10.918C54.9916 11.2487 54.8158 11.5326 54.5867 11.7695C54.3575 12.0039 54.0841 12.1849 53.7664 12.3125C53.4513 12.4375 53.0984 12.5 52.7078 12.5ZM52.0359 6.8125V12.5H51.0554V6.8125H52.0359ZM58.4109 7.57031L56.7117 12.5H55.6843L57.825 6.8125H58.4812L58.4109 7.57031ZM59.8328 12.5L58.1296 7.57031L58.0554 6.8125H58.7156L60.864 12.5H59.8328ZM59.7507 10.3906V11.168H56.657V10.3906H59.7507ZM63.3484 6.8125V12.5H62.3757V6.8125H63.3484ZM65.1335 6.8125V7.59375H60.6062V6.8125H65.1335ZM69.6062 11.7227V12.5H66.5867V11.7227H69.6062ZM66.864 6.8125V12.5H65.8835V6.8125H66.864ZM69.2117 9.1875V9.95312H66.5867V9.1875H69.2117ZM69.5867 6.8125V7.59375H66.5867V6.8125H69.5867ZM72.0593 12.5H70.8445L70.8523 11.7227H72.0593C72.4109 11.7227 72.7052 11.6458 72.9421 11.4922C73.1817 11.3385 73.3614 11.1185 73.4812 10.832C73.6036 10.5456 73.6648 10.2044 73.6648 9.80859V9.5C73.6648 9.19271 73.6296 8.92057 73.5593 8.68359C73.4916 8.44661 73.3901 8.2474 73.2546 8.08594C73.1218 7.92448 72.9578 7.80208 72.7625 7.71875C72.5697 7.63542 72.3471 7.59375 72.0945 7.59375H70.821V6.8125H72.0945C72.4721 6.8125 72.8171 6.8763 73.1296 7.00391C73.4421 7.12891 73.7117 7.3099 73.9382 7.54688C74.1674 7.78385 74.3432 8.06771 74.4656 8.39844C74.588 8.72917 74.6492 9.09896 74.6492 9.50781V9.80859C74.6492 10.2174 74.588 10.5872 74.4656 10.918C74.3432 11.2487 74.1674 11.5326 73.9382 11.7695C73.7091 12.0039 73.4356 12.1849 73.1179 12.3125C72.8028 12.4375 72.45 12.5 72.0593 12.5ZM71.3875 6.8125V12.5H70.407V6.8125H71.3875Z" fill="#E3463C"/>
</g>
<defs>
<clipPath id="clip0_4552_13431">
<rect width="83.8522" height="20" fill="white"/>
</clipPath>
</defs>
</svg>
