<svg width="54" height="54" viewBox="0 0 54 54" fill="none" xmlns="http://www.w3.org/2000/svg">
<g clip-path="url(#clip0_514_76600)">
<path d="M34.4679 39.3811C34.4176 39.4411 34.4176 39.4411 34.4679 39.3811C34.4176 39.4411 34.3074 39.4507 34.3074 39.4507L33.7155 39.6692L21.4361 44.0763L8.4043 48.7715L10.8851 35.223L13.0931 22.3649L13.1551 21.804C13.2054 21.744 13.2054 21.744 13.1957 21.6338L34.4176 39.4411L34.4679 39.3811Z" fill="#DB214C"/>
<path d="M16.3795 45.9632L8.46411 48.8221L9.02574 45.7178L14.3027 43.8119C14.9311 44.6457 15.6601 45.3596 16.3795 45.9632Z" fill="#B02049"/>
<path d="M34.4669 39.3811C34.4166 39.4411 34.4166 39.4411 34.4669 39.3811C34.4166 39.4411 34.3063 39.4507 34.3063 39.4507L33.7144 39.6692L21.9767 43.9179C21.2573 43.3142 20.5282 42.6003 19.7393 41.8361L31.3164 37.657L31.9084 37.4386C31.9084 37.4386 31.9587 37.3787 32.0186 37.429L32.0689 37.369L34.4669 39.3811Z" fill="#B02049"/>
<path d="M22.0379 43.9688L21.446 44.1873L16.3296 46.0236C15.6605 45.36 14.9315 44.6461 14.2528 43.8723L19.048 42.1751L19.8005 41.8871C20.5296 42.601 21.2586 43.3149 22.0379 43.9688Z" fill="#F4F4E9"/>
<path d="M19.8005 41.8867L19.048 42.1747L14.2527 43.8718C13.7035 43.3089 13.1447 42.6356 12.6362 41.9024C11.7583 40.7572 10.9404 39.6622 10.283 38.4977L10.8853 35.2232L11.877 29.415C12.6094 32.0728 14.4616 35.4658 17.0256 38.741C17.9538 39.8263 18.882 40.9116 19.8005 41.8867Z" fill="white"/>
<path d="M34.9397 39.0631C34.8391 39.183 34.6882 39.3628 34.5276 39.4324L34.4773 39.4924L34.427 39.5523C34.2665 39.6219 34.1059 39.6915 33.8351 39.7708C31.2779 40.3833 26.0754 38.0611 21.1596 33.9362C16.1839 29.7611 12.9935 25.0409 13.2127 22.4665L13.1548 21.805C13.2051 21.7451 13.2051 21.7451 13.1955 21.6348C13.2864 21.4046 13.4373 21.2248 13.5379 21.1049C15.2985 19.0067 21.5029 21.3524 27.3779 26.2821C33.3129 31.2621 36.7003 36.9649 34.9397 39.0631Z" fill="#D2E2ED"/>
<rect x="34.8506" y="15.1855" width="3.13031" height="3.13031" transform="rotate(40 34.8506 15.1855)" fill="#C9D75E"/>
<circle cx="28.4211" cy="5.19382" r="1.17387" transform="rotate(40 28.4211 5.19382)" fill="#82CCCC"/>
<circle cx="43.4972" cy="50.5346" r="1.17387" transform="rotate(40 43.4972 50.5346)" fill="#D4567D"/>
<circle cx="30.7023" cy="12.2153" r="1.17387" transform="rotate(40 30.7023 12.2153)" fill="#DC95C0"/>
<path d="M19.6596 3.4609L19.1796 5.71388L20.6611 7.47782L18.3701 7.71755L17.1503 9.67162L16.2144 7.5668L13.979 7.01055L15.6916 5.46997L15.5298 3.17212L17.5242 4.32481L19.6596 3.4609Z" fill="#FEDA52"/>
<rect x="46.2617" y="18.6309" width="0.782577" height="1.56515" rx="0.391288" transform="rotate(40 46.2617 18.6309)" fill="#2777B8"/>
<rect x="44.7529" y="20.4302" width="0.782577" height="1.56515" rx="0.391288" transform="rotate(40 44.7529 20.4302)" fill="#2777B8"/>
<rect x="47.0547" y="21.3394" width="0.782577" height="1.56515" rx="0.391289" transform="rotate(130 47.0547 21.3394)" fill="#2777B8"/>
<rect x="45.2549" y="19.8301" width="0.782577" height="1.56515" rx="0.391289" transform="rotate(130 45.2549 19.8301)" fill="#2777B8"/>
<path d="M32.7233 38.9221C34.5762 39.1488 36.4773 39.9268 37.7149 41.3739C38.2737 42.0471 38.6816 42.9002 38.5886 43.7415C38.5266 44.3024 37.9615 45.4628 37.2518 44.9695C36.6619 44.5767 36.695 43.685 37.0375 43.1551C37.4303 42.5653 38.293 42.2676 38.9738 42.4302C40.8963 42.8175 41.2594 45.0632 40.7929 46.7149C40.489 47.6858 42.0711 47.9918 42.3151 46.9706C42.9635 44.8586 42.3103 42.4716 40.3203 41.3126C38.63 40.405 36.1831 41.008 35.465 42.9594C35.1012 43.88 35.248 44.9226 35.7661 45.766C36.3946 46.5998 37.3751 47.0139 38.3984 46.6467C40.5455 45.7922 40.5752 42.9567 39.5988 41.3201C38.2937 39.1013 35.5223 37.8995 33.0988 37.5005C31.9674 37.2662 31.7117 38.7884 32.7233 38.9221Z" fill="#31A3BB"/>
<path d="M20.5885 26.0667C21.3879 23.7748 22.1872 21.483 22.3058 19.0285C22.3837 16.7442 22.0206 14.4985 21.437 12.2721C21.1296 11.2992 19.675 11.8153 19.9823 12.7882C20.5466 14.7941 20.8905 16.8193 20.7933 18.8831C20.7154 21.1674 19.9567 23.289 19.198 25.4107C18.8342 26.3313 20.2247 26.9873 20.5885 26.0667Z" fill="#FEBE4D"/>
<path d="M25.6505 28.5875C27.5813 26.5299 29.4522 24.4221 31.3327 22.4245C32.0466 21.6954 30.8476 20.6894 30.1337 21.4184C28.2029 23.476 26.3321 25.5838 24.4516 27.5814C23.7377 28.3105 24.9366 29.3165 25.6505 28.5875Z" fill="#FEBE4D"/>
<path d="M40.8852 21.9729C39.0164 23.4696 37.0084 24.6451 34.8805 25.7201C32.7024 26.8549 30.5242 27.9898 28.346 29.1247C27.4426 29.5926 28.3301 30.8481 29.2335 30.3802C31.4117 29.2453 33.5899 28.1104 35.768 26.9756C37.8959 25.9006 39.9542 24.6651 41.7727 23.2284C42.5562 22.66 41.6087 21.3542 40.8852 21.9729Z" fill="#FEBE4D"/>
<path d="M29.8066 34.3413C31.623 33.5158 33.6075 33.3421 35.6113 33.389C37.6751 33.4862 39.7892 33.5234 41.731 34.1312C42.1313 34.2628 42.5434 33.8935 42.675 33.4932C42.7467 33.0425 42.4373 32.6807 42.0369 32.5491C39.9249 31.9007 37.6407 31.8228 35.5266 31.7855C33.4125 31.7483 31.2578 31.8813 29.3408 32.8267C28.9693 33.0258 28.7275 33.4358 28.8763 33.8672C28.9652 34.2482 29.4351 34.5404 29.8066 34.3413Z" fill="#FEBE4D"/>
<path fill-rule="evenodd" clip-rule="evenodd" d="M42.7097 31.9949C42.5442 31.856 42.5226 31.6092 42.6615 31.4437L43.1645 30.8442C43.3034 30.6786 43.5502 30.657 43.7158 30.7959C43.8813 30.9349 43.9029 31.1817 43.764 31.3472L43.261 31.9467C43.1221 32.1122 42.8752 32.1338 42.7097 31.9949Z" fill="#FEDA52"/>
<path fill-rule="evenodd" clip-rule="evenodd" d="M40.2908 36.0945C40.1252 35.9556 40.1036 35.7088 40.2425 35.5433L40.7456 34.9438C40.8845 34.7782 41.1313 34.7567 41.2968 34.8956C41.4624 35.0345 41.484 35.2813 41.345 35.4468L40.842 36.0463C40.7031 36.2119 40.4563 36.2334 40.2908 36.0945Z" fill="#FEDA52"/>
<path fill-rule="evenodd" clip-rule="evenodd" d="M43.4339 33.3871C43.4151 33.1718 43.5743 32.982 43.7896 32.9631L44.5692 32.8949C44.7845 32.8761 44.9743 33.0354 44.9931 33.2506C45.0119 33.4659 44.8527 33.6557 44.6374 33.6745L43.8578 33.7427C43.6425 33.7616 43.4527 33.6023 43.4339 33.3871Z" fill="#FEDA52"/>
<path fill-rule="evenodd" clip-rule="evenodd" d="M42.1342 34.9379C41.919 34.9568 41.7597 35.1466 41.7786 35.3619L41.8468 36.1415C41.8656 36.3567 42.0554 36.516 42.2707 36.4971C42.4859 36.4783 42.6452 36.2885 42.6264 36.0732L42.5581 35.2936C42.5393 35.0784 42.3495 34.9191 42.1342 34.9379Z" fill="#FEDA52"/>
<path fill-rule="evenodd" clip-rule="evenodd" d="M41.2847 31.584C41.5 31.5652 41.6592 31.3754 41.6404 31.1601L41.5722 30.3805C41.5534 30.1652 41.3636 30.006 41.1483 30.0248C40.933 30.0437 40.7738 30.2334 40.7926 30.4487L40.8608 31.2283C40.8796 31.4436 41.0694 31.6029 41.2847 31.584Z" fill="#FEDA52"/>
<path fill-rule="evenodd" clip-rule="evenodd" d="M42.9509 34.7507C43.0898 34.5852 43.3366 34.5636 43.5021 34.7025L44.1016 35.2055C44.2672 35.3444 44.2888 35.5912 44.1499 35.7568C44.0109 35.9223 43.7641 35.9439 43.5986 35.805L42.9991 35.302C42.8336 35.1631 42.812 34.9163 42.9509 34.7507Z" fill="#FEDA52"/>
</g>
<defs>
<clipPath id="clip0_514_76600">
<rect width="54" height="54" fill="white"/>
</clipPath>
</defs>
</svg>
