<svg id="am-svg" viewBox="0 0 20 20" stroke="none" xmlns="http://www.w3.org/2000/svg">
    <path d="M9.99999 1.66666C8.24337 1.66658 6.55771 2.3598 5.30936 3.59566C4.06102 4.83152 3.35089 6.51013 3.33333 8.26666C3.33333 12.8333 9.20833 17.9167 9.45833 18.1333C9.60927 18.2624 9.80137 18.3334 9.99999 18.3334C10.1986 18.3334 10.3907 18.2624 10.5417 18.1333C10.8333 17.9167 16.6667 12.8333 16.6667 8.26666C16.6491 6.51013 15.939 4.83152 14.6906 3.59566C13.4423 2.3598 11.7566 1.66658 9.99999 1.66666ZM9.99999 16.375C8.60833 15.05 4.99999 11.375 4.99999 8.26666C4.99999 6.94058 5.52678 5.66881 6.46446 4.73113C7.40214 3.79345 8.67391 3.26666 9.99999 3.26666C11.3261 3.26666 12.5978 3.79345 13.5355 4.73113C14.4732 5.66881 15 6.94058 15 8.26666C15 11.35 11.3917 15.05 9.99999 16.375Z"/>
    <path d="M10 5C9.42313 5 8.85923 5.17106 8.37958 5.49155C7.89994 5.81203 7.5261 6.26756 7.30535 6.80051C7.08459 7.33346 7.02683 7.9199 7.13937 8.48568C7.25191 9.05146 7.5297 9.57116 7.9376 9.97906C8.34551 10.387 8.86521 10.6648 9.43098 10.7773C9.99676 10.8898 10.5832 10.8321 11.1162 10.6113C11.6491 10.3906 12.1046 10.0167 12.4251 9.53708C12.7456 9.05744 12.9167 8.49353 12.9167 7.91667C12.9167 7.14312 12.6094 6.40125 12.0624 5.85427C11.5154 5.30729 10.7735 5 10 5ZM10 9.16667C9.75277 9.16667 9.5111 9.09336 9.30553 8.956C9.09997 8.81865 8.93976 8.62343 8.84515 8.39502C8.75054 8.16661 8.72578 7.91528 8.77402 7.6728C8.82225 7.43033 8.9413 7.2076 9.11611 7.03278C9.29093 6.85797 9.51366 6.73892 9.75613 6.69068C9.99861 6.64245 10.2499 6.66721 10.4784 6.76182C10.7068 6.85643 10.902 7.01664 11.0393 7.2222C11.1767 7.42777 11.25 7.66944 11.25 7.91667C11.25 8.24819 11.1183 8.56613 10.8839 8.80055C10.6495 9.03497 10.3315 9.16667 10 9.16667Z"/>
</svg>
