<svg width="20" height="20" viewBox="0 0 20 20" fill="none" xmlns="http://www.w3.org/2000/svg">
<path d="M9.99998 1.66665C8.3518 1.66665 6.74064 2.15539 5.37023 3.07107C3.99982 3.98675 2.93171 5.28824 2.30098 6.81095C1.67025 8.33367 1.50522 10.0092 1.82677 11.6257C2.14831 13.2422 2.94198 14.7271 4.10742 15.8925C5.27286 17.058 6.75772 17.8517 8.37423 18.1732C9.99073 18.4947 11.6663 18.3297 13.189 17.699C14.7117 17.0682 16.0132 16.0001 16.9289 14.6297C17.8446 13.2593 18.3333 11.6482 18.3333 9.99998C18.3333 8.90563 18.1178 7.822 17.699 6.81095C17.2802 5.79991 16.6664 4.88125 15.8925 4.10743C15.1187 3.3336 14.2001 2.71978 13.189 2.30099C12.178 1.8822 11.0943 1.66665 9.99998 1.66665ZM9.99998 16.6666C8.68144 16.6666 7.3925 16.2757 6.29618 15.5431C5.19985 14.8106 4.34537 13.7694 3.84078 12.5512C3.3362 11.333 3.20418 9.99259 3.46141 8.69938C3.71864 7.40617 4.35358 6.21829 5.28593 5.28594C6.21828 4.35359 7.40617 3.71865 8.69938 3.46141C9.99258 3.20418 11.333 3.3362 12.5512 3.84079C13.7694 4.34537 14.8106 5.19985 15.5431 6.29618C16.2756 7.39251 16.6666 8.68144 16.6666 9.99998C16.6666 11.7681 15.9643 13.4638 14.714 14.714C13.4638 15.9643 11.7681 16.6666 9.99998 16.6666Z" fill="#179F55"/>
</svg>
