<svg id="persons" viewBox="0 0 102 102" xmlns="http://www.w3.org/2000/svg">
<path d="M44 49.6667C45.8459 49.6667 47.6504 49.1193 49.1853 48.0937C50.7201 47.0682 51.9164 45.6105 52.6228 43.9051C53.3293 42.1996 53.5141 40.323 53.154 38.5125C52.7938 36.702 51.9049 35.039 50.5996 33.7337C49.2943 32.4284 47.6313 31.5395 45.8208 31.1793C44.0103 30.8192 42.1337 31.004 40.4282 31.7105C38.7228 32.4169 37.2651 33.6132 36.2396 35.148C35.214 36.6829 34.6666 38.4874 34.6666 40.3333C34.6666 42.8087 35.65 45.1827 37.4003 46.933C39.1506 48.6833 41.5246 49.6667 44 49.6667ZM44 35.6667C44.9229 35.6667 45.8252 35.9404 46.5926 36.4531C47.3601 36.9659 47.9582 37.6948 48.3114 38.5475C48.6646 39.4002 48.757 40.3385 48.577 41.2438C48.3969 42.149 47.9524 42.9805 47.2998 43.6332C46.6471 44.2858 45.8156 44.7303 44.9104 44.9103C44.0051 45.0904 43.0668 44.998 42.2141 44.6448C41.3614 44.2916 40.6325 43.6934 40.1198 42.926C39.607 42.1586 39.3333 41.2563 39.3333 40.3333C39.3333 39.0957 39.825 37.9087 40.7001 37.0335C41.5753 36.1583 42.7623 35.6667 44 35.6667Z"/>
<path d="M62.6666 54.3333C64.0511 54.3333 65.4045 53.9227 66.5556 53.1535C67.7068 52.3844 68.604 51.2911 69.1338 50.012C69.6636 48.733 69.8022 47.3255 69.5321 45.9676C69.262 44.6098 68.5953 43.3625 67.6164 42.3835C66.6374 41.4045 65.3901 40.7379 64.0323 40.4678C62.6744 40.1977 61.2669 40.3363 59.9878 40.8661C58.7088 41.3959 57.6155 42.2931 56.8463 43.4443C56.0772 44.5954 55.6666 45.9488 55.6666 47.3333C55.6666 49.1898 56.4041 50.9702 57.7169 52.283C59.0296 53.5958 60.8101 54.3333 62.6666 54.3333ZM62.6666 44.9999C63.1281 44.9999 63.5792 45.1368 63.963 45.3932C64.3467 45.6495 64.6457 46.014 64.8223 46.4403C64.999 46.8667 65.0452 47.3358 64.9551 47.7885C64.8651 48.2411 64.6429 48.6568 64.3165 48.9832C63.9902 49.3095 63.5745 49.5317 63.1218 49.6218C62.6692 49.7118 62.2001 49.6656 61.7737 49.489C61.3473 49.3124 60.9829 49.0133 60.7265 48.6296C60.4701 48.2459 60.3333 47.7947 60.3333 47.3333C60.3333 46.7144 60.5791 46.1209 61.0167 45.6833C61.4543 45.2458 62.0478 44.9999 62.6666 44.9999Z"/>
<path d="M62.6666 56.6667C60.0809 56.6696 57.5694 57.5314 55.5266 59.1167C53.2412 56.8402 50.3328 55.2914 47.1682 54.6657C44.0037 54.04 40.7247 54.3653 37.7448 55.6007C34.7649 56.8361 32.2176 58.9262 30.424 61.6074C28.6305 64.2886 27.671 67.4409 27.6666 70.6667C27.6666 71.2856 27.9125 71.879 28.35 72.3166C28.7876 72.7542 29.3811 73 30 73C30.6188 73 31.2123 72.7542 31.6499 72.3166C32.0875 71.879 32.3333 71.2856 32.3333 70.6667C32.3333 67.5725 33.5625 64.6051 35.7504 62.4171C37.9383 60.2292 40.9058 59 44 59C47.0942 59 50.0616 60.2292 52.2495 62.4171C54.4375 64.6051 55.6666 67.5725 55.6666 70.6667C55.6666 71.2856 55.9125 71.879 56.35 72.3166C56.7876 72.7542 57.3811 73 58 73C58.6188 73 59.2123 72.7542 59.6499 72.3166C60.0875 71.879 60.3333 71.2856 60.3333 70.6667C60.3389 67.9331 59.6483 65.243 58.3266 62.85C59.3578 62.0352 60.5975 61.5271 61.9039 61.3839C63.2103 61.2407 64.5307 61.4682 65.7139 62.0403C66.897 62.6124 67.8953 63.5061 68.5943 64.619C69.2933 65.7319 69.665 67.0191 69.6666 68.3334C69.6666 68.9522 69.9125 69.5457 70.35 69.9833C70.7876 70.4209 71.3811 70.6667 72 70.6667C72.6188 70.6667 73.2123 70.4209 73.6499 69.9833C74.0875 69.5457 74.3333 68.9522 74.3333 68.3334C74.3333 65.2392 73.1041 62.2717 70.9162 60.0838C68.7283 57.8959 65.7608 56.6667 62.6666 56.6667Z"/>
<circle opacity="0.1" cx="51" cy="51" r="51"/>
</svg>
