<svg width="16" height="16" viewBox="0 0 16 16" fill="none" xmlns="http://www.w3.org/2000/svg">
<path d="M16.0003 2.83002C16.0052 2.45862 15.9352 2.09006 15.7943 1.7464C15.6534 1.40274 15.4445 1.09106 15.1803 0.830015C14.6423 0.31418 13.9257 0.0261841 13.1803 0.0261841C12.4349 0.0261841 11.7184 0.31418 11.1803 0.830015L4.58032 7.43002H4.36032C3.22777 7.46043 2.15015 7.92459 1.34995 8.72664C0.549763 9.52869 0.0881118 10.6074 0.0603244 11.74L0.00032447 15C-0.00311409 15.135 0.0208077 15.2692 0.0706479 15.3947C0.120488 15.5201 0.195215 15.6342 0.290324 15.73C0.485002 15.9055 0.738256 16.0018 1.00032 16L4.26032 15.94C5.39294 15.9122 6.47165 15.4506 7.2737 14.6504C8.07575 13.8502 8.53991 12.7726 8.57032 11.64V11.41L15.1803 4.81002C15.443 4.55201 15.651 4.2437 15.7919 3.90351C15.9328 3.56332 16.0037 3.19821 16.0003 2.83002ZM4.25032 13.94L2.00032 14V11.77C2.01082 11.1405 2.2683 10.5402 2.71726 10.0988C3.16621 9.65729 3.77067 9.40993 4.40032 9.41002C4.68606 9.40997 4.96895 9.46687 5.23244 9.57741C5.49593 9.68795 5.73474 9.84991 5.93492 10.0538C6.1351 10.2577 6.29263 10.4995 6.39829 10.765C6.50396 11.0304 6.55564 11.3143 6.55032 11.6C6.53561 12.2092 6.28977 12.7899 5.86265 13.2244C5.43553 13.659 4.85912 13.9148 4.25032 13.94ZM13.7703 3.39002L7.90032 9.26002C7.74672 9.03138 7.57267 8.81717 7.38032 8.62002C7.18577 8.42477 6.97126 8.25049 6.74032 8.10002L12.6103 2.24002C12.7666 2.09086 12.9743 2.00763 13.1903 2.00763C13.4063 2.00763 13.6141 2.09086 13.7703 2.24002C13.8463 2.31787 13.9059 2.41024 13.9454 2.51161C13.9849 2.61298 14.0036 2.72127 14.0003 2.83002C14.0007 2.9339 13.9806 3.03683 13.9411 3.13292C13.9016 3.22901 13.8436 3.31638 13.7703 3.39002Z" fill="#818FA5"/>
</svg>
