<svg id="am-svg" viewBox="0 0 20 24" stroke="none" xmlns="http://www.w3.org/2000/svg">
    <path d="M10 0.16674C7.54075 0.166617 5.18082 1.13713 3.43314 2.86733C1.68546 4.59753 0.69128 6.9476 0.666687 9.40674C0.666687 15.8001 8.89169 22.9167 9.24169 23.2201C9.45301 23.4008 9.72194 23.5001 10 23.5001C10.2781 23.5001 10.547 23.4008 10.7584 23.2201C11.1667 22.9167 19.3334 15.8001 19.3334 9.40674C19.3088 6.9476 18.3146 4.59753 16.5669 2.86733C14.8192 1.13713 12.4593 0.166617 10 0.16674ZM10 20.7584C8.05169 18.9034 3.00002 13.7584 3.00002 9.40674C3.00002 7.55022 3.73752 5.76975 5.05027 4.45699C6.36303 3.14424 8.1435 2.40674 10 2.40674C11.8565 2.40674 13.637 3.14424 14.9498 4.45699C16.2625 5.76975 17 7.55022 17 9.40674C17 13.7234 11.9484 18.9034 10 20.7584Z"/>
    <path d="M10 4.83337C9.19241 4.83337 8.40294 5.07286 7.73144 5.52154C7.05994 5.97022 6.53656 6.60795 6.22751 7.35408C5.91845 8.10022 5.83759 8.92124 5.99514 9.71333C6.1527 10.5054 6.5416 11.233 7.11266 11.8041C7.68373 12.3751 8.41131 12.764 9.2034 12.9216C9.99548 13.0791 10.8165 12.9983 11.5626 12.6892C12.3088 12.3802 12.9465 11.8568 13.3952 11.1853C13.8439 10.5138 14.0833 9.72431 14.0833 8.91671C14.0833 7.83374 13.6531 6.79513 12.8874 6.02935C12.1216 5.26358 11.083 4.83337 10 4.83337ZM10 10.6667C9.6539 10.6667 9.31555 10.5641 9.02777 10.3718C8.73998 10.1795 8.51568 9.90617 8.38323 9.5864C8.25077 9.26663 8.21612 8.91477 8.28364 8.5753C8.35116 8.23583 8.51784 7.92401 8.76258 7.67927C9.00732 7.43453 9.31914 7.26786 9.65861 7.20033C9.99807 7.13281 10.3499 7.16746 10.6697 7.29992C10.9895 7.43237 11.2628 7.65667 11.4551 7.94446C11.6474 8.23225 11.75 8.57059 11.75 8.91671C11.75 9.38084 11.5656 9.82596 11.2375 10.1541C10.9093 10.4823 10.4641 10.6667 10 10.6667Z"/>
</svg>

