<svg width="20" height="20" viewBox="0 0 20 20" fill="none" xmlns="http://www.w3.org/2000/svg">
<path fill-rule="evenodd" clip-rule="evenodd" d="M5.37026 3.07108C6.74067 2.15541 8.35183 1.66666 10 1.66666C11.0944 1.66666 12.178 1.88221 13.189 2.301C14.2001 2.71979 15.1187 3.33362 15.8926 4.10744C16.6664 4.88126 17.2802 5.79992 17.699 6.81097C18.1178 7.82202 18.3333 8.90565 18.3333 10C18.3333 11.6482 17.8446 13.2593 16.9289 14.6298C16.0132 16.0002 14.7118 17.0683 13.189 17.699C11.6663 18.3297 9.99076 18.4948 8.37426 18.1732C6.75775 17.8517 5.27289 17.058 4.10745 15.8926C2.94201 14.7271 2.14834 13.2423 1.8268 11.6258C1.50525 10.0092 1.67028 8.33369 2.30101 6.81097C2.93174 5.28825 3.99985 3.98676 5.37026 3.07108ZM6.29621 15.5431C7.39253 16.2757 8.68147 16.6667 10 16.6667C11.7681 16.6667 13.4638 15.9643 14.7141 14.714C15.9643 13.4638 16.6667 11.7681 16.6667 10C16.6667 8.68146 16.2757 7.39252 15.5431 6.2962C15.4739 6.19261 15.4019 6.09117 15.3273 5.99199L5.992 15.3273C6.09119 15.4019 6.19262 15.4739 6.29621 15.5431ZM4.79575 14.1666C4.40497 13.6784 4.08269 13.1352 3.84081 12.5512C3.33623 11.333 3.20421 9.9926 3.46144 8.6994C3.71868 7.40619 4.35361 6.2183 5.28596 5.28595C6.21831 4.3536 7.4062 3.71866 8.69941 3.46143C9.99261 3.20419 11.3331 3.33622 12.5512 3.8408C13.1352 4.08268 13.6785 4.40496 14.1666 4.79574L4.79575 14.1666Z" fill="#D10B17"/>
</svg>
