<svg width="14" height="14" viewBox="0 0 14 14" fill="none" xmlns="http://www.w3.org/2000/svg">
<path opacity="0.01" d="M0 0H10C12.2091 0 14 1.79086 14 4V10C14 12.2091 12.2091 14 10 14H0V0Z" fill="white"/>
<path fill-rule="evenodd" clip-rule="evenodd" d="M11.3159 4.28168L9.71753 2.68334C9.28571 2.27773 8.61843 2.26017 8.16587 2.64251L2.91587 7.89251C2.72731 8.08266 2.60991 8.33188 2.58337 8.59834L2.33253 11.0308C2.31662 11.2038 2.37864 11.3749 2.5017 11.4975C2.61179 11.6067 2.76081 11.6676 2.91587 11.6667H2.96837L5.40087 11.445C5.66733 11.4185 5.91655 11.3011 6.1067 11.1125L11.3567 5.86251C11.781 5.41431 11.7627 4.70737 11.3159 4.28168ZM5.29586 10.2783L3.54586 10.4417L3.70336 8.69168L6.9992 5.43668L8.5742 7.01168L5.29586 10.2783ZM7.7692 4.66667L9.33253 6.23L10.4992 5.0925L8.9067 3.5L7.7692 4.66667Z" fill="#445060"/>
</svg>
