<svg width="8" height="15" viewBox="0 0 8 15" fill="none" xmlns="http://www.w3.org/2000/svg">
<path fill-rule="evenodd" clip-rule="evenodd" d="M6.5 12C5.67157 12 5 12.6716 5 13.5C5 14.3284 5.67157 15 6.5 15C7.32843 15 8 14.3284 8 13.5C8 12.6716 7.32843 12 6.5 12ZM1.5 12C0.671573 12 2.03558e-07 12.6716 1.31134e-07 13.5C5.87107e-08 14.3284 0.671573 15 1.5 15C2.32843 15 3 14.3284 3 13.5C3 12.6716 2.32843 12 1.5 12ZM5 7.5C5 6.67157 5.67157 6 6.5 6C7.32843 6 8 6.67157 8 7.5C8 8.32843 7.32843 9 6.5 9C5.67157 9 5 8.32843 5 7.5ZM1.5 6C0.671573 6 -2.2558e-07 6.67157 -2.98004e-07 7.5C-3.70427e-07 8.32843 0.671573 9 1.5 9C2.32843 9 3 8.32843 3 7.5C3 6.67157 2.32843 6 1.5 6ZM5 1.5C5 0.671572 5.67157 -2.03558e-07 6.5 -1.31134e-07C7.32843 -5.87109e-08 8 0.671573 8 1.5C8 2.32843 7.32843 3 6.5 3C5.67157 3 5 2.32843 5 1.5ZM1.5 -5.68248e-07C0.671573 -6.40672e-07 2.98957e-07 0.671572 2.26533e-07 1.5C1.5411e-07 2.32843 0.671573 3 1.5 3C2.32843 3 3 2.32843 3 1.5C3 0.671572 2.32843 -4.95825e-07 1.5 -5.68248e-07Z" fill="#445060"/>
</svg>
