<svg width="20" height="20" viewBox="0 0 20 20" fill="none" xmlns="http://www.w3.org/2000/svg">
<path d="M10 1.66666C8.35182 1.66666 6.74066 2.15541 5.37025 3.07108C3.99984 3.98676 2.93174 5.28825 2.30101 6.81097C1.67027 8.33369 1.50525 10.0092 1.82679 11.6258C2.14833 13.2423 2.94201 14.7271 4.10744 15.8926C5.27288 17.058 6.75774 17.8517 8.37425 18.1732C9.99076 18.4948 11.6663 18.3297 13.189 17.699C14.7117 17.0683 16.0132 16.0002 16.9289 14.6298C17.8446 13.2593 18.3333 11.6482 18.3333 10C18.3333 8.90565 18.1178 7.82202 17.699 6.81097C17.2802 5.79992 16.6664 4.88126 15.8926 4.10744C15.1187 3.33362 14.2001 2.71979 13.189 2.301C12.178 1.88221 11.0943 1.66666 10 1.66666ZM10 16.6667C8.68146 16.6667 7.39253 16.2757 6.2962 15.5431C5.19987 14.8106 4.34539 13.7694 3.8408 12.5512C3.33622 11.333 3.2042 9.9926 3.46143 8.6994C3.71867 7.40619 4.35361 6.2183 5.28596 5.28595C6.21831 4.3536 7.40619 3.71866 8.6994 3.46143C9.99261 3.20419 11.333 3.33622 12.5512 3.8408C13.7694 4.34539 14.8106 5.19987 15.5431 6.2962C16.2757 7.39252 16.6667 8.68146 16.6667 10C16.6667 11.7681 15.9643 13.4638 14.714 14.714C13.4638 15.9643 11.7681 16.6667 10 16.6667Z" fill="#26313D"/>
<path d="M12.2584 7.74165C12.181 7.66354 12.0888 7.60154 11.9873 7.55924C11.8857 7.51693 11.7768 7.49515 11.6668 7.49515C11.5568 7.49515 11.4478 7.51693 11.3463 7.55924C11.2447 7.60154 11.1526 7.66354 11.0751 7.74165L10.0001 8.82498L8.92511 7.74165C8.76819 7.58473 8.55536 7.49657 8.33344 7.49657C8.11152 7.49657 7.8987 7.58473 7.74178 7.74165C7.58486 7.89857 7.4967 8.1114 7.4967 8.33331C7.4967 8.55523 7.58486 8.76806 7.74178 8.92498L8.82511 9.99998L7.74178 11.075C7.66367 11.1524 7.60167 11.2446 7.55937 11.3462C7.51706 11.4477 7.49528 11.5566 7.49528 11.6666C7.49528 11.7767 7.51706 11.8856 7.55937 11.9871C7.60167 12.0887 7.66367 12.1808 7.74178 12.2583C7.81925 12.3364 7.91141 12.3984 8.01296 12.4407C8.11451 12.483 8.22343 12.5048 8.33344 12.5048C8.44345 12.5048 8.55237 12.483 8.65392 12.4407C8.75547 12.3984 8.84764 12.3364 8.92511 12.2583L10.0001 11.175L11.0751 12.2583C11.1526 12.3364 11.2447 12.3984 11.3463 12.4407C11.4478 12.483 11.5568 12.5048 11.6668 12.5048C11.7768 12.5048 11.8857 12.483 11.9873 12.4407C12.0888 12.3984 12.181 12.3364 12.2584 12.2583C12.3366 12.1808 12.3985 12.0887 12.4409 11.9871C12.4832 11.8856 12.5049 11.7767 12.5049 11.6666C12.5049 11.5566 12.4832 11.4477 12.4409 11.3462C12.3985 11.2446 12.3366 11.1524 12.2584 11.075L11.1751 9.99998L12.2584 8.92498C12.3366 8.84751 12.3985 8.75534 12.4409 8.65379C12.4832 8.55224 12.5049 8.44332 12.5049 8.33331C12.5049 8.2233 12.4832 8.11438 12.4409 8.01283C12.3985 7.91128 12.3366 7.81912 12.2584 7.74165Z" fill="#26313D"/>
</svg>
