<svg width="105" height="74" viewBox="0 0 105 74" fill="none" xmlns="http://www.w3.org/2000/svg">
<g filter="url(#filter0_d)">
<rect x="4" y="2" width="97" height="66" rx="4" fill="white"/>
</g>
<path opacity="0.1" d="M10 2H8C5.79086 2 4 3.79086 4 6V64C4 66.2091 5.79086 68 8 68H10V2Z" fill="url(#paint0_linear)"/>
<rect opacity="0.1" width="33" height="5" rx="1" transform="matrix(-1 0 0 1 52 32.7761)" fill="url(#paint1_linear)"/>
<rect opacity="0.1" width="17" height="2" rx="1" transform="matrix(-1 0 0 1 36 21)" fill="url(#paint2_linear)"/>
<rect opacity="0.1" width="10" height="1" rx="0.5" transform="matrix(-1 0 0 1 29 17)" fill="url(#paint3_linear)"/>
<rect opacity="0.1" width="17" height="2" rx="1" transform="matrix(-1 0 0 1 64 21)" fill="url(#paint4_linear)"/>
<rect opacity="0.1" width="10" height="1" rx="0.5" transform="matrix(-1 0 0 1 57 17)" fill="url(#paint5_linear)"/>
<rect opacity="0.1" width="17" height="2" rx="1" transform="matrix(-1 0 0 1 92 21)" fill="url(#paint6_linear)"/>
<rect opacity="0.1" width="10" height="1" rx="0.5" transform="matrix(-1 0 0 1 85 17)" fill="url(#paint7_linear)"/>
<rect opacity="0.1" width="33" height="5" rx="1" transform="matrix(-1 0 0 1 92 32.7761)" fill="url(#paint8_linear)"/>
<rect opacity="0.1" width="33" height="5" rx="1" transform="matrix(-1 0 0 1 52 42)" fill="url(#paint9_linear)"/>
<rect opacity="0.1" width="33" height="5" rx="1" transform="matrix(-1 0 0 1 92 42)" fill="url(#paint10_linear)"/>
<rect opacity="0.1" width="17" height="5" rx="1" transform="matrix(-1 0 0 1 36 51)" fill="url(#paint11_linear)"/>
<defs>
<filter id="filter0_d" x="0" y="0" width="105" height="74" filterUnits="userSpaceOnUse" color-interpolation-filters="sRGB">
<feFlood flood-opacity="0" result="BackgroundImageFix"/>
<feColorMatrix in="SourceAlpha" type="matrix" values="0 0 0 0 0 0 0 0 0 0 0 0 0 0 0 0 0 0 127 0"/>
<feOffset dy="2"/>
<feGaussianBlur stdDeviation="2"/>
<feColorMatrix type="matrix" values="0 0 0 0 0 0 0 0 0 0 0 0 0 0 0 0 0 0 0.1 0"/>
<feBlend mode="normal" in2="BackgroundImageFix" result="effect1_dropShadow"/>
<feBlend mode="normal" in="SourceGraphic" in2="effect1_dropShadow" result="shape"/>
</filter>
<linearGradient id="paint0_linear" x1="13" y1="35" x2="1.09836" y2="36.082" gradientUnits="userSpaceOnUse">
<stop stop-color="#363636"/>
<stop offset="1" stop-color="#3447BF"/>
</linearGradient>
<linearGradient id="paint1_linear" x1="-16.5" y1="2.5" x2="-15.0189" y2="12.2756" gradientUnits="userSpaceOnUse">
<stop stop-color="#363636"/>
<stop offset="1" stop-color="#3447BF"/>
</linearGradient>
<linearGradient id="paint2_linear" x1="-8.5" y1="1" x2="-8.03584" y2="4.94539" gradientUnits="userSpaceOnUse">
<stop stop-color="#363636"/>
<stop offset="1" stop-color="#3447BF"/>
</linearGradient>
<linearGradient id="paint3_linear" x1="-5" y1="0.5" x2="-4.80198" y2="2.4802" gradientUnits="userSpaceOnUse">
<stop stop-color="#363636"/>
<stop offset="1" stop-color="#3447BF"/>
</linearGradient>
<linearGradient id="paint4_linear" x1="-8.5" y1="1" x2="-8.03584" y2="4.94539" gradientUnits="userSpaceOnUse">
<stop stop-color="#363636"/>
<stop offset="1" stop-color="#3447BF"/>
</linearGradient>
<linearGradient id="paint5_linear" x1="-5" y1="0.5" x2="-4.80198" y2="2.4802" gradientUnits="userSpaceOnUse">
<stop stop-color="#363636"/>
<stop offset="1" stop-color="#3447BF"/>
</linearGradient>
<linearGradient id="paint6_linear" x1="-8.5" y1="1" x2="-8.03584" y2="4.94539" gradientUnits="userSpaceOnUse">
<stop stop-color="#363636"/>
<stop offset="1" stop-color="#3447BF"/>
</linearGradient>
<linearGradient id="paint7_linear" x1="-5" y1="0.5" x2="-4.80198" y2="2.4802" gradientUnits="userSpaceOnUse">
<stop stop-color="#363636"/>
<stop offset="1" stop-color="#3447BF"/>
</linearGradient>
<linearGradient id="paint8_linear" x1="-16.5" y1="2.5" x2="-15.0189" y2="12.2756" gradientUnits="userSpaceOnUse">
<stop stop-color="#363636"/>
<stop offset="1" stop-color="#3447BF"/>
</linearGradient>
<linearGradient id="paint9_linear" x1="-16.5" y1="2.5" x2="-15.0189" y2="12.2756" gradientUnits="userSpaceOnUse">
<stop stop-color="#363636"/>
<stop offset="1" stop-color="#3447BF"/>
</linearGradient>
<linearGradient id="paint10_linear" x1="-16.5" y1="2.5" x2="-15.0189" y2="12.2756" gradientUnits="userSpaceOnUse">
<stop stop-color="#363636"/>
<stop offset="1" stop-color="#3447BF"/>
</linearGradient>
<linearGradient id="paint11_linear" x1="-8.5" y1="2.5" x2="-5.79299" y2="11.7038" gradientUnits="userSpaceOnUse">
<stop stop-color="#363636"/>
<stop offset="1" stop-color="#3447BF"/>
</linearGradient>
</defs>
</svg>
