<svg id="am-svg" viewBox="0 0 20 20" xmlns="http://www.w3.org/2000/svg">
    <path d="M9.99999 9.16667C10.6593 9.16667 11.3037 8.97117 11.8519 8.6049C12.4001 8.23863 12.8273 7.71803 13.0796 7.10895C13.3319 6.49986 13.3979 5.82964 13.2693 5.18303C13.1407 4.53643 12.8232 3.94249 12.357 3.47631C11.8908 3.01014 11.2969 2.69267 10.6503 2.56405C10.0037 2.43543 9.33347 2.50144 8.72438 2.75374C8.11529 3.00603 7.5947 3.43327 7.22842 3.98143C6.86215 4.5296 6.66666 5.17406 6.66666 5.83333C6.66666 6.71739 7.01785 7.56524 7.64297 8.19036C8.26809 8.81548 9.11593 9.16667 9.99999 9.16667ZM9.99999 4.16667C10.3296 4.16667 10.6519 4.26442 10.9259 4.44755C11.2 4.63069 11.4136 4.89099 11.5398 5.19553C11.6659 5.50007 11.6989 5.83518 11.6346 6.15849C11.5703 6.48179 11.4116 6.77876 11.1785 7.01185C10.9454 7.24493 10.6484 7.40367 10.3251 7.46798C10.0018 7.53229 9.66673 7.49928 9.36218 7.37313C9.05764 7.24699 8.79734 7.03337 8.61421 6.75928C8.43107 6.4852 8.33332 6.16297 8.33332 5.83333C8.33332 5.39131 8.50892 4.96738 8.82148 4.65482C9.13404 4.34226 9.55796 4.16667 9.99999 4.16667Z"/>
    <path d="M9.99999 10.8333C8.45289 10.8333 6.96916 11.4479 5.8752 12.5419C4.78124 13.6358 4.16666 15.1196 4.16666 16.6667C4.16666 16.8877 4.25445 17.0996 4.41073 17.2559C4.56701 17.4122 4.77898 17.5 4.99999 17.5C5.221 17.5 5.43297 17.4122 5.58925 17.2559C5.74553 17.0996 5.83332 16.8877 5.83332 16.6667C5.83332 15.5616 6.27231 14.5018 7.05371 13.7204C7.83511 12.939 8.89492 12.5 9.99999 12.5C11.1051 12.5 12.1649 12.939 12.9463 13.7204C13.7277 14.5018 14.1667 15.5616 14.1667 16.6667C14.1667 16.8877 14.2545 17.0996 14.4107 17.2559C14.567 17.4122 14.779 17.5 15 17.5C15.221 17.5 15.433 17.4122 15.5892 17.2559C15.7455 17.0996 15.8333 16.8877 15.8333 16.6667C15.8333 15.1196 15.2187 13.6358 14.1248 12.5419C13.0308 11.4479 11.5471 10.8333 9.99999 10.8333Z"/>
</svg>
