<svg width="10" height="10" viewBox="0 0 10 10" fill="none" xmlns="http://www.w3.org/2000/svg">
<path d="M9.70501 4.21246L6.1394 0.652183C6.04857 0.560822 5.92881 0.503881 5.80061 0.491109L0.60771 0.00233443C0.526363 -0.00514773 0.444367 0.00540834 0.367567 0.0332501C0.290767 0.0610919 0.221054 0.105534 0.163398 0.163408C0.105527 0.221068 0.061088 0.290786 0.033248 0.367591C0.005408 0.444395 -0.00514741 0.526397 0.00233428 0.607749L0.491078 5.80098C0.503849 5.92918 0.560787 6.04895 0.652142 6.13979L4.2122 9.70562C4.40314 9.89397 4.66046 9.99969 4.92865 10C5.19516 9.99943 5.45065 9.89363 5.63955 9.70562L9.70501 5.63991C9.89392 5.45042 10 5.19376 10 4.92618C10 4.65861 9.89392 4.40195 9.70501 4.21246ZM4.20109 4.21246C4.08462 4.32908 3.93618 4.40853 3.77455 4.44076C3.61292 4.473 3.44536 4.45656 3.29307 4.39353C3.14079 4.3305 3.01061 4.22372 2.91903 4.08669C2.82744 3.94965 2.77856 3.78853 2.77856 3.62371C2.77856 3.45889 2.82744 3.29777 2.91903 3.16074C3.01061 3.0237 3.14079 2.91692 3.29307 2.85389C3.44536 2.79086 3.61292 2.77443 3.77455 2.80666C3.93618 2.83889 4.08462 2.91834 4.20109 3.03496C4.35507 3.19 4.44148 3.39964 4.44148 3.61816C4.44148 3.83667 4.35507 4.04632 4.20109 4.20135V4.21246Z" fill="#374352"/>
</svg>
