<svg id="am-svg" viewBox="0 0 12 16" stroke="none" xmlns="http://www.w3.org/2000/svg">
    <path d="M5.99999 7.16667C6.65926 7.16667 7.30373 6.97117 7.85189 6.6049C8.40005 6.23863 8.8273 5.71803 9.07959 5.10895C9.33188 4.49986 9.39789 3.82964 9.26927 3.18303C9.14066 2.53643 8.82319 1.94249 8.35701 1.47631C7.89084 1.01014 7.29689 0.692668 6.65029 0.564051C6.00369 0.435433 5.33347 0.501444 4.72438 0.753736C4.11529 1.00603 3.5947 1.43327 3.22842 1.98143C2.86215 2.5296 2.66666 3.17406 2.66666 3.83333C2.66666 4.71739 3.01785 5.56524 3.64297 6.19036C4.26809 6.81548 5.11593 7.16667 5.99999 7.16667ZM5.99999 2.16667C6.32963 2.16667 6.65186 2.26442 6.92594 2.44755C7.20002 2.63069 7.41364 2.89099 7.53979 3.19553C7.66594 3.50007 7.69894 3.83518 7.63463 4.15849C7.57032 4.48179 7.41159 4.77876 7.1785 5.01185C6.94541 5.24493 6.64844 5.40367 6.32514 5.46798C6.00184 5.53229 5.66673 5.49928 5.36218 5.37313C5.05764 5.24699 4.79734 5.03337 4.61421 4.75928C4.43107 4.4852 4.33332 4.16297 4.33332 3.83333C4.33332 3.39131 4.50892 2.96738 4.82148 2.65482C5.13404 2.34226 5.55796 2.16667 5.99999 2.16667Z"/>
    <path d="M5.99999 8.83333C4.45289 8.83333 2.96916 9.44791 1.8752 10.5419C0.781238 11.6358 0.166656 13.1196 0.166656 14.6667C0.166656 14.8877 0.254454 15.0996 0.410734 15.2559C0.567015 15.4122 0.778976 15.5 0.99999 15.5C1.221 15.5 1.43297 15.4122 1.58925 15.2559C1.74553 15.0996 1.83332 14.8877 1.83332 14.6667C1.83332 13.5616 2.27231 12.5018 3.05371 11.7204C3.83511 10.939 4.89492 10.5 5.99999 10.5C7.10506 10.5 8.16487 10.939 8.94627 11.7204C9.72767 12.5018 10.1667 13.5616 10.1667 14.6667C10.1667 14.8877 10.2545 15.0996 10.4107 15.2559C10.567 15.4122 10.779 15.5 11 15.5C11.221 15.5 11.433 15.4122 11.5892 15.2559C11.7455 15.0996 11.8333 14.8877 11.8333 14.6667C11.8333 13.1196 11.2187 11.6358 10.1248 10.5419C9.03082 9.44791 7.54709 8.83333 5.99999 8.83333Z"/>
</svg>
