<svg width="246" height="246" viewBox="0 0 246 246" fill="none" xmlns="http://www.w3.org/2000/svg">
<g clip-path="url(#clip0_1105_16600)">
<path d="M208.914 199.016C204.366 203.804 200.063 206.892 196.663 209.332C156.696 238.008 109.405 229.649 99.355 227.608C84.5135 224.593 55.825 218.766 35.0838 194.375C3.70429 157.472 8.59 99.3345 32.9304 60.9563C37.3827 53.9366 60.9008 14.9738 108.701 8.72559C137.629 4.94446 171.35 12.5706 195.77 33.0296C247.029 75.9749 243.38 162.732 208.915 199.015L208.914 199.016Z" fill="url(#paint0_linear_1105_16600)"/>
<path d="M184.245 135.913C184.245 135.913 183.591 108.402 196.263 101.038C208.934 93.675 233.027 89.0718 233.931 49.5675C234.459 26.4404 235.032 16.3287 235.416 11.919C235.565 10.199 234.037 8.81085 232.341 9.12989C220.339 11.3903 181.353 20.696 173.18 47.3062C163.49 78.8523 184.247 135.913 184.247 135.913H184.245Z" fill="url(#paint1_linear_1105_16600)"/>
<path opacity="0.5" d="M223.059 20.1215C209.886 31.8709 194.653 52.6637 186.534 73.4566C185.492 76.8837 182.443 84.1707 181.12 97.1191C179.937 107.918 180.525 119.329 181.959 126.883C182.05 127.361 182.511 127.674 182.987 127.584C183.809 127.428 183.699 126.546 183.692 126.573C182.054 113.667 182.734 97.6036 186.486 83.1101C191.279 65.3134 201.97 48.0588 213.029 33.4254L214.167 31.9846C222.734 20.9819 224.538 20.9005 223.737 20.1342C223.548 19.9535 223.252 19.9518 223.059 20.1224V20.1215Z" fill="white"/>
<path d="M163.2 194.169C161.312 195.094 181.075 170.242 187.266 131.209C190.183 112.816 190.222 89.7709 200.699 80.8896C209.419 73.4981 239.093 78.165 248.802 79.9384C250.016 80.1598 250.424 81.6922 249.479 82.4856C244.823 86.3956 234.863 95.6198 232.268 104.915C228.848 117.168 217.198 124.961 206.77 127.07C196.342 129.179 190.541 131.226 185.461 147.903C180.381 164.58 168.565 191.538 163.2 194.169Z" fill="#D4DEFC"/>
<path opacity="0.5" d="M235.147 85.1152C222.759 85.6336 209.462 91.2847 202.715 101.884L202.077 102.896C200.606 105.267 192.27 122.127 187.64 136.102C187.582 136.276 187.676 136.465 187.851 136.522C188.147 136.62 188.295 136.295 188.267 136.324C191.493 128.428 196.126 118.418 199.816 110.933C203.774 102.765 206.543 97.2328 215.569 91.9347C225.615 86.2284 235.214 85.6413 235.185 85.6472C235.332 85.6319 235.438 85.5013 235.423 85.3545C235.409 85.2136 235.287 85.1092 235.147 85.1152Z" fill="white"/>
<path d="M171.673 197.438C170.552 198.029 177.984 185.237 178.554 173.967C179.124 162.697 181.666 143.462 191.385 131.956C201.104 120.449 211.747 119.399 225.157 129.86C236.333 138.577 243.303 142.976 247.391 143.793C248.404 143.996 248.92 145.138 248.427 146.046C245.806 150.875 238.392 161.967 225.944 161.185C210.067 160.189 190.825 149.868 184.96 158.478C179.095 167.088 179.849 171.905 179.668 175.986C179.488 180.066 179.086 193.527 171.672 197.437L171.673 197.438Z" fill="url(#paint2_linear_1105_16600)"/>
<path opacity="0.5" d="M220.653 143.676C215.79 139.013 207.868 134.431 200.944 135.285C191.936 136.736 185.936 142.751 182.663 151.706C181.383 155.508 180.857 157.538 180.1 162.198C180.04 162.57 180.589 162.681 180.68 162.317C181.231 160.128 181.775 157.836 182.592 155.465C187.339 140.171 197.474 138.111 197.869 137.798C198.635 137.873 203.28 134.396 214.302 140.327C216.361 141.447 218.364 142.726 220.245 144.137L220.255 144.145C220.391 144.246 220.585 144.219 220.686 144.083C220.781 143.957 220.764 143.781 220.653 143.675V143.676Z" fill="white"/>
<path d="M22.5537 189.35L28.5705 199.347C30.5862 202.695 34.5038 204.396 38.3266 203.582L47.3873 201.654C49.8376 201.132 52.3723 201.866 54.2046 203.574C58.8149 207.873 63.8581 211.576 69.2142 214.655C71.389 215.906 72.8398 218.114 73.0614 220.613L73.8802 229.849C74.2253 233.742 77.0024 236.988 80.7957 237.93L92.119 240.745C95.9123 241.688 99.8855 240.12 102.013 236.841L107.062 229.063C108.427 226.958 110.743 225.686 113.251 225.599C119.426 225.385 125.615 224.474 131.701 222.835C134.121 222.183 136.703 222.721 138.625 224.329L145.728 230.275C148.725 232.784 152.983 233.115 156.333 231.099L166.329 225.082C169.678 223.067 171.379 219.149 170.565 215.326L168.636 206.266C168.115 203.815 168.849 201.281 170.557 199.448C174.856 194.838 178.558 189.795 181.638 184.439C182.889 182.263 185.097 180.813 187.597 180.591L196.833 179.773C200.726 179.428 203.972 176.65 204.914 172.857L207.729 161.534C208.672 157.741 207.104 153.767 203.826 151.64L196.047 146.591C193.943 145.226 192.67 142.91 192.584 140.402C192.37 134.227 191.459 128.038 189.82 121.951C189.168 119.532 189.706 116.949 191.314 115.029L197.261 107.926C199.769 104.929 200.1 100.67 198.085 97.3221L192.067 87.3244C190.051 83.9761 186.134 82.2751 182.312 83.0887L173.251 85.0175C170.801 85.539 168.266 84.8045 166.434 83.0965C161.823 78.7982 156.78 75.0953 151.424 72.0157C149.249 70.7649 147.799 68.5571 147.577 66.0581L146.758 56.8218C146.413 52.9285 143.636 49.6837 139.843 48.7406L128.519 45.9261C124.726 44.983 120.753 46.5511 118.625 49.8298L113.577 57.6084C112.211 59.7128 109.895 60.9853 107.388 61.0714C101.213 61.2852 95.0231 62.1961 88.9368 63.8355C86.5178 64.4874 83.9345 63.9494 82.0135 62.3413L74.9102 56.395C71.9132 53.8864 67.6549 53.5552 64.3058 55.571L54.308 61.5877C50.9598 63.6034 49.2579 67.521 50.0723 71.3438L52.0011 80.4045C52.5226 82.8548 51.7882 85.3895 50.0801 87.2218C45.7819 91.8321 42.079 96.8753 38.9993 102.231C37.7485 104.406 35.5407 105.857 33.0417 106.079L23.8054 106.897C19.9122 107.243 16.6665 110.02 15.7234 113.813L12.9089 125.136C11.9658 128.929 13.5339 132.902 16.8126 135.03L24.5912 140.078C26.6964 141.444 27.9681 143.759 28.055 146.267C28.2689 152.442 29.1798 158.632 30.8191 164.718C31.4711 167.137 30.933 169.72 29.3249 171.641L23.3786 178.744C20.8701 181.741 20.5389 186 22.5546 189.349L22.5537 189.35ZM48.9093 172.309C32.9079 138.394 47.4299 97.9288 81.3451 81.9265C115.26 65.9251 155.726 80.4471 171.727 114.362C187.729 148.277 173.207 188.743 139.291 204.744C105.376 220.746 64.9107 206.224 48.9093 172.309Z" fill="url(#paint3_linear_1105_16600)"/>
<path d="M145.992 126.78C139.257 125.333 116.285 121.087 92.2321 124.531C84.1758 125.684 77.0445 130.365 72.6965 137.244C64.8626 149.64 53.7812 171.736 56.1246 194.782L68.4205 197.823C68.4205 197.823 76.9184 170.481 86.482 159.352C86.482 159.352 97.8084 185.17 97.2359 199.348C97.2197 199.749 97.1938 200.14 97.1582 200.521C95.8588 214.392 151.53 203.109 151.53 203.109L148.062 129.225C148.006 128.034 147.157 127.031 145.992 126.781V126.78Z" fill="url(#paint4_linear_1105_16600)"/>
<path d="M126.838 102.834L128.457 122.029C128.608 123.814 127.687 125.485 126.153 126.2C122.621 127.847 115.837 130.21 108.582 128.475C107.254 128.158 106.389 126.771 106.608 125.355L113 95.5L126.838 102.834Z" fill="url(#paint5_linear_1105_16600)"/>
<path d="M103.5 77C103.5 77 101.583 91.7529 102.307 98.775C103.032 105.797 102.253 110.553 110.525 110.669C118.797 110.785 124.936 105.693 127.501 98.1725C127.501 98.1725 131.549 86.5696 129.559 82.4011C127.569 78.2318 105.238 77.5696 105.238 77.5696L103.5 77Z" fill="url(#paint6_linear_1105_16600)"/>
<path d="M123.953 93.6273L122.936 93.7898C122.936 93.7898 125.754 84.5213 121.83 83.5995C117.906 82.6777 102.475 83.1747 98.4994 78.5C94.6673 73.9943 96.7092 65.9731 100.47 63.5221C100.708 63.3669 101.03 63.4396 101.2 63.6661L101.637 64.2475C101.936 64.6453 102.568 64.4771 102.629 63.983C102.687 63.514 103.275 63.32 103.585 63.6766C104.796 65.0706 107.808 67.1715 115.012 67.3453C125.234 67.5911 132.442 70.5612 133.699 77.3981C133.779 77.8316 134.282 77.9965 134.617 77.7111C135.278 77.1475 136.418 76.7504 138.196 77.8178C141.289 79.6752 141.124 85.8006 135.928 91.6477C135.682 91.9259 135.754 92.369 136.094 92.5194C137.29 93.0515 139.173 94.4723 135.345 97.3785C131.429 100.351 128.856 100.506 127.861 100.415C127.593 100.39 127.383 100.184 127.356 99.9159L126.76 93.7744C126.729 93.4566 126.437 93.231 126.122 93.2812L123.953 93.6273Z" fill="url(#paint7_linear_1105_16600)"/>
<path d="M123.906 94.9396C123.906 94.9396 124.755 86.1167 128.933 87.8852C133.11 89.6536 128.478 97.6914 125.476 98.496L123.906 94.9396Z" fill="url(#paint8_linear_1105_16600)"/>
<path d="M147.801 181.063C149.002 172.585 140.223 160.125 136.591 155.396C135.552 154.043 134.972 152.389 134.957 150.684C134.851 138.678 138.915 132.407 146.993 127.229C146.993 127.229 177.285 159.943 169.82 186.213C169.015 189.048 167.766 191.484 166.184 193.577C165.007 183.678 153.567 181.519 147.801 181.062V181.063Z" fill="url(#paint9_linear_1105_16600)"/>
<path d="M147.253 177.784L148.37 177.656C147.423 169.343 140.129 159.08 137.036 155.054L136.145 155.739C139.18 159.691 146.338 169.75 147.253 177.784Z" fill="#0A34A9"/>
<path d="M147.571 182.237C147.674 181.856 147.745 181.463 147.801 181.063C153.567 181.52 165.008 183.679 166.184 193.577C153.102 210.88 117.042 204.637 117.042 204.637V197.904C117.042 197.904 144.736 192.759 147.571 182.236V182.237Z" fill="url(#paint10_linear_1105_16600)"/>
<path d="M120.508 202.779C120.508 202.779 115.184 190.215 105.802 194.671C96.4207 199.128 97.1581 202.044 97.1581 202.044L120.508 202.778V202.779Z" fill="url(#paint11_linear_1105_16600)"/>
<path d="M121.704 205.386C121.629 206.337 120.819 207.06 119.866 207.026L71.2518 205.331C70.4966 205.304 69.84 204.804 69.6144 204.082L68.2033 199.567C67.8564 198.457 68.6481 197.319 69.8084 197.257L87.5367 196.315C87.6977 196.306 87.8594 196.32 88.0163 196.355L120.314 203.508C121.18 203.7 121.773 204.501 121.704 205.386Z" fill="#1246D6"/>
<path d="M89.117 203.612L87.7796 197.378L69.5693 198.247L70.7677 203.419L89.117 203.612Z" fill="url(#paint12_linear_1105_16600)"/>
<path d="M98.4529 136.369C99.4838 144.79 104.12 179.005 105.447 188.781C105.633 190.155 104.541 191.365 103.154 191.325L24.5049 189.075C23.4755 189.046 22.5981 188.321 22.3749 187.315L10.1404 132.217C9.817 130.761 10.9766 129.399 12.4661 129.486L96.3529 134.399C97.4372 134.462 98.3202 135.29 98.452 136.369H98.4529Z" fill="#0736BA"/>
<path d="M66.8385 171.073L78.4625 204.064L51.4342 204.637L49.1838 171.27C49.0779 169.704 50.3765 168.404 51.9428 168.508L64.5655 169.346C65.6005 169.415 66.4948 170.093 66.8393 171.072L66.8385 171.073Z" fill="url(#paint13_linear_1105_16600)"/>
<path d="M89.4208 204.534C89.7184 205.442 89.0424 206.375 88.0866 206.375H45.7583C44.9828 206.375 44.3545 205.747 44.3545 204.972V203.156C44.3545 202.357 45.02 201.719 45.8181 201.754L88.1464 203.57C88.7302 203.595 89.2381 203.979 89.42 204.534H89.4208Z" fill="#1246D6"/>
<path d="M110.09 106.796C119.841 107.754 125.744 97.7816 125.803 97.6806L125.157 97.3057C125.101 97.4022 119.432 106.962 110.163 106.053L110.09 106.796L110.09 106.796Z" fill="url(#paint14_linear_1105_16600)"/>
<path d="M107.518 105.911L107.58 105.593C107.69 105.027 108.24 104.656 108.806 104.767L110.704 105.136C111.27 105.246 111.641 105.795 111.531 106.362L111.469 106.68C111.358 107.246 110.809 107.617 110.242 107.507L108.345 107.137C107.779 107.027 107.408 106.478 107.518 105.911Z" fill="url(#paint15_linear_1105_16600)"/>
<mask id="mask0_1105_16600" style="mask-type:luminance" maskUnits="userSpaceOnUse" x="107" y="104" width="5" height="4">
<path d="M107.518 105.911L107.58 105.593C107.69 105.027 108.24 104.656 108.806 104.767L110.704 105.136C111.27 105.246 111.641 105.795 111.531 106.362L111.469 106.68C111.358 107.246 110.809 107.617 110.242 107.507L108.345 107.137C107.779 107.027 107.408 106.478 107.518 105.911Z" fill="white"/>
</mask>
<g mask="url(#mask0_1105_16600)">
<path d="M111.273 106.847L110.969 108.085L111.03 108.096L111.273 106.847Z" fill="url(#paint16_linear_1105_16600)"/>
<path d="M111.519 105.307L110.867 108.46L110.895 108.464L111.439 106.88L111.737 105.349L111.519 105.307Z" fill="url(#paint17_linear_1105_16600)"/>
<path d="M111.493 105.301L110.84 108.454L110.867 108.46L111.52 105.307L111.493 105.301Z" fill="#1246D6"/>
<path d="M111.465 105.296L110.813 108.449L110.84 108.454L111.492 105.301L111.465 105.296Z" fill="#1246D6"/>
<path d="M111.438 105.29L110.786 108.443L110.814 108.449L111.465 105.296L111.438 105.29Z" fill="#1246D6"/>
<path d="M111.412 105.285L110.759 108.438L110.786 108.443L111.439 105.29L111.412 105.285Z" fill="#1246D6"/>
<path d="M111.382 105.28L110.73 108.432L110.758 108.438L111.41 105.285L111.382 105.28Z" fill="#1246D6"/>
<path d="M111.356 105.275L110.704 108.427L110.731 108.432L111.383 105.279L111.356 105.275Z" fill="#1246D6"/>
<path d="M111.329 105.269L110.676 108.422L110.703 108.427L111.356 105.275L111.329 105.269Z" fill="#1246D6"/>
<path d="M111.301 105.264L110.649 108.417L110.677 108.422L111.329 105.269L111.301 105.264Z" fill="#1246D6"/>
<path d="M111.273 105.258L110.621 108.411L110.648 108.417L111.3 105.264L111.273 105.258Z" fill="#1246D6"/>
<path d="M111.247 105.253L110.594 108.406L110.621 108.411L111.274 105.258L111.247 105.253Z" fill="#1246D6"/>
<path d="M111.219 105.247L110.567 108.4L110.595 108.406L111.247 105.253L111.219 105.247Z" fill="#1246D6"/>
<path d="M111.192 105.243L110.539 108.395L110.567 108.401L111.219 105.248L111.192 105.243Z" fill="#1246D6"/>
<path d="M111.165 105.237L110.513 108.39L110.54 108.395L111.193 105.243L111.165 105.237Z" fill="#1246D6"/>
<path d="M111.136 105.232L110.484 108.385L110.512 108.39L111.163 105.238L111.136 105.232Z" fill="#1246D6"/>
<path d="M111.11 105.226L110.458 108.379L110.485 108.385L111.137 105.232L111.11 105.226Z" fill="#1246D6"/>
<path d="M111.082 105.221L110.43 108.374L110.457 108.38L111.11 105.227L111.082 105.221Z" fill="#1246D6"/>
<path d="M111.055 105.216L110.403 108.369L110.431 108.374L111.082 105.221L111.055 105.216Z" fill="#1246D6"/>
<path d="M111.029 105.21L110.377 108.363L110.404 108.368L111.056 105.215L111.029 105.21Z" fill="#1246D6"/>
<path d="M111 105.206L110.348 108.358L110.375 108.363L111.027 105.21L111 105.206Z" fill="#1246D6"/>
<path d="M110.973 105.2L110.321 108.353L110.349 108.358L111 105.206L110.973 105.2Z" fill="#1246D6"/>
<path d="M110.946 105.195L110.294 108.348L110.321 108.353L110.973 105.2L110.946 105.195Z" fill="#1246D6"/>
<path d="M110.918 105.189L110.266 108.342L110.294 108.348L110.946 105.195L110.918 105.189Z" fill="#1246D6"/>
<path d="M110.89 105.184L110.238 108.337L110.265 108.342L110.917 105.189L110.89 105.184Z" fill="#1246D6"/>
<path d="M110.864 105.178L110.211 108.331L110.239 108.337L110.891 105.184L110.864 105.178Z" fill="#1246D6"/>
<path d="M110.836 105.174L110.184 108.326L110.212 108.331L110.864 105.178L110.836 105.174Z" fill="#1246D6"/>
<path d="M110.809 105.168L110.157 108.321L110.184 108.326L110.836 105.174L110.809 105.168Z" fill="#1246D6"/>
<path d="M110.783 105.163L110.13 108.316L110.158 108.321L110.81 105.168L110.783 105.163Z" fill="#1246D6"/>
<path d="M110.754 105.157L110.102 108.31L110.13 108.316L110.782 105.163L110.754 105.157Z" fill="#1246D6"/>
<path d="M110.727 105.152L110.075 108.305L110.102 108.31L110.754 105.157L110.727 105.152Z" fill="#1246D6"/>
<path d="M110.699 105.146L110.047 108.299L110.075 108.305L110.727 105.152L110.699 105.146Z" fill="#1246D6"/>
<path d="M110.672 105.142L110.02 108.294L110.048 108.299L110.699 105.146L110.672 105.142Z" fill="#1246D6"/>
<path d="M110.645 105.136L109.993 108.289L110.02 108.294L110.672 105.142L110.645 105.136Z" fill="#1246D6"/>
<path d="M110.617 105.131L109.964 108.284L109.992 108.289L110.645 105.136L110.617 105.131Z" fill="#1246D6"/>
<path d="M110.59 105.125L109.938 108.278L109.965 108.284L110.617 105.131L110.59 105.125Z" fill="#1246D6"/>
<path d="M110.563 105.12L109.911 108.273L109.938 108.278L110.59 105.125L110.563 105.12Z" fill="#1246D6"/>
<path d="M110.536 105.114L109.883 108.267L109.911 108.273L110.564 105.12L110.536 105.114Z" fill="#1246D6"/>
<path d="M110.507 105.109L109.855 108.262L109.882 108.268L110.534 105.115L110.507 105.109Z" fill="#1246D6"/>
<path d="M110.481 105.104L109.829 108.256L109.856 108.262L110.508 105.109L110.481 105.104Z" fill="#1246D6"/>
<path d="M110.453 105.099L109.8 108.252L109.828 108.257L110.481 105.104L110.453 105.099Z" fill="#1246D6"/>
<path d="M110.426 105.093L109.774 108.246L109.801 108.252L110.453 105.099L110.426 105.093Z" fill="#1246D6"/>
<path d="M110.399 105.088L109.747 108.241L109.774 108.246L110.426 105.093L110.399 105.088Z" fill="#1246D6"/>
<path d="M110.372 105.082L109.719 108.235L109.747 108.241L110.399 105.088L110.372 105.082Z" fill="#1246D6"/>
<path d="M110.344 105.077L109.692 108.23L109.719 108.235L110.371 105.082L110.344 105.077Z" fill="#1246D6"/>
<path d="M110.316 105.072L109.664 108.224L109.692 108.23L110.344 105.077L110.316 105.072Z" fill="#1246D6"/>
<path d="M110.29 105.067L109.637 108.22L109.665 108.224L110.317 105.072L110.29 105.067Z" fill="#1246D6"/>
<path d="M110.262 105.061L109.61 108.214L109.637 108.22L110.289 105.067L110.262 105.061Z" fill="#1246D6"/>
<path d="M110.234 105.056L109.583 108.209L109.61 108.214L110.262 105.061L110.234 105.056Z" fill="#1246D6"/>
<path d="M110.208 105.051L109.555 108.203L109.583 108.209L110.235 105.056L110.208 105.051Z" fill="#1246D6"/>
<path d="M110.18 105.045L109.528 108.198L109.555 108.204L110.207 105.051L110.18 105.045Z" fill="#1246D6"/>
<path d="M110.153 105.04L109.501 108.193L109.528 108.198L110.181 105.045L110.153 105.04Z" fill="#1246D6"/>
<path d="M110.126 105.035L109.473 108.188L109.5 108.193L110.152 105.04L110.126 105.035Z" fill="#1246D6"/>
<path d="M110.098 105.029L109.446 108.182L109.473 108.188L110.125 105.035L110.098 105.029Z" fill="#1246D6"/>
<path d="M110.07 105.024L109.418 108.177L109.445 108.183L110.098 105.03L110.07 105.024Z" fill="#1246D6"/>
<path d="M110.043 105.019L109.391 108.172L109.418 108.177L110.071 105.024L110.043 105.019Z" fill="#1246D6"/>
<path d="M110.016 105.013L109.364 108.166L109.391 108.172L110.043 105.019L110.016 105.013Z" fill="#1246D6"/>
<path d="M109.989 105.008L109.336 108.161L109.364 108.166L110.017 105.013L109.989 105.008Z" fill="#1246D6"/>
<path d="M109.961 105.003L109.309 108.155L109.336 108.161L109.988 105.008L109.961 105.003Z" fill="#1246D6"/>
<path d="M109.933 104.998L109.282 108.151L109.309 108.155L109.961 105.003L109.933 104.998Z" fill="#1246D6"/>
<path d="M109.907 104.992L109.254 108.145L109.282 108.151L109.934 104.998L109.907 104.992Z" fill="#1246D6"/>
<path d="M109.879 104.987L109.227 108.14L109.254 108.145L109.907 104.992L109.879 104.987Z" fill="#1246D6"/>
<path d="M109.851 104.981L109.2 108.134L109.227 108.14L109.879 104.987L109.851 104.981Z" fill="#1246D6"/>
<path d="M109.824 104.976L109.171 108.129L109.199 108.134L109.851 104.981L109.824 104.976Z" fill="#1246D6"/>
<path d="M109.797 104.971L109.145 108.123L109.172 108.129L109.824 104.976L109.797 104.971Z" fill="#1246D6"/>
<path d="M109.77 104.966L109.118 108.119L109.145 108.123L109.798 104.971L109.77 104.966Z" fill="#1246D6"/>
<path d="M109.743 104.96L109.09 108.113L109.117 108.119L109.77 104.966L109.743 104.96Z" fill="#1246D6"/>
<path d="M109.715 104.955L109.063 108.108L109.09 108.113L109.742 104.96L109.715 104.955Z" fill="#1246D6"/>
<path d="M109.687 104.949L109.035 108.102L109.063 108.108L109.715 104.955L109.687 104.949Z" fill="#1246D6"/>
<path d="M109.661 104.944L109.008 108.097L109.035 108.102L109.688 104.949L109.661 104.944Z" fill="#1246D6"/>
<path d="M109.633 104.938L108.981 108.091L109.008 108.097L109.66 104.944L109.633 104.938Z" fill="#1246D6"/>
<path d="M109.606 104.934L108.954 108.086L108.981 108.091L109.634 104.938L109.606 104.934Z" fill="#1246D6"/>
<path d="M109.578 104.928L108.925 108.081L108.952 108.086L109.605 104.934L109.578 104.928Z" fill="#1246D6"/>
<path d="M109.551 104.923L108.899 108.076L108.926 108.081L109.578 104.928L109.551 104.923Z" fill="#1246D6"/>
<path d="M109.524 104.917L108.872 108.07L108.9 108.076L109.552 104.923L109.524 104.917Z" fill="#1246D6"/>
<path d="M109.497 104.912L108.844 108.065L108.871 108.07L109.524 104.917L109.497 104.912Z" fill="#1246D6"/>
<path d="M109.468 104.907L108.817 108.059L108.844 108.065L109.496 104.912L109.468 104.907Z" fill="#1246D6"/>
<path d="M109.441 104.902L108.789 108.054L108.816 108.06L109.468 104.907L109.441 104.902Z" fill="#1246D6"/>
<path d="M109.415 104.896L108.762 108.049L108.789 108.054L109.442 104.902L109.415 104.896Z" fill="#1246D6"/>
<path d="M109.386 104.891L108.734 108.044L108.762 108.05L109.414 104.897L109.386 104.891Z" fill="#1246D6"/>
<path d="M109.36 104.886L108.708 108.039L108.735 108.044L109.387 104.891L109.36 104.886Z" fill="#1246D6"/>
<path d="M109.333 104.88L108.68 108.033L108.707 108.038L109.36 104.885L109.333 104.88Z" fill="#1246D6"/>
<path d="M109.304 104.875L108.652 108.028L108.68 108.033L109.332 104.88L109.304 104.875Z" fill="#1246D6"/>
<path d="M109.278 104.869L108.626 108.022L108.653 108.028L109.305 104.875L109.278 104.869Z" fill="#1246D6"/>
<path d="M109.251 104.864L108.598 108.017L108.625 108.022L109.277 104.869L109.251 104.864Z" fill="#1246D6"/>
<path d="M109.222 104.859L108.57 108.012L108.598 108.017L109.25 104.864L109.222 104.859Z" fill="#1246D6"/>
<path d="M109.195 104.854L108.543 108.007L108.57 108.012L109.222 104.859L109.195 104.854Z" fill="#1246D6"/>
<path d="M109.168 104.848L108.516 108.001L108.543 108.007L109.196 104.854L109.168 104.848Z" fill="#1246D6"/>
<path d="M109.141 104.843L108.489 107.996L108.517 108.001L109.168 104.848L109.141 104.843Z" fill="#1246D6"/>
<path d="M109.114 104.837L108.461 107.99L108.489 107.996L109.141 104.843L109.114 104.837Z" fill="#1246D6"/>
<path d="M109.087 104.833L108.435 107.985L108.462 107.99L109.114 104.837L109.087 104.833Z" fill="#1246D6"/>
<path d="M109.059 104.827L108.407 107.98L108.435 107.985L109.086 104.833L109.059 104.827Z" fill="#1246D6"/>
<path d="M109.032 104.822L108.379 107.975L108.407 107.98L109.059 104.827L109.032 104.822Z" fill="#1246D6"/>
<path d="M109.004 104.816L108.352 107.969L108.379 107.975L109.032 104.822L109.004 104.816Z" fill="#1246D6"/>
<path d="M108.977 104.811L108.325 107.964L108.353 107.969L109.004 104.816L108.977 104.811Z" fill="#1246D6"/>
<path d="M108.949 104.805L108.296 107.958L108.324 107.964L108.976 104.811L108.949 104.805Z" fill="#1246D6"/>
<path d="M108.921 104.801L108.269 107.953L108.297 107.958L108.949 104.805L108.921 104.801Z" fill="#1246D6"/>
<path d="M108.895 104.795L108.243 107.948L108.27 107.953L108.922 104.801L108.895 104.795Z" fill="#1246D6"/>
<path d="M108.868 104.79L108.215 107.943L108.242 107.948L108.895 104.795L108.868 104.79Z" fill="#1246D6"/>
<path d="M108.839 104.784L108.187 107.937L108.215 107.943L108.867 104.79L108.839 104.784Z" fill="#1246D6"/>
<path d="M108.812 104.779L108.16 107.932L108.187 107.937L108.839 104.784L108.812 104.779Z" fill="#1246D6"/>
<path d="M108.785 104.773L108.133 107.926L108.16 107.932L108.813 104.779L108.785 104.773Z" fill="#1246D6"/>
<path d="M108.757 104.768L108.105 107.921L108.133 107.926L108.784 104.774L108.757 104.768Z" fill="#1246D6"/>
<path d="M108.731 104.763L108.079 107.915L108.106 107.921L108.758 104.768L108.731 104.763Z" fill="#1246D6"/>
<path d="M108.704 104.758L108.051 107.911L108.079 107.915L108.732 104.763L108.704 104.758Z" fill="#1246D6"/>
<path d="M108.675 104.752L108.023 107.905L108.05 107.911L108.702 104.758L108.675 104.752Z" fill="#1246D6"/>
<path d="M108.649 104.747L107.997 107.9L108.024 107.905L108.676 104.752L108.649 104.747Z" fill="#1246D6"/>
<path d="M108.621 104.742L107.968 107.895L107.996 107.9L108.649 104.747L108.621 104.742Z" fill="#1246D6"/>
<path d="M108.593 104.736L107.941 107.889L107.968 107.895L108.62 104.742L108.593 104.736Z" fill="#1246D6"/>
<path d="M108.567 104.731L107.914 107.884L107.942 107.889L108.594 104.736L108.567 104.731Z" fill="#1246D6"/>
<path d="M108.539 104.726L107.886 107.879L107.914 107.884L108.566 104.731L108.539 104.726Z" fill="#1246D6"/>
<path d="M108.512 104.72L107.86 107.873L107.887 107.879L108.539 104.726L108.512 104.72Z" fill="#1246D6"/>
<path d="M108.485 104.715L107.833 107.868L107.86 107.873L108.512 104.72L108.485 104.715Z" fill="#1246D6"/>
<path d="M108.458 104.71L107.805 107.863L107.833 107.868L108.485 104.715L108.458 104.71Z" fill="#1246D6"/>
<path d="M108.43 104.704L107.778 107.857L107.805 107.863L108.457 104.71L108.43 104.704Z" fill="#1246D6"/>
<path d="M108.403 104.699L107.75 107.852L107.778 107.857L108.43 104.704L108.403 104.699Z" fill="#1246D6"/>
<path d="M108.375 104.694L107.722 107.847L107.75 107.852L108.402 104.699L108.375 104.694Z" fill="#1246D6"/>
<path d="M108.348 104.689L107.696 107.842L107.723 107.847L108.375 104.694L108.348 104.689Z" fill="#1246D6"/>
<path d="M108.32 104.683L107.669 107.836L107.696 107.842L108.348 104.689L108.32 104.683Z" fill="#1246D6"/>
<path d="M108.293 104.678L107.64 107.831L107.668 107.836L108.32 104.683L108.293 104.678Z" fill="#1246D6"/>
<path d="M108.266 104.672L107.614 107.825L107.641 107.831L108.293 104.678L108.266 104.672Z" fill="#1246D6"/>
<path d="M108.238 104.667L107.586 107.82L107.613 107.825L108.266 104.672L108.238 104.667Z" fill="#1246D6"/>
<path d="M108.211 104.662L107.559 107.814L107.586 107.82L108.238 104.667L108.211 104.662Z" fill="#1246D6"/>
<path d="M108.184 104.657L107.532 107.81L107.559 107.814L108.211 104.662L108.184 104.657Z" fill="#1246D6"/>
<path d="M108.156 104.651L107.503 107.804L107.531 107.81L108.184 104.657L108.156 104.651Z" fill="#1246D6"/>
<path d="M108.128 104.646L107.476 107.799L107.503 107.804L108.156 104.651L108.128 104.646Z" fill="#1246D6"/>
<path d="M108.102 104.64L107.45 107.793L107.477 107.799L108.129 104.646L108.102 104.64Z" fill="#1246D6"/>
<path d="M108.075 104.635L107.422 107.788L107.45 107.793L108.103 104.64L108.075 104.635Z" fill="#1246D6"/>
<path d="M108.047 104.63L107.395 107.782L107.422 107.788L108.074 104.635L108.047 104.63Z" fill="#1246D6"/>
<path d="M108.02 104.625L107.368 107.778L107.395 107.782L108.047 104.63L108.02 104.625Z" fill="#1246D6"/>
<path d="M107.992 104.619L107.339 107.772L107.367 107.778L108.02 104.625L107.992 104.619Z" fill="#1246D6"/>
<path d="M107.965 104.614L107.313 107.767L107.34 107.772L107.992 104.619L107.965 104.614Z" fill="#1246D6"/>
<path d="M107.937 104.608L107.286 107.761L107.313 107.767L107.965 104.614L107.937 104.608Z" fill="#1246D6"/>
<path d="M107.91 104.603L107.257 107.756L107.285 107.761L107.937 104.608L107.91 104.603Z" fill="#1246D6"/>
<path d="M107.882 104.598L107.23 107.751L107.257 107.756L107.909 104.603L107.882 104.598Z" fill="#1246D6"/>
<path d="M107.855 104.593L107.204 107.746L107.231 107.75L107.883 104.597L107.855 104.593Z" fill="#1246D6"/>
<path d="M107.829 104.587L107.176 107.74L107.204 107.746L107.856 104.593L107.829 104.587Z" fill="#1246D6"/>
<path d="M107.801 104.582L107.149 107.735L107.176 107.74L107.828 104.587L107.801 104.582Z" fill="#1246D6"/>
<path d="M107.773 104.577L107.121 107.729L107.149 107.735L107.801 104.582L107.773 104.577Z" fill="#1246D6"/>
<path d="M107.746 104.571L107.093 107.724L107.12 107.73L107.773 104.577L107.746 104.571Z" fill="#1246D6"/>
<path d="M107.719 104.566L107.067 107.719L107.094 107.724L107.746 104.571L107.719 104.566Z" fill="#1246D6"/>
<path d="M107.691 104.561L107.039 107.713L107.066 107.719L107.719 104.566L107.691 104.561Z" fill="#1246D6"/>
<path d="M107.664 104.555L107.011 107.708L107.038 107.713L107.691 104.561L107.664 104.555Z" fill="#1246D6"/>
<path d="M107.636 104.55L106.984 107.703L107.011 107.709L107.663 104.556L107.636 104.55Z" fill="#1246D6"/>
<path d="M107.609 104.545L106.957 107.698L106.984 107.703L107.637 104.55L107.609 104.545Z" fill="#1246D6"/>
<path d="M107.583 104.539L106.93 107.692L106.957 107.698L107.61 104.545L107.583 104.539Z" fill="#1246D6"/>
<path d="M107.554 104.534L106.903 107.687L106.93 107.692L107.582 104.539L107.554 104.534Z" fill="#1246D6"/>
<path d="M107.527 104.528L106.875 107.681L106.902 107.687L107.554 104.534L107.527 104.528Z" fill="#1246D6"/>
<path d="M107.5 104.524L106.847 107.677L106.874 107.681L107.526 104.528L107.5 104.524Z" fill="#1246D6"/>
<path d="M107.472 104.518L106.821 107.671L106.848 107.677L107.5 104.524L107.472 104.518Z" fill="#1246D6"/>
<path d="M107.446 104.513L106.794 107.666L106.821 107.671L107.473 104.518L107.446 104.513Z" fill="#1246D6"/>
<path d="M107.418 104.507L106.766 107.66L106.793 107.666L107.446 104.513L107.418 104.507Z" fill="#1246D6"/>
<path d="M107.39 104.502L107.517 105.971L107.172 107.739L106.766 107.66L107.418 104.507L107.39 104.502Z" fill="url(#paint18_linear_1105_16600)"/>
<path d="M107.197 105.908L107.329 104.82L107.405 104.835L107.197 105.908Z" fill="url(#paint19_linear_1105_16600)"/>
</g>
<path d="M128.964 86.1636C128.964 86.1636 128.3 70.1779 119.021 66.8504C119.021 66.8504 121.928 66.1259 124.511 68.044C127.094 69.962 132.949 78.8351 131.282 87.0119C129.242 87.2747 128.964 86.1636 128.964 86.1636Z" fill="url(#paint20_linear_1105_16600)"/>
<path d="M130.762 85.5337C135.849 87.5723 133.977 94.1342 133.977 94.1342C133.471 99.0523 131.616 101.197 129.594 102.01C128.212 102.566 126.639 102.353 125.452 101.454C124.265 100.555 123.636 99.0984 123.795 97.6178C123.939 96.2803 124.057 95.0059 124.04 94.5426C124 93.4202 125.675 83.4952 130.762 85.5337Z" fill="url(#paint21_linear_1105_16600)"/>
<path d="M129.968 87.134C131.099 87.1437 132.074 87.9248 132.328 89.027C134.148 96.9191 129.4 100.967 127.479 100.719C125.454 100.457 127.26 90.814 128.139 88.4181C128.507 87.4137 129.24 87.1275 129.967 87.134H129.968Z" fill="url(#paint22_linear_1105_16600)"/>
<path d="M99.6074 171.332L100.233 171.253L96.3697 140.778C96.1279 138.871 94.56 137.404 92.6419 137.288L20.1503 132.909L20.1123 133.539L92.6039 137.917C94.2196 138.014 95.5393 139.251 95.7438 140.857L99.6074 171.331V171.332Z" fill="#91B3FA"/>
<path d="M101.336 179.933L100.71 180.012L101.541 186.61L102.167 186.531L101.336 179.933Z" fill="#91B3FA"/>
<path d="M74.6334 101.14C74.6334 101.14 2.39901 64.1973 25.4998 38.5C48.6014 12.8027 91.3183 27.4531 93.5 54.5C95.6817 81.5469 45.2091 72.8634 74.6334 101.14Z" fill="white"/>
<path d="M32 47C32 47.5528 32.3616 48 32.8086 48H68.1914C68.6375 48 69 47.5528 69 47C69 46.4472 68.6384 46 68.1914 46H32.8086C32.3625 46 32 46.4472 32 47Z" fill="#D1D5D7"/>
<path d="M73.5024 47.8898H82.7531C83.1461 47.8898 83.4655 47.5712 83.4655 47.1774C83.4655 46.7836 83.1469 46.465 82.7531 46.465H73.5024C73.1095 46.465 72.79 46.7836 72.79 47.1774C72.79 47.5712 73.1086 47.8898 73.5024 47.8898Z" fill="#D1D5D7"/>
<path d="M31.3086 53.4887C31.3086 53.8825 31.6272 54.2011 32.021 54.2011H43.7266C44.1196 54.2011 44.439 53.8825 44.439 53.4887C44.439 53.0949 44.1205 52.7763 43.7266 52.7763H32.021C31.628 52.7763 31.3086 53.0949 31.3086 53.4887Z" fill="#D1D5D7"/>
<path d="M54 53.5C54 53.7764 54.4014 54 54.8975 54H81.1025C81.5976 54 82 53.7764 82 53.5C82 53.2236 81.5986 53 81.1025 53H54.8975C54.4024 53 54 53.2236 54 53.5Z" fill="#D1D5D7"/>
<path d="M30.9702 60.5132H62.0877C62.4807 60.5132 62.8001 60.1946 62.8001 59.8008C62.8001 59.407 62.4815 59.0884 62.0877 59.0884H30.9702C30.5772 59.0884 30.2578 59.407 30.2578 59.8008C30.2578 60.1946 30.5764 60.5132 30.9702 60.5132Z" fill="#D1D5D7"/>
<path d="M66.8761 61H80.1239C80.6072 61 81 60.5528 81 60C81 59.4472 80.6082 59 80.1239 59H66.8761C66.3928 59 66 59.4472 66 60C66 60.5528 66.3918 61 66.8761 61Z" fill="#D1D5D7"/>
</g>
<defs>
<linearGradient id="paint0_linear_1105_16600" x1="192.5" y1="212.5" x2="69" y2="-1.49998" gradientUnits="userSpaceOnUse">
<stop stop-color="#F1E3FF"/>
<stop offset="1" stop-color="#E0E7FD"/>
</linearGradient>
<linearGradient id="paint1_linear_1105_16600" x1="203.014" y1="9.08398" x2="203.014" y2="135.913" gradientUnits="userSpaceOnUse">
<stop stop-color="#E0D5FC"/>
<stop offset="1" stop-color="#B296FF"/>
</linearGradient>
<linearGradient id="paint2_linear_1105_16600" x1="210.087" y1="122.628" x2="210.087" y2="197.458" gradientUnits="userSpaceOnUse">
<stop stop-color="#E0D5FC"/>
<stop offset="1" stop-color="#B296FF"/>
</linearGradient>
<linearGradient id="paint3_linear_1105_16600" x1="197.531" y1="62.7829" x2="-45.3322" y2="287.1" gradientUnits="userSpaceOnUse">
<stop stop-color="#2B3582"/>
<stop offset="1" stop-color="#150E42"/>
</linearGradient>
<linearGradient id="paint4_linear_1105_16600" x1="70.5" y1="160.5" x2="123" y2="252.5" gradientUnits="userSpaceOnUse">
<stop stop-color="#386CFB"/>
<stop offset="1" stop-color="#0F3292"/>
</linearGradient>
<linearGradient id="paint5_linear_1105_16600" x1="125.896" y1="153.376" x2="114.539" y2="105.232" gradientUnits="userSpaceOnUse">
<stop stop-color="#FEBBBA"/>
<stop offset="1" stop-color="#FF928E"/>
</linearGradient>
<linearGradient id="paint6_linear_1105_16600" x1="124.179" y1="97.1955" x2="103.542" y2="91.793" gradientUnits="userSpaceOnUse">
<stop stop-color="#FEBBBA"/>
<stop offset="1" stop-color="#FFDDDC"/>
</linearGradient>
<linearGradient id="paint7_linear_1105_16600" x1="143.583" y1="106.961" x2="104.699" y2="61.1391" gradientUnits="userSpaceOnUse">
<stop stop-color="#C2178B"/>
<stop offset="1" stop-color="#E9605A"/>
</linearGradient>
<linearGradient id="paint8_linear_1105_16600" x1="125.36" y1="92.6838" x2="104.722" y2="87.2814" gradientUnits="userSpaceOnUse">
<stop stop-color="#FEBBBA"/>
<stop offset="1" stop-color="#FF928E"/>
</linearGradient>
<linearGradient id="paint9_linear_1105_16600" x1="-1300.8" y1="1663.76" x2="-1235.28" y2="1596.15" gradientUnits="userSpaceOnUse">
<stop stop-color="#3263EB"/>
<stop offset="1" stop-color="#1345D0"/>
</linearGradient>
<linearGradient id="paint10_linear_1105_16600" x1="150.883" y1="171.345" x2="129.514" y2="227.578" gradientUnits="userSpaceOnUse">
<stop stop-color="#FEBBBA"/>
<stop offset="1" stop-color="#FF928E"/>
</linearGradient>
<linearGradient id="paint11_linear_1105_16600" x1="124.37" y1="161.27" x2="103.001" y2="217.504" gradientUnits="userSpaceOnUse">
<stop stop-color="#FEBBBA"/>
<stop offset="1" stop-color="#FF928E"/>
</linearGradient>
<linearGradient id="paint12_linear_1105_16600" x1="69.7286" y1="188.105" x2="80.7882" y2="202.35" gradientUnits="userSpaceOnUse">
<stop stop-color="#4F52FF"/>
<stop offset="1" stop-color="#4042E2"/>
</linearGradient>
<linearGradient id="paint13_linear_1105_16600" x1="63.8201" y1="168.503" x2="63.8201" y2="204.637" gradientUnits="userSpaceOnUse">
<stop stop-color="#0736BA"/>
<stop offset="1" stop-color="#1C51E5"/>
</linearGradient>
<linearGradient id="paint14_linear_1105_16600" x1="125.893" y1="110.217" x2="113.376" y2="97.6328" gradientUnits="userSpaceOnUse">
<stop stop-color="#4F52FF"/>
<stop offset="1" stop-color="#4042E2"/>
</linearGradient>
<linearGradient id="paint15_linear_1105_16600" x1="107.532" y1="106.467" x2="111.501" y2="105.832" gradientUnits="userSpaceOnUse">
<stop stop-color="#4F52FF"/>
<stop offset="1" stop-color="#4042E2"/>
</linearGradient>
<linearGradient id="paint16_linear_1105_16600" x1="110.878" y1="107.515" x2="111.367" y2="107.437" gradientUnits="userSpaceOnUse">
<stop stop-color="#4F52FF"/>
<stop offset="1" stop-color="#4042E2"/>
</linearGradient>
<linearGradient id="paint17_linear_1105_16600" x1="110.63" y1="106.978" x2="111.963" y2="106.765" gradientUnits="userSpaceOnUse">
<stop stop-color="#4F52FF"/>
<stop offset="1" stop-color="#4042E2"/>
</linearGradient>
<linearGradient id="paint18_linear_1105_16600" x1="106.539" y1="106.24" x2="107.666" y2="106.059" gradientUnits="userSpaceOnUse">
<stop stop-color="#4F52FF"/>
<stop offset="1" stop-color="#4042E2"/>
</linearGradient>
<linearGradient id="paint19_linear_1105_16600" x1="107.113" y1="105.388" x2="107.484" y2="105.329" gradientUnits="userSpaceOnUse">
<stop stop-color="#4F52FF"/>
<stop offset="1" stop-color="#4042E2"/>
</linearGradient>
<linearGradient id="paint20_linear_1105_16600" x1="94.287" y1="58.8735" x2="186.011" y2="110.73" gradientUnits="userSpaceOnUse">
<stop stop-color="#4F52FF"/>
<stop offset="1" stop-color="#4042E2"/>
</linearGradient>
<linearGradient id="paint21_linear_1105_16600" x1="144.671" y1="66.4599" x2="137.278" y2="79.4666" gradientUnits="userSpaceOnUse">
<stop stop-color="#4F52FF"/>
<stop offset="1" stop-color="#4042E2"/>
</linearGradient>
<linearGradient id="paint22_linear_1105_16600" x1="128.888" y1="93.9515" x2="152.575" y2="73.6873" gradientUnits="userSpaceOnUse">
<stop stop-color="#4F52FF"/>
<stop offset="1" stop-color="#4042E2"/>
</linearGradient>
<clipPath id="clip0_1105_16600">
<rect width="246" height="246" fill="white"/>
</clipPath>
</defs>
</svg>
