<svg id="am-svg" viewBox="0 0 28 28" xmlns="http://www.w3.org/2000/svg">
    <path d="M21 4.66667H19.8333V3.5C19.8333 3.19058 19.7104 2.89384 19.4916 2.67504C19.2728 2.45625 18.9761 2.33334 18.6667 2.33334C18.3572 2.33334 18.0605 2.45625 17.8417 2.67504C17.6229 2.89384 17.5 3.19058 17.5 3.5V4.66667H10.5V3.5C10.5 3.19058 10.3771 2.89384 10.1583 2.67504C9.9395 2.45625 9.64275 2.33334 9.33333 2.33334C9.02391 2.33334 8.72717 2.45625 8.50838 2.67504C8.28958 2.89384 8.16667 3.19058 8.16667 3.5V4.66667H7C6.07174 4.66667 5.1815 5.03542 4.52513 5.6918C3.86875 6.34817 3.5 7.23841 3.5 8.16667V22.1667C3.5 23.0949 3.86875 23.9852 4.52513 24.6415C5.1815 25.2979 6.07174 25.6667 7 25.6667H21C21.9283 25.6667 22.8185 25.2979 23.4749 24.6415C24.1313 23.9852 24.5 23.0949 24.5 22.1667V8.16667C24.5 7.23841 24.1313 6.34817 23.4749 5.6918C22.8185 5.03542 21.9283 4.66667 21 4.66667ZM7 7H8.16667V8.16667C8.16667 8.47609 8.28958 8.77283 8.50838 8.99163C8.72717 9.21042 9.02391 9.33334 9.33333 9.33334C9.64275 9.33334 9.9395 9.21042 10.1583 8.99163C10.3771 8.77283 10.5 8.47609 10.5 8.16667V7H17.5V8.16667C17.5 8.47609 17.6229 8.77283 17.8417 8.99163C18.0605 9.21042 18.3572 9.33334 18.6667 9.33334C18.9761 9.33334 19.2728 9.21042 19.4916 8.99163C19.7104 8.77283 19.8333 8.47609 19.8333 8.16667V7H21C21.3094 7 21.6062 7.12292 21.825 7.34171C22.0438 7.5605 22.1667 7.85725 22.1667 8.16667V12.8333H5.83333V8.16667C5.83333 7.85725 5.95625 7.5605 6.17504 7.34171C6.39383 7.12292 6.69058 7 7 7ZM21 23.3333H7C6.69058 23.3333 6.39383 23.2104 6.17504 22.9916C5.95625 22.7728 5.83333 22.4761 5.83333 22.1667V15.1667H22.1667V22.1667C22.1667 22.4761 22.0438 22.7728 21.825 22.9916C21.6062 23.2104 21.3094 23.3333 21 23.3333Z"/>
    <path d="M9.33333 19.8333C9.97766 19.8333 10.5 19.311 10.5 18.6667C10.5 18.0223 9.97766 17.5 9.33333 17.5C8.689 17.5 8.16666 18.0223 8.16666 18.6667C8.16666 19.311 8.689 19.8333 9.33333 19.8333Z"/>
    <path d="M18.6667 17.5H14C13.6906 17.5 13.3938 17.6229 13.175 17.8417C12.9563 18.0605 12.8333 18.3572 12.8333 18.6667C12.8333 18.9761 12.9563 19.2728 13.175 19.4916C13.3938 19.7104 13.6906 19.8333 14 19.8333H18.6667C18.9761 19.8333 19.2728 19.7104 19.4916 19.4916C19.7104 19.2728 19.8333 18.9761 19.8333 18.6667C19.8333 18.3572 19.7104 18.0605 19.4916 17.8417C19.2728 17.6229 18.9761 17.5 18.6667 17.5Z"/>
</svg>
