<svg width="20" height="18" viewBox="0 0 20 18" fill="none" xmlns="http://www.w3.org/2000/svg">
<path d="M17.5 17.4999H2.5C1.84661 17.508 1.21666 17.2568 0.748098 16.8013C0.279533 16.3459 0.0105328 15.7233 0 15.0699V2.92994C0.0105328 2.27659 0.279533 1.65403 0.748098 1.19858C1.21666 0.743137 1.84661 0.491921 2.5 0.499942H7.1C7.24771 0.500919 7.39336 0.534605 7.5265 0.59858C7.65964 0.662555 7.77695 0.755229 7.87 0.869942L10.47 4.04994H17.47C17.796 4.04198 18.1204 4.09866 18.4244 4.21672C18.7285 4.33478 19.0061 4.51188 19.2413 4.7378C19.4765 4.96372 19.6647 5.23398 19.7949 5.53299C19.9251 5.83201 19.9948 6.15385 20 6.47994V15.0699C19.9895 15.7233 19.7205 16.3459 19.2519 16.8013C18.7833 17.2568 18.1534 17.508 17.5 17.4999Z" fill="#374352"/>
</svg>
