<svg width="24" height="24" viewBox="0 0 24 24" fill="none" xmlns="http://www.w3.org/2000/svg">
<path d="M6.94028 2C7.35614 2 7.69326 2.32421 7.69326 2.72414V4.18487C8.36117 4.17241 9.10983 4.17241 9.95219 4.17241H13.9681C14.8104 4.17241 15.5591 4.17241 16.227 4.18487V2.72414C16.227 2.32421 16.5641 2 16.98 2C17.3958 2 17.733 2.32421 17.733 2.72414V4.24894C19.178 4.36022 20.1267 4.63333 20.8236 5.30359C21.5206 5.97385 21.8046 6.88616 21.9203 8.27586L22 9H2.92456H2V8.27586C2.11571 6.88616 2.3997 5.97385 3.09665 5.30359C3.79361 4.63333 4.74226 4.36022 6.1873 4.24894V2.72414C6.1873 2.32421 6.52442 2 6.94028 2Z" fill="#265CF2"/>
<path opacity="0.5" d="M21.9995 14V12C21.9995 11.1609 21.9963 9.66514 21.9834 8.99988H2.00917C1.99626 9.66514 1.99953 11.1609 1.99953 12V14C1.99953 17.7712 1.99953 19.6568 3.1711 20.8284C4.34267 22 6.22829 22 9.99953 22H13.9995C17.7708 22 19.6564 22 20.828 20.8284C21.9995 19.6568 21.9995 17.7712 21.9995 14Z" fill="#265CF2"/>
<path d="M15.2417 17.3837C14.9235 17.4597 14.5915 17.5 14.25 17.5C11.9028 17.5 10 15.5972 10 13.25C10 13.0083 10.0202 12.7712 10.059 12.5405C10.0409 12.5579 10.0222 12.574 10.0025 12.5889C9.86217 12.6954 9.68743 12.735 9.33794 12.814L9.01977 12.886C7.78993 13.1643 7.17501 13.3034 7.02871 13.7739C6.88241 14.2443 7.30162 14.7345 8.14005 15.715L8.35696 15.9686C8.59521 16.2472 8.71434 16.3865 8.76793 16.5589C8.82152 16.7312 8.80351 16.9171 8.76749 17.2888L8.7347 17.6272C8.60794 18.9353 8.54456 19.5894 8.92757 19.8801C9.31059 20.1709 9.88634 19.9058 11.0378 19.3756L11.3357 19.2384C11.663 19.0878 11.8266 19.0124 12 19.0124C12.1734 19.0124 12.337 19.0878 12.6643 19.2384L12.9622 19.3756C14.1137 19.9058 14.6894 20.1709 15.0724 19.8801C15.4554 19.5894 15.3921 18.9353 15.2653 17.6272L15.2417 17.3837Z" fill="#265CF2"/>
<path opacity="0.5" d="M10.5765 11.7042L10.4127 11.9981C10.2327 12.321 10.1427 12.4824 10.0024 12.5889C10.0221 12.574 10.0408 12.5579 10.0589 12.5405C10.0201 12.7712 9.99993 13.0083 9.99993 13.25C9.99993 15.5972 11.9027 17.5 14.2499 17.5C14.5914 17.5 14.9235 17.4597 15.2416 17.3837L15.2324 17.2888C15.1964 16.9171 15.1784 16.7312 15.232 16.5589C15.2856 16.3865 15.4047 16.2472 15.643 15.9686L15.8599 15.715C16.6983 14.7345 17.1175 14.2443 16.9712 13.7739C16.8249 13.3034 16.21 13.1643 14.9802 12.886L14.662 12.814C14.3125 12.735 14.1378 12.6954 13.9975 12.5889C13.8572 12.4824 13.7672 12.321 13.5872 11.9981L13.4233 11.7042C12.79 10.5681 12.4734 10 11.9999 10C11.5265 10 11.2098 10.5681 10.5765 11.7042Z" fill="#265CF2"/>
</svg>
