<svg width="16" height="16" viewBox="0 0 16 16" fill="none" xmlns="http://www.w3.org/2000/svg">
<path d="M13.6296 14.0172H2.37017C2.15687 14.0172 1.9523 14.1236 1.80148 14.3132C1.65065 14.5027 1.56592 14.7598 1.56592 15.0278C1.56592 15.2958 1.65065 15.5529 1.80148 15.7424C1.9523 15.9319 2.15687 16.0384 2.37017 16.0384H13.6296C13.8429 16.0384 14.0475 15.9319 14.1983 15.7424C14.3491 15.5529 14.4339 15.2958 14.4339 15.0278C14.4339 14.7598 14.3491 14.5027 14.1983 14.3132C14.0475 14.1236 13.8429 14.0172 13.6296 14.0172Z" fill="black"/>
<path d="M2.79876 12.6285V12.6279H2.73154H2.73101L2.79876 12.6285ZM2.79876 12.6285L2.81237 12.6272L5.95133 12.3412L5.95259 12.3411C6.3307 12.3034 6.68435 12.1368 6.95416 11.8693L6.95461 11.8688L13.7293 5.09407L13.7294 5.09411L13.7322 5.09112C14.0225 4.7845 14.1793 4.37533 14.1684 3.95327C14.1575 3.53183 13.9803 3.13186 13.6754 2.84074L11.6141 0.779461L11.6142 0.779409L11.6108 0.776195C11.3147 0.498151 10.9269 0.338613 10.5209 0.327929C10.1149 0.317246 9.71916 0.456162 9.40894 0.718253L9.4086 0.717848L9.39968 0.726768L2.62494 7.5015L2.6245 7.50195C2.357 7.77171 2.19042 8.12525 2.15271 8.50327L2.79876 12.6285ZM9.20467 3.44354L10.4631 2.15286L12.3033 3.99303L11.0126 5.25144L9.20467 3.44354ZM3.72464 10.731L3.90675 8.71429L7.99987 4.65025L9.82054 6.47092L5.74947 10.542L3.72464 10.731Z" fill="black" stroke="black" stroke-width="0.3"/>
</svg>
