<svg width="24" height="24" viewBox="0 0 24 24" fill="none" xmlns="http://www.w3.org/2000/svg">
<rect width="24" height="24" rx="12" fill="#EDF7FF"/>
<path d="M16.5384 15.3372C16.093 15.4436 15.6281 15.5 15.15 15.5C11.8639 15.5 9.2 12.8361 9.2 9.55003C9.2 9.2116 9.22826 8.87977 9.28254 8.55676C9.25721 8.58113 9.23103 8.60357 9.20346 8.62449C9.00704 8.77361 8.7624 8.82896 8.27312 8.93966L7.82768 9.04045C6.1059 9.43002 5.24501 9.6248 5.04019 10.2834C4.83538 10.9421 5.42227 11.6284 6.59607 13.001L6.89974 13.3561C7.2333 13.7461 7.40008 13.9412 7.47511 14.1824C7.55014 14.4237 7.52492 14.6839 7.47449 15.2043L7.42858 15.6781C7.25112 17.5094 7.16239 18.4251 7.69861 18.8322C8.23483 19.2392 9.04087 18.8681 10.653 18.1258L11.07 17.9338C11.5282 17.7229 11.7572 17.6174 12 17.6174C12.2428 17.6174 12.4719 17.7229 12.93 17.9338L13.347 18.1258C14.9591 18.8681 15.7652 19.2392 16.3014 18.8322C16.8376 18.4251 16.7489 17.5094 16.5714 15.6781L16.5384 15.3372Z" fill="#0BB4FE"/>
<path opacity="0.5" d="M10.0071 7.38586L9.77773 7.79736C9.52577 8.24935 9.39979 8.47535 9.20337 8.62446C9.23093 8.60354 9.25711 8.5811 9.28244 8.55674C9.22816 8.87974 9.1999 9.21157 9.1999 9.55C9.1999 12.8361 11.8638 15.5 15.1499 15.5C15.628 15.5 16.0929 15.4436 16.5383 15.3371L16.5254 15.2043C16.475 14.6839 16.4498 14.4237 16.5248 14.1824C16.5998 13.9411 16.7666 13.7461 17.1002 13.3561L17.4038 13.0009C18.5776 11.6284 19.1645 10.942 18.9597 10.2834C18.7549 9.62477 17.894 9.42999 16.1722 9.04042L15.7268 8.93963C15.2375 8.82893 14.9929 8.77358 14.7965 8.62446C14.6 8.47535 14.474 8.24935 14.2221 7.79737L13.9927 7.38586C13.106 5.79529 12.6627 5 11.9999 5C11.3371 5 10.8938 5.79529 10.0071 7.38586Z" fill="#0BB4FE"/>
</svg>
