<svg width="24" height="24" viewBox="0 0 24 24" fill="none" xmlns="http://www.w3.org/2000/svg">
<path d="M16.7376 7.26318H7.26367V16.7369H16.7376V7.26318Z" fill="white"/>
<path d="M16.7363 21L20.9996 16.7368H16.7363V21Z" fill="#EA4335"/>
<path d="M20.9996 7.26318H16.7363V16.7369H20.9996V7.26318Z" fill="#FBBC04"/>
<path d="M16.7376 16.7368H7.26367V21H16.7376V16.7368Z" fill="#34A853"/>
<path d="M3 16.7368V19.5789C3 20.364 3.63593 21 4.42108 21H7.26325V16.7368H3Z" fill="#188038"/>
<path d="M20.9996 7.26315V4.42105C20.9996 3.63592 20.3636 3 19.5785 3H16.7363V7.26315H20.9996Z" fill="#1967D2"/>
<path d="M16.7371 3H4.42108C3.63593 3 3 3.63592 3 4.42105V16.7368H7.26325V7.26315H16.7371V3Z" fill="#4285F4"/>
<path d="M9.20668 14.6124C8.85259 14.3732 8.60745 14.0239 8.47363 13.562L9.29549 13.2233C9.3701 13.5076 9.50036 13.7278 9.68629 13.8841C9.87103 14.0404 10.096 14.1174 10.3589 14.1174C10.6278 14.1174 10.8587 14.0357 11.0517 13.8723C11.2447 13.7089 11.3419 13.5004 11.3419 13.2482C11.3419 12.9901 11.24 12.7793 11.0363 12.6158C10.8326 12.4524 10.5768 12.3707 10.2713 12.3707H9.79643V11.5572H10.2227C10.4856 11.5572 10.7071 11.4861 10.8871 11.344C11.0671 11.2019 11.1571 11.0077 11.1571 10.7602C11.1571 10.5399 11.0766 10.3647 10.9155 10.2332C10.7545 10.1018 10.5508 10.0355 10.3033 10.0355C10.0617 10.0355 9.86985 10.0994 9.72774 10.2285C9.58572 10.3579 9.47896 10.5213 9.41747 10.7033L8.6039 10.3647C8.71166 10.0591 8.90943 9.78914 9.19957 9.55585C9.48971 9.32256 9.86037 9.20532 10.3104 9.20532C10.6432 9.20532 10.9428 9.26927 11.208 9.39835C11.4733 9.52743 11.6817 9.70624 11.8321 9.93361C11.9825 10.1622 12.0571 10.418 12.0571 10.7022C12.0571 10.9923 11.9873 11.2374 11.8475 11.4387C11.7078 11.6401 11.5361 11.794 11.3324 11.9018V11.9503C11.5954 12.0588 11.8239 12.2368 11.9932 12.4654C12.1649 12.6964 12.2513 12.9723 12.2513 13.2944C12.2513 13.6165 12.1696 13.9043 12.0062 14.1565C11.8428 14.4087 11.6166 14.6077 11.33 14.7522C11.0422 14.8966 10.7189 14.9701 10.3601 14.9701C9.94445 14.9712 9.56076 14.8516 9.20668 14.6124ZM14.2551 10.534L13.3527 11.1865L12.9015 10.502L14.5203 9.3344H15.1409V14.8422H14.2551V10.534Z" fill="#4285F4"/>
</svg>
