<svg width="469" height="154" viewBox="0 0 469 154" fill="none" xmlns="http://www.w3.org/2000/svg">
<path d="M2.0625 37.5312V34.9688C2.0625 27.7188 3.80208 22.2188 7.28125 18.4688C10.7604 14.6979 15.4688 12.8125 21.4062 12.8125C26.7604 12.8125 30.875 14.125 33.75 16.75C36.625 19.375 38.0729 22.7917 38.0938 27V28.25H27.8438V27.5C27.8438 25.3542 27.2708 23.6875 26.125 22.5C25 21.2917 23.2917 20.6875 21 20.6875C18.5625 20.6875 16.6458 21.6562 15.25 23.5938C13.8542 25.5312 13.1562 28.5208 13.1562 32.5625V40.0938C13.1562 44.0312 13.9062 47.0208 15.4062 49.0625C16.9271 51.0833 19.0312 52.0938 21.7188 52.0938C23.0729 52.0938 24.2396 51.9271 25.2188 51.5938C26.2188 51.2396 27.1458 50.6979 28 49.9688V42.2188H21.125V34.9062L38.1875 34.875V53.4375C37 54.8125 35.0312 56.1979 32.2812 57.5938C29.5312 58.9896 25.9792 59.6875 21.625 59.6875C15.625 59.6875 10.8646 57.8125 7.34375 54.0625C3.82292 50.2917 2.0625 44.7812 2.0625 37.5312ZM44.4375 59V13.5H74.0312V21.9375H54.7812V32.0625H71.25V39.6562H54.7812V50.7812H74.4688V59H44.4375ZM77 21.9375V13.5H112.406V21.9375H100.125V59H89.2812V21.9375H77ZM132.062 59V13.5H146.844L155.875 40.3438C156.104 41.0521 156.312 41.75 156.5 42.4375C156.688 43.1042 156.854 43.8229 157 44.5938H157.125C157.271 43.8229 157.438 43.1042 157.625 42.4375C157.812 41.75 158.021 41.0521 158.25 40.3438L167.281 13.5H182.094V59H171.531V31.8125C171.531 31.1042 171.542 30.3229 171.562 29.4688C171.583 28.5938 171.625 27.8021 171.688 27.0938H171.5C171.354 27.8229 171.177 28.6146 170.969 29.4688C170.781 30.3021 170.573 31.0833 170.344 31.8125L161.531 59H152L143.125 31.8125C142.917 31.1042 142.698 30.2708 142.469 29.3125C142.24 28.3542 142.094 27.6146 142.031 27.0938H141.844C141.865 27.6146 141.885 28.3542 141.906 29.3125C141.948 30.2708 141.969 31.1042 141.969 31.8125V59H132.062ZM188.375 37.5312V34.9688C188.375 27.3229 190.156 21.7188 193.719 18.1562C197.281 14.5938 201.854 12.8125 207.438 12.8125C213.042 12.8125 217.625 14.5938 221.188 18.1562C224.75 21.7188 226.531 27.3229 226.531 34.9688V37.5312C226.531 45.1771 224.75 50.7812 221.188 54.3438C217.625 57.9062 213.042 59.6875 207.438 59.6875C201.854 59.6875 197.281 57.9062 193.719 54.3438C190.156 50.7812 188.375 45.1771 188.375 37.5312ZM199.5 40.2188C199.5 44.4896 200.208 47.5625 201.625 49.4375C203.042 51.2917 204.979 52.2188 207.438 52.2188C209.896 52.2188 211.833 51.2917 213.25 49.4375C214.667 47.5625 215.375 44.4896 215.375 40.2188V32.3438C215.375 28.0938 214.667 25.0417 213.25 23.1875C211.833 21.3333 209.896 20.4062 207.438 20.4062C204.979 20.4062 203.042 21.3333 201.625 23.1875C200.208 25.0417 199.5 28.0938 199.5 32.3438V40.2188ZM232.812 59V13.5H250.875C255.458 13.5 259.062 14.8021 261.688 17.4062C264.333 20.0104 265.656 23.4792 265.656 27.8125C265.656 32.25 264.271 35.8438 261.5 38.5938C258.75 41.3229 255.167 42.6875 250.75 42.6875H243.531V59H232.812ZM243.531 35.5312H248.781C251.01 35.5312 252.573 34.8646 253.469 33.5312C254.385 32.1979 254.844 30.4688 254.844 28.3438C254.844 26.2188 254.385 24.5 253.469 23.1875C252.573 21.8542 251.01 21.1875 248.781 21.1875H243.531V35.5312ZM255.844 59L247 38.9375L256.812 36.625L267.562 59H255.844ZM271.5 59V13.5H301.094V21.9375H281.844V32.0625H298.312V39.6562H281.844V50.7812H301.531V59H271.5ZM0.125 104.375H10.0625L14.375 119.875C14.5833 120.604 14.75 121.25 14.875 121.812C15 122.375 15.125 122.969 15.25 123.594H15.4375C15.5625 122.969 15.6979 122.375 15.8438 121.812C15.9896 121.25 16.1771 120.604 16.4062 119.875L21.0625 104.375H30.5L35.1875 119.969C35.3958 120.698 35.5729 121.354 35.7188 121.938C35.8854 122.5 36.0312 123.062 36.1562 123.625H36.3438C36.4688 123.042 36.5938 122.458 36.7188 121.875C36.8646 121.292 37.0208 120.656 37.1875 119.969L41.4375 104.375H50.5L41.5938 134H31.3438L26.1875 118.031C26.0208 117.49 25.8646 116.969 25.7188 116.469C25.5938 115.948 25.4792 115.406 25.375 114.844H25.2188C25.0938 115.406 24.9688 115.948 24.8438 116.469C24.7188 116.969 24.5729 117.49 24.4062 118.031L19.4375 134H9.0625L0.125 104.375ZM54.6875 134V104.375H65.25V134H54.6875ZM54.0938 94.4688C54.0938 92.9688 54.6042 91.7083 55.625 90.6875C56.6458 89.6667 58.1042 89.1562 60 89.1562C61.8958 89.1562 63.3438 89.6562 64.3438 90.6562C65.3438 91.6562 65.8438 92.9167 65.8438 94.4375C65.8438 95.9375 65.3229 97.2188 64.2812 98.2812C63.2604 99.3229 61.8125 99.8438 59.9375 99.8438C58.0625 99.8438 56.6146 99.3229 55.5938 98.2812C54.5938 97.2188 54.0938 95.9479 54.0938 94.4688ZM69.5312 111.844V104.375H90.5625V111.844H69.5312ZM74.0938 124.812V106.219L74.3438 105.719V95.1875H84.3125V122.656C84.3125 124.615 84.5729 125.885 85.0938 126.469C85.6354 127.031 86.4792 127.312 87.625 127.312C88.1667 127.312 88.6771 127.281 89.1562 127.219C89.6354 127.135 90.1042 127 90.5625 126.812V133.875C90 134.062 89.1458 134.24 88 134.406C86.8542 134.594 85.4375 134.688 83.75 134.688C80.6667 134.688 78.2812 133.917 76.5938 132.375C74.9271 130.812 74.0938 128.292 74.0938 124.812ZM95.4688 134V87.9375H105.844V108.312C106.615 106.938 107.802 105.812 109.406 104.938C111.031 104.062 113.042 103.625 115.438 103.625C118.417 103.625 120.833 104.479 122.688 106.188C124.562 107.896 125.5 110.677 125.5 114.531V134H115.094V116.188C115.094 114.438 114.719 113.198 113.969 112.469C113.24 111.719 112.219 111.344 110.906 111.344C109.74 111.344 108.719 111.688 107.844 112.375C106.99 113.062 106.323 113.969 105.844 115.094V134H95.4688Z" fill="white"/>
<path d="M164.75 134V88.5H183.5C188.271 88.5 191.917 89.9062 194.438 92.7188C196.958 95.5104 198.219 99.2396 198.219 103.906C198.219 108.573 196.979 112.312 194.5 115.125C192.021 117.938 188.302 119.344 183.344 119.344H175.469V134H164.75ZM175.469 111.938H181.156C183.531 111.938 185.177 111.198 186.094 109.719C187.031 108.219 187.5 106.344 187.5 104.094C187.5 101.865 187.031 100.021 186.094 98.5625C185.177 97.0833 183.531 96.3333 181.156 96.3125H175.469V111.938ZM203.438 134V88.5H221.5C226.083 88.5 229.688 89.8021 232.312 92.4062C234.958 95.0104 236.281 98.4792 236.281 102.812C236.281 107.25 234.896 110.844 232.125 113.594C229.375 116.323 225.792 117.688 221.375 117.688H214.156V134H203.438ZM214.156 110.531H219.406C221.635 110.531 223.198 109.865 224.094 108.531C225.01 107.198 225.469 105.469 225.469 103.344C225.469 101.219 225.01 99.5 224.094 98.1875C223.198 96.8542 221.635 96.1875 219.406 96.1875H214.156V110.531ZM226.469 134L217.625 113.938L227.438 111.625L238.188 134H226.469ZM242.125 134V88.5H271.719V96.9375H252.469V107.062H268.938V114.656H252.469V125.781H272.156V134H242.125ZM277 134V88.5H291.781L300.812 115.344C301.042 116.052 301.25 116.75 301.438 117.438C301.625 118.104 301.792 118.823 301.938 119.594H302.062C302.208 118.823 302.375 118.104 302.562 117.438C302.75 116.75 302.958 116.052 303.188 115.344L312.219 88.5H327.031V134H316.469V106.812C316.469 106.104 316.479 105.323 316.5 104.469C316.521 103.594 316.562 102.802 316.625 102.094H316.438C316.292 102.823 316.115 103.615 315.906 104.469C315.719 105.302 315.51 106.083 315.281 106.812L306.469 134H296.938L288.062 106.812C287.854 106.104 287.635 105.271 287.406 104.312C287.177 103.354 287.031 102.615 286.969 102.094H286.781C286.802 102.615 286.823 103.354 286.844 104.312C286.885 105.271 286.906 106.104 286.906 106.812V134H277ZM334.562 134V88.5H345.438V134H334.562ZM352.812 117.375V88.5H363.5V118.719C363.5 121.802 364.052 123.99 365.156 125.281C366.26 126.552 367.802 127.188 369.781 127.188C371.74 127.188 373.271 126.552 374.375 125.281C375.479 123.99 376.031 121.802 376.031 118.719V88.5H386.688V117.375C386.688 123.292 385.177 127.656 382.156 130.469C379.156 133.281 375.062 134.688 369.875 134.688C364.562 134.688 360.385 133.281 357.344 130.469C354.323 127.656 352.812 123.292 352.812 117.375ZM393.938 134V88.5H408.719L417.75 115.344C417.979 116.052 418.188 116.75 418.375 117.438C418.562 118.104 418.729 118.823 418.875 119.594H419C419.146 118.823 419.312 118.104 419.5 117.438C419.688 116.75 419.896 116.052 420.125 115.344L429.156 88.5H443.969V134H433.406V106.812C433.406 106.104 433.417 105.323 433.438 104.469C433.458 103.594 433.5 102.802 433.562 102.094H433.375C433.229 102.823 433.052 103.615 432.844 104.469C432.656 105.302 432.448 106.083 432.219 106.812L423.406 134H413.875L405 106.812C404.792 106.104 404.573 105.271 404.344 104.312C404.115 103.354 403.969 102.615 403.906 102.094H403.719C403.74 102.615 403.76 103.354 403.781 104.312C403.823 105.271 403.844 106.104 403.844 106.812V134H393.938Z" fill="url(#paint0_linear_4673_1100)"/>
<path d="M453.588 67.8155C454.073 66.5049 455.927 66.5049 456.412 67.8155L458.541 73.5695C458.694 73.9816 459.018 74.3065 459.43 74.459L465.184 76.5881C466.495 77.0731 466.495 78.9269 465.184 79.4119L459.43 81.541C459.018 81.6935 458.694 82.0184 458.541 82.4305L456.412 88.1845C455.927 89.4951 454.073 89.4951 453.588 88.1845L451.459 82.4305C451.306 82.0184 450.982 81.6935 450.57 81.541L444.816 79.4119C443.505 78.9269 443.505 77.0731 444.816 76.5881L450.57 74.459C450.982 74.3065 451.306 73.9816 451.459 73.5695L453.588 67.8155Z" fill="url(#paint1_linear_4673_1100)"/>
<path d="M155.088 134.816C155.573 133.505 157.427 133.505 157.912 134.816L159.366 138.745C159.518 139.157 159.843 139.482 160.255 139.634L164.184 141.088C165.495 141.573 165.495 143.427 164.184 143.912L160.255 145.366C159.843 145.518 159.518 145.843 159.366 146.255L157.912 150.184C157.427 151.495 155.573 151.495 155.088 150.184L153.634 146.255C153.482 145.843 153.157 145.518 152.745 145.366L148.816 143.912C147.505 143.427 147.505 141.573 148.816 141.088L152.745 139.634C153.157 139.482 153.482 139.157 153.634 138.745L155.088 134.816Z" fill="url(#paint2_linear_4673_1100)"/>
<path d="M147.088 126.816C147.573 125.505 149.427 125.505 149.912 126.816L150.556 128.555C150.708 128.967 151.033 129.292 151.445 129.444L153.184 130.088C154.495 130.573 154.495 132.427 153.184 132.912L151.445 133.556C151.033 133.708 150.708 134.033 150.556 134.445L149.912 136.184C149.427 137.495 147.573 137.495 147.088 136.184L146.444 134.445C146.292 134.033 145.967 133.708 145.555 133.556L143.816 132.912C142.505 132.427 142.505 130.573 143.816 130.088L145.555 129.444C145.967 129.292 146.292 128.967 146.444 128.555L147.088 126.816Z" fill="url(#paint3_linear_4673_1100)"/>
<defs>
<linearGradient id="paint0_linear_4673_1100" x1="733.793" y1="150" x2="722.865" y2="-75.2645" gradientUnits="userSpaceOnUse">
<stop stop-color="#FFD601"/>
<stop offset="1" stop-color="#FCFF7D"/>
</linearGradient>
<linearGradient id="paint1_linear_4673_1100" x1="486.862" y1="92" x2="480.881" y2="50.7183" gradientUnits="userSpaceOnUse">
<stop stop-color="#FFD601"/>
<stop offset="1" stop-color="#FCFF7D"/>
</linearGradient>
<linearGradient id="paint2_linear_4673_1100" x1="182.672" y1="154" x2="177.759" y2="120.09" gradientUnits="userSpaceOnUse">
<stop stop-color="#FFD601"/>
<stop offset="1" stop-color="#FCFF7D"/>
</linearGradient>
<linearGradient id="paint3_linear_4673_1100" x1="167.845" y1="140" x2="164.213" y2="114.936" gradientUnits="userSpaceOnUse">
<stop stop-color="#FFD601"/>
<stop offset="1" stop-color="#FCFF7D"/>
</linearGradient>
</defs>
</svg>
