<svg width="344" height="114" viewBox="0 0 344 114" fill="none" xmlns="http://www.w3.org/2000/svg">
<path d="M48.3784 26.9268V25.0811C48.3784 19.9834 49.6235 16.1089 52.1138 13.4575C54.604 10.8062 57.9585 9.48047 62.1772 9.48047C65.9858 9.48047 68.9302 10.418 71.0103 12.293C73.105 14.1533 74.1523 16.5557 74.1523 19.5V20.2471H67.0771V19.7856C67.0771 18.3208 66.645 17.1489 65.7808 16.27C64.9165 15.3765 63.6274 14.9297 61.9136 14.9297C60.0679 14.9297 58.6104 15.6475 57.541 17.083C56.4863 18.5039 55.959 20.6865 55.959 23.6309V28.4648C55.959 31.3652 56.5303 33.5552 57.6729 35.0347C58.8301 36.4995 60.4268 37.2319 62.4629 37.2319C63.4736 37.2319 64.3525 37.1074 65.0996 36.8584C65.8467 36.6094 66.5425 36.2212 67.187 35.6938V30.1787H62.0234V25.0811L74.2183 25.0591V38.0889C73.3247 39.0996 71.8892 40.0957 69.9116 41.0771C67.9487 42.0439 65.4438 42.5273 62.397 42.5273C58.0757 42.5273 54.6553 41.2017 52.1357 38.5503C49.6309 35.8989 48.3784 32.0244 48.3784 26.9268ZM79.3711 42V10.0078H100.333V15.7646H86.5122V23.0376H98.3774V28.311H86.5122V36.397H100.641V42H79.3711ZM103.025 15.7646V10.0078H128.14V15.7646H119.307V42H111.88V15.7646H103.025ZM142.928 42V10.0078H152.881L159.561 29.3218C159.722 29.8198 159.861 30.3032 159.979 30.772C160.11 31.2407 160.228 31.7461 160.33 32.2881H160.44C160.542 31.7461 160.66 31.2407 160.792 30.772C160.923 30.3032 161.07 29.8198 161.231 29.3218L167.889 10.0078H177.93V42H170.679V22.5762C170.679 22.0781 170.679 21.5288 170.679 20.9282C170.694 20.313 170.73 19.7637 170.789 19.2803H170.635C170.547 19.7783 170.43 20.3276 170.284 20.9282C170.137 21.5142 169.991 22.0635 169.844 22.5762L163.318 42H156.902L150.354 22.5762C150.208 22.0781 150.054 21.5068 149.893 20.8623C149.747 20.2031 149.644 19.6758 149.585 19.2803H149.432C149.461 19.6758 149.483 20.2031 149.498 20.8623C149.527 21.5068 149.542 22.0781 149.542 22.5762V42H142.928ZM183.061 26.9268V25.0811C183.061 19.7637 184.328 15.8379 186.862 13.3037C189.411 10.7549 192.685 9.48047 196.684 9.48047C200.683 9.48047 203.957 10.7549 206.506 13.3037C209.055 15.8379 210.329 19.7637 210.329 25.0811V26.9268C210.329 32.2441 209.055 36.1772 206.506 38.7261C203.957 41.2603 200.683 42.5273 196.684 42.5273C192.685 42.5273 189.411 41.2603 186.862 38.7261C184.328 36.1772 183.061 32.2441 183.061 26.9268ZM190.664 28.5088C190.664 31.585 191.198 33.8188 192.268 35.2104C193.352 36.5874 194.824 37.2759 196.684 37.2759C198.544 37.2759 200.017 36.5874 201.101 35.2104C202.185 33.8188 202.727 31.585 202.727 28.5088V23.521C202.727 20.4595 202.185 18.2402 201.101 16.8633C200.017 15.4863 198.544 14.7979 196.684 14.7979C194.824 14.7979 193.352 15.4863 192.268 16.8633C191.198 18.2402 190.664 20.4595 190.664 23.521V28.5088ZM215.504 42V10.0078H227.94C231.28 10.0078 233.902 10.916 235.807 12.7324C237.726 14.5488 238.685 17.0024 238.685 20.0933C238.685 23.228 237.696 25.7476 235.719 27.6519C233.741 29.5415 231.126 30.4863 227.875 30.4863H222.843V42H215.504ZM222.843 25.4766H226.754C228.424 25.4766 229.596 25.0078 230.27 24.0703C230.958 23.1328 231.302 21.9023 231.302 20.3789C231.302 18.8555 230.958 17.6323 230.27 16.7095C229.596 15.7866 228.424 15.3252 226.754 15.3252H222.843V25.4766ZM232.005 42L225.479 27.7397L232.423 26.4214L240.091 42H232.005ZM243.574 42V10.0078H264.536V15.7646H250.715V23.0376H262.581V28.311H250.715V36.397H264.844V42H243.574ZM1.11475 73.5986H8.01416L11.1343 85.0024C11.2808 85.5298 11.3979 86.0059 11.4858 86.4307C11.5737 86.8408 11.6616 87.2803 11.7495 87.749H11.8594C11.9619 87.2803 12.0571 86.8408 12.145 86.4307C12.2476 86.0059 12.3721 85.5298 12.5186 85.0024L15.9463 73.5986H22.4941L25.9438 85.0684C26.105 85.5957 26.2368 86.0718 26.3394 86.4966C26.4419 86.9067 26.5444 87.3315 26.647 87.771H26.7568C26.8447 87.3169 26.9326 86.8774 27.0205 86.4526C27.123 86.0278 27.2329 85.5664 27.3501 85.0684L30.4482 73.5986H36.6665L30.2505 95H23.2632L19.5278 83.3765C19.4106 82.937 19.2935 82.5122 19.1763 82.1021C19.0737 81.6919 18.9785 81.2744 18.8906 80.8496H18.8027C18.7148 81.2744 18.6196 81.6919 18.5171 82.1021C18.4146 82.5122 18.2974 82.937 18.1655 83.3765L14.606 95H7.55273L1.11475 73.5986ZM40.1274 95V73.5986H47.3345V95H40.1274ZM39.688 66.7651C39.688 65.7251 40.0396 64.8535 40.7427 64.1504C41.4458 63.4473 42.4492 63.0957 43.7529 63.0957C45.0566 63.0957 46.0527 63.4473 46.7412 64.1504C47.4443 64.8389 47.7959 65.7104 47.7959 66.7651C47.7959 67.8052 47.437 68.6914 46.7192 69.4238C46.0161 70.1416 45.0127 70.5005 43.709 70.5005C42.4199 70.5005 41.4238 70.1416 40.7207 69.4238C40.0322 68.6914 39.688 67.8052 39.688 66.7651ZM50.7954 78.7402V73.5986H65.4512V78.7402H50.7954ZM54.0693 88.4302V75.1807L54.2012 74.7852V67.4023H61.0786V87.2437C61.0786 88.5474 61.269 89.4043 61.6499 89.8145C62.0308 90.21 62.6094 90.4077 63.3857 90.4077C63.752 90.4077 64.1035 90.3784 64.4404 90.3198C64.792 90.2466 65.1216 90.1514 65.4292 90.0342V94.9121C65.0483 95.0586 64.4771 95.1978 63.7153 95.3296C62.9536 95.4614 62.0381 95.5273 60.9688 95.5273C58.8008 95.5273 57.1089 94.9634 55.8931 93.8354C54.6772 92.7075 54.0693 90.9058 54.0693 88.4302ZM69.4395 95V62.3047H76.5586V76.4551C77.1299 75.459 77.9795 74.6533 79.1074 74.0381C80.25 73.4082 81.6636 73.0933 83.3481 73.0933C85.4575 73.0933 87.1787 73.7158 88.5117 74.9609C89.8447 76.2061 90.5112 78.2349 90.5112 81.0474V95H83.3921V82.0142C83.3921 80.7251 83.1138 79.8096 82.5571 79.2676C82.0005 78.7109 81.2314 78.4326 80.25 78.4326C79.4004 78.4326 78.6533 78.689 78.0088 79.2017C77.3789 79.6997 76.8955 80.3735 76.5586 81.2231V95H69.4395Z" fill="white"/>
<path d="M119.615 95V63.0078H132.557C135.999 63.0078 138.628 63.9746 140.445 65.9082C142.276 67.8271 143.191 70.4346 143.191 73.7305C143.191 77.0117 142.291 79.6265 140.489 81.5747C138.687 83.5083 136.014 84.4751 132.469 84.4751H126.954V95H119.615ZM126.954 79.3115H131.15C132.908 79.3115 134.131 78.7988 134.82 77.7734C135.508 76.748 135.853 75.4297 135.853 73.8184C135.853 72.2363 135.508 70.9399 134.82 69.9292C134.131 68.9185 132.908 68.4131 131.15 68.4131H126.954V79.3115ZM147.553 95V63.0078H159.99C163.33 63.0078 165.952 63.916 167.856 65.7324C169.775 67.5488 170.734 70.0024 170.734 73.0933C170.734 76.228 169.746 78.7476 167.768 80.6519C165.791 82.5415 163.176 83.4863 159.924 83.4863H154.892V95H147.553ZM154.892 78.4766H158.803C160.473 78.4766 161.645 78.0078 162.319 77.0703C163.007 76.1328 163.352 74.9023 163.352 73.3789C163.352 71.8555 163.007 70.6323 162.319 69.7095C161.645 68.7866 160.473 68.3252 158.803 68.3252H154.892V78.4766ZM164.055 95L157.529 80.7397L164.472 79.4214L172.141 95H164.055ZM175.624 95V63.0078H196.585V68.7646H182.765V76.0376H194.63V81.311H182.765V89.397H196.893V95H175.624ZM201.101 95V63.0078H211.055L217.734 82.3218C217.896 82.8198 218.035 83.3032 218.152 83.772C218.284 84.2407 218.401 84.7461 218.503 85.2881H218.613C218.716 84.7461 218.833 84.2407 218.965 83.772C219.097 83.3032 219.243 82.8198 219.404 82.3218L226.062 63.0078H236.104V95H228.853V75.5762C228.853 75.0781 228.853 74.5288 228.853 73.9282C228.867 73.313 228.904 72.7637 228.962 72.2803H228.809C228.721 72.7783 228.604 73.3276 228.457 73.9282C228.311 74.5142 228.164 75.0635 228.018 75.5762L221.492 95H215.076L208.528 75.5762C208.381 75.0781 208.228 74.5068 208.066 73.8623C207.92 73.2031 207.817 72.6758 207.759 72.2803H207.605C207.634 72.6758 207.656 73.2031 207.671 73.8623C207.7 74.5068 207.715 75.0781 207.715 75.5762V95H201.101ZM242.179 95V63.0078H249.606V95H242.179ZM255.528 83.3105V63.0078H262.867V84.1016C262.867 86.3574 263.292 87.9468 264.141 88.8696C264.991 89.7925 266.155 90.2539 267.635 90.2539C269.1 90.2539 270.257 89.7925 271.106 88.8696C271.956 87.9468 272.381 86.3574 272.381 84.1016V63.0078H279.654V83.3105C279.654 87.4854 278.562 90.5688 276.38 92.561C274.197 94.5386 271.297 95.5273 267.679 95.5273C263.987 95.5273 261.036 94.5386 258.824 92.561C256.626 90.5688 255.528 87.4854 255.528 83.3105ZM285.532 95V63.0078H295.485L302.165 82.3218C302.326 82.8198 302.465 83.3032 302.583 83.772C302.714 84.2407 302.832 84.7461 302.934 85.2881H303.044C303.146 84.7461 303.264 84.2407 303.396 83.772C303.527 83.3032 303.674 82.8198 303.835 82.3218L310.493 63.0078H320.534V95H313.283V75.5762C313.283 75.0781 313.283 74.5288 313.283 73.9282C313.298 73.313 313.334 72.7637 313.393 72.2803H313.239C313.151 72.7783 313.034 73.3276 312.888 73.9282C312.741 74.5142 312.595 75.0635 312.448 75.5762L305.922 95H299.506L292.958 75.5762C292.812 75.0781 292.658 74.5068 292.497 73.8623C292.351 73.2031 292.248 72.6758 292.189 72.2803H292.036C292.065 72.6758 292.087 73.2031 292.102 73.8623C292.131 74.5068 292.146 75.0781 292.146 75.5762V95H285.532Z" fill="url(#paint0_linear_4673_1107)"/>
<path d="M328.088 42.8155C328.573 41.5049 330.427 41.5049 330.912 42.8155L333.041 48.5695C333.194 48.9816 333.518 49.3065 333.93 49.459L339.684 51.5881C340.995 52.0731 340.995 53.9269 339.684 54.4119L333.93 56.541C333.518 56.6935 333.194 57.0184 333.041 57.4305L330.912 63.1845C330.427 64.4951 328.573 64.4951 328.088 63.1845L325.959 57.4305C325.806 57.0184 325.482 56.6935 325.07 56.541L319.316 54.4119C318.005 53.9269 318.005 52.0731 319.316 51.5881L325.07 49.459C325.482 49.3065 325.806 48.9816 325.959 48.5695L328.088 42.8155Z" fill="url(#paint1_linear_4673_1107)"/>
<path d="M110.588 94.8155C111.073 93.5049 112.927 93.5049 113.412 94.8155L114.866 98.7448C115.018 99.1568 115.343 99.4817 115.755 99.6342L119.684 101.088C120.995 101.573 120.995 103.427 119.684 103.912L115.755 105.366C115.343 105.518 115.018 105.843 114.866 106.255L113.412 110.184C112.927 111.495 111.073 111.495 110.588 110.184L109.134 106.255C108.982 105.843 108.657 105.518 108.245 105.366L104.316 103.912C103.005 103.427 103.005 101.573 104.316 101.088L108.245 99.6342C108.657 99.4817 108.982 99.1568 109.134 98.7448L110.588 94.8155Z" fill="url(#paint2_linear_4673_1107)"/>
<path d="M102.588 86.8155C103.073 85.5049 104.927 85.5049 105.412 86.8155L106.056 88.555C106.208 88.9671 106.533 89.292 106.945 89.4445L108.684 90.0881C109.995 90.5731 109.995 92.4269 108.684 92.9119L106.945 93.5555C106.533 93.708 106.208 94.0329 106.056 94.445L105.412 96.1845C104.927 97.4951 103.073 97.4951 102.588 96.1845L101.944 94.445C101.792 94.0329 101.467 93.708 101.055 93.5555L99.3155 92.9119C98.0049 92.4269 98.0049 90.5731 99.3155 90.0881L101.055 89.4445C101.467 89.292 101.792 88.9671 101.944 88.555L102.588 86.8155Z" fill="url(#paint3_linear_4673_1107)"/>
<defs>
<linearGradient id="paint0_linear_4673_1107" x1="529.552" y1="106" x2="521.982" y2="-53.2016" gradientUnits="userSpaceOnUse">
<stop stop-color="#FFD601"/>
<stop offset="1" stop-color="#FCFF7D"/>
</linearGradient>
<linearGradient id="paint1_linear_4673_1107" x1="361.362" y1="67" x2="355.381" y2="25.7183" gradientUnits="userSpaceOnUse">
<stop stop-color="#FFD601"/>
<stop offset="1" stop-color="#FCFF7D"/>
</linearGradient>
<linearGradient id="paint2_linear_4673_1107" x1="138.172" y1="114" x2="133.259" y2="80.09" gradientUnits="userSpaceOnUse">
<stop stop-color="#FFD601"/>
<stop offset="1" stop-color="#FCFF7D"/>
</linearGradient>
<linearGradient id="paint3_linear_4673_1107" x1="123.345" y1="100" x2="119.713" y2="74.9361" gradientUnits="userSpaceOnUse">
<stop stop-color="#FFD601"/>
<stop offset="1" stop-color="#FCFF7D"/>
</linearGradient>
</defs>
</svg>
