<svg width="34" height="34" viewBox="0 0 34 34" fill="none" xmlns="http://www.w3.org/2000/svg">
<path d="M18.182 9.1487C18.0285 8.99878 17.8474 8.87994 17.6487 8.7987C17.4432 8.71114 17.2221 8.66579 16.9987 8.66537H16.832C16.6775 8.67298 16.5253 8.70679 16.382 8.76536C16.2677 8.80993 16.1609 8.87176 16.0654 8.9487C15.9893 8.9929 15.9169 9.04306 15.8487 9.0987L10.8487 13.8654C10.5282 14.1704 10.3421 14.5902 10.3311 15.0325C10.3202 15.4747 10.4854 15.9032 10.7904 16.2237C11.0954 16.5442 11.5152 16.7304 11.9575 16.7413C12.3997 16.7522 12.8282 16.587 13.1487 16.282L15.332 14.232V23.6654C15.332 24.1074 15.5076 24.5313 15.8202 24.8439C16.1328 25.1564 16.5567 25.332 16.9987 25.332C17.4407 25.332 17.8647 25.1564 18.1772 24.8439C18.4898 24.5313 18.6654 24.1074 18.6654 23.6654V14.3487L20.8154 16.5154C20.9703 16.6716 21.1546 16.7956 21.3577 16.8802C21.5608 16.9648 21.7787 17.0084 21.9987 17.0084C22.2187 17.0084 22.4366 16.9648 22.6397 16.8802C22.8428 16.7956 23.0271 16.6716 23.182 16.5154C23.3383 16.3604 23.4622 16.1761 23.5469 15.973C23.6315 15.7699 23.675 15.5521 23.675 15.332C23.675 15.112 23.6315 14.8942 23.5469 14.6911C23.4622 14.488 23.3383 14.3036 23.182 14.1487L18.182 9.1487Z" fill="#265CF2"/>
<path d="M16.9987 0.332031C13.7024 0.332031 10.48 1.30951 7.7392 3.14087C4.99838 4.97223 2.86217 7.57521 1.60071 10.6206C0.339253 13.6661 0.00919706 17.0172 0.652284 20.2502C1.29537 23.4832 2.88272 26.4529 5.21359 28.7838C7.54447 31.1147 10.5142 32.702 13.7472 33.3451C16.9802 33.9882 20.3313 33.6582 23.3768 32.3967C26.4222 31.1352 29.0252 28.999 30.8565 26.2582C32.6879 23.5174 33.6654 20.2951 33.6654 16.9987C33.6654 14.81 33.2343 12.6427 32.3967 10.6206C31.5591 8.59855 30.3315 6.76123 28.7838 5.21358C27.2362 3.66594 25.3989 2.43828 23.3768 1.60071C21.3547 0.763127 19.1874 0.332031 16.9987 0.332031ZM16.9987 30.332C14.3616 30.332 11.7838 29.55 9.5911 28.085C7.39845 26.6199 5.68948 24.5375 4.68031 22.1011C3.67114 19.6648 3.4071 16.9839 3.92157 14.3975C4.43604 11.8111 5.70591 9.43531 7.57061 7.57061C9.43532 5.70591 11.8111 4.43603 14.3975 3.92156C16.9839 3.40709 19.6648 3.67114 22.1012 4.6803C24.5375 5.68947 26.6199 7.39844 28.085 9.59109C29.55 11.7838 30.332 14.3616 30.332 16.9987C30.332 20.5349 28.9273 23.9263 26.4268 26.4268C23.9263 28.9273 20.5349 30.332 16.9987 30.332Z" fill="#265CF2"/>
</svg>
