<svg width="24" height="24" viewBox="0 0 24 24" fill="none" xmlns="http://www.w3.org/2000/svg">
<rect width="24" height="24" rx="12" fill="#F2FFF9"/>
<path d="M17.25 11.2499H12.75V6.74988C12.75 6.55097 12.671 6.3602 12.5303 6.21955C12.3897 6.0789 12.1989 5.99988 12 5.99988C11.8011 5.99988 11.6103 6.0789 11.4697 6.21955C11.329 6.3602 11.25 6.55097 11.25 6.74988V11.2499H6.75C6.55109 11.2499 6.36032 11.3289 6.21967 11.4695C6.07902 11.6102 6 11.801 6 11.9999C6 12.1988 6.07902 12.3896 6.21967 12.5302C6.36032 12.6709 6.55109 12.7499 6.75 12.7499H11.25V17.2499C11.25 17.4488 11.329 17.6396 11.4697 17.7802C11.6103 17.9209 11.8011 17.9999 12 17.9999C12.1989 17.9999 12.3897 17.9209 12.5303 17.7802C12.671 17.6396 12.75 17.4488 12.75 17.2499V12.7499H17.25C17.4489 12.7499 17.6397 12.6709 17.7803 12.5302C17.921 12.3896 18 12.1988 18 11.9999C18 11.801 17.921 11.6102 17.7803 11.4695C17.6397 11.3289 17.4489 11.2499 17.25 11.2499Z" fill="#06A192"/>
</svg>
