<svg width="36" height="36" viewBox="0 0 36 36" fill="none" xmlns="http://www.w3.org/2000/svg">
<path d="M0 18C0 8.05888 8.05888 0 18 0C27.9411 0 36 8.05888 36 18C36 27.9411 27.9411 36 18 36C8.05888 36 0 27.9411 0 18Z" fill="#EAEFFE"/>
<path fill-rule="evenodd" clip-rule="evenodd" d="M17.9999 11.5C16.6192 11.5 15.4999 12.6193 15.4999 14C15.4999 15.3807 16.6192 16.5 17.9999 16.5C19.3806 16.5 20.4999 15.3807 20.4999 14C20.4999 12.6193 19.3806 11.5 17.9999 11.5ZM13.9999 14C13.9999 11.7909 15.7907 10 17.9999 10C20.209 10 21.9999 11.7909 21.9999 14C21.9999 16.2091 20.209 18 17.9999 18C15.7907 18 13.9999 16.2091 13.9999 14ZM13.8326 21.7162C12.9148 22.264 12.3607 22.9679 12.0223 23.6086C11.9028 23.8349 11.9405 24.0134 12.0618 24.1656C12.2029 24.3429 12.4839 24.5 12.8474 24.5H23.1524C23.5158 24.5 23.7969 24.3429 23.938 24.1656C24.0592 24.0134 24.097 23.8349 23.9774 23.6086C23.6391 22.9679 23.085 22.264 22.1672 21.7162C21.2488 21.168 19.9226 20.75 17.9999 20.75C16.0772 20.75 14.7509 21.168 13.8326 21.7162ZM13.0638 20.4282C14.2527 19.7185 15.8546 19.25 17.9999 19.25C20.1452 19.25 21.7471 19.7185 22.936 20.4282C24.1255 21.1382 24.8578 22.0635 25.3038 22.9081C25.7176 23.6916 25.5821 24.5089 25.1114 25.1001C24.6606 25.6662 23.9308 26 23.1524 26H12.8474C12.0689 26 11.3392 25.6662 10.8884 25.1001C10.4176 24.5089 10.2822 23.6916 10.6959 22.9081C11.142 22.0635 11.8742 21.1382 13.0638 20.4282Z" fill="#265CF2"/>
</svg>
