<svg width="36" height="36" viewBox="0 0 36 36" fill="none" xmlns="http://www.w3.org/2000/svg">
<path d="M0 18C0 8.05888 8.05888 0 18 0C27.9411 0 36 8.05888 36 18C36 27.9411 27.9411 36 18 36C8.05888 36 0 27.9411 0 18Z" fill="#EAEFFE"/>
<path d="M24.0402 12.4647C23.2428 11.6683 22.2954 11.0401 21.2534 10.617C20.2114 10.194 19.096 9.98447 17.9724 10.0009C15.8633 9.99559 13.8384 10.8333 12.3433 12.3297C10.8482 13.8262 10.0053 15.8587 10 17.9803C9.99475 20.1019 10.8275 22.1387 12.3152 23.6426C13.8029 25.1465 15.8235 25.9944 17.9327 25.9997C18.3871 26.0075 18.8313 25.8632 19.1955 25.5896C19.5596 25.3159 19.8231 24.9284 19.9446 24.4878C20.0221 24.1696 20.0213 23.8373 19.9423 23.5195C19.8633 23.2017 19.7085 22.908 19.4913 22.664C19.4411 22.6065 19.4084 22.5357 19.3969 22.46C19.3855 22.3844 19.3959 22.307 19.4269 22.2371C19.4578 22.1672 19.5081 22.1077 19.5717 22.0657C19.6353 22.0237 19.7095 22.0009 19.7856 22H21.0978C22.3327 22.0058 23.5242 21.5414 24.4329 20.7001C25.3415 19.8588 25.9001 18.7028 25.9965 17.4643C26.0261 16.5409 25.8678 15.6211 25.5314 14.7614C25.195 13.9017 24.6876 13.1201 24.0402 12.4647ZM21.1296 20.4001H19.8174C19.4342 20.3979 19.0586 20.5077 18.7361 20.716C18.4137 20.9243 18.1583 21.2222 18.0008 21.5736C17.8434 21.9251 17.7907 22.3149 17.8492 22.6959C17.9077 23.0769 18.0748 23.4326 18.3303 23.7199C18.38 23.7704 18.4152 23.8335 18.432 23.9026C18.4488 23.9716 18.4466 24.0439 18.4257 24.1118C18.3859 24.2798 18.203 24.3838 17.9565 24.3998C17.0534 24.3882 16.163 24.1832 15.3447 23.7986C14.5264 23.414 13.7989 22.8585 13.2106 22.1691C12.6223 21.4797 12.1867 20.6722 11.9327 19.8003C11.6788 18.9284 11.6123 18.0121 11.7376 17.1124C11.9644 15.6004 12.7155 14.2179 13.8579 13.2092C15.0003 12.2006 16.4606 11.6309 17.9804 11.6008H18.044C18.9433 11.5889 19.8359 11.7584 20.669 12.0991C21.5022 12.4398 22.2591 12.9449 22.895 13.5846C23.3913 14.0841 23.7812 14.68 24.0409 15.3361C24.3007 15.9921 24.4249 16.6945 24.406 17.4003C24.3237 18.2187 23.9436 18.9777 23.3389 19.5313C22.7341 20.085 21.9473 20.3944 21.1296 20.4001Z" fill="#265CF2"/>
<path d="M18.044 14.8005C18.7028 14.8005 19.2369 14.2633 19.2369 13.6006C19.2369 12.9379 18.7028 12.4007 18.044 12.4007C17.3852 12.4007 16.8511 12.9379 16.8511 13.6006C16.8511 14.2633 17.3852 14.8005 18.044 14.8005Z" fill="#265CF2"/>
<path d="M20.6286 14.1606C20.4243 14.2793 20.2596 14.4562 20.1553 14.669C20.051 14.8818 20.0118 15.1209 20.0426 15.3562C20.0733 15.5914 20.1728 15.8122 20.3282 15.9906C20.4837 16.169 20.6883 16.297 20.9161 16.3585C21.1439 16.42 21.3848 16.4122 21.6082 16.336C21.8315 16.2598 22.0275 16.1188 22.1712 15.9306C22.3149 15.7425 22.3999 15.5157 22.4155 15.279C22.4311 15.0422 22.3766 14.8061 22.2588 14.6006C22.1806 14.4639 22.0763 14.3442 21.952 14.2481C21.8277 14.152 21.6858 14.0815 21.5343 14.0407C21.3829 13.9998 21.225 13.9894 21.0696 14.0099C20.9142 14.0305 20.7643 14.0817 20.6286 14.1606Z" fill="#265CF2"/>
<path d="M15.4594 14.1606C15.255 14.0421 15.0204 13.9873 14.785 14.003C14.5496 14.0187 14.3242 14.1042 14.1371 14.2487C13.9501 14.3933 13.8099 14.5904 13.7341 14.8151C13.6584 15.0398 13.6506 15.282 13.7118 15.5112C13.7729 15.7404 13.9002 15.9461 14.0775 16.1025C14.2549 16.259 14.4744 16.359 14.7082 16.3899C14.9421 16.4209 15.1798 16.3814 15.3914 16.2765C15.6029 16.1716 15.7788 16.0059 15.8968 15.8005C15.9752 15.6639 16.0261 15.5132 16.0466 15.3568C16.067 15.2005 16.0566 15.0416 16.016 14.8893C15.9754 14.737 15.9053 14.5943 15.8098 14.4692C15.7143 14.3442 15.5953 14.2393 15.4594 14.1606Z" fill="#265CF2"/>
<path d="M13.3997 17.4083C13.2041 17.5412 13.052 17.7295 12.9628 17.9494C12.8736 18.1693 12.8513 18.4108 12.8986 18.6435C12.946 18.8761 13.0609 19.0894 13.2288 19.2563C13.3968 19.4232 13.6101 19.5363 13.842 19.5811C14.0738 19.626 14.3137 19.6006 14.5312 19.5082C14.7487 19.4159 14.934 19.2607 15.0638 19.0623C15.1935 18.8639 15.2619 18.6313 15.2601 18.3938C15.2583 18.1563 15.1865 17.9247 15.0538 17.7283C14.9667 17.5974 14.8546 17.4852 14.724 17.3981C14.5934 17.3111 14.447 17.2509 14.2932 17.2212C14.1393 17.1914 13.9812 17.1927 13.8278 17.2248C13.6745 17.2569 13.529 17.3193 13.3997 17.4083Z" fill="#265CF2"/>
</svg>
