<svg width="36" height="36" viewBox="0 0 36 36" fill="none" xmlns="http://www.w3.org/2000/svg">
<path d="M0 18C0 8.05888 8.05888 0 18 0C27.9411 0 36 8.05888 36 18C36 27.9411 27.9411 36 18 36C8.05888 36 0 27.9411 0 18Z" fill="#EAEFFE"/>
<path fill-rule="evenodd" clip-rule="evenodd" d="M19.2421 11.0347C19.4959 11.1249 19.6667 11.3749 19.6667 11.6563V16.25H22.375C22.6128 16.25 22.83 16.3917 22.9353 16.6155C23.0407 16.8394 23.0159 17.1066 22.8715 17.3049L17.4548 24.7423C17.292 24.9658 17.0117 25.0555 16.7579 24.9653C16.5041 24.8751 16.3333 24.6251 16.3333 24.3437V19.75H13.625C13.3872 19.75 13.17 19.6083 13.0647 19.3845C12.9593 19.1606 12.9841 18.8934 13.1285 18.6951L18.5452 11.2577C18.708 11.0342 18.9883 10.9445 19.2421 11.0347ZM14.8897 18.4375H16.9583C17.3035 18.4375 17.5833 18.7313 17.5833 19.0937V22.4052L21.1103 17.5625H19.0417C18.6965 17.5625 18.4167 17.2687 18.4167 16.9063V13.5948L14.8897 18.4375Z" fill="#265CF2"/>
</svg>
