<svg width="37" height="31" viewBox="0 0 37 31" fill="none" xmlns="http://www.w3.org/2000/svg">
<path d="M5.63007 15.8714C5.06516 15.3065 4.29897 14.9892 3.50007 14.9892C2.70116 14.9892 1.93498 15.3065 1.37007 15.8714C0.805157 16.4364 0.487793 17.2025 0.487793 18.0014C0.487793 18.8003 0.805157 19.5665 1.37007 20.1314L10.3701 29.1314C10.6504 29.4095 10.9828 29.6295 11.3483 29.7788C11.7139 29.928 12.1052 30.0037 12.5001 30.0014C12.9108 29.9884 13.3144 29.8912 13.686 29.7157C14.0575 29.5402 14.3891 29.2903 14.6601 28.9814L35.6601 4.98144C36.145 4.37943 36.3788 3.61347 36.3127 2.84329C36.2467 2.07311 35.8859 1.35814 35.3056 0.847471C34.7253 0.336799 33.9702 0.0698381 33.1979 0.10225C32.4256 0.134662 31.6955 0.463946 31.1601 1.02144L12.5001 22.6214L5.63007 15.8714Z" fill="#70CE04"/>
</svg>
