<svg width="24" height="24" viewBox="0 0 24 24" fill="none" xmlns="http://www.w3.org/2000/svg">
<g opacity="0.5">
<path d="M2 5C2 4.05719 2 3.58579 2.29289 3.29289C2.58579 3 3.05719 3 4 3H20C20.9428 3 21.4142 3 21.7071 3.29289C22 3.58579 22 4.05719 22 5C22 5.94281 22 6.41421 21.7071 6.70711C21.4142 7 20.9428 7 20 7H4C3.05719 7 2.58579 7 2.29289 6.70711C2 6.41421 2 5.94281 2 5Z" fill="#265CF2"/>
</g>
<path fill-rule="evenodd" clip-rule="evenodd" d="M11.25 7.00002H4C3.84905 7.00005 3.6452 7.00008 3.5 6.99805V13C3.5 16.7713 3.5 18.6569 4.67157 19.8284C5.84315 21 7.72876 21 11.5 21H12.5C16.2712 21 18.1569 21 19.3284 19.8284C20.5 18.6569 20.5 16.7713 20.5 13V6.99805C20.3548 7.00008 20.1509 7.00005 20 7.00002H12.75H11.25ZM10.3824 10.9505C10.3824 10.9505 10.3824 10.9505 10.3824 10.9504C10.4748 10.8616 10.5483 10.7297 10.6772 10.4984L10.8138 10.2535C11.3415 9.30672 11.6054 8.83333 11.9999 8.83333C12.3945 8.83333 12.6584 9.30672 13.1861 10.2535L13.3227 10.4984L13.3227 10.4984C13.4726 10.7675 13.5476 10.902 13.6645 10.9908C13.7815 11.0795 13.9271 11.1125 14.2183 11.1784L14.4835 11.2383C15.5083 11.4702 16.0208 11.5862 16.1427 11.9782C16.2646 12.3703 15.9153 12.7788 15.2166 13.5958L15.0358 13.8072C14.8373 14.0393 14.738 14.1554 14.6933 14.299C14.6487 14.4427 14.6637 14.5975 14.6937 14.9073L14.7014 14.9864C14.5688 15.0181 14.4334 15.0423 14.2955 15.0586C14.4334 15.0423 14.5688 15.0181 14.7014 14.9864L14.7211 15.1893C14.8267 16.2794 14.8795 16.8245 14.5604 17.0668C14.2412 17.3091 13.7614 17.0881 12.8018 16.6463L12.5535 16.532C12.2809 16.4065 12.1445 16.3437 12 16.3437C11.8555 16.3437 11.7191 16.4065 11.4465 16.532L11.1982 16.6463C10.2386 17.0881 9.75882 17.3091 9.43965 17.0668C9.12047 16.8245 9.17328 16.2794 9.27891 15.1893L9.30624 14.9073C9.33626 14.5975 9.35127 14.4427 9.30661 14.2991C9.26195 14.1554 9.16268 14.0394 8.96415 13.8072L8.96414 13.8072L8.96413 13.8072L8.78337 13.5958C8.08469 12.7788 7.73534 12.3703 7.85726 11.9782C7.97917 11.5862 8.49161 11.4702 9.51647 11.2383L9.78162 11.1784C10.0729 11.1125 10.2185 11.0795 10.3354 10.9908C10.3518 10.9783 10.3673 10.965 10.3824 10.9505ZM10.3824 10.9504C10.3673 10.9649 10.3517 10.9783 10.3353 10.9908C10.3517 10.9783 10.3673 10.9649 10.3824 10.9504Z" fill="#265CF2"/>
</svg>
