<svg width="26" height="25" viewBox="0 0 26 25" fill="none" xmlns="http://www.w3.org/2000/svg">
    <path d="M25.1953 7.19531L22.1328 1.45312C21.8594 0.742188 21.2031 0.25 20.4375 0.25H13.875V7.25H25.1406C25.1953 7.25 25.1953 7.25 25.1953 7.19531ZM0.75 9V23C0.75 23.9844 1.51562 24.75 2.5 24.75H23.5C24.4297 24.75 25.25 23.9844 25.25 23V9H0.75ZM17.4297 17.2031L13.4375 21.0859C13.1641 21.3594 12.7812 21.3594 12.5078 21.0859L8.51562 17.2031C7.36719 16.0547 7.47656 14.1953 8.73438 13.1016C9.88281 12.2266 11.5234 12.3906 12.5625 13.375L13 13.8125L13.3828 13.375C14.4219 12.3906 16.0625 12.2266 17.2109 13.1016C18.4688 14.1953 18.5781 16.0547 17.4297 17.2031ZM12.125 7.25V0.25H5.50781C4.74219 0.25 4.08594 0.742188 3.8125 1.45312L0.75 7.19531C0.75 7.25 0.75 7.25 0.804688 7.25H12.125Z" fill="white"/>
</svg>
