<svg width="14" height="14" viewBox="0 0 14 14" fill="none" xmlns="http://www.w3.org/2000/svg">
    <path d="M13.9688 3.96875L12.2188 0.6875C12.0625 0.28125 11.6875 0 11.25 0H7.5V4H13.9375C13.9688 4 13.9688 4 13.9688 3.96875ZM0 5V13C0 13.5625 0.4375 14 1 14H13C13.5312 14 14 13.5625 14 13V5H0ZM9.53125 9.6875L7.25 11.9062C7.09375 12.0625 6.875 12.0625 6.71875 11.9062L4.4375 9.6875C3.78125 9.03125 3.84375 7.96875 4.5625 7.34375C5.21875 6.84375 6.15625 6.9375 6.75 7.5L7 7.75L7.21875 7.5C7.8125 6.9375 8.75 6.84375 9.40625 7.34375C10.125 7.96875 10.1875 9.03125 9.53125 9.6875ZM6.5 4V0H2.71875C2.28125 0 1.90625 0.28125 1.75 0.6875L0 3.96875C0 4 0 4 0.03125 4H6.5Z" fill="#364053"/>
</svg>
