<svg width="14" height="14" viewBox="0 0 14 14" fill="none" xmlns="http://www.w3.org/2000/svg">
    <path d="M11.6759 0H2.32411C1.85339 0.00278162 1.39448 0.147309 1.00742 0.41467C0.620356 0.682032 0.323175 1.05977 0.154759 1.49847C-0.0136567 1.93717 -0.0454628 2.41639 0.0635026 2.87342C0.172468 3.33046 0.41713 3.74402 0.765474 4.06V11.6667C0.765474 12.2855 1.01179 12.879 1.45024 13.3166C1.88869 13.7542 2.48336 14 3.10342 14H10.8966C11.5166 14 12.1113 13.7542 12.5498 13.3166C12.9882 12.879 13.2345 12.2855 13.2345 11.6667V4.06C13.5829 3.74402 13.8275 3.33046 13.9365 2.87342C14.0455 2.41639 14.0137 1.93717 13.8452 1.49847C13.6768 1.05977 13.3796 0.682032 12.9926 0.41467C12.6055 0.147309 12.1466 0.00278162 11.6759 0ZM11.6759 3.11111H2.32411C2.11742 3.11111 1.9192 3.02917 1.77305 2.88331C1.6269 2.73744 1.54479 2.53961 1.54479 2.33333C1.54479 2.12705 1.6269 1.92922 1.77305 1.78336C1.9192 1.6375 2.11742 1.55556 2.32411 1.55556H11.6759C11.8826 1.55556 12.0808 1.6375 12.227 1.78336C12.3731 1.92922 12.4552 2.12705 12.4552 2.33333C12.4552 2.53961 12.3731 2.73744 12.227 2.88331C12.0808 3.02917 11.8826 3.11111 11.6759 3.11111Z" fill="#1A84EE"/>
    <path d="M8.81531 11.1982C8.76296 11.1984 8.71132 11.1854 8.66472 11.1603L6.99515 10.2427L5.32559 11.1603C5.27137 11.1903 5.21025 11.2036 5.14916 11.1989C5.08807 11.1942 5.02948 11.1716 4.98003 11.1336C4.93058 11.0957 4.89227 11.0439 4.86944 10.9842C4.84661 10.9245 4.84019 10.8593 4.85091 10.796L5.17827 8.86101L3.82952 7.48623C3.78744 7.44214 3.75759 7.38685 3.74317 7.3263C3.72875 7.26575 3.73031 7.20222 3.74768 7.14253C3.76666 7.08145 3.80156 7.02717 3.84843 6.98586C3.8953 6.94455 3.95226 6.91786 4.01285 6.90882L5.87884 6.62355L6.70052 4.86039C6.72733 4.80228 6.76919 4.75327 6.82129 4.71898C6.8734 4.68469 6.93366 4.6665 6.99515 4.6665C7.05665 4.6665 7.11691 4.68469 7.16901 4.71898C7.22112 4.75327 7.26298 4.80228 7.28978 4.86039L8.12129 6.62011L9.98728 6.90538C10.0479 6.91442 10.1048 6.94111 10.1517 6.98242C10.1986 7.02373 10.2335 7.07801 10.2524 7.13909C10.2698 7.19879 10.2714 7.26232 10.257 7.32287C10.2425 7.38342 10.2127 7.4387 10.1706 7.48279L8.82186 8.85758L9.14922 10.7926C9.16091 10.857 9.15479 10.9236 9.13159 10.9845C9.10839 11.0454 9.06907 11.0981 9.01828 11.1363C8.959 11.1799 8.88762 11.2017 8.81531 11.1982Z" fill="white"/>
</svg>
