<svg width="61" height="60" viewBox="0 0 61 60" fill="none" xmlns="http://www.w3.org/2000/svg">
<path d="M57.5004 27C56.7048 27 55.9417 27.3161 55.3791 27.8787C54.8165 28.4413 54.5004 29.2044 54.5004 30C54.5004 36.3652 51.9719 42.4697 47.471 46.9706C42.9701 51.4714 36.8656 54 30.5004 54C25.7607 53.9978 21.1277 52.5923 17.1857 49.9606C13.2437 47.3289 10.1692 43.589 8.34986 39.2123C6.53053 34.8357 6.04785 30.0183 6.96268 25.3677C7.87752 20.7171 10.1489 16.4415 13.4904 13.08C15.7125 10.8282 18.3615 9.04212 21.2822 7.82644C24.2029 6.61075 27.3368 5.98983 30.5004 6C32.4188 6.01201 34.3301 6.23332 36.2004 6.66C36.5918 6.78106 37.0039 6.82068 37.4112 6.7764C37.8185 6.73212 38.2124 6.60488 38.5686 6.40253C38.9248 6.20019 39.2359 5.92702 39.4825 5.59987C39.7291 5.27272 39.9061 4.89852 40.0026 4.50034C40.099 4.10216 40.1129 3.68845 40.0434 3.2847C39.9738 2.88095 39.8223 2.49573 39.5982 2.15277C39.3741 1.80982 39.0821 1.51641 38.7402 1.29063C38.3983 1.06485 38.0138 0.911492 37.6104 0.84C35.2799 0.291728 32.8946 0.00992228 30.5004 0C24.5734 0.0307906 18.7884 1.81656 13.8753 5.13196C8.96223 8.44735 5.14133 13.1438 2.89477 18.6286C0.648217 24.1134 0.0766914 30.1408 1.25232 35.9501C2.42795 41.7594 5.29805 47.0903 9.50042 51.27C15.0705 56.8426 22.6214 59.9816 30.5004 60C38.4569 60 46.0875 56.8393 51.7136 51.2132C57.3397 45.5871 60.5004 37.9565 60.5004 30C60.5004 29.2044 60.1844 28.4413 59.6217 27.8787C59.0591 27.3161 58.2961 27 57.5004 27Z" fill="#70CE04"/>
</svg>
