<svg width="16" height="16" viewBox="0 0 16 16" fill="none" xmlns="http://www.w3.org/2000/svg">
<path d="M12.6759 1H3.32411C2.85339 1.00278 2.39448 1.14731 2.00742 1.41467C1.62036 1.68203 1.32317 2.05977 1.15476 2.49847C0.986343 2.93717 0.954537 3.41639 1.0635 3.87342C1.17247 4.33046 1.41713 4.74402 1.76547 5.06V12.6667C1.76547 13.2855 2.01179 13.879 2.45024 14.3166C2.88869 14.7542 3.48336 15 4.10342 15H11.8966C12.5166 15 13.1113 14.7542 13.5498 14.3166C13.9882 13.879 14.2345 13.2855 14.2345 12.6667V5.06C14.5829 4.74402 14.8275 4.33046 14.9365 3.87342C15.0455 3.41639 15.0137 2.93717 14.8452 2.49847C14.6768 2.05977 14.3796 1.68203 13.9926 1.41467C13.6055 1.14731 13.1466 1.00278 12.6759 1ZM12.6759 4.11111H3.32411C3.11742 4.11111 2.9192 4.02917 2.77305 3.88331C2.6269 3.73744 2.54479 3.53961 2.54479 3.33333C2.54479 3.12705 2.6269 2.92922 2.77305 2.78336C2.9192 2.6375 3.11742 2.55556 3.32411 2.55556H12.6759C12.8826 2.55556 13.0808 2.6375 13.227 2.78336C13.3731 2.92922 13.4552 3.12705 13.4552 3.33333C13.4552 3.53961 13.3731 3.73744 13.227 3.88331C13.0808 4.02917 12.8826 4.11111 12.6759 4.11111Z" fill="#1A84EE"/>
<path d="M9.81531 12.1983C9.76296 12.1985 9.71132 12.1855 9.66472 12.1605L7.99515 11.2428L6.32559 12.1605C6.27137 12.1904 6.21025 12.2038 6.14916 12.199C6.08807 12.1943 6.02948 12.1717 5.98003 12.1337C5.93058 12.0958 5.89227 12.044 5.86944 11.9843C5.84661 11.9247 5.84019 11.8595 5.85091 11.7961L6.17827 9.86114L4.82952 8.48635C4.78744 8.44226 4.75759 8.38698 4.74317 8.32643C4.72875 8.26587 4.73031 8.20234 4.74768 8.14265C4.76666 8.08157 4.80156 8.02729 4.84843 7.98598C4.8953 7.94467 4.95226 7.91798 5.01285 7.90894L6.87884 7.62367L7.70052 5.86051C7.72733 5.8024 7.76919 5.75339 7.82129 5.7191C7.8734 5.68481 7.93366 5.66663 7.99515 5.66663C8.05665 5.66663 8.11691 5.68481 8.16901 5.7191C8.22112 5.75339 8.26298 5.8024 8.28978 5.86051L9.12129 7.62023L10.9873 7.9055C11.0479 7.91454 11.1048 7.94123 11.1517 7.98255C11.1986 8.02386 11.2335 8.07813 11.2524 8.13922C11.2698 8.19891 11.2714 8.26244 11.257 8.32299C11.2425 8.38354 11.2127 8.43883 11.1706 8.48291L9.82186 9.8577L10.1492 11.7927C10.1609 11.8571 10.1548 11.9237 10.1316 11.9846C10.1084 12.0455 10.0691 12.0982 10.0183 12.1364C9.959 12.18 9.88762 12.2018 9.81531 12.1983Z" fill="white"/>
</svg>
