<svg width="24" height="24" viewBox="0 0 24 24" fill="none" xmlns="http://www.w3.org/2000/svg">
<path d="M6.94028 2C7.35614 2 7.69326 2.32421 7.69326 2.72414V4.18487C8.36117 4.17241 9.10983 4.17241 9.95219 4.17241H13.9681C14.8104 4.17241 15.5591 4.17241 16.227 4.18487V2.72414C16.227 2.32421 16.5641 2 16.98 2C17.3958 2 17.733 2.32421 17.733 2.72414V4.24894C19.178 4.36022 20.1267 4.63333 20.8236 5.30359C21.5206 5.97385 21.8046 6.88616 21.9203 8.27586L22 9H2.92456H2V8.27586C2.11571 6.88616 2.3997 5.97385 3.09665 5.30359C3.79361 4.63333 4.74226 4.36022 6.1873 4.24894V2.72414C6.1873 2.32421 6.52442 2 6.94028 2Z" fill="#265CF2"/>
<path opacity="0.5" d="M21.9995 14.0001V12.0001C21.9995 11.161 21.9963 9.66527 21.9834 9H2.00917C1.99626 9.66527 1.99953 11.161 1.99953 12.0001V14.0001C1.99953 17.7713 1.99953 19.6569 3.1711 20.8285C4.34267 22.0001 6.22829 22.0001 9.99953 22.0001H13.9995C17.7708 22.0001 19.6564 22.0001 20.828 20.8285C21.9995 19.6569 21.9995 17.7713 21.9995 14.0001Z" fill="#265CF2"/>
<path fill-rule="evenodd" clip-rule="evenodd" d="M11.8676 10.1707C12.0581 10.3824 12.041 10.7084 11.8293 10.8989L11.1093 11.5469H12.8594C15.4223 11.5469 17.5 13.6246 17.5 16.1875V16.3594C17.5 16.6441 17.2691 16.875 16.9844 16.875C16.6996 16.875 16.4688 16.6441 16.4688 16.3594V16.1875C16.4688 14.1941 14.8528 12.5781 12.8594 12.5781H11.1093L11.8293 13.2261C12.041 13.4166 12.0581 13.7426 11.8676 13.9543C11.6771 14.166 11.3511 14.1831 11.1394 13.9926L9.42069 12.4458C9.31204 12.348 9.25 12.2087 9.25 12.0625C9.25 11.9163 9.31204 11.777 9.42069 11.6792L11.1394 10.1324C11.3511 9.94187 11.6771 9.95903 11.8676 10.1707ZM7.01562 14.125C7.3004 14.125 7.53125 14.3559 7.53125 14.6406V14.8125C7.53125 16.8059 9.14722 18.4219 11.1406 18.4219H12.8907L12.1707 17.7739C11.959 17.5834 11.9419 17.2574 12.1324 17.0457C12.3229 16.834 12.6489 16.8169 12.8606 17.0074L14.5793 18.5542C14.688 18.652 14.75 18.7913 14.75 18.9375C14.75 19.0837 14.688 19.223 14.5793 19.3208L12.8606 20.8676C12.6489 21.0581 12.3229 21.041 12.1324 20.8293C11.9419 20.6176 11.959 20.2916 12.1707 20.1011L12.8907 19.4531H11.1406C8.57768 19.4531 6.5 17.3754 6.5 14.8125V14.6406C6.5 14.3559 6.73085 14.125 7.01562 14.125Z" fill="#265CF2"/>
</svg>
