<svg width="16" height="16" viewBox="0 0 16 16" fill="none" xmlns="http://www.w3.org/2000/svg">
<path d="M8 0C5.79008 0 3.80237 0.902275 2.35417 2.35417L1.10417 1.10417L0.666667 5.33333L4.66667 4.66667L3.29167 3.29167C4.49673 2.08315 6.15414 1.33333 8 1.33333C11.6897 1.33333 14.6667 4.31031 14.6667 8C14.6667 11.6897 11.6897 14.6667 8 14.6667H7.33333V16H8H8.66667V15.9583C12.7639 15.6158 16 12.184 16 8C16 3.58969 12.4103 0 8 0ZM7.33333 4V4.79167C6.56125 5.07187 6 5.81009 6 6.66667C6 7.22245 6.30687 7.69419 6.64583 7.97917C6.9848 8.26414 7.37427 8.43592 7.70833 8.60417C8.0424 8.77241 8.33852 8.92873 8.5 9.0625C8.66148 9.19627 8.66667 9.23145 8.66667 9.33333C8.66667 9.683 8.36583 10 8 10C7.62331 10 7.33333 9.71002 7.33333 9.33333H6C6 10.1947 6.56284 10.9295 7.33333 11.2083V12H8.66667V11.2083C9.43954 10.9275 10 10.1876 10 9.33333C10 8.77955 9.67185 8.32209 9.33333 8.04167C8.99482 7.76125 8.62427 7.58417 8.29167 7.41667C7.95907 7.24916 7.68187 7.09371 7.52083 6.95833C7.3598 6.82295 7.33333 6.77889 7.33333 6.66667C7.33333 6.30794 7.63055 6 8 6C8.37669 6 8.66667 6.28998 8.66667 6.66667H10C10 5.80534 9.43716 5.07048 8.66667 4.79167V4H7.33333ZM0.666667 7.33333C0.298477 7.33333 0 7.63181 0 8C0 8.36819 0.298477 8.66667 0.666667 8.66667C1.03486 8.66667 1.33333 8.36819 1.33333 8C1.33333 7.63181 1.03486 7.33333 0.666667 7.33333ZM1.22917 10.1458C1.14257 10.1452 1.06421 10.1523 0.979167 10.1875C0.639004 10.3284 0.463266 10.7223 0.604167 11.0625C0.745067 11.4027 1.139 11.5576 1.47917 11.4167C1.81933 11.2758 1.97423 10.8818 1.83333 10.5417C1.72766 10.2865 1.48896 10.1478 1.22917 10.1458ZM2.8125 12.5208C2.64189 12.5208 2.46351 12.5782 2.33333 12.7083C2.07298 12.9687 2.07298 13.4063 2.33333 13.6667C2.59368 13.927 3.03132 13.927 3.29167 13.6667C3.55202 13.4063 3.55202 12.9687 3.29167 12.7083C3.16149 12.5782 2.98311 12.5208 2.8125 12.5208ZM5.1875 14.1042C4.92771 14.1061 4.68901 14.2657 4.58333 14.5208C4.44243 14.861 4.59734 15.2549 4.9375 15.3958C5.27766 15.5367 5.6716 15.361 5.8125 15.0208C5.9534 14.6807 5.7985 14.3076 5.45833 14.1667C5.37329 14.1314 5.2741 14.1035 5.1875 14.1042Z" fill="#E3463C"/>
</svg>
