<svg width="153" height="152" viewBox="0 0 153 152" fill="none" xmlns="http://www.w3.org/2000/svg">
<g clip-path="url(#clip0_1106_16891)">
<path style="mix-blend-mode:multiply" opacity="0.5" d="M50.9138 27.3267C50.9138 27.3267 3.04133 69.2639 0.634699 105.079C-1.77193 140.894 44.2793 140.308 68.2156 130.592C92.1518 120.876 50.9138 27.3267 50.9138 27.3267Z" fill="url(#paint0_linear_1106_16891)"/>
<path style="mix-blend-mode:multiply" opacity="0.5" d="M38.7676 73.0039C38.7676 73.0039 9.61966 97.5174 10.4327 113.852C11.2458 130.186 24.5229 129.6 24.5961 134.365C24.6611 139.129 36.426 155.976 68.2244 151.138C107.568 145.154 108.446 119.909 108.901 102.485C109.357 85.0615 38.7757 73.012 38.7757 73.012L38.7676 73.0039Z" fill="url(#paint1_linear_1106_16891)"/>
<path d="M125.09 12.773C125.09 12.773 128.155 1.14639 141.164 1.66674C141.164 1.66674 139.936 13.1796 126.586 13.1877L125.082 12.773H125.09Z" fill="url(#paint2_radial_1106_16891)"/>
<g style="mix-blend-mode:soft-light">
<path d="M141.173 1.66675L125.099 12.773L127.091 12.7974C127.091 12.7974 138.392 12.8625 141.181 1.66675H141.173Z" fill="#BDE0FF"/>
</g>
<path d="M91.2491 51.4987C83.5414 48.84 40.035 73.2316 40.035 73.2316C39.8886 73.1991 39.7423 73.1747 39.5797 73.1503C39.3113 73.0934 39.0349 73.0446 38.7666 72.9958L60.532 107.339L80.3786 114.193L117.039 101.103C117.039 101.103 115.803 101.014 115.429 100.07C115.429 100.07 98.1356 53.8728 91.2491 51.4906V51.4987Z" fill="url(#paint3_linear_1106_16891)"/>
<path d="M47.2968 65.1985L50.9148 27.3266C51.1587 24.7655 53.4678 22.9117 56.0208 23.2207L96.2994 28.1478C98.8036 28.4567 100.584 30.7333 100.283 33.2375L95.7221 70.5159C95.4213 73.0038 93.1691 74.7763 90.6812 74.4998L51.3539 70.1663C48.8741 69.8898 47.0691 67.6783 47.3049 65.1904L47.2968 65.1985Z" fill="url(#paint4_linear_1106_16891)"/>
<path d="M97.1442 34.1399L92.8838 68.9385C92.6887 70.5646 91.209 71.7273 89.5828 71.5484L52.9874 67.5157C51.3613 67.3368 50.1824 65.8896 50.3368 64.2635L51.093 56.3606L53.7191 28.912C53.8817 27.2371 55.394 26.0257 57.0608 26.2289L94.5425 30.8145C96.1767 31.0178 97.3475 32.5057 97.1442 34.1481V34.1399Z" fill="url(#paint5_linear_1106_16891)"/>
<path d="M93.3151 65.3611L92.876 68.9466C92.6809 70.5727 91.2011 71.7354 89.575 71.5565L52.9796 67.5238C51.3535 67.3449 50.1746 65.8977 50.329 64.2716L51.0852 56.3687C51.0852 56.3687 54.5325 52.3441 57.9555 48.7098C60.7686 45.6933 63.5655 42.9371 64.3704 42.9127C64.9802 42.8964 66.3949 44.8396 67.9722 47.3926C70.9643 52.2384 74.5742 59.2469 74.5742 59.2469C74.5742 59.2469 75.4117 58.2062 76.5581 56.8891C78.5826 54.5556 81.5421 51.3603 82.5828 51.401C83.3714 51.4335 86.2253 55.1898 88.9571 59.0518C90.6157 61.3934 92.2256 63.7756 93.2988 65.3773L93.3151 65.3611Z" fill="url(#paint6_linear_1106_16891)"/>
<path d="M85.2503 44.3112C84.9738 46.5959 82.8924 48.222 80.6078 47.9374C78.3231 47.661 76.697 45.5796 76.9815 43.2949C77.258 41.0102 79.3394 39.3841 81.6241 39.6687C83.9087 39.9451 85.5348 42.0265 85.2503 44.3112Z" fill="white"/>
<path d="M55.8252 67.7597C55.8252 67.7597 71.4602 50.8563 73.444 50.8888C75.4279 50.9132 84.7861 71.0525 84.7861 71.0525L55.8252 67.7597Z" fill="url(#paint7_linear_1106_16891)"/>
<path d="M84.3721 29.5706L96.2426 41.4655L97.5923 30.473L84.3721 29.5706Z" fill="url(#paint8_linear_1106_16891)"/>
<path d="M52.5164 78.4677C52.5164 78.4677 39.2312 68.6541 41.6866 48.401C41.6866 48.401 57.1264 52.6777 58.533 77.305C58.533 77.305 56.915 80.2726 56.2321 80.6222C55.7198 80.8824 52.5164 78.4758 52.5164 78.4758V78.4677Z" fill="url(#paint9_linear_1106_16891)"/>
<g style="mix-blend-mode:soft-light">
<path d="M42.4508 49.7588L55.7848 79.7685L52.0448 77.2887C52.0448 77.2887 39.4831 65.7515 42.4508 49.7588Z" fill="#BDE0FF"/>
</g>
<path d="M45.3934 99.8672L58.638 57.9544C59.5324 55.1168 62.5894 53.5802 65.3945 54.5558L109.706 69.8656C112.462 70.8168 113.926 73.8251 112.974 76.5814L98.8028 117.592C97.8596 120.324 94.892 121.787 92.1439 120.876L48.7594 106.469C46.0194 105.559 44.5153 102.615 45.3853 99.8672H45.3934Z" fill="url(#paint10_linear_1106_16891)"/>
<path d="M109.217 76.8335L95.9886 115.12C95.3706 116.909 93.4275 117.868 91.6306 117.267L51.2626 103.859C49.4739 103.266 48.4901 101.339 49.0511 99.542L51.8155 90.7936L61.4176 60.418C62.003 58.5642 64.0031 57.556 65.8406 58.1902L107.079 72.4349C108.875 73.0528 109.835 75.0204 109.217 76.8253V76.8335Z" fill="url(#paint11_linear_1106_16891)"/>
<path style="mix-blend-mode:multiply" d="M97.3464 111.177L95.9886 115.12C95.3706 116.909 93.4275 117.868 91.6306 117.266L51.2626 103.859C49.4739 103.266 48.4901 101.339 49.0511 99.5419L51.8155 90.7934C51.8155 90.7934 56.6857 87.0859 61.4257 83.8012C65.3365 81.0693 69.1579 78.6383 70.0685 78.8009C70.7596 78.931 71.8816 81.4677 73.0524 84.7362V84.7525C75.2639 90.9398 77.6543 99.7208 77.6543 99.7208C77.6543 99.7208 78.8494 98.7451 80.4674 97.5336H80.4755C83.3212 95.3872 87.4353 92.5009 88.5979 92.7935C89.4842 93.0212 91.8013 97.9564 93.9478 102.973C95.2568 106.022 96.5008 109.103 97.322 111.169L97.3464 111.177Z" fill="url(#paint12_linear_1106_16891)"/>
<path d="M93.3153 85.4437C92.4453 87.956 89.7054 89.2894 87.193 88.4194C84.6807 87.5495 83.3473 84.8095 84.2173 82.2972C85.0872 79.7848 87.8272 78.4514 90.3395 79.3214C92.8519 80.1914 94.1853 82.9313 93.3153 85.4437Z" fill="white"/>
<path d="M54.4102 104.827C54.4102 104.827 76.1593 89.5089 78.3952 90.0211C80.6311 90.5333 86.3306 115.543 86.3306 115.543L54.4102 104.819V104.827Z" fill="url(#paint13_linear_1106_16891)"/>
<path d="M95.8916 68.5728L106.429 84.8826L110.608 72.8006L95.8916 68.5728Z" fill="url(#paint14_linear_1106_16891)"/>
<path d="M117.04 101.119C117.04 101.119 107.901 125.112 98.9416 139.975C98.9416 139.975 61.7688 129.478 28.9297 116.86C28.9297 116.86 31.3851 92.5009 38.7595 73.0039L60.5249 107.347L80.3715 114.201L117.032 101.111L117.04 101.119Z" fill="url(#paint15_linear_1106_16891)"/>
<path d="M38.7676 73.0039L40.0359 73.2397L60.9639 106.071L80.5991 112.852L115.43 100.079L117.04 101.119L80.3796 114.201L60.5248 107.347L38.7676 73.0039Z" fill="#FF69CF"/>
<path style="mix-blend-mode:screen" opacity="0.5" d="M30.5557 116.461L60.5329 107.347L80.3795 114.201L98.9496 139.967C98.9496 139.967 40.9871 121.527 30.5557 116.453V116.461Z" fill="url(#paint16_linear_1106_16891)"/>
<path d="M60.9638 106.071L59.9475 106.437L30.5557 116.462L60.5247 107.347L60.9638 106.071Z" fill="#A90C77"/>
<path d="M80.5994 112.852L81.3962 113.844L98.9418 139.967L80.3799 114.201L80.5994 112.852Z" fill="#A90C77"/>
<path style="mix-blend-mode:multiply" opacity="0.5" d="M45.0603 112.047C45.0603 112.047 35.8891 116.283 35.4907 119.332L28.9375 116.86L45.0603 112.047Z" fill="url(#paint17_linear_1106_16891)"/>
<path style="mix-blend-mode:multiply" opacity="0.5" d="M89.0303 126.218C89.0303 126.218 93.8923 133.836 93.1687 138.3L98.9495 139.975L89.0384 126.218H89.0303Z" fill="url(#paint18_linear_1106_16891)"/>
<path d="M146.408 51.0596L144.562 54.8485C144.562 54.8485 127.724 62.3692 116.13 71.7355L106.812 60.4341L106.251 55.0111L146.399 51.0515L146.408 51.0596Z" fill="url(#paint19_radial_1106_16891)"/>
<path d="M106.259 55.0192C106.259 55.0192 120.821 41.6364 134.618 35.0751L146.408 51.0597C146.408 51.0597 127.187 58.9381 116.414 67.3126L106.251 55.0192H106.259Z" fill="url(#paint20_radial_1106_16891)"/>
<path d="M122.779 55.6777C122.975 55.9623 123.113 56.2306 123.202 56.4826C123.292 56.7347 123.34 56.9704 123.349 57.19C123.357 57.4095 123.34 57.6046 123.292 57.7835C123.243 57.9624 123.178 58.125 123.088 58.2632C123.007 58.4014 122.918 58.5234 122.82 58.6291C122.723 58.7266 122.633 58.8079 122.552 58.8649C122.511 58.8974 122.446 58.9299 122.373 58.9787C122.292 59.0275 122.202 59.0681 122.088 59.1169C121.983 59.1657 121.853 59.2145 121.714 59.2551C121.576 59.3039 121.422 59.3364 121.251 59.3689L120.381 57.9786C120.714 58.0111 120.983 58.003 121.194 57.9461C121.405 57.8892 121.56 57.8241 121.674 57.751C121.893 57.5965 122.007 57.4014 122.007 57.1656C122.007 56.9298 121.918 56.6777 121.747 56.4257C121.625 56.255 121.454 56.0923 121.227 55.9379C120.999 55.7834 120.69 55.6533 120.308 55.5557C120.039 55.4826 119.771 55.4094 119.487 55.3362C119.202 55.263 118.926 55.1573 118.649 55.0354C118.373 54.9134 118.113 54.7589 117.869 54.5719C117.617 54.3849 117.397 54.1492 117.202 53.8727C116.958 53.515 116.795 53.1735 116.714 52.8401C116.633 52.5149 116.617 52.206 116.657 51.9214C116.706 51.6368 116.804 51.3766 116.958 51.149C117.112 50.9213 117.308 50.7262 117.535 50.5636C117.739 50.4254 117.966 50.3034 118.218 50.214C118.47 50.1245 118.739 50.0595 119.031 50.027L119.861 51.4498C119.69 51.3929 119.527 51.3685 119.373 51.3685C119.218 51.3685 119.088 51.3848 118.966 51.4173C118.844 51.4498 118.747 51.4823 118.657 51.5311C118.568 51.5718 118.503 51.6124 118.446 51.6531C118.34 51.7263 118.267 51.8157 118.21 51.9295C118.161 52.0433 118.129 52.1653 118.129 52.2954C118.129 52.4255 118.153 52.5637 118.194 52.7101C118.243 52.8564 118.308 52.9946 118.397 53.1247C118.535 53.328 118.706 53.4825 118.909 53.5881C119.113 53.6938 119.332 53.7833 119.576 53.8483C119.82 53.9215 120.072 53.9865 120.34 54.0516C120.609 54.1166 120.885 54.2142 121.161 54.328C121.438 54.45 121.714 54.6207 121.991 54.8321C122.267 55.0435 122.527 55.3362 122.779 55.6939V55.6777Z" fill="white"/>
<path d="M126.893 55.7102C126.706 55.4744 126.519 55.2386 126.332 55.0028C126.145 54.767 125.95 54.5231 125.755 54.2873C125.593 54.3849 125.43 54.4825 125.276 54.5719C125.121 54.6613 124.967 54.7589 124.82 54.8646L124.747 54.9134C124.91 55.1817 125.064 55.45 125.219 55.7102C125.373 55.9704 125.536 56.2305 125.698 56.4826L124.341 57.3851C123.682 55.9541 123.007 54.5475 122.316 53.1572C121.625 51.7669 120.893 50.3847 120.129 49.0025L121.763 47.9211C122.779 49.1001 123.812 50.2546 124.869 51.3847C125.926 52.5149 127.024 53.6288 128.162 54.7264L126.893 55.7264V55.7102ZM121.885 49.7749C122.267 50.4823 122.649 51.1815 123.04 51.8807C123.422 52.5799 123.82 53.2792 124.227 53.9784C124.308 53.9377 124.389 53.8808 124.462 53.832C124.544 53.7751 124.625 53.7263 124.706 53.6694L125.056 53.4336C124.536 52.8157 124.015 52.1978 123.487 51.5961C122.958 50.9945 122.43 50.3847 121.893 49.783L121.885 49.7749Z" fill="white"/>
<path d="M131.35 52.5881C131.146 52.7182 130.943 52.8483 130.756 52.9703C130.569 53.0922 130.382 53.2223 130.195 53.3524C129.919 53.5475 129.642 53.7345 129.382 53.9378C129.114 54.1329 128.845 54.3362 128.569 54.5557C128.146 53.8646 127.715 53.1898 127.284 52.5312C126.853 51.8645 126.414 51.1978 125.951 50.5311C125.512 49.8969 125.073 49.2709 124.626 48.653C124.178 48.0351 123.715 47.4253 123.235 46.8155C123.276 46.7911 123.317 46.7667 123.365 46.7342C123.406 46.7098 123.455 46.6773 123.512 46.6366C123.569 46.596 123.634 46.5553 123.707 46.5065C123.821 46.4252 123.943 46.3358 124.073 46.2382C124.203 46.1406 124.333 46.0431 124.463 45.9374C124.772 46.4821 125.114 47.0513 125.479 47.6285C125.853 48.2058 126.236 48.7912 126.626 49.3766C127.024 49.962 127.414 50.5393 127.813 51.1246C128.211 51.7019 128.585 52.2629 128.943 52.8077C129.228 52.5963 129.504 52.3849 129.764 52.1735C130.024 51.9621 130.301 51.7263 130.577 51.4661L131.35 52.5881Z" fill="white"/>
<path d="M131.974 47.9131C131.861 47.9863 131.739 48.0513 131.625 48.1326C131.511 48.2058 131.389 48.2871 131.275 48.3603C131.21 48.4009 131.145 48.4497 131.08 48.5066C131.015 48.5554 130.942 48.6042 130.877 48.653L132.17 50.5799C132.454 50.3685 132.731 50.1571 132.991 49.9457C133.251 49.7343 133.527 49.4985 133.804 49.2384L134.576 50.3604C134.373 50.4904 134.178 50.6205 133.983 50.7425C133.796 50.8645 133.609 50.9945 133.422 51.1246C133.145 51.3198 132.869 51.5068 132.609 51.71C132.34 51.9052 132.072 52.1084 131.796 52.3279C131.373 51.6369 130.942 50.962 130.511 50.3034C130.08 49.6367 129.641 48.97 129.178 48.3033C128.738 47.6692 128.299 47.0431 127.852 46.4252C127.405 45.8073 126.942 45.1975 126.462 44.5877C126.909 44.3275 127.316 44.0673 127.698 43.8072C127.942 43.6364 128.177 43.4657 128.413 43.2868C128.649 43.1079 128.893 42.9128 129.153 42.7014L129.999 43.9373C129.747 44.0511 129.511 44.173 129.283 44.3031C129.056 44.4332 128.828 44.5714 128.617 44.7178L128.405 44.8641C128.673 45.3357 128.958 45.7991 129.251 46.2463C129.543 46.6935 129.836 47.1488 130.137 47.6041C130.234 47.5472 130.332 47.4822 130.421 47.4171C130.519 47.3521 130.617 47.287 130.714 47.2139C130.795 47.1569 130.877 47.1 130.966 47.0431C131.056 46.9862 131.137 46.9212 131.218 46.8561L131.958 47.9293L131.974 47.9131Z" fill="white"/>
<g style="mix-blend-mode:multiply">
<path d="M116.138 71.7355L116.422 67.3125C116.422 67.3125 133.009 54.8565 146.416 51.0596L144.57 54.8484C144.57 54.8484 128.455 61.8406 116.138 71.7355Z" fill="#6E4298"/>
</g>
<path d="M109.114 0C106.195 7.52073 104.674 12.2933 103.609 19.9442L123.432 26.7901C127.131 20.8304 129.294 15.8708 131.432 7.70773C123.488 4.17908 118.147 2.29281 109.114 0Z" fill="url(#paint21_linear_1106_16891)"/>
<path d="M103.609 19.9442L105.284 21.7167L121.895 27.4568L123.432 26.7901L103.609 19.9442Z" fill="url(#paint22_linear_1106_16891)"/>
<path d="M121.155 9.82981C120.659 10.3339 120.115 10.8949 119.513 11.5291C118.92 12.1633 118.285 12.8544 117.611 13.6024C116.936 14.3504 116.236 15.1553 115.505 16.009C114.773 16.8627 114.017 17.7652 113.236 18.7083C113.066 18.6026 112.895 18.4969 112.732 18.3994C112.594 18.3181 112.44 18.2368 112.277 18.1473C112.114 18.066 111.968 18.001 111.838 17.9685C112.277 17.5619 112.74 17.1066 113.236 16.6025C113.732 16.0984 114.236 15.5781 114.749 15.0333C115.261 14.4886 115.765 13.9439 116.261 13.3828C116.757 12.8218 117.228 12.2852 117.676 11.7649C118.123 11.2445 118.521 10.7567 118.887 10.3014C119.253 9.84607 119.554 9.44768 119.798 9.1062L121.155 9.82981ZM117.456 10.8624C117.285 11.3502 117.09 11.7567 116.871 12.082C116.651 12.3991 116.415 12.6511 116.163 12.8218C115.911 13.0007 115.659 13.0983 115.391 13.1308C115.123 13.1633 114.862 13.1308 114.61 13.0495C114.358 12.9601 114.131 12.8218 113.944 12.6348C113.749 12.4478 113.61 12.2039 113.521 11.9194C113.431 11.6348 113.399 11.2933 113.423 10.8949C113.448 10.5046 113.545 10.0575 113.716 9.56151C113.895 9.04115 114.098 8.61836 114.318 8.29314C114.537 7.96792 114.773 7.72401 115.025 7.5614C115.269 7.39879 115.529 7.30935 115.789 7.29309C116.058 7.27683 116.31 7.30935 116.57 7.39879C116.822 7.48822 117.05 7.62644 117.237 7.80531C117.432 7.99232 117.57 8.2281 117.659 8.51267C117.749 8.79724 117.781 9.13872 117.765 9.52898C117.741 9.91925 117.643 10.3583 117.472 10.8543L117.456 10.8624ZM116.196 10.4233C116.44 9.72411 116.554 9.19563 116.545 8.83789C116.537 8.48828 116.448 8.27688 116.277 8.21997C116.188 8.18745 116.09 8.19558 115.993 8.23623C115.895 8.27688 115.789 8.36632 115.684 8.50454C115.578 8.64276 115.464 8.83789 115.342 9.0818C115.22 9.32572 115.098 9.63468 114.976 10.0006C114.732 10.7079 114.619 11.2364 114.627 11.5941C114.627 11.96 114.724 12.1714 114.903 12.2283C115.082 12.2934 115.277 12.1795 115.505 11.895C115.732 11.6104 115.968 11.1226 116.204 10.4233H116.196ZM119.35 18.375C119.18 18.8628 118.985 19.2693 118.757 19.5946C118.537 19.9198 118.294 20.1637 118.05 20.3344C117.798 20.5052 117.546 20.6027 117.277 20.6353C117.009 20.6678 116.749 20.6353 116.497 20.5458C116.245 20.4564 116.017 20.3182 115.83 20.1312C115.635 19.9442 115.497 19.7084 115.407 19.4157C115.318 19.1311 115.285 18.7896 115.31 18.3994C115.334 18.0091 115.432 17.5619 115.602 17.066C115.781 16.5537 115.984 16.131 116.204 15.8057C116.423 15.4805 116.659 15.2366 116.911 15.074C117.155 14.9114 117.415 14.8219 117.676 14.7976C117.936 14.7813 118.196 14.8138 118.456 14.8951C118.708 14.9846 118.936 15.1228 119.131 15.3098C119.326 15.4968 119.464 15.7326 119.562 16.0171C119.651 16.3017 119.684 16.6432 119.668 17.0335C119.643 17.4237 119.546 17.8628 119.375 18.3587L119.35 18.375ZM118.074 17.9359C118.318 17.2367 118.432 16.7164 118.424 16.3586C118.424 16.0009 118.326 15.7976 118.147 15.7326C118.058 15.7 117.96 15.7082 117.863 15.7488C117.765 15.7895 117.659 15.887 117.554 16.0253C117.448 16.1635 117.334 16.3505 117.212 16.5944C117.098 16.8383 116.976 17.1391 116.846 17.5132C116.602 18.2205 116.48 18.7571 116.497 19.1149C116.505 19.4726 116.602 19.6759 116.773 19.7409C116.952 19.806 117.147 19.6921 117.375 19.4157C117.602 19.1393 117.838 18.6433 118.074 17.9441V17.9359Z" fill="white"/>
<path d="M43.3447 11.1308C44.1334 19.1637 44.9302 24.1071 47.4344 31.4083L68.2078 28.5789C68.8176 21.5866 68.5168 16.1879 66.7362 7.9436C58.0528 8.38265 52.4346 9.10627 43.3447 11.1308Z" fill="url(#paint23_linear_1106_16891)"/>
<path d="M47.4346 31.4083L49.7274 32.2376L67.1511 29.8635L68.2162 28.5789L47.4346 31.4083Z" fill="url(#paint24_linear_1106_16891)"/>
<path d="M55.7195 17.0741C55.7926 17.5863 55.8008 18.0416 55.7439 18.4238C55.6869 18.8059 55.5894 19.1392 55.443 19.4076C55.2967 19.6759 55.1178 19.8872 54.8901 20.0336C54.6706 20.1881 54.4267 20.2775 54.1584 20.31C53.8901 20.3426 53.6299 20.3263 53.3697 20.245C53.1096 20.1637 52.8819 20.0173 52.6705 19.7978C52.4591 19.5783 52.2803 19.2937 52.1176 18.9278C51.9632 18.5701 51.8493 18.1229 51.7762 17.6026C51.703 17.0578 51.6949 16.5863 51.7436 16.196C51.8006 15.8057 51.8981 15.4805 52.0445 15.2285C52.1908 14.9683 52.3778 14.7732 52.6055 14.6431C52.8331 14.513 53.077 14.4235 53.3454 14.3829C53.6137 14.3504 53.8738 14.3666 54.1259 14.4479C54.3779 14.5292 54.6137 14.6756 54.8251 14.887C55.0365 15.0984 55.2154 15.3911 55.378 15.7407C55.5325 16.0984 55.6463 16.5375 55.7195 17.0578V17.0741ZM54.3942 17.253C54.2966 16.5131 54.1584 15.9927 53.9877 15.6838C53.8169 15.3748 53.6462 15.2285 53.4673 15.2529C53.3697 15.2691 53.2884 15.3179 53.2234 15.3911C53.1502 15.4724 53.1014 15.6025 53.0689 15.7732C53.0364 15.9439 53.0201 16.1716 53.0201 16.4399C53.0201 16.7082 53.0527 17.0416 53.1096 17.4318C53.2071 18.1717 53.3454 18.7002 53.5161 19.0173C53.6868 19.3344 53.8657 19.4807 54.0446 19.4563C54.2316 19.4319 54.3617 19.2449 54.4348 18.8872C54.508 18.5295 54.4999 17.9847 54.3942 17.2611V17.253ZM58.5489 14.4805C58.3294 15.1472 58.0936 15.9033 57.8497 16.7326C57.6057 17.5619 57.3537 18.4644 57.0854 19.4401C56.8252 20.4076 56.5569 21.4402 56.2886 22.5378C56.0203 23.6354 55.752 24.7737 55.4837 25.9689C55.2804 25.9526 55.0853 25.9364 54.8983 25.9201C54.7357 25.912 54.5649 25.9038 54.3779 25.9038C54.1991 25.9038 54.0364 25.912 53.9064 25.9364C54.1177 25.3753 54.3291 24.7656 54.5405 24.0907C54.7601 23.4159 54.9715 22.7248 55.1828 22.0093C55.3942 21.2938 55.5975 20.5783 55.7845 19.8547C55.9715 19.1311 56.1585 18.44 56.313 17.7733C56.4756 17.1066 56.6138 16.4887 56.7358 15.9196C56.8577 15.3504 56.9472 14.8545 57.0041 14.4398L58.5408 14.4723L58.5489 14.4805ZM60.7929 22.9199C60.8661 23.4322 60.8742 23.8875 60.8173 24.2777C60.7604 24.668 60.6628 24.9932 60.5165 25.2615C60.3701 25.5298 60.1831 25.7331 59.9636 25.8794C59.7359 26.0258 59.492 26.1152 59.2237 26.1559C58.9554 26.1884 58.6952 26.1721 58.4351 26.0908C58.1749 26.0095 57.9472 25.8632 57.7358 25.6518C57.5244 25.4404 57.3456 25.1477 57.183 24.79C57.0285 24.4322 56.9146 23.985 56.8415 23.4647C56.7683 22.9281 56.7602 22.4646 56.8089 22.0744C56.8659 21.6841 56.9634 21.3589 57.1098 21.1068C57.2561 20.8548 57.4431 20.6515 57.6708 20.5133C57.8984 20.3751 58.1424 20.2856 58.4107 20.2531C58.679 20.2206 58.9391 20.2369 59.1993 20.3182C59.4595 20.3995 59.6872 20.5458 59.8985 20.7572C60.1099 20.9686 60.2888 21.2532 60.4433 21.6109C60.5978 21.9687 60.7116 22.4077 60.7848 22.9281L60.7929 22.9199ZM59.4595 23.0988C59.3619 22.3671 59.2237 21.8467 59.0611 21.5296C58.8985 21.2207 58.7196 21.0743 58.5326 21.0987C58.4351 21.115 58.3537 21.1637 58.2887 21.245C58.2155 21.3264 58.1667 21.4564 58.1342 21.6272C58.1017 21.7979 58.0854 22.0174 58.0854 22.2858C58.0854 22.5541 58.118 22.8793 58.1667 23.2695C58.2643 24.0094 58.4025 24.5379 58.5733 24.855C58.744 25.1721 58.9148 25.3103 59.1018 25.2859C59.2888 25.2615 59.4188 25.0745 59.492 24.7249C59.5652 24.3753 59.5571 23.8306 59.4514 23.0907L59.4595 23.0988Z" fill="white"/>
<path d="M115.887 82.6631C115.887 82.6631 123.871 69.638 139.514 75.0285C139.514 75.0285 133.806 88.5902 117.562 83.7119L115.887 82.6631Z" fill="url(#paint25_radial_1106_16891)"/>
<g style="mix-blend-mode:soft-light">
<path d="M139.514 75.0286L115.887 82.6631L118.301 83.4193C118.301 83.4193 132.034 87.6309 139.514 75.0286Z" fill="#BDE0FF"/>
</g>
<path d="M114.91 94.4684L120.65 89.4113L121.919 91.7122L116.983 95.1839L114.91 94.4684Z" fill="#9A7DF8"/>
<path d="M46.4346 43.7585L48.2558 41.6445L44.8003 36.8069L41.4912 37.8639L46.4346 43.7585Z" fill="#4F31E0"/>
<path d="M103.146 39.4574L107.78 37.9208L108.894 39.9697L103.186 40.7095L103.146 39.4574Z" fill="#FF1D9C"/>
<path d="M141.781 24.7331L153.001 22.8875L152.627 27.2129H141.659L141.781 24.7331Z" fill="#6877FF"/>
<g style="mix-blend-mode:multiply" opacity="0.5">
<path d="M50.1025 35.8556L63.8187 33.8393L63.9407 30.3025L50.4522 32.14L50.1025 35.8556Z" fill="#B975B6"/>
</g>
</g>
<defs>
<linearGradient id="paint0_linear_1106_16891" x1="0.545264" y1="81.793" x2="75.6875" y2="81.793" gradientUnits="userSpaceOnUse">
<stop offset="0.13" stop-color="white"/>
<stop offset="1" stop-color="#BF7CFF"/>
</linearGradient>
<linearGradient id="paint1_linear_1106_16891" x1="15.9696" y1="130.251" x2="104.438" y2="90.8585" gradientUnits="userSpaceOnUse">
<stop offset="0.13" stop-color="white"/>
<stop offset="1" stop-color="#F468A9"/>
</linearGradient>
<radialGradient id="paint2_radial_1106_16891" cx="0" cy="0" r="1" gradientUnits="userSpaceOnUse" gradientTransform="translate(134.93 1.56073) rotate(12.67) scale(10.1388)">
<stop stop-color="#3996F7"/>
<stop offset="1" stop-color="#6840D5"/>
</radialGradient>
<linearGradient id="paint3_linear_1106_16891" x1="69.7752" y1="110.545" x2="90.2884" y2="51.1725" gradientUnits="userSpaceOnUse">
<stop stop-color="#BA0065"/>
<stop offset="1" stop-color="#63004A"/>
</linearGradient>
<linearGradient id="paint4_linear_1106_16891" x1="70.4206" y1="72.5167" x2="76.1533" y2="25.693" gradientUnits="userSpaceOnUse">
<stop stop-color="#D1BBFF"/>
<stop offset="1" stop-color="#DACFFF"/>
</linearGradient>
<linearGradient id="paint5_linear_1106_16891" x1="70.7567" y1="69.6991" x2="75.7977" y2="28.5247" gradientUnits="userSpaceOnUse">
<stop stop-color="#D1BBFF"/>
<stop offset="1" stop-color="white"/>
</linearGradient>
<linearGradient id="paint6_linear_1106_16891" x1="71.1202" y1="69.7436" x2="74.2582" y2="44.1124" gradientUnits="userSpaceOnUse">
<stop stop-color="#E1BDFF"/>
<stop offset="1" stop-color="#B17FFF"/>
</linearGradient>
<linearGradient id="paint7_linear_1106_16891" x1="70.2856" y1="69.535" x2="72.5808" y2="50.7878" gradientUnits="userSpaceOnUse">
<stop stop-color="#CF95FF"/>
<stop offset="1" stop-color="#9552FF"/>
</linearGradient>
<linearGradient id="paint8_linear_1106_16891" x1="89.6796" y1="40.6597" x2="91.0243" y2="29.6761" gradientUnits="userSpaceOnUse">
<stop stop-color="#D1BBFF"/>
<stop offset="1" stop-color="#DACFFF"/>
</linearGradient>
<linearGradient id="paint9_linear_1106_16891" x1="47.5958" y1="79.3437" x2="52.0627" y2="49.9808" gradientUnits="userSpaceOnUse">
<stop stop-color="#1C257B"/>
<stop offset="1" stop-color="#6A2C9A"/>
</linearGradient>
<linearGradient id="paint10_linear_1106_16891" x1="69.7435" y1="113.725" x2="87.5406" y2="62.2143" gradientUnits="userSpaceOnUse">
<stop stop-color="#D1BBFF"/>
<stop offset="1" stop-color="#DACFFF"/>
</linearGradient>
<linearGradient id="paint11_linear_1106_16891" x1="70.7998" y1="110.615" x2="86.4489" y2="65.3214" gradientUnits="userSpaceOnUse">
<stop stop-color="#744FD8"/>
<stop offset="1" stop-color="#3996F7"/>
</linearGradient>
<linearGradient id="paint12_linear_1106_16891" x1="71.1994" y1="110.753" x2="80.9409" y2="82.558" gradientUnits="userSpaceOnUse">
<stop stop-color="#CC8BA1"/>
<stop offset="1" stop-color="#C4C9FF"/>
</linearGradient>
<linearGradient id="paint13_linear_1106_16891" x1="70.3154" y1="110.327" x2="77.4443" y2="89.6936" gradientUnits="userSpaceOnUse">
<stop stop-color="#1C257B"/>
<stop offset="1" stop-color="#6A2C9A"/>
</linearGradient>
<linearGradient id="paint14_linear_1106_16891" x1="99.1991" y1="82.3972" x2="103.376" y2="70.309" gradientUnits="userSpaceOnUse">
<stop stop-color="#D1BBFF"/>
<stop offset="1" stop-color="#DACFFF"/>
</linearGradient>
<linearGradient id="paint15_linear_1106_16891" x1="63.3382" y1="129.129" x2="78.0421" y2="86.5709" gradientUnits="userSpaceOnUse">
<stop stop-color="#B4198E"/>
<stop offset="0.15" stop-color="#CF1688"/>
<stop offset="0.3" stop-color="#E41483"/>
<stop offset="0.47" stop-color="#F21280"/>
<stop offset="0.68" stop-color="#FB117E"/>
<stop offset="1" stop-color="#FE117E"/>
</linearGradient>
<linearGradient id="paint16_linear_1106_16891" x1="64.5267" y1="128.826" x2="70.729" y2="110.874" gradientUnits="userSpaceOnUse">
<stop/>
<stop offset="1" stop-color="#C14547"/>
</linearGradient>
<linearGradient id="paint17_linear_1106_16891" x1="35.3185" y1="119.276" x2="38.5869" y2="109.817" gradientUnits="userSpaceOnUse">
<stop stop-color="#CC8BA1"/>
<stop offset="1" stop-color="white"/>
</linearGradient>
<linearGradient id="paint18_linear_1106_16891" x1="92.2809" y1="138.002" x2="95.5706" y2="128.481" gradientUnits="userSpaceOnUse">
<stop stop-color="#CC8BA1"/>
<stop offset="1" stop-color="white"/>
</linearGradient>
<radialGradient id="paint19_radial_1106_16891" cx="0" cy="0" r="1" gradientUnits="userSpaceOnUse" gradientTransform="translate(124.588 59.6462) rotate(14.77) scale(16.5781)">
<stop stop-color="#A157FF"/>
<stop offset="1" stop-color="#63399A"/>
</radialGradient>
<radialGradient id="paint20_radial_1106_16891" cx="0" cy="0" r="1" gradientUnits="userSpaceOnUse" gradientTransform="translate(119.01 40.6189) rotate(14.77) scale(21.1881)">
<stop stop-color="#FF81FF"/>
<stop offset="1" stop-color="#9552FF"/>
</radialGradient>
<linearGradient id="paint21_linear_1106_16891" x1="113.598" y1="23.3976" x2="120.525" y2="3.34798" gradientUnits="userSpaceOnUse">
<stop stop-color="#744FD8"/>
<stop offset="1" stop-color="#3996F7"/>
</linearGradient>
<linearGradient id="paint22_linear_1106_16891" x1="113.142" y1="24.4443" x2="113.514" y2="23.3684" gradientUnits="userSpaceOnUse">
<stop stop-color="#1C257B"/>
<stop offset="1" stop-color="#482C83"/>
</linearGradient>
<linearGradient id="paint23_linear_1106_16891" x1="57.911" y1="29.9852" x2="55.0457" y2="8.95892" gradientUnits="userSpaceOnUse">
<stop stop-color="#B4198E"/>
<stop offset="0.15" stop-color="#CF1688"/>
<stop offset="0.3" stop-color="#E41483"/>
<stop offset="0.47" stop-color="#F21280"/>
<stop offset="0.68" stop-color="#FB117E"/>
<stop offset="1" stop-color="#FE117E"/>
</linearGradient>
<linearGradient id="paint24_linear_1106_16891" x1="48.9734" y1="26.9609" x2="66.66" y2="33.0682" gradientUnits="userSpaceOnUse">
<stop stop-color="#BA0065"/>
<stop offset="1" stop-color="#63004A"/>
</linearGradient>
<radialGradient id="paint25_radial_1106_16891" cx="0" cy="0" r="1" gradientUnits="userSpaceOnUse" gradientTransform="translate(131.959 72.6103) rotate(29.41) scale(12.8787 12.8787)">
<stop stop-color="#3996F7"/>
<stop offset="1" stop-color="#6840D5"/>
</radialGradient>
<clipPath id="clip0_1106_16891">
<rect width="152.455" height="152" fill="white" transform="translate(0.544922)"/>
</clipPath>
</defs>
</svg>
