<svg width="16" height="16" viewBox="0 0 16 16" fill="none" xmlns="http://www.w3.org/2000/svg">
<path fill-rule="evenodd" clip-rule="evenodd" d="M2.90399 3.96465C2.02496 5.07323 1.5 6.47531 1.5 8C1.5 11.5899 4.41015 14.5 8 14.5C9.52469 14.5 10.9268 13.975 12.0354 13.096L2.90399 3.96465ZM3.96465 2.90399L13.096 12.0354C13.975 10.9268 14.5 9.52469 14.5 8C14.5 4.41015 11.5899 1.5 8 1.5C6.47531 1.5 5.07323 2.02496 3.96465 2.90399ZM0 8C0 3.58172 3.58172 0 8 0C12.4183 0 16 3.58172 16 8C16 12.4183 12.4183 16 8 16C3.58172 16 0 12.4183 0 8Z" fill="#1A2C37"/>
</svg>
