<svg width="16" height="16" viewBox="0 0 16 16" fill="none" xmlns="http://www.w3.org/2000/svg">
<path fill-rule="evenodd" clip-rule="evenodd" d="M0 8C0 3.58172 3.58172 0 8 0C12.4183 0 16 3.58172 16 8C16 12.4183 12.4183 16 8 16C3.58172 16 0 12.4183 0 8ZM8 1.5C4.41015 1.5 1.5 4.41015 1.5 8C1.5 11.5899 4.41015 14.5 8 14.5C11.5899 14.5 14.5 11.5899 14.5 8C14.5 4.41015 11.5899 1.5 8 1.5ZM10.6233 5.09948C10.9825 5.30563 11.1067 5.76399 10.9005 6.12326L8.6069 10.1206C7.90211 11.3488 6.10629 11.275 5.50475 9.99296L5.07103 9.06858C4.89508 8.69359 5.05643 8.24697 5.43142 8.07103C5.80641 7.89508 6.25303 8.05643 6.42897 8.43142L6.8627 9.3558C6.94864 9.53895 7.20518 9.5495 7.30586 9.37403L9.59948 5.37674C9.80563 5.01747 10.264 4.89333 10.6233 5.09948Z" fill="#1BBC35"/>
</svg>
