<svg width="18" height="18" viewBox="0 0 18 18" fill="none" xmlns="http://www.w3.org/2000/svg">
<path d="M13.4168 4.23113C14.1169 4.87981 14.6739 5.68072 15.0351 6.58125L15.0339 6.58171C15.1011 6.74995 15.1619 6.92262 15.216 7.09959C15.2701 7.27655 15.3163 7.45373 15.3547 7.63075C15.4493 8.07226 15.5 8.53022 15.5 9C15.5 9.90833 15.3137 10.7731 14.9772 11.5583L14.9759 11.5577C14.8319 11.8935 14.66 12.2168 14.4621 12.5239C14.1663 12.9816 13.8149 13.4 13.4168 13.7689C12.8386 14.3047 12.1627 14.7366 11.4188 15.0351L11.4184 15.0339C11.2501 15.101 11.0774 15.1619 10.9005 15.216C10.7235 15.2701 10.5463 15.3162 10.3693 15.3546C9.92779 15.4493 9.46982 15.5 9.00002 15.5C8.09171 15.5 7.2269 15.3137 6.44175 14.9772L6.44234 14.9758C6.10657 14.8319 5.78326 14.6599 5.47615 14.4621C5.34315 14.3761 5.21315 14.2859 5.08707 14.1907L4.3176 15.4872C5.26554 16.1726 6.36967 16.6554 7.56644 16.8719C8.00505 16.9522 8.45269 16.9963 8.90515 17.0016L8.90517 16.9995C8.93675 16.9998 8.96836 17 9.00002 17C10.6914 17 12.2602 16.4751 13.5524 15.5794L13.5532 15.5805C13.9253 15.3232 14.2719 15.0364 14.5907 14.7246L14.5895 14.7234C15.7523 13.5877 16.5703 12.1005 16.8719 10.4336C16.9522 9.99501 16.9964 9.54738 17.0016 9.09491L16.9995 9.09489C16.9998 9.0633 17 9.03167 17 9C17 7.30865 16.4752 5.73989 15.5794 4.44772L15.5806 4.44689C15.3232 4.07472 15.0365 3.72811 14.7247 3.40937L14.7235 3.41055C14.6124 3.2968 14.4979 3.18636 14.3803 3.07937C13.2951 2.09265 11.9375 1.4002 10.4337 1.1281C9.99507 1.04785 9.54743 1.00367 9.09497 0.998417L9.09495 1.00055C9.06335 1.00019 9.03171 1 9.00002 1L9 2.5C9.90835 2.5 10.7732 2.68632 11.5584 3.02283L11.5578 3.02419C11.8936 3.16815 12.2169 3.34006 12.524 3.53793C12.8416 3.74329 13.1405 3.9751 13.4168 4.23113Z" fill="#265CF2"/>
<path d="M7.31283 1.17949L7.63081 2.6454C7.45378 2.6838 7.27661 2.72992 7.09964 2.78402C6.92268 2.83813 6.75 2.89896 6.58177 2.96612L6.02566 1.57302C6.23244 1.49047 6.44433 1.41583 6.66109 1.34957C6.87784 1.2833 7.09524 1.22669 7.31283 1.17949Z" fill="#265CF2"/>
<path d="M4.44694 2.41946L5.30012 3.6532C4.99832 3.8619 4.71711 4.09451 4.45834 4.34765L3.40943 3.27537C3.72817 2.96357 4.07477 2.67683 4.44694 2.41946Z" fill="#265CF2"/>
<path d="M2.27704 4.66368L3.53798 5.47609C3.34012 5.7832 3.16821 6.10651 3.02425 6.44228L1.64562 5.85121C1.82256 5.4385 2.03383 5.04115 2.27704 4.66368Z" fill="#265CF2"/>
<path d="M1.12788 7.56633L2.60338 7.83631C2.53823 8.1924 2.50263 8.55561 2.49837 8.92251L0.998474 8.90509C1.00373 8.45263 1.04763 8.00494 1.12788 7.56633Z" fill="#265CF2"/>
<path d="M1.17955 10.6872C1.22674 10.9048 1.28335 11.1222 1.34962 11.339C1.41589 11.5557 1.49053 11.7676 1.57307 11.9744L2.96618 11.4183C2.89902 11.2501 2.83818 11.0774 2.78408 10.9004C2.72998 10.7235 2.68386 10.5463 2.64546 10.3693L1.17955 10.6872Z" fill="#265CF2"/>
<path d="M2.41952 13.5531L3.65325 12.6999C3.86195 13.0017 4.09457 13.2829 4.3477 13.5417L3.27543 14.5906C2.96362 14.2719 2.67689 13.9253 2.41952 13.5531Z" fill="#265CF2"/>
<path d="M11.9005 7.12326C12.1067 6.76399 11.9826 6.30563 11.6233 6.09948C11.264 5.89334 10.8057 6.01747 10.5995 6.37674L8.30589 10.374C8.2933 10.396 8.27828 10.415 8.26147 10.4311C8.14374 10.5442 7.93792 10.5161 7.86273 10.3558L7.429 9.43142C7.25305 9.05643 6.80643 8.89508 6.43144 9.07103C6.38457 9.09302 6.34104 9.11924 6.30108 9.14903C6.02139 9.35751 5.9171 9.74047 6.07105 10.0686L6.50478 10.993C6.57997 11.1532 6.67382 11.2946 6.78187 11.4169C7.53822 12.2731 8.99024 12.1953 9.60693 11.1206L11.9005 7.12326Z" fill="#265CF2"/>
</svg>
