<svg width="16" height="17" viewBox="0 0 16 17" fill="none" xmlns="http://www.w3.org/2000/svg">
<path fill-rule="evenodd" clip-rule="evenodd" d="M6 3C5.17157 3 4.5 3.67157 4.5 4.5C4.5 5.32843 5.17157 6 6 6C6.82843 6 7.5 5.32843 7.5 4.5C7.5 3.67157 6.82843 3 6 3ZM3.09451 3.75C3.42755 2.45608 4.60212 1.5 6 1.5C7.39788 1.5 8.57245 2.45608 8.90549 3.75H15.25C15.6642 3.75 16 4.08579 16 4.5C16 4.91421 15.6642 5.25 15.25 5.25H8.90549C8.57245 6.54392 7.39788 7.5 6 7.5C4.60212 7.5 3.42755 6.54392 3.09451 5.25H0.75C0.335786 5.25 0 4.91421 0 4.5C0 4.08579 0.335786 3.75 0.75 3.75H3.09451ZM11 11C10.1716 11 9.5 11.6716 9.5 12.5C9.5 13.3284 10.1716 14 11 14C11.8284 14 12.5 13.3284 12.5 12.5C12.5 11.6716 11.8284 11 11 11ZM8.09451 11.75C8.42755 10.4561 9.60212 9.5 11 9.5C12.3979 9.5 13.5725 10.4561 13.9055 11.75H15.25C15.6642 11.75 16 12.0858 16 12.5C16 12.9142 15.6642 13.25 15.25 13.25H13.9055C13.5725 14.5439 12.3979 15.5 11 15.5C9.60212 15.5 8.42755 14.5439 8.09451 13.25H0.75C0.335786 13.25 0 12.9142 0 12.5C0 12.0858 0.335786 11.75 0.75 11.75H8.09451Z" fill="#1A2C37"/>
</svg>
