<svg width="18" height="18" viewBox="0 0 18 18" fill="none" xmlns="http://www.w3.org/2000/svg">
<path d="M17.0989 3.60071H12.5996V2.09793C12.5785 1.52185 12.3298 0.977648 11.9081 0.584617C11.4864 0.191586 10.9261 -0.0182029 10.3499 0.00124041H7.65033C7.07419 -0.0182029 6.51385 0.191586 6.09215 0.584617C5.67044 0.977648 5.42177 1.52185 5.40066 2.09793V3.60071H0.901331C0.662672 3.60071 0.433787 3.69551 0.26503 3.86427C0.0962719 4.03303 0.00146484 4.26191 0.00146484 4.50057C0.00146484 4.73923 0.0962719 4.96812 0.26503 5.13687C0.433787 5.30563 0.662672 5.40044 0.901331 5.40044H1.8012V15.299C1.8012 16.0149 2.08562 16.7016 2.59189 17.2079C3.09817 17.7141 3.78482 17.9986 4.5008 17.9986H13.4995C14.2154 17.9986 14.9021 17.7141 15.4084 17.2079C15.9146 16.7016 16.1991 16.0149 16.1991 15.299V5.40044H17.0989C17.3376 5.40044 17.5665 5.30563 17.7352 5.13687C17.904 4.96812 17.9988 4.73923 17.9988 4.50057C17.9988 4.26191 17.904 4.03303 17.7352 3.86427C17.5665 3.69551 17.3376 3.60071 17.0989 3.60071ZM7.2004 2.09793C7.2004 1.95395 7.38937 1.80097 7.65033 1.80097H10.3499C10.6109 1.80097 10.7999 1.95395 10.7999 2.09793V3.60071H7.2004V2.09793ZM14.3993 15.299C14.3993 15.5376 14.3045 15.7665 14.1358 15.9353C13.967 16.104 13.7381 16.1988 13.4995 16.1988H4.5008C4.26214 16.1988 4.03325 16.104 3.8645 15.9353C3.69574 15.7665 3.60093 15.5376 3.60093 15.299V5.40044H14.3993V15.299Z" fill="#EC2929"/>
<path d="M6.30088 13.5C6.53957 13.5 6.76849 13.4052 6.93727 13.2364C7.10606 13.0677 7.20088 12.8387 7.20088 12.6V9.00004C7.20088 8.76134 7.10606 8.53242 6.93727 8.36364C6.76849 8.19486 6.53957 8.10004 6.30088 8.10004C6.06218 8.10004 5.83327 8.19486 5.66448 8.36364C5.4957 8.53242 5.40088 8.76134 5.40088 9.00004V12.6C5.40088 12.8387 5.4957 13.0677 5.66448 13.2364C5.83327 13.4052 6.06218 13.5 6.30088 13.5Z" fill="#EC2929"/>
<path d="M11.6998 13.5C11.9385 13.5 12.1674 13.4052 12.3362 13.2364C12.505 13.0677 12.5998 12.8387 12.5998 12.6V9.00004C12.5998 8.76134 12.505 8.53242 12.3362 8.36364C12.1674 8.19486 11.9385 8.10004 11.6998 8.10004C11.4611 8.10004 11.2322 8.19486 11.0634 8.36364C10.8946 8.53242 10.7998 8.76134 10.7998 9.00004V12.6C10.7998 12.8387 10.8946 13.0677 11.0634 13.2364C11.2322 13.4052 11.4611 13.5 11.6998 13.5Z" fill="#EC2929"/>
</svg>
