<svg width="24" height="24" viewBox="0 0 24 24" fill="none" xmlns="http://www.w3.org/2000/svg">
<rect width="24" height="24" rx="12" fill="#F2FFF9"/>
<path fill-rule="evenodd" clip-rule="evenodd" d="M5.01953 11.475C5.288 7.85422 8.31075 5 12.0001 5C11.4185 5 10.9007 5.25495 10.4747 5.64479C10.0508 6.03268 9.69264 6.57414 9.40293 7.21421C9.11151 7.85804 8.88514 8.61108 8.73193 9.42828C8.60911 10.0834 8.53437 10.774 8.50945 11.475H5.01953ZM5.01953 12.525H8.50945C8.53437 13.226 8.60911 13.9166 8.73193 14.5717C8.88514 15.3889 9.11151 16.142 9.40293 16.7858C9.69264 17.4259 10.0508 17.9673 10.4747 18.3552C10.9007 18.7451 11.4185 19 12.0001 19C8.31075 19 5.288 16.1458 5.01953 12.525Z" fill="#06A192"/>
<path d="M12.0001 5C12.5817 5 13.0996 5.25495 13.5256 5.64479C13.9494 6.03268 14.3076 6.57414 14.5974 7.21421C14.8888 7.85805 15.1151 8.61108 15.2684 9.42828C15.3912 10.0834 15.4659 10.774 15.4908 11.475H18.9807C18.7123 7.85422 15.6895 5 12.0001 5Z" fill="#06A192"/>
<path d="M15.2684 14.5717C15.1151 15.3889 14.8888 16.142 14.5974 16.7858C14.3076 17.4259 13.9494 17.9673 13.5256 18.3552C13.0996 18.7451 12.5817 19 12.0001 19C15.6895 19 18.7123 16.1458 18.9807 12.525H15.4908C15.4659 13.226 15.3912 13.9166 15.2684 14.5717Z" fill="#06A192"/>
<g opacity="0.5">
<path d="M12.0001 5.97681C11.8076 5.97681 11.5589 6.05872 11.2697 6.32335C10.9784 6.58995 10.6867 7.00777 10.4291 7.57702C10.1731 8.14251 9.96529 8.82515 9.82226 9.588C9.70963 10.1888 9.63976 10.8256 9.61523 11.4751H14.3849C14.3604 10.8256 14.2905 10.1888 14.1779 9.588C14.0349 8.82515 13.827 8.14251 13.5711 7.57702C13.3134 7.00777 13.0218 6.58995 12.7305 6.32335C12.4413 6.05872 12.1926 5.97681 12.0001 5.97681Z" fill="#048A89"/>
<path d="M9.82226 14.4121C9.96529 15.175 10.1731 15.8576 10.4291 16.4231C10.6867 16.9924 10.9784 17.4102 11.2697 17.6768C11.5589 17.9414 11.8076 18.0233 12.0001 18.0233C12.1926 18.0233 12.4413 17.9414 12.7305 17.6768C13.0218 17.4102 13.3134 16.9924 13.5711 16.4231C13.827 15.8576 14.0349 15.175 14.1779 14.4121C14.2905 13.8114 14.3604 13.1745 14.3849 12.5251H9.61523C9.63976 13.1745 9.70963 13.8114 9.82226 14.4121Z" fill="#048A89"/>
</g>
</svg>
