<svg width="24" height="24" viewBox="0 0 24 24" fill="none" xmlns="http://www.w3.org/2000/svg">
<g id="User Single No-Show4">
<g id="Vector">
<path fill-rule="evenodd" clip-rule="evenodd" d="M11.9998 5.5C10.6191 5.5 9.49981 6.61929 9.49981 8C9.49981 9.38071 10.6191 10.5 11.9998 10.5C13.3805 10.5 14.4998 9.38071 14.4998 8C14.4998 6.61929 13.3805 5.5 11.9998 5.5ZM7.99981 8C7.99981 5.79086 9.79067 4 11.9998 4C14.2089 4 15.9998 5.79086 15.9998 8C15.9998 10.2091 14.2089 12 11.9998 12C9.79067 12 7.99981 10.2091 7.99981 8ZM12.2498 14.75C8.50376 14.75 6.8724 16.3339 6.13601 17.5775C5.99791 17.8108 6.03303 17.9954 6.15064 18.151C6.28871 18.3337 6.57307 18.5 6.94933 18.5H12.2498C12.664 18.5 12.9998 18.8358 12.9998 19.25C12.9998 19.6642 12.664 20 12.2498 20H6.94933C6.14612 20 5.40066 19.6464 4.95401 19.0555C4.48692 18.4376 4.38245 17.5949 4.84531 16.8133C5.85215 15.1129 7.97456 13.25 12.2498 13.25C12.664 13.25 12.9998 13.5858 12.9998 14C12.9998 14.4142 12.664 14.75 12.2498 14.75Z" fill="#808A90"/>
<path d="M16 13C16 12.4477 16.4477 12 17 12C17.5523 12 18 12.4477 18 13V16C18 16.5523 17.5523 17 17 17C16.4477 17 16 16.5523 16 16V13Z" fill="#808A90"/>
<path d="M17 18C16.4477 18 16 18.4477 16 19C16 19.5523 16.4477 20 17 20C17.5523 20 18 19.5523 18 19C18 18.4477 17.5523 18 17 18Z" fill="#808A90"/>
</g>
</g>
</svg>
