<svg width="24" height="24" viewBox="0 0 24 24" fill="none" xmlns="http://www.w3.org/2000/svg">
<g id="User Single No-Show2">
<g id="Vector">
<path fill-rule="evenodd" clip-rule="evenodd" d="M12.5215 6.3125C11.3134 6.3125 10.3341 7.29188 10.3341 8.5C10.3341 9.70812 11.3134 10.6875 12.5215 10.6875C13.7296 10.6875 14.7089 9.70812 14.7089 8.5C14.7089 7.29188 13.7296 6.3125 12.5215 6.3125ZM9.02163 8.5C9.02163 6.567 10.5886 5 12.5215 5C14.4544 5 16.0214 6.567 16.0214 8.5C16.0214 10.433 14.4544 12 12.5215 12C10.5886 12 9.02163 10.433 9.02163 8.5ZM12.7402 14.4062C9.46258 14.4062 8.03519 15.7922 7.39087 16.8803C7.27003 17.0844 7.30076 17.246 7.40367 17.3822C7.52448 17.542 7.77328 17.6875 8.1025 17.6875H12.7402C13.1027 17.6875 13.3965 17.9813 13.3965 18.3438C13.3965 18.7062 13.1027 19 12.7402 19H8.1025C7.39971 19 6.74746 18.6906 6.35666 18.1736C5.94797 17.6329 5.85656 16.8956 6.26155 16.2116C7.1425 14.7238 8.99954 13.0938 12.7402 13.0938C13.1027 13.0938 13.3965 13.3876 13.3965 13.75C13.3965 14.1124 13.1027 14.4062 12.7402 14.4062Z" fill="#CCA20C"/>
<path d="M15.0215 12.875C15.0215 12.3918 15.4132 12 15.8965 12C16.3797 12 16.7714 12.3918 16.7714 12.875V15.5C16.7714 15.9832 16.3797 16.375 15.8965 16.375C15.4132 16.375 15.0215 15.9832 15.0215 15.5V12.875Z" fill="#CCA20C"/>
<path d="M15.8965 17.25C15.4132 17.25 15.0215 17.6418 15.0215 18.125C15.0215 18.6082 15.4132 19 15.8965 19C16.3797 19 16.7714 18.6082 16.7714 18.125C16.7714 17.6418 16.3797 17.25 15.8965 17.25Z" fill="#CCA20C"/>
<path d="M18.0215 12.875C18.0215 12.3918 18.4132 12 18.8965 12C19.3797 12 19.7714 12.3918 19.7714 12.875V15.5C19.7714 15.9832 19.3797 16.375 18.8965 16.375C18.4132 16.375 18.0215 15.9832 18.0215 15.5V12.875Z" fill="#CCA20C"/>
<path d="M18.8965 17.25C18.4132 17.25 18.0215 17.6418 18.0215 18.125C18.0215 18.6082 18.4132 19 18.8965 19C19.3797 19 19.7714 18.6082 19.7714 18.125C19.7714 17.6418 19.3797 17.25 18.8965 17.25Z" fill="#CCA20C"/>
</g>
</g>
</svg>
