<svg width="24" height="24" viewBox="0 0 24 24" fill="none" xmlns="http://www.w3.org/2000/svg">
<g id="User Multiple No-Show">
<g id="icon_vector">
<path fill-rule="evenodd" clip-rule="evenodd" d="M11.2536 6.31063C10.0472 6.31063 9.06924 7.28861 9.06924 8.49502C9.06924 9.70142 10.0472 10.6794 11.2536 10.6794C12.46 10.6794 13.438 9.70142 13.438 8.49502C13.438 7.28861 12.46 6.31063 11.2536 6.31063ZM7.75862 8.49502C7.75862 6.56477 9.32338 5 11.2536 5C13.1838 5 14.7486 6.56477 14.7486 8.49502C14.7486 10.4253 13.1838 11.99 11.2536 11.99C9.32338 11.99 7.75862 10.4253 7.75862 8.49502ZM11.472 14.3929C8.19895 14.3929 6.77355 15.7768 6.13013 16.8634C6.00947 17.0672 6.04016 17.2286 6.14292 17.3645C6.26355 17.5241 6.51201 17.6694 6.84077 17.6694H11.472C11.834 17.6694 12.1273 17.9628 12.1273 18.3248C12.1273 18.6867 11.834 18.9801 11.472 18.9801H6.84077C6.13897 18.9801 5.48763 18.6711 5.09737 18.1548C4.68925 17.6149 4.59797 16.8786 5.0024 16.1956C5.88212 14.71 7.73656 13.0822 11.472 13.0822C11.834 13.0822 12.1273 13.3756 12.1273 13.7375C12.1273 14.0995 11.834 14.3929 11.472 14.3929Z" fill="#DC180B"/>
<path d="M13.9634 14.8134C14.2193 14.5575 14.6342 14.5575 14.8901 14.8134L15.9607 15.884L17.0312 14.8134C17.2871 14.5575 17.7021 14.5575 17.958 14.8134C18.2139 15.0693 18.2139 15.4843 17.958 15.7402L16.8874 16.8107L17.958 17.8813C18.2139 18.1372 18.2139 18.5521 17.958 18.8081C17.7021 19.064 17.2871 19.064 17.0312 18.8081L15.9607 17.7375L14.8901 18.8081C14.6342 19.064 14.2193 19.064 13.9634 18.8081C13.7075 18.5521 13.7075 18.1372 13.9634 17.8813L15.0339 16.8107L13.9634 15.7402C13.7075 15.4843 13.7075 15.0693 13.9634 14.8134Z" fill="#DC180B"/>
</g>
</g>
</svg>
