<svg width="24" height="24" viewBox="0 0 24 24" fill="none" xmlns="http://www.w3.org/2000/svg">
<g clip-path="url(#clip0_1325_1204)">
<path d="M20.9876 3H3V20.9876H20.9876V3Z" fill="#9B5C8F"/>
<path d="M5.23532 6.40962C5.42515 6.15191 5.70984 6.01639 6.08951 5.98929C6.7811 5.93496 7.17432 6.26031 7.26918 6.96544C7.68951 9.79931 8.15047 12.1993 8.63856 14.1653L11.6079 8.51124C11.8792 7.99594 12.2182 7.72479 12.625 7.69769C13.2216 7.65703 13.5876 8.03658 13.7368 8.83657C14.0758 10.6398 14.5097 12.1721 15.0248 13.4737C15.3774 10.0298 15.974 7.54851 16.8147 6.01639C17.0179 5.63672 17.3163 5.44689 17.7095 5.41966C18.0215 5.39269 18.3061 5.48753 18.5637 5.69092C18.8213 5.89432 18.957 6.15191 18.984 6.46382C18.9977 6.70786 18.957 6.91124 18.8485 7.11463C18.3197 8.09092 17.8856 9.73156 17.5332 12.0093C17.1943 14.2195 17.0722 15.9416 17.1536 17.1755C17.1808 17.5143 17.1264 17.8126 16.991 18.0703C16.828 18.3685 16.5841 18.5313 16.2723 18.5584C15.9197 18.5855 15.5537 18.4228 15.2011 18.0568C13.9402 16.7685 12.9368 14.8432 12.2047 12.2806C11.3232 14.0161 10.6724 15.3177 10.2521 16.1855C9.45211 17.7177 8.77419 18.5042 8.20467 18.5448C7.83855 18.572 7.52677 18.26 7.25563 17.6093C6.56417 15.833 5.81837 12.4026 5.0185 7.31802C4.96417 6.96544 5.04547 6.65353 5.23532 6.40962Z" fill="white"/>
</g>
<defs>
<clipPath id="clip0_1325_1204">
<rect x="3" y="3" width="18" height="18" rx="4" fill="white"/>
</clipPath>
</defs>
</svg>
