<?xml version="1.0" encoding="UTF-8"?>
<svg width="50px" height="40px" viewBox="0 0 50 40" version="1.1" xmlns="http://www.w3.org/2000/svg"
     xmlns:xlink="http://www.w3.org/1999/xlink">
    <!-- Generator: sketchtool 52.2 (67145) - http://www.bohemiancoding.com/sketch -->
    <title>AD60BBA0-182A-488A-9F34-4864223ADC22-svg</title>
    <desc>Created with sketchtool.</desc>
    <g id="Screens" stroke="none" stroke-width="1" fill="none" fill-rule="evenodd">
        <g id="Notifications-:-SMS-:-Login" transform="translate(-678.000000, -281.000000)">
            <g id="Group-13" transform="translate(545.000000, 281.000000)">
                <g id="Group-8" transform="translate(133.000000, 0.000000)">
                    <g id="speech-bubbles.1" fill="#1A84EE" fill-rule="nonzero">
                        <g id="Group-5">
                            <path d="M29,28 C31.758,28 34,25.756 34,23 L34,5 C34,2.244 31.758,0 29,0 L5,0 C2.242,0 0,2.244 0,5 L0,23 C0,25.756 2.242,28 5,28 L8,28 L8,33 C8,33.378 8.214,33.724 8.552,33.894 C8.692,33.964 8.846,34 9,34 C9.212,34 9.424,33.932 9.6,33.8 L17.334,28 L29,28 Z"
                                  id="Shape"></path>
                            <path d="M44.0501297,6 L38.1102853,6 C37.5638196,6 37.1203112,6.448 37.1203112,7 L37.1203112,23 C37.1203112,26.86 34.0117926,30 30.1904927,30 L19.6314293,30 C19.4175949,30 19.2077204,30.07 19.0374449,30.2 L17.3960679,31.444 C17.1426345,31.636 16.9961184,31.936 17.0000783,32.254 C17.0040382,32.572 17.1564942,32.87 17.4138874,33.056 C18.2652651,33.674 19.261179,34 20.2907521,34 L31.8397895,34 L39.496249,39.8 C39.6704844,39.932 39.8783789,40 40.0902334,40 C40.2407095,40 40.3931655,39.964 40.5337418,39.894 C40.868353,39.724 41.0802075,39.378 41.0802075,39 L41.0802075,34 L44.0501297,34 C46.7804781,34 49,31.756 49,29 L49,11 C49,8.244 46.7804781,6 44.0501297,6 Z"
                                  id="Shape-Copy" fill-opacity="0.2"></path>
                        </g>
                    </g>
                </g>
            </g>
        </g>
    </g>
</svg>