<svg width="28" height="28" viewBox="0 0 28 28" fill="none" xmlns="http://www.w3.org/2000/svg">
<path d="M24.3865 3.62676C20.4399 -0.306575 14.0399 -0.306575 10.1199 3.62676C7.35987 6.36009 6.5332 10.2934 7.59987 13.7601L1.3332 20.0268C0.893203 20.4801 0.586536 21.3734 0.67987 22.0134L1.07987 24.9201C1.22654 25.8801 2.11987 26.7868 3.07987 26.9201L5.98654 27.3201C6.62654 27.4134 7.51987 27.1201 7.9732 26.6534L9.06654 25.5601C9.3332 25.3068 9.3332 24.8801 9.06654 24.6134L6.47987 22.0268C6.0932 21.6401 6.0932 21.0001 6.47987 20.6134C6.86654 20.2268 7.50654 20.2268 7.8932 20.6134L10.4932 23.2134C10.7465 23.4668 11.1732 23.4668 11.4265 23.2134L14.2532 20.4001C17.7065 21.4801 21.6399 20.6401 24.3865 17.9068C28.3199 13.9734 28.3199 7.56009 24.3865 3.62676ZM17.3332 14.0001C15.4932 14.0001 13.9999 12.5068 13.9999 10.6668C13.9999 8.82676 15.4932 7.33343 17.3332 7.33343C19.1732 7.33343 20.6665 8.82676 20.6665 10.6668C20.6665 12.5068 19.1732 14.0001 17.3332 14.0001Z" fill="#1A84ED"/>
</svg>
