<?xml version="1.0" encoding="UTF-8"?>
<svg width="24px" height="24px" viewBox="0 0 24 24" version="1.1" xmlns="http://www.w3.org/2000/svg" xmlns:xlink="http://www.w3.org/1999/xlink">
    <!-- Generator: Sketch 53.1 (72631) - https://sketchapp.com -->
    <title>icon / appointment - settings</title>
    <desc>Created with Sketch.</desc>
    <g id="icon-/-appointment---settings" stroke="none" stroke-width="1" fill="none" fill-rule="evenodd">
        <g id="time-event-calendar-settings">
            <g id="Group-6">
                <rect id="Rectangle" x="0" y="0" width="24" height="24"></rect>
                <path d="M22.7213333,16.994 L21.8193333,16.7666667 L21.8193333,16.7226667 L22.2666667,15.9306667 C22.3520189,15.7857476 22.3278347,15.6013426 22.208,15.4833333 L20.9613333,14.2366667 C20.8433241,14.116832 20.658919,14.0926477 20.514,14.178 L20.0446667,14.4566667 L20.0446667,3.93333333 C20.0446667,3.1233157 19.3880176,2.46666667 18.578,2.46666667 L16.0333333,2.46666667 C15.8308289,2.46666667 15.6666667,2.63082893 15.6666667,2.83333333 L15.6666667,4.66666667 C15.6681531,5.04029932 15.3884871,5.35531108 15.017309,5.398094 C14.6461309,5.44087692 14.3021326,5.19775027 14.2185776,4.83357705 C14.1350226,4.46940382 14.3386295,4.10063604 14.6913333,3.97733333 C14.8365141,3.92484493 14.9332677,3.78704436 14.9333333,3.63266667 L14.9333333,1.36666667 C14.9333333,1.16416226 14.7691711,1 14.5666667,1 C14.3641623,1 14.2,1.16416226 14.2,1.36666667 L14.2,2.46666667 L7.23333333,2.46666667 C7.03082893,2.46666667 6.86666667,2.63082893 6.86666667,2.83333333 L6.86666667,4.66666667 C6.86815305,5.04029932 6.58848714,5.35531108 6.21730903,5.398094 C5.84613092,5.44087692 5.50213257,5.19775027 5.4185776,4.83357705 C5.33502263,4.46940382 5.53862947,4.10063604 5.89133333,3.97733333 C6.03651406,3.92484493 6.13326765,3.78704436 6.13333333,3.63266667 L6.13333333,1.36666667 C6.13333333,1.16416226 5.96917107,1 5.76666667,1 C5.56416226,1 5.4,1.16416226 5.4,1.36666667 L5.4,2.46666667 L2.46666667,2.46666667 C1.65664903,2.46666667 1,3.1233157 1,3.93333333 L1,18.6 C1,19.4100176 1.65664903,20.0666667 2.46666667,20.0666667 L14.464,20.0666667 L14.1853333,20.536 C14.0999811,20.680919 14.1241653,20.8653241 14.244,20.9833333 L15.4906667,22.23 C15.6086759,22.3498347 15.793081,22.3740189 15.938,22.2886667 L16.7373333,21.812 L16.7813333,21.812 L17.0086667,22.714 C17.0487713,22.8762603 17.1935334,22.9908637 17.3606667,22.9926667 L19.1206667,22.9926667 C19.2877999,22.9908637 19.4325621,22.8762603 19.4726667,22.714 L19.7,21.812 L19.744,21.812 L20.5433333,22.2886667 C20.6882524,22.3740189 20.8726574,22.3498347 20.9906667,22.23 L22.2373333,20.9833333 C22.357168,20.8653241 22.3813523,20.680919 22.296,20.536 L21.8193333,19.7366667 L21.8193333,19.6926667 L22.7213333,19.4653333 C22.8835936,19.4252287 22.998197,19.2804666 23,19.1133333 L23,17.3533333 C23.0015657,17.1834644 22.8862463,17.0347631 22.7213333,16.994 Z M15.4833333,14.2366667 L14.2366667,15.4833333 C14.116832,15.6013426 14.0926477,15.7857476 14.178,15.9306667 L14.6546667,16.73 L14.6546667,16.774 L13.7526667,17.0013333 C13.5877537,17.0420964 13.4724343,17.1907977 13.474,17.3606667 L13.474,18.6 L2.46666667,18.6 L2.46666667,7.6 L18.6,7.6 L18.6,13.4666667 L17.3533333,13.4666667 C17.1862001,13.4684697 17.0414379,13.5830731 17.0013333,13.7453333 L16.774,14.6473333 L16.73,14.6473333 L15.9306667,14.2 C15.7889935,14.1108351 15.6049189,14.1289408 15.4833333,14.244 L15.4833333,14.2366667 Z M5,9 L6,9 C6.55228475,9 7,9.44771525 7,10 L7,11 C7,11.5522847 6.55228475,12 6,12 L5,12 C4.44771525,12 4,11.5522847 4,11 L4,10 C4,9.44771525 4.44771525,9 5,9 Z M18.2333333,20.4333333 C17.3435164,20.4333333 16.5413166,19.8973205 16.2007984,19.0752369 C15.8602802,18.2531532 16.0485028,17.306894 16.6776984,16.6776984 C17.306894,16.0485028 18.2531532,15.8602802 19.0752369,16.2007984 C19.8973205,16.5413166 20.4333333,17.3435164 20.4333333,18.2333333 C20.4333333,19.4483598 19.4483598,20.4333333 18.2333333,20.4333333 L18.2333333,20.4333333 Z" id="Shape" fill="#1A84EE" fill-rule="nonzero"></path>
            </g>
        </g>
    </g>
</svg>