<svg width="38" height="16" viewBox="0 0 38 16" fill="none" xmlns="http://www.w3.org/2000/svg">
<rect width="38" height="16" rx="8" fill="#3BA6FF"/>
<path d="M5.87891 12V4H8.80859C9.3763 4 9.84635 4.09375 10.2188 4.28125C10.5911 4.46615 10.8698 4.71745 11.0547 5.03516C11.2396 5.35026 11.332 5.70573 11.332 6.10156C11.332 6.4349 11.2708 6.71615 11.1484 6.94531C11.026 7.17187 10.862 7.35417 10.6563 7.49219C10.4531 7.6276 10.2292 7.72656 9.98438 7.78906V7.86719C10.25 7.88021 10.5091 7.96615 10.7617 8.125C11.0169 8.28125 11.2279 8.50391 11.3945 8.79297C11.5612 9.08203 11.6445 9.43359 11.6445 9.84766C11.6445 10.2565 11.5482 10.6237 11.3555 10.9492C11.1654 11.2721 10.8711 11.5286 10.4727 11.7187C10.0742 11.9062 9.5651 12 8.94531 12H5.87891ZM7.08594 10.9648H8.82813C9.40625 10.9648 9.82031 10.8529 10.0703 10.6289C10.3203 10.4049 10.4453 10.125 10.4453 9.78906C10.4453 9.53646 10.3815 9.30469 10.2539 9.09375C10.1263 8.88281 9.94401 8.71484 9.70703 8.58984C9.47266 8.46484 9.19401 8.40234 8.87109 8.40234H7.08594V10.9648ZM7.08594 7.46094H8.70313C8.97396 7.46094 9.21745 7.40885 9.43359 7.30469C9.65234 7.20052 9.82552 7.05469 9.95313 6.86719C10.0833 6.67708 10.1484 6.45312 10.1484 6.19531C10.1484 5.86458 10.0326 5.58724 9.80078 5.36328C9.56901 5.13932 9.21354 5.02734 8.73438 5.02734H7.08594V7.46094ZM13.0762 12V4H18.0918V5.03906H14.2832V7.47656H17.8301V8.51172H14.2832V10.9609H18.1387V12H13.0762ZM19.3096 5.03906V4H25.501V5.03906H23.0049V12H21.8018V5.03906H19.3096ZM26.5996 12H25.3184L28.1973 4H29.5918L32.4707 12H31.1895L28.9277 5.45312H28.8652L26.5996 12ZM26.8145 8.86719H30.9707V9.88281H26.8145V8.86719Z" fill="white"/>
</svg>
