<?xml version="1.0" encoding="UTF-8"?>
<svg width="24px" height="24px" viewBox="0 0 26 24" version="1.1" xmlns="http://www.w3.org/2000/svg" xmlns:xlink="http://www.w3.org/1999/xlink">
    <title>52104319-56E9-40A1-B3D2-7828F87C376D@1.5x</title>
    <g id="VK" stroke="none" stroke-width="1" fill="none" fill-rule="evenodd">
        <g id="FrontEnd-Employee-2.5" transform="translate(-810.000000, -331.000000)" fill-rule="nonzero">
            <g id="sort-popover" transform="translate(794.000000, 200.000000)">
                <g id="Group-4" transform="translate(16.000000, 131.000000)">
                    <g id="log-in-outline">
                        <rect id="Rectangle" fill="#FFFFFF" opacity="0" transform="translate(12.000000, 12.000000) rotate(-90.000000) translate(-12.000000, -12.000000) " x="0" y="0" width="24" height="24"></rect>
                        <g id="Group-2" transform="translate(3.000000, 4.000000)" fill="#616E7C">
                            <path d="M16,0 L14,0 C13.4477153,0 13,0.44771525 13,1 C13,1.55228475 13.4477153,2 14,2 L15,2 L15,14 L14,14 C13.4477153,14 13,14.4477153 13,15 C13,15.5522847 13.4477153,16 14,16 L16,16 C16.5522847,16 17,15.5522847 17,15 L17,1 C17,0.44771525 16.5522847,0 16,0 Z" id="Path"></path>
                            <path d="M8.8,3.4 C8.46862914,2.95817222 7.84182781,2.86862918 7.40000002,3.20000002 C6.95817222,3.53137086 6.86862917,4.1581722 7.2,4.6 L9,7 L1,7 C0.44771525,7 1.7408297e-13,7.44771525 1.7408297e-13,8 C1.7408297e-13,8.55228475 0.44771525,9 1,9 L9,9 L9.09,9 L7.37,11.44 C7.21500946,11.6570921 7.15317494,11.9271088 7.19824461,12.1900152 C7.24331428,12.4529216 7.39155239,12.6869259 7.61,12.84 C7.77999974,12.9586733 7.98268193,13.0215747 8.19,13.0200289 C8.51185737,13.0185117 8.81332417,12.8621956 9,12.6 L11.82,8.6 C12.0767957,8.24858024 12.0767957,7.77141976 11.82,7.42 L8.8,3.4 Z" id="Path"></path>
                        </g>
                    </g>
                </g>
            </g>
        </g>
    </g>
</svg>
