<?xml version="1.0" encoding="UTF-8"?>
<svg width="24px" height="24px" viewBox="0 0 24 24" version="1.1" xmlns="http://www.w3.org/2000/svg" xmlns:xlink="http://www.w3.org/1999/xlink">
    <title>D4FA59B2-4034-4220-A4E4-0B73071CEC66@1.5x</title>
    <g id="VK" stroke="none" stroke-width="1" fill="none" fill-rule="evenodd">
        <g id="FrontEnd-Employee-2.5" transform="translate(-810.000000, -295.000000)" fill-rule="nonzero">
            <g id="sort-popover" transform="translate(794.000000, 200.000000)">
                <g id="Group-4-Copy" transform="translate(16.000000, 95.000000)">
                    <g id="user-circle">
                        <rect id="Rectangle" fill="#FFFFFF" opacity="0" transform="translate(12.000000, 12.000000) rotate(-90.000000) translate(-12.000000, -12.000000) " x="0" y="0" width="24" height="24"></rect>
                        <path d="M11.9932244,4 C8.81962575,4.00602974 5.94900017,5.88556251 4.67441306,8.79196795 C3.39982594,11.6983734 3.96177854,15.0832432 6.10714084,17.4218722 L6.10714084,17.4218722 C7.62323247,19.0652602 9.75732237,20 11.9932244,20 C14.2291265,20 16.3632164,19.0652602 17.879308,17.4218722 L17.879308,17.4218722 C20.0246703,15.0832432 20.5866229,11.6983734 19.3120358,8.79196795 C18.0374487,5.88556251 15.1668231,4.00602974 11.9932244,4 Z M11.9932244,18.4148986 C10.3342819,18.4123773 8.74099512,17.7664502 7.5486307,16.6130362 C8.28902238,14.810611 10.0446566,13.6337991 11.9932244,13.6337991 C13.9417923,13.6337991 15.6974265,14.810611 16.4378181,16.6130362 C15.2454537,17.7664502 13.652167,18.4123773 11.9932244,18.4148986 Z M10.391569,10.4066216 C10.391569,9.52205173 11.1086546,8.80496619 11.9932244,8.80496619 C12.8777943,8.80496619 13.5948798,9.52205173 13.5948798,10.4066216 C13.5948798,11.2911914 12.8777943,12.008277 11.9932244,12.008277 C11.1086546,12.008277 10.391569,11.2911914 10.391569,10.4066216 Z M17.5269438,15.2115878 C16.8114293,13.9877301 15.7101877,13.0357616 14.3957075,12.5047902 C15.531464,11.2169633 15.4497733,9.26265112 14.2105035,8.07410101 C12.9712338,6.8855509 11.015215,6.8855509 9.7759453,8.07410101 C8.53667558,9.26265112 8.45498482,11.2169633 9.59074133,12.5047902 C8.27626119,13.0357616 7.17501953,13.9877301 6.45950503,15.2115878 C5.88927068,14.2402655 5.58798031,13.1346128 5.58660284,12.008277 C5.58660284,8.46999758 8.45494502,5.6016554 11.9932244,5.6016554 C15.5315038,5.6016554 18.399846,8.46999758 18.399846,12.008277 C18.3984685,13.1346128 18.0971782,14.2402655 17.5269438,15.2115878 Z" id="Shape" fill="#1A84EE"></path>
                    </g>
                </g>
            </g>
        </g>
    </g>
</svg>