<?xml version="1.0" encoding="UTF-8"?>
<svg width="20px" height="20px" viewBox="0 0 20 20" version="1.1" xmlns="http://www.w3.org/2000/svg" xmlns:xlink="http://www.w3.org/1999/xlink">
    <!-- Generator: Sketch 53.1 (72631) - https://sketchapp.com -->
    <title>icon / capacity</title>
    <desc>Created with Sketch.</desc>
    <g id="icon-/-capacity" stroke="none" stroke-width="1" fill="none" fill-rule="evenodd">
        <g id="person-outline" fill-rule="nonzero">
            <rect id="Rectangle" fill="#FFFFFF" opacity="0" x="0" y="0" width="20" height="20"></rect>
            <path d="M10.5,9.22222222 C8.76424793,9.22222222 7.35714286,7.82933033 7.35714286,6.11111111 C7.35714286,4.39289189 8.76424793,3 10.5,3 C12.2357521,3 13.6428571,4.39289189 13.6428571,6.11111111 C13.6428571,7.82933033 12.2357521,9.22222222 10.5,9.22222222 Z M10.5,4.55555556 C9.63212396,4.55555556 8.92857143,5.2520015 8.92857143,6.11111111 C8.92857143,6.97022072 9.63212396,7.66666667 10.5,7.66666667 C11.367876,7.66666667 12.0714286,6.97022072 12.0714286,6.11111111 C12.0714286,5.2520015 11.367876,4.55555556 10.5,4.55555556 Z M10.5,10.7777778 C13.5375661,10.7777778 16,13.2153386 16,16.2222222 C16,16.651777 15.6482237,17 15.2142857,17 C14.7803477,17 14.4285714,16.651777 14.4285714,16.2222222 C14.4285714,14.0744482 12.6696901,12.3333333 10.5,12.3333333 C8.33030991,12.3333333 6.57142857,14.0744482 6.57142857,16.2222222 C6.57142857,16.651777 6.2196523,17 5.78571429,17 C5.35177627,17 5,16.651777 5,16.2222222 C5,13.2153386 7.46243388,10.7777778 10.5,10.7777778 Z" id="Combined-Shape" fill="#A6B3BD"></path>
        </g>
    </g>
</svg>