<svg width="80" height="80" viewBox="0 0 80 80" fill="none" xmlns="http://www.w3.org/2000/svg">
<g clip-path="url(#clip0_3875_5835)">
<path d="M61.8026 27.1053C61.8026 30.0747 60.6486 34.1588 58.8318 38.6509C57.02 43.1303 54.5681 47.9703 52.0128 52.4347C49.4573 56.8993 46.8039 60.9787 44.5925 63.9377C43.4858 65.4184 42.4964 66.6097 41.6903 67.4267C41.2865 67.8359 40.938 68.1417 40.651 68.3424C40.3473 68.5547 40.1735 68.6053 40.1053 68.6053C40.037 68.6053 39.8632 68.5547 39.5595 68.3424C39.2726 68.1417 38.924 67.8359 38.5202 67.4267C37.7141 66.6097 36.7247 65.4184 35.6181 63.9377C33.4066 60.9787 30.7532 56.8993 28.1978 52.4347C25.6424 47.9703 23.1905 43.1303 21.3788 38.6509C19.5619 34.1588 18.4079 30.0747 18.4079 27.1053C18.4079 15.1221 28.1221 5.40789 40.1053 5.40789C52.0884 5.40789 61.8026 15.1221 61.8026 27.1053Z" stroke="#D1D5D7" stroke-width="0.815789"/>
<circle cx="40.4342" cy="27.5658" r="12.0263" stroke="#D1D5D7" stroke-width="0.815789"/>
<path d="M27.5921 62.3175C21.2117 63.5525 17 65.6776 17 68.0921C17 71.9072 27.5154 75 40.4868 75C53.4583 75 63.9737 71.9072 63.9737 68.0921C63.9737 65.5074 59.147 63.2542 52 62.0697" stroke="#D1D5D7" stroke-width="0.815789" stroke-linecap="round"/>
</g>
<defs>
<clipPath id="clip0_3875_5835">
<rect width="80" height="80" fill="white"/>
</clipPath>
</defs>
</svg>
