<?xml version="1.0" encoding="UTF-8"?>
<svg width="80px" height="80px" viewBox="0 0 80 80" version="1.1" xmlns="http://www.w3.org/2000/svg" xmlns:xlink="http://www.w3.org/1999/xlink">
    <!-- Generator: Sketch 61.2 (89653) - https://sketch.com -->
    <title>Artboard</title>
    <desc>Created with Sketch.</desc>
    <g id="Artboard" stroke="none" stroke-width="1" fill="none" fill-rule="evenodd">
        <path d="M77.197335,78 L2.759795,78 C2.29306748,78 1.84545598,77.7846752 1.51543025,77.4013946 C1.18540453,77.018114 1,76.4982743 1,75.9562345 L1,26 L78.957135,26 L78.957135,75.9562345 C78.957135,77.084975 78.1692457,78 77.197335,78 Z" id="Shape-Copy" stroke="#1A84EE"></path>
        <path d="M78.95712,25.775 L1,25.775 L1,13.7598 C1,13.2930725 1.18540453,12.8454605 1.51543025,12.5154338 C1.84545598,12.1854071 2.29306748,12 2.759795,12 L77.19732,12 C78.1692307,12 78.95712,12.7878893 78.95712,13.7598 L78.95712,25.775 Z" id="Shape-Copy-2" stroke="#1A84EE"></path>
        <line x1="64.5" y1="11.5" x2="64.5" y2="3.5" id="Line-Copy" stroke="#1A84EE" fill="#1A84EE" stroke-linecap="round" stroke-linejoin="round"></line>
        <line x1="15.5" y1="11.5" x2="15.5" y2="3.5" id="Line" stroke="#1A84EE" fill="#1A84EE" stroke-linecap="round" stroke-linejoin="round"></line>
        <line x1="6" y1="34.5" x2="13.25" y2="34.5" id="Shape-Copy-4" stroke="#76B5F5"></line>
        <line x1="16" y1="34.5" x2="23.25" y2="34.5" id="Shape-Copy-5" stroke="#76B5F5"></line>
        <line x1="26" y1="34.5" x2="33.25" y2="34.5" id="Shape-Copy-6" stroke="#76B5F5"></line>
        <line x1="36" y1="34.5" x2="43.25" y2="34.5" id="Shape-Copy-7" stroke="#76B5F5"></line>
        <line x1="46" y1="34.5" x2="53.25" y2="34.5" id="Shape-Copy-8" stroke="#76B5F5"></line>
        <line x1="57" y1="34.5" x2="64.25" y2="34.5" id="Shape-Copy-9" stroke="#76B5F5"></line>
        <line x1="67" y1="34.5" x2="74.25" y2="34.5" id="Shape-Copy-10" stroke="#76B5F5"></line>
        <line x1="6" y1="44.5" x2="13.25" y2="44.5" id="Shape-Copy-17" stroke="#76B5F5"></line>
        <line x1="16" y1="44.5" x2="23.25" y2="44.5" id="Shape-Copy-16" stroke="#76B5F5"></line>
        <line x1="26" y1="44.5" x2="33.25" y2="44.5" id="Shape-Copy-15" stroke="#76B5F5"></line>
        <line x1="36" y1="44.5" x2="43.25" y2="44.5" id="Shape-Copy-14" stroke="#76B5F5"></line>
        <line x1="46" y1="44.5" x2="53.25" y2="44.5" id="Shape-Copy-13" stroke="#76B5F5"></line>
        <line x1="57" y1="44.5" x2="64.25" y2="44.5" id="Shape-Copy-12" stroke="#76B5F5"></line>
        <line x1="67" y1="44.5" x2="74.25" y2="44.5" id="Shape-Copy-11" stroke="#76B5F5"></line>
        <line x1="6" y1="54.5" x2="13.25" y2="54.5" id="Shape-Copy-24" stroke="#76B5F5"></line>
        <line x1="16" y1="54.5" x2="23.25" y2="54.5" id="Shape-Copy-23" stroke="#76B5F5"></line>
        <line x1="26" y1="54.5" x2="33.25" y2="54.5" id="Shape-Copy-22" stroke="#76B5F5"></line>
        <line x1="36" y1="54.5" x2="43.25" y2="54.5" id="Shape-Copy-21" stroke="#76B5F5"></line>
        <line x1="46" y1="54.5" x2="53.25" y2="54.5" id="Shape-Copy-20" stroke="#76B5F5"></line>
        <line x1="57" y1="54.5" x2="64.25" y2="54.5" id="Shape-Copy-19" stroke="#76B5F5"></line>
        <line x1="67" y1="54.5" x2="74.25" y2="54.5" id="Shape-Copy-18" stroke="#76B5F5"></line>
        <line x1="6" y1="64.5" x2="13.25" y2="64.5" id="Shape-Copy-31" stroke="#76B5F5"></line>
        <line x1="16" y1="64.5" x2="23.25" y2="64.5" id="Shape-Copy-30" stroke="#76B5F5"></line>
        <line x1="26" y1="64.5" x2="33.25" y2="64.5" id="Shape-Copy-29" stroke="#76B5F5"></line>
        <line x1="36" y1="64.5" x2="43.25" y2="64.5" id="Shape-Copy-28" stroke="#76B5F5"></line>
        <line x1="46" y1="64.5" x2="53.25" y2="64.5" id="Shape-Copy-27" stroke="#76B5F5"></line>
        <line x1="67" y1="64.5" x2="74.25" y2="64.5" id="Shape-Copy-25" stroke="#76B5F5"></line>
        <rect id="Rectangle-Copy" stroke="#1A84EE" stroke-linecap="round" stroke-linejoin="round" x="55.486" y="59.577" width="9" height="9" rx="1.642"></rect>
    </g>
</svg>