<?xml version="1.0" encoding="UTF-8"?>
<svg width="80px" height="80px" viewBox="0 0 80 80" version="1.1" xmlns="http://www.w3.org/2000/svg" xmlns:xlink="http://www.w3.org/1999/xlink">
    <!-- Generator: Sketch 61.2 (89653) - https://sketch.com -->
    <title>Artboard</title>
    <desc>Created with Sketch.</desc>
    <g id="Artboard" stroke="none" stroke-width="1" fill="none" fill-rule="evenodd">
        <g id="cf-upload-file" transform="translate(18.000000, 11.000000)">
            <g id="noun_Upload-file_2096044" stroke-linejoin="round" stroke="#1A84EE" stroke-width="0.72">
                <g id="Group">
                    <path d="M16.3962312,0.0217044765 C16.3330796,0.0418863439 16.2759778,0.0774416893 16.2300956,0.125151381 L0.11493962,16.3661498 C0.0772751305,16.4080247 0.048961869,16.4573878 0.0318718063,16.5109755 C0.0232500724,16.5310502 0.0163042296,16.5517988 0.0111048526,16.5730105 C0.0109251479,16.5798948 0.0109251479,16.5867825 0.0111048526,16.5936668 C-0.00370161753,16.6548585 -0.00370161753,16.7186795 0.0111048526,16.7798712 L0.0111048526,57.2065904 C0.0133926148,57.422736 0.188720734,57.5973945 0.405676971,57.6002957 L43.3311362,57.6002957 C43.4390068,57.6041312 43.544089,57.5648392 43.6223661,57.4907601 C43.7006432,57.4166809 43.7454245,57.3141461 43.7468354,57.2065904 L43.7468354,0.414405476 L43.6300393,0.116618905 L16.5420984,0.000154464882 C16.5328678,0.000154464882 16.5259455,0.000154464882 16.5213314,0.000154464882 C16.5074961,0.000154464882 16.4936327,0.000154464882 16.4797975,0.000154464882 C16.4659622,0.000154464882 16.4520988,0.000154464882 16.4382636,0.000154464882 C16.4235296,0.00712426403 16.4096615,0.0140213737 16.3962312,0.0217044765 Z M-2.02123172e-15,16.703823 L15.2728358,16.703823 C16.0781928,16.703823 16.7310637,16.0509521 16.7310637,15.2455951 L16.7310637,0.000170224839 L16.7310637,0.000170224839 L-2.02123172e-15,16.703823 Z" id="Shape"></path>
                </g>
            </g>
            <line x1="21.8734177" y1="13.1240506" x2="39.5544304" y2="13.1240506" id="Shape" stroke="#76B5F5" stroke-width="0.72"></line>
            <line x1="21.8734177" y1="16.7696203" x2="39.5544304" y2="16.7696203" id="Shape-Copy" stroke="#76B5F5" stroke-width="0.72"></line>
            <line x1="4.37468354" y1="20.4151899" x2="39.7367089" y2="20.4151899" id="Shape-Copy-2" stroke="#76B5F5" stroke-width="0.72"></line>
            <line x1="4.37468354" y1="24.0607595" x2="39.7367089" y2="24.0607595" id="Shape-Copy-3" stroke="#76B5F5" stroke-width="0.72"></line>
            <line x1="4.37468354" y1="27.7063291" x2="39.7367089" y2="27.7063291" id="Shape-Copy-4" stroke="#76B5F5" stroke-width="0.72"></line>
            <line x1="4.37468354" y1="31.3518987" x2="39.7367089" y2="31.3518987" id="Shape-Copy-5" stroke="#76B5F5" stroke-width="0.72"></line>
            <polygon id="Path" fill="#1A84EE" fill-rule="nonzero" transform="translate(21.898937, 39.857013) rotate(180.000000) translate(-21.898937, -39.857013) " points="27.7063291 38.1836962 27.7063291 41.1412763 27.7063291 41.5303291 27.311353 41.5303291 16.4920473 41.5303291 16.0915443 41.5303291 16.0915443 41.1412763 16.0915443 38.1836962 16.886826 38.1836962 16.886826 40.7465821 26.91085 40.7465821 26.91085 38.1836962"></polygon>
            <polygon id="Path-Copy" fill="#1A84EE" fill-rule="nonzero" transform="translate(21.898937, 45.959696) rotate(180.000000) translate(-21.898937, -45.959696) " points="21.5057986 50.2470031 21.5057986 40.1523038 22.29227 40.1523038 22.29227 50.2470031 25.967609 46.5368204 26.5251646 47.0998588 22.1806418 51.4855694 21.9017665 51.7670886 21.6228911 51.4855694 17.2727089 47.0998588 17.8304596 46.5368204"></polygon>
        </g>
    </g>
</svg>