<svg width="100" height="100" viewBox="0 0 100 100" fill="none" xmlns="http://www.w3.org/2000/svg">
<path d="M50 0C40.111 0 30.444 2.93245 22.2215 8.42652C13.9991 13.9206 7.59043 21.7295 3.80605 30.8658C0.0216642 40.0021 -0.968503 50.0555 0.960759 59.7545C2.89002 69.4536 7.65206 78.3627 14.6447 85.3553C21.6373 92.348 30.5465 97.11 40.2455 99.0393C49.9446 100.969 59.9979 99.9784 69.1342 96.194C78.2705 92.4096 86.0794 86.001 91.5735 77.7785C97.0676 69.5561 100 59.8891 100 50C100 43.4339 98.7067 36.9321 96.194 30.8658C93.6813 24.7995 89.9983 19.2876 85.3554 14.6447C80.7124 10.0017 75.2005 6.31876 69.1342 3.80602C63.0679 1.29329 56.5661 0 50 0V0ZM71.5 38.05L48.65 68.05C48.1842 68.6551 47.586 69.1454 46.9013 69.4834C46.2166 69.8215 45.4636 69.9982 44.7 70C43.9406 70.0041 43.1901 69.8351 42.5057 69.5059C41.8213 69.1767 41.2209 68.6959 40.75 68.1L28.55 52.55C28.1462 52.0313 27.8485 51.4381 27.6739 50.8043C27.4994 50.1706 27.4513 49.5086 27.5326 48.8563C27.6138 48.204 27.8228 47.574 28.1475 47.0024C28.4722 46.4308 28.9063 45.9288 29.425 45.525C30.4726 44.7095 31.8013 44.3435 33.1187 44.5076C33.7711 44.5888 34.401 44.7978 34.9726 45.1225C35.5442 45.4472 36.0462 45.8813 36.45 46.4L44.6 56.8L63.5 31.8C63.9006 31.2747 64.4006 30.8335 64.9717 30.5014C65.5428 30.1694 66.1736 29.9531 66.8283 29.8649C67.4829 29.7767 68.1485 29.8183 68.7871 29.9873C69.4257 30.1563 70.0247 30.4495 70.55 30.85C71.0753 31.2505 71.5166 31.7506 71.8486 32.3217C72.1806 32.8927 72.3969 33.5236 72.4851 34.1782C72.5733 34.8329 72.5317 35.4985 72.3627 36.1371C72.1937 36.7757 71.9006 37.3747 71.5 37.9V38.05Z" fill="#1BBC35"/>
</svg>
