<svg width="100" height="100" viewBox="0 0 100 100" fill="none" xmlns="http://www.w3.org/2000/svg">
<path d="M50 0C40.111 0 30.444 2.93245 22.2215 8.42652C13.9991 13.9206 7.59043 21.7295 3.80605 30.8658C0.0216642 40.0021 -0.968503 50.0555 0.960758 59.7545C2.89002 69.4536 7.65206 78.3627 14.6447 85.3553C21.6373 92.348 30.5465 97.11 40.2455 99.0393C49.9446 100.969 59.9979 99.9784 69.1342 96.194C78.2705 92.4096 86.0794 86.001 91.5735 77.7785C97.0676 69.5561 100 59.8891 100 50C100 43.4339 98.7067 36.9321 96.194 30.8658C93.6813 24.7995 89.9983 19.2876 85.3554 14.6447C80.7124 10.0017 75.2005 6.31876 69.1342 3.80602C63.0679 1.29329 56.5661 0 50 0ZM50 90C42.0888 90 34.3552 87.654 27.7772 83.2588C21.1992 78.8635 16.0723 72.6164 13.0448 65.3073C10.0173 57.9983 9.2252 49.9556 10.7686 42.1964C12.312 34.4371 16.1217 27.3098 21.7158 21.7157C27.3099 16.1216 34.4372 12.312 42.1964 10.7686C49.9557 9.22518 57.9983 10.0173 65.3074 13.0448C72.6164 16.0723 78.8635 21.1992 83.2588 27.7772C87.6541 34.3552 90 42.0887 90 50C90 60.6087 85.7858 70.7828 78.2843 78.2843C70.7828 85.7857 60.6087 90 50 90Z" fill="#1BBC35"/>
<path d="M63.5 31.95L44.6 56.95L36.45 46.4C35.6345 45.3524 34.4362 44.6717 33.1187 44.5076C31.8013 44.3435 30.4726 44.7095 29.425 45.525C28.3774 46.3405 27.6967 47.5388 27.5326 48.8563C27.3685 50.1737 27.7345 51.5024 28.55 52.55L40.7 68.1C41.1709 68.6959 41.7713 69.1767 42.4557 69.5059C43.1401 69.8351 43.8906 70.0041 44.65 70C45.4136 69.9982 46.1666 69.8215 46.8513 69.4834C47.536 69.1454 48.1342 68.6551 48.6 68.05L71.45 38.05C72.2589 36.9891 72.6133 35.6504 72.4351 34.3283C72.257 33.0061 71.5609 31.8089 70.5 31C69.4392 30.1911 68.1004 29.8367 66.7783 30.0149C65.4561 30.1931 64.2589 30.8891 63.45 31.95H63.5Z" fill="#1BBC35"/>
</svg>
