<?xml version="1.0" encoding="UTF-8"?>
<svg width="20px" height="20px" viewBox="0 0 20 20" version="1.1" xmlns="http://www.w3.org/2000/svg" xmlns:xlink="http://www.w3.org/1999/xlink">
    <!-- Generator: Sketch 53.1 (72631) - https://sketchapp.com -->
    <title>icon / clock</title>
    <desc>Created with Sketch.</desc>
    <g id="icon-/-clock" stroke="none" stroke-width="1" fill="none" fill-rule="evenodd">
        <g id="person-outline" fill-rule="nonzero">
            <rect id="Rectangle" fill="#FFFFFF" opacity="0" x="0" y="0" width="20" height="20"></rect>
            <g id="clock-outline" transform="translate(3.000000, 3.000000)" fill="#A6B3BD">
                <path d="M7.5,3.33066907e-16 C9.48912367,1.66533454e-16 11.396778,0.790176303 12.8033009,2.19669914 C14.2098237,3.60322198 15,5.51087633 15,7.5 C15,11.6421356 11.6421356,15 7.5,15 C3.35786438,15 -3.33066907e-16,11.6421356 0,7.5 C3.33066907e-16,3.35786438 3.35786438,-1.66533454e-16 7.5,3.33066907e-16 Z M7.5,13.5 C9.09129894,13.5 10.6174224,12.867859 11.7426407,11.7426407 C12.867859,10.6174224 13.5,9.09129894 13.5,7.5 C13.5,4.1862915 10.8137085,1.5 7.5,1.5 C4.1862915,1.5 1.5,4.1862915 1.5,7.5 C1.5,10.8137085 4.1862915,13.5 7.5,13.5 Z M10.5,6.75 C10.9142136,6.75 11.25,7.08578644 11.25,7.5 C11.25,7.91421356 10.9142136,8.25 10.5,8.25 L7.5,8.25 C7.08578644,8.25 6.75,7.91421356 6.75,7.5 L6.75,4.5 C6.75,4.08578644 7.08578644,3.75 7.5,3.75 C7.91421356,3.75 8.25,4.08578644 8.25,4.5 L8.25,6.75 L10.5,6.75 Z" id="Combined-Shape"></path>
            </g>
        </g>
    </g>
</svg>