<?xml version="1.0" encoding="UTF-8"?>
<svg width="16px" height="16px" viewBox="0 0 16 16" version="1.1" xmlns="http://www.w3.org/2000/svg"
     xmlns:xlink="http://www.w3.org/1999/xlink">
    <!-- Generator: Sketch 48.2 (47327) - http://www.bohemiancoding.com/sketch -->
    <desc>Created with Sketch.</desc>
    <defs></defs>
    <g id="Icons" stroke="none" stroke-width="1" fill="none" fill-rule="evenodd">
        <g id="Group" fill="#303C42">
            <path d="M7.152,12.7704615 C6.29353846,11.5809231 6.26092308,10.8652308 6.23446154,10.2904615 C6.22953846,10.1852308 6.22584615,10.0978462 6.21661538,10.0055385 C6.17415385,9.54953846 5.84676923,8.64738462 5.22769231,7.74461538 C4.37538462,6.49907692 3.79384615,4.63569231 4.95876923,3.48307692 C5.232,3.21230769 5.58523077,3.06953846 5.97907692,3.06953846 C6.952,3.06953846 7.98892308,4.02892308 8.61538462,4.85846154 L8.61538462,3.55261538 L8.61538462,1.23261538 C8.61538462,0.552615385 8.06276923,0 7.38461538,0 L5.53661538,0 C5.36861538,0 5.232,0.134769231 5.22892308,0.302769231 C5.22092308,0.804923077 4.80738462,1.21353846 4.30769231,1.21353846 C3.80738462,1.21353846 3.39446154,0.804923077 3.38646154,0.302769231 C3.38338462,0.134769231 3.24676923,0 3.07876923,0 L1.23076923,0 C0.552,0 0,0.552615385 0,1.23261538 L0,12.3058462 C0,12.9858462 0.552,13.5384615 1.23076923,13.5384615 L3.07692308,13.5384615 C3.24676923,13.5384615 3.38461538,13.4006154 3.38461538,13.2307692 C3.38461538,12.7206154 3.79876923,12.3058462 4.30769231,12.3058462 C4.81661538,12.3058462 5.23076923,12.7206154 5.23076923,13.2307692 C5.23076923,13.4006154 5.36861538,13.5384615 5.53846154,13.5384615 L7.38461538,13.5384615 C7.52430769,13.5384615 7.65907692,13.5101538 7.78707692,13.4646154 C7.56738462,13.2683077 7.352,13.048 7.152,12.7704615"
                  id="Fill-1450"></path>
            <path d="M15.9536615,11.8383385 C15.9487385,11.8303385 15.4373538,10.9934154 15.0724308,9.83095385 C14.9881231,9.55956923 14.8816615,9.17741538 14.7604308,8.73987692 C14.1825846,6.66295385 13.6588923,4.89741538 13.0865846,4.32141538 C12.9450462,4.17987692 12.5161231,3.74787692 9.58812308,3.26295385 C9.50135385,3.2488 9.40843077,3.27341538 9.33950769,3.33187692 C9.27058462,3.39033846 9.23058462,3.47587692 9.23058462,3.56633846 L9.23058462,6.03956923 C9.23058462,6.16449231 9.30627692,6.27710769 9.42258462,6.32449231 L10.3192,6.68941538 C10.3782769,6.90172308 10.4908923,7.28572308 10.6016615,7.56572308 C10.5487385,7.65310769 10.5050462,7.75341538 10.4570462,7.86233846 C10.3764308,8.04695385 10.2878154,8.25064615 10.1518154,8.40018462 C9.55489231,8.01741538 8.95181538,6.91895385 8.56781538,5.96264615 C8.26504615,5.20756923 6.93273846,3.69926154 5.97889231,3.69926154 C5.74996923,3.69926154 5.54750769,3.78110769 5.3912,3.93495385 C4.49643077,4.81926154 5.01766154,6.35649231 5.73581538,7.40449231 C6.3272,8.26849231 6.7672,9.29187692 6.82996923,9.95218462 C6.83981538,10.0611077 6.84473846,10.1644923 6.84966154,10.2666462 C6.87489231,10.8100308 6.90073846,11.3724923 7.65089231,12.4112615 C8.04289231,12.9534154 8.50135385,13.2721846 8.98627692,13.6100308 C9.67858462,14.0912615 10.3942769,14.5897231 11.1179692,15.8457231 C11.1727385,15.9411077 11.2742769,16.0001846 11.3844308,16.0001846 C15.0004308,16.0001846 15.9819692,12.1115692 15.9912,12.0721846 C16.0108923,11.9921846 15.9967385,11.9084923 15.9536615,11.8383385"
                  id="Fill-1452"></path>
        </g>
    </g>
</svg>
