<?xml version="1.0" encoding="UTF-8"?>
<svg width="38px" height="38px" viewBox="0 0 38 38" version="1.1" xmlns="http://www.w3.org/2000/svg" xmlns:xlink="http://www.w3.org/1999/xlink">
    <!-- Generator: sketchtool 64 (101010) - https://sketch.com -->
    <title>22F1F827-9153-4FA7-987C-F8AF462FA353-svg</title>
    <desc>Created with sketchtool.</desc>
    <defs>
    </defs>
    <circle id="Oval" fill="#303C42" cx="19" cy="19" r="19"></circle>
    <g id="coupon" transform="translate(11.000000, 14.000000)" fill="#FFFFFF">
        <path d="M4.78079037,0.0222775052 L0.503446445,0.0222775052 C0.225418146,0.0222775052 0,0.247664185 0,0.52572395 L0,3.07769398 C0,3.35575374 0.225418146,3.58114042 0.503446445,3.58114042 C1.17029273,3.58114042 1.7128192,4.1236669 1.7128192,4.79054465 C1.7128192,5.45742239 1.17029273,5.99988594 0.503446445,5.99988594 C0.225418146,5.99988594 0,6.22527262 0,6.50333238 L0,9.05533388 C0,9.33339364 0.225418146,9.55878032 0.503446445,9.55878032 L4.78079037,9.55878032 L4.78079037,0.0222775052 Z" id="Path"></path>
        <path d="M15.4965536,3.58114042 C15.7745819,3.58114042 16,3.35575374 16,3.07769398 L16,0.52572395 C16,0.247664185 15.7745819,0.0222775052 15.4965536,0.0222775052 L5.78768326,0.0222775052 L5.78768326,9.55881179 L15.4965536,9.55881179 C15.7745819,9.55881179 16,9.33342511 16,9.05536534 L16,6.50336385 C16,6.22530408 15.7745819,5.9999174 15.4965536,5.9999174 C14.8297073,5.9999174 14.2871808,5.45742239 14.2871808,4.79054465 C14.2871808,4.1236669 14.8297073,3.58114042 15.4965536,3.58114042 Z" id="Path"></path>
    </g>
</svg>
