<?xml version="1.0" encoding="UTF-8"?>
<svg width="16px" height="16px" viewBox="0 0 16 16" version="1.1" xmlns="http://www.w3.org/2000/svg"
     xmlns:xlink="http://www.w3.org/1999/xlink">
    <!-- Generator: Sketch 48.2 (47327) - http://www.bohemiancoding.com/sketch -->
    <desc>Created with Sketch.</desc>
    <defs></defs>
    <g id="Icons" stroke="none" stroke-width="1" fill="none" fill-rule="evenodd">
        <g id="stopwatch" fill="#000000" fill-rule="nonzero">
            <g id="Group">
                <path d="M9.36738703,0 L6.86836935,0 C6.50058939,0 6.20196464,0.298624754 6.20196464,0.666404715 L6.20196464,0.880157171 C6.20196464,1.24793713 6.50058939,1.54656189 6.86836935,1.54656189 L9.36738703,1.54656189 C9.73516699,1.54656189 10.0337917,1.24793713 10.0337917,0.880157171 L10.0337917,0.666404715 C10.0337917,0.298624754 9.73516699,0 9.36738703,0 Z"
                      id="Shape"></path>
                <path d="M15.0664047,8.8172888 C14.9658153,5.06090373 11.8946955,2.04950884 8.11630648,2.04950884 C6.23968566,2.04950884 4.5453831,2.7913556 3.29430255,3.99528487 L4.75913556,5.4632613 C5.63614931,4.63339882 6.81493124,4.12416503 8.11630648,4.12416503 C10.7442043,4.12416503 12.8911591,6.21453831 12.9917485,8.8172888 C12.9948919,8.88330059 13.0011788,8.94616896 13.0011788,9.01218075 C13.0011788,10.3104126 12.4888016,11.4923379 11.6589391,12.3662083 C10.7693517,13.3092338 9.51198428,13.9001965 8.11630648,13.9001965 C5.41925344,13.9001965 3.22514735,11.7092338 3.22514735,9.01218075 C3.22514735,8.94931238 3.23143418,8.88958743 3.2345776,8.82986248 L4.38192534,8.82986248 L2.19724951,5.82475442 L0.0125736739,8.82986248 L1.16620825,8.82986248 C1.16306483,8.89273084 1.156778,8.9524558 1.156778,9.01218075 C1.156778,12.8565815 4.27504912,15.9717092 8.1194499,15.9717092 C10.0872299,15.9717092 11.8664047,15.151277 13.1300589,13.8341847 C14.3339882,12.5831041 15.0789784,10.8856582 15.0789784,9.01218075 C15.075835,8.94302554 15.0695481,8.88015717 15.0664047,8.8172888 Z"
                      id="Shape"></path>
            </g>
            <path d="M7.32416503,1.54341847 L7.32416503,2.09980354 C7.58506876,2.07151277 7.84911591,2.04950884 8.1194499,2.04950884 C8.38978389,2.04950884 8.65383104,2.06836935 8.91787819,2.09980354 L8.91787819,1.54341847 L7.32416503,1.54341847 Z"
                  id="Shape"></path>
            <path d="M11.7941061,9.01218075 C11.7941061,10.9045187 10.2569745,12.4447937 8.36149312,12.4447937 C7.47819253,12.4447937 6.67347741,12.1053045 6.06365422,11.5552063 L8.36149312,9.25736739 L8.36149312,5.57642436 C9.37053045,5.57642436 10.275835,6.01650295 10.9076621,6.71119843 C11.4577603,7.32416503 11.7941061,8.12573674 11.7941061,9.01218075 Z"
                  id="Shape"></path>
        </g>
    </g>
</svg>
