<?xml version="1.0" encoding="UTF-8"?>
<svg width="120px" height="120px" viewBox="0 0 120 120" version="1.1" xmlns="http://www.w3.org/2000/svg"
     xmlns:xlink="http://www.w3.org/1999/xlink">
    <!-- Generator: Sketch 47.1 (45422) - http://www.bohemiancoding.com/sketch -->
    <title>default company@svg</title>
    <desc>Created with Sketch.</desc>
    <defs>
        <circle id="path-1" cx="60" cy="60" r="60"></circle>
    </defs>
    <g id="Flows" stroke="none" stroke-width="1" fill="none" fill-rule="evenodd">
        <g id="default-company">
            <mask id="mask-2" fill="white">
                <use xlink:href="#path-1"></use>
            </mask>
            <use id="Mask" fill="#D3DDEA" xlink:href="#path-1"></use>
            <rect id="Rectangle-3" fill="#FFFFFF" mask="url(#mask-2)" x="21" y="104" width="78" height="16"></rect>
            <path d="M54.1666667,98.6666667 L54.1666667,85.8333333 C54.1666667,85.1893333 54.6893333,84.6666667 55.3333333,84.6666667 L64.6666667,84.6666667 C65.3106667,84.6666667 65.8333333,85.1893333 65.8333333,85.8333333 L65.8333333,98.6666667 L54.1666667,98.6666667 Z M47.1666667,68.3333333 L37.8333333,68.3333333 C37.1893333,68.3333333 36.6666667,67.8106667 36.6666667,67.1666667 L36.6666667,57.8333333 C36.6666667,57.1893333 37.1893333,56.6666667 37.8333333,56.6666667 L47.1666667,56.6666667 C47.8106667,56.6666667 48.3333333,57.1893333 48.3333333,57.8333333 L48.3333333,67.1666667 C48.3333333,67.8106667 47.8106667,68.3333333 47.1666667,68.3333333 L47.1666667,68.3333333 Z M48.3333333,85.8333333 L48.3333333,95.1666667 C48.3333333,95.8106667 47.8106667,96.3333333 47.1666667,96.3333333 L37.8333333,96.3333333 C37.1893333,96.3333333 36.6666667,95.8106667 36.6666667,95.1666667 L36.6666667,85.8333333 C36.6666667,85.1893333 37.1893333,84.6666667 37.8333333,84.6666667 L47.1666667,84.6666667 C47.8106667,84.6666667 48.3333333,85.1893333 48.3333333,85.8333333 L48.3333333,85.8333333 Z M47.1666667,82.3333333 L37.8333333,82.3333333 C37.1893333,82.3333333 36.6666667,81.8106667 36.6666667,81.1666667 L36.6666667,71.8333333 C36.6666667,71.1893333 37.1893333,70.6666667 37.8333333,70.6666667 L47.1666667,70.6666667 C47.8106667,70.6666667 48.3333333,71.1893333 48.3333333,71.8333333 L48.3333333,81.1666667 C48.3333333,81.8106667 47.8106667,82.3333333 47.1666667,82.3333333 L47.1666667,82.3333333 Z M65.8333333,71.8333333 L65.8333333,81.1666667 C65.8333333,81.8106667 65.3106667,82.3333333 64.6666667,82.3333333 L55.3333333,82.3333333 C54.6893333,82.3333333 54.1666667,81.8106667 54.1666667,81.1666667 L54.1666667,71.8333333 C54.1666667,71.1893333 54.6893333,70.6666667 55.3333333,70.6666667 L64.6666667,70.6666667 C65.3106667,70.6666667 65.8333333,71.1893333 65.8333333,71.8333333 L65.8333333,71.8333333 Z M64.6666667,68.3333333 L55.3333333,68.3333333 C54.6893333,68.3333333 54.1666667,67.8106667 54.1666667,67.1666667 L54.1666667,57.8333333 C54.1666667,57.1893333 54.6893333,56.6666667 55.3333333,56.6666667 L64.6666667,56.6666667 C65.3106667,56.6666667 65.8333333,57.1893333 65.8333333,57.8333333 L65.8333333,67.1666667 C65.8333333,67.8106667 65.3106667,68.3333333 64.6666667,68.3333333 L64.6666667,68.3333333 Z M82.1666667,68.3333333 L72.8333333,68.3333333 C72.1893333,68.3333333 71.6666667,67.8106667 71.6666667,67.1666667 L71.6666667,57.8333333 C71.6666667,57.1893333 72.1893333,56.6666667 72.8333333,56.6666667 L82.1666667,56.6666667 C82.8106667,56.6666667 83.3333333,57.1893333 83.3333333,57.8333333 L83.3333333,67.1666667 C83.3333333,67.8106667 82.8106667,68.3333333 82.1666667,68.3333333 L82.1666667,68.3333333 Z M83.3333333,85.8333333 L83.3333333,95.1666667 C83.3333333,95.8106667 82.8106667,96.3333333 82.1666667,96.3333333 L72.8333333,96.3333333 C72.1893333,96.3333333 71.6666667,95.8106667 71.6666667,95.1666667 L71.6666667,85.8333333 C71.6666667,85.1893333 72.1893333,84.6666667 72.8333333,84.6666667 L82.1666667,84.6666667 C82.8106667,84.6666667 83.3333333,85.1893333 83.3333333,85.8333333 L83.3333333,85.8333333 Z M82.1666667,82.3333333 L72.8333333,82.3333333 C72.1893333,82.3333333 71.6666667,81.8106667 71.6666667,81.1666667 L71.6666667,71.8333333 C71.6666667,71.1893333 72.1893333,70.6666667 72.8333333,70.6666667 L82.1666667,70.6666667 C82.8106667,70.6666667 83.3333333,71.1893333 83.3333333,71.8333333 L83.3333333,81.1666667 C83.3333333,81.8106667 82.8106667,82.3333333 82.1666667,82.3333333 L82.1666667,82.3333333 Z M93.8333333,54.3333333 C94.4773333,54.3333333 95,53.8106667 95,53.1666667 L95,49.6666667 C95,47.093 92.907,45 90.3333333,45 L85.6666667,45 L85.6666667,42.6666667 C85.6666667,40.093 83.5736667,38 81,38 L39,38 C36.4263333,38 34.3333333,40.093 34.3333333,42.6666667 L34.3333333,45 L29.6666667,45 C27.093,45 25,47.093 25,49.6666667 L25,53.1666667 C25,53.8106667 25.5226667,54.3333333 26.1666667,54.3333333 L27.3333333,54.3333333 L27.3333333,98.6666667 L26.1666667,98.6666667 C25.5226667,98.6666667 25,99.1893333 25,99.8333333 L25,106.833333 C25,107.477333 25.5226667,108 26.1666667,108 L93.8333333,108 C94.4773333,108 95,107.477333 95,106.833333 L95,99.8333333 C95,99.1893333 94.4773333,98.6666667 93.8333333,98.6666667 L92.6666667,98.6666667 L92.6666667,54.3333333 L93.8333333,54.3333333 Z"
                  id="Fill-279" fill="#FFFFFF" mask="url(#mask-2)"></path>
        </g>
    </g>
</svg>