<?xml version="1.0" encoding="UTF-8"?>
<svg width="120px" height="120px" viewBox="0 0 120 120" version="1.1" xmlns="http://www.w3.org/2000/svg"
     xmlns:xlink="http://www.w3.org/1999/xlink">
    <!-- Generator: Sketch 47.1 (45422) - http://www.bohemiancoding.com/sketch -->
    <title>default employee@svg</title>
    <desc>Created with Sketch.</desc>
    <defs>
        <circle id="path-1" cx="60" cy="60" r="60"></circle>
    </defs>
    <g id="Flows" stroke="none" stroke-width="1" fill="none" fill-rule="evenodd">
        <g id="default-employee">
            <mask id="mask-2" fill="white">
                <use xlink:href="#path-1"></use>
            </mask>
            <use id="Mask" fill="#D3DDEA" xlink:href="#path-1"></use>
            <path d="M103.706509,103.301552 C101.07191,99.2886487 96.8633959,93.7882032 92.1416481,92.1622854 L85.7433376,90.0174576 C82.5875794,88.93041 79.8791918,86.8127581 78.0448357,83.9981022 L76.607782,82.4067783 C76.2813065,82.0508394 75.8219223,81.8499896 75.3418061,81.8532744 L73.1862256,81.8532744 L71.6123097,75.937701 C74.4849623,72.6226334 76.475012,68.6223244 77.39474,64.3141181 C81.0215898,61.7887564 81.6032544,50.8570534 81.6032544,50.7532715 C81.6566711,48.5964493 80.8844578,46.5020454 79.4476738,44.906886 C80.7265164,42.5696282 81.4526083,39.9646767 81.5690388,37.2962068 L82.8007991,36.5005449 C83.2489125,36.1450367 83.4926355,35.5873523 83.4508948,35.013003 C83.4508948,27.0909778 75.8892552,16.0554929 61.5529338,16.0554929 C56.8345831,15.6843206 52.1587526,17.1857198 48.5168039,20.2413665 C43.2035457,21.7758439 39.4471341,26.5615497 39.175955,32.1417013 L39.175955,34.1481531 C39.0074838,37.6162006 39.179402,41.0925926 39.6891884,44.5263521 C38.1000924,46.1437862 37.2772174,48.3749951 37.4309612,50.6494895 C37.4309612,50.6494895 37.9784102,61.6849744 41.6394756,64.2103361 C42.5577704,68.5190538 44.5479929,72.5197099 47.4219059,75.833919 L45.8137744,81.7840864 L43.0080981,81.7840864 C42.3174537,81.787572 41.6966217,82.2105863 41.4341822,82.8565003 L40.9209487,84.2056662 C39.1158851,86.9306553 36.4688882,88.974355 33.3935246,90.0174576 L26.8925675,92.1622854 C21.9997418,93.7882032 17.9280897,99.3232427 15.2934913,103.301552 C14.9370309,103.834658 14.9027446,104.523767 15.2044904,105.09035 C15.5062363,105.656933 16.0941269,106.007318 16.730545,105.999884 L102.269455,105.999884 C102.905873,106.007318 103.493764,105.656933 103.79551,105.09035 C104.097255,104.523767 104.062969,103.834658 103.706509,103.301552 Z"
                  id="Shape" fill="#FFFFFF" fill-rule="nonzero" mask="url(#mask-2)"></path>
            <rect id="Rectangle-3" fill="#FFFFFF" mask="url(#mask-2)" x="21" y="104" width="78" height="16"></rect>
        </g>
    </g>
</svg>