<?xml version="1.0" encoding="UTF-8"?>
<svg width="120px" height="120px" viewBox="0 0 120 120" version="1.1" xmlns="http://www.w3.org/2000/svg"
     xmlns:xlink="http://www.w3.org/1999/xlink">
    <!-- Generator: Sketch 47.1 (45422) - http://www.bohemiancoding.com/sketch -->
    <title>default service@svg</title>
    <desc>Created with Sketch.</desc>
    <defs>
        <circle id="path-1" cx="60" cy="60" r="60"></circle>
    </defs>
    <g id="Flows" stroke="none" stroke-width="1" fill="none" fill-rule="evenodd">
        <g id="default-service">
            <mask id="mask-2" fill="white">
                <use xlink:href="#path-1"></use>
            </mask>
            <use id="Mask" fill="#D3DDEA" xlink:href="#path-1"></use>
            <path d="M84,84 L71,84 C71,76.8305 76.8305,71 84,71 L84,84 Z M36,43 L84,43 L84,51.8421053 L77.6727273,51.8421053 C77.1730909,51.8421053 76.7367273,52.1869474 76.6145455,52.6798947 L75.0676364,58.9489474 C74.0945455,59.2937895 73.1149091,59.7093684 72.1461818,60.1868421 L66.6654545,56.8555789 C66.2334545,56.5947368 65.6858182,56.6632632 65.3323636,57.0213684 L56.3847273,66.0867368 C56.0312727,66.4448421 55.9614545,67.0018947 56.2210909,67.4373684 L59.5090909,72.9902105 C59.0378182,73.9738947 58.6276364,74.9642105 58.2872727,75.9501053 L52.0996364,77.5173684 C51.6130909,77.6411579 51.2727273,78.0832632 51.2727273,78.5894737 L51.2727273,85 L36,85 L36,43 Z M40,36 C40.552,36 41,36.448 41,37 C41,37.552 40.552,38 40,38 C39.448,38 39,37.552 39,37 C39,36.448 39.448,36 40,36 L40,36 Z M46,36 C46.552,36 47,36.448 47,37 C47,37.552 46.552,38 46,38 C45.448,38 45,37.552 45,37 C45,36.448 45.448,36 46,36 L46,36 Z M53,36 C53.552,36 54,36.448 54,37 C54,37.552 53.552,38 53,38 C52.448,38 52,37.552 52,37 C52,36.448 52.448,36 53,36 L53,36 Z M84.6153846,32 L36.3846154,32 C33.9665,32 32,33.9665 32,36.3846154 L32,84.6153846 C32,87.0335 33.9665,89 36.3846154,89 L84.6153846,89 C87.0335,89 89,87.0335 89,84.6153846 L89,36.3846154 C89,33.9665 87.0335,32 84.6153846,32 L84.6153846,32 Z"
                  id="Fill-313" fill="#FFFFFF" mask="url(#mask-2)"></path>
        </g>
    </g>
</svg>