<?xml version="1.0" encoding="UTF-8"?>
<svg width="16px" height="16px" viewBox="0 0 16 16" version="1.1" xmlns="http://www.w3.org/2000/svg"
     xmlns:xlink="http://www.w3.org/1999/xlink">
    <!-- Generator: Sketch 47.1 (45422) - http://www.bohemiancoding.com/sketch -->
    <desc>Created with Sketch.</desc>
    <defs></defs>
    <g id="Page-1" stroke="none" stroke-width="1" fill="none" fill-rule="evenodd">
        <g id="Icons">
            <rect id="Rectangle" fill-opacity="0" fill="#D8D8D8" x="0" y="0" width="16" height="16"></rect>
            <path d="M6.40259742,6.33333333 L6.40259742,12.3333333 C6.40259742,12.4305556 6.3709416,12.5104166 6.30762987,12.5729166 C6.24431822,12.6354166 6.16341991,12.6666667 6.06493511,12.6666667 L5.3896104,12.6666667 C5.2911256,12.6666667 5.21022729,12.6354166 5.14691564,12.5729166 C5.08360391,12.5104166 5.05194809,12.4305556 5.05194809,12.3333333 L5.05194809,6.33333333 C5.05194809,6.23611111 5.08360391,6.15624996 5.14691564,6.09374996 C5.21022729,6.03124996 5.2911256,6 5.3896104,6 L6.06493511,6 C6.16341991,6 6.24431822,6.03124996 6.30762987,6.09374996 C6.3709416,6.15624996 6.40259742,6.23611111 6.40259742,6.33333333 L6.40259742,6.33333333 Z M9.10389609,6.33333333 L9.10389609,12.3333333 C9.10389609,12.4305556 9.07224027,12.5104166 9.00892862,12.5729166 C8.94561689,12.6354166 8.86471867,12.6666667 8.76623378,12.6666667 L8.09090907,12.6666667 C7.99242427,12.6666667 7.91152596,12.6354166 7.84821431,12.5729166 C7.78490258,12.5104166 7.75324676,12.4305556 7.75324676,12.3333333 L7.75324676,6.33333333 C7.75324676,6.23611111 7.78490258,6.15624996 7.84821431,6.09374996 C7.91152596,6.03124996 7.99242427,6 8.09090907,6 L8.76623378,6 C8.86471867,6 8.94561689,6.03124996 9.00892862,6.09374996 C9.07224027,6.15624996 9.10389609,6.23611111 9.10389609,6.33333333 L9.10389609,6.33333333 Z M11.8051948,6.33333333 L11.8051948,12.3333333 C11.8051948,12.4305556 11.7735389,12.5104166 11.7102273,12.5729166 C11.6469156,12.6354166 11.5660173,12.6666667 11.4675324,12.6666667 L10.7922078,12.6666667 C10.6937229,12.6666667 10.6128247,12.6354166 10.549513,12.5729166 C10.4862013,12.5104166 10.4545455,12.4305556 10.4545455,12.3333333 L10.4545455,6.33333333 C10.4545455,6.23611111 10.4862013,6.15624996 10.549513,6.09374996 C10.6128247,6.03124996 10.6937229,6 10.7922078,6 L11.4675324,6 C11.5660173,6 11.6469156,6.03124996 11.7102273,6.09374996 C11.7735389,6.15624996 11.8051948,6.23611111 11.8051948,6.33333333 L11.8051948,6.33333333 Z M13.1558442,13.875 L13.1558442,4 L3.70129876,4 L3.70129876,13.875 C3.70129876,14.0277778 3.72591991,14.1684028 3.77516231,14.296875 C3.8244048,14.4253472 3.87540587,14.5190972 3.9281656,14.578125 C3.98092533,14.6371528 4.01785716,14.6666667 4.03896107,14.6666667 L12.8181818,14.6666667 C12.8392857,14.6666667 12.8762175,14.6371528 12.9289772,14.578125 C12.981737,14.5190972 13.032738,14.4253472 13.0819805,14.296875 C13.1312229,14.1684028 13.1558442,14.0277778 13.1558442,13.875 L13.1558442,13.875 Z M6.06493511,2.66666667 L10.7922078,2.66666667 L10.2857143,1.44791662 C10.2364719,1.38541662 10.1766775,1.34722222 10.1063312,1.33333333 L6.76136364,1.33333333 C6.69101733,1.34722222 6.63122293,1.38541662 6.58198053,1.44791662 L6.06493511,2.66666667 Z M15.8571428,3 L15.8571428,3.66666667 C15.8571428,3.76388889 15.825487,3.84374996 15.7621753,3.90624996 C15.6988636,3.96874996 15.6179653,4 15.5194805,4 L14.5064935,4 L14.5064935,13.875 C14.5064935,14.4513889 14.3411796,14.9496528 14.0105519,15.3697916 C13.6799243,15.7899306 13.2824676,16 12.8181818,16 L4.03896107,16 C3.57467529,16 3.17721858,15.796875 2.84659093,15.390625 C2.5159632,14.984375 2.35064933,14.4930556 2.35064933,13.9166667 L2.35064933,4 L1.33766231,4 C1.23917751,4 1.1582792,3.96874996 1.09496756,3.90624996 C1.03165582,3.84374996 1,3.76388889 1,3.66666667 L1,3 C1,2.90277778 1.03165582,2.82291662 1.09496756,2.76041662 C1.1582792,2.69791662 1.23917751,2.66666667 1.33766231,2.66666667 L4.59821431,2.66666667 L5.33685067,0.927083378 C5.44237013,0.670138933 5.63230524,0.451388889 5.90665582,0.270833333 C6.18100649,0.0902777778 6.45887449,0 6.74025973,0 L10.1168831,0 C10.3982684,0 10.6761364,0.0902777778 10.950487,0.270833333 C11.2248377,0.451388889 11.4147727,0.670138933 11.5202922,0.927083378 L12.2589285,2.66666667 L15.5194805,2.66666667 C15.6179653,2.66666667 15.6988636,2.69791662 15.7621753,2.76041662 C15.825487,2.82291662 15.8571428,2.90277778 15.8571428,3 L15.8571428,3 Z"
                  id="el-icon-delete2" fill="#616E7C" fill-rule="nonzero"></path>
        </g>
    </g>
</svg>