<?xml version="1.0" encoding="UTF-8"?>
<svg width="16px" height="16px" viewBox="0 0 20 20" version="1.1" xmlns="http://www.w3.org/2000/svg"
     xmlns:xlink="http://www.w3.org/1999/xlink">
    <!-- Generator: sketchtool 46.2 (44496) - http://www.bohemiancoding.com/sketch -->
    <title>Duration Icon</title>
    <desc>Created with sketchtool.</desc>
    <defs></defs>
    <g id="Page-1" stroke="none" stroke-width="1" fill="none" fill-rule="evenodd">
        <g id="Dashboard-2" transform="translate(-1002.000000, -169.000000)" fill-rule="nonzero" fill="#616E7C">
            <g id="Top-Stats" transform="translate(207.000000, 164.000000)">
                <g id="Stats" transform="translate(585.000000, 5.000000)">
                    <g id="Stats-Block-#1">
                        <g id="Base">
                            <g id="loop" transform="translate(210.000000, 0.000000)">
                                <g id="timelapse">
                                    <path d="M14.2,5.8 C13.1,4.6 11.5,4 10,4 L10,10 L5.8,14.2 C8.1,16.5 11.9,16.5 14.3,14.2 C16.6,11.9 16.6,8.1 14.2,5.8 L14.2,5.8 Z M10,0 C4.5,0 0,4.5 0,10 C0,15.5 4.5,20 10,20 C15.5,20 20,15.5 20,10 C20,4.5 15.5,0 10,0 L10,0 Z M10,18 C5.6,18 2,14.4 2,10 C2,5.6 5.6,2 10,2 C14.4,2 18,5.6 18,10 C18,14.4 14.4,18 10,18 L10,18 Z"
                                          id="Shape"></path>
                                </g>
                            </g>
                        </g>
                    </g>
                </g>
            </g>
        </g>
    </g>
</svg>
