<?xml version="1.0" encoding="UTF-8"?>
<svg width="24" height="24" viewBox="0 0 16 12" version="1.1" xmlns="http://www.w3.org/2000/svg"
     xmlns:xlink="http://www.w3.org/1999/xlink">
    <!-- Generator: Sketch 48.2 (47327) - http://www.bohemiancoding.com/sketch -->
    <desc>Created with Sketch.</desc>
    <defs></defs>
    <g id="Icons" stroke="none" stroke-width="1" fill="#1A84EE" fill-rule="nonzero"
       transform="translate(0.000000, -2.000000)">
        <g id="email-settings" transform="translate(0.000000, 2.000000)" fill="#1A84EE">
            <path d="M5.33818667,5.0336 C5.54885333,5.2224 5.82725333,5.32586667 6.12378667,5.32586667 C6.39845333,5.32586667 6.66138667,5.23413333 6.86298667,5.06986667 L12.38032,0.637866667 C12.4448533,0.586666667 12.4816533,0.508266667 12.4805867,0.426133333 C12.47952,0.344 12.43952,0.266666667 12.3733867,0.2176 C12.1861867,0.0752 11.96432,0 11.7333867,0 L1.06725333,0 C0.851253333,0 0.64272,0.0650666667 0.464586667,0.1872 C0.39792,0.233066667 0.355253333,0.307733333 0.34992,0.389333333 C0.344586667,0.4704 0.376053333,0.549866667 0.43792,0.6048 L5.33818667,5.0336 Z"
                  id="Fill-1142"></path>
            <path d="M9.25226667,5.89141333 L10.1568,4.98634667 C10.3530667,4.78954667 10.6437333,4.70741333 10.9157333,4.77514667 C11.0298667,4.80234667 11.1477333,4.75434667 11.2085333,4.65354667 C11.3525333,4.41514667 11.6149333,4.26688 11.8928,4.26688 L12.5338667,4.26688 C12.6816,4.26688 12.8005333,4.14741333 12.8005333,4.00021333 L12.8005333,1.54101333 C12.8005333,1.43808 12.7418667,1.34474667 12.6490667,1.30048 C12.5568,1.25568 12.4469333,1.26848 12.3669333,1.33301333 L7.19893333,5.48394667 C6.57333333,5.99648 5.58613333,5.97354667 4.9808,5.42954667 L0.445866667,1.33088 C0.368,1.26048 0.255466667,1.24288 0.158933333,1.28501333 C0.0624,1.32768 0,1.42368 0,1.52874667 L0,8.00021333 C0,8.58848 0.479466667,9.06688 1.0672,9.06688 L8.26666667,9.06688 C8.4144,9.06688 8.53333333,8.94741333 8.53333333,8.80021333 L8.53333333,7.62688 C8.53333333,7.34794667 8.68213333,7.08554667 8.92053333,6.94154667 C9.0208,6.88074667 9.06986667,6.76234667 9.0416,6.64874667 C8.9744,6.37888 9.05546667,6.08821333 9.25226667,5.89141333"
                  id="Fill-1144"></path>
            <path d="M14.1334933,8.26693333 C14.1334933,9.14906667 13.4156267,9.86693333 12.5334933,9.86693333 C11.65136,9.86693333 10.9334933,9.14906667 10.9334933,8.26693333 C10.9334933,7.3848 11.65136,6.66693333 12.5334933,6.66693333 C13.4156267,6.66693333 14.1334933,7.3848 14.1334933,8.26693333 M15.7980267,7.36826667 L15.14256,7.204 C15.1382933,7.19386667 15.1340267,7.18373333 15.12976,7.1736 L15.4774933,6.59386667 C15.5404267,6.48933333 15.52336,6.35493333 15.43696,6.268 L14.5324267,5.36293333 C14.4454933,5.27653333 14.31056,5.26 14.2070933,5.32293333 L13.62736,5.67066667 L13.5958933,5.65786667 L13.4326933,5.0024 C13.4028267,4.88346667 13.29616,4.80026667 13.1734933,4.80026667 L11.8934933,4.80026667 C11.7708267,4.80026667 11.66416,4.88346667 11.6342933,5.0024 L11.4710933,5.65786667 L11.4396267,5.67066667 L10.8598933,5.32293333 C10.7564267,5.26 10.6214933,5.27653333 10.53456,5.36293333 L9.63002667,6.268 C9.54362667,6.35493333 9.52656,6.48933333 9.58949333,6.59386667 L9.93722667,7.1736 C9.93296,7.18373333 9.92869333,7.19386667 9.92442667,7.204 L9.26896,7.36826667 C9.15002667,7.3976 9.06682667,7.50426667 9.06682667,7.62693333 L9.06682667,8.90693333 C9.06682667,9.0296 9.15002667,9.13626667 9.26896,9.1656 L9.92442667,9.32986667 C9.92869333,9.34 9.93296,9.35013333 9.93722667,9.36026667 L9.58949333,9.94 C9.52656,10.0445333 9.54362667,10.1789333 9.63002667,10.2658667 L10.53456,11.1709333 C10.6214933,11.2573333 10.7558933,11.2738667 10.8604267,11.2109333 L11.4396267,10.8632 L11.4710933,10.876 L11.6342933,11.5314667 C11.66416,11.6504 11.7708267,11.7336 11.8934933,11.7336 L13.1734933,11.7336 C13.29616,11.7336 13.4028267,11.6504 13.4326933,11.5314667 L13.5958933,10.876 L13.62736,10.8632 L14.20656,11.2109333 C14.3110933,11.2738667 14.4454933,11.2573333 14.5324267,11.1709333 L15.43696,10.2658667 C15.52336,10.1789333 15.5404267,10.0445333 15.4774933,9.94 L15.12976,9.36026667 C15.1340267,9.35013333 15.1382933,9.34 15.14256,9.32986667 L15.7980267,9.1656 C15.9174933,9.13626667 16.00016,9.0296 16.00016,8.90693333 L16.00016,7.62693333 C16.00016,7.50426667 15.9174933,7.3976 15.7980267,7.36826667"
                  id="Fill-1146"></path>
        </g>
    </g>
</svg>
