<?xml version="1.0" encoding="UTF-8"?>
<svg width="240px" height="183px" viewBox="0 0 240 183" version="1.1" xmlns="http://www.w3.org/2000/svg"
     xmlns:xlink="http://www.w3.org/1999/xlink">
    <!-- Generator: Sketch 48.2 (47327) - http://www.bohemiancoding.com/sketch -->
    <desc>Created with Sketch.</desc>
    <defs>
        <path d="M14.5857988,1.0910877 L156.944571,21.2970828 C164.444532,22.444795 170.524453,27.686021 170.524453,32.9955281 L170.524453,68.4624665 C170.524453,73.7719736 164.444532,79.0055174 156.944571,80.1437945 L15.591716,95.1486608 C8.09175443,96.1065431 9.1848039e-16,89.811518 0,79.8555862 L0,16.3687816 C8.68387437e-16,6.41284978 7.08583727,0.124692368 14.5857988,1.0910877 Z"
              id="path-1"></path>
        <filter x="-36.4%" y="-45.6%" width="172.7%" height="231.6%" filterUnits="objectBoundingBox" id="filter-2">
            <feOffset dx="0" dy="19" in="SourceAlpha" result="shadowOffsetOuter1"></feOffset>
            <feGaussianBlur stdDeviation="17.5" in="shadowOffsetOuter1" result="shadowBlurOuter1"></feGaussianBlur>
            <feColorMatrix values="0 0 0 0 0.226735433   0 0 0 0 0.437054197   0 0 0 0 0.687818878  0 0 0 0.189056839 0"
                           type="matrix" in="shadowBlurOuter1"></feColorMatrix>
        </filter>
    </defs>
    <g id="#15-Search--Empty" stroke="none" stroke-width="1" fill="none" fill-rule="evenodd"
       transform="translate(-614.000000, -282.000000)">
        <g id="emptystate_services" transform="translate(648.000000, 295.000000)">
            <g id="Group-13">
                <g id="2" transform="translate(0.743691, 106.297056)">
                    <rect id="Rectangle-18" fill="#FFFFFF" x="0" y="0" width="170.524453" height="63.1715969"
                          rx="13.5"></rect>
                    <rect id="Rectangle" fill="#1B3554" opacity="0.300000012" x="59.3491124" y="13.0769231"
                          width="95.5118312" height="6.62217443" rx="3.31108721"></rect>
                    <rect id="Rectangle-Copy" fill="#1B3554" opacity="0.300000012" x="59.3491124" y="25.147929"
                          width="70.3437873" height="6.62217443" rx="3.31108721"></rect>
                    <rect id="Rectangle-Copy-2" fill="#1B3554" opacity="0.149999991" x="59.3491124" y="43.2544379"
                          width="27.3134404" height="6.62217443" rx="3.31108721"></rect>
                    <ellipse id="Oval-8" fill="#BAC2CB" cx="30.5909804" cy="23.4990776" rx="15.502223"
                             ry="15.4517403"></ellipse>
                    <path d="M28.1047581,29.23252 C28.3997507,29.5275126 28.7852781,29.6746317 29.1715599,29.6746317 C29.5578418,29.6746317 29.9433691,29.5275126 30.2383617,29.23252 L37.782929,21.6879527 C38.3721597,21.098722 38.3721597,20.1435798 37.782929,19.5543491 C37.1936983,18.9651184 36.2385561,18.9651184 35.6493254,19.5543491 L29.1715599,26.0313601 L25.7116213,22.572176 C25.1223906,21.9829453 24.1672484,21.9829453 23.5780177,22.572176 C22.988787,23.1614067 22.988787,24.1165489 23.5780177,24.7057796 L28.1047581,29.23252 Z"
                          id="Shape" fill="#FFFFFF" fill-rule="nonzero"></path>
                </g>
                <g id="1" transform="translate(0.743691, 0.673963)">
                    <g id="Rectangle-18">
                        <use fill="black" fill-opacity="1" filter="url(#filter-2)" xlink:href="#path-1"></use>
                        <use fill="#FFFFFF" fill-rule="evenodd" xlink:href="#path-1"></use>
                    </g>
                    <path d="M62.6601996,30.0455456 L151.549856,36.2262136 C153.378519,36.3597511 154.860944,37.6094571 154.860944,39.0172769 C154.860944,40.4250968 153.378519,41.49638 151.549856,41.4102053 L62.6601996,37.4213171 C60.8315367,37.3433708 59.3491124,35.6118419 59.3491124,33.5536888 C59.3491124,31.4955358 60.8315367,29.9247822 62.6601996,30.0455456 Z"
                          id="Rectangle" fill="#1B3554" opacity="0.300000012"></path>
                    <path d="M62.6601996,43.4902203 L126.381813,45.0351964 C128.210475,45.0811552 129.6929,46.4040926 129.6929,47.9899778 C129.6929,49.5758631 128.210475,50.8615938 126.381813,50.8617367 L62.6601996,50.8659918 C60.8315367,50.8660932 59.3491124,49.1977118 59.3491124,47.1395588 C59.3491124,45.0814058 60.8315367,43.4475046 62.6601996,43.4902203 Z"
                          id="Rectangle-Copy" fill="#1B3554" opacity="0.300000012"></path>
                    <path d="M62.6601996,63.6572325 L83.3514657,62.8047474 C85.1801286,62.7284204 86.6625529,64.1898406 86.6625529,66.0690657 C86.6625529,67.9482908 85.1801286,69.5693885 83.3514657,69.6896609 L62.6601996,71.033004 C60.8315367,71.1501768 59.3491124,69.5765167 59.3491124,67.5183637 C59.3491124,65.4602107 60.8315367,63.7315882 62.6601996,63.6572325 Z"
                          id="Rectangle-Copy-2" fill="#1B3554" opacity="0.149999991"></path>
                    <path d="M32.7614646,59.6757082 C42.5218314,59.470101 50.4341719,51.1766997 50.4341719,41.154152 C50.4341719,31.1316042 42.5218314,22.450245 32.7614646,21.7711936 C23.0010979,21.1003158 15.0887574,29.4001675 15.0887574,40.3020311 C15.0887574,51.2038947 23.0010979,59.8788036 32.7614646,59.6757082 Z"
                          id="Oval-8" fill="#A28FF3"></path>
                    <path d="M29.9271435,47.7348553 C30.2634383,48.1013006 30.7029439,48.2854944 31.1433095,48.2881771 C31.5836751,48.2908612 32.0231806,48.1127767 32.3594755,47.7528053 L40.9603664,38.7441952 C41.632096,38.0567477 41.632096,36.9100589 40.9603664,36.1784909 C40.2886369,35.4446114 39.1997641,35.4036172 38.5280345,36.0911321 L31.1433095,43.802371 L27.1989409,39.4379419 C26.5272113,38.6866782 25.4383385,38.6558746 24.7666089,39.3732753 C24.0948793,40.0929757 24.0948793,41.2885022 24.7666089,42.0397164 L29.9271435,47.7348553 Z"
                          id="Shape" fill="#FFFFFF" fill-rule="nonzero"></path>
                </g>
            </g>
        </g>
    </g>
</svg>