<?xml version="1.0" encoding="UTF-8"?>
<svg width="17px" height="20px" viewBox="0 0 17 20" version="1.1" xmlns="http://www.w3.org/2000/svg" xmlns:xlink="http://www.w3.org/1999/xlink">
    <!-- Generator: Sketch 55 (78076) - https://sketchapp.com -->
    <title>Group</title>
    <desc>Created with Sketch.</desc>
    <g id="Page-1" stroke="none" stroke-width="1" fill="none" fill-rule="evenodd">
        <g id="Group" fill="#003080" fill-rule="nonzero">
            <g id="noun_Calendar_16162">
                <path d="M3.68553704,4.6953125 C3.29453704,4.6953125 2.9772037,4.3803125 2.9772037,3.9921875 L2.9772037,0.9453125 C2.9772037,0.5571875 3.29453704,0.2421875 3.68553704,0.2421875 C4.07653704,0.2421875 4.39387037,0.5571875 4.39387037,0.9453125 L4.39387037,3.9921875 C4.39387037,4.380625 4.07653704,4.6953125 3.68553704,4.6953125 Z" id="Path"></path>
                <path d="M13.3163519,4.6953125 C12.9253519,4.6953125 12.6080185,4.3803125 12.6080185,3.9921875 L12.6080185,0.9453125 C12.6080185,0.5571875 12.9253519,0.2421875 13.3163519,0.2421875 C13.7073519,0.2421875 14.0246852,0.5571875 14.0246852,0.9453125 L14.0246852,3.9921875 C14.0246852,4.380625 13.7073519,4.6953125 13.3163519,4.6953125 Z" id="Path"></path>
                <path d="M16.1276481,7.571875 L0.872351852,7.571875 C0.481351852,7.571875 0.164018519,7.256875 0.164018519,6.86875 C0.164018519,6.480625 0.481351852,6.165625 0.872351852,6.165625 L16.1273333,6.165625 C16.5183333,6.165625 16.8356667,6.480625 16.8356667,6.86875 C16.8356667,7.256875 16.5186481,7.571875 16.1276481,7.571875 Z" id="Path"></path>
                <path d="M8.87274074,19.7559375 L2.52512963,19.7559375 C1.22274074,19.7559375 0.164018519,18.705 0.164018519,17.4140625 L0.164018519,4.199375 C0.164018519,2.9065625 1.22274074,1.855625 2.52512963,1.855625 L14.4745556,1.855625 C15.7769444,1.855625 16.8356667,2.9065625 16.8356667,4.199375 L16.8356667,14.795625 C16.8356667,15.18375 16.5183333,15.49875 16.1273333,15.49875 C15.7363333,15.49875 15.419,15.18375 15.419,14.795625 L15.419,4.199375 C15.419,3.68125 14.9955741,3.261875 14.4745556,3.261875 L2.52512963,3.261875 C2.00411111,3.261875 1.58068519,3.68125 1.58068519,4.199375 L1.58068519,17.4140625 C1.58068519,17.9303125 2.00411111,18.3496875 2.52512963,18.3496875 L8.87242593,18.3496875 C9.26342593,18.3496875 9.58075926,18.6646875 9.58075926,19.0528125 C9.58075926,19.4409375 9.26374074,19.7559375 8.87274074,19.7559375 Z" id="Path"></path>
                <path d="M8.8717963,19.7578125 C8.53053704,19.7578125 8.23272222,19.5125 8.17448148,19.171875 C8.11183333,18.809375 8.34322222,18.4596875 8.704,18.3715625 C8.738,18.3625 10.383537,17.935625 11.131537,16.619375 C11.5817222,15.8265625 11.6267407,14.8378125 11.2672222,13.6825 C11.1907222,13.4353125 11.2562037,13.168125 11.4378519,12.983125 C11.6204444,12.798125 11.8899259,12.72875 12.1395741,12.8 L16.3231481,13.991875 C16.6266296,14.0778125 16.8359815,14.3525 16.8359815,14.6675 L16.8359815,14.93125 C16.8359815,14.9640625 16.8340926,14.9953125 16.8293704,15.0284375 C16.2815926,18.97625 9.24327778,19.723125 8.94357407,19.754375 C8.91964815,19.7559375 8.89572222,19.7578125 8.8717963,19.7578125 Z M12.8856852,14.475 C13.0138148,15.5315625 12.8378333,16.485625 12.3580556,17.3221875 C12.3054815,17.41375 12.2510185,17.5015625 12.194037,17.5859375 C13.6292778,17.07875 14.980463,16.300625 15.347537,15.17625 L12.8856852,14.475 Z" id="Shape"></path>
            </g>
        </g>
    </g>
</svg>