<?xml version="1.0" encoding="UTF-8"?>
<svg width="16px" height="16px" viewBox="0 0 16 16" version="1.1" xmlns="http://www.w3.org/2000/svg"
     xmlns:xlink="http://www.w3.org/1999/xlink">
    <!-- Generator: Sketch 47.1 (45422) - http://www.bohemiancoding.com/sketch -->
    <title>Icons</title>
    <desc>Created with Sketch.</desc>
    <defs></defs>
    <g id="Page-1" stroke="none" stroke-width="1" fill="none" fill-rule="evenodd">
        <g id="Icons">
            <rect id="Rectangle" fill-opacity="0" fill="#D8D8D8" x="0" y="0" width="16" height="16"></rect>
            <path d="M15.6257889,15.4110425 L15.6257889,4.99633416 C15.6257889,4.82945132 15.5570888,4.67240754 15.4392973,4.56442046 L10.6981896,0.157043779 C10.5902025,0.0588957478 10.4429631,0 10.2957238,0 L2.96320315,0 C2.63927653,0 2.37424567,0.265030865 2.37424567,0.588957478 L2.37424567,7.16563778 C2.37424567,7.48956439 2.63927653,7.75459526 2.96320315,7.75459526 C3.28712976,7.75459526 3.55216063,7.48956439 3.55216063,7.16563778 L3.55216063,1.17791496 L9.53988344,1.17791496 L9.53988344,5.69324407 C9.53988344,6.01717069 9.80491431,6.28220155 10.1288409,6.28220155 L14.3496914,6.28220155 C14.3791392,6.28220155 14.4183915,6.28220155 14.4478393,6.27239715 L14.4478393,14.822085 L3.55216063,14.822085 L3.55216063,12.4662551 C3.55216063,12.1423285 3.28712976,11.8772976 2.96320315,11.8772976 C2.63927653,11.8772976 2.37424567,12.1423285 2.37424567,12.4662551 L2.37424567,15.4110425 C2.37424567,15.7349691 2.63927653,16 2.96320315,16 L15.0368314,16 C15.3607581,16 15.6257889,15.7349691 15.6257889,15.4110425 Z M10.7177984,1.7865159 L14.2809912,5.10432124 L10.7177984,5.10432124 L10.7177984,1.7865159 L10.7177984,1.7865159 Z M1,9.7177984 C1,9.39387178 1.26503087,9.12884092 1.58895748,9.12884092 L7.75340219,9.12884092 L5.82948596,7.42086424 C5.58406392,7.2049247 5.5644551,6.83190675 5.78039463,6.58651935 C5.99633416,6.34109731 6.36935211,6.32148848 6.61473951,6.53742801 L9.67728375,9.26624124 C9.80491431,9.38403273 9.87361446,9.54107651 9.87361446,9.70795934 C9.87361446,9.87484218 9.80487966,10.0416904 9.67728375,10.1496774 L6.61470487,12.8785253 C6.49691337,12.9766733 6.35951306,13.0257647 6.2220781,13.0257647 C6.05519527,13.0257647 5.89815149,12.9570299 5.78035999,12.829434 C5.56442047,12.5840466 5.58406392,12.2110286 5.82945133,11.9950891 L7.72391967,10.3067559 L1.58895748,10.3067559 C1.26503087,10.3067559 1,10.041725 1,9.7177984 Z"
                  id="Combined-Shape" fill="#616E7C" fill-rule="nonzero"></path>
        </g>
    </g>
</svg>