<?xml version="1.0" encoding="UTF-8"?>
<svg width="20px" height="20px" viewBox="0 0 20 20" version="1.1" xmlns="http://www.w3.org/2000/svg"
     xmlns:xlink="http://www.w3.org/1999/xlink">
    <!-- Generator: sketchtool 46.2 (44496) - http://www.bohemiancoding.com/sketch -->
    <title>DD163E33-2C92-4308-9AD6-66A65078E730</title>
    <desc>Created with sketchtool.</desc>
    <defs></defs>
    <g id="Page-1" stroke="none" stroke-width="1" fill="none" fill-rule="evenodd">
        <g id="Dashboard-2" transform="translate(-1282.000000, -169.000000)" fill-rule="nonzero" fill="#7F8FA4">
            <g id="Top-Stats" transform="translate(207.000000, 164.000000)">
                <g id="Stats" transform="translate(864.000000, 5.000000)">
                    <g id="Stats-Block-#1">
                        <g id="Base">
                            <g id="check-circle" transform="translate(211.000000, 0.000000)">
                                <g id="Group-7">
                                    <g id="chart-infographic-insight-analytics-presentation-circle-donut-1">
                                        <path d="M10.6266667,4.70666667 C13.0734628,4.9974503 15.0025497,6.92653719 15.2933333,9.37333333 C15.3136745,9.54165502 15.4571248,9.66789129 15.6266667,9.66666667 L19.6266667,9.66666667 C19.718649,9.66683239 19.8066115,9.62898152 19.8697318,9.56207402 C19.9328521,9.49516651 19.9655191,9.40515013 19.96,9.31333333 C19.6122638,4.33421134 15.6462828,0.373920355 10.6666667,0.0333333333 C10.5739229,0.0263570436 10.4823698,0.057677833 10.4133333,0.12 C10.3447397,0.183611495 10.3060336,0.273119343 10.3066667,0.366666667 L10.3066667,4.36666667 C10.3028903,4.54825369 10.4451842,4.69944088 10.6266667,4.70666667 Z"
                                              id="Shape"></path>
                                        <path d="M19.6333333,10.3333333 L15.6333333,10.3333333 C15.4637914,10.3321087 15.3203411,10.458345 15.3,10.6266667 C14.9822233,13.3124204 12.7044873,15.3351645 10,15.3333333 C8.80166517,15.3371688 7.63776006,14.9327412 6.7,14.1866667 C6.57416458,14.076118 6.38583542,14.076118 6.26,14.1866667 L3.42,17.0466667 C3.35268323,17.1096906 3.31448238,17.1977852 3.31448238,17.29 C3.31448238,17.3822148 3.35268323,17.4703094 3.42,17.5333333 C6.28377458,20.0286038 10.3139945,20.6859958 13.8222652,19.2301058 C17.330536,17.7742159 19.711103,14.4564248 19.9666667,10.6666667 C19.9721858,10.5748499 19.9395187,10.4848335 19.8763985,10.417926 C19.8132782,10.3510185 19.7253157,10.3131676 19.6333333,10.3133333 L19.6333333,10.3333333 Z"
                                              id="Shape"></path>
                                        <path d="M6.26,5.78666667 C6.38583542,5.89721529 6.57416458,5.89721529 6.7,5.78666667 C7.47023535,5.17961924 8.39293643,4.7966983 9.36666667,4.68 C9.53498835,4.65965887 9.66122463,4.51620856 9.66,4.34666667 L9.66,0.346666667 C9.66063302,0.253119343 9.62192692,0.163611495 9.55333333,0.1 C9.48996445,0.052908976 9.4121827,0.0293387479 9.33333333,0.0333333333 C7.15418707,0.171864353 5.08208834,1.02742548 3.44,2.46666667 C3.37268323,2.52969058 3.33448238,2.61778524 3.33448238,2.71 C3.33448238,2.80221476 3.37268323,2.89030942 3.44,2.95333333 L6.26,5.78666667 Z"
                                              id="Shape"></path>
                                        <path d="M5.81333333,13.3 C4.29212317,11.3654518 4.29212317,8.64121488 5.81333333,6.70666667 C5.92388196,6.58083125 5.92388196,6.39250209 5.81333333,6.26666667 L2.95333333,3.42 C2.88924376,3.35403992 2.79792875,3.32195627 2.70666667,3.33333333 C2.61442734,3.33625944 2.52752885,3.37729484 2.46666667,3.44666667 C-0.817703737,7.20336001 -0.817703737,12.8099733 2.46666667,16.5666667 C2.52752885,16.6360385 2.61442734,16.6770739 2.70666667,16.68 L2.70666667,16.68 C2.79458976,16.6787477 2.87845651,16.6428048 2.94,16.58 L5.78,13.74 C5.90049185,13.6227309 5.91478338,13.4340828 5.81333333,13.3 Z"
                                              id="Shape"></path>
                                    </g>
                                </g>
                            </g>
                        </g>
                    </g>
                </g>
            </g>
        </g>
    </g>
</svg>