<?xml version="1.0" encoding="UTF-8"?>
<svg width="16px" height="16px" viewBox="0 0 16 16" version="1.1" xmlns="http://www.w3.org/2000/svg"
     xmlns:xlink="http://www.w3.org/1999/xlink">
    <!-- Generator: Sketch 47.1 (45422) - http://www.bohemiancoding.com/sketch -->
    <title>Icons</title>
    <desc>Created with Sketch.</desc>
    <defs></defs>
    <g id="Page-1" stroke="none" stroke-width="1" fill="none" fill-rule="evenodd">
        <g id="Icons">
            <rect id="Rectangle" fill-opacity="0" fill="#D8D8D8" x="0" y="0" width="16" height="16"></rect>
            <path d="M5.6,8.58181817 L1.78181817,8.58181817 C0.8,8.58181817 0,9.38181817 0,10.3636363 L0,14.1818182 C0,15.2 0.8,16 1.78181817,16 L5.6,16 C6.58181817,16 7.38181817,15.2 7.38181817,14.2181818 L7.38181817,10.4 C7.41818183,9.38181817 6.61818183,8.58181817 5.6,8.58181817 L5.6,8.58181817 Z M5.6,0 L1.78181817,0 C0.8,0 0,0.8 0,1.78181817 L0,5.6 C0,6.58181817 0.8,7.38181817 1.78181817,7.38181817 L5.6,7.38181817 C6.58181817,7.38181817 7.38181817,6.58181817 7.38181817,5.6 L7.38181817,1.78181817 C7.41818183,0.8 6.61818183,0 5.6,0 L5.6,0 Z M14.2181818,8.58181817 L10.4,8.58181817 C9.41818183,8.58181817 8.61818183,9.38181817 8.61818183,10.3636363 L8.61818183,14.1818182 C8.61818183,15.1636363 9.41818183,15.9636363 10.4,15.9636363 L14.2181818,15.9636363 C15.2,15.9636363 16,15.1636363 16,14.1818182 L16,10.4 C16,9.38181817 15.2,8.58181817 14.2181818,8.58181817 L14.2181818,8.58181817 Z M14.2181818,0 L10.4,0 C9.41818183,0 8.61818183,0.8 8.61818183,1.78181817 L8.61818183,5.6 C8.61818183,6.58181817 9.41818183,7.38181817 10.4,7.38181817 L14.2181818,7.38181817 C15.2,7.38181817 16,6.58181817 16,5.6 L16,1.78181817 C16,0.8 15.2,0 14.2181818,0 L14.2181818,0 Z"
                  id="el-icon-menu" fill="#616E7C" fill-rule="nonzero"></path>
        </g>
    </g>
</svg>