<svg xmlns="http://www.w3.org/2000/svg" width="16" height="10" viewBox="0 0 16 10">
    <path fill="#616E7C" fill-rule="nonzero"
          d="M10.91 4.286c1.235 0 2.18-.929 2.18-2.143C13.09.929 12.146 0 10.91 0 9.672 0 8.726.929 8.726 2.143c0 1.214.946 2.143 2.182 2.143zm-5.82 0c1.237 0 2.183-.929 2.183-2.143C7.273.929 6.327 0 5.09 0S2.909.929 2.909 2.143c0 1.214.946 2.143 2.182 2.143zm0 1.428c-1.672 0-5.09.857-5.09 2.5V10h10.182V8.214c0-1.643-3.418-2.5-5.091-2.5zm5.82 0c-.22 0-.437 0-.728.072.873.571 1.454 1.428 1.454 2.428V10H16V8.214c0-1.643-3.418-2.5-5.09-2.5z"/>
</svg>
