<svg xmlns="http://www.w3.org/2000/svg" width="18" height="18" viewBox="0 0 18 18">
    <g fill="#616E7C" fill-rule="nonzero">
        <path d="M17.9 16.831L1.188.111a.375.375 0 0 0-.532 0L.13.636a.375.375 0 0 0 0 .533l3.096 3.105A9.64 9.64 0 0 0 .018 8.887a.375.375 0 0 0 0 .233 9.447 9.447 0 0 0 8.998 6.631 9.263 9.263 0 0 0 4.498-1.17l3.306 3.308a.375.375 0 0 0 .533 0l.532-.533a.375.375 0 0 0 .015-.525zM6.017 9a3 3 0 0 0 2.999 3 2.938 2.938 0 0 0 1.499-.427l1.627 1.628a5.246 5.246 0 0 1-6.802-.538 5.253 5.253 0 0 1-.523-6.806L6.444 7.5c-.275.452-.423.97-.427 1.5zM9.026 6.208a.336.336 0 0 0 .074.37l2.328 2.325A.337.337 0 0 0 12 8.688 2.69 2.69 0 0 0 9.309 6a.37.37 0 0 0-.283.208z"/>
        <path d="M5.874 3.972a.395.395 0 0 0 .443.076 5.478 5.478 0 0 1 2.339-.526c3.004 0 5.44 2.386 5.44 5.33a5.187 5.187 0 0 1-.537 2.283c-.07.146-.04.32.078.434l1.344 1.317c.072.072.17.113.272.114a.392.392 0 0 0 .272-.114 9.865 9.865 0 0 0 2.456-3.92.373.373 0 0 0 0-.237C16.705 4.733 12.93 2.01 8.656 2a9.854 9.854 0 0 0-3.404.601.375.375 0 0 0-.14.624l.762.747z"/>
    </g>
</svg>
