<?xml version="1.0" encoding="UTF-8"?>
<svg width="12px" height="16px" viewBox="0 0 12 16" version="1.1" xmlns="http://www.w3.org/2000/svg"
     xmlns:xlink="http://www.w3.org/1999/xlink">
    <!-- Generator: Sketch 48.2 (47327) - http://www.bohemiancoding.com/sketch -->
    <desc>Created with Sketch.</desc>
    <defs></defs>
    <g id="Icons" stroke="none" stroke-width="0" fill="none" fill-rule="evenodd"
       transform="translate(-2.000000, 0.000000)">
        <g id="sat" transform="translate(2.000000, 0.000000)" fill="#303C42">
            <path d="M8.37968,4.8 L3.32848,4.8 C3.22074667,4.8 3.12368,4.86506667 3.08208,4.9648 C3.04101333,5.06453333 3.06394667,5.1792 3.14021333,5.25546667 L5.67834667,7.79093333 C5.72794667,7.84106667 5.79621333,7.86933333 5.86661333,7.86933333 C5.95941333,7.8672 6.00634667,7.84106667 6.05594667,7.7904 L8.56901333,5.2544 C8.64474667,5.1776 8.66714667,5.06346667 8.62554667,4.96426667 C8.58448,4.86453333 8.48741333,4.8 8.37968,4.8"
                  id="Fill-694"></path>
            <path d="M6.82293333,7.62293333 C6.6144,7.83146667 6.6144,8.16853333 6.82293333,8.37706667 L9.04,10.5941333 C9.74506667,11.2992 10.1333333,12.2368 10.1333333,13.2341333 L10.1333333,14.4 L9.2,14.4 L6.08,10.24 C5.9792,10.1056 5.75413333,10.1056 5.65333333,10.24 L2.53333333,14.4 L1.6,14.4 L1.6,13.2341333 C1.6,12.2368 1.98826667,11.2992 2.69333333,10.5941333 L4.9104,8.37706667 C5.11893333,8.16853333 5.11893333,7.83146667 4.9104,7.62293333 L2.69333333,5.40586667 C1.98826667,4.7008 1.6,3.7632 1.6,2.7664 L1.6,1.6 L10.1333333,1.6 L10.1333333,2.7664 C10.1333333,3.7632 9.74506667,4.7008 9.04,5.40586667 L6.82293333,7.62293333 Z M11.2,2.7664 L11.2,1.45173333 C11.5173333,1.26666667 11.7333333,0.9264 11.7333333,0.533333333 L11.7333333,0.266666667 C11.7333333,0.119466667 11.6138667,0 11.4666667,0 L0.266666667,0 C0.119466667,0 0,0.119466667 0,0.266666667 L0,0.533333333 C0,0.9264 0.216,1.26666667 0.533333333,1.45173333 L0.533333333,2.7664 C0.533333333,4.048 1.03253333,5.25386667 1.9392,6.16 L3.7792,8 L1.9392,9.84 C1.03253333,10.7461333 0.533333333,11.952 0.533333333,13.2341333 L0.533333333,14.5482667 C0.216,14.7333333 0,15.0736 0,15.4666667 L0,15.7333333 C0,15.8805333 0.119466667,16 0.266666667,16 L11.4666667,16 C11.6138667,16 11.7333333,15.8805333 11.7333333,15.7333333 L11.7333333,15.4666667 C11.7333333,15.0736 11.5173333,14.7333333 11.2,14.5482667 L11.2,13.2341333 C11.2,11.952 10.7008,10.7461333 9.79413333,9.84 L7.95413333,8 L9.79413333,6.16 C10.7008,5.25386667 11.2,4.048 11.2,2.7664 L11.2,2.7664 Z"
                  id="Fill-696"></path>
        </g>
    </g>
</svg>
