<svg width="16" height="17" viewBox="0 0 16 17" fill="none" xmlns="http://www.w3.org/2000/svg">
<path d="M15 15H1C0.447715 15 0 15.4477 0 16C0 16.5523 0.447715 17 1 17H15C15.5523 17 16 16.5523 16 16C16 15.4477 15.5523 15 15 15Z" fill="#616E7C"/>
<path d="M0 14V16C0 16.5523 0.447715 17 1 17C1.55228 17 2 16.5523 2 16V14C2 13.4477 1.55228 13 1 13C0.447715 13 0 13.4477 0 14Z" fill="#616E7C"/>
<path d="M14 14V16C14 16.5523 14.4477 17 15 17C15.5523 17 16 16.5523 16 16V14C16 13.4477 15.5523 13 15 13C14.4477 13 14 13.4477 14 14Z" fill="#616E7C"/>
<path d="M8 12C7.79268 12.0016 7.59 11.9387 7.42 11.82L3.42 9C3.20441 8.84706 3.05814 8.615 3.01317 8.35452C2.9682 8.09405 3.02818 7.82637 3.18 7.61C3.25579 7.50185 3.35224 7.40978 3.46381 7.33911C3.57537 7.26843 3.69982 7.22056 3.82998 7.19825C3.96015 7.17593 4.09344 7.17962 4.22217 7.2091C4.3509 7.23858 4.47252 7.29326 4.58 7.37L8 9.76L11.4 7.2C11.6122 7.04087 11.8789 6.97254 12.1414 7.01005C12.404 7.04756 12.6409 7.18783 12.8 7.4C12.9591 7.61217 13.0275 7.87887 12.99 8.14142C12.9524 8.40397 12.8122 8.64087 12.6 8.8L8.6 11.8C8.4269 11.9298 8.21637 12 8 12Z" fill="#616E7C"/>
<path d="M8 10C7.73478 10 7.48043 9.89464 7.29289 9.70711C7.10536 9.51957 7 9.26522 7 9V1C7 0.734784 7.10536 0.48043 7.29289 0.292893C7.48043 0.105357 7.73478 0 8 0C8.26522 0 8.51957 0.105357 8.70711 0.292893C8.89464 0.48043 9 0.734784 9 1V9C9 9.26522 8.89464 9.51957 8.70711 9.70711C8.51957 9.89464 8.26522 10 8 10Z" fill="#616E7C"/>
</svg>
