<svg width="18" height="18" viewBox="0 0 18 18" fill="none" xmlns="http://www.w3.org/2000/svg">
<path d="M9.0013 6.5013C9.46154 6.5013 9.83464 6.1282 9.83464 5.66797C9.83464 5.20773 9.46154 4.83463 9.0013 4.83463C8.54107 4.83463 8.16797 5.20773 8.16797 5.66797C8.16797 6.1282 8.54107 6.5013 9.0013 6.5013Z" fill="#1A2C37"/>
<path d="M8.41205 7.57871C8.56833 7.42243 8.78029 7.33463 9.0013 7.33463C9.22232 7.33463 9.43428 7.42243 9.59056 7.57871C9.74684 7.73499 9.83464 7.94695 9.83464 8.16797V12.3346C9.83464 12.5556 9.74684 12.7676 9.59056 12.9239C9.43428 13.0802 9.22232 13.168 9.0013 13.168C8.78029 13.168 8.56833 13.0802 8.41205 12.9239C8.25577 12.7676 8.16797 12.5556 8.16797 12.3346V8.16797C8.16797 7.94695 8.25577 7.73499 8.41205 7.57871Z" fill="#1A2C37"/>
<path fill-rule="evenodd" clip-rule="evenodd" d="M9.00131 0.667969C7.35313 0.667969 5.74196 1.15671 4.37155 2.07239C3.00114 2.98807 1.93304 4.28956 1.30231 5.81227C0.671579 7.33499 0.506552 9.01055 0.828095 10.6271C1.14964 12.2436 1.94331 13.7284 3.10875 14.8939C4.27419 16.0593 5.75905 16.853 7.37555 17.1745C8.99206 17.4961 10.6676 17.331 12.1903 16.7003C13.7131 16.0696 15.0145 15.0015 15.9302 13.6311C16.8459 12.2606 17.3346 10.6495 17.3346 9.0013C17.3346 7.90695 17.1191 6.82332 16.7003 5.81227C16.2815 4.80123 15.6677 3.88257 14.8939 3.10875C14.12 2.33492 13.2014 1.7211 12.1903 1.30231C11.1793 0.883517 10.0957 0.667969 9.00131 0.667969ZM9.00131 15.668C7.68276 15.668 6.39383 15.277 5.2975 14.5444C4.20118 13.8119 3.34669 12.7707 2.84211 11.5525C2.33752 10.3344 2.2055 8.99391 2.46274 7.7007C2.71997 6.40749 3.35491 5.21961 4.28726 4.28726C5.21961 3.35491 6.4075 2.71997 7.7007 2.46273C8.99391 2.2055 10.3344 2.33752 11.5525 2.84211C12.7707 3.34669 13.8119 4.20117 14.5444 5.2975C15.277 6.39383 15.668 7.68276 15.668 9.0013C15.668 10.7694 14.9656 12.4651 13.7154 13.7153C12.4651 14.9656 10.7694 15.668 9.00131 15.668Z" fill="#1A2C37"/>
</svg>
