<?xml version="1.0" encoding="UTF-8"?>
<svg width="24px" height="24px" viewBox="0 0 24 24" version="1.1" xmlns="http://www.w3.org/2000/svg"
     xmlns:xlink="http://www.w3.org/1999/xlink">
    <!-- Generator: Sketch 50.2 (55047) - http://www.bohemiancoding.com/sketch -->
    <desc>Created with Sketch.</desc>
    <defs></defs>
    <g id="labels" stroke="none" stroke-width="1" fill="none" fill-rule="evenodd">
        <g>
            <path d="M4.4,12.4 L2,12.4 C1.7792,12.4 1.6,12.2208 1.6,12 C1.6,11.7792 1.7792,11.6 2,11.6 L4.4,11.6 C4.6208,11.6 4.8,11.7792 4.8,12 C4.8,12.2208 4.6208,12.4 4.4,12.4 M4.4,14.4 L2,14.4 C1.7792,14.4 1.6,14.2208 1.6,14 C1.6,13.7792 1.7792,13.6 2,13.6 L4.4,13.6 C4.6208,13.6 4.8,13.7792 4.8,14 C4.8,14.2208 4.6208,14.4 4.4,14.4 M4.4,16.4 L2,16.4 C1.7792,16.4 1.6,16.2208 1.6,16 C1.6,15.7792 1.7792,15.6 2,15.6 L4.4,15.6 C4.6208,15.6 4.8,15.7792 4.8,16 C4.8,16.2208 4.6208,16.4 4.4,16.4 M3.2,21.2 C2.3176,21.2 1.6,20.4824 1.6,19.6 C1.6,18.7176 2.3176,18 3.2,18 C4.0824,18 4.8,18.7176 4.8,19.6 C4.8,20.4824 4.0824,21.2 3.2,21.2 M4.8,2 L1.6,2 C0.7176,2 0,2.7176 0,3.6 L0,21.2 C0,22.0824 0.7176,22.8 1.6,22.8 L4.8,22.8 C5.6824,22.8 6.4,22.0824 6.4,21.2 L6.4,3.6 C6.4,2.7176 5.6824,2 4.8,2"
                  id="Fill-827" fill="#1A84EE"></path>
            <path d="M12.4,12.4 L10,12.4 C9.7792,12.4 9.6,12.2208 9.6,12 C9.6,11.7792 9.7792,11.6 10,11.6 L12.4,11.6 C12.6208,11.6 12.8,11.7792 12.8,12 C12.8,12.2208 12.6208,12.4 12.4,12.4 M12.4,14.4 L10,14.4 C9.7792,14.4 9.6,14.2208 9.6,14 C9.6,13.7792 9.7792,13.6 10,13.6 L12.4,13.6 C12.6208,13.6 12.8,13.7792 12.8,14 C12.8,14.2208 12.6208,14.4 12.4,14.4 M12.4,16.4 L10,16.4 C9.7792,16.4 9.6,16.2208 9.6,16 C9.6,15.7792 9.7792,15.6 10,15.6 L12.4,15.6 C12.6208,15.6 12.8,15.7792 12.8,16 C12.8,16.2208 12.6208,16.4 12.4,16.4 M11.2,21.2 C10.3176,21.2 9.6,20.4824 9.6,19.6 C9.6,18.7176 10.3176,18 11.2,18 C12.0824,18 12.8,18.7176 12.8,19.6 C12.8,20.4824 12.0824,21.2 11.2,21.2 M12.8,2 L9.6,2 C8.7176,2 8,2.7176 8,3.6 L8,21.2 C8,22.0824 8.7176,22.8 9.6,22.8 L12.8,22.8 C13.6824,22.8 14.4,22.0824 14.4,21.2 L14.4,3.6 C14.4,2.7176 13.6824,2 12.8,2"
                  id="Fill-829" fill="#1A84EE"></path>
            <path d="M21.2300597,20.3336268 C20.9756597,20.6776268 20.6028597,20.9008268 20.1804597,20.9640268 C20.0996597,20.9760268 20.0196597,20.9824268 19.9404597,20.9824268 C19.6004597,20.9824268 19.2700597,20.8736268 18.9924597,20.6672268 C18.6484597,20.4136268 18.4244597,20.0400268 18.3620597,19.6176268 C18.2980597,19.1952268 18.4036597,18.7728268 18.6580597,18.4296268 C18.9124597,18.0856268 19.2852597,17.8624268 19.7084597,17.7992268 C20.1308597,17.7376268 20.5532597,17.8416268 20.8964597,18.0960268 C21.2396597,18.3504268 21.4636597,18.7232268 21.5268597,19.1456268 C21.5900597,19.5680268 21.4844597,19.9904268 21.2300597,20.3336268 M18.2260597,16.3984268 C18.0308597,16.3984268 17.8604597,16.2552268 17.8300597,16.0568268 C17.7980597,15.8384268 17.9484597,15.6352268 18.1668597,15.6024268 L20.5404597,15.2488268 C20.7588597,15.2216268 20.9628597,15.3672268 20.9956597,15.5848268 C21.0276597,15.8032268 20.8772597,16.0072268 20.6588597,16.0400268 L18.2852597,16.3936268 C18.2652597,16.3968268 18.2452597,16.3984268 18.2260597,16.3984268 M17.5348597,14.0792268 C17.5028597,13.8608268 17.6532597,13.6568268 17.8716597,13.6240268 L20.2460597,13.2704268 C20.4668597,13.2400268 20.6676597,13.3888268 20.7004597,13.6072268 C20.7324597,13.8256268 20.5820597,14.0288268 20.3636597,14.0616268 L17.9900597,14.4160268 C17.9700597,14.4184268 17.9500597,14.4200268 17.9300597,14.4200268 C17.7356597,14.4200268 17.5644597,14.2776268 17.5348597,14.0792268 M17.2396597,12.1008268 C17.2076597,11.8824268 17.3580597,11.6792268 17.5764597,11.6464268 L19.9500597,11.2920268 C20.1716597,11.2632268 20.3724597,11.4112268 20.4052597,11.6288268 C20.4372597,11.8472268 20.2868597,12.0504268 20.0684597,12.0832268 L17.6948597,12.4376268 C17.6748597,12.4400268 17.6548597,12.4416268 17.6348597,12.4416268 C17.4404597,12.4416268 17.2692597,12.2992268 17.2396597,12.1008268 M23.3452597,20.5168268 L20.7476597,3.34962681 C20.6172597,2.48722681 19.8044597,1.88802681 18.9300597,2.01762681 L15.7652597,2.48402681 C15.3388597,2.54642681 14.9636597,2.77042681 14.7092597,3.11442681 C14.4588597,3.45362681 14.3548597,3.86882681 14.4180597,4.28402681 L17.0148597,21.4512268 C17.1340597,22.2352268 17.8180597,22.8000268 18.5964597,22.8000268 C18.6748597,22.8000268 18.7540597,22.7944268 18.8332597,22.7832268 L21.9980597,22.3168268 C22.4236597,22.2544268 22.7988597,22.0304268 23.0532597,21.6864268 C23.3044597,21.3480268 23.4076597,20.9328268 23.3452597,20.5168268"
                  id="Fill-831" fill="#1A84EE"></path>
            <rect id="Rectangle" x="0" y="0" width="24" height="24"></rect>
        </g>
    </g>
</svg>
