<?xml version="1.0" encoding="UTF-8"?>
<svg width="16px" height="16px" viewBox="0 0 16 16" version="1.1" xmlns="http://www.w3.org/2000/svg"
     xmlns:xlink="http://www.w3.org/1999/xlink">
    <!-- Generator: Sketch 47.1 (45422) - http://www.bohemiancoding.com/sketch -->
    <title>Icons</title>
    <desc>Created with Sketch.</desc>
    <defs></defs>
    <g id="Page-1" stroke="none" stroke-width="1" fill="none" fill-rule="evenodd">
        <g id="Icons">
            <rect id="Rectangle" fill-opacity="0" fill="#D8D8D8" x="0" y="0" width="16" height="16"></rect>
            <path d="M0.888888889,4.77777778 L15.1111111,4.77777778 L15.1111111,4.77777778 C15.6020308,4.77777778 16,4.37980867 16,3.88888889 L16,3.88888889 L16,3.88888889 C16,3.39796911 15.6020308,3 15.1111111,3 L0.888888889,3 L0.888888889,3 C0.397969111,3 -6.01203334e-17,3.39796911 0,3.88888889 L0,3.88888889 L0,3.88888889 C6.01203334e-17,4.37980867 0.397969111,4.77777778 0.888888889,4.77777778 Z M0.888888889,13.6666667 L15.1111111,13.6666667 L15.1111111,13.6666667 C15.6020308,13.6666667 16,13.2686975 16,12.7777778 L16,12.7777778 L16,12.7777778 C16,12.286858 15.6020308,11.8888889 15.1111111,11.8888889 L0.888888889,11.8888889 L0.888888889,11.8888889 C0.397969111,11.8888889 -6.01203334e-17,12.286858 0,12.7777778 L0,12.7777778 L0,12.7777778 C6.01203334e-17,13.2686975 0.397969111,13.6666667 0.888888889,13.6666667 Z M10.6666667,8.33333333 L10.6666667,8.33333333 L10.6666667,8.33333333 C10.6666667,7.84241356 10.2686975,7.44444444 9.77777778,7.44444444 L0.888888889,7.44444444 L0.888888889,7.44444444 C0.397969111,7.44444444 -6.01203334e-17,7.84241356 0,8.33333333 L0,8.33333333 L0,8.33333333 C6.01203334e-17,8.82425311 0.397969111,9.22222222 0.888888889,9.22222222 L9.77777778,9.22222222 L9.77777778,9.22222222 C10.2686975,9.22222222 10.6666667,8.82425311 10.6666667,8.33333333 Z"
                  id="Shape" fill="#616E7C" fill-rule="nonzero"></path>
        </g>
    </g>
</svg>