<?xml version="1.0" encoding="UTF-8"?>
<svg width="16px" height="16px" viewBox="0 0 16 16" version="1.1" xmlns="http://www.w3.org/2000/svg"
     xmlns:xlink="http://www.w3.org/1999/xlink">
    <!-- Generator: Sketch 47.1 (45422) - http://www.bohemiancoding.com/sketch -->
    <title>Icons</title>
    <desc>Created with Sketch.</desc>
    <defs></defs>
    <g id="Page-1" stroke="none" stroke-width="1" fill="none" fill-rule="evenodd">
        <g id="Icons">
            <rect id="Rectangle" fill-opacity="0" fill="#D8D8D8" x="0" y="0" width="16" height="16"></rect>
            <path d="M14.3411022,6.18151907 C14.3411022,2.7683027 11.5785029,0 8.17011241,0 C4.76259939,0 2,2.7683027 2,6.18151907 C2,6.63559093 2.04825884,7.07650117 2.14038936,7.50205647 L2.13644091,7.50337267 C2.88620784,10.8828078 4.84683301,13.8037839 7.53923772,15.7876611 C7.71647929,15.921031 7.93759254,16 8.17669316,16 C8.36797367,16 8.54784754,15.9486701 8.70315327,15.860488 C8.77027693,15.8113517 8.83696187,15.7617768 8.90320811,15.7126405 C11.5205923,13.7471894 13.4342747,10.8871949 14.1871127,7.57839323 L14.1827255,7.5775158 C14.2867014,7.1287085 14.3411022,6.66147522 14.3411022,6.18151907 L14.3411022,6.18151907 Z M8.17011241,3.3491637 C9.73194405,3.3491637 10.9976419,4.61749377 10.9976419,6.18151907 C10.9976419,7.74554426 9.73194405,9.01343567 8.17011241,9.01343567 C6.60915821,9.01343567 5.34302165,7.74554426 5.34302165,6.18151907 C5.34302165,4.61749377 6.60915821,3.3491637 8.17011241,3.3491637 L8.17011241,3.3491637 Z"
                  id="location-icon" fill="#C0CCDA" fill-rule="nonzero"></path>
        </g>
    </g>
</svg>