<svg xmlns="http://www.w3.org/2000/svg" width="24" height="24" viewBox="0 0 24 24">
  <path fill="#FFF" d="M14,8 L14,6 C14,2.6862915 11.3137085,0 8,0 C4.6862915,0 2,2.6862915 2,6 L2,8 C0.8954305,8 0,8.8954305 0,10 L0,18 C0,19.1045695 0.8954305,20 2,20 L14,20 C15.1045695,20 16,19.1045695 16,18 L16,10 C16,8.8954305 15.1045695,8 14,8 Z M4,6 C4,3.790861 5.790861,2 8,2 C10.209139,2 12,3.790861 12,6 L12,8 L4,8 L4,6 Z M11,13.5 C11,13.2238576 11.2238576,13 11.5,13 L12.5,13 C12.7761424,13 13,13.2238576 13,13.5 L13,14.5 C13,14.7761424 12.7761424,15 12.5,15 L11.5,15 C11.2238576,15 11,14.7761424 11,14.5 L11,13.5 Z M7,13.5 C7,13.2238576 7.22385763,13 7.5,13 L8.5,13 C8.77614237,13 9,13.2238576 9,13.5 L9,14.5 C9,14.7761424 8.77614237,15 8.5,15 L7.5,15 C7.22385763,15 7,14.7761424 7,14.5 L7,13.5 Z M3,14.5 L3,13.5 C3,13.2238576 3.22385763,13 3.5,13 L4.5,13 C4.77614237,13 5,13.2238576 5,13.5 L5,14.5 C5,14.7761424 4.77614237,15 4.5,15 L3.5,15 C3.22385763,15 3,14.7761424 3,14.5 Z" transform="translate(4 2)"/>
</svg>
