<svg xmlns="http://www.w3.org/2000/svg" width="24" height="24" viewBox="0 0 24 24">
  <g fill="#FFF">
    <rect width="24" height="24" opacity="0" transform="rotate(-90 12 12)"/>
    <path d="M19,4 L17,4 C16.4477153,4 16,4.44771525 16,5 C16,5.55228475 16.4477153,6 17,6 L18,6 L18,18 L17,18 C16.4477153,18 16,18.4477153 16,19 C16,19.5522847 16.4477153,20 17,20 L19,20 C19.5522847,20 20,19.5522847 20,19 L20,5 C20,4.44771525 19.5522847,4 19,4 Z"/>
    <path d="M11.8,7.4 C11.4686291,6.95817222 10.8418278,6.86862918 10.4,7.20000002 C9.95817222,7.53137086 9.86862917,8.1581722 10.2,8.6 L12,11 L4,11 C3.44771525,11 3,11.4477153 3,12 C3,12.5522847 3.44771525,13 4,13 L12,13 L12.09,13 L10.37,15.44 C10.2150095,15.6570921 10.1531749,15.9271088 10.1982446,16.1900152 C10.2433143,16.4529216 10.3915524,16.6869259 10.61,16.84 C10.7799997,16.9586733 10.9826819,17.0215747 11.19,17.0200289 C11.5118574,17.0185117 11.8133242,16.8621956 12,16.6 L14.82,12.6 C15.0767957,12.2485802 15.0767957,11.7714198 14.82,11.42 L11.8,7.4 Z" transform="matrix(-1 0 0 1 18.013 0)"/>
  </g>
</svg>
