<?xml version="1.0" encoding="UTF-8"?>
<svg width="16px" height="22px" viewBox="0 0 16 22" version="1.1" xmlns="http://www.w3.org/2000/svg"
     xmlns:xlink="http://www.w3.org/1999/xlink">
    <!-- Generator: sketchtool 46.2 (44496) - http://www.bohemiancoding.com/sketch -->
    <title>CA34BF45-DD91-4AF4-A9BD-B6409FE92364</title>
    <desc>Created with sketchtool.</desc>
    <defs></defs>
    <g id="Page-1" stroke="none" stroke-width="1" fill="none" fill-rule="evenodd">
        <g id="Dashboard-2" transform="translate(-727.000000, -169.000000)" fill-rule="nonzero" fill="#FFA700">
            <g id="Top-Stats" transform="translate(207.000000, 164.000000)">
                <g id="Stats" transform="translate(305.000000, 5.000000)">
                    <g id="Stats-Block-#1">
                        <g id="Base">
                            <g id="loop" transform="translate(215.000000, 0.000000)">
                                <path d="M8,3 L8,0 L4,4 L8,8 L8,5 C11.3,5 14,7.7 14,11 C14,12 13.7,13 13.3,13.8 L14.8,15.3 C15.5,14 16,12.6 16,11 C16,6.6 12.4,3 8,3 L8,3 Z M8,17 C4.7,17 2,14.3 2,11 C2,10 2.3,9 2.7,8.2 L1.2,6.7 C0.5,8 0,9.4 0,11 C0,15.4 3.6,19 8,19 L8,22 L12,18 L8,14 L8,17 L8,17 Z"
                                      id="Shape"></path>
                            </g>
                        </g>
                    </g>
                </g>
            </g>
        </g>
    </g>
</svg>