<svg width="58" height="18" viewBox="0 0 58 18" fill="none" xmlns="http://www.w3.org/2000/svg">
<rect x="0.852295" width="57" height="18" rx="9" fill="#FDF3F2"/>
<path d="M13.9656 8.5V8.8125C13.9656 9.24219 13.9096 9.6276 13.7976 9.96875C13.6856 10.3099 13.5255 10.6003 13.3171 10.8398C13.1114 11.0794 12.864 11.263 12.575 11.3906C12.2859 11.5156 11.9656 11.5781 11.614 11.5781C11.2651 11.5781 10.946 11.5156 10.657 11.3906C10.3705 11.263 10.1218 11.0794 9.91089 10.8398C9.69995 10.6003 9.53589 10.3099 9.4187 9.96875C9.30412 9.6276 9.24683 9.24219 9.24683 8.8125V8.5C9.24683 8.07031 9.30412 7.6862 9.4187 7.34766C9.53328 7.00651 9.69474 6.71615 9.90308 6.47656C10.114 6.23438 10.3627 6.05078 10.6492 5.92578C10.9382 5.79818 11.2572 5.73438 11.6062 5.73438C11.9578 5.73438 12.2781 5.79818 12.5671 5.92578C12.8562 6.05078 13.1049 6.23438 13.3132 6.47656C13.5216 6.71615 13.6817 7.00651 13.7937 7.34766C13.9083 7.6862 13.9656 8.07031 13.9656 8.5ZM12.9851 8.8125V8.49219C12.9851 8.17448 12.9539 7.89453 12.8914 7.65234C12.8315 7.40755 12.7416 7.20312 12.6218 7.03906C12.5046 6.8724 12.3601 6.7474 12.1882 6.66406C12.0164 6.57812 11.8223 6.53516 11.6062 6.53516C11.3901 6.53516 11.1973 6.57812 11.0281 6.66406C10.8588 6.7474 10.7143 6.8724 10.5945 7.03906C10.4773 7.20312 10.3875 7.40755 10.325 7.65234C10.2625 7.89453 10.2312 8.17448 10.2312 8.49219V8.8125C10.2312 9.13021 10.2625 9.41146 10.325 9.65625C10.3875 9.90104 10.4786 10.1081 10.5984 10.2773C10.7208 10.444 10.8666 10.5703 11.0359 10.6562C11.2052 10.7396 11.3979 10.7812 11.614 10.7812C11.8328 10.7812 12.0268 10.7396 12.196 10.6562C12.3653 10.5703 12.5085 10.444 12.6257 10.2773C12.7429 10.1081 12.8315 9.90104 12.8914 9.65625C12.9539 9.41146 12.9851 9.13021 12.9851 8.8125ZM18.1375 5.8125H19.114V9.61328C19.114 10.0456 19.0203 10.4076 18.8328 10.6992C18.6453 10.9909 18.3901 11.2109 18.0671 11.3594C17.7468 11.5052 17.3888 11.5781 16.9929 11.5781C16.5841 11.5781 16.2195 11.5052 15.8992 11.3594C15.5789 11.2109 15.3263 10.9909 15.1414 10.6992C14.9591 10.4076 14.8679 10.0456 14.8679 9.61328V5.8125H15.8445V9.61328C15.8445 9.88672 15.8914 10.112 15.9851 10.2891C16.0789 10.4635 16.2117 10.5924 16.3835 10.6758C16.5554 10.7591 16.7585 10.8008 16.9929 10.8008C17.2273 10.8008 17.4291 10.7591 17.5984 10.6758C17.7703 10.5924 17.9031 10.4635 17.9968 10.2891C18.0906 10.112 18.1375 9.88672 18.1375 9.61328V5.8125ZM22.5203 5.8125V11.5H21.5476V5.8125H22.5203ZM24.3054 5.8125V6.59375H19.7781V5.8125H24.3054ZM26.7078 11.5H25.4929L25.5007 10.7227H26.7078C27.0593 10.7227 27.3536 10.6458 27.5906 10.4922C27.8302 10.3385 28.0098 10.1185 28.1296 9.83203C28.252 9.54557 28.3132 9.20443 28.3132 8.80859V8.5C28.3132 8.19271 28.2781 7.92057 28.2078 7.68359C28.1401 7.44661 28.0385 7.2474 27.9031 7.08594C27.7703 6.92448 27.6062 6.80208 27.4109 6.71875C27.2182 6.63542 26.9955 6.59375 26.7429 6.59375H25.4695V5.8125H26.7429C27.1205 5.8125 27.4656 5.8763 27.7781 6.00391C28.0906 6.12891 28.3601 6.3099 28.5867 6.54688C28.8158 6.78385 28.9916 7.06771 29.114 7.39844C29.2364 7.72917 29.2976 8.09896 29.2976 8.50781V8.80859C29.2976 9.21745 29.2364 9.58724 29.114 9.91797C28.9916 10.2487 28.8158 10.5326 28.5867 10.7695C28.3575 11.0039 28.0841 11.1849 27.7664 11.3125C27.4513 11.4375 27.0984 11.5 26.7078 11.5ZM26.0359 5.8125V11.5H25.0554V5.8125H26.0359ZM32.4109 6.57031L30.7117 11.5H29.6843L31.825 5.8125H32.4812L32.4109 6.57031ZM33.8328 11.5L32.1296 6.57031L32.0554 5.8125H32.7156L34.864 11.5H33.8328ZM33.7507 9.39062V10.168H30.657V9.39062H33.7507ZM37.3484 5.8125V11.5H36.3757V5.8125H37.3484ZM39.1335 5.8125V6.59375H34.6062V5.8125H39.1335ZM43.6062 10.7227V11.5H40.5867V10.7227H43.6062ZM40.864 5.8125V11.5H39.8835V5.8125H40.864ZM43.2117 8.1875V8.95312H40.5867V8.1875H43.2117ZM43.5867 5.8125V6.59375H40.5867V5.8125H43.5867ZM46.0593 11.5H44.8445L44.8523 10.7227H46.0593C46.4109 10.7227 46.7052 10.6458 46.9421 10.4922C47.1817 10.3385 47.3614 10.1185 47.4812 9.83203C47.6036 9.54557 47.6648 9.20443 47.6648 8.80859V8.5C47.6648 8.19271 47.6296 7.92057 47.5593 7.68359C47.4916 7.44661 47.3901 7.2474 47.2546 7.08594C47.1218 6.92448 46.9578 6.80208 46.7625 6.71875C46.5697 6.63542 46.3471 6.59375 46.0945 6.59375H44.821V5.8125H46.0945C46.4721 5.8125 46.8171 5.8763 47.1296 6.00391C47.4421 6.12891 47.7117 6.3099 47.9382 6.54688C48.1674 6.78385 48.3432 7.06771 48.4656 7.39844C48.588 7.72917 48.6492 8.09896 48.6492 8.50781V8.80859C48.6492 9.21745 48.588 9.58724 48.4656 9.91797C48.3432 10.2487 48.1674 10.5326 47.9382 10.7695C47.7091 11.0039 47.4356 11.1849 47.1179 11.3125C46.8028 11.4375 46.45 11.5 46.0593 11.5ZM45.3875 5.8125V11.5H44.407V5.8125H45.3875Z" fill="#E3463C"/>
</svg>
