<?xml version="1.0" encoding="UTF-8"?>
<svg width="20px" height="20px" viewBox="0 0 20 20" version="1.1" xmlns="http://www.w3.org/2000/svg" xmlns:xlink="http://www.w3.org/1999/xlink">
    <!-- Generator: Sketch 53.1 (72631) - https://sketchapp.com -->
    <title>icon / pin</title>
    <desc>Created with Sketch.</desc>
    <g id="icon-/-pin" stroke="none" stroke-width="1" fill="none" fill-rule="evenodd">
        <g id="pin" fill-rule="nonzero">
            <rect id="Rectangle" fill="#FFFFFF" opacity="0" x="0" y="0" width="20" height="20"></rect>
            <path d="M10.5,4 C8.03218668,3.99986838 6.02467813,6.11979044 6,8.75198437 C6,12.0399736 9.965625,15.6999615 10.134375,15.855961 C10.344876,16.048013 10.655124,16.048013 10.865625,15.855961 C11.0625,15.6999615 15,12.0399736 15,8.75198437 C14.9753219,6.11979044 12.9678133,3.99986838 10.5,4 Z M10.5,10.5999783 C9.4126894,10.5999783 8.53125,9.65977936 8.53125,8.4999852 C8.53125,7.34019104 9.4126894,6.3999921 10.5,6.3999921 C11.5873106,6.3999921 12.46875,7.34019104 12.46875,8.4999852 C12.46875,9.05693799 12.2613287,9.59107945 11.8921165,9.98490455 C11.5229042,10.3787297 11.022145,10.5999783 10.5,10.5999783 L10.5,10.5999783 Z" id="Shape" fill="#A6B3BD"></path>
        </g>
    </g>
</svg>