<svg width="20" height="20" viewBox="0 0 20 20" fill="none" xmlns="http://www.w3.org/2000/svg">
<path d="M9.99984 1.66663C8.35166 1.66663 6.7405 2.15537 5.37009 3.07105C3.99968 3.98672 2.93158 5.28821 2.30084 6.81093C1.67011 8.33365 1.50509 10.0092 1.82663 11.6257C2.14817 13.2422 2.94185 14.7271 4.10728 15.8925C5.27272 17.058 6.75758 17.8516 8.37409 18.1732C9.9906 18.4947 11.6662 18.3297 13.1889 17.699C14.7116 17.0682 16.0131 16.0001 16.9288 14.6297C17.8444 13.2593 18.3332 11.6481 18.3332 9.99996C18.3332 8.90561 18.1176 7.82198 17.6988 6.81093C17.28 5.79988 16.6662 4.88122 15.8924 4.1074C15.1186 3.33358 14.1999 2.71975 13.1889 2.30096C12.1778 1.88217 11.0942 1.66663 9.99984 1.66663ZM9.99984 16.6666C8.6813 16.6666 7.39237 16.2756 6.29604 15.5431C5.19971 14.8105 4.34523 13.7694 3.84064 12.5512C3.33606 11.333 3.20404 9.99256 3.46127 8.69936C3.71851 7.40615 4.35345 6.21826 5.2858 5.28591C6.21815 4.35356 7.40603 3.71863 8.69924 3.46139C9.99244 3.20416 11.3329 3.33618 12.5511 3.84076C13.7692 4.34535 14.8104 5.19983 15.543 6.29616C16.2755 7.39249 16.6665 8.68142 16.6665 9.99996C16.6665 11.7681 15.9641 13.4638 14.7139 14.714C13.4636 15.9642 11.768 16.6666 9.99984 16.6666Z" fill="#3885F1"/>
<path d="M12.4998 9.16663H10.8332V7.49996C10.8332 7.27895 10.7454 7.06698 10.5891 6.9107C10.4328 6.75442 10.2209 6.66663 9.99984 6.66663C9.77882 6.66663 9.56686 6.75442 9.41058 6.9107C9.2543 7.06698 9.1665 7.27895 9.1665 7.49996V9.16663H7.49984C7.27882 9.16663 7.06686 9.25442 6.91058 9.4107C6.7543 9.56698 6.6665 9.77895 6.6665 9.99996C6.6665 10.221 6.7543 10.4329 6.91058 10.5892C7.06686 10.7455 7.27882 10.8333 7.49984 10.8333H9.1665V12.5C9.1665 12.721 9.2543 12.9329 9.41058 13.0892C9.56686 13.2455 9.77882 13.3333 9.99984 13.3333C10.2209 13.3333 10.4328 13.2455 10.5891 13.0892C10.7454 12.9329 10.8332 12.721 10.8332 12.5V10.8333H12.4998C12.7209 10.8333 12.9328 10.7455 13.0891 10.5892C13.2454 10.4329 13.3332 10.221 13.3332 9.99996C13.3332 9.77895 13.2454 9.56698 13.0891 9.4107C12.9328 9.25442 12.7209 9.16663 12.4998 9.16663Z" fill="#3885F1"/>
</svg>
