<svg xmlns="http://www.w3.org/2000/svg" width="24" height="24" viewBox="0 0 24 24">
    <path fill="#1A84EE" fill-rule="evenodd"
          d="M20.185 16.736a.422.422 0 0 1-.077.086 2.347 2.347 0 0 1-.148.131l-5.809 5.086a.459.459 0 0 1-.608.001l-5.568-4.87a.643.643 0 0 1-.06-.062 3.891 3.891 0 0 1-1.453-3.031 3.928 3.928 0 0 1 3.923-3.924c1.497 0 2.8.843 3.462 2.08a3.928 3.928 0 0 1 3.461-2.08 3.928 3.928 0 0 1 3.924 3.924c0 .987-.372 1.929-1.047 2.659M4.167 6.461a2.297 2.297 0 0 1-2.295-2.295 2.298 2.298 0 0 1 2.295-2.295 2.298 2.298 0 0 1 2.295 2.295 2.297 2.297 0 0 1-2.295 2.295m18.72 4.695L12.27.54A1.835 1.835 0 0 0 10.964 0L1.852.006A1.848 1.848 0 0 0 .007 1.851L0 10.948c0 .5.206.985.566 1.331l11.218 10.803a3.267 3.267 0 0 0 2.278.918c.877 0 1.702-.342 2.322-.962l6.503-6.502A3.78 3.78 0 0 0 24 13.846c0-1.016-.395-1.971-1.114-2.69"/>
</svg>
