<svg xmlns="http://www.w3.org/2000/svg" width="24" height="24" viewBox="0 0 24 24">
    <path fill="#1A84EE" fill-rule="nonzero"
          d="M21.143 11.429h-1.714V6.857a2.292 2.292 0 0 0-2.286-2.286H12.57V2.857A2.83 2.83 0 0 0 9.714 0a2.83 2.83 0 0 0-2.857 2.857v1.714H2.286A2.292 2.292 0 0 0 0 6.857V11.2h1.714A3.073 3.073 0 0 1 4.8 14.286a3.073 3.073 0 0 1-3.086 3.085H0v4.343A2.292 2.292 0 0 0 2.286 24h4.343v-1.714A3.073 3.073 0 0 1 9.714 19.2a3.073 3.073 0 0 1 3.086 3.086V24h4.343a2.292 2.292 0 0 0 2.286-2.286v-4.571h1.714A2.83 2.83 0 0 0 24 14.286a2.83 2.83 0 0 0-2.857-2.857z"/>
</svg>
