<svg xmlns="http://www.w3.org/2000/svg" width="27" height="24" viewBox="0 0 27 24">
    <path fill="#1A84EE" fill-rule="evenodd"
          d="M26.083 10.219c-.102-.558-.65-1.128-1.223-1.251l-.425-.097A4.231 4.231 0 0 1 21.98 6.97a4.087 4.087 0 0 1-.453-3.052l.135-.394c.17-.543-.051-1.292-.498-1.665 0 0-.401-.332-1.528-.97-1.13-.634-1.615-.81-1.615-.81-.548-.197-1.319-.01-1.72.408l-.297.311a4.25 4.25 0 0 1-2.91 1.131c-1.13 0-2.16-.432-2.918-1.14L9.889.487C9.493.07 8.72-.116 8.169.078c0 0-.492.177-1.621.811-1.13.643-1.526.975-1.526.975-.446.368-.668 1.11-.497 1.66l.123.397a4.092 4.092 0 0 1-.453 3.049 4.207 4.207 0 0 1-2.469 1.906l-.41.092c-.564.126-1.118.69-1.223 1.251 0 0-.093.502-.093 1.78s.093 1.78.093 1.78c.102.564.65 1.128 1.223 1.252l.401.09a4.192 4.192 0 0 1 2.472 1.913c.564.96.699 2.054.453 3.052l-.117.388c-.17.544.05 1.293.497 1.666 0 0 .402.332 1.529.97 1.13.637 1.615.81 1.615.81.548.197 1.318.009 1.72-.408l.282-.297a4.289 4.289 0 0 1 2.924-1.143 4.28 4.28 0 0 1 2.925 1.146l.282.297c.395.417 1.169.602 1.72.408 0 0 .491-.176 1.621-.81 1.13-.638 1.525-.97 1.525-.97.447-.367.669-1.117.498-1.666l-.123-.402a4.062 4.062 0 0 1 .452-3.038 4.235 4.235 0 0 1 2.473-1.912l.401-.091c.564-.127 1.118-.69 1.223-1.252 0 0 .093-.502.093-1.78-.006-1.278-.1-1.783-.1-1.783zm-12.988 6.897c-2.88 0-5.22-2.288-5.22-5.117 0-2.823 2.335-5.111 5.22-5.111 2.88 0 5.22 2.288 5.22 5.117-.005 2.823-2.34 5.111-5.22 5.111z"/>
</svg>
