<?xml version="1.0" encoding="UTF-8"?>
<svg width="24px" height="20px" viewBox="0 0 24 20" version="1.1" xmlns="http://www.w3.org/2000/svg"
     xmlns:xlink="http://www.w3.org/1999/xlink">
    <!-- Generator: Sketch 52.3 (67297) - http://www.bohemiancoding.com/sketch -->
    <title>Group 5-svg</title>
    <desc>Created with Sketch.</desc>
    <g id="Screens" stroke="none" stroke-width="1" fill="none" fill-rule="evenodd">
        <g id="Notifications-:-SMS-:-History" transform="translate(-1038.000000, -207.000000)" fill-rule="nonzero">
            <g id="Group-2" transform="translate(183.000000, 183.000000)">
                <g id="Group-11" transform="translate(822.000000, 0.000000)">
                    <g id="Group-3" transform="translate(33.000000, 18.000000)">
                        <g id="speech-bubbles.1" transform="translate(0.000000, 6.000000)">
                            <g id="Group-5">
                                <path d="M14.2040816,14 C15.5549388,14 16.6530612,12.878 16.6530612,11.5 L16.6530612,2.5 C16.6530612,1.122 15.5549388,0 14.2040816,0 L2.44897959,0 C1.09812245,0 0,1.122 0,2.5 L0,11.5 C0,12.878 1.09812245,14 2.44897959,14 L3.91836735,14 L3.91836735,16.5 C3.91836735,16.689 4.02318367,16.862 4.18873469,16.947 C4.25730612,16.982 4.33273469,17 4.40816327,17 C4.512,17 4.61583673,16.966 4.70204082,16.9 L8.49012245,14 L14.2040816,14 Z"
                                      id="Shape" fill="#FFA700"></path>
                                <path d="M21.5755737,3 L18.6662622,3 C18.3986055,3 18.1813769,3.224 18.1813769,3.5 L18.1813769,11.5 C18.1813769,13.43 16.6588372,15 14.7871801,15 L9.61539396,15 C9.51065874,15 9.40786307,15.035 9.3244628,15.1 L8.52052304,15.722 C8.39639242,15.818 8.3246294,15.968 8.32656894,16.127 C8.32850848,16.286 8.40318081,16.435 8.52925098,16.528 C8.9462523,16.837 9.43404687,17 9.93832754,17 L15.5949989,17 L19.3451015,19.9 C19.4304413,19.966 19.5322672,20 19.6360327,20 C19.7097352,20 19.7844076,19.982 19.8532613,19.947 C20.0171525,19.862 20.1209179,19.689 20.1209179,19.5 L20.1209179,17 L21.5755737,17 C22.9128873,17 24,15.878 24,14.5 L24,5.5 C24,4.122 22.9128873,3 21.5755737,3 Z"
                                      id="Shape-Copy" fill-opacity="0.5" fill="#FFD400"></path>
                            </g>
                        </g>
                    </g>
                </g>
            </g>
        </g>
    </g>
</svg>