<svg width="18" height="18" viewBox="0 0 18 18" fill="none" xmlns="http://www.w3.org/2000/svg">
<path d="M17.3334 8.99996C17.3334 7.90561 17.1178 6.82198 16.699 5.81093C16.2802 4.79988 15.6664 3.88122 14.8926 3.1074C14.1188 2.33358 13.2001 1.71975 12.189 1.30096C11.178 0.882174 10.0944 0.666626 9.00002 0.666626C6.78988 0.666626 4.67027 1.5446 3.10746 3.1074C1.54466 4.67021 0.666687 6.78982 0.666687 8.99996C0.666687 11.2101 1.54466 13.3297 3.10746 14.8925C4.67027 16.4553 6.78988 17.3333 9.00002 17.3333C11.2102 17.3333 13.3298 16.4553 14.8926 14.8925C16.4554 13.3297 17.3334 11.2101 17.3334 8.99996ZM15.6084 8.16663H13.1667C13.0292 6.20675 12.3577 4.32192 11.225 2.71663C12.3887 3.12993 13.4148 3.85835 14.1888 4.82066C14.9627 5.78297 15.4542 6.94135 15.6084 8.16663ZM6.56669 9.83329H11.5C11.2868 11.8921 10.4092 13.8256 9.00002 15.3416C7.59175 13.8319 6.73435 11.891 6.56669 9.83329ZM6.56669 8.16663C6.76076 6.11815 7.61468 4.18806 9.00002 2.66663C10.4206 4.17173 11.3001 6.10666 11.5 8.16663H6.56669ZM6.86669 2.69163C5.72798 4.30581 5.04569 6.19723 4.89169 8.16663H2.39169C2.54911 6.92621 3.05219 5.75506 3.84349 4.78694C4.63479 3.81881 5.6824 3.09274 6.86669 2.69163ZM2.39169 9.83329H4.89169C5.02893 11.801 5.70659 13.6927 6.85002 15.3C5.67 14.8969 4.62668 14.171 3.83858 13.2046C3.05048 12.2383 2.5492 11.0703 2.39169 9.83329ZM11.1834 15.2916C12.3237 13.6839 13.0089 11.7981 13.1667 9.83329H15.625C15.4674 11.0668 14.968 12.2317 14.1831 13.1963C13.3982 14.1608 12.3591 14.8866 11.1834 15.2916Z" fill="#636E7D"/>
</svg>
