<svg width="18" height="18" viewBox="0 0 18 18" fill="none" xmlns="http://www.w3.org/2000/svg">
<path d="M17.3334 9.00002C17.3334 7.90567 17.1178 6.82204 16.699 5.81099C16.2802 4.79994 15.6664 3.88129 14.8926 3.10746C14.1188 2.33364 13.2001 1.71981 12.189 1.30102C11.178 0.882235 10.0944 0.666687 9.00002 0.666687C6.78988 0.666687 4.67027 1.54466 3.10746 3.10746C1.54466 4.67027 0.666687 6.78988 0.666687 9.00002C0.666687 11.2102 1.54466 13.3298 3.10746 14.8926C4.67027 16.4554 6.78988 17.3334 9.00002 17.3334C11.2102 17.3334 13.3298 16.4554 14.8926 14.8926C16.4554 13.3298 17.3334 11.2102 17.3334 9.00002ZM15.6084 8.16669H13.1667C13.0292 6.20681 12.3577 4.32198 11.225 2.71669C12.3887 3.12999 13.4148 3.85841 14.1888 4.82072C14.9627 5.78303 15.4542 6.94141 15.6084 8.16669ZM6.56669 9.83335H11.5C11.2868 11.8922 10.4092 13.8257 9.00002 15.3417C7.59175 13.832 6.73435 11.8911 6.56669 9.83335ZM6.56669 8.16669C6.76076 6.11821 7.61468 4.18812 9.00002 2.66669C10.4206 4.17179 11.3001 6.10672 11.5 8.16669H6.56669ZM6.86669 2.69169C5.72798 4.30587 5.04569 6.19729 4.89169 8.16669H2.39169C2.54911 6.92627 3.05219 5.75512 3.84349 4.787C4.63479 3.81887 5.6824 3.0928 6.86669 2.69169ZM2.39169 9.83335H4.89169C5.02893 11.8011 5.70659 13.6927 6.85002 15.3C5.67 14.897 4.62668 14.171 3.83858 13.2047C3.05048 12.2383 2.5492 11.0703 2.39169 9.83335ZM11.1834 15.2917C12.3237 13.6839 13.0089 11.7981 13.1667 9.83335H15.625C15.4674 11.0669 14.968 12.2318 14.1831 13.1963C13.3982 14.1609 12.3591 14.8867 11.1834 15.2917Z" fill="#3885F1"/>
</svg>
