<svg width="198" height="189" viewBox="0 0 198 189" fill="none" xmlns="http://www.w3.org/2000/svg">
<path d="M163.935 178.949C142.783 194.722 115.032 185.511 88.795 182.726C60.256 179.696 25.835 186.141 9.48522 162.554C-7.4903 138.065 4.02491 105.089 16.0943 77.8447C27.2924 52.5674 44.7793 28.0991 71.7473 22.0109C96.9614 16.3186 118.238 35.9012 139.983 49.876C162.759 64.5132 191.724 75.6698 196.664 102.289C201.997 131.031 187.369 161.475 163.935 178.949Z" fill="#F0F1F2"/>
<circle cx="100.05" cy="94.05" r="61.1832" transform="rotate(-45 100.05 94.05)" fill="#F0F1F2" stroke="#667279" stroke-width="10.6405"/>
<mask id="mask0_3789_2001" style="mask-type:alpha" maskUnits="userSpaceOnUse" x="44" y="38" width="112" height="112">
<circle cx="100.05" cy="94.05" r="55.8629" transform="rotate(-45 100.05 94.05)" fill="white"/>
</mask>
<g mask="url(#mask0_3789_2001)">
<circle cx="118.671" cy="75.429" r="63.2992" transform="rotate(-45 118.671 75.429)" fill="white"/>
</g>
<path d="M100.032 49L123.696 89.3984L100.032 89.3984L76.3668 89.3984L100.032 49Z" fill="#517DF5"/>
<rect x="88.3182" y="82.7051" width="21.7536" height="38.4872" fill="#517DF5"/>
<rect x="90.5322" y="133.936" width="17.2909" height="5.32027" fill="#667279"/>
<rect x="88.0803" y="125.974" width="21.7536" height="5.32027" fill="#667279"/>
</svg>
