<?xml version="1.0" encoding="UTF-8"?>
<svg width="188px" height="160px" viewBox="0 0 188 160" version="1.1" xmlns="http://www.w3.org/2000/svg"
     xmlns:xlink="http://www.w3.org/1999/xlink">
    <!-- Generator: Sketch 47.1 (45422) - http://www.bohemiancoding.com/sketch -->
    <title>Custom Preset</title>
    <desc>Created with Sketch.</desc>
    <defs></defs>
    <g id="Page-1" stroke="none" stroke-width="1" fill="none" fill-rule="evenodd">
        <g id="Custom-Preset">
            <g id="Employee-emptystate">
                <rect id="Base" fill="#D3DDEA" fill-rule="nonzero" opacity="0.196218297" x="28" y="0" width="160"
                      height="160" rx="80"></rect>
                <g id="Group-2" transform="translate(0.000000, 40.000000)">
                    <g id="Group-3">
                        <g id="Rectangle-5-Copy">
                            <g id="path-1-link" fill="#FFFFFF">
                                <rect id="path-1" x="0" y="0" width="163" height="41" rx="8"></rect>
                            </g>
                            <rect id="Rectangle-path" stroke="#E2E6EC" x="0.5" y="0.5" width="162" height="40"
                                  rx="8"></rect>
                        </g>
                        <rect id="Rectangle-6-Copy-5" fill="#E2E6EC" fill-rule="nonzero" x="35" y="10" width="72"
                              height="8" rx="4"></rect>
                        <rect id="Rectangle-6-Copy-4" fill="#E2E6EC" fill-rule="nonzero" x="112" y="10" width="33"
                              height="8" rx="4"></rect>
                        <rect id="Rectangle-6-Copy-3" fill="#E2E6EC" fill-rule="nonzero" x="35" y="23" width="72"
                              height="8" rx="4"></rect>
                        <path d="M20.0000114,10 C25.5228726,10 30,14.477173 30,20.0000114 C30,25.5228498 25.5228727,30 20.0000114,30 C14.4771502,30 10,25.522827 10,19.9999886 C10,14.4771502 14.4771502,10 20.0000114,10 Z M25.9666996,22.7819262 C25.9882345,22.7100664 26.0000001,22.6341213 26,22.555422 C26,22.4271485 25.9691889,22.3059898 25.9146118,22.1983492 C25.7799305,21.9327135 25.4998121,21.75 25.1758959,21.75 C24.8519797,21.75 24.5718613,21.9327135 24.4371565,22.1983492 L24.4347142,22.1983492 L24.4239585,22.1983492 C23.6151425,23.7892028 21.940914,24.8847494 20,24.8868609 C18.0590625,24.8847494 16.3848575,23.7892258 15.5760415,22.1983492 L15.5652858,22.1983492 L15.5628435,22.1983492 C15.4281387,21.9327135 15.1479968,21.75 14.8241041,21.75 C14.5002114,21.75 14.220093,21.9327135 14.0853882,22.1983492 C14.0308346,22.3059898 14,22.4271714 14,22.555422 C14,22.6340983 14.0117655,22.7100434 14.0333005,22.7819262 C14.0419896,22.8109363 14.0521112,22.8393498 14.0639472,22.866891 C14.0771453,22.8975996 14.092363,22.9272294 14.1092011,22.9558724 C15.1957165,25.0577087 17.4201071,26.5 19.9944108,26.5 C19.9962895,26.5 19.9981213,26.4999541 20,26.4999541 C20.0018788,26.4999541 20.0037105,26.5 20.0055892,26.5 C22.579893,26.5 24.8042601,25.0576857 25.890799,22.9558724 C25.9076371,22.9272294 25.9228548,22.8975996 25.9360528,22.866891 C25.9478888,22.8393268 25.9580105,22.8109363 25.9666996,22.7819262 Z M22.25,17.2489566 L22.25,18.2510434 C22.25,18.8073397 22.6977153,19.25 23.25,19.25 C23.8061352,19.25 24.25,18.8027519 24.25,18.2510434 L24.25,17.2489566 C24.25,16.6926603 23.8022847,16.25 23.25,16.25 C22.6938648,16.25 22.25,16.6972481 22.25,17.2489566 Z M15.75,17.2489566 L15.75,18.2510434 C15.75,18.8073397 16.1977153,19.25 16.75,19.25 C17.3061352,19.25 17.75,18.8027519 17.75,18.2510434 L17.75,17.2489566 C17.75,16.6926603 17.3022847,16.25 16.75,16.25 C16.1938648,16.25 15.75,16.6972481 15.75,17.2489566 Z"
                              id="rate_face_on_4-5" fill="#E2E6EC" fill-rule="nonzero"></path>
                    </g>
                    <g id="Group-3-Copy" transform="translate(14.000000, 49.000000)">
                        <g id="Rectangle-5-Copy">
                            <g id="path-2-link" fill="#FFFFFF">
                                <rect id="path-2" x="0" y="0" width="163" height="41" rx="8"></rect>
                            </g>
                            <rect id="Rectangle-path" stroke="#E2E6EC" x="0.5" y="0.5" width="162" height="40"
                                  rx="8"></rect>
                        </g>
                        <rect id="Rectangle-6-Copy-5" fill="#E2E6EC" fill-rule="nonzero" x="35" y="10" width="72"
                              height="8" rx="4"></rect>
                        <rect id="Rectangle-6-Copy-4" fill="#E2E6EC" fill-rule="nonzero" x="112" y="10" width="33"
                              height="8" rx="4"></rect>
                        <rect id="Rectangle-6-Copy-3" fill="#E2E6EC" fill-rule="nonzero" x="35" y="23" width="72"
                              height="8" rx="4"></rect>
                        <path d="M20.0000114,10 C25.5228726,10 30,14.477173 30,20.0000114 C30,25.5228498 25.5228727,30 20.0000114,30 C14.4771502,30 10,25.522827 10,19.9999886 C10,14.4771502 14.4771502,10 20.0000114,10 Z M25.9666996,22.7819262 C25.9882345,22.7100664 26.0000001,22.6341213 26,22.555422 C26,22.4271485 25.9691889,22.3059898 25.9146118,22.1983492 C25.7799305,21.9327135 25.4998121,21.75 25.1758959,21.75 C24.8519797,21.75 24.5718613,21.9327135 24.4371565,22.1983492 L24.4347142,22.1983492 L24.4239585,22.1983492 C23.6151425,23.7892028 21.940914,24.8847494 20,24.8868609 C18.0590625,24.8847494 16.3848575,23.7892258 15.5760415,22.1983492 L15.5652858,22.1983492 L15.5628435,22.1983492 C15.4281387,21.9327135 15.1479968,21.75 14.8241041,21.75 C14.5002114,21.75 14.220093,21.9327135 14.0853882,22.1983492 C14.0308346,22.3059898 14,22.4271714 14,22.555422 C14,22.6340983 14.0117655,22.7100434 14.0333005,22.7819262 C14.0419896,22.8109363 14.0521112,22.8393498 14.0639472,22.866891 C14.0771453,22.8975996 14.092363,22.9272294 14.1092011,22.9558724 C15.1957165,25.0577087 17.4201071,26.5 19.9944108,26.5 C19.9962895,26.5 19.9981213,26.4999541 20,26.4999541 C20.0018788,26.4999541 20.0037105,26.5 20.0055892,26.5 C22.579893,26.5 24.8042601,25.0576857 25.890799,22.9558724 C25.9076371,22.9272294 25.9228548,22.8975996 25.9360528,22.866891 C25.9478888,22.8393268 25.9580105,22.8109363 25.9666996,22.7819262 Z M22.25,17.2489566 L22.25,18.2510434 C22.25,18.8073397 22.6977153,19.25 23.25,19.25 C23.8061352,19.25 24.25,18.8027519 24.25,18.2510434 L24.25,17.2489566 C24.25,16.6926603 23.8022847,16.25 23.25,16.25 C22.6938648,16.25 22.25,16.6972481 22.25,17.2489566 Z M15.75,17.2489566 L15.75,18.2510434 C15.75,18.8073397 16.1977153,19.25 16.75,19.25 C17.3061352,19.25 17.75,18.8027519 17.75,18.2510434 L17.75,17.2489566 C17.75,16.6926603 17.3022847,16.25 16.75,16.25 C16.1938648,16.25 15.75,16.6972481 15.75,17.2489566 Z"
                              id="rate_face_on_4-5-copy" fill="#E2E6EC" fill-rule="nonzero"></path>
                    </g>
                </g>
            </g>
        </g>
    </g>
</svg>