<svg width="110" height="97" viewBox="0 0 110 97" fill="none" xmlns="http://www.w3.org/2000/svg">
<path d="M107.8 72.5014L69.4495 8.9014C67.8988 6.47548 65.7623 4.47902 63.2369 3.09609C60.7116 1.71316 57.8787 0.988281 54.9995 0.988281C52.1203 0.988281 49.2874 1.71316 46.7621 3.09609C44.2368 4.47902 42.1002 6.47548 40.5495 8.9014L2.19952 72.5014C0.844792 74.7597 0.108468 77.3348 0.0645834 79.9679C0.0206985 82.601 0.670799 85.1992 1.94952 87.5014C3.42792 90.0927 5.56782 92.2451 8.15053 93.7385C10.7332 95.2319 13.6661 96.0128 16.6495 96.0014H93.3495C96.3133 96.033 99.2329 95.2823 101.814 93.8251C104.395 92.3678 106.546 90.2555 108.05 87.7014C109.366 85.3753 110.037 82.7397 109.993 80.0674C109.949 77.395 109.192 74.783 107.8 72.5014ZM54.9995 76.0014C54.0106 76.0014 53.0439 75.7082 52.2217 75.1588C51.3994 74.6093 50.7586 73.8284 50.3801 72.9148C50.0017 72.0012 49.9027 70.9958 50.0956 70.0259C50.2885 69.056 50.7647 68.1651 51.464 67.4659C52.1632 66.7666 53.0542 66.2904 54.0241 66.0975C54.994 65.9045 55.9993 66.0036 56.9129 66.382C57.8266 66.7604 58.6075 67.4013 59.1569 68.2235C59.7063 69.0458 59.9995 70.0125 59.9995 71.0014C59.9995 72.3275 59.4727 73.5993 58.5351 74.5369C57.5974 75.4746 56.3256 76.0014 54.9995 76.0014ZM59.9995 56.0014C59.9995 57.3275 59.4727 58.5993 58.5351 59.5369C57.5974 60.4746 56.3256 61.0014 54.9995 61.0014C53.6734 61.0014 52.4017 60.4746 51.464 59.5369C50.5263 58.5993 49.9995 57.3275 49.9995 56.0014V36.0014C49.9995 34.6753 50.5263 33.4035 51.464 32.4659C52.4017 31.5282 53.6734 31.0014 54.9995 31.0014C56.3256 31.0014 57.5974 31.5282 58.5351 32.4659C59.4727 33.4035 59.9995 34.6753 59.9995 36.0014V56.0014Z" fill="#DC180B"/>
</svg>
