<?xml version="1.0" encoding="UTF-8"?>
<svg width="24px" height="24px" viewBox="0 0 24 24" version="1.1" xmlns="http://www.w3.org/2000/svg" xmlns:xlink="http://www.w3.org/1999/xlink">
    <!-- Generator: Sketch 58 (84663) - https://sketch.com -->
    <title>Artboard</title>
    <desc>Created with Sketch.</desc>
    <g id="Artboard" stroke="none" stroke-width="1" fill="none" fill-rule="evenodd">
        <g id="noun_Plug_1456417" transform="translate(3.000000, 0.000000)" fill="#1984ED" fill-rule="nonzero">
            <g id="Group">
                <path d="M0.992598983,23.81184 L2.06403478,22.7724232 C1.3408094,22.0675778 1.3408094,20.9282228 2.06403478,20.2233773 L2.19158666,20.0996372 C3.80886224,21.4820304 6.25538615,21.4061679 7.778359,19.9264011 L9.87020983,17.8970635 L9.99776171,18.0208036 C10.3024477,18.2424891 10.7287984,18.2130948 10.9981053,17.9518359 C11.2674122,17.6905771 11.297712,17.2769675 11.0691975,16.9813868 L9.92123059,15.867726 L12.0385918,13.8136405 C12.2671063,13.5180598 12.2368064,13.1044502 11.9674996,12.8431914 C11.6981927,12.5819325 11.271842,12.5525382 10.967156,12.7742237 L8.84979479,14.7788132 L6.57937133,12.5762395 L8.69673254,10.522154 C8.925247,10.2265733 8.89494719,9.81296374 8.62564031,9.55170488 C8.35633343,9.29044601 7.9299827,9.26105169 7.62529674,9.48273718 L5.50793554,11.5368227 L4.35996862,10.4231619 C4.16857505,10.2330672 3.88718171,10.1564682 3.62178677,10.2222192 C3.35639182,10.2879702 3.14731506,10.4860819 3.07331368,10.7419276 C2.9993123,10.9977733 3.07162888,11.2724839 3.26302245,11.4625787 L3.39057433,11.5863188 L1.2987235,13.6156563 C-0.226627228,15.0931163 -0.304826622,17.4665278 1.12015086,19.0354724 L0.992598983,19.1592125 C-0.330866328,20.4443616 -0.330866328,22.5266909 0.992598983,23.81184 Z M2.37015929,14.6550731 L4.46201012,12.6257356 L4.81915538,12.9722078 L4.94670726,13.1206959 L5.09976952,13.244436 L8.18652502,16.2141983 L8.3140769,16.3626864 L8.46713915,16.4864265 L8.82428442,16.8328987 L6.73243358,18.8622363 C5.73743337,19.8217753 4.13047078,19.8217753 3.13547057,18.8622363 L2.42118004,18.1692917 C1.43208257,17.2040263 1.43208257,15.6450865 2.42118004,14.6798211 L2.37015929,14.6550731 Z" id="Shape"></path>
                <path d="M17.3439448,0.0989307921 L17.222696,2.66453526e-15 L16.8347001,0.643050148 L16.3254554,1.16243681 C17.0129416,1.86684592 17.0129416,3.00549559 16.3254554,3.7099047 L16.2042067,3.83356819 C14.6668509,2.45203082 12.3412253,2.52784632 10.8935122,4.00669708 L8.90503299,6.03477832 L8.78378426,5.91111483 C8.49415477,5.68956657 8.08887274,5.7189427 7.83287402,5.98003982 C7.5768753,6.24113695 7.54807279,6.65449047 7.76529491,6.94988814 L14.167228,13.5040531 C14.4551724,13.7909024 14.9165941,13.7853658 15.1978422,13.4916868 C15.4790902,13.1980077 15.4736618,12.7273964 15.1857173,12.4405471 L15.0644686,12.3168836 L17.0529478,10.2888024 C18.5029213,8.812257 18.5772563,6.44031481 17.222696,4.87234151 L17.3439448,4.74867802 C18.6020092,3.46432451 18.6020092,1.3832843 17.3439448,0.0989307921 L17.3439448,0.0989307921 Z M16.0344584,9.25002906 L14.0459792,11.2781103 L9.92352234,7.07355163 L11.9120016,5.0454704 C12.8578325,4.08652534 14.3853849,4.08652534 15.3312158,5.0454704 L16.0102087,5.73798594 C16.9504286,6.7026538 16.9504286,8.2606285 16.0102087,9.22529636 L16.0344584,9.25002906 Z" id="Shape"></path>
            </g>
        </g>
    </g>
</svg>