<svg width="17" height="16" viewBox="0 0 17 16" fill="none" xmlns="http://www.w3.org/2000/svg">
<path d="M5.62695 7C5.07467 7 4.62695 7.44772 4.62695 8C4.62695 8.55229 5.07467 9 5.62695 9H11.2636C11.8159 9 12.2636 8.55229 12.2636 8C12.2636 7.44772 11.8159 7 11.2636 7H5.62695Z" fill="#808A90"/>
<path fill-rule="evenodd" clip-rule="evenodd" d="M8.44531 0C4.02703 0 0.445312 3.58172 0.445312 8C0.445312 12.4183 4.02703 16 8.44531 16C12.8636 16 16.4453 12.4183 16.4453 8C16.4453 3.58172 12.8636 0 8.44531 0ZM1.94531 8C1.94531 4.41015 4.85546 1.5 8.44531 1.5C12.0352 1.5 14.9453 4.41015 14.9453 8C14.9453 11.5899 12.0352 14.5 8.44531 14.5C4.85546 14.5 1.94531 11.5899 1.94531 8Z" fill="#808A90"/>
</svg>
