<svg width="16" height="16" viewBox="0 0 16 16" fill="none" xmlns="http://www.w3.org/2000/svg">
<path fill-rule="evenodd" clip-rule="evenodd" d="M7.80747 0.248283C8.08456 0.556165 8.05961 1.03038 7.75172 1.30748L6.70447 2.25001H9.25C12.9779 2.25001 16 5.27208 16 9.00001V9.25001C16 9.66422 15.6642 10 15.25 10C14.8358 10 14.5 9.66422 14.5 9.25001V9.00001C14.5 6.10051 12.1495 3.75001 9.25 3.75001H6.70447L7.75172 4.69254C8.05961 4.96963 8.08456 5.44385 7.80747 5.75173C7.53038 6.05961 7.05616 6.08457 6.74828 5.80748L4.24828 3.55748C4.09024 3.41525 4 3.21262 4 3.00001C4 2.78739 4.09024 2.58477 4.24828 2.44254L6.74828 0.192536C7.05616 -0.0845584 7.53038 -0.0595996 7.80747 0.248283ZM0.75 6.00001C1.16421 6.00001 1.5 6.33579 1.5 6.75001V7.00001C1.5 9.8995 3.85051 12.25 6.75 12.25H9.29553L8.24828 11.3075C7.94039 11.0304 7.91544 10.5562 8.19253 10.2483C8.46962 9.9404 8.94384 9.91544 9.25172 10.1925L11.7517 12.4425C11.9098 12.5848 12 12.7874 12 13C12 13.2126 11.9098 13.4152 11.7517 13.5575L9.25172 15.8075C8.94384 16.0846 8.46962 16.0596 8.19253 15.7517C7.91544 15.4438 7.94039 14.9696 8.24828 14.6925L9.29553 13.75H6.75C3.02208 13.75 0 10.7279 0 7.00001V6.75001C0 6.33579 0.335786 6.00001 0.75 6.00001Z" fill="#EBBC16"/>
</svg>
