<svg width="44" height="27" viewBox="0 0 44 27" fill="none" xmlns="http://www.w3.org/2000/svg">
<path d="M11.5035 10.8582V2.03134C11.5035 0.469951 9.84276 -0.505952 8.5142 0.274788L0.996474 4.69241C0.379869 5.05468 3.05176e-05 5.72434 3.05176e-05 6.44897V15.2339C3.05176e-05 16.7916 1.65364 17.768 2.98221 16.9947L10.5 12.6191C11.1206 12.2578 11.5035 11.5859 11.5035 10.8582Z" fill="#1A84EE"/>
<path d="M13.4964 2.03138V10.8583C13.4964 11.5859 13.8794 12.2578 14.4999 12.619L22.0178 16.9947C23.3464 17.768 25 16.7917 25 15.2339V6.449C25 5.72438 24.6202 5.05472 24.0036 4.69245L16.4858 0.274738C15.1572 -0.505914 13.4964 0.46999 13.4964 2.03138Z" fill="#005AEE"/>
<path d="M11.5107 14.3675L3.94995 18.7682C2.61502 19.5451 2.61109 21.5029 3.9428 22.2855L11.5035 26.7284C12.1201 27.0907 12.8798 27.0907 13.4964 26.7284L21.0572 22.2855C22.3889 21.5029 22.385 19.5451 21.0501 18.7682L13.4894 14.3675C12.8763 14.0106 12.1236 14.0106 11.5107 14.3675Z" fill="#3BA6FF"/>
<rect x="18" width="26" height="12" rx="6" fill="#E6EFFD"/>
<path d="M21.6392 9V3.18182H23.7699C24.1828 3.18182 24.5246 3.25 24.7955 3.38636C25.0663 3.52083 25.2689 3.7036 25.4034 3.93466C25.5379 4.16383 25.6051 4.42235 25.6051 4.71023C25.6051 4.95265 25.5606 5.1572 25.4716 5.32386C25.3826 5.48864 25.2633 5.62121 25.1136 5.72159C24.9659 5.82008 24.803 5.89205 24.625 5.9375V5.99432C24.8182 6.00379 25.0066 6.06629 25.1903 6.18182C25.3759 6.29545 25.5294 6.45739 25.6506 6.66761C25.7718 6.87784 25.8324 7.13352 25.8324 7.43466C25.8324 7.73201 25.7623 7.99905 25.6222 8.2358C25.4839 8.47064 25.2699 8.6572 24.9801 8.79545C24.6903 8.93182 24.3201 9 23.8693 9H21.6392ZM22.517 8.24716H23.7841C24.2045 8.24716 24.5057 8.16572 24.6875 8.00284C24.8693 7.83996 24.9602 7.63636 24.9602 7.39205C24.9602 7.20833 24.9138 7.03977 24.821 6.88636C24.7282 6.73295 24.5956 6.6108 24.4233 6.51989C24.2528 6.42898 24.0502 6.38352 23.8153 6.38352H22.517V8.24716ZM22.517 5.69886H23.6932C23.8902 5.69886 24.0672 5.66098 24.2244 5.58523C24.3835 5.50947 24.5095 5.40341 24.6023 5.26705C24.697 5.12879 24.7443 4.96591 24.7443 4.77841C24.7443 4.53788 24.66 4.33617 24.4915 4.1733C24.3229 4.01042 24.0644 3.92898 23.7159 3.92898H22.517V5.69886ZM26.8736 9V3.18182H30.5213V3.9375H27.7514V5.71023H30.331V6.46307H27.7514V8.24432H30.5554V9H26.8736ZM31.407 3.9375V3.18182H35.9098V3.9375H34.0945V9H33.2195V3.9375H31.407ZM36.7088 9H35.777L37.8707 3.18182H38.8849L40.9787 9H40.0469L38.402 4.23864H38.3565L36.7088 9ZM36.8651 6.72159H39.8878V7.46023H36.8651V6.72159Z" fill="#005AEE"/>
</svg>
