<svg width="16" height="16" viewBox="0 0 16 16" fill="none" xmlns="http://www.w3.org/2000/svg">
<path fill-rule="evenodd" clip-rule="evenodd" d="M8 0C8.41421 0 8.75 0.335786 8.75 0.75V8.3401L10.7004 6.23966C10.9823 5.93613 11.4568 5.91855 11.7603 6.2004C12.0639 6.48226 12.0814 6.95681 11.7996 7.26034L8.54959 10.7603C8.40769 10.9132 8.20855 11 8 11C7.79145 11 7.59231 10.9132 7.4504 10.7603L4.20041 7.26034C3.91855 6.95681 3.93613 6.48226 4.23966 6.2004C4.54319 5.91855 5.01774 5.93613 5.2996 6.23966L7.25 8.3401V0.75C7.25 0.335786 7.58579 0 8 0ZM0.75 10C1.16421 10 1.5 10.3358 1.5 10.75V12.25C1.5 13.4926 2.50736 14.5 3.75 14.5H12.25C13.4926 14.5 14.5 13.4926 14.5 12.25V10.75C14.5 10.3358 14.8358 10 15.25 10C15.6642 10 16 10.3358 16 10.75V12.25C16 14.3211 14.3211 16 12.25 16H3.75C1.67893 16 0 14.3211 0 12.25V10.75C0 10.3358 0.335786 10 0.75 10Z" fill="white"/>
</svg>
