<svg width="90" height="18" viewBox="0 0 90 18" fill="none" xmlns="http://www.w3.org/2000/svg">
<path d="M8.52447 1.46353C8.67415 1.00287 9.32585 1.00287 9.47553 1.46353L10.9084 5.87336C10.9753 6.07937 11.1673 6.21885 11.3839 6.21885H16.0207C16.505 6.21885 16.7064 6.83865 16.3146 7.12336L12.5633 9.84878C12.3881 9.9761 12.3148 10.2018 12.3817 10.4078L13.8145 14.8176C13.9642 15.2783 13.437 15.6613 13.0451 15.3766L9.29389 12.6512C9.11865 12.5239 8.88135 12.5239 8.70611 12.6512L4.95488 15.3766C4.56303 15.6613 4.03578 15.2783 4.18546 14.8176L5.6183 10.4078C5.68524 10.2018 5.61191 9.9761 5.43667 9.84878L1.68544 7.12336C1.29358 6.83866 1.49497 6.21885 1.97933 6.21885H6.6161C6.83272 6.21885 7.02469 6.07937 7.09163 5.87336L8.52447 1.46353Z" fill="#EBBC16"/>
<path d="M26.5245 1.46353C26.6741 1.00287 27.3259 1.00287 27.4755 1.46353L28.9084 5.87336C28.9753 6.07937 29.1673 6.21885 29.3839 6.21885H34.0207C34.505 6.21885 34.7064 6.83865 34.3146 7.12336L30.5633 9.84878C30.3881 9.9761 30.3148 10.2018 30.3817 10.4078L31.8145 14.8176C31.9642 15.2783 31.437 15.6613 31.0451 15.3766L27.2939 12.6512C27.1186 12.5239 26.8814 12.5239 26.7061 12.6512L22.9549 15.3766C22.563 15.6613 22.0358 15.2783 22.1855 14.8176L23.6183 10.4078C23.6852 10.2018 23.6119 9.9761 23.4367 9.84878L19.6854 7.12336C19.2936 6.83866 19.495 6.21885 19.9793 6.21885H24.6161C24.8327 6.21885 25.0247 6.07937 25.0916 5.87336L26.5245 1.46353Z" fill="#EBBC16"/>
<path d="M44.5245 1.46353C44.6741 1.00287 45.3259 1.00287 45.4755 1.46353L46.9084 5.87336C46.9753 6.07937 47.1673 6.21885 47.3839 6.21885H52.0207C52.505 6.21885 52.7064 6.83865 52.3146 7.12336L48.5633 9.84878C48.3881 9.9761 48.3148 10.2018 48.3817 10.4078L49.8145 14.8176C49.9642 15.2783 49.437 15.6613 49.0451 15.3766L45.2939 12.6512C45.1186 12.5239 44.8814 12.5239 44.7061 12.6512L40.9549 15.3766C40.563 15.6613 40.0358 15.2783 40.1855 14.8176L41.6183 10.4078C41.6852 10.2018 41.6119 9.9761 41.4367 9.84878L37.6854 7.12336C37.2936 6.83866 37.495 6.21885 37.9793 6.21885H42.6161C42.8327 6.21885 43.0247 6.07937 43.0916 5.87336L44.5245 1.46353Z" fill="#EBBC16"/>
<path d="M62.5245 1.46353C62.6741 1.00287 63.3259 1.00287 63.4755 1.46353L64.9084 5.87336C64.9753 6.07937 65.1673 6.21885 65.3839 6.21885H70.0207C70.505 6.21885 70.7064 6.83865 70.3146 7.12336L66.5633 9.84878C66.3881 9.9761 66.3148 10.2018 66.3817 10.4078L67.8145 14.8176C67.9642 15.2783 67.437 15.6613 67.0451 15.3766L63.2939 12.6512C63.1186 12.5239 62.8814 12.5239 62.7061 12.6512L58.9549 15.3766C58.563 15.6613 58.0358 15.2783 58.1855 14.8176L59.6183 10.4078C59.6852 10.2018 59.6119 9.9761 59.4367 9.84878L55.6854 7.12336C55.2936 6.83866 55.495 6.21885 55.9793 6.21885H60.6161C60.8327 6.21885 61.0247 6.07937 61.0916 5.87336L62.5245 1.46353Z" fill="#EBBC16"/>
<path d="M80.5245 1.46353C80.6741 1.00287 81.3259 1.00287 81.4755 1.46353L82.9084 5.87336C82.9753 6.07937 83.1673 6.21885 83.3839 6.21885H88.0207C88.505 6.21885 88.7064 6.83865 88.3146 7.12336L84.5633 9.84878C84.3881 9.9761 84.3148 10.2018 84.3817 10.4078L85.8145 14.8176C85.9642 15.2783 85.437 15.6613 85.0451 15.3766L81.2939 12.6512C81.1186 12.5239 80.8814 12.5239 80.7061 12.6512L76.9549 15.3766C76.563 15.6613 76.0358 15.2783 76.1855 14.8176L77.6183 10.4078C77.6852 10.2018 77.6119 9.9761 77.4367 9.84878L73.6854 7.12336C73.2936 6.83866 73.495 6.21885 73.9793 6.21885H78.6161C78.8327 6.21885 79.0247 6.07937 79.0916 5.87336L80.5245 1.46353Z" fill="#EBBC16"/>
</svg>
