<svg width="195" height="36" viewBox="0 0 195 36" fill="none" xmlns="http://www.w3.org/2000/svg">
<path fill-rule="evenodd" clip-rule="evenodd" d="M72.056 20.0678L71.8987 20.0874V20.0481L69.2045 12.5202H66.9625L64.4453 20.0874L64.288 20.0678V20.0481L62.8917 12.5202H60.2958L62.9114 23.2519H65.4089L68.0638 15.3309L68.1032 15.4488L70.6991 23.2519H73.1573L75.9695 12.5202H73.2753L72.056 20.0678Z" fill="#000465"/>
<path d="M82.302 12.5202C80.7287 12.5202 79.2144 12.6578 77.7985 12.9526V27.2026H80.3944V22.6819L80.5124 22.7409C81.24 23.075 81.9873 23.2519 82.6953 23.2519C84.3866 23.2519 85.6649 22.7802 86.5105 21.8564C87.3561 20.9326 87.7888 19.4978 87.7888 17.6109C87.7888 15.9205 87.3365 14.6233 86.4318 13.7781C85.5075 12.9526 84.1309 12.5202 82.302 12.5202ZM82.6756 21.1291C81.8693 21.1291 81.122 20.9326 80.414 20.5591L80.3747 20.5395V14.7412L80.4337 14.7216C80.9647 14.6233 81.6137 14.584 82.4003 14.584C84.2686 14.584 85.2125 15.6061 85.2125 17.6109C85.2322 19.9498 84.3669 21.1291 82.6756 21.1291Z" fill="#000465"/>
<path d="M96.1665 8.56952H90.424V23.2519H96.1665C98.5854 23.2519 100.434 22.6033 101.634 21.3257C102.833 20.0481 103.463 18.0826 103.463 15.5078C103.463 13.2081 102.853 11.4588 101.653 10.2992C100.434 9.15917 98.5854 8.56952 96.1665 8.56952ZM96.1665 21.0309H93.0199V10.7905H96.1665C99.2933 10.7905 100.867 12.3826 100.867 15.5078C100.867 19.1833 99.2737 21.0309 96.1665 21.0309Z" fill="#000465"/>
<path d="M109.992 12.5202C108.831 12.5202 107.514 12.6971 106.098 13.0312V15.0361C107.514 14.7019 108.812 14.5447 109.992 14.5447C111.447 14.5447 112.175 15.0557 112.175 16.0974V17.0212L112.076 17.0016C111.349 16.864 110.601 16.7854 109.874 16.7854C106.786 16.7854 105.213 17.8467 105.213 19.9498C105.213 22.1512 106.53 23.2715 109.126 23.2715C110.247 23.2715 111.29 22.9571 112.214 22.3084L112.273 22.2691L112.312 22.3084L113.256 23.2519H114.731V16.0188C114.77 13.6995 113.158 12.5202 109.992 12.5202ZM112.175 20.5591L112.135 20.5788C111.349 21.1488 110.464 21.4436 109.539 21.4436C108.379 21.4436 107.789 20.9326 107.789 19.9105C107.789 18.9671 108.477 18.4757 109.854 18.4757C110.641 18.4757 111.388 18.5543 112.096 18.6919L112.155 18.7116V20.5591H112.175Z" fill="#000465"/>
<path fill-rule="evenodd" clip-rule="evenodd" d="M119.707 12.4809L119.294 10.7513H117.406V20.4019C117.406 22.3281 118.271 23.2519 120.061 23.2519H122.42V21.2275H121.378C120.454 21.2275 119.982 20.6771 119.982 19.6157V14.5251H122.42V12.5006H119.687L119.707 12.4809Z" fill="#000465"/>
<path d="M128.851 12.5202C127.691 12.5202 126.373 12.6971 124.957 13.0312V15.0361C126.373 14.7019 127.671 14.5447 128.851 14.5447C130.307 14.5447 131.034 15.0557 131.034 16.0974V17.0212L130.936 17.0016C130.208 16.864 129.461 16.7854 128.733 16.7854C125.646 16.7854 124.072 17.8467 124.072 19.9498C124.072 22.1512 125.39 23.2715 127.986 23.2715C129.107 23.2715 130.149 22.9571 131.073 22.3084L131.132 22.2691L131.172 22.3084L132.116 23.2519H133.591V16.0188C133.63 13.6995 132.037 12.5202 128.851 12.5202ZM131.054 20.5591L131.014 20.5788C130.228 21.1488 129.343 21.4436 128.419 21.4436C127.258 21.4436 126.668 20.9326 126.668 19.9105C126.668 18.9671 127.357 18.4757 128.733 18.4757C129.52 18.4757 130.287 18.5543 130.975 18.6919L131.034 18.7116V20.5591H131.054Z" fill="#000465"/>
<path fill-rule="evenodd" clip-rule="evenodd" d="M144.82 8.56952H133.709V10.7905H137.957V23.2519H140.552V10.7905H144.82V8.56952Z" fill="#000465"/>
<path d="M149.088 12.5202C147.927 12.5202 146.61 12.6971 145.194 13.0312V15.0361C146.61 14.7019 147.908 14.5447 149.088 14.5447C150.543 14.5447 151.27 15.0557 151.27 16.0974V17.0212L151.172 17.0016C150.444 16.864 149.697 16.7854 148.97 16.7854C145.882 16.7854 144.309 17.8467 144.309 19.9498C144.309 22.1512 145.626 23.2715 148.222 23.2715C149.343 23.2715 150.385 22.9571 151.31 22.3084L151.369 22.2691L151.408 22.3084L152.352 23.2519H153.827V16.0188C153.866 13.6995 152.254 12.5202 149.088 12.5202ZM151.27 20.5591L151.231 20.5788C150.444 21.1488 149.559 21.4436 148.635 21.4436C147.475 21.4436 146.885 20.9326 146.885 19.9105C146.885 18.9671 147.573 18.4757 148.95 18.4757C149.736 18.4757 150.484 18.5543 151.192 18.6919L151.251 18.7116V20.5591H151.27Z" fill="#000465"/>
<path d="M162.028 12.5202C161.044 12.5202 160.12 12.7954 159.314 13.3457L159.176 13.4243V8.56952H156.58V22.8195C158.272 23.1143 159.864 23.2519 161.32 23.2519C163.07 23.2519 164.388 22.7802 165.253 21.8564C166.118 20.9326 166.571 19.5174 166.571 17.6698C166.61 14.2498 165.056 12.5202 162.028 12.5202ZM161.477 21.2077C160.631 21.2077 159.904 21.1095 159.255 20.8933L159.196 20.8736V15.2326L159.235 15.2129C160.002 14.8395 160.867 14.6429 161.811 14.6429C163.286 14.6429 164.053 15.6454 164.053 17.6109C164.053 19.9891 163.168 21.2077 161.477 21.2077Z" fill="#000465"/>
<path d="M171.487 8.56952H168.891V23.2519H171.487V8.56952Z" fill="#000465"/>
<path d="M178.803 12.5202C175.46 12.5202 173.768 14.2892 173.768 17.7681C173.768 19.596 174.26 20.9719 175.224 21.8957C176.187 22.7998 177.662 23.2715 179.609 23.2715C180.946 23.2715 182.107 23.1733 183.031 22.9767V20.9719C181.969 21.1684 180.887 21.2667 179.806 21.2667C177.505 21.2667 176.345 20.4609 176.345 18.8688V18.7902H183.601C183.66 18.3774 183.68 17.945 183.68 17.5323C183.7 14.1909 182.048 12.5202 178.803 12.5202ZM181.182 17.0212H176.364V16.9229C176.502 15.3112 177.308 14.5054 178.822 14.5054C180.396 14.5054 181.182 15.2916 181.182 16.8443V17.0212Z" fill="#000465"/>
<path fill-rule="evenodd" clip-rule="evenodd" d="M190.996 16.8247H189.226C188.301 16.8247 187.849 16.4316 187.849 15.6454C187.849 14.8395 188.636 14.4268 190.17 14.4268C191.546 14.4268 192.844 14.6626 194.044 15.1147V13.0116C192.864 12.6185 191.586 12.4023 190.248 12.4023C187.082 12.4023 185.47 13.5226 185.47 15.7436C185.47 17.8861 186.531 18.9278 188.714 18.9278H190.681C191.527 18.9278 191.959 19.3209 191.959 20.1071C191.959 20.9129 191.33 21.3257 190.091 21.3257C188.557 21.3257 187.161 21.0898 185.981 20.6378V22.7409C187.161 23.134 188.518 23.3502 189.993 23.3502C193.021 23.3502 194.536 22.2298 194.536 20.0088C194.555 17.9057 193.356 16.8247 190.996 16.8247Z" fill="#000465"/>
<path fill-rule="evenodd" clip-rule="evenodd" d="M0.137663 8.9823V15.5274C0.137663 16.8247 1.19962 17.8861 2.49758 17.8861H9.04633V24.4312C9.04633 25.7284 10.1083 26.7898 11.4062 26.7898H17.955V8.9823H0.137663Z" fill="#008CFF"/>
<path fill-rule="evenodd" clip-rule="evenodd" d="M41.1018 0.0785522H12.6649C10.6786 0.0785522 9.066 1.69027 9.066 3.67544V8.98231H17.9747L26.8833 17.8861V8.98231H35.792V17.8861H26.8833L43.6584 34.6519C44.3074 34.0033 44.7204 33.0991 44.7204 32.0967V3.67544C44.7007 1.69027 43.0881 0.0785522 41.1018 0.0785522Z" fill="#5DD3FF"/>
<path fill-rule="evenodd" clip-rule="evenodd" d="M17.9747 32.0967C17.9747 34.0818 19.5873 35.6936 21.5735 35.6936H26.8833L17.9747 26.7898V32.0967Z" fill="#5DD3FF"/>
<path fill-rule="evenodd" clip-rule="evenodd" d="M17.9747 17.8861H26.8833L17.9747 8.9823V17.8861Z" fill="#00A5FF"/>
<path fill-rule="evenodd" clip-rule="evenodd" d="M26.8833 17.886V26.7898H17.9747L26.8833 35.6936H41.1018C42.1048 35.6936 42.9898 35.2808 43.6584 34.6322L26.8833 17.886Z" fill="#00A5FF"/>
</svg>
