<svg width="16" height="16" viewBox="0 0 16 16" fill="none" xmlns="http://www.w3.org/2000/svg">
<path d="M8.71604 7.27985H10.876C11.067 7.27985 11.2501 7.35571 11.3852 7.49074C11.5202 7.62576 11.596 7.8089 11.596 7.99985C11.596 8.19081 11.5202 8.37394 11.3852 8.50897C11.2501 8.644 11.067 8.71985 10.876 8.71985H7.99604C7.80508 8.71985 7.62195 8.644 7.48692 8.50897C7.35189 8.37394 7.27604 8.19081 7.27604 7.99985V5.11985C7.27604 4.9289 7.35189 4.74576 7.48692 4.61074C7.62195 4.47571 7.80508 4.39985 7.99604 4.39985C8.18699 4.39985 8.37013 4.47571 8.50515 4.61074C8.64018 4.74576 8.71604 4.9289 8.71604 5.11985V7.27985Z" fill="#265CF2"/>
<path fill-rule="evenodd" clip-rule="evenodd" d="M3.9997 2.01322C5.18373 1.22208 6.57578 0.799805 7.99981 0.799805C8.94532 0.799805 9.88158 0.986038 10.7551 1.34787C11.6287 1.70971 12.4224 2.24005 13.091 2.90864C13.7596 3.57722 14.2899 4.37094 14.6517 5.24448C15.0136 6.11803 15.1998 7.05429 15.1998 7.9998C15.1998 9.42383 14.7775 10.8159 13.9864 11.9999C13.1952 13.1839 12.0708 14.1068 10.7551 14.6517C9.4395 15.1967 7.99182 15.3393 6.59516 15.0615C5.19849 14.7836 3.91558 14.0979 2.90864 13.091C1.9017 12.084 1.21597 10.8011 0.938154 9.40445C0.66034 8.00779 0.802924 6.56011 1.34788 5.24448C1.89283 3.92885 2.81567 2.80437 3.9997 2.01322ZM4.79972 12.7891C5.74695 13.422 6.86059 13.7598 7.99981 13.7598C9.52745 13.7598 10.9925 13.1529 12.0727 12.0727C13.1529 10.9925 13.7598 9.52745 13.7598 7.9998C13.7598 6.86058 13.422 5.74695 12.7891 4.79972C12.1562 3.85249 11.2566 3.11422 10.2041 2.67826C9.15156 2.2423 7.99342 2.12823 6.87609 2.35048C5.75876 2.57273 4.73242 3.12132 3.92687 3.92687C3.12132 4.73242 2.57274 5.75875 2.35048 6.87608C2.12823 7.99341 2.2423 9.15156 2.67826 10.2041C3.11422 11.2566 3.8525 12.1561 4.79972 12.7891Z" fill="#265CF2"/>
</svg>
