<svg width="12" height="14" viewBox="0 0 12 14" fill="none" xmlns="http://www.w3.org/2000/svg">
<path fill-rule="evenodd" clip-rule="evenodd" d="M6 1.31253C3.50224 1.31253 1.28571 3.43763 1.28571 6.12515C1.28571 6.83372 1.5594 7.6022 2.02878 8.38805C2.49517 9.16888 3.12717 9.92073 3.776 10.5831C4.42265 11.2432 5.07179 11.8001 5.56041 12.1925C5.72892 12.3278 5.87773 12.4431 6 12.5358C6.12227 12.4431 6.27108 12.3278 6.43959 12.1925C6.92821 11.8001 7.57735 11.2432 8.224 10.5831C8.87283 9.92073 9.50483 9.16888 9.97122 8.38805C10.4406 7.6022 10.7143 6.83372 10.7143 6.12515C10.7143 3.43763 8.49776 1.31253 6 1.31253ZM6 13.3441C5.63851 13.8868 5.63838 13.8867 5.63823 13.8866L5.63662 13.8854L5.63279 13.8828L5.61942 13.8734C5.60801 13.8653 5.59167 13.8538 5.57071 13.8388C5.52881 13.8088 5.46843 13.765 5.39223 13.7086C5.23989 13.5957 5.02392 13.4317 4.76548 13.2241C4.24964 12.8099 3.55949 12.2183 2.86686 11.5112C2.1764 10.8063 1.46912 9.97221 0.931042 9.07136C0.395961 8.17553 0 7.16663 0 6.12515C0 2.68752 2.81712 0 6 0C9.18288 0 12 2.68752 12 6.12515C12 7.16663 11.604 8.17553 11.069 9.07136C10.5309 9.97221 9.8236 10.8063 9.13314 11.5112C8.44051 12.2183 7.75036 12.8099 7.23452 13.2241C6.97608 13.4317 6.76012 13.5957 6.60777 13.7086C6.53157 13.765 6.47119 13.8088 6.42929 13.8388C6.40833 13.8538 6.39199 13.8653 6.38058 13.8734L6.36721 13.8828L6.36338 13.8854L6.36219 13.8863C6.36203 13.8864 6.36149 13.8868 6 13.3441ZM6 13.3441L6.36219 13.8863C6.14403 14.0377 5.85639 14.038 5.63823 13.8866L6 13.3441ZM6 4.81262C5.28992 4.81262 4.71429 5.40026 4.71429 6.12515C4.71429 6.85004 5.28992 7.43768 6 7.43768C6.71008 7.43768 7.28571 6.85004 7.28571 6.12515C7.28571 5.40026 6.71008 4.81262 6 4.81262ZM3.42857 6.12515C3.42857 4.67537 4.57984 3.50009 6 3.50009C7.42016 3.50009 8.57143 4.67537 8.57143 6.12515C8.57143 7.57493 7.42016 8.75022 6 8.75022C4.57984 8.75022 3.42857 7.57493 3.42857 6.12515Z" fill="#265CF2"/>
</svg>
