<svg width="12" height="12" viewBox="0 0 12 12" fill="none" xmlns="http://www.w3.org/2000/svg">
<path fill-rule="evenodd" clip-rule="evenodd" d="M4.03778 1.125C3.20936 1.125 2.53778 1.79657 2.53778 2.625C2.53778 3.45343 3.20936 4.125 4.03778 4.125C4.86621 4.125 5.53778 3.45343 5.53778 2.625C5.53778 1.79657 4.86621 1.125 4.03778 1.125ZM1.41278 2.625C1.41278 1.17525 2.58804 0 4.03778 0C5.48753 0 6.66278 1.17525 6.66278 2.625C6.66278 4.07475 5.48753 5.25 4.03778 5.25C2.58804 5.25 1.41278 4.07475 1.41278 2.625ZM7.41278 0.5625C7.41278 0.25184 7.66462 0 7.97528 0C9.49356 0 10.4128 1.24853 10.4128 2.625C10.4128 4.00147 9.49356 5.25 7.97528 5.25C7.66462 5.25 7.41278 4.99816 7.41278 4.6875C7.41278 4.37684 7.66462 4.125 7.97528 4.125C8.73517 4.125 9.28778 3.52671 9.28778 2.625C9.28778 1.72329 8.73517 1.125 7.97528 1.125C7.66462 1.125 7.41278 0.87316 7.41278 0.5625ZM1.90608 9.01079C1.45952 9.56055 1.23599 10.253 1.12812 10.7835C1.12488 10.7994 1.1266 10.8079 1.1278 10.8121C1.12927 10.8173 1.13266 10.8248 1.14074 10.8338C1.1575 10.8524 1.19349 10.875 1.24905 10.875H6.82652C6.88207 10.875 6.91807 10.8524 6.93483 10.8338C6.94291 10.8248 6.9463 10.8173 6.94777 10.8121C6.94897 10.8079 6.95069 10.7994 6.94745 10.7835C6.83958 10.253 6.61605 9.56055 6.16949 9.01079C5.7415 8.48387 5.09104 8.0625 4.03778 8.0625C2.98453 8.0625 2.33407 8.48387 1.90608 9.01079ZM1.03285 8.30149C1.66025 7.52909 2.62378 6.9375 4.03778 6.9375C5.45179 6.9375 6.41532 7.52909 7.04272 8.30149C7.65156 9.05105 7.92484 9.94433 8.04989 10.5593C8.21614 11.3769 7.54816 12 6.82652 12H1.24905C0.527404 12 -0.14057 11.3769 0.0256807 10.5593C0.150728 9.94433 0.424007 9.05105 1.03285 8.30149ZM8.16278 7.5C8.16278 7.18934 8.41462 6.9375 8.72528 6.9375C9.73568 6.9375 10.4395 7.47318 10.9005 8.12619C11.3497 8.76254 11.5942 9.53924 11.7298 10.1501C11.9601 11.1872 11.1098 12 10.1704 12H9.47528C9.16462 12 8.91278 11.7482 8.91278 11.4375C8.91278 11.1268 9.16462 10.875 9.47528 10.875H10.1704C10.3341 10.875 10.4676 10.8067 10.5486 10.7158C10.6254 10.6295 10.6597 10.5204 10.6316 10.3939C10.5094 9.84364 10.3057 9.23436 9.98145 8.77499C9.66893 8.33228 9.27397 8.0625 8.72528 8.0625C8.41462 8.0625 8.16278 7.81066 8.16278 7.5Z" fill="#265CF2"/>
</svg>
