<svg class="n2-ss-item-ba-arrow" data-type="default" width="10" height="16" viewBox="0 0 10 16" fill="none" xmlns="http://www.w3.org/2000/svg">
    <path fill-rule="evenodd" clip-rule="evenodd" d="M9.70035 2.74313L4.43483 7.96757L9.70035 13.2521C9.90178 13.4546 10 13.6884 10 13.9567C10 14.2233 9.90178 14.4571 9.70035 14.6589L8.66489 15.6997C8.46512 15.8999 8.22957 16 7.96571 16C7.69935 16 7.46629 15.9007 7.26652 15.6989L0.302148 8.71701C0.102381 8.51684 0 8.28464 0 8.01241C0 7.74498 0.101548 7.50798 0.302148 7.30781L7.26652 0.301857C7.45797 0.100085 7.69103 0 7.95738 0C8.2279 0 8.46263 0.100886 8.66489 0.302657L9.69868 1.36436C9.90012 1.56613 9.99833 1.79673 9.99833 2.05615C9.99833 2.31237 9.90012 2.54456 9.69868 2.74473L9.70035 2.74313Z" fill="white"/>
</svg>