<?xml version="1.0" encoding="UTF-8"?>
<svg width="32px" height="32px" viewBox="0 0 32 32" version="1.1" xmlns="http://www.w3.org/2000/svg"
     xmlns:xlink="http://www.w3.org/1999/xlink">
    <!-- Generator: Sketch 47.1 (45422) - http://www.bohemiancoding.com/sketch -->
    <title>Orange2@svg</title>
    <desc>Created with Sketch.</desc>
    <defs></defs>
    <g id="Page-1" stroke="none" stroke-width="1" fill="none" fill-rule="evenodd">
        <g id="Orange2" fill-rule="nonzero" fill="#FD7E35">
            <g id="map-location-pin-geolocation-1" transform="translate(8.000000, 4.000000)">
                <path d="M14.72,12.53 C13.9614963,11.1176112 12.8394915,9.93346451 11.47,9.1 L11.06,5.93 C12.2769432,4.98830579 12.992511,3.53872759 13,2 C13,0.63 10.41,0 8,0 C5.59,0 3,0.63 3,2 C3.00748896,3.53872759 3.72305683,4.98830579 4.94,5.93 L4.53,9.09 C3.16050854,9.92346451 2.03850367,11.1076112 1.28,12.52 C0.96119589,13.1388381 0.907068868,13.8605317 1.13,14.52 C1.31176345,15.1081293 1.72265421,15.5983147 2.27,15.88 C3.78760507,16.5660078 5.42540464,16.9465754 7.09,17 L7.5,23.56 C7.5,23.8361424 7.72385763,24.06 8,24.06 C8.27614237,24.06 8.5,23.8361424 8.5,23.56 L8.91,17 C10.573212,16.952619 12.2109042,16.5788719 13.73,15.9 C14.2773458,15.6183147 14.6882366,15.1281293 14.87,14.54 C15.0957788,13.8775258 15.0416071,13.1516245 14.72,12.53 L14.72,12.53 Z"
                      id="Shape"></path>
            </g>
        </g>
    </g>
</svg>