<?xml version="1.0" encoding="UTF-8"?>
<svg width="32px" height="32px" viewBox="0 0 32 32" version="1.1" xmlns="http://www.w3.org/2000/svg"
     xmlns:xlink="http://www.w3.org/1999/xlink">
    <!-- Generator: Sketch 47.1 (45422) - http://www.bohemiancoding.com/sketch -->
    <title>red@svg</title>
    <desc>Created with Sketch.</desc>
    <defs></defs>
    <g id="Page-1" stroke="none" stroke-width="1" fill="none" fill-rule="evenodd">
        <g id="red" fill-rule="nonzero" fill="#FA3C52">
            <g id="map-location-pin-geolocation-area-position-2" transform="translate(5.000000, 4.000000)">
                <path d="M14.59,18.13 L17.34,15.39 C20.2339532,12.5177165 20.8353877,8.05870509 18.8058377,4.52233621 C16.7762878,0.985967322 12.6228449,-0.744182592 8.68291669,0.305552289 C4.74298845,1.35528717 2.00098223,4.92262622 2,9 C1.99270608,11.4007586 2.95130752,13.7035643 4.66,15.39 L7.41,18.13 C4.06,18.37 0,19.07 0,21 C0,23.78 8.42,24 11,24 C13.58,24 22,23.78 22,21 C22,19.07 17.94,18.37 14.59,18.13 Z M11,5 C13.209139,5 15,6.790861 15,9 C15,11.209139 13.209139,13 11,13 C8.790861,13 7,11.209139 7,9 C7,6.790861 8.790861,5 11,5 Z M11,22 C8.13219476,22.1034276 5.26549972,21.7661693 2.5,21 C4.71553237,20.3500563 7.01114111,20.0134568 9.32,20 L10.65,21.32 C10.7438833,21.4146563 10.8716812,21.4678992 11.005,21.4678992 C11.1383188,21.4678992 11.2661167,21.4146563 11.36,21.32 L12.68,20 C14.9888589,20.0134568 17.2844676,20.3500563 19.5,21 C16.7345003,21.7661693 13.8678052,22.1034276 11,22 L11,22 Z"
                      id="Shape"></path>
            </g>
        </g>
    </g>
</svg>