<svg width="152" height="152" viewBox="0 0 152 152" fill="none" xmlns="http://www.w3.org/2000/svg">
<path opacity="0.1" d="M152 76C152 117.974 117.974 152 76 152C34.0264 152 0 117.974 0 76C0 34.0264 34.0264 0 76 0C117.974 0 152 34.0264 152 76Z" fill="#1A84EE"/>
<rect x="43" y="49" width="66" height="25" fill="white"/>
<rect opacity="0.2" x="44" y="78" width="63" height="33" fill="#1A84EE"/>
<path d="M101 42.6667H96.8333V38.5C96.8333 37.3949 96.3943 36.3351 95.6129 35.5537C94.8315 34.7723 93.7717 34.3333 92.6667 34.3333C91.5616 34.3333 90.5018 34.7723 89.7204 35.5537C88.939 36.3351 88.5 37.3949 88.5 38.5V42.6667H63.5V38.5C63.5 37.3949 63.061 36.3351 62.2796 35.5537C61.4982 34.7723 60.4384 34.3333 59.3333 34.3333C58.2283 34.3333 57.1685 34.7723 56.3871 35.5537C55.6057 36.3351 55.1667 37.3949 55.1667 38.5V42.6667H51C47.6848 42.6667 44.5054 43.9836 42.1612 46.3278C39.817 48.672 38.5 51.8515 38.5 55.1667V105.167C38.5 108.482 39.817 111.661 42.1612 114.006C44.5054 116.35 47.6848 117.667 51 117.667H101C104.315 117.667 107.495 116.35 109.839 114.006C112.183 111.661 113.5 108.482 113.5 105.167V55.1667C113.5 51.8515 112.183 48.672 109.839 46.3278C107.495 43.9836 104.315 42.6667 101 42.6667ZM51 51H55.1667V55.1667C55.1667 56.2717 55.6057 57.3316 56.3871 58.113C57.1685 58.8944 58.2283 59.3333 59.3333 59.3333C60.4384 59.3333 61.4982 58.8944 62.2796 58.113C63.061 57.3316 63.5 56.2717 63.5 55.1667V51H88.5V55.1667C88.5 56.2717 88.939 57.3316 89.7204 58.113C90.5018 58.8944 91.5616 59.3333 92.6667 59.3333C93.7717 59.3333 94.8315 58.8944 95.6129 58.113C96.3943 57.3316 96.8333 56.2717 96.8333 55.1667V51H101C102.105 51 103.165 51.439 103.946 52.2204C104.728 53.0018 105.167 54.0616 105.167 55.1667V71.8333H46.8333V55.1667C46.8333 54.0616 47.2723 53.0018 48.0537 52.2204C48.8351 51.439 49.8949 51 51 51ZM101 109.333H51C49.8949 109.333 48.8351 108.894 48.0537 108.113C47.2723 107.332 46.8333 106.272 46.8333 105.167V80.1667H105.167V105.167C105.167 106.272 104.728 107.332 103.946 108.113C103.165 108.894 102.105 109.333 101 109.333Z" fill="#1A84EE"/>
<path d="M94.8333 90H78.1667C77.0616 90 76.0018 90.439 75.2204 91.2204C74.439 92.0018 74 93.0616 74 94.1667C74 95.2717 74.439 96.3315 75.2204 97.1129C76.0018 97.8943 77.0616 98.3333 78.1667 98.3333H94.8333C95.9384 98.3333 96.9982 97.8943 97.7796 97.1129C98.561 96.3315 99 95.2717 99 94.1667C99 93.0616 98.561 92.0018 97.7796 91.2204C96.9982 90.439 95.9384 90 94.8333 90Z" fill="#1A84EE"/>
<path d="M55 88L68 101M55 101L68 88" stroke="#DF2121" stroke-width="3" stroke-linecap="round"/>
</svg>
