<svg width="24" height="24" viewBox="0 0 24 24" fill="none" xmlns="http://www.w3.org/2000/svg">
<path d="M18.8441 23.0159C17.5433 24.2783 16.1081 24.0815 14.7401 23.4863C13.2857 22.8791 11.9561 22.8407 10.4201 23.4863C8.50726 24.3119 7.49206 24.0719 6.34006 23.0159C-0.163937 16.32 0.796063 6.11998 8.18806 5.73599C9.98086 5.83199 11.2361 6.72718 12.2921 6.80158C13.8617 6.48238 15.3641 5.56799 17.0441 5.68799C19.0625 5.85119 20.5721 6.64798 21.5801 8.08078C17.4281 10.5768 18.4121 16.0488 22.2257 17.5848C21.4625 19.5888 20.4833 21.5687 18.8417 23.0327L18.8441 23.0159ZM12.1481 5.66399C11.9537 2.68799 14.3657 0.239999 17.1401 0C17.5217 3.43199 14.0201 5.99999 12.1481 5.66399Z" fill="black"/>
</svg>
