<svg width="240" height="200" viewBox="0 0 240 200" fill="none" xmlns="http://www.w3.org/2000/svg">
<rect x="185.328" y="132" width="20" height="6" transform="rotate(46.1621 185.328 132)" fill="currentColor"/>
<path d="M14.3473 151.539C13.198 149.822 12.3722 147.871 11.9569 145.772L12.9379 145.577C12.7507 144.631 12.6523 143.652 12.6523 142.649V139.156H11.6523V132.171H12.6523V125.187H11.6523V118.202H12.6523V111.217H11.6523V104.232H12.6523V97.2466H11.6523V90.2617H12.6523V83.2767H11.6523V76.2917H12.6523V69.3068H11.6523V62.3218H12.6523V55.3368H11.6523V48.3519H12.6523V44.8594C12.6523 43.8563 12.7507 42.8772 12.9379 41.9308L11.9569 41.7368C12.3722 39.6377 13.198 37.6862 14.3473 35.9695L15.1783 36.5258C16.2737 34.8896 17.6826 33.4807 19.3188 32.3853L18.7625 31.5543C20.4792 30.405 22.4306 29.5792 24.5298 29.1639L24.7238 30.1449C25.6702 29.9577 26.6493 29.8594 27.6523 29.8594H30.592V28.8594H36.4712V29.8594H42.3504V28.8594H48.2297V29.8594H54.1089V28.8594H59.9881V29.8594H62.9277H66.3534V28.8594H73.2048V29.8594H76.6305C77.5566 29.8594 78.4745 29.9451 79.3734 30.1123L79.5563 29.1291C81.4901 29.4888 83.3415 30.2023 85.0166 31.2332L84.4925 32.0848C85.2712 32.564 86.0092 33.1164 86.6959 33.7379L89.3925 36.1785L90.0635 35.4371L95.4567 40.3182L94.7857 41.0596L100.179 45.9407L100.85 45.1992L106.243 50.0803L105.572 50.8218L108.269 53.2623C109.05 53.9695 109.748 54.7506 110.355 55.5902L111.166 55.004C112.476 56.8146 113.392 58.8808 113.856 61.0672L112.877 61.2745C113.092 62.2884 113.203 63.3299 113.203 64.3838V67.3051H114.203V73.1477H113.203V78.9903H114.203V84.8329H113.203V87.7542V91.1851H114.203V98.0469H113.203V104.909H114.203V111.771H113.203V118.632H114.203V125.494H113.203V132.356H114.203V139.218H113.203V142.649C113.203 143.652 113.105 144.631 112.918 145.577L113.899 145.772C113.483 147.871 112.657 149.822 111.508 151.539L110.677 150.982C109.582 152.619 108.173 154.028 106.537 155.123L107.093 155.954C105.376 157.103 103.425 157.929 101.326 158.344L101.132 157.363C100.185 157.551 99.2062 157.649 98.2031 157.649H94.6756V158.649H87.6205V157.649H80.5654V158.649H73.5103V157.649H66.4553V158.649H59.4002V157.649H52.3451V158.649H45.29V157.649H38.235V158.649H31.1799V157.649H27.6523C26.6493 157.649 25.6702 157.551 24.7238 157.363L24.5298 158.344C22.4306 157.929 20.4792 157.103 18.7625 155.954L19.3188 155.123C17.6826 154.028 16.2737 152.619 15.1783 150.982L14.3473 151.539Z" stroke="currentColor" stroke-width="2" stroke-dasharray="7 7"/>
<path d="M195.744 161.269C189.15 154.676 189.15 143.985 195.744 137.391C196.843 136.292 198.625 136.292 199.724 137.391L232.993 170.659C236.839 174.506 236.839 180.742 232.993 184.589C229.146 188.435 222.91 188.435 219.063 184.589L195.744 161.269Z" fill="currentColor"/>
<circle cx="149.051" cy="100.646" r="46" transform="rotate(-45 149.051 100.646)" stroke="currentColor" stroke-width="8"/>
</svg>
