<svg width="14" height="10" viewBox="0 0 14 10" fill="none" xmlns="http://www.w3.org/2000/svg">
<path fill-rule="evenodd" clip-rule="evenodd" d="M11.6663 8.57143C12.0345 8.57143 12.333 8.25163 12.333 7.85714V2.14286C12.333 1.74837 12.0345 1.42857 11.6663 1.42857L2.33301 1.42857C1.96482 1.42857 1.66634 1.74837 1.66634 2.14286L1.66634 2.85714C2.77091 2.85714 3.66634 3.81653 3.66634 5C3.66634 6.18347 2.77091 7.14286 1.66634 7.14286L1.66634 7.85714C1.66634 8.25163 1.96482 8.57143 2.33301 8.57143L11.6663 8.57143ZM0.333008 7.85714C0.333008 9.04061 1.22844 10 2.33301 10L11.6663 10C12.7709 10 13.6663 9.04061 13.6663 7.85714V2.14286C13.6663 0.95939 12.7709 9.12511e-07 11.6663 8.15946e-07L2.33301 0C1.22844 -9.65645e-08 0.333008 0.95939 0.333008 2.14286L0.333008 4.28571H1.66634C2.03453 4.28571 2.33301 4.60551 2.33301 5C2.33301 5.39449 2.03453 5.71429 1.66634 5.71429H0.333008L0.333008 7.85714Z" fill="#1A2C37"/>
<path d="M9.08301 6.66667C9.08301 6.20643 9.4561 5.83333 9.91634 5.83333C10.3766 5.83333 10.7497 6.20643 10.7497 6.66667C10.7497 7.1269 10.3766 7.5 9.91634 7.5C9.4561 7.5 9.08301 7.1269 9.08301 6.66667Z" fill="#1A2C37"/>
<path d="M5.74968 3.33333C5.74968 2.8731 6.12277 2.5 6.58301 2.5C7.04325 2.5 7.41634 2.8731 7.41634 3.33333C7.41634 3.79357 7.04325 4.16667 6.58301 4.16667C6.12277 4.16667 5.74968 3.79357 5.74968 3.33333Z" fill="#1A2C37"/>
<path fill-rule="evenodd" clip-rule="evenodd" d="M5.84179 7.36415C5.66079 7.18316 5.66079 6.88971 5.84179 6.70872L9.88321 2.6673C10.0642 2.48631 10.3576 2.48631 10.5386 2.6673C10.7196 2.84829 10.7196 3.14174 10.5386 3.32273L6.49722 7.36415C6.31623 7.54514 6.02278 7.54514 5.84179 7.36415Z" fill="#1A2C37"/>
</svg>
