<svg width="24" height="24" viewBox="0 0 24 24" fill="none" xmlns="http://www.w3.org/2000/svg">
<path fill-rule="evenodd" clip-rule="evenodd" d="M23.52 12.2729C23.52 11.422 23.4436 10.6038 23.3018 9.81836H12V14.4602H18.4582C18.18 15.9602 17.3345 17.2311 16.0636 18.082V21.0929H19.9418C22.2109 19.0038 23.52 15.9274 23.52 12.2729Z" fill="#4285F4"/>
<path fill-rule="evenodd" clip-rule="evenodd" d="M11.999 24.0003C15.239 24.0003 17.9554 22.9257 19.9408 21.093L16.0627 18.0821C14.9881 18.8021 13.6136 19.2275 11.999 19.2275C8.87357 19.2275 6.22812 17.1166 5.28448 14.2803H1.27539V17.3894C3.24994 21.3112 7.30812 24.0003 11.999 24.0003Z" fill="#34A853"/>
<path fill-rule="evenodd" clip-rule="evenodd" d="M5.28545 14.2804C5.04545 13.5604 4.90909 12.7913 4.90909 12.0004C4.90909 11.2095 5.04545 10.4404 5.28545 9.72042V6.61133H1.27636C0.463636 8.23133 0 10.0641 0 12.0004C0 13.9368 0.463636 15.7695 1.27636 17.3895L5.28545 14.2804Z" fill="#FBBC05"/>
<path fill-rule="evenodd" clip-rule="evenodd" d="M11.999 4.77273C13.7608 4.77273 15.3427 5.37818 16.5863 6.56727L20.0281 3.12545C17.9499 1.18909 15.2336 0 11.999 0C7.30812 0 3.24994 2.68909 1.27539 6.61091L5.28448 9.72C6.22812 6.88364 8.87357 4.77273 11.999 4.77273Z" fill="#EA4335"/>
</svg>
