<svg width="18" height="18" viewBox="0 0 18 18" fill="none" xmlns="http://www.w3.org/2000/svg">
<path d="M9.00033 0.666504C7.35215 0.666504 5.74099 1.15525 4.37058 2.07092C3.00017 2.9866 1.93206 4.28809 1.30133 5.81081C0.670603 7.33353 0.505575 9.00908 0.827119 10.6256C1.14866 12.2421 1.94234 13.727 3.10777 14.8924C4.27321 16.0578 5.75807 16.8515 7.37458 17.173C8.99109 17.4946 10.6666 17.3296 12.1894 16.6988C13.7121 16.0681 15.0136 15 15.9292 13.6296C16.8449 12.2592 17.3337 10.648 17.3337 8.99984C17.3337 7.90549 17.1181 6.82186 16.6993 5.81081C16.2805 4.79976 15.6667 3.8811 14.8929 3.10728C14.1191 2.33346 13.2004 1.71963 12.1894 1.30084C11.1783 0.882052 10.0947 0.666504 9.00033 0.666504ZM9.83366 12.3332C9.83366 12.5542 9.74586 12.7661 9.58958 12.9224C9.4333 13.0787 9.22134 13.1665 9.00033 13.1665C8.77932 13.1665 8.56735 13.0787 8.41107 12.9224C8.25479 12.7661 8.167 12.5542 8.167 12.3332V8.1665C8.167 7.94549 8.25479 7.73353 8.41107 7.57725C8.56735 7.42097 8.77932 7.33317 9.00033 7.33317C9.22134 7.33317 9.4333 7.42097 9.58958 7.57725C9.74586 7.73353 9.83366 7.94549 9.83366 8.1665V12.3332ZM9.00033 6.49984C8.83551 6.49984 8.67439 6.45096 8.53735 6.3594C8.40031 6.26783 8.2935 6.13768 8.23043 5.98541C8.16736 5.83314 8.15085 5.66558 8.18301 5.50393C8.21516 5.34228 8.29453 5.19379 8.41107 5.07725C8.52762 4.9607 8.6761 4.88134 8.83775 4.84918C8.9994 4.81703 9.16696 4.83353 9.31923 4.8966C9.4715 4.95968 9.60165 5.06649 9.69322 5.20353C9.78479 5.34057 9.83366 5.50169 9.83366 5.6665C9.83366 5.88752 9.74586 6.09948 9.58958 6.25576C9.4333 6.41204 9.22134 6.49984 9.00033 6.49984Z" fill="#DC180B"/>
</svg>
