<svg width="25" height="28" viewBox="0 0 25 28" fill="none" xmlns="http://www.w3.org/2000/svg">
<circle cx="12.333" cy="12" r="10" fill="#EAEFFE"/>
<path d="M11.333 25.5L6.33301 18.5L19.833 17.5L13.833 25.5H11.333Z" fill="#EAEFFE"/>
<path fill-rule="evenodd" clip-rule="evenodd" d="M12.333 3.03131C7.33749 3.03131 2.90444 7.12972 2.90444 12.3128C2.90444 13.6793 3.4518 15.1614 4.39057 16.677C5.32335 18.1828 6.58735 19.6328 7.885 20.9103C9.17832 22.1834 10.4766 23.2574 11.4538 24.0142C11.7909 24.2751 12.0885 24.4974 12.333 24.6762C12.5775 24.4974 12.8752 24.2751 13.2122 24.0142C14.1894 23.2574 15.4877 22.1834 16.781 20.9103C18.0787 19.6328 19.3427 18.1828 20.2754 16.677C21.2142 15.1614 21.7616 13.6793 21.7616 12.3128C21.7616 7.12972 17.3285 3.03131 12.333 3.03131ZM12.333 26.235C11.61 27.2816 11.6098 27.2814 11.6095 27.2812L11.6063 27.2791L11.5986 27.2739L11.5719 27.2558C11.549 27.2403 11.5163 27.218 11.4744 27.189C11.3906 27.1312 11.2699 27.0469 11.1175 26.938C10.8128 26.7203 10.3808 26.4039 9.86396 26.0037C8.83229 25.2047 7.45198 24.0638 6.06673 22.7002C4.68581 21.3408 3.27124 19.7321 2.19509 17.9948C1.12493 16.2671 0.333008 14.3213 0.333008 12.3128C0.333008 5.68307 5.96724 0.5 12.333 0.5C18.6988 0.5 24.333 5.68307 24.333 12.3128C24.333 14.3213 23.5411 16.2671 22.4709 17.9948C21.3948 19.7321 19.9802 21.3408 18.5993 22.7002C17.214 24.0638 15.8337 25.2047 14.8021 26.0037C14.2852 26.4039 13.8532 26.7203 13.5485 26.938C13.3961 27.0469 13.2754 27.1312 13.1916 27.189C13.1497 27.218 13.117 27.2403 13.0942 27.2558L13.0674 27.2739L13.0598 27.2791L13.0574 27.2807C13.0571 27.2809 13.056 27.2816 12.333 26.235ZM12.333 26.235L13.0574 27.2807C12.6211 27.5727 12.0458 27.5733 11.6095 27.2812L12.333 26.235ZM12.333 9.78148C10.9128 9.78148 9.76158 10.9148 9.76158 12.3128C9.76158 13.7108 10.9128 14.8441 12.333 14.8441C13.7532 14.8441 14.9044 13.7108 14.9044 12.3128C14.9044 10.9148 13.7532 9.78148 12.333 9.78148ZM7.19015 12.3128C7.19015 9.51678 9.49269 7.25017 12.333 7.25017C15.1733 7.25017 17.4759 9.51678 17.4759 12.3128C17.4759 15.1088 15.1733 17.3754 12.333 17.3754C9.49269 17.3754 7.19015 15.1088 7.19015 12.3128Z" fill="#265CF2"/>
</svg>
