<svg width="24" height="24" viewBox="0 0 24 24" fill="none" xmlns="http://www.w3.org/2000/svg">
<path d="M14.7812 5.7207V10.0759L16.3032 11.0342C16.3434 11.046 16.4303 11.0468 16.4705 11.0342L23.0208 6.618C23.0208 6.09534 22.5333 5.7207 22.2582 5.7207H14.7812Z" fill="#0071C5"/>
<path d="M14.7821 11.7004L16.1711 12.6545C16.3668 12.7984 16.6026 12.6545 16.6026 12.6545C16.3676 12.7984 23.0225 8.37793 23.0225 8.37793V16.3825C23.0225 17.2539 22.4647 17.6193 21.8375 17.6193H14.7812V11.7004H14.7821Z" fill="#0071C5"/>
<path d="M7.59003 9.69238C7.11672 9.69238 6.73957 9.91482 6.46109 10.3589C6.18262 10.8029 6.04297 11.3908 6.04297 12.1225C6.04297 12.8651 6.18262 13.4522 6.46109 13.8837C6.73957 14.316 7.10501 14.5309 7.55658 14.5309C8.02238 14.5309 8.392 14.321 8.66462 13.9012C8.93723 13.4814 9.07438 12.8986 9.07438 12.1535C9.07438 11.3766 8.94225 10.772 8.67716 10.3396C8.41207 9.90814 8.04997 9.69238 7.59003 9.69238Z" fill="#0071C5"/>
<path d="M1 3.50876V20.5474L13.9619 23.2652V1L1 3.50876ZM9.6736 14.9085C9.12586 15.6294 8.4117 15.9907 7.53029 15.9907C6.67146 15.9907 5.97235 15.6411 5.4313 14.9428C4.89108 14.2437 4.62013 13.3339 4.62013 12.2116C4.62013 11.0267 4.89443 10.0683 5.44384 9.33659C5.99326 8.60487 6.7208 8.2386 7.62646 8.2386C8.48195 8.2386 9.17436 8.58815 9.70204 9.28893C10.2305 9.98971 10.4948 10.9129 10.4948 12.0594C10.4956 13.2377 10.2214 14.1877 9.6736 14.9085Z" fill="#0071C5"/>
</svg>
