<svg width="24" height="24" viewBox="0 0 24 24" fill="none" xmlns="http://www.w3.org/2000/svg">
<path d="M14.7812 5.72119V10.0764L16.3032 11.0347C16.3434 11.0464 16.4303 11.0473 16.4705 11.0347L23.0208 6.61849C23.0208 6.09583 22.5333 5.72119 22.2582 5.72119H14.7812Z" fill="white"/>
<path d="M14.7811 11.7008L16.1701 12.655C16.3658 12.7988 16.6016 12.655 16.6016 12.655C16.3666 12.7988 23.0215 8.37842 23.0215 8.37842V16.383C23.0215 17.2544 22.4638 17.6198 21.8366 17.6198H14.7803V11.7008H14.7811Z" fill="white"/>
<path d="M7.58906 9.69287C7.11574 9.69287 6.73859 9.91531 6.46012 10.3594C6.18165 10.8034 6.04199 11.3913 6.04199 12.123C6.04199 12.8656 6.18165 13.4527 6.46012 13.8842C6.73859 14.3165 7.10403 14.5314 7.55561 14.5314C8.0214 14.5314 8.39102 14.3215 8.66364 13.9017C8.93626 13.4819 9.0734 12.8991 9.0734 12.154C9.0734 11.3771 8.94128 10.7725 8.67618 10.3401C8.41109 9.90862 8.049 9.69287 7.58906 9.69287Z" fill="white"/>
<path d="M1 3.50876V20.5474L13.9619 23.2652V1L1 3.50876ZM9.6736 14.9085C9.12586 15.6294 8.4117 15.9907 7.53029 15.9907C6.67146 15.9907 5.97235 15.6411 5.4313 14.9428C4.89108 14.2437 4.62013 13.3339 4.62013 12.2116C4.62013 11.0267 4.89443 10.0683 5.44384 9.33659C5.99326 8.60487 6.7208 8.2386 7.62646 8.2386C8.48195 8.2386 9.17436 8.58815 9.70204 9.28893C10.2305 9.98971 10.4948 10.9129 10.4948 12.0594C10.4956 13.2377 10.2214 14.1877 9.6736 14.9085Z" fill="white"/>
</svg>
