<svg width="24" height="24" viewBox="0 0 24 24" fill="none" xmlns="http://www.w3.org/2000/svg">
<path d="M8.64214 13.5586C8.4963 14.3086 7.91713 17.8047 7.7463 18.793C7.7338 18.8633 7.70463 18.8906 7.6213 18.8906H4.51297C4.1963 18.8906 3.96713 18.6328 4.0088 18.3477L6.45047 3.82032C6.51297 3.44532 6.8713 3.16016 7.2838 3.16016C13.6296 3.16016 14.163 3.01563 15.7838 3.60548C18.288 4.51563 18.5171 6.71095 17.6171 9.08595C16.7213 11.5313 14.5963 12.582 11.7796 12.6133C9.9713 12.6406 8.8838 12.3399 8.64214 13.5586Z" fill="#102D88"/>
<path d="M18.754 7.98834C18.7748 7.86724 18.804 7.88677 18.879 7.93756C20.0623 8.76568 20.1415 10.1954 19.8706 11.5547C19.1831 14.8165 16.8748 15.9415 13.9165 15.9415C13.2915 15.9415 12.8873 15.8516 12.6956 16.711C12.0498 20.5157 12.1248 20.0665 12.0956 20.2774C12.0248 20.6133 11.729 20.8594 11.3706 20.8594H8.72479C8.42895 20.8594 8.24145 20.6329 8.28312 20.3555C8.28312 20.3555 8.47062 19.211 9.41229 13.7266C9.44562 13.4883 9.61229 13.3594 9.86645 13.3594C12.1165 13.3594 16.7248 13.7461 18.3873 9.30084C18.5415 8.86724 18.6706 8.43365 18.754 7.98834Z" fill="#3497DD"/>
</svg>
