<?xml version="1.0" standalone="no"?>
<!DOCTYPE svg PUBLIC "-//W3C//DTD SVG 20010904//EN"
 "http://www.w3.org/TR/2001/REC-SVG-20010904/DTD/svg10.dtd">
<svg version="1.0" xmlns="http://www.w3.org/2000/svg"
 width="512.000000pt" height="512.000000pt" viewBox="0 0 512.000000 512.000000"
 preserveAspectRatio="xMidYMid meet">

<g transform="translate(0.000000,512.000000) scale(0.100000,-0.100000)"
fill="#000000" stroke="none">
<path d="M1173 4469 c-231 -39 -427 -212 -505 -444 l-23 -70 -3 -1360 c-3
-1529 -7 -1447 71 -1605 81 -166 250 -297 432 -335 105 -22 2725 -22 2830 0
182 38 352 170 434 335 75 154 72 67 69 1603 l-3 1372 -27 73 c-73 200 -217
344 -411 409 l-82 28 -1365 1 c-751 1 -1388 -2 -1417 -7z m2537 -650 c60 -27
79 -45 106 -104 l24 -50 0 -1108 c0 -1213 3 -1145 -58 -1211 -15 -16 -45 -37
-67 -47 -38 -18 -91 -19 -1154 -19 -1110 0 -1115 0 -1158 21 -53 26 -97 78
-112 133 -9 30 -11 344 -9 1147 l3 1106 30 48 c22 36 45 57 84 77 l53 28 1107
0 c1090 0 1107 -1 1151 -21z"/>
<path d="M1978 3184 c-59 -31 -58 -22 -58 -624 0 -469 2 -555 15 -580 32 -63
4 -60 628 -60 l569 0 34 34 34 34 0 561 c0 616 1 604 -60 636 -43 22 -1121 22
-1162 -1z"/>
</g>
</svg>
