<svg width="18" height="18" viewBox="0 0 18 18" fill="none" xmlns="http://www.w3.org/2000/svg">
<path fill-rule="evenodd" clip-rule="evenodd" d="M4.04018 0H13.9598C16.1912 0 18 1.80885 18 4.04018V13.9598C18 16.1912 16.1912 18 13.9598 18H4.04018C1.80885 18 0 16.1912 0 13.9598V4.04018C0 1.80885 1.80885 0 4.04018 0ZM9.22134 6.35958C8.64773 6.35958 8.29235 6.55286 8.29235 6.98307C8.29235 7.45048 8.89728 7.65514 9.64571 7.90836C10.864 8.32055 12.4626 8.86139 12.451 10.8736C12.451 12.8688 10.8798 13.991 8.60409 13.991C7.57458 13.988 6.55641 13.7759 5.61136 13.3676V10.7551C6.53882 11.2828 7.57607 11.588 8.6415 11.6467C9.24628 11.6467 9.68895 11.4846 9.68895 10.9796C9.68895 10.4603 9.03377 10.2244 8.24313 9.93983C7.04035 9.50685 5.52407 8.96101 5.52407 7.1327C5.52407 5.17496 7.00797 4.01528 9.22757 4.01528C10.1573 4.00526 11.0803 4.17461 11.946 4.51407V7.06412C11.1046 6.62133 10.1719 6.38014 9.22134 6.35958Z" fill="#6772E5"/>
</svg>
