<svg width="25" height="24" viewBox="0 0 25 24" fill="none" xmlns="http://www.w3.org/2000/svg">
<g clip-path="url(#clip0_2463_9202)">
<rect x="2.66699" y="3" width="20" height="18" fill="#EAEFFE"/>
<rect x="2.66699" y="3" width="20" height="6" fill="white"/>
<path fill-rule="evenodd" clip-rule="evenodd" d="M0.666992 5.625C0.666992 3.34683 2.51382 1.5 4.79199 1.5H20.542C22.8202 1.5 24.667 3.34683 24.667 5.625V18.375C24.667 20.6532 22.8202 22.5 20.542 22.5H4.79199C2.51382 22.5 0.666992 20.6532 0.666992 18.375V5.625ZM4.79199 3.75C3.75646 3.75 2.91699 4.58947 2.91699 5.625V8.25H22.417V5.625C22.417 4.58947 21.5775 3.75 20.542 3.75H4.79199ZM22.417 10.5H2.91699V18.375C2.91699 19.4105 3.75646 20.25 4.79199 20.25H20.542C21.5775 20.25 22.417 19.4105 22.417 18.375V10.5ZM5.16699 15.375C5.16699 14.7537 5.67067 14.25 6.29199 14.25H10.042C10.6633 14.25 11.167 14.7537 11.167 15.375C11.167 15.9963 10.6633 16.5 10.042 16.5H6.29199C5.67067 16.5 5.16699 15.9963 5.16699 15.375ZM17.167 15.375C17.167 14.7537 17.6707 14.25 18.292 14.25H19.042C19.6633 14.25 20.167 14.7537 20.167 15.375C20.167 15.9963 19.6633 16.5 19.042 16.5H18.292C17.6707 16.5 17.167 15.9963 17.167 15.375Z" fill="#265CF2"/>
</g>
<defs>
<clipPath id="clip0_2463_9202">
<rect width="24" height="24" fill="white" transform="translate(0.666992)"/>
</clipPath>
</defs>
</svg>
