<svg width="58" height="17" viewBox="0 0 58 17" fill="none" xmlns="http://www.w3.org/2000/svg">
<path d="M0 4.13818H3.45062L5.45987 9.57113L7.4952 4.13818H10.8549L5.79592 16.9997H2.41488L3.79971 13.5916L0 4.13818Z" fill="white"/>
<path d="M14.3556 3.92188C11.763 3.92188 10.124 6.37934 10.124 8.82658C10.124 11.5805 11.921 13.7638 14.3064 13.7638C16.0859 13.7638 16.7568 12.6179 16.7568 12.6179V13.5105H19.7665V4.13821H16.7568V4.99024C16.7568 4.99024 16.0083 3.92188 14.3556 3.92188ZM14.9958 6.93377C16.192 6.93377 16.8093 7.93419 16.8093 8.83688C16.8093 9.80892 16.148 10.7628 14.9958 10.7628C14.0408 10.7628 13.1779 9.93803 13.1779 8.87825C13.1779 7.80348 13.872 6.93377 14.9958 6.93377Z" fill="white"/>
<path d="M20.8018 13.5107V0H23.9496V5.02296C23.9496 5.02296 24.6973 3.9233 26.2633 3.9233C28.1787 3.9233 29.301 5.43169 29.301 7.58711V13.5107H26.1762V8.39857C26.1762 7.66912 25.8474 6.96446 25.1027 6.96446C24.3447 6.96446 23.9496 7.6798 23.9496 8.39857V13.5107H20.8018Z" fill="white"/>
<path d="M34.6666 3.92334C31.6976 3.92334 29.9297 6.30945 29.9297 8.86593C29.9297 11.7753 32.0702 13.7641 34.6779 13.7641C37.2053 13.7641 39.4169 11.8655 39.4169 8.91474C39.4169 5.68606 37.1013 3.92334 34.6666 3.92334ZM34.695 6.96171C35.7437 6.96171 36.4694 7.88491 36.4694 8.86941C36.4694 9.70912 35.7932 10.7448 34.695 10.7448C33.6887 10.7448 32.9335 9.89165 32.9335 8.86023C32.9335 7.86663 33.5613 6.96171 34.695 6.96171Z" fill="white"/>
<path d="M44.6637 3.92334C41.6947 3.92334 39.9268 6.30945 39.9268 8.86593C39.9268 11.7753 42.0673 13.7641 44.6749 13.7641C47.2024 13.7641 49.414 11.8655 49.414 8.91474C49.414 5.68606 47.0984 3.92334 44.6637 3.92334ZM44.692 6.96171C45.7408 6.96171 46.4665 7.88491 46.4665 8.86941C46.4665 9.70912 45.7903 10.7448 44.692 10.7448C43.6857 10.7448 42.9305 9.89165 42.9305 8.86023C42.9305 7.86663 43.5584 6.96171 44.692 6.96171Z" fill="white"/>
<path d="M51.896 13.7095C53.0504 13.7095 53.9862 12.7204 53.9862 11.5002C53.9862 10.2801 53.0504 9.29102 51.896 9.29102C50.7415 9.29102 49.8057 10.2801 49.8057 11.5002C49.8057 12.7204 50.7415 13.7095 51.896 13.7095Z" fill="white"/>
<path d="M54.6742 8.47971H50.9111L54.2509 0H58L54.6742 8.47971Z" fill="white"/>
</svg>
