<svg width="58" height="17" viewBox="0 0 58 17" fill="none" xmlns="http://www.w3.org/2000/svg">
<path d="M0 4.13867H3.45062L5.45987 9.57162L7.4952 4.13867H10.8549L5.79592 17.0002H2.41488L3.79971 13.5921L0 4.13867Z" fill="#5F01D1"/>
<path d="M14.3566 3.92188C11.764 3.92188 10.125 6.37934 10.125 8.82658C10.125 11.5805 11.9219 13.7638 14.3074 13.7638C16.0869 13.7638 16.7578 12.6179 16.7578 12.6179V13.5105H19.7674V4.13821H16.7578V4.99024C16.7578 4.99024 16.0093 3.92188 14.3566 3.92188ZM14.9967 6.93377C16.193 6.93377 16.8103 7.93419 16.8103 8.83688C16.8103 9.80892 16.149 10.7628 14.9967 10.7628C14.0418 10.7628 13.1788 9.93803 13.1788 8.87825C13.1788 7.80348 13.873 6.93377 14.9967 6.93377Z" fill="#5F01D1"/>
<path d="M20.8008 13.5107V0H23.9486V5.02296C23.9486 5.02296 24.6963 3.9233 26.2623 3.9233C28.1777 3.9233 29.3 5.43169 29.3 7.58711V13.5107H26.1752V8.39857C26.1752 7.66912 25.8464 6.96446 25.1017 6.96446C24.3437 6.96446 23.9486 7.6798 23.9486 8.39857V13.5107H20.8008Z" fill="#5F01D1"/>
<path d="M34.6666 3.92285C31.6976 3.92285 29.9297 6.30896 29.9297 8.86544C29.9297 11.7748 32.0702 13.7637 34.6779 13.7637C37.2053 13.7637 39.4169 11.865 39.4169 8.91425C39.4169 5.68558 37.1013 3.92285 34.6666 3.92285ZM34.695 6.96122C35.7437 6.96122 36.4694 7.88443 36.4694 8.86893C36.4694 9.70863 35.7932 10.7443 34.695 10.7443C33.6887 10.7443 32.9335 9.89116 32.9335 8.85974C32.9335 7.86614 33.5613 6.96122 34.695 6.96122Z" fill="#5F01D1"/>
<path d="M44.6647 3.92285C41.6956 3.92285 39.9277 6.30896 39.9277 8.86544C39.9277 11.7748 42.0683 13.7637 44.6759 13.7637C47.2034 13.7637 49.4149 11.865 49.4149 8.91425C49.4149 5.68558 47.0993 3.92285 44.6647 3.92285ZM44.693 6.96122C45.7418 6.96122 46.4674 7.88443 46.4674 8.86893C46.4674 9.70863 45.7913 10.7443 44.693 10.7443C43.6867 10.7443 42.9315 9.89116 42.9315 8.85974C42.9315 7.86614 43.5594 6.96122 44.693 6.96122Z" fill="#5F01D1"/>
<path d="M51.8969 13.7095C53.0514 13.7095 53.9872 12.7204 53.9872 11.5002C53.9872 10.2801 53.0514 9.29102 51.8969 9.29102C50.7425 9.29102 49.8066 10.2801 49.8066 11.5002C49.8066 12.7204 50.7425 13.7095 51.8969 13.7095Z" fill="#5F01D1"/>
<path d="M54.6732 8.47971H50.9102L54.25 0H57.999L54.6732 8.47971Z" fill="#5F01D1"/>
</svg>
